<?xml version="1.0" encoding="utf-8" standalone="no"?>
<!DOCTYPE svg PUBLIC "-//W3C//DTD SVG 1.1//EN"
  "http://www.w3.org/Graphics/SVG/1.1/DTD/svg11.dtd">
<svg xmlns:xlink="http://www.w3.org/1999/xlink" width="720pt" height="576pt" viewBox="0 0 720 576" xmlns="http://www.w3.org/2000/svg" version="1.1">
 <metadata>
  <rdf:RDF xmlns:dc="http://purl.org/dc/elements/1.1/" xmlns:cc="http://creativecommons.org/ns#" xmlns:rdf="http://www.w3.org/1999/02/22-rdf-syntax-ns#">
   <cc:Work>
    <dc:type rdf:resource="http://purl.org/dc/dcmitype/StillImage"/>
    <dc:date>2025-09-14T20:16:42.906571</dc:date>
    <dc:format>image/svg+xml</dc:format>
    <dc:creator>
     <cc:Agent>
      <dc:title>Matplotlib v3.10.3, https://matplotlib.org/</dc:title>
     </cc:Agent>
    </dc:creator>
   </cc:Work>
  </rdf:RDF>
 </metadata>
 <defs>
  <style type="text/css">*{stroke-linejoin: round; stroke-linecap: butt}</style>
 </defs>
 <g id="figure_1">
  <g id="patch_1">
   <path d="M 0 576 
L 720 576 
L 720 0 
L 0 0 
z
" style="fill: #ffffff"/>
  </g>
  <g id="axes_1">
   <g id="patch_2">
    <path d="M 90 512.64 
L 648 512.64 
L 648 69.12 
L 90 69.12 
z
" style="fill: #ffffff"/>
   </g>
   <g id="FillBetweenPolyCollection_1">
    <defs>
     <path id="m5ce4812f7c" d="M 243.992664 -137.184769 
L 217.313121 -137.184769 
L 216.233055 -137.268914 
L 215.164494 -137.353059 
L 214.121404 -137.437204 
L 213.118064 -137.52135 
L 212.168678 -137.605495 
L 211.286948 -137.68964 
L 210.485609 -137.773785 
L 209.775963 -137.857931 
L 209.167407 -137.942076 
L 208.667002 -138.026221 
L 208.279078 -138.110366 
L 208.004923 -138.194512 
L 207.842557 -138.278657 
L 207.786615 -138.362802 
L 207.828354 -138.446947 
L 207.955776 -138.531093 
L 208.153884 -138.615238 
L 208.405047 -138.699383 
L 208.689459 -138.783528 
L 208.985696 -138.867674 
L 209.271308 -138.951819 
L 209.523463 -139.035964 
L 209.719586 -139.120109 
L 209.837994 -139.204255 
L 209.858492 -139.2884 
L 209.762922 -139.372545 
L 209.535667 -139.45669 
L 209.164073 -139.540835 
L 208.638831 -139.624981 
L 207.954279 -139.709126 
L 207.108648 -139.793271 
L 206.10425 -139.877416 
L 204.9476 -139.961562 
L 203.649468 -140.045707 
L 202.22486 -140.129852 
L 200.692912 -140.213997 
L 199.076684 -140.298143 
L 197.402846 -140.382288 
L 195.701241 -140.466433 
L 194.004329 -140.550578 
L 192.346495 -140.634724 
L 190.763238 -140.718869 
L 189.290261 -140.803014 
L 187.962475 -140.887159 
L 186.812953 -140.971305 
L 185.871881 -141.05545 
L 185.165541 -141.139595 
L 184.715375 -141.22374 
L 184.53719 -141.307886 
L 184.640525 -141.392031 
L 185.028243 -141.476176 
L 185.696354 -141.560321 
L 186.634107 -141.644467 
L 187.824336 -141.728612 
L 189.244061 -141.812757 
L 190.865315 -141.896902 
L 192.656168 -141.981048 
L 194.581885 -142.065193 
L 196.606177 -142.149338 
L 198.692477 -142.233483 
L 200.805176 -142.317629 
L 202.910769 -142.401774 
L 204.978851 -142.485919 
L 206.982916 -142.570064 
L 208.900939 -142.654209 
L 210.715722 -142.738355 
L 212.414983 -142.8225 
L 213.991232 -142.906645 
L 215.441424 -142.99079 
L 216.766454 -143.074936 
L 217.970512 -143.159081 
L 219.060367 -143.243226 
L 220.044608 -143.327371 
L 220.932909 -143.411517 
L 221.73534 -143.495662 
L 222.461773 -143.579807 
L 223.121404 -143.663952 
L 223.722395 -143.748098 
L 224.271666 -143.832243 
L 224.774798 -143.916388 
L 225.23607 -144.000533 
L 225.658589 -144.084679 
L 226.044487 -144.168824 
L 226.395179 -144.252969 
L 226.711635 -144.337114 
L 226.99465 -144.42126 
L 227.245091 -144.505405 
L 227.464102 -144.58955 
L 227.653254 -144.673695 
L 227.814629 -144.757841 
L 227.950847 -144.841986 
L 228.065033 -144.926131 
L 228.160726 -145.010276 
L 228.241749 -145.094422 
L 228.312061 -145.178567 
L 228.375575 -145.262712 
L 228.435999 -145.346857 
L 228.496672 -145.431002 
L 228.560432 -145.515148 
L 232.745353 -145.515148 
L 232.745353 -145.515148 
L 232.809113 -145.431002 
L 232.869786 -145.346857 
L 232.93021 -145.262712 
L 232.993724 -145.178567 
L 233.064036 -145.094422 
L 233.14506 -145.010276 
L 233.240752 -144.926131 
L 233.354938 -144.841986 
L 233.491156 -144.757841 
L 233.652531 -144.673695 
L 233.841683 -144.58955 
L 234.060694 -144.505405 
L 234.311135 -144.42126 
L 234.59415 -144.337114 
L 234.910606 -144.252969 
L 235.261298 -144.168824 
L 235.647196 -144.084679 
L 236.069715 -144.000533 
L 236.530988 -143.916388 
L 237.034119 -143.832243 
L 237.58339 -143.748098 
L 238.184382 -143.663952 
L 238.844012 -143.579807 
L 239.570445 -143.495662 
L 240.372876 -143.411517 
L 241.261177 -143.327371 
L 242.245418 -143.243226 
L 243.335273 -143.159081 
L 244.539331 -143.074936 
L 245.864361 -142.99079 
L 247.314553 -142.906645 
L 248.890802 -142.8225 
L 250.590063 -142.738355 
L 252.404846 -142.654209 
L 254.322869 -142.570064 
L 256.326934 -142.485919 
L 258.395016 -142.401774 
L 260.50061 -142.317629 
L 262.613309 -142.233483 
L 264.699608 -142.149338 
L 266.7239 -142.065193 
L 268.649617 -141.981048 
L 270.44047 -141.896902 
L 272.061724 -141.812757 
L 273.481449 -141.728612 
L 274.671678 -141.644467 
L 275.609431 -141.560321 
L 276.277542 -141.476176 
L 276.66526 -141.392031 
L 276.768595 -141.307886 
L 276.59041 -141.22374 
L 276.140245 -141.139595 
L 275.433904 -141.05545 
L 274.492832 -140.971305 
L 273.34331 -140.887159 
L 272.015524 -140.803014 
L 270.542547 -140.718869 
L 268.95929 -140.634724 
L 267.301456 -140.550578 
L 265.604544 -140.466433 
L 263.90294 -140.382288 
L 262.229101 -140.298143 
L 260.612873 -140.213997 
L 259.080925 -140.129852 
L 257.656318 -140.045707 
L 256.358186 -139.961562 
L 255.201535 -139.877416 
L 254.197138 -139.793271 
L 253.351506 -139.709126 
L 252.666954 -139.624981 
L 252.141712 -139.540835 
L 251.770119 -139.45669 
L 251.542863 -139.372545 
L 251.447293 -139.2884 
L 251.467791 -139.204255 
L 251.586199 -139.120109 
L 251.782322 -139.035964 
L 252.034477 -138.951819 
L 252.320089 -138.867674 
L 252.616326 -138.783528 
L 252.900739 -138.699383 
L 253.151901 -138.615238 
L 253.350009 -138.531093 
L 253.477431 -138.446947 
L 253.51917 -138.362802 
L 253.463228 -138.278657 
L 253.300862 -138.194512 
L 253.026707 -138.110366 
L 252.638783 -138.026221 
L 252.138378 -137.942076 
L 251.529822 -137.857931 
L 250.820176 -137.773785 
L 250.018837 -137.68964 
L 249.137107 -137.605495 
L 248.187721 -137.52135 
L 247.184381 -137.437204 
L 246.141291 -137.353059 
L 245.07273 -137.268914 
L 243.992664 -137.184769 
z
" style="stroke: #1a85ff; stroke-opacity: 0.75"/>
    </defs>
    <g clip-path="url(#p263395d13e)">
     <use xlink:href="#m5ce4812f7c" x="0" y="576" style="fill: #1a85ff; fill-opacity: 0.75; stroke: #1a85ff; stroke-opacity: 0.75"/>
    </g>
   </g>
   <g id="FillBetweenPolyCollection_2">
    <defs>
     <path id="mbd50b31ff8" d="M 363.340093 -125.275858 
L 328.544204 -125.275858 
L 327.314424 -125.325182 
L 326.094764 -125.374505 
L 324.895963 -125.423828 
L 323.728709 -125.473152 
L 322.603404 -125.522475 
L 321.529917 -125.571799 
L 320.517323 -125.621122 
L 319.573643 -125.670445 
L 318.705583 -125.719769 
L 317.918284 -125.769092 
L 317.215092 -125.818415 
L 316.597359 -125.867739 
L 316.064286 -125.917062 
L 315.612817 -125.966385 
L 315.237603 -126.015709 
L 314.931035 -126.065032 
L 314.683362 -126.114355 
L 314.482899 -126.163679 
L 314.316312 -126.213002 
L 314.168999 -126.262325 
L 314.025541 -126.311649 
L 313.870218 -126.360972 
L 313.687568 -126.410296 
L 313.462975 -126.459619 
L 313.183255 -126.508942 
L 312.837222 -126.558266 
L 312.416197 -126.607589 
L 311.914443 -126.656912 
L 311.329508 -126.706236 
L 310.662439 -126.755559 
L 309.917874 -126.804882 
L 309.103985 -126.854206 
L 308.232293 -126.903529 
L 307.317331 -126.952852 
L 306.376193 -127.002176 
L 305.427971 -127.051499 
L 304.493114 -127.100823 
L 303.592721 -127.150146 
L 302.747813 -127.199469 
L 301.97861 -127.248793 
L 301.303839 -127.298116 
L 300.740103 -127.347439 
L 300.301349 -127.396763 
L 299.998435 -127.446086 
L 299.838829 -127.495409 
L 299.826446 -127.544733 
L 299.961621 -127.594056 
L 300.24122 -127.643379 
L 300.658883 -127.692703 
L 301.205374 -127.742026 
L 301.869035 -127.79135 
L 302.636305 -127.840673 
L 303.492284 -127.889996 
L 304.421327 -127.93932 
L 305.407617 -127.988643 
L 306.435719 -128.037966 
L 307.491075 -128.08729 
L 308.560421 -128.136613 
L 309.632123 -128.185936 
L 310.696416 -128.23526 
L 311.745538 -128.284583 
L 312.77377 -128.333906 
L 313.777377 -128.38323 
L 314.75447 -128.432553 
L 315.704801 -128.481876 
L 316.629499 -128.5312 
L 317.530784 -128.580523 
L 318.411648 -128.629847 
L 319.275552 -128.67917 
L 320.126132 -128.728493 
L 320.966934 -128.777817 
L 321.80119 -128.82714 
L 322.631645 -128.876463 
L 323.460422 -128.925787 
L 324.288946 -128.97511 
L 325.117914 -129.024433 
L 325.947304 -129.073757 
L 326.776422 -129.12308 
L 327.60398 -129.172403 
L 328.428193 -129.221727 
L 329.246887 -129.27105 
L 330.057621 -129.320374 
L 330.8578 -129.369697 
L 331.644789 -129.41902 
L 332.416011 -129.468344 
L 333.169043 -129.517667 
L 333.901686 -129.56699 
L 334.61202 -129.616314 
L 335.298452 -129.665637 
L 335.959736 -129.71496 
L 336.594982 -129.764284 
L 337.203652 -129.813607 
L 337.78554 -129.86293 
L 338.340738 -129.912254 
L 338.869602 -129.961577 
L 339.372705 -130.0109 
L 339.85078 -130.060224 
L 340.30468 -130.109547 
L 340.735316 -130.158871 
L 351.148982 -130.158871 
L 351.148982 -130.158871 
L 351.579618 -130.109547 
L 352.033517 -130.060224 
L 352.511593 -130.0109 
L 353.014695 -129.961577 
L 353.54356 -129.912254 
L 354.098758 -129.86293 
L 354.680645 -129.813607 
L 355.289315 -129.764284 
L 355.924562 -129.71496 
L 356.585846 -129.665637 
L 357.272278 -129.616314 
L 357.982612 -129.56699 
L 358.715254 -129.517667 
L 359.468286 -129.468344 
L 360.239509 -129.41902 
L 361.026497 -129.369697 
L 361.826676 -129.320374 
L 362.63741 -129.27105 
L 363.456105 -129.221727 
L 364.280318 -129.172403 
L 365.107876 -129.12308 
L 365.936994 -129.073757 
L 366.766383 -129.024433 
L 367.595351 -128.97511 
L 368.423876 -128.925787 
L 369.252652 -128.876463 
L 370.083107 -128.82714 
L 370.917364 -128.777817 
L 371.758165 -128.728493 
L 372.608745 -128.67917 
L 373.472649 -128.629847 
L 374.353513 -128.580523 
L 375.254798 -128.5312 
L 376.179497 -128.481876 
L 377.129827 -128.432553 
L 378.10692 -128.38323 
L 379.110527 -128.333906 
L 380.138759 -128.284583 
L 381.187882 -128.23526 
L 382.252175 -128.185936 
L 383.323877 -128.136613 
L 384.393222 -128.08729 
L 385.448578 -128.037966 
L 386.476681 -127.988643 
L 387.462971 -127.93932 
L 388.392013 -127.889996 
L 389.247993 -127.840673 
L 390.015262 -127.79135 
L 390.678924 -127.742026 
L 391.225415 -127.692703 
L 391.643077 -127.643379 
L 391.922676 -127.594056 
L 392.057851 -127.544733 
L 392.045468 -127.495409 
L 391.885863 -127.446086 
L 391.582948 -127.396763 
L 391.144194 -127.347439 
L 390.580459 -127.298116 
L 389.905687 -127.248793 
L 389.136485 -127.199469 
L 388.291577 -127.150146 
L 387.391183 -127.100823 
L 386.456326 -127.051499 
L 385.508105 -127.002176 
L 384.566966 -126.952852 
L 383.652004 -126.903529 
L 382.780312 -126.854206 
L 381.966424 -126.804882 
L 381.221858 -126.755559 
L 380.554789 -126.706236 
L 379.969854 -126.656912 
L 379.468101 -126.607589 
L 379.047075 -126.558266 
L 378.701042 -126.508942 
L 378.421323 -126.459619 
L 378.196729 -126.410296 
L 378.014079 -126.360972 
L 377.858756 -126.311649 
L 377.715299 -126.262325 
L 377.567986 -126.213002 
L 377.401399 -126.163679 
L 377.200935 -126.114355 
L 376.953263 -126.065032 
L 376.646695 -126.015709 
L 376.27148 -125.966385 
L 375.820011 -125.917062 
L 375.286938 -125.867739 
L 374.669205 -125.818415 
L 373.966013 -125.769092 
L 373.178715 -125.719769 
L 372.310655 -125.670445 
L 371.366975 -125.621122 
L 370.354381 -125.571799 
L 369.280893 -125.522475 
L 368.155589 -125.473152 
L 366.988335 -125.423828 
L 365.789534 -125.374505 
L 364.569874 -125.325182 
L 363.340093 -125.275858 
z
" style="stroke: #1a85ff; stroke-opacity: 0.75"/>
    </defs>
    <g clip-path="url(#p263395d13e)">
     <use xlink:href="#mbd50b31ff8" x="0" y="576" style="fill: #1a85ff; fill-opacity: 0.75; stroke: #1a85ff; stroke-opacity: 0.75"/>
    </g>
   </g>
   <g id="FillBetweenPolyCollection_3">
    <defs>
     <path id="m18b9526f5f" d="M 598.475261 -436.161731 
L 554.566062 -436.161731 
L 553.602586 -436.67242 
L 552.707499 -437.18311 
L 551.888583 -437.693799 
L 551.152208 -438.204489 
L 550.503177 -438.715178 
L 549.944615 -439.225868 
L 549.477913 -439.736558 
L 549.102716 -440.247247 
L 548.816968 -440.757937 
L 548.617002 -441.268626 
L 548.497668 -441.779316 
L 548.452504 -442.290006 
L 548.47393 -442.800695 
L 548.553468 -443.311385 
L 548.681964 -443.822074 
L 548.849822 -444.332764 
L 549.047224 -444.843454 
L 549.264338 -445.354143 
L 549.491504 -445.864833 
L 549.719396 -446.375522 
L 549.939155 -446.886212 
L 550.142484 -447.396902 
L 550.321727 -447.907591 
L 550.469903 -448.418281 
L 550.580726 -448.92897 
L 550.6486 -449.43966 
L 550.668604 -449.950349 
L 550.63646 -450.461039 
L 550.548505 -450.971729 
L 550.401664 -451.482418 
L 550.193431 -451.993108 
L 549.921861 -452.503797 
L 549.585578 -453.014487 
L 549.183795 -453.525177 
L 548.716348 -454.035866 
L 548.18375 -454.546556 
L 547.58724 -455.057245 
L 546.928848 -455.567935 
L 546.211445 -456.078625 
L 545.438798 -456.589314 
L 544.615601 -457.100004 
L 543.747489 -457.610693 
L 542.841028 -458.121383 
L 541.903678 -458.632073 
L 540.943728 -459.142762 
L 539.970204 -459.653452 
L 538.992744 -460.164141 
L 538.021458 -460.674831 
L 537.066768 -461.18552 
L 536.139238 -461.69621 
L 535.249392 -462.2069 
L 534.407546 -462.717589 
L 533.623635 -463.228279 
L 532.90707 -463.738968 
L 532.266597 -464.249658 
L 531.710189 -464.760348 
L 531.244958 -465.271037 
L 530.877094 -465.781727 
L 530.611818 -466.292416 
L 530.45336 -466.803106 
L 530.404959 -467.313796 
L 530.46886 -467.824485 
L 530.646335 -468.335175 
L 530.937696 -468.845864 
L 531.342321 -469.356554 
L 531.858666 -469.867244 
L 532.484286 -470.377933 
L 533.215852 -470.888623 
L 534.049167 -471.399312 
L 534.979182 -471.910002 
L 536.000021 -472.420691 
L 537.105016 -472.931381 
L 538.286749 -473.442071 
L 539.537114 -473.95276 
L 540.847392 -474.46345 
L 542.208349 -474.974139 
L 543.610346 -475.484829 
L 545.043474 -475.995519 
L 546.497698 -476.506208 
L 547.963013 -477.016898 
L 549.429604 -477.527587 
L 550.888009 -478.038277 
L 552.329276 -478.548967 
L 553.745106 -479.059656 
L 555.127978 -479.570346 
L 556.471256 -480.081035 
L 557.769269 -480.591725 
L 559.017356 -481.102415 
L 560.211892 -481.613104 
L 561.350273 -482.123794 
L 562.430884 -482.634483 
L 563.453031 -483.145173 
L 564.416858 -483.655862 
L 565.323244 -484.166552 
L 566.17369 -484.677242 
L 566.970198 -485.187931 
L 567.715146 -485.698621 
L 568.411175 -486.20931 
L 569.061072 -486.72 
L 583.98025 -486.72 
L 583.98025 -486.72 
L 584.630147 -486.20931 
L 585.326176 -485.698621 
L 586.071125 -485.187931 
L 586.867632 -484.677242 
L 587.718078 -484.166552 
L 588.624464 -483.655862 
L 589.588291 -483.145173 
L 590.610438 -482.634483 
L 591.691049 -482.123794 
L 592.829431 -481.613104 
L 594.023966 -481.102415 
L 595.272054 -480.591725 
L 596.570066 -480.081035 
L 597.913344 -479.570346 
L 599.296216 -479.059656 
L 600.712046 -478.548967 
L 602.153313 -478.038277 
L 603.611719 -477.527587 
L 605.078309 -477.016898 
L 606.543624 -476.506208 
L 607.997848 -475.995519 
L 609.430977 -475.484829 
L 610.832974 -474.974139 
L 612.19393 -474.46345 
L 613.504208 -473.95276 
L 614.754573 -473.442071 
L 615.936307 -472.931381 
L 617.041302 -472.420691 
L 618.062141 -471.910002 
L 618.992155 -471.399312 
L 619.82547 -470.888623 
L 620.557036 -470.377933 
L 621.182657 -469.867244 
L 621.699001 -469.356554 
L 622.103626 -468.845864 
L 622.394988 -468.335175 
L 622.572463 -467.824485 
L 622.636364 -467.313796 
L 622.587962 -466.803106 
L 622.429505 -466.292416 
L 622.164228 -465.781727 
L 621.796364 -465.271037 
L 621.331134 -464.760348 
L 620.774725 -464.249658 
L 620.134252 -463.738968 
L 619.417687 -463.228279 
L 618.633777 -462.717589 
L 617.79193 -462.2069 
L 616.902084 -461.69621 
L 615.974554 -461.18552 
L 615.019865 -460.674831 
L 614.048579 -460.164141 
L 613.071118 -459.653452 
L 612.097594 -459.142762 
L 611.137645 -458.632073 
L 610.200295 -458.121383 
L 609.293833 -457.610693 
L 608.425721 -457.100004 
L 607.602524 -456.589314 
L 606.829878 -456.078625 
L 606.112475 -455.567935 
L 605.454082 -455.057245 
L 604.857572 -454.546556 
L 604.324974 -454.035866 
L 603.857528 -453.525177 
L 603.455744 -453.014487 
L 603.119461 -452.503797 
L 602.847892 -451.993108 
L 602.639659 -451.482418 
L 602.492818 -450.971729 
L 602.404862 -450.461039 
L 602.372718 -449.950349 
L 602.392722 -449.43966 
L 602.460596 -448.92897 
L 602.571419 -448.418281 
L 602.719595 -447.907591 
L 602.898838 -447.396902 
L 603.102168 -446.886212 
L 603.321926 -446.375522 
L 603.549819 -445.864833 
L 603.776984 -445.354143 
L 603.994098 -444.843454 
L 604.1915 -444.332764 
L 604.359359 -443.822074 
L 604.487855 -443.311385 
L 604.567392 -442.800695 
L 604.588818 -442.290006 
L 604.543654 -441.779316 
L 604.42432 -441.268626 
L 604.224354 -440.757937 
L 603.938607 -440.247247 
L 603.563409 -439.736558 
L 603.096707 -439.225868 
L 602.538145 -438.715178 
L 601.889114 -438.204489 
L 601.15274 -437.693799 
L 600.333824 -437.18311 
L 599.438736 -436.67242 
L 598.475261 -436.161731 
z
" style="stroke: #1a85ff; stroke-opacity: 0.75"/>
    </defs>
    <g clip-path="url(#p263395d13e)">
     <use xlink:href="#m18b9526f5f" x="0" y="576" style="fill: #1a85ff; fill-opacity: 0.75; stroke: #1a85ff; stroke-opacity: 0.75"/>
    </g>
   </g>
   <g id="PathCollection_1">
    <defs>
     <path id="md89dcb8f52" d="M -3.061862 6.123724 
L 0 3.061862 
L 3.061862 6.123724 
L 6.123724 3.061862 
L 3.061862 0 
L 6.123724 -3.061862 
L 3.061862 -6.123724 
L 0 -3.061862 
L -3.061862 -6.123724 
L -6.123724 -3.061862 
L -3.061862 0 
L -6.123724 3.061862 
z
" style="stroke: #000000; stroke-opacity: 0.8; stroke-width: 2"/>
    </defs>
    <g clip-path="url(#p263395d13e)">
     <use xlink:href="#md89dcb8f52" x="115.363636" y="492.48" style="fill: #1a85ff; fill-opacity: 0.8; stroke: #000000; stroke-opacity: 0.8; stroke-width: 2"/>
    </g>
   </g>
   <g id="PathCollection_2">
    <g clip-path="url(#p263395d13e)">
     <use xlink:href="#md89dcb8f52" x="461.231405" y="492.48" style="fill: #1a85ff; fill-opacity: 0.8; stroke: #000000; stroke-opacity: 0.8; stroke-width: 2"/>
    </g>
   </g>
   <g id="FillBetweenPolyCollection_4">
    <defs>
     <path id="m7414440beb" d="M 243.624096 -136.780708 
L 217.681689 -136.780708 
L 216.700476 -136.874032 
L 215.716573 -136.967356 
L 214.739912 -137.06068 
L 213.781054 -137.154005 
L 212.851011 -137.247329 
L 211.961037 -137.340653 
L 211.122393 -137.433977 
L 210.346103 -137.527301 
L 209.642686 -137.620625 
L 209.021893 -137.71395 
L 208.492446 -137.807274 
L 208.061788 -137.900598 
L 207.735854 -137.993922 
L 207.51887 -138.087246 
L 207.413187 -138.18057 
L 207.41916 -138.273895 
L 207.535064 -138.367219 
L 207.75707 -138.460543 
L 208.079259 -138.553867 
L 208.493697 -138.647191 
L 208.990552 -138.740515 
L 209.558258 -138.833839 
L 210.183715 -138.927164 
L 210.85253 -139.020488 
L 211.549282 -139.113812 
L 212.257803 -139.207136 
L 212.961484 -139.30046 
L 213.643571 -139.393784 
L 214.287476 -139.487109 
L 214.877067 -139.580433 
L 215.396952 -139.673757 
L 215.832744 -139.767081 
L 216.1713 -139.860405 
L 216.40094 -139.953729 
L 216.511627 -140.047054 
L 216.495131 -140.140378 
L 216.345149 -140.233702 
L 216.057398 -140.327026 
L 215.629676 -140.42035 
L 215.061887 -140.513674 
L 214.356034 -140.606999 
L 213.516187 -140.700323 
L 212.548405 -140.793647 
L 211.460644 -140.886971 
L 210.262626 -140.980295 
L 208.965681 -141.073619 
L 207.582572 -141.166943 
L 206.127291 -141.260268 
L 204.614837 -141.353592 
L 203.060981 -141.446916 
L 201.482024 -141.54024 
L 199.894538 -141.633564 
L 198.31512 -141.726888 
L 196.76014 -141.820213 
L 195.245506 -141.913537 
L 193.786436 -142.006861 
L 192.397259 -142.100185 
L 191.091233 -142.193509 
L 189.880387 -142.286833 
L 188.775405 -142.380158 
L 187.785523 -142.473482 
L 186.918477 -142.566806 
L 186.180463 -142.66013 
L 185.57614 -142.753454 
L 185.108654 -142.846778 
L 184.779691 -142.940103 
L 184.58954 -143.033427 
L 184.53719 -143.126751 
L 184.620422 -143.220075 
L 184.835922 -143.313399 
L 185.179395 -143.406723 
L 185.64568 -143.500048 
L 186.228866 -143.593372 
L 186.922405 -143.686696 
L 187.719215 -143.78002 
L 188.611784 -143.873344 
L 189.592261 -143.966668 
L 190.652546 -144.059992 
L 191.784369 -144.153317 
L 192.979363 -144.246641 
L 194.229132 -144.339965 
L 195.525318 -144.433289 
L 196.859661 -144.526613 
L 198.224051 -144.619937 
L 199.610584 -144.713262 
L 201.01161 -144.806586 
L 202.419783 -144.89991 
L 203.828098 -144.993234 
L 205.229932 -145.086558 
L 206.61908 -145.179882 
L 207.989778 -145.273207 
L 209.336731 -145.366531 
L 210.655126 -145.459855 
L 211.940644 -145.553179 
L 213.189463 -145.646503 
L 214.398254 -145.739827 
L 215.564175 -145.833152 
L 216.684858 -145.926476 
L 217.758388 -146.0198 
L 243.547397 -146.0198 
L 243.547397 -146.0198 
L 244.620927 -145.926476 
L 245.74161 -145.833152 
L 246.907531 -145.739827 
L 248.116322 -145.646503 
L 249.365141 -145.553179 
L 250.650659 -145.459855 
L 251.969054 -145.366531 
L 253.316007 -145.273207 
L 254.686706 -145.179882 
L 256.075853 -145.086558 
L 257.477687 -144.993234 
L 258.886002 -144.89991 
L 260.294175 -144.806586 
L 261.695201 -144.713262 
L 263.081734 -144.619937 
L 264.446124 -144.526613 
L 265.780467 -144.433289 
L 267.076654 -144.339965 
L 268.326423 -144.246641 
L 269.521416 -144.153317 
L 270.653239 -144.059992 
L 271.713524 -143.966668 
L 272.694001 -143.873344 
L 273.58657 -143.78002 
L 274.38338 -143.686696 
L 275.076919 -143.593372 
L 275.660105 -143.500048 
L 276.126391 -143.406723 
L 276.469863 -143.313399 
L 276.685363 -143.220075 
L 276.768595 -143.126751 
L 276.716245 -143.033427 
L 276.526094 -142.940103 
L 276.197131 -142.846778 
L 275.729645 -142.753454 
L 275.125322 -142.66013 
L 274.387308 -142.566806 
L 273.520262 -142.473482 
L 272.530381 -142.380158 
L 271.425398 -142.286833 
L 270.214553 -142.193509 
L 268.908526 -142.100185 
L 267.519349 -142.006861 
L 266.060279 -141.913537 
L 264.545645 -141.820213 
L 262.990665 -141.726888 
L 261.411247 -141.633564 
L 259.823761 -141.54024 
L 258.244804 -141.446916 
L 256.690948 -141.353592 
L 255.178494 -141.260268 
L 253.723213 -141.166943 
L 252.340104 -141.073619 
L 251.043159 -140.980295 
L 249.845141 -140.886971 
L 248.75738 -140.793647 
L 247.789598 -140.700323 
L 246.949751 -140.606999 
L 246.243899 -140.513674 
L 245.676109 -140.42035 
L 245.248387 -140.327026 
L 244.960636 -140.233702 
L 244.810654 -140.140378 
L 244.794158 -140.047054 
L 244.904845 -139.953729 
L 245.134485 -139.860405 
L 245.473041 -139.767081 
L 245.908833 -139.673757 
L 246.428718 -139.580433 
L 247.018309 -139.487109 
L 247.662214 -139.393784 
L 248.344301 -139.30046 
L 249.047982 -139.207136 
L 249.756503 -139.113812 
L 250.453255 -139.020488 
L 251.12207 -138.927164 
L 251.747527 -138.833839 
L 252.315233 -138.740515 
L 252.812088 -138.647191 
L 253.226526 -138.553867 
L 253.548715 -138.460543 
L 253.770721 -138.367219 
L 253.886625 -138.273895 
L 253.892598 -138.18057 
L 253.786916 -138.087246 
L 253.569931 -137.993922 
L 253.243997 -137.900598 
L 252.813339 -137.807274 
L 252.283892 -137.71395 
L 251.663099 -137.620625 
L 250.959682 -137.527301 
L 250.183392 -137.433977 
L 249.344748 -137.340653 
L 248.454774 -137.247329 
L 247.524731 -137.154005 
L 246.565873 -137.06068 
L 245.589212 -136.967356 
L 244.605309 -136.874032 
L 243.624096 -136.780708 
z
" style="stroke: #d41159; stroke-opacity: 0.75"/>
    </defs>
    <g clip-path="url(#p263395d13e)">
     <use xlink:href="#m7414440beb" x="0" y="576" style="fill: #d41159; fill-opacity: 0.75; stroke: #d41159; stroke-opacity: 0.75"/>
    </g>
   </g>
   <g id="FillBetweenPolyCollection_5">
    <defs>
     <path id="m8a4e43a210" d="M 383.326133 -125.239517 
L 308.558165 -125.239517 
L 306.904948 -125.316238 
L 305.386291 -125.392959 
L 304.021422 -125.46968 
L 302.827491 -125.546401 
L 301.819124 -125.623123 
L 301.00805 -125.699844 
L 300.402788 -125.776565 
L 300.008418 -125.853286 
L 299.826446 -125.930007 
L 299.854759 -126.006728 
L 300.087675 -126.08345 
L 300.516085 -126.160171 
L 301.127687 -126.236892 
L 301.907291 -126.313613 
L 302.837191 -126.390334 
L 303.897589 -126.467055 
L 305.067062 -126.543776 
L 306.323038 -126.620498 
L 307.642288 -126.697219 
L 309.001403 -126.77394 
L 310.377244 -126.850661 
L 311.74737 -126.927382 
L 313.090402 -127.004103 
L 314.386354 -127.080825 
L 315.616894 -127.157546 
L 316.765557 -127.234267 
L 317.817893 -127.310988 
L 318.761569 -127.387709 
L 319.58642 -127.46443 
L 320.284452 -127.541151 
L 320.849815 -127.617873 
L 321.278748 -127.694594 
L 321.569502 -127.771315 
L 321.722246 -127.848036 
L 321.73897 -127.924757 
L 321.623384 -128.001478 
L 321.380817 -128.0782 
L 321.018117 -128.154921 
L 320.543553 -128.231642 
L 319.966728 -128.308363 
L 319.29848 -128.385084 
L 318.550786 -128.461805 
L 317.73666 -128.538526 
L 316.870037 -128.615248 
L 315.965649 -128.691969 
L 315.038873 -128.76869 
L 314.105564 -128.845411 
L 313.181871 -128.922132 
L 312.284022 -128.998853 
L 311.428093 -129.075575 
L 310.62976 -129.152296 
L 309.904038 -129.229017 
L 309.265011 -129.305738 
L 308.725568 -129.382459 
L 308.297146 -129.45918 
L 307.98949 -129.535902 
L 307.810447 -129.612623 
L 307.765784 -129.689344 
L 307.859065 -129.766065 
L 308.09157 -129.842786 
L 308.462267 -129.919507 
L 308.967851 -129.996228 
L 309.602831 -130.07295 
L 310.359685 -130.149671 
L 311.229054 -130.226392 
L 312.199994 -130.303113 
L 313.260258 -130.379834 
L 314.396609 -130.456555 
L 315.595151 -130.533277 
L 316.841663 -130.609998 
L 318.121931 -130.686719 
L 319.42206 -130.76344 
L 320.728767 -130.840161 
L 322.029634 -130.916882 
L 323.313323 -130.993603 
L 324.569747 -131.070325 
L 325.790191 -131.147046 
L 326.967391 -131.223767 
L 328.095555 -131.300488 
L 329.170354 -131.377209 
L 330.188866 -131.45393 
L 331.149483 -131.530652 
L 332.051801 -131.607373 
L 332.89648 -131.684094 
L 333.685095 -131.760815 
L 334.419976 -131.837536 
L 335.104049 -131.914257 
L 335.740679 -131.990978 
L 336.33352 -132.0677 
L 336.886382 -132.144421 
L 337.403103 -132.221142 
L 337.887446 -132.297863 
L 338.343009 -132.374584 
L 338.773149 -132.451305 
L 339.180933 -132.528027 
L 339.569094 -132.604748 
L 339.940013 -132.681469 
L 340.295702 -132.75819 
L 340.637813 -132.834911 
L 351.246484 -132.834911 
L 351.246484 -132.834911 
L 351.588596 -132.75819 
L 351.944285 -132.681469 
L 352.315203 -132.604748 
L 352.703365 -132.528027 
L 353.111149 -132.451305 
L 353.541289 -132.374584 
L 353.996851 -132.297863 
L 354.481194 -132.221142 
L 354.997916 -132.144421 
L 355.550777 -132.0677 
L 356.143619 -131.990978 
L 356.780248 -131.914257 
L 357.464321 -131.837536 
L 358.199202 -131.760815 
L 358.987817 -131.684094 
L 359.832496 -131.607373 
L 360.734814 -131.530652 
L 361.695432 -131.45393 
L 362.713943 -131.377209 
L 363.788743 -131.300488 
L 364.916907 -131.223767 
L 366.094106 -131.147046 
L 367.314551 -131.070325 
L 368.570974 -130.993603 
L 369.854663 -130.916882 
L 371.15553 -130.840161 
L 372.462238 -130.76344 
L 373.762367 -130.686719 
L 375.042634 -130.609998 
L 376.289146 -130.533277 
L 377.487688 -130.456555 
L 378.62404 -130.379834 
L 379.684304 -130.303113 
L 380.655243 -130.226392 
L 381.524612 -130.149671 
L 382.281466 -130.07295 
L 382.916447 -129.996228 
L 383.42203 -129.919507 
L 383.792728 -129.842786 
L 384.025232 -129.766065 
L 384.118514 -129.689344 
L 384.073851 -129.612623 
L 383.894807 -129.535902 
L 383.587152 -129.45918 
L 383.15873 -129.382459 
L 382.619287 -129.305738 
L 381.98026 -129.229017 
L 381.254537 -129.152296 
L 380.456204 -129.075575 
L 379.600275 -128.998853 
L 378.702426 -128.922132 
L 377.778734 -128.845411 
L 376.845425 -128.76869 
L 375.918648 -128.691969 
L 375.01426 -128.615248 
L 374.147638 -128.538526 
L 373.333512 -128.461805 
L 372.585817 -128.385084 
L 371.917569 -128.308363 
L 371.340744 -128.231642 
L 370.866181 -128.154921 
L 370.50348 -128.0782 
L 370.260913 -128.001478 
L 370.145328 -127.924757 
L 370.162052 -127.848036 
L 370.314795 -127.771315 
L 370.605549 -127.694594 
L 371.034483 -127.617873 
L 371.599846 -127.541151 
L 372.297877 -127.46443 
L 373.122728 -127.387709 
L 374.066405 -127.310988 
L 375.118741 -127.234267 
L 376.267403 -127.157546 
L 377.497943 -127.080825 
L 378.793895 -127.004103 
L 380.136928 -126.927382 
L 381.507053 -126.850661 
L 382.882895 -126.77394 
L 384.242009 -126.697219 
L 385.561259 -126.620498 
L 386.817235 -126.543776 
L 387.986708 -126.467055 
L 389.047107 -126.390334 
L 389.977006 -126.313613 
L 390.75661 -126.236892 
L 391.368213 -126.160171 
L 391.796623 -126.08345 
L 392.029538 -126.006728 
L 392.057851 -125.930007 
L 391.875879 -125.853286 
L 391.481509 -125.776565 
L 390.876247 -125.699844 
L 390.065173 -125.623123 
L 389.056807 -125.546401 
L 387.862875 -125.46968 
L 386.498007 -125.392959 
L 384.979349 -125.316238 
L 383.326133 -125.239517 
z
" style="stroke: #d41159; stroke-opacity: 0.75"/>
    </defs>
    <g clip-path="url(#p263395d13e)">
     <use xlink:href="#m8a4e43a210" x="0" y="576" style="fill: #d41159; fill-opacity: 0.75; stroke: #d41159; stroke-opacity: 0.75"/>
    </g>
   </g>
   <g id="FillBetweenPolyCollection_6">
    <defs>
     <path id="m6ec8a84efc" d="M 589.981201 -409.446753 
L 563.060122 -409.446753 
L 562.293255 -409.959743 
L 561.561068 -410.472732 
L 560.87229 -410.985721 
L 560.235162 -411.498711 
L 559.65722 -412.0117 
L 559.145093 -412.524689 
L 558.704323 -413.037679 
L 558.339201 -413.550668 
L 558.052641 -414.063658 
L 557.846083 -414.576647 
L 557.719433 -415.089636 
L 557.67105 -415.602626 
L 557.697757 -416.115615 
L 557.794902 -416.628604 
L 557.956452 -417.141594 
L 558.175111 -417.654583 
L 558.442474 -418.167572 
L 558.749194 -418.680562 
L 559.085171 -419.193551 
L 559.439742 -419.706541 
L 559.801888 -420.21953 
L 560.160423 -420.732519 
L 560.504186 -421.245509 
L 560.822225 -421.758498 
L 561.103956 -422.271487 
L 561.339319 -422.784477 
L 561.518906 -423.297466 
L 561.634078 -423.810455 
L 561.677063 -424.323445 
L 561.641032 -424.836434 
L 561.520169 -425.349424 
L 561.309718 -425.862413 
L 561.006022 -426.375402 
L 560.606551 -426.888392 
L 560.10992 -427.401381 
L 559.515895 -427.91437 
L 558.825397 -428.42736 
L 558.040497 -428.940349 
L 557.164396 -429.453338 
L 556.201407 -429.966328 
L 555.156921 -430.479317 
L 554.037369 -430.992306 
L 552.850162 -431.505296 
L 551.603631 -432.018285 
L 550.306952 -432.531275 
L 548.970049 -433.044264 
L 547.603494 -433.557253 
L 546.218393 -434.070243 
L 544.826256 -434.583232 
L 543.438861 -435.096221 
L 542.068113 -435.609211 
L 540.725895 -436.1222 
L 539.423921 -436.635189 
L 538.17359 -437.148179 
L 536.985842 -437.661168 
L 535.871035 -438.174158 
L 534.83882 -438.687147 
L 533.89804 -439.200136 
L 533.056641 -439.713126 
L 532.321605 -440.226115 
L 531.698896 -440.739104 
L 531.193428 -441.252094 
L 530.809049 -441.765083 
L 530.548536 -442.278072 
L 530.413611 -442.791062 
L 530.404959 -443.304051 
L 530.522261 -443.817041 
L 530.764231 -444.33003 
L 531.128654 -444.843019 
L 531.61243 -445.356009 
L 532.211621 -445.868998 
L 532.921491 -446.381987 
L 533.736561 -446.894977 
L 534.650652 -447.407966 
L 535.656938 -447.920955 
L 536.748007 -448.433945 
L 537.915922 -448.946934 
L 539.152292 -449.459924 
L 540.448351 -449.972913 
L 541.795048 -450.485902 
L 543.183142 -450.998892 
L 544.603306 -451.511881 
L 546.04624 -452.02487 
L 547.502782 -452.53786 
L 548.964023 -453.050849 
L 550.42142 -453.563838 
L 551.8669 -454.076828 
L 553.292952 -454.589817 
L 554.692716 -455.102807 
L 556.060042 -455.615796 
L 557.389537 -456.128785 
L 558.676599 -456.641775 
L 559.917419 -457.154764 
L 561.108971 -457.667753 
L 562.248982 -458.180743 
L 563.335887 -458.693732 
L 564.368772 -459.206721 
L 565.347305 -459.719711 
L 566.271659 -460.2327 
L 586.769663 -460.2327 
L 586.769663 -460.2327 
L 587.694017 -459.719711 
L 588.67255 -459.206721 
L 589.705435 -458.693732 
L 590.792341 -458.180743 
L 591.932352 -457.667753 
L 593.123903 -457.154764 
L 594.364723 -456.641775 
L 595.651785 -456.128785 
L 596.981281 -455.615796 
L 598.348606 -455.102807 
L 599.74837 -454.589817 
L 601.174423 -454.076828 
L 602.619902 -453.563838 
L 604.077299 -453.050849 
L 605.53854 -452.53786 
L 606.995082 -452.02487 
L 608.438016 -451.511881 
L 609.85818 -450.998892 
L 611.246274 -450.485902 
L 612.592971 -449.972913 
L 613.889031 -449.459924 
L 615.125401 -448.946934 
L 616.293316 -448.433945 
L 617.384385 -447.920955 
L 618.390671 -447.407966 
L 619.304761 -446.894977 
L 620.119831 -446.381987 
L 620.829702 -445.868998 
L 621.428892 -445.356009 
L 621.912668 -444.843019 
L 622.277091 -444.33003 
L 622.519061 -443.817041 
L 622.636364 -443.304051 
L 622.627712 -442.791062 
L 622.492786 -442.278072 
L 622.232274 -441.765083 
L 621.847894 -441.252094 
L 621.342427 -440.739104 
L 620.719718 -440.226115 
L 619.984682 -439.713126 
L 619.143283 -439.200136 
L 618.202502 -438.687147 
L 617.170287 -438.174158 
L 616.05548 -437.661168 
L 614.867733 -437.148179 
L 613.617401 -436.635189 
L 612.315427 -436.1222 
L 610.97321 -435.609211 
L 609.602462 -435.096221 
L 608.215067 -434.583232 
L 606.822929 -434.070243 
L 605.437828 -433.557253 
L 604.071273 -433.044264 
L 602.73437 -432.531275 
L 601.437691 -432.018285 
L 600.191161 -431.505296 
L 599.003953 -430.992306 
L 597.884401 -430.479317 
L 596.839916 -429.966328 
L 595.876927 -429.453338 
L 595.000826 -428.940349 
L 594.215925 -428.42736 
L 593.525428 -427.91437 
L 592.931403 -427.401381 
L 592.434771 -426.888392 
L 592.0353 -426.375402 
L 591.731604 -425.862413 
L 591.521153 -425.349424 
L 591.40029 -424.836434 
L 591.364259 -424.323445 
L 591.407244 -423.810455 
L 591.522417 -423.297466 
L 591.702004 -422.784477 
L 591.937366 -422.271487 
L 592.219097 -421.758498 
L 592.537136 -421.245509 
L 592.880899 -420.732519 
L 593.239434 -420.21953 
L 593.60158 -419.706541 
L 593.956152 -419.193551 
L 594.292128 -418.680562 
L 594.598848 -418.167572 
L 594.866211 -417.654583 
L 595.08487 -417.141594 
L 595.24642 -416.628604 
L 595.343566 -416.115615 
L 595.370272 -415.602626 
L 595.321889 -415.089636 
L 595.19524 -414.576647 
L 594.988681 -414.063658 
L 594.702121 -413.550668 
L 594.336999 -413.037679 
L 593.896229 -412.524689 
L 593.384103 -412.0117 
L 592.80616 -411.498711 
L 592.169032 -410.985721 
L 591.480254 -410.472732 
L 590.748067 -409.959743 
L 589.981201 -409.446753 
z
" style="stroke: #d41159; stroke-opacity: 0.75"/>
    </defs>
    <g clip-path="url(#p263395d13e)">
     <use xlink:href="#m6ec8a84efc" x="0" y="576" style="fill: #d41159; fill-opacity: 0.75; stroke: #d41159; stroke-opacity: 0.75"/>
    </g>
   </g>
   <g id="PathCollection_3">
    <defs>
     <path id="m55254f9208" d="M -3.061862 6.123724 
L 0 3.061862 
L 3.061862 6.123724 
L 6.123724 3.061862 
L 3.061862 0 
L 6.123724 -3.061862 
L 3.061862 -6.123724 
L 0 -3.061862 
L -3.061862 -6.123724 
L -6.123724 -3.061862 
L -3.061862 0 
L -6.123724 3.061862 
z
" style="stroke: #000000; stroke-opacity: 0.8; stroke-width: 2"/>
    </defs>
    <g clip-path="url(#p263395d13e)">
     <use xlink:href="#m55254f9208" x="115.363636" y="492.48" style="fill: #d41159; fill-opacity: 0.8; stroke: #000000; stroke-opacity: 0.8; stroke-width: 2"/>
    </g>
   </g>
   <g id="PathCollection_4">
    <g clip-path="url(#p263395d13e)">
     <use xlink:href="#m55254f9208" x="461.231405" y="492.48" style="fill: #d41159; fill-opacity: 0.8; stroke: #000000; stroke-opacity: 0.8; stroke-width: 2"/>
    </g>
   </g>
   <g id="FillBetweenPolyCollection_7">
    <defs>
     <path id="m340a6cb3cd" d="M 255.909496 -136.899311 
L 205.396289 -136.899311 
L 203.990107 -137.003383 
L 202.667524 -137.107455 
L 201.447129 -137.211527 
L 200.346219 -137.315599 
L 199.380295 -137.419671 
L 198.562596 -137.523743 
L 197.903689 -137.627814 
L 197.411131 -137.731886 
L 197.089216 -137.835958 
L 196.938814 -137.94003 
L 196.957322 -138.044102 
L 197.13871 -138.148174 
L 197.473675 -138.252246 
L 197.949886 -138.356318 
L 198.552316 -138.460389 
L 199.263636 -138.564461 
L 200.064672 -138.668533 
L 200.93488 -138.772605 
L 201.852849 -138.876677 
L 202.796786 -138.980749 
L 203.744988 -139.084821 
L 204.676273 -139.188893 
L 205.570366 -139.292965 
L 206.408227 -139.397036 
L 207.17232 -139.501108 
L 207.846824 -139.60518 
L 208.417785 -139.709252 
L 208.873213 -139.813324 
L 209.203146 -139.917396 
L 209.399665 -140.021468 
L 209.456894 -140.12554 
L 209.370978 -140.229611 
L 209.140051 -140.333683 
L 208.764207 -140.437755 
L 208.245461 -140.541827 
L 207.587723 -140.645899 
L 206.79677 -140.749971 
L 205.880212 -140.854043 
L 204.84746 -140.958115 
L 203.709677 -141.062186 
L 202.479718 -141.166258 
L 201.172037 -141.27033 
L 199.802573 -141.374402 
L 198.388595 -141.478474 
L 196.948514 -141.582546 
L 195.501651 -141.686618 
L 194.067974 -141.79069 
L 192.667796 -141.894761 
L 191.321447 -141.998833 
L 190.048922 -142.102905 
L 188.869524 -142.206977 
L 187.801495 -142.311049 
L 186.861668 -142.415121 
L 186.065133 -142.519193 
L 185.424939 -142.623265 
L 184.951834 -142.727337 
L 184.654057 -142.831408 
L 184.53719 -142.93548 
L 184.604069 -143.039552 
L 184.85476 -143.143624 
L 185.286598 -143.247696 
L 185.894298 -143.351768 
L 186.67011 -143.45584 
L 187.604041 -143.559912 
L 188.684111 -143.663983 
L 189.896657 -143.768055 
L 191.226651 -143.872127 
L 192.658047 -143.976199 
L 194.174124 -144.080271 
L 195.757833 -144.184343 
L 197.392124 -144.288415 
L 199.060265 -144.392487 
L 200.746117 -144.496558 
L 202.434386 -144.60063 
L 204.110836 -144.704702 
L 205.762461 -144.808774 
L 207.377614 -144.912846 
L 208.946102 -145.016918 
L 210.459229 -145.12099 
L 211.909819 -145.225062 
L 213.292194 -145.329133 
L 214.602125 -145.433205 
L 215.836762 -145.537277 
L 216.994542 -145.641349 
L 218.075079 -145.745421 
L 219.079048 -145.849493 
L 220.008055 -145.953565 
L 220.864508 -146.057637 
L 221.651482 -146.161709 
L 222.372594 -146.26578 
L 223.03187 -146.369852 
L 223.63363 -146.473924 
L 224.182369 -146.577996 
L 224.682655 -146.682068 
L 225.13903 -146.78614 
L 225.555926 -146.890212 
L 225.937592 -146.994284 
L 226.288026 -147.098355 
L 226.61093 -147.202427 
L 234.694856 -147.202427 
L 234.694856 -147.202427 
L 235.017759 -147.098355 
L 235.368193 -146.994284 
L 235.749859 -146.890212 
L 236.166755 -146.78614 
L 236.62313 -146.682068 
L 237.123416 -146.577996 
L 237.672155 -146.473924 
L 238.273915 -146.369852 
L 238.933191 -146.26578 
L 239.654303 -146.161709 
L 240.441277 -146.057637 
L 241.29773 -145.953565 
L 242.226737 -145.849493 
L 243.230706 -145.745421 
L 244.311243 -145.641349 
L 245.469023 -145.537277 
L 246.70366 -145.433205 
L 248.013591 -145.329133 
L 249.395966 -145.225062 
L 250.846556 -145.12099 
L 252.359684 -145.016918 
L 253.928171 -144.912846 
L 255.543325 -144.808774 
L 257.194949 -144.704702 
L 258.871399 -144.60063 
L 260.559668 -144.496558 
L 262.24552 -144.392487 
L 263.913661 -144.288415 
L 265.547952 -144.184343 
L 267.131661 -144.080271 
L 268.647738 -143.976199 
L 270.079134 -143.872127 
L 271.409128 -143.768055 
L 272.621674 -143.663983 
L 273.701744 -143.559912 
L 274.635675 -143.45584 
L 275.411487 -143.351768 
L 276.019187 -143.247696 
L 276.451026 -143.143624 
L 276.701716 -143.039552 
L 276.768595 -142.93548 
L 276.651728 -142.831408 
L 276.353951 -142.727337 
L 275.880846 -142.623265 
L 275.240652 -142.519193 
L 274.444117 -142.415121 
L 273.50429 -142.311049 
L 272.436261 -142.206977 
L 271.256863 -142.102905 
L 269.984338 -141.998833 
L 268.637989 -141.894761 
L 267.237811 -141.79069 
L 265.804134 -141.686618 
L 264.357271 -141.582546 
L 262.91719 -141.478474 
L 261.503212 -141.374402 
L 260.133748 -141.27033 
L 258.826067 -141.166258 
L 257.596108 -141.062186 
L 256.458326 -140.958115 
L 255.425573 -140.854043 
L 254.509015 -140.749971 
L 253.718062 -140.645899 
L 253.060325 -140.541827 
L 252.541578 -140.437755 
L 252.165734 -140.333683 
L 251.934807 -140.229611 
L 251.848891 -140.12554 
L 251.90612 -140.021468 
L 252.102639 -139.917396 
L 252.432572 -139.813324 
L 252.888 -139.709252 
L 253.458961 -139.60518 
L 254.133465 -139.501108 
L 254.897558 -139.397036 
L 255.735419 -139.292965 
L 256.629512 -139.188893 
L 257.560797 -139.084821 
L 258.508999 -138.980749 
L 259.452936 -138.876677 
L 260.370905 -138.772605 
L 261.241113 -138.668533 
L 262.042149 -138.564461 
L 262.753469 -138.460389 
L 263.355899 -138.356318 
L 263.83211 -138.252246 
L 264.167075 -138.148174 
L 264.348463 -138.044102 
L 264.366971 -137.94003 
L 264.216569 -137.835958 
L 263.894654 -137.731886 
L 263.402096 -137.627814 
L 262.743189 -137.523743 
L 261.92549 -137.419671 
L 260.959566 -137.315599 
L 259.858656 -137.211527 
L 258.638262 -137.107455 
L 257.315678 -137.003383 
L 255.909496 -136.899311 
z
" style="stroke: #004d40; stroke-opacity: 0.75"/>
    </defs>
    <g clip-path="url(#p263395d13e)">
     <use xlink:href="#m340a6cb3cd" x="0" y="576" style="fill: #004d40; fill-opacity: 0.75; stroke: #004d40; stroke-opacity: 0.75"/>
    </g>
   </g>
   <g id="FillBetweenPolyCollection_8">
    <defs>
     <path id="m4ee9595a85" d="M 374.709073 -125.313655 
L 317.175224 -125.313655 
L 315.930885 -125.397203 
L 314.834885 -125.480751 
L 313.903811 -125.564299 
L 313.150771 -125.647847 
L 312.584921 -125.731395 
L 312.211118 -125.814943 
L 312.029715 -125.898491 
L 312.036513 -125.982039 
L 312.222869 -126.065588 
L 312.575949 -126.149136 
L 313.079121 -126.232684 
L 313.712463 -126.316232 
L 314.453368 -126.39978 
L 315.277212 -126.483328 
L 316.158062 -126.566876 
L 317.069384 -126.650424 
L 317.984744 -126.733972 
L 318.878454 -126.81752 
L 319.726154 -126.901068 
L 320.505316 -126.984617 
L 321.195654 -127.068165 
L 321.779435 -127.151713 
L 322.241694 -127.235261 
L 322.570362 -127.318809 
L 322.7563 -127.402357 
L 322.793277 -127.485905 
L 322.677872 -127.569453 
L 322.409354 -127.653001 
L 321.989516 -127.736549 
L 321.422507 -127.820097 
L 320.714659 -127.903646 
L 319.874311 -127.987194 
L 318.911662 -128.070742 
L 317.838626 -128.15429 
L 316.668708 -128.237838 
L 315.416891 -128.321386 
L 314.099531 -128.404934 
L 312.734246 -128.488482 
L 311.339802 -128.57203 
L 309.93597 -128.655578 
L 308.543358 -128.739126 
L 307.183211 -128.822675 
L 305.877154 -128.906223 
L 304.646903 -128.989771 
L 303.513921 -129.073319 
L 302.499036 -129.156867 
L 301.622021 -129.240415 
L 300.901154 -129.323963 
L 300.352767 -129.407511 
L 299.990813 -129.491059 
L 299.826446 -129.574607 
L 299.867669 -129.658155 
L 300.119032 -129.741704 
L 300.581431 -129.825252 
L 301.251998 -129.9088 
L 302.124105 -129.992348 
L 303.187483 -130.075896 
L 304.428458 -130.159444 
L 305.830299 -130.242992 
L 307.373657 -130.32654 
L 309.037094 -130.410088 
L 310.79767 -130.493636 
L 312.631562 -130.577184 
L 314.514703 -130.660733 
L 316.423397 -130.744281 
L 318.334902 -130.827829 
L 320.227946 -130.911377 
L 322.083169 -130.994925 
L 323.883466 -131.078473 
L 325.614232 -131.162021 
L 327.263507 -131.245569 
L 328.822011 -131.329117 
L 330.283095 -131.412665 
L 331.642599 -131.496213 
L 332.898656 -131.579762 
L 334.051432 -131.66331 
L 335.102841 -131.746858 
L 336.05624 -131.830406 
L 336.916123 -131.913954 
L 337.687829 -131.997502 
L 338.377278 -132.08105 
L 338.990731 -132.164598 
L 339.534594 -132.248146 
L 340.015259 -132.331694 
L 340.438983 -132.415242 
L 340.811801 -132.498791 
L 341.139469 -132.582339 
L 341.427436 -132.665887 
L 341.680825 -132.749435 
L 341.904437 -132.832983 
L 342.102747 -132.916531 
L 342.279919 -133.000079 
L 342.439798 -133.083627 
L 342.585918 -133.167175 
L 342.721493 -133.250723 
L 342.849406 -133.334272 
L 342.972198 -133.41782 
L 343.092053 -133.501368 
L 343.210783 -133.584916 
L 348.673515 -133.584916 
L 348.673515 -133.584916 
L 348.792245 -133.501368 
L 348.912099 -133.41782 
L 349.034891 -133.334272 
L 349.162805 -133.250723 
L 349.29838 -133.167175 
L 349.4445 -133.083627 
L 349.604379 -133.000079 
L 349.78155 -132.916531 
L 349.979861 -132.832983 
L 350.203472 -132.749435 
L 350.456862 -132.665887 
L 350.744829 -132.582339 
L 351.072497 -132.498791 
L 351.445314 -132.415242 
L 351.869038 -132.331694 
L 352.349703 -132.248146 
L 352.893567 -132.164598 
L 353.507019 -132.08105 
L 354.196468 -131.997502 
L 354.968175 -131.913954 
L 355.828057 -131.830406 
L 356.781456 -131.746858 
L 357.832865 -131.66331 
L 358.985642 -131.579762 
L 360.241699 -131.496213 
L 361.601203 -131.412665 
L 363.062286 -131.329117 
L 364.62079 -131.245569 
L 366.270065 -131.162021 
L 368.000832 -131.078473 
L 369.801128 -130.994925 
L 371.656351 -130.911377 
L 373.549396 -130.827829 
L 375.460901 -130.744281 
L 377.369595 -130.660733 
L 379.252736 -130.577184 
L 381.086628 -130.493636 
L 382.847204 -130.410088 
L 384.510641 -130.32654 
L 386.053999 -130.242992 
L 387.455839 -130.159444 
L 388.696815 -130.075896 
L 389.760193 -129.992348 
L 390.6323 -129.9088 
L 391.302867 -129.825252 
L 391.765266 -129.741704 
L 392.016629 -129.658155 
L 392.057851 -129.574607 
L 391.893485 -129.491059 
L 391.53153 -129.407511 
L 390.983144 -129.323963 
L 390.262276 -129.240415 
L 389.385261 -129.156867 
L 388.370376 -129.073319 
L 387.237395 -128.989771 
L 386.007144 -128.906223 
L 384.701087 -128.822675 
L 383.340939 -128.739126 
L 381.948328 -128.655578 
L 380.544495 -128.57203 
L 379.150051 -128.488482 
L 377.784767 -128.404934 
L 376.467407 -128.321386 
L 375.21559 -128.237838 
L 374.045672 -128.15429 
L 372.972636 -128.070742 
L 372.009987 -127.987194 
L 371.169639 -127.903646 
L 370.46179 -127.820097 
L 369.894782 -127.736549 
L 369.474944 -127.653001 
L 369.206425 -127.569453 
L 369.091021 -127.485905 
L 369.127997 -127.402357 
L 369.313936 -127.318809 
L 369.642604 -127.235261 
L 370.104863 -127.151713 
L 370.688643 -127.068165 
L 371.378981 -126.984617 
L 372.158144 -126.901068 
L 373.005844 -126.81752 
L 373.899553 -126.733972 
L 374.814914 -126.650424 
L 375.726236 -126.566876 
L 376.607085 -126.483328 
L 377.43093 -126.39978 
L 378.171835 -126.316232 
L 378.805177 -126.232684 
L 379.308348 -126.149136 
L 379.661428 -126.065588 
L 379.847784 -125.982039 
L 379.854583 -125.898491 
L 379.67318 -125.814943 
L 379.299377 -125.731395 
L 378.733527 -125.647847 
L 377.980487 -125.564299 
L 377.049412 -125.480751 
L 375.953412 -125.397203 
L 374.709073 -125.313655 
z
" style="stroke: #004d40; stroke-opacity: 0.75"/>
    </defs>
    <g clip-path="url(#p263395d13e)">
     <use xlink:href="#m4ee9595a85" x="0" y="576" style="fill: #004d40; fill-opacity: 0.75; stroke: #004d40; stroke-opacity: 0.75"/>
    </g>
   </g>
   <g id="FillBetweenPolyCollection_9">
    <defs>
     <path id="md49afb1c20" d="M 604.534071 -409.040432 
L 548.507252 -409.040432 
L 547.000386 -409.50199 
L 545.523005 -409.963547 
L 544.083784 -410.425104 
L 542.690882 -410.886661 
L 541.351843 -411.348218 
L 540.073509 -411.809775 
L 538.861963 -412.271333 
L 537.72248 -412.73289 
L 536.659505 -413.194447 
L 535.67664 -413.656004 
L 534.776657 -414.117561 
L 533.961513 -414.579118 
L 533.23238 -415.040676 
L 532.589688 -415.502233 
L 532.033166 -415.96379 
L 531.561893 -416.425347 
L 531.174354 -416.886904 
L 530.868492 -417.348461 
L 530.641764 -417.810019 
L 530.491204 -418.271576 
L 530.413481 -418.733133 
L 530.404959 -419.19469 
L 530.461761 -419.656247 
L 530.579834 -420.117804 
L 530.755018 -420.579362 
L 530.983107 -421.040919 
L 531.259919 -421.502476 
L 531.581364 -421.964033 
L 531.943502 -422.42559 
L 532.342602 -422.887148 
L 532.775192 -423.348705 
L 533.238102 -423.810262 
L 533.728487 -424.271819 
L 534.243851 -424.733376 
L 534.78204 -425.194933 
L 535.341236 -425.656491 
L 535.91992 -426.118048 
L 536.516832 -426.579605 
L 537.130911 -427.041162 
L 537.761226 -427.502719 
L 538.4069 -427.964276 
L 539.067026 -428.425834 
L 539.740582 -428.887391 
L 540.426357 -429.348948 
L 541.122873 -429.810505 
L 541.828327 -430.272062 
L 542.540543 -430.733619 
L 543.256948 -431.195177 
L 543.974561 -431.656734 
L 544.690006 -432.118291 
L 545.399553 -432.579848 
L 546.09917 -433.041405 
L 546.784604 -433.502962 
L 547.451474 -433.96452 
L 548.095379 -434.426077 
L 548.712023 -434.887634 
L 549.297333 -435.349191 
L 549.847594 -435.810748 
L 550.359568 -436.272305 
L 550.830614 -436.733863 
L 551.258793 -437.19542 
L 551.642952 -437.656977 
L 551.982799 -438.118534 
L 552.278948 -438.580091 
L 552.532938 -439.041648 
L 552.747236 -439.503206 
L 552.9252 -439.964763 
L 553.071034 -440.42632 
L 553.1897 -440.887877 
L 553.286822 -441.349434 
L 553.368564 -441.810991 
L 553.441492 -442.272549 
L 553.512428 -442.734106 
L 553.588289 -443.195663 
L 553.67593 -443.65722 
L 553.781988 -444.118777 
L 553.912723 -444.580334 
L 554.073882 -445.041892 
L 554.270571 -445.503449 
L 554.507141 -445.965006 
L 554.787106 -446.426563 
L 555.113074 -446.88812 
L 555.486708 -447.349677 
L 555.908707 -447.811235 
L 556.378818 -448.272792 
L 556.895865 -448.734349 
L 557.457806 -449.195906 
L 558.0618 -449.657463 
L 558.704302 -450.11902 
L 559.38116 -450.580578 
L 560.087726 -451.042135 
L 560.818972 -451.503692 
L 561.569609 -451.965249 
L 562.334202 -452.426806 
L 563.10728 -452.888363 
L 563.883442 -453.349921 
L 564.657452 -453.811478 
L 565.424321 -454.273035 
L 566.179377 -454.734592 
L 586.861945 -454.734592 
L 586.861945 -454.734592 
L 587.617001 -454.273035 
L 588.38387 -453.811478 
L 589.15788 -453.349921 
L 589.934042 -452.888363 
L 590.70712 -452.426806 
L 591.471713 -451.965249 
L 592.22235 -451.503692 
L 592.953596 -451.042135 
L 593.660162 -450.580578 
L 594.33702 -450.11902 
L 594.979522 -449.657463 
L 595.583516 -449.195906 
L 596.145457 -448.734349 
L 596.662504 -448.272792 
L 597.132615 -447.811235 
L 597.554614 -447.349677 
L 597.928248 -446.88812 
L 598.254217 -446.426563 
L 598.534182 -445.965006 
L 598.770752 -445.503449 
L 598.96744 -445.041892 
L 599.128599 -444.580334 
L 599.259334 -444.118777 
L 599.365392 -443.65722 
L 599.453034 -443.195663 
L 599.528894 -442.734106 
L 599.59983 -442.272549 
L 599.672758 -441.810991 
L 599.7545 -441.349434 
L 599.851622 -440.887877 
L 599.970289 -440.42632 
L 600.116122 -439.964763 
L 600.294087 -439.503206 
L 600.508384 -439.041648 
L 600.762374 -438.580091 
L 601.058523 -438.118534 
L 601.398371 -437.656977 
L 601.78253 -437.19542 
L 602.210708 -436.733863 
L 602.681755 -436.272305 
L 603.193729 -435.810748 
L 603.743989 -435.349191 
L 604.3293 -434.887634 
L 604.945943 -434.426077 
L 605.589849 -433.96452 
L 606.256718 -433.502962 
L 606.942152 -433.041405 
L 607.641769 -432.579848 
L 608.351316 -432.118291 
L 609.066762 -431.656734 
L 609.784374 -431.195177 
L 610.500779 -430.733619 
L 611.212996 -430.272062 
L 611.918449 -429.810505 
L 612.614965 -429.348948 
L 613.30074 -428.887391 
L 613.974297 -428.425834 
L 614.634422 -427.964276 
L 615.280096 -427.502719 
L 615.910412 -427.041162 
L 616.524491 -426.579605 
L 617.121402 -426.118048 
L 617.700086 -425.656491 
L 618.259282 -425.194933 
L 618.797472 -424.733376 
L 619.312835 -424.271819 
L 619.803221 -423.810262 
L 620.26613 -423.348705 
L 620.698721 -422.887148 
L 621.097821 -422.42559 
L 621.459958 -421.964033 
L 621.781403 -421.502476 
L 622.058216 -421.040919 
L 622.286304 -420.579362 
L 622.461488 -420.117804 
L 622.579562 -419.656247 
L 622.636364 -419.19469 
L 622.627841 -418.733133 
L 622.550118 -418.271576 
L 622.399558 -417.810019 
L 622.172831 -417.348461 
L 621.866968 -416.886904 
L 621.479429 -416.425347 
L 621.008157 -415.96379 
L 620.451634 -415.502233 
L 619.808942 -415.040676 
L 619.079809 -414.579118 
L 618.264665 -414.117561 
L 617.364682 -413.656004 
L 616.381818 -413.194447 
L 615.318842 -412.73289 
L 614.179359 -412.271333 
L 612.967813 -411.809775 
L 611.68948 -411.348218 
L 610.35044 -410.886661 
L 608.957538 -410.425104 
L 607.518317 -409.963547 
L 606.040936 -409.50199 
L 604.534071 -409.040432 
z
" style="stroke: #004d40; stroke-opacity: 0.75"/>
    </defs>
    <g clip-path="url(#p263395d13e)">
     <use xlink:href="#md49afb1c20" x="0" y="576" style="fill: #004d40; fill-opacity: 0.75; stroke: #004d40; stroke-opacity: 0.75"/>
    </g>
   </g>
   <g id="PathCollection_5">
    <defs>
     <path id="me9804db720" d="M -3.061862 6.123724 
L 0 3.061862 
L 3.061862 6.123724 
L 6.123724 3.061862 
L 3.061862 0 
L 6.123724 -3.061862 
L 3.061862 -6.123724 
L 0 -3.061862 
L -3.061862 -6.123724 
L -6.123724 -3.061862 
L -3.061862 0 
L -6.123724 3.061862 
z
" style="stroke: #000000; stroke-opacity: 0.8; stroke-width: 2"/>
    </defs>
    <g clip-path="url(#p263395d13e)">
     <use xlink:href="#me9804db720" x="115.363636" y="492.48" style="fill: #004d40; fill-opacity: 0.8; stroke: #000000; stroke-opacity: 0.8; stroke-width: 2"/>
    </g>
   </g>
   <g id="PathCollection_6">
    <g clip-path="url(#p263395d13e)">
     <use xlink:href="#me9804db720" x="461.231405" y="492.48" style="fill: #004d40; fill-opacity: 0.8; stroke: #000000; stroke-opacity: 0.8; stroke-width: 2"/>
    </g>
   </g>
   <g id="matplotlib.axis_1">
    <g id="xtick_1">
     <g id="line2d_1">
      <defs>
       <path id="m4a061c1260" d="M 0 0 
L 0 3.5 
" style="stroke: #000000; stroke-width: 0.8"/>
      </defs>
      <g>
       <use xlink:href="#m4a061c1260" x="115.363636" y="512.64" style="stroke: #000000; stroke-width: 0.8"/>
      </g>
     </g>
     <g id="text_1">
      <!-- D6V1 -->
      <g transform="translate(81.281605 538.636094) scale(0.25 -0.25)">
       <defs>
        <path id="DejaVuSans-44" d="M 1259 4147 
L 1259 519 
L 2022 519 
Q 2988 519 3436 956 
Q 3884 1394 3884 2338 
Q 3884 3275 3436 3711 
Q 2988 4147 2022 4147 
L 1259 4147 
z
M 628 4666 
L 1925 4666 
Q 3281 4666 3915 4102 
Q 4550 3538 4550 2338 
Q 4550 1131 3912 565 
Q 3275 0 1925 0 
L 628 0 
L 628 4666 
z
" transform="scale(0.015625)"/>
        <path id="DejaVuSans-36" d="M 2113 2584 
Q 1688 2584 1439 2293 
Q 1191 2003 1191 1497 
Q 1191 994 1439 701 
Q 1688 409 2113 409 
Q 2538 409 2786 701 
Q 3034 994 3034 1497 
Q 3034 2003 2786 2293 
Q 2538 2584 2113 2584 
z
M 3366 4563 
L 3366 3988 
Q 3128 4100 2886 4159 
Q 2644 4219 2406 4219 
Q 1781 4219 1451 3797 
Q 1122 3375 1075 2522 
Q 1259 2794 1537 2939 
Q 1816 3084 2150 3084 
Q 2853 3084 3261 2657 
Q 3669 2231 3669 1497 
Q 3669 778 3244 343 
Q 2819 -91 2113 -91 
Q 1303 -91 875 529 
Q 447 1150 447 2328 
Q 447 3434 972 4092 
Q 1497 4750 2381 4750 
Q 2619 4750 2861 4703 
Q 3103 4656 3366 4563 
z
" transform="scale(0.015625)"/>
        <path id="DejaVuSans-56" d="M 1831 0 
L 50 4666 
L 709 4666 
L 2188 738 
L 3669 4666 
L 4325 4666 
L 2547 0 
L 1831 0 
z
" transform="scale(0.015625)"/>
        <path id="DejaVuSans-31" d="M 794 531 
L 1825 531 
L 1825 4091 
L 703 3866 
L 703 4441 
L 1819 4666 
L 2450 4666 
L 2450 531 
L 3481 531 
L 3481 0 
L 794 0 
L 794 531 
z
" transform="scale(0.015625)"/>
       </defs>
       <use xlink:href="#DejaVuSans-44"/>
       <use xlink:href="#DejaVuSans-36" transform="translate(77.001953 0)"/>
       <use xlink:href="#DejaVuSans-56" transform="translate(140.625 0)"/>
       <use xlink:href="#DejaVuSans-31" transform="translate(209.033203 0)"/>
      </g>
     </g>
    </g>
    <g id="xtick_2">
     <g id="line2d_2">
      <g>
       <use xlink:href="#m4a061c1260" x="230.652893" y="512.64" style="stroke: #000000; stroke-width: 0.8"/>
      </g>
     </g>
     <g id="text_2">
      <!-- D6V2 -->
      <g transform="translate(196.570861 538.636094) scale(0.25 -0.25)">
       <defs>
        <path id="DejaVuSans-32" d="M 1228 531 
L 3431 531 
L 3431 0 
L 469 0 
L 469 531 
Q 828 903 1448 1529 
Q 2069 2156 2228 2338 
Q 2531 2678 2651 2914 
Q 2772 3150 2772 3378 
Q 2772 3750 2511 3984 
Q 2250 4219 1831 4219 
Q 1534 4219 1204 4116 
Q 875 4013 500 3803 
L 500 4441 
Q 881 4594 1212 4672 
Q 1544 4750 1819 4750 
Q 2544 4750 2975 4387 
Q 3406 4025 3406 3419 
Q 3406 3131 3298 2873 
Q 3191 2616 2906 2266 
Q 2828 2175 2409 1742 
Q 1991 1309 1228 531 
z
" transform="scale(0.015625)"/>
       </defs>
       <use xlink:href="#DejaVuSans-44"/>
       <use xlink:href="#DejaVuSans-36" transform="translate(77.001953 0)"/>
       <use xlink:href="#DejaVuSans-56" transform="translate(140.625 0)"/>
       <use xlink:href="#DejaVuSans-32" transform="translate(209.033203 0)"/>
      </g>
     </g>
    </g>
    <g id="xtick_3">
     <g id="line2d_3">
      <g>
       <use xlink:href="#m4a061c1260" x="345.942149" y="512.64" style="stroke: #000000; stroke-width: 0.8"/>
      </g>
     </g>
     <g id="text_3">
      <!-- D6V3 -->
      <g transform="translate(311.860118 538.636094) scale(0.25 -0.25)">
       <defs>
        <path id="DejaVuSans-33" d="M 2597 2516 
Q 3050 2419 3304 2112 
Q 3559 1806 3559 1356 
Q 3559 666 3084 287 
Q 2609 -91 1734 -91 
Q 1441 -91 1130 -33 
Q 819 25 488 141 
L 488 750 
Q 750 597 1062 519 
Q 1375 441 1716 441 
Q 2309 441 2620 675 
Q 2931 909 2931 1356 
Q 2931 1769 2642 2001 
Q 2353 2234 1838 2234 
L 1294 2234 
L 1294 2753 
L 1863 2753 
Q 2328 2753 2575 2939 
Q 2822 3125 2822 3475 
Q 2822 3834 2567 4026 
Q 2313 4219 1838 4219 
Q 1578 4219 1281 4162 
Q 984 4106 628 3988 
L 628 4550 
Q 988 4650 1302 4700 
Q 1616 4750 1894 4750 
Q 2613 4750 3031 4423 
Q 3450 4097 3450 3541 
Q 3450 3153 3228 2886 
Q 3006 2619 2597 2516 
z
" transform="scale(0.015625)"/>
       </defs>
       <use xlink:href="#DejaVuSans-44"/>
       <use xlink:href="#DejaVuSans-36" transform="translate(77.001953 0)"/>
       <use xlink:href="#DejaVuSans-56" transform="translate(140.625 0)"/>
       <use xlink:href="#DejaVuSans-33" transform="translate(209.033203 0)"/>
      </g>
     </g>
    </g>
    <g id="xtick_4">
     <g id="line2d_4">
      <g>
       <use xlink:href="#m4a061c1260" x="461.231405" y="512.64" style="stroke: #000000; stroke-width: 0.8"/>
      </g>
     </g>
     <g id="text_4">
      <!-- D6V4 -->
      <g transform="translate(427.149374 538.636094) scale(0.25 -0.25)">
       <defs>
        <path id="DejaVuSans-34" d="M 2419 4116 
L 825 1625 
L 2419 1625 
L 2419 4116 
z
M 2253 4666 
L 3047 4666 
L 3047 1625 
L 3713 1625 
L 3713 1100 
L 3047 1100 
L 3047 0 
L 2419 0 
L 2419 1100 
L 313 1100 
L 313 1709 
L 2253 4666 
z
" transform="scale(0.015625)"/>
       </defs>
       <use xlink:href="#DejaVuSans-44"/>
       <use xlink:href="#DejaVuSans-36" transform="translate(77.001953 0)"/>
       <use xlink:href="#DejaVuSans-56" transform="translate(140.625 0)"/>
       <use xlink:href="#DejaVuSans-34" transform="translate(209.033203 0)"/>
      </g>
     </g>
    </g>
    <g id="xtick_5">
     <g id="line2d_5">
      <g>
       <use xlink:href="#m4a061c1260" x="576.520661" y="512.64" style="stroke: #000000; stroke-width: 0.8"/>
      </g>
     </g>
     <g id="text_5">
      <!-- D6V5 -->
      <g transform="translate(542.43863 538.636094) scale(0.25 -0.25)">
       <defs>
        <path id="DejaVuSans-35" d="M 691 4666 
L 3169 4666 
L 3169 4134 
L 1269 4134 
L 1269 2991 
Q 1406 3038 1543 3061 
Q 1681 3084 1819 3084 
Q 2600 3084 3056 2656 
Q 3513 2228 3513 1497 
Q 3513 744 3044 326 
Q 2575 -91 1722 -91 
Q 1428 -91 1123 -41 
Q 819 9 494 109 
L 494 744 
Q 775 591 1075 516 
Q 1375 441 1709 441 
Q 2250 441 2565 725 
Q 2881 1009 2881 1497 
Q 2881 1984 2565 2268 
Q 2250 2553 1709 2553 
Q 1456 2553 1204 2497 
Q 953 2441 691 2322 
L 691 4666 
z
" transform="scale(0.015625)"/>
       </defs>
       <use xlink:href="#DejaVuSans-44"/>
       <use xlink:href="#DejaVuSans-36" transform="translate(77.001953 0)"/>
       <use xlink:href="#DejaVuSans-56" transform="translate(140.625 0)"/>
       <use xlink:href="#DejaVuSans-35" transform="translate(209.033203 0)"/>
      </g>
     </g>
    </g>
    <g id="text_6">
     <!-- Query -->
     <g transform="translate(331.009766 566.831406) scale(0.25 -0.25)">
      <defs>
       <path id="DejaVuSans-51" d="M 2522 4238 
Q 1834 4238 1429 3725 
Q 1025 3213 1025 2328 
Q 1025 1447 1429 934 
Q 1834 422 2522 422 
Q 3209 422 3611 934 
Q 4013 1447 4013 2328 
Q 4013 3213 3611 3725 
Q 3209 4238 2522 4238 
z
M 3406 84 
L 4238 -825 
L 3475 -825 
L 2784 -78 
Q 2681 -84 2626 -87 
Q 2572 -91 2522 -91 
Q 1538 -91 948 567 
Q 359 1225 359 2328 
Q 359 3434 948 4092 
Q 1538 4750 2522 4750 
Q 3503 4750 4090 4092 
Q 4678 3434 4678 2328 
Q 4678 1516 4351 937 
Q 4025 359 3406 84 
z
" transform="scale(0.015625)"/>
       <path id="DejaVuSans-75" d="M 544 1381 
L 544 3500 
L 1119 3500 
L 1119 1403 
Q 1119 906 1312 657 
Q 1506 409 1894 409 
Q 2359 409 2629 706 
Q 2900 1003 2900 1516 
L 2900 3500 
L 3475 3500 
L 3475 0 
L 2900 0 
L 2900 538 
Q 2691 219 2414 64 
Q 2138 -91 1772 -91 
Q 1169 -91 856 284 
Q 544 659 544 1381 
z
M 1991 3584 
L 1991 3584 
z
" transform="scale(0.015625)"/>
       <path id="DejaVuSans-65" d="M 3597 1894 
L 3597 1613 
L 953 1613 
Q 991 1019 1311 708 
Q 1631 397 2203 397 
Q 2534 397 2845 478 
Q 3156 559 3463 722 
L 3463 178 
Q 3153 47 2828 -22 
Q 2503 -91 2169 -91 
Q 1331 -91 842 396 
Q 353 884 353 1716 
Q 353 2575 817 3079 
Q 1281 3584 2069 3584 
Q 2775 3584 3186 3129 
Q 3597 2675 3597 1894 
z
M 3022 2063 
Q 3016 2534 2758 2815 
Q 2500 3097 2075 3097 
Q 1594 3097 1305 2825 
Q 1016 2553 972 2059 
L 3022 2063 
z
" transform="scale(0.015625)"/>
       <path id="DejaVuSans-72" d="M 2631 2963 
Q 2534 3019 2420 3045 
Q 2306 3072 2169 3072 
Q 1681 3072 1420 2755 
Q 1159 2438 1159 1844 
L 1159 0 
L 581 0 
L 581 3500 
L 1159 3500 
L 1159 2956 
Q 1341 3275 1631 3429 
Q 1922 3584 2338 3584 
Q 2397 3584 2469 3576 
Q 2541 3569 2628 3553 
L 2631 2963 
z
" transform="scale(0.015625)"/>
       <path id="DejaVuSans-79" d="M 2059 -325 
Q 1816 -950 1584 -1140 
Q 1353 -1331 966 -1331 
L 506 -1331 
L 506 -850 
L 844 -850 
Q 1081 -850 1212 -737 
Q 1344 -625 1503 -206 
L 1606 56 
L 191 3500 
L 800 3500 
L 1894 763 
L 2988 3500 
L 3597 3500 
L 2059 -325 
z
" transform="scale(0.015625)"/>
      </defs>
      <use xlink:href="#DejaVuSans-51"/>
      <use xlink:href="#DejaVuSans-75" transform="translate(78.710938 0)"/>
      <use xlink:href="#DejaVuSans-65" transform="translate(142.089844 0)"/>
      <use xlink:href="#DejaVuSans-72" transform="translate(203.613281 0)"/>
      <use xlink:href="#DejaVuSans-79" transform="translate(244.726562 0)"/>
     </g>
    </g>
   </g>
   <g id="matplotlib.axis_2">
    <g id="ytick_1">
     <g id="line2d_6">
      <path d="M 90 492.48 
L 648 492.48 
" clip-path="url(#p263395d13e)" style="fill: none; stroke: #b0b0b0; stroke-width: 0.8; stroke-linecap: square"/>
     </g>
     <g id="line2d_7">
      <defs>
       <path id="m9d1d8b1469" d="M 0 0 
L -3.5 0 
" style="stroke: #000000; stroke-width: 0.8"/>
      </defs>
      <g>
       <use xlink:href="#m9d1d8b1469" x="90" y="492.48" style="stroke: #000000; stroke-width: 0.8"/>
      </g>
     </g>
     <g id="text_7">
      <!-- 0 -->
      <g transform="translate(67.09375 501.978047) scale(0.25 -0.25)">
       <defs>
        <path id="DejaVuSans-30" d="M 2034 4250 
Q 1547 4250 1301 3770 
Q 1056 3291 1056 2328 
Q 1056 1369 1301 889 
Q 1547 409 2034 409 
Q 2525 409 2770 889 
Q 3016 1369 3016 2328 
Q 3016 3291 2770 3770 
Q 2525 4250 2034 4250 
z
M 2034 4750 
Q 2819 4750 3233 4129 
Q 3647 3509 3647 2328 
Q 3647 1150 3233 529 
Q 2819 -91 2034 -91 
Q 1250 -91 836 529 
Q 422 1150 422 2328 
Q 422 3509 836 4129 
Q 1250 4750 2034 4750 
z
" transform="scale(0.015625)"/>
       </defs>
       <use xlink:href="#DejaVuSans-30"/>
      </g>
     </g>
    </g>
    <g id="ytick_2">
     <g id="line2d_8">
      <path d="M 90 435.085733 
L 648 435.085733 
" clip-path="url(#p263395d13e)" style="fill: none; stroke: #b0b0b0; stroke-width: 0.8; stroke-linecap: square"/>
     </g>
     <g id="line2d_9">
      <g>
       <use xlink:href="#m9d1d8b1469" x="90" y="435.085733" style="stroke: #000000; stroke-width: 0.8"/>
      </g>
     </g>
     <g id="text_8">
      <!-- 1000 -->
      <g transform="translate(19.375 444.58378) scale(0.25 -0.25)">
       <use xlink:href="#DejaVuSans-31"/>
       <use xlink:href="#DejaVuSans-30" transform="translate(63.623047 0)"/>
       <use xlink:href="#DejaVuSans-30" transform="translate(127.246094 0)"/>
       <use xlink:href="#DejaVuSans-30" transform="translate(190.869141 0)"/>
      </g>
     </g>
    </g>
    <g id="ytick_3">
     <g id="line2d_10">
      <path d="M 90 377.691466 
L 648 377.691466 
" clip-path="url(#p263395d13e)" style="fill: none; stroke: #b0b0b0; stroke-width: 0.8; stroke-linecap: square"/>
     </g>
     <g id="line2d_11">
      <g>
       <use xlink:href="#m9d1d8b1469" x="90" y="377.691466" style="stroke: #000000; stroke-width: 0.8"/>
      </g>
     </g>
     <g id="text_9">
      <!-- 2000 -->
      <g transform="translate(19.375 387.189513) scale(0.25 -0.25)">
       <use xlink:href="#DejaVuSans-32"/>
       <use xlink:href="#DejaVuSans-30" transform="translate(63.623047 0)"/>
       <use xlink:href="#DejaVuSans-30" transform="translate(127.246094 0)"/>
       <use xlink:href="#DejaVuSans-30" transform="translate(190.869141 0)"/>
      </g>
     </g>
    </g>
    <g id="ytick_4">
     <g id="line2d_12">
      <path d="M 90 320.297199 
L 648 320.297199 
" clip-path="url(#p263395d13e)" style="fill: none; stroke: #b0b0b0; stroke-width: 0.8; stroke-linecap: square"/>
     </g>
     <g id="line2d_13">
      <g>
       <use xlink:href="#m9d1d8b1469" x="90" y="320.297199" style="stroke: #000000; stroke-width: 0.8"/>
      </g>
     </g>
     <g id="text_10">
      <!-- 3000 -->
      <g transform="translate(19.375 329.795246) scale(0.25 -0.25)">
       <use xlink:href="#DejaVuSans-33"/>
       <use xlink:href="#DejaVuSans-30" transform="translate(63.623047 0)"/>
       <use xlink:href="#DejaVuSans-30" transform="translate(127.246094 0)"/>
       <use xlink:href="#DejaVuSans-30" transform="translate(190.869141 0)"/>
      </g>
     </g>
    </g>
    <g id="ytick_5">
     <g id="line2d_14">
      <path d="M 90 262.902932 
L 648 262.902932 
" clip-path="url(#p263395d13e)" style="fill: none; stroke: #b0b0b0; stroke-width: 0.8; stroke-linecap: square"/>
     </g>
     <g id="line2d_15">
      <g>
       <use xlink:href="#m9d1d8b1469" x="90" y="262.902932" style="stroke: #000000; stroke-width: 0.8"/>
      </g>
     </g>
     <g id="text_11">
      <!-- 4000 -->
      <g transform="translate(19.375 272.400979) scale(0.25 -0.25)">
       <use xlink:href="#DejaVuSans-34"/>
       <use xlink:href="#DejaVuSans-30" transform="translate(63.623047 0)"/>
       <use xlink:href="#DejaVuSans-30" transform="translate(127.246094 0)"/>
       <use xlink:href="#DejaVuSans-30" transform="translate(190.869141 0)"/>
      </g>
     </g>
    </g>
    <g id="ytick_6">
     <g id="line2d_16">
      <path d="M 90 205.508665 
L 648 205.508665 
" clip-path="url(#p263395d13e)" style="fill: none; stroke: #b0b0b0; stroke-width: 0.8; stroke-linecap: square"/>
     </g>
     <g id="line2d_17">
      <g>
       <use xlink:href="#m9d1d8b1469" x="90" y="205.508665" style="stroke: #000000; stroke-width: 0.8"/>
      </g>
     </g>
     <g id="text_12">
      <!-- 5000 -->
      <g transform="translate(19.375 215.006712) scale(0.25 -0.25)">
       <use xlink:href="#DejaVuSans-35"/>
       <use xlink:href="#DejaVuSans-30" transform="translate(63.623047 0)"/>
       <use xlink:href="#DejaVuSans-30" transform="translate(127.246094 0)"/>
       <use xlink:href="#DejaVuSans-30" transform="translate(190.869141 0)"/>
      </g>
     </g>
    </g>
    <g id="ytick_7">
     <g id="line2d_18">
      <path d="M 90 148.114398 
L 648 148.114398 
" clip-path="url(#p263395d13e)" style="fill: none; stroke: #b0b0b0; stroke-width: 0.8; stroke-linecap: square"/>
     </g>
     <g id="line2d_19">
      <g>
       <use xlink:href="#m9d1d8b1469" x="90" y="148.114398" style="stroke: #000000; stroke-width: 0.8"/>
      </g>
     </g>
     <g id="text_13">
      <!-- 6000 -->
      <g transform="translate(19.375 157.612445) scale(0.25 -0.25)">
       <use xlink:href="#DejaVuSans-36"/>
       <use xlink:href="#DejaVuSans-30" transform="translate(63.623047 0)"/>
       <use xlink:href="#DejaVuSans-30" transform="translate(127.246094 0)"/>
       <use xlink:href="#DejaVuSans-30" transform="translate(190.869141 0)"/>
      </g>
     </g>
    </g>
    <g id="ytick_8">
     <g id="line2d_20">
      <path d="M 90 90.720131 
L 648 90.720131 
" clip-path="url(#p263395d13e)" style="fill: none; stroke: #b0b0b0; stroke-width: 0.8; stroke-linecap: square"/>
     </g>
     <g id="line2d_21">
      <g>
       <use xlink:href="#m9d1d8b1469" x="90" y="90.720131" style="stroke: #000000; stroke-width: 0.8"/>
      </g>
     </g>
     <g id="text_14">
      <!-- 7000 -->
      <g transform="translate(19.375 100.218178) scale(0.25 -0.25)">
       <defs>
        <path id="DejaVuSans-37" d="M 525 4666 
L 3525 4666 
L 3525 4397 
L 1831 0 
L 1172 0 
L 2766 4134 
L 525 4134 
L 525 4666 
z
" transform="scale(0.015625)"/>
       </defs>
       <use xlink:href="#DejaVuSans-37"/>
       <use xlink:href="#DejaVuSans-30" transform="translate(63.623047 0)"/>
       <use xlink:href="#DejaVuSans-30" transform="translate(127.246094 0)"/>
       <use xlink:href="#DejaVuSans-30" transform="translate(190.869141 0)"/>
      </g>
     </g>
    </g>
    <g id="text_15">
     <!-- Execution time (ms) -->
     <g transform="translate(10.175781 416.842891) rotate(-90) scale(0.25 -0.25)">
      <defs>
       <path id="DejaVuSans-45" d="M 628 4666 
L 3578 4666 
L 3578 4134 
L 1259 4134 
L 1259 2753 
L 3481 2753 
L 3481 2222 
L 1259 2222 
L 1259 531 
L 3634 531 
L 3634 0 
L 628 0 
L 628 4666 
z
" transform="scale(0.015625)"/>
       <path id="DejaVuSans-78" d="M 3513 3500 
L 2247 1797 
L 3578 0 
L 2900 0 
L 1881 1375 
L 863 0 
L 184 0 
L 1544 1831 
L 300 3500 
L 978 3500 
L 1906 2253 
L 2834 3500 
L 3513 3500 
z
" transform="scale(0.015625)"/>
       <path id="DejaVuSans-63" d="M 3122 3366 
L 3122 2828 
Q 2878 2963 2633 3030 
Q 2388 3097 2138 3097 
Q 1578 3097 1268 2742 
Q 959 2388 959 1747 
Q 959 1106 1268 751 
Q 1578 397 2138 397 
Q 2388 397 2633 464 
Q 2878 531 3122 666 
L 3122 134 
Q 2881 22 2623 -34 
Q 2366 -91 2075 -91 
Q 1284 -91 818 406 
Q 353 903 353 1747 
Q 353 2603 823 3093 
Q 1294 3584 2113 3584 
Q 2378 3584 2631 3529 
Q 2884 3475 3122 3366 
z
" transform="scale(0.015625)"/>
       <path id="DejaVuSans-74" d="M 1172 4494 
L 1172 3500 
L 2356 3500 
L 2356 3053 
L 1172 3053 
L 1172 1153 
Q 1172 725 1289 603 
Q 1406 481 1766 481 
L 2356 481 
L 2356 0 
L 1766 0 
Q 1100 0 847 248 
Q 594 497 594 1153 
L 594 3053 
L 172 3053 
L 172 3500 
L 594 3500 
L 594 4494 
L 1172 4494 
z
" transform="scale(0.015625)"/>
       <path id="DejaVuSans-69" d="M 603 3500 
L 1178 3500 
L 1178 0 
L 603 0 
L 603 3500 
z
M 603 4863 
L 1178 4863 
L 1178 4134 
L 603 4134 
L 603 4863 
z
" transform="scale(0.015625)"/>
       <path id="DejaVuSans-6f" d="M 1959 3097 
Q 1497 3097 1228 2736 
Q 959 2375 959 1747 
Q 959 1119 1226 758 
Q 1494 397 1959 397 
Q 2419 397 2687 759 
Q 2956 1122 2956 1747 
Q 2956 2369 2687 2733 
Q 2419 3097 1959 3097 
z
M 1959 3584 
Q 2709 3584 3137 3096 
Q 3566 2609 3566 1747 
Q 3566 888 3137 398 
Q 2709 -91 1959 -91 
Q 1206 -91 779 398 
Q 353 888 353 1747 
Q 353 2609 779 3096 
Q 1206 3584 1959 3584 
z
" transform="scale(0.015625)"/>
       <path id="DejaVuSans-6e" d="M 3513 2113 
L 3513 0 
L 2938 0 
L 2938 2094 
Q 2938 2591 2744 2837 
Q 2550 3084 2163 3084 
Q 1697 3084 1428 2787 
Q 1159 2491 1159 1978 
L 1159 0 
L 581 0 
L 581 3500 
L 1159 3500 
L 1159 2956 
Q 1366 3272 1645 3428 
Q 1925 3584 2291 3584 
Q 2894 3584 3203 3211 
Q 3513 2838 3513 2113 
z
" transform="scale(0.015625)"/>
       <path id="DejaVuSans-20" transform="scale(0.015625)"/>
       <path id="DejaVuSans-6d" d="M 3328 2828 
Q 3544 3216 3844 3400 
Q 4144 3584 4550 3584 
Q 5097 3584 5394 3201 
Q 5691 2819 5691 2113 
L 5691 0 
L 5113 0 
L 5113 2094 
Q 5113 2597 4934 2840 
Q 4756 3084 4391 3084 
Q 3944 3084 3684 2787 
Q 3425 2491 3425 1978 
L 3425 0 
L 2847 0 
L 2847 2094 
Q 2847 2600 2669 2842 
Q 2491 3084 2119 3084 
Q 1678 3084 1418 2786 
Q 1159 2488 1159 1978 
L 1159 0 
L 581 0 
L 581 3500 
L 1159 3500 
L 1159 2956 
Q 1356 3278 1631 3431 
Q 1906 3584 2284 3584 
Q 2666 3584 2933 3390 
Q 3200 3197 3328 2828 
z
" transform="scale(0.015625)"/>
       <path id="DejaVuSans-28" d="M 1984 4856 
Q 1566 4138 1362 3434 
Q 1159 2731 1159 2009 
Q 1159 1288 1364 580 
Q 1569 -128 1984 -844 
L 1484 -844 
Q 1016 -109 783 600 
Q 550 1309 550 2009 
Q 550 2706 781 3412 
Q 1013 4119 1484 4856 
L 1984 4856 
z
" transform="scale(0.015625)"/>
       <path id="DejaVuSans-73" d="M 2834 3397 
L 2834 2853 
Q 2591 2978 2328 3040 
Q 2066 3103 1784 3103 
Q 1356 3103 1142 2972 
Q 928 2841 928 2578 
Q 928 2378 1081 2264 
Q 1234 2150 1697 2047 
L 1894 2003 
Q 2506 1872 2764 1633 
Q 3022 1394 3022 966 
Q 3022 478 2636 193 
Q 2250 -91 1575 -91 
Q 1294 -91 989 -36 
Q 684 19 347 128 
L 347 722 
Q 666 556 975 473 
Q 1284 391 1588 391 
Q 1994 391 2212 530 
Q 2431 669 2431 922 
Q 2431 1156 2273 1281 
Q 2116 1406 1581 1522 
L 1381 1569 
Q 847 1681 609 1914 
Q 372 2147 372 2553 
Q 372 3047 722 3315 
Q 1072 3584 1716 3584 
Q 2034 3584 2315 3537 
Q 2597 3491 2834 3397 
z
" transform="scale(0.015625)"/>
       <path id="DejaVuSans-29" d="M 513 4856 
L 1013 4856 
Q 1481 4119 1714 3412 
Q 1947 2706 1947 2009 
Q 1947 1309 1714 600 
Q 1481 -109 1013 -844 
L 513 -844 
Q 928 -128 1133 580 
Q 1338 1288 1338 2009 
Q 1338 2731 1133 3434 
Q 928 4138 513 4856 
z
" transform="scale(0.015625)"/>
      </defs>
      <use xlink:href="#DejaVuSans-45"/>
      <use xlink:href="#DejaVuSans-78" transform="translate(63.183594 0)"/>
      <use xlink:href="#DejaVuSans-65" transform="translate(119.238281 0)"/>
      <use xlink:href="#DejaVuSans-63" transform="translate(180.761719 0)"/>
      <use xlink:href="#DejaVuSans-75" transform="translate(235.742188 0)"/>
      <use xlink:href="#DejaVuSans-74" transform="translate(299.121094 0)"/>
      <use xlink:href="#DejaVuSans-69" transform="translate(338.330078 0)"/>
      <use xlink:href="#DejaVuSans-6f" transform="translate(366.113281 0)"/>
      <use xlink:href="#DejaVuSans-6e" transform="translate(427.294922 0)"/>
      <use xlink:href="#DejaVuSans-20" transform="translate(490.673828 0)"/>
      <use xlink:href="#DejaVuSans-74" transform="translate(522.460938 0)"/>
      <use xlink:href="#DejaVuSans-69" transform="translate(561.669922 0)"/>
      <use xlink:href="#DejaVuSans-6d" transform="translate(589.453125 0)"/>
      <use xlink:href="#DejaVuSans-65" transform="translate(686.865234 0)"/>
      <use xlink:href="#DejaVuSans-20" transform="translate(748.388672 0)"/>
      <use xlink:href="#DejaVuSans-28" transform="translate(780.175781 0)"/>
      <use xlink:href="#DejaVuSans-6d" transform="translate(819.189453 0)"/>
      <use xlink:href="#DejaVuSans-73" transform="translate(916.601562 0)"/>
      <use xlink:href="#DejaVuSans-29" transform="translate(968.701172 0)"/>
     </g>
    </g>
   </g>
   <g id="LineCollection_1">
    <path d="M 207.595041 435.452096 
L 253.710744 435.452096 
" clip-path="url(#p263395d13e)" style="fill: none; stroke: #000000; stroke-width: 1.5"/>
    <path d="M 322.884298 448.649146 
L 369 448.649146 
" clip-path="url(#p263395d13e)" style="fill: none; stroke: #000000; stroke-width: 1.5"/>
    <path d="M 553.46281 116.533123 
L 599.578512 116.533123 
" clip-path="url(#p263395d13e)" style="fill: none; stroke: #000000; stroke-width: 1.5"/>
   </g>
   <g id="LineCollection_2">
    <path d="M 207.595041 430.484852 
L 253.710744 430.484852 
" clip-path="url(#p263395d13e)" style="fill: none; stroke: #000000; stroke-width: 1.5"/>
    <path d="M 322.884298 445.841129 
L 369 445.841129 
" clip-path="url(#p263395d13e)" style="fill: none; stroke: #000000; stroke-width: 1.5"/>
    <path d="M 553.46281 89.28 
L 599.578512 89.28 
" clip-path="url(#p263395d13e)" style="fill: none; stroke: #000000; stroke-width: 1.5"/>
   </g>
   <g id="LineCollection_3">
    <path d="M 207.595041 438.815231 
L 253.710744 438.815231 
" clip-path="url(#p263395d13e)" style="fill: none; stroke: #000000; stroke-width: 1.5"/>
    <path d="M 322.884298 450.724142 
L 369 450.724142 
" clip-path="url(#p263395d13e)" style="fill: none; stroke: #000000; stroke-width: 1.5"/>
    <path d="M 553.46281 139.838269 
L 599.578512 139.838269 
" clip-path="url(#p263395d13e)" style="fill: none; stroke: #000000; stroke-width: 1.5"/>
   </g>
   <g id="LineCollection_4">
    <path d="M 230.652893 438.815231 
L 230.652893 430.484852 
" clip-path="url(#p263395d13e)" style="fill: none; stroke: #000000; stroke-width: 1.5"/>
    <path d="M 345.942149 450.724142 
L 345.942149 445.841129 
" clip-path="url(#p263395d13e)" style="fill: none; stroke: #000000; stroke-width: 1.5"/>
    <path d="M 576.520661 139.838269 
L 576.520661 89.28 
" clip-path="url(#p263395d13e)" style="fill: none; stroke: #000000; stroke-width: 1.5"/>
   </g>
   <g id="LineCollection_5">
    <path d="M 207.595041 435.004651 
L 253.710744 435.004651 
" clip-path="url(#p263395d13e)" style="fill: none; stroke: #000000; stroke-width: 1.5"/>
    <path d="M 322.884298 448.653571 
L 369 448.653571 
" clip-path="url(#p263395d13e)" style="fill: none; stroke: #000000; stroke-width: 1.5"/>
    <path d="M 553.46281 112.824878 
L 599.578512 112.824878 
" clip-path="url(#p263395d13e)" style="fill: none; stroke: #000000; stroke-width: 1.5"/>
   </g>
   <g id="LineCollection_6">
    <path d="M 207.595041 434.120495 
L 253.710744 434.120495 
" clip-path="url(#p263395d13e)" style="fill: none; stroke: #000000; stroke-width: 1.5"/>
    <path d="M 322.884298 448.047042 
L 369 448.047042 
" clip-path="url(#p263395d13e)" style="fill: none; stroke: #000000; stroke-width: 1.5"/>
    <path d="M 553.46281 139.015318 
L 599.578512 139.015318 
" clip-path="url(#p263395d13e)" style="fill: none; stroke: #000000; stroke-width: 1.5"/>
   </g>
   <g id="LineCollection_7">
    <path d="M 207.595041 429.9802 
L 253.710744 429.9802 
" clip-path="url(#p263395d13e)" style="fill: none; stroke: #000000; stroke-width: 1.5"/>
    <path d="M 322.884298 443.165089 
L 369 443.165089 
" clip-path="url(#p263395d13e)" style="fill: none; stroke: #000000; stroke-width: 1.5"/>
    <path d="M 553.46281 115.7673 
L 599.578512 115.7673 
" clip-path="url(#p263395d13e)" style="fill: none; stroke: #000000; stroke-width: 1.5"/>
   </g>
   <g id="LineCollection_8">
    <path d="M 207.595041 439.219292 
L 253.710744 439.219292 
" clip-path="url(#p263395d13e)" style="fill: none; stroke: #000000; stroke-width: 1.5"/>
    <path d="M 322.884298 450.760483 
L 369 450.760483 
" clip-path="url(#p263395d13e)" style="fill: none; stroke: #000000; stroke-width: 1.5"/>
    <path d="M 553.46281 166.553247 
L 599.578512 166.553247 
" clip-path="url(#p263395d13e)" style="fill: none; stroke: #000000; stroke-width: 1.5"/>
   </g>
   <g id="LineCollection_9">
    <path d="M 230.652893 439.219292 
L 230.652893 429.9802 
" clip-path="url(#p263395d13e)" style="fill: none; stroke: #000000; stroke-width: 1.5"/>
    <path d="M 345.942149 450.760483 
L 345.942149 443.165089 
" clip-path="url(#p263395d13e)" style="fill: none; stroke: #000000; stroke-width: 1.5"/>
    <path d="M 576.520661 166.553247 
L 576.520661 115.7673 
" clip-path="url(#p263395d13e)" style="fill: none; stroke: #000000; stroke-width: 1.5"/>
   </g>
   <g id="LineCollection_10">
    <path d="M 207.595041 433.48227 
L 253.710744 433.48227 
" clip-path="url(#p263395d13e)" style="fill: none; stroke: #000000; stroke-width: 1.5"/>
    <path d="M 322.884298 448.232723 
L 369 448.232723 
" clip-path="url(#p263395d13e)" style="fill: none; stroke: #000000; stroke-width: 1.5"/>
    <path d="M 553.46281 135.297095 
L 599.578512 135.297095 
" clip-path="url(#p263395d13e)" style="fill: none; stroke: #000000; stroke-width: 1.5"/>
   </g>
   <g id="LineCollection_11">
    <path d="M 207.595041 434.793995 
L 253.710744 434.793995 
" clip-path="url(#p263395d13e)" style="fill: none; stroke: #000000; stroke-width: 1.5"/>
    <path d="M 322.884298 447.66487 
L 369 447.66487 
" clip-path="url(#p263395d13e)" style="fill: none; stroke: #000000; stroke-width: 1.5"/>
    <path d="M 553.46281 149.125271 
L 599.578512 149.125271 
" clip-path="url(#p263395d13e)" style="fill: none; stroke: #000000; stroke-width: 1.5"/>
   </g>
   <g id="LineCollection_12">
    <path d="M 207.595041 428.797573 
L 253.710744 428.797573 
" clip-path="url(#p263395d13e)" style="fill: none; stroke: #000000; stroke-width: 1.5"/>
    <path d="M 322.884298 442.415084 
L 369 442.415084 
" clip-path="url(#p263395d13e)" style="fill: none; stroke: #000000; stroke-width: 1.5"/>
    <path d="M 553.46281 121.265408 
L 599.578512 121.265408 
" clip-path="url(#p263395d13e)" style="fill: none; stroke: #000000; stroke-width: 1.5"/>
   </g>
   <g id="LineCollection_13">
    <path d="M 207.595041 439.100689 
L 253.710744 439.100689 
" clip-path="url(#p263395d13e)" style="fill: none; stroke: #000000; stroke-width: 1.5"/>
    <path d="M 322.884298 450.686345 
L 369 450.686345 
" clip-path="url(#p263395d13e)" style="fill: none; stroke: #000000; stroke-width: 1.5"/>
    <path d="M 553.46281 166.959568 
L 599.578512 166.959568 
" clip-path="url(#p263395d13e)" style="fill: none; stroke: #000000; stroke-width: 1.5"/>
   </g>
   <g id="LineCollection_14">
    <path d="M 230.652893 439.100689 
L 230.652893 428.797573 
" clip-path="url(#p263395d13e)" style="fill: none; stroke: #000000; stroke-width: 1.5"/>
    <path d="M 345.942149 450.686345 
L 345.942149 442.415084 
" clip-path="url(#p263395d13e)" style="fill: none; stroke: #000000; stroke-width: 1.5"/>
    <path d="M 576.520661 166.959568 
L 576.520661 121.265408 
" clip-path="url(#p263395d13e)" style="fill: none; stroke: #000000; stroke-width: 1.5"/>
   </g>
   <g id="LineCollection_15">
    <path d="M 207.595041 433.826886 
L 253.710744 433.826886 
" clip-path="url(#p263395d13e)" style="fill: none; stroke: #000000; stroke-width: 1.5"/>
    <path d="M 322.884298 447.012984 
L 369 447.012984 
" clip-path="url(#p263395d13e)" style="fill: none; stroke: #000000; stroke-width: 1.5"/>
    <path d="M 553.46281 151.671306 
L 599.578512 151.671306 
" clip-path="url(#p263395d13e)" style="fill: none; stroke: #000000; stroke-width: 1.5"/>
   </g>
   <g id="patch_3">
    <path d="M 90 512.64 
L 90 69.12 
" style="fill: none; stroke: #000000; stroke-width: 0.8; stroke-linejoin: miter; stroke-linecap: square"/>
   </g>
   <g id="patch_4">
    <path d="M 648 512.64 
L 648 69.12 
" style="fill: none; stroke: #000000; stroke-width: 0.8; stroke-linejoin: miter; stroke-linecap: square"/>
   </g>
   <g id="patch_5">
    <path d="M 90 512.64 
L 648 512.64 
" style="fill: none; stroke: #000000; stroke-width: 0.8; stroke-linejoin: miter; stroke-linecap: square"/>
   </g>
   <g id="patch_6">
    <path d="M 90 69.12 
L 648 69.12 
" style="fill: none; stroke: #000000; stroke-width: 0.8; stroke-linejoin: miter; stroke-linecap: square"/>
   </g>
   <g id="legend_1">
    <g id="patch_7">
     <path d="M 102.6 189.2025 
L 328.545 189.2025 
Q 332.145 189.2025 332.145 185.6025 
L 332.145 81.72 
Q 332.145 78.12 328.545 78.12 
L 102.6 78.12 
Q 99 78.12 99 81.72 
L 99 185.6025 
Q 99 189.2025 102.6 189.2025 
z
" style="fill: #ffffff; opacity: 0.8; stroke: #cccccc; stroke-linejoin: miter"/>
    </g>
    <g id="line2d_22">
     <path d="M 106.2 92.697187 
L 124.2 92.697187 
L 142.2 92.697187 
" style="fill: none; stroke: #1a85ff; stroke-width: 1.5; stroke-linecap: square"/>
    </g>
    <g id="text_16">
     <!-- shape index -->
     <g transform="translate(156.6 98.997187) scale(0.18 -0.18)">
      <defs>
       <path id="DejaVuSans-68" d="M 3513 2113 
L 3513 0 
L 2938 0 
L 2938 2094 
Q 2938 2591 2744 2837 
Q 2550 3084 2163 3084 
Q 1697 3084 1428 2787 
Q 1159 2491 1159 1978 
L 1159 0 
L 581 0 
L 581 4863 
L 1159 4863 
L 1159 2956 
Q 1366 3272 1645 3428 
Q 1925 3584 2291 3584 
Q 2894 3584 3203 3211 
Q 3513 2838 3513 2113 
z
" transform="scale(0.015625)"/>
       <path id="DejaVuSans-61" d="M 2194 1759 
Q 1497 1759 1228 1600 
Q 959 1441 959 1056 
Q 959 750 1161 570 
Q 1363 391 1709 391 
Q 2188 391 2477 730 
Q 2766 1069 2766 1631 
L 2766 1759 
L 2194 1759 
z
M 3341 1997 
L 3341 0 
L 2766 0 
L 2766 531 
Q 2569 213 2275 61 
Q 1981 -91 1556 -91 
Q 1019 -91 701 211 
Q 384 513 384 1019 
Q 384 1609 779 1909 
Q 1175 2209 1959 2209 
L 2766 2209 
L 2766 2266 
Q 2766 2663 2505 2880 
Q 2244 3097 1772 3097 
Q 1472 3097 1187 3025 
Q 903 2953 641 2809 
L 641 3341 
Q 956 3463 1253 3523 
Q 1550 3584 1831 3584 
Q 2591 3584 2966 3190 
Q 3341 2797 3341 1997 
z
" transform="scale(0.015625)"/>
       <path id="DejaVuSans-70" d="M 1159 525 
L 1159 -1331 
L 581 -1331 
L 581 3500 
L 1159 3500 
L 1159 2969 
Q 1341 3281 1617 3432 
Q 1894 3584 2278 3584 
Q 2916 3584 3314 3078 
Q 3713 2572 3713 1747 
Q 3713 922 3314 415 
Q 2916 -91 2278 -91 
Q 1894 -91 1617 61 
Q 1341 213 1159 525 
z
M 3116 1747 
Q 3116 2381 2855 2742 
Q 2594 3103 2138 3103 
Q 1681 3103 1420 2742 
Q 1159 2381 1159 1747 
Q 1159 1113 1420 752 
Q 1681 391 2138 391 
Q 2594 391 2855 752 
Q 3116 1113 3116 1747 
z
" transform="scale(0.015625)"/>
       <path id="DejaVuSans-64" d="M 2906 2969 
L 2906 4863 
L 3481 4863 
L 3481 0 
L 2906 0 
L 2906 525 
Q 2725 213 2448 61 
Q 2172 -91 1784 -91 
Q 1150 -91 751 415 
Q 353 922 353 1747 
Q 353 2572 751 3078 
Q 1150 3584 1784 3584 
Q 2172 3584 2448 3432 
Q 2725 3281 2906 2969 
z
M 947 1747 
Q 947 1113 1208 752 
Q 1469 391 1925 391 
Q 2381 391 2643 752 
Q 2906 1113 2906 1747 
Q 2906 2381 2643 2742 
Q 2381 3103 1925 3103 
Q 1469 3103 1208 2742 
Q 947 2381 947 1747 
z
" transform="scale(0.015625)"/>
      </defs>
      <use xlink:href="#DejaVuSans-73"/>
      <use xlink:href="#DejaVuSans-68" transform="translate(52.099609 0)"/>
      <use xlink:href="#DejaVuSans-61" transform="translate(115.478516 0)"/>
      <use xlink:href="#DejaVuSans-70" transform="translate(176.757812 0)"/>
      <use xlink:href="#DejaVuSans-65" transform="translate(240.234375 0)"/>
      <use xlink:href="#DejaVuSans-20" transform="translate(301.757812 0)"/>
      <use xlink:href="#DejaVuSans-69" transform="translate(333.544922 0)"/>
      <use xlink:href="#DejaVuSans-6e" transform="translate(361.328125 0)"/>
      <use xlink:href="#DejaVuSans-64" transform="translate(424.707031 0)"/>
      <use xlink:href="#DejaVuSans-65" transform="translate(488.183594 0)"/>
      <use xlink:href="#DejaVuSans-78" transform="translate(547.957031 0)"/>
     </g>
    </g>
    <g id="line2d_23">
     <path d="M 106.2 119.117812 
L 124.2 119.117812 
L 142.2 119.117812 
" style="fill: none; stroke: #d41159; stroke-width: 1.5; stroke-linecap: square"/>
    </g>
    <g id="text_17">
     <!-- ldp -->
     <g transform="translate(156.6 125.417812) scale(0.18 -0.18)">
      <defs>
       <path id="DejaVuSans-6c" d="M 603 4863 
L 1178 4863 
L 1178 0 
L 603 0 
L 603 4863 
z
" transform="scale(0.015625)"/>
      </defs>
      <use xlink:href="#DejaVuSans-6c"/>
      <use xlink:href="#DejaVuSans-64" transform="translate(27.783203 0)"/>
      <use xlink:href="#DejaVuSans-70" transform="translate(91.259766 0)"/>
     </g>
    </g>
    <g id="line2d_24">
     <path d="M 106.2 145.538437 
L 124.2 145.538437 
L 142.2 145.538437 
" style="fill: none; stroke: #004d40; stroke-width: 1.5; stroke-linecap: square"/>
    </g>
    <g id="text_18">
     <!-- type index and ldp -->
     <g transform="translate(156.6 151.838437) scale(0.18 -0.18)">
      <use xlink:href="#DejaVuSans-74"/>
      <use xlink:href="#DejaVuSans-79" transform="translate(39.208984 0)"/>
      <use xlink:href="#DejaVuSans-70" transform="translate(98.388672 0)"/>
      <use xlink:href="#DejaVuSans-65" transform="translate(161.865234 0)"/>
      <use xlink:href="#DejaVuSans-20" transform="translate(223.388672 0)"/>
      <use xlink:href="#DejaVuSans-69" transform="translate(255.175781 0)"/>
      <use xlink:href="#DejaVuSans-6e" transform="translate(282.958984 0)"/>
      <use xlink:href="#DejaVuSans-64" transform="translate(346.337891 0)"/>
      <use xlink:href="#DejaVuSans-65" transform="translate(409.814453 0)"/>
      <use xlink:href="#DejaVuSans-78" transform="translate(469.587891 0)"/>
      <use xlink:href="#DejaVuSans-20" transform="translate(528.767578 0)"/>
      <use xlink:href="#DejaVuSans-61" transform="translate(560.554688 0)"/>
      <use xlink:href="#DejaVuSans-6e" transform="translate(621.833984 0)"/>
      <use xlink:href="#DejaVuSans-64" transform="translate(685.212891 0)"/>
      <use xlink:href="#DejaVuSans-20" transform="translate(748.689453 0)"/>
      <use xlink:href="#DejaVuSans-6c" transform="translate(780.476562 0)"/>
      <use xlink:href="#DejaVuSans-64" transform="translate(808.259766 0)"/>
      <use xlink:href="#DejaVuSans-70" transform="translate(871.736328 0)"/>
     </g>
    </g>
    <g id="line2d_25">
     <defs>
      <path id="m94bf390cd0" d="M -2.5 5 
L 0 2.5 
L 2.5 5 
L 5 2.5 
L 2.5 0 
L 5 -2.5 
L 2.5 -5 
L 0 -2.5 
L -2.5 -5 
L -5 -2.5 
L -2.5 0 
L -5 2.5 
z
" style="stroke: #000000; stroke-linejoin: miter"/>
     </defs>
     <g>
      <use xlink:href="#m94bf390cd0" x="124.2" y="171.959062" style="stroke: #000000; stroke-linejoin: miter"/>
     </g>
    </g>
    <g id="text_19">
     <!-- Timeout -->
     <g transform="translate(156.6 178.259062) scale(0.18 -0.18)">
      <defs>
       <path id="DejaVuSans-54" d="M -19 4666 
L 3928 4666 
L 3928 4134 
L 2272 4134 
L 2272 0 
L 1638 0 
L 1638 4134 
L -19 4134 
L -19 4666 
z
" transform="scale(0.015625)"/>
      </defs>
      <use xlink:href="#DejaVuSans-54"/>
      <use xlink:href="#DejaVuSans-69" transform="translate(57.958984 0)"/>
      <use xlink:href="#DejaVuSans-6d" transform="translate(85.742188 0)"/>
      <use xlink:href="#DejaVuSans-65" transform="translate(183.154297 0)"/>
      <use xlink:href="#DejaVuSans-6f" transform="translate(244.677734 0)"/>
      <use xlink:href="#DejaVuSans-75" transform="translate(305.859375 0)"/>
      <use xlink:href="#DejaVuSans-74" transform="translate(369.238281 0)"/>
     </g>
    </g>
   </g>
  </g>
 </g>
 <defs>
  <clipPath id="p263395d13e">
   <rect x="90" y="69.12" width="558" height="443.52"/>
  </clipPath>
 </defs>
</svg>
