<?xml version="1.0" encoding="utf-8" standalone="no"?>
<!DOCTYPE svg PUBLIC "-//W3C//DTD SVG 1.1//EN"
  "http://www.w3.org/Graphics/SVG/1.1/DTD/svg11.dtd">
<svg xmlns:xlink="http://www.w3.org/1999/xlink" width="1008pt" height="864pt" viewBox="0 0 1008 864" xmlns="http://www.w3.org/2000/svg" version="1.1">
 <metadata>
  <rdf:RDF xmlns:dc="http://purl.org/dc/elements/1.1/" xmlns:cc="http://creativecommons.org/ns#" xmlns:rdf="http://www.w3.org/1999/02/22-rdf-syntax-ns#">
   <cc:Work>
    <dc:type rdf:resource="http://purl.org/dc/dcmitype/StillImage"/>
    <dc:date>2026-06-23T09:34:08.526026</dc:date>
    <dc:format>image/svg+xml</dc:format>
    <dc:creator>
     <cc:Agent>
      <dc:title>Matplotlib v3.10.3, https://matplotlib.org/</dc:title>
     </cc:Agent>
    </dc:creator>
   </cc:Work>
  </rdf:RDF>
 </metadata>
 <defs>
  <style type="text/css">*{stroke-linejoin: round; stroke-linecap: butt}</style>
 </defs>
 <g id="figure_1">
  <g id="patch_1">
   <path d="M 0 864 
L 1008 864 
L 1008 0 
L 0 0 
z
" style="fill: #ffffff"/>
  </g>
  <g id="axes_1">
   <g id="patch_2">
    <path d="M 126 768.96 
L 907.2 768.96 
L 907.2 103.68 
L 126 103.68 
z
" style="fill: #ffffff"/>
   </g>
   <g id="FillBetweenPolyCollection_1">
    <defs>
     <path id="mb896191fcd" d="M 341.58973 -205.777153 
L 304.238369 -205.777153 
L 302.726277 -205.903371 
L 301.230292 -206.029589 
L 299.769966 -206.155807 
L 298.365289 -206.282025 
L 297.03615 -206.408242 
L 295.801727 -206.53446 
L 294.679853 -206.660678 
L 293.686348 -206.786896 
L 292.83437 -206.913114 
L 292.133802 -207.039332 
L 291.590709 -207.16555 
L 291.206892 -207.291767 
L 290.97958 -207.417985 
L 290.901262 -207.544203 
L 290.959695 -207.670421 
L 291.138086 -207.796639 
L 291.415438 -207.922857 
L 291.767065 -208.049075 
L 292.165243 -208.175292 
L 292.579974 -208.30151 
L 292.979831 -208.427728 
L 293.332848 -208.553946 
L 293.607421 -208.680164 
L 293.773192 -208.806382 
L 293.801888 -208.9326 
L 293.668091 -209.058818 
L 293.349933 -209.185035 
L 292.829702 -209.311253 
L 292.094364 -209.437471 
L 291.13599 -209.563689 
L 289.952107 -209.689907 
L 288.54595 -209.816125 
L 286.926639 -209.942343 
L 285.109255 -210.06856 
L 283.114804 -210.194778 
L 280.970077 -210.320996 
L 278.707358 -210.447214 
L 276.363984 -210.573432 
L 273.981737 -210.69965 
L 271.606061 -210.825868 
L 269.285093 -210.952085 
L 267.068533 -211.078303 
L 265.006366 -211.204521 
L 263.147465 -211.330739 
L 261.538134 -211.456957 
L 260.220633 -211.583175 
L 259.231757 -211.709393 
L 258.601525 -211.835611 
L 258.352066 -211.961828 
L 258.496735 -212.088046 
L 259.03954 -212.214264 
L 259.974896 -212.340482 
L 261.28775 -212.4667 
L 262.954071 -212.592918 
L 264.941685 -212.719136 
L 267.211441 -212.845353 
L 269.718635 -212.971571 
L 272.414639 -213.097789 
L 275.248648 -213.224007 
L 278.169467 -213.350225 
L 281.127246 -213.476443 
L 284.075077 -213.602661 
L 286.970392 -213.728878 
L 289.776082 -213.855096 
L 292.461315 -213.981314 
L 295.002011 -214.107532 
L 297.380977 -214.23375 
L 299.587725 -214.359968 
L 301.617994 -214.486186 
L 303.473035 -214.612404 
L 305.158717 -214.738621 
L 306.684514 -214.864839 
L 308.062452 -214.991057 
L 309.306073 -215.117275 
L 310.429475 -215.243493 
L 311.446482 -215.369711 
L 312.369965 -215.495929 
L 313.211354 -215.622146 
L 313.980332 -215.748364 
L 314.684717 -215.874582 
L 315.330499 -216.0008 
L 315.922025 -216.127018 
L 316.462282 -216.253236 
L 316.953251 -216.379454 
L 317.396289 -216.505671 
L 317.79251 -216.631889 
L 318.143127 -216.758107 
L 318.449743 -216.884325 
L 318.714556 -217.010543 
L 318.94048 -217.136761 
L 319.131186 -217.262979 
L 319.291047 -217.389197 
L 319.425016 -217.515414 
L 319.538449 -217.641632 
L 319.636885 -217.76785 
L 319.725806 -217.894068 
L 319.810399 -218.020286 
L 319.89534 -218.146504 
L 319.984605 -218.272722 
L 325.843495 -218.272722 
L 325.843495 -218.272722 
L 325.932759 -218.146504 
L 326.0177 -218.020286 
L 326.102294 -217.894068 
L 326.191214 -217.76785 
L 326.28965 -217.641632 
L 326.403083 -217.515414 
L 326.537052 -217.389197 
L 326.696913 -217.262979 
L 326.887619 -217.136761 
L 327.113544 -217.010543 
L 327.378356 -216.884325 
L 327.684972 -216.758107 
L 328.03559 -216.631889 
L 328.43181 -216.505671 
L 328.874848 -216.379454 
L 329.365817 -216.253236 
L 329.906075 -216.127018 
L 330.497601 -216.0008 
L 331.143383 -215.874582 
L 331.847767 -215.748364 
L 332.616746 -215.622146 
L 333.458134 -215.495929 
L 334.381617 -215.369711 
L 335.398624 -215.243493 
L 336.522027 -215.117275 
L 337.765648 -214.991057 
L 339.143586 -214.864839 
L 340.669382 -214.738621 
L 342.355064 -214.612404 
L 344.210105 -214.486186 
L 346.240374 -214.359968 
L 348.447122 -214.23375 
L 350.826088 -214.107532 
L 353.366784 -213.981314 
L 356.052017 -213.855096 
L 358.857708 -213.728878 
L 361.753022 -213.602661 
L 364.700853 -213.476443 
L 367.658632 -213.350225 
L 370.579451 -213.224007 
L 373.41346 -213.097789 
L 376.109464 -212.971571 
L 378.616658 -212.845353 
L 380.886414 -212.719136 
L 382.874028 -212.592918 
L 384.540349 -212.4667 
L 385.853204 -212.340482 
L 386.788559 -212.214264 
L 387.331364 -212.088046 
L 387.476033 -211.961828 
L 387.226574 -211.835611 
L 386.596342 -211.709393 
L 385.607466 -211.583175 
L 384.289965 -211.456957 
L 382.680635 -211.330739 
L 380.821734 -211.204521 
L 378.759566 -211.078303 
L 376.543006 -210.952085 
L 374.222038 -210.825868 
L 371.846362 -210.69965 
L 369.464115 -210.573432 
L 367.120741 -210.447214 
L 364.858022 -210.320996 
L 362.713295 -210.194778 
L 360.718845 -210.06856 
L 358.90146 -209.942343 
L 357.282149 -209.816125 
L 355.875993 -209.689907 
L 354.692109 -209.563689 
L 353.733735 -209.437471 
L 352.998397 -209.311253 
L 352.478166 -209.185035 
L 352.160008 -209.058818 
L 352.026211 -208.9326 
L 352.054907 -208.806382 
L 352.220678 -208.680164 
L 352.495251 -208.553946 
L 352.848268 -208.427728 
L 353.248125 -208.30151 
L 353.662856 -208.175292 
L 354.061034 -208.049075 
L 354.412661 -207.922857 
L 354.690013 -207.796639 
L 354.868404 -207.670421 
L 354.926838 -207.544203 
L 354.848519 -207.417985 
L 354.621207 -207.291767 
L 354.23739 -207.16555 
L 353.694297 -207.039332 
L 352.993729 -206.913114 
L 352.141751 -206.786896 
L 351.148246 -206.660678 
L 350.026372 -206.53446 
L 348.791949 -206.408242 
L 347.46281 -206.282025 
L 346.058133 -206.155807 
L 344.597807 -206.029589 
L 343.101822 -205.903371 
L 341.58973 -205.777153 
z
" style="stroke: #1a85ff; stroke-width: 1.8"/>
    </defs>
    <g clip-path="url(#p3717e9535e)">
     <use xlink:href="#mb896191fcd" x="0" y="864" style="fill: #1a85ff; fill-opacity: 0.45; stroke: #1a85ff; stroke-width: 1.8"/>
    </g>
   </g>
   <g id="FillBetweenPolyCollection_2">
    <defs>
     <path id="mfcfc6d534a" d="M 508.676131 -187.913788 
L 459.961886 -187.913788 
L 458.240193 -187.987773 
L 456.53267 -188.061758 
L 454.854348 -188.135743 
L 453.220192 -188.209728 
L 451.644766 -188.283713 
L 450.141883 -188.357698 
L 448.724252 -188.431683 
L 447.4031 -188.505668 
L 446.187816 -188.579653 
L 445.085598 -188.653638 
L 444.101129 -188.727623 
L 443.236303 -188.801608 
L 442.490001 -188.875593 
L 441.857944 -188.949578 
L 441.332644 -189.023563 
L 440.903448 -189.097548 
L 440.556707 -189.171533 
L 440.276058 -189.245518 
L 440.042836 -189.319503 
L 439.836598 -189.393488 
L 439.635758 -189.467473 
L 439.418306 -189.541458 
L 439.162595 -189.615443 
L 438.848165 -189.689428 
L 438.456557 -189.763413 
L 437.972111 -189.837398 
L 437.382676 -189.911383 
L 436.680221 -189.985368 
L 435.861312 -190.059354 
L 434.927415 -190.133339 
L 433.885023 -190.207324 
L 432.745579 -190.281309 
L 431.525211 -190.355294 
L 430.244263 -190.429279 
L 428.92667 -190.503264 
L 427.59916 -190.577249 
L 426.29036 -190.651234 
L 425.029809 -190.725219 
L 423.846938 -190.799204 
L 422.770054 -190.873189 
L 421.825374 -190.947174 
L 421.036144 -191.021159 
L 420.421889 -191.095144 
L 419.997809 -191.169129 
L 419.774361 -191.243114 
L 419.757025 -191.317099 
L 419.94627 -191.391084 
L 420.337708 -191.465069 
L 420.922436 -191.539054 
L 421.687523 -191.613039 
L 422.616649 -191.687024 
L 423.690827 -191.761009 
L 424.889198 -191.834994 
L 426.189857 -191.908979 
L 427.570663 -191.982964 
L 429.010007 -192.056949 
L 430.487505 -192.130934 
L 431.984589 -192.204919 
L 433.484972 -192.278905 
L 434.974982 -192.35289 
L 436.443754 -192.426875 
L 437.883279 -192.50086 
L 439.288328 -192.574845 
L 440.656258 -192.64883 
L 441.986721 -192.722815 
L 443.281299 -192.7968 
L 444.543098 -192.870785 
L 445.776307 -192.94477 
L 446.985773 -193.018755 
L 448.176585 -193.09274 
L 449.353707 -193.166725 
L 450.521666 -193.24071 
L 451.684303 -193.314695 
L 452.844591 -193.38868 
L 454.004524 -193.462665 
L 455.16508 -193.53665 
L 456.326225 -193.610635 
L 457.48699 -193.68462 
L 458.645572 -193.758605 
L 459.79947 -193.83259 
L 460.945642 -193.906575 
L 462.08067 -193.98056 
L 463.200921 -194.054545 
L 464.302704 -194.12853 
L 465.382416 -194.202515 
L 466.436661 -194.2765 
L 467.46236 -194.350485 
L 468.456828 -194.42447 
L 469.417833 -194.498456 
L 470.34363 -194.572441 
L 471.232975 -194.646426 
L 472.085113 -194.720411 
L 472.899755 -194.794396 
L 473.677033 -194.868381 
L 474.417443 -194.942366 
L 475.121786 -195.016351 
L 475.791093 -195.090336 
L 476.426552 -195.164321 
L 477.029442 -195.238306 
L 491.608575 -195.238306 
L 491.608575 -195.238306 
L 492.211465 -195.164321 
L 492.846924 -195.090336 
L 493.51623 -195.016351 
L 494.220573 -194.942366 
L 494.960984 -194.868381 
L 495.738261 -194.794396 
L 496.552903 -194.720411 
L 497.405042 -194.646426 
L 498.294387 -194.572441 
L 499.220184 -194.498456 
L 500.181189 -194.42447 
L 501.175657 -194.350485 
L 502.201356 -194.2765 
L 503.255601 -194.202515 
L 504.335312 -194.12853 
L 505.437096 -194.054545 
L 506.557347 -193.98056 
L 507.692375 -193.906575 
L 508.838547 -193.83259 
L 509.992445 -193.758605 
L 511.151026 -193.68462 
L 512.311791 -193.610635 
L 513.472937 -193.53665 
L 514.633492 -193.462665 
L 515.793426 -193.38868 
L 516.953713 -193.314695 
L 518.11635 -193.24071 
L 519.28431 -193.166725 
L 520.461432 -193.09274 
L 521.652243 -193.018755 
L 522.861709 -192.94477 
L 524.094919 -192.870785 
L 525.356717 -192.7968 
L 526.651296 -192.722815 
L 527.981758 -192.64883 
L 529.349689 -192.574845 
L 530.754738 -192.50086 
L 532.194263 -192.426875 
L 533.663035 -192.35289 
L 535.153045 -192.278905 
L 536.653428 -192.204919 
L 538.150511 -192.130934 
L 539.628009 -192.056949 
L 541.067353 -191.982964 
L 542.448159 -191.908979 
L 543.748818 -191.834994 
L 544.94719 -191.761009 
L 546.021367 -191.687024 
L 546.950493 -191.613039 
L 547.715581 -191.539054 
L 548.300308 -191.465069 
L 548.691747 -191.391084 
L 548.880992 -191.317099 
L 548.863656 -191.243114 
L 548.640208 -191.169129 
L 548.216128 -191.095144 
L 547.601872 -191.021159 
L 546.812642 -190.947174 
L 545.867962 -190.873189 
L 544.791078 -190.799204 
L 543.608207 -190.725219 
L 542.347657 -190.651234 
L 541.038857 -190.577249 
L 539.711347 -190.503264 
L 538.393753 -190.429279 
L 537.112806 -190.355294 
L 535.892437 -190.281309 
L 534.752993 -190.207324 
L 533.710601 -190.133339 
L 532.776705 -190.059354 
L 531.957796 -189.985368 
L 531.255341 -189.911383 
L 530.665905 -189.837398 
L 530.181459 -189.763413 
L 529.789852 -189.689428 
L 529.475421 -189.615443 
L 529.219711 -189.541458 
L 529.002259 -189.467473 
L 528.801418 -189.393488 
L 528.59518 -189.319503 
L 528.361958 -189.245518 
L 528.081309 -189.171533 
L 527.734568 -189.097548 
L 527.305373 -189.023563 
L 526.780073 -188.949578 
L 526.148016 -188.875593 
L 525.401713 -188.801608 
L 524.536887 -188.727623 
L 523.552419 -188.653638 
L 522.4502 -188.579653 
L 521.234917 -188.505668 
L 519.913765 -188.431683 
L 518.496133 -188.357698 
L 516.993251 -188.283713 
L 515.417824 -188.209728 
L 513.783668 -188.135743 
L 512.105347 -188.061758 
L 510.397823 -187.987773 
L 508.676131 -187.913788 
z
" style="stroke: #1a85ff; stroke-width: 1.8"/>
    </defs>
    <g clip-path="url(#p3717e9535e)">
     <use xlink:href="#mfcfc6d534a" x="0" y="864" style="fill: #1a85ff; fill-opacity: 0.45; stroke: #1a85ff; stroke-width: 1.8"/>
    </g>
   </g>
   <g id="FillBetweenPolyCollection_3">
    <defs>
     <path id="m7d91362032" d="M 837.865365 -654.242596 
L 776.392486 -654.242596 
L 775.043621 -655.00863 
L 773.790498 -655.774665 
L 772.644016 -656.540699 
L 771.613091 -657.306733 
L 770.704448 -658.072768 
L 769.922462 -658.838802 
L 769.269078 -659.604836 
L 768.743802 -660.370871 
L 768.343756 -661.136905 
L 768.063803 -661.90294 
L 767.896736 -662.668974 
L 767.833506 -663.435008 
L 767.863502 -664.201043 
L 767.974855 -664.967077 
L 768.154749 -665.733112 
L 768.389751 -666.499146 
L 768.666114 -667.26518 
L 768.970073 -668.031215 
L 769.288105 -668.797249 
L 769.607155 -669.563283 
L 769.914816 -670.329318 
L 770.199478 -671.095352 
L 770.450418 -671.861387 
L 770.657864 -672.627421 
L 770.813016 -673.393455 
L 770.908041 -674.15949 
L 770.936046 -674.925524 
L 770.891044 -675.691559 
L 770.767907 -676.457593 
L 770.562329 -677.223627 
L 770.270803 -677.989662 
L 769.890606 -678.755696 
L 769.41981 -679.521731 
L 768.857313 -680.287765 
L 768.202888 -681.053799 
L 767.45725 -681.819834 
L 766.622137 -682.585868 
L 765.700387 -683.351902 
L 764.696022 -684.117937 
L 763.614317 -684.883971 
L 762.461842 -685.650006 
L 761.246485 -686.41604 
L 759.977439 -687.182074 
L 758.665149 -687.948109 
L 757.32122 -688.714143 
L 755.958286 -689.480178 
L 754.589841 -690.246212 
L 753.230041 -691.012246 
L 751.893475 -691.778281 
L 750.594933 -692.544315 
L 749.349149 -693.310349 
L 748.170564 -694.076384 
L 747.07309 -694.842418 
L 746.069898 -695.608453 
L 745.173236 -696.374487 
L 744.394264 -697.140521 
L 743.742942 -697.906556 
L 743.227932 -698.67259 
L 742.856545 -699.438625 
L 742.634704 -700.204659 
L 742.566942 -700.970693 
L 742.656404 -701.736728 
L 742.904868 -702.502762 
L 743.312775 -703.268796 
L 743.879249 -704.034831 
L 744.602132 -704.800865 
L 745.478 -705.5669 
L 746.502193 -706.332934 
L 747.668834 -707.098968 
L 748.970854 -707.865003 
L 750.400029 -708.631037 
L 751.947022 -709.397072 
L 753.601448 -710.163106 
L 755.35196 -710.92914 
L 757.186349 -711.695175 
L 759.091688 -712.461209 
L 761.054484 -713.227244 
L 763.060864 -713.993278 
L 765.096778 -714.759312 
L 767.148218 -715.525347 
L 769.201445 -716.291381 
L 771.243213 -717.057415 
L 773.260987 -717.82345 
L 775.243148 -718.589484 
L 777.179169 -719.355519 
L 779.059759 -720.121553 
L 780.876976 -720.887587 
L 782.624298 -721.653622 
L 784.296648 -722.419656 
L 785.890382 -723.185691 
L 787.403238 -723.951725 
L 788.834244 -724.717759 
L 790.183601 -725.483794 
L 791.452542 -726.249828 
L 792.643166 -727.015862 
L 793.758277 -727.781897 
L 794.801205 -728.547931 
L 795.775645 -729.313966 
L 796.685501 -730.08 
L 817.57235 -730.08 
L 817.57235 -730.08 
L 818.482206 -729.313966 
L 819.456646 -728.547931 
L 820.499575 -727.781897 
L 821.614685 -727.015862 
L 822.80531 -726.249828 
L 824.07425 -725.483794 
L 825.423607 -724.717759 
L 826.854613 -723.951725 
L 828.367469 -723.185691 
L 829.961203 -722.419656 
L 831.633553 -721.653622 
L 833.380875 -720.887587 
L 835.198092 -720.121553 
L 837.078682 -719.355519 
L 839.014703 -718.589484 
L 840.996864 -717.82345 
L 843.014638 -717.057415 
L 845.056406 -716.291381 
L 847.109633 -715.525347 
L 849.161074 -714.759312 
L 851.196988 -713.993278 
L 853.203367 -713.227244 
L 855.166163 -712.461209 
L 857.071502 -711.695175 
L 858.905892 -710.92914 
L 860.656403 -710.163106 
L 862.310829 -709.397072 
L 863.857822 -708.631037 
L 865.286997 -707.865003 
L 866.589017 -707.098968 
L 867.755658 -706.332934 
L 868.779851 -705.5669 
L 869.655719 -704.800865 
L 870.378602 -704.034831 
L 870.945076 -703.268796 
L 871.352983 -702.502762 
L 871.601448 -701.736728 
L 871.690909 -700.970693 
L 871.623147 -700.204659 
L 871.401307 -699.438625 
L 871.029919 -698.67259 
L 870.514909 -697.906556 
L 869.863587 -697.140521 
L 869.084616 -696.374487 
L 868.187953 -695.608453 
L 867.184762 -694.842418 
L 866.087287 -694.076384 
L 864.908702 -693.310349 
L 863.662918 -692.544315 
L 862.364376 -691.778281 
L 861.027811 -691.012246 
L 859.66801 -690.246212 
L 858.299565 -689.480178 
L 856.936631 -688.714143 
L 855.592702 -687.948109 
L 854.280413 -687.182074 
L 853.011367 -686.41604 
L 851.79601 -685.650006 
L 850.643534 -684.883971 
L 849.561829 -684.117937 
L 848.557465 -683.351902 
L 847.635715 -682.585868 
L 846.800601 -681.819834 
L 846.054964 -681.053799 
L 845.400539 -680.287765 
L 844.838041 -679.521731 
L 844.367245 -678.755696 
L 843.987048 -677.989662 
L 843.695522 -677.223627 
L 843.489945 -676.457593 
L 843.366807 -675.691559 
L 843.321805 -674.925524 
L 843.349811 -674.15949 
L 843.444835 -673.393455 
L 843.599987 -672.627421 
L 843.807433 -671.861387 
L 844.058373 -671.095352 
L 844.343035 -670.329318 
L 844.650697 -669.563283 
L 844.969746 -668.797249 
L 845.287778 -668.031215 
L 845.591737 -667.26518 
L 845.8681 -666.499146 
L 846.103102 -665.733112 
L 846.282997 -664.967077 
L 846.394349 -664.201043 
L 846.424346 -663.435008 
L 846.361115 -662.668974 
L 846.194048 -661.90294 
L 845.914096 -661.136905 
L 845.514049 -660.370871 
L 844.988773 -659.604836 
L 844.33539 -658.838802 
L 843.553403 -658.072768 
L 842.64476 -657.306733 
L 841.613836 -656.540699 
L 840.467353 -655.774665 
L 839.214231 -655.00863 
L 837.865365 -654.242596 
z
" style="stroke: #1a85ff; stroke-width: 1.8"/>
    </defs>
    <g clip-path="url(#p3717e9535e)">
     <use xlink:href="#m7d91362032" x="0" y="864" style="fill: #1a85ff; fill-opacity: 0.45; stroke: #1a85ff; stroke-width: 1.8"/>
    </g>
   </g>
   <g id="PathCollection_1">
    <defs>
     <path id="m0ae329c0cd" d="M -3.061862 6.123724 
L 0 3.061862 
L 3.061862 6.123724 
L 6.123724 3.061862 
L 3.061862 0 
L 6.123724 -3.061862 
L 3.061862 -6.123724 
L 0 -3.061862 
L -3.061862 -6.123724 
L -6.123724 -3.061862 
L -3.061862 0 
L -6.123724 3.061862 
z
" style="stroke: #000000; stroke-opacity: 0.8; stroke-width: 2"/>
    </defs>
    <g clip-path="url(#p3717e9535e)">
     <use xlink:href="#m0ae329c0cd" x="161.509091" y="738.72" style="fill: #1a85ff; fill-opacity: 0.8; stroke: #000000; stroke-opacity: 0.8; stroke-width: 2"/>
    </g>
   </g>
   <g id="PathCollection_2">
    <g clip-path="url(#p3717e9535e)">
     <use xlink:href="#m0ae329c0cd" x="645.723967" y="738.72" style="fill: #1a85ff; fill-opacity: 0.8; stroke: #000000; stroke-opacity: 0.8; stroke-width: 2"/>
    </g>
   </g>
   <g id="FillBetweenPolyCollection_4">
    <defs>
     <path id="mc1c6ca7a30" d="M 341.073734 -205.171062 
L 304.754365 -205.171062 
L 303.380666 -205.311048 
L 302.003202 -205.451034 
L 300.635877 -205.591021 
L 299.293476 -205.731007 
L 297.991416 -205.870993 
L 296.745452 -206.010979 
L 295.571351 -206.150966 
L 294.484545 -206.290952 
L 293.49976 -206.430938 
L 292.63065 -206.570924 
L 291.889425 -206.710911 
L 291.286504 -206.850897 
L 290.830196 -206.990883 
L 290.526417 -207.130869 
L 290.378462 -207.270856 
L 290.386824 -207.410842 
L 290.54909 -207.550828 
L 290.859898 -207.690814 
L 291.310962 -207.8308 
L 291.891176 -207.970787 
L 292.586773 -208.110773 
L 293.381561 -208.250759 
L 294.257201 -208.390745 
L 295.193542 -208.530732 
L 296.168994 -208.670718 
L 297.160925 -208.810704 
L 298.146078 -208.95069 
L 299.101 -209.090677 
L 300.002467 -209.230663 
L 300.827894 -209.370649 
L 301.555733 -209.510635 
L 302.165841 -209.650622 
L 302.639821 -209.790608 
L 302.961316 -209.930594 
L 303.116278 -210.07058 
L 303.093184 -210.210567 
L 302.883209 -210.350553 
L 302.480358 -210.490539 
L 301.881547 -210.630525 
L 301.086641 -210.770512 
L 300.098448 -210.910498 
L 298.922661 -211.050484 
L 297.567767 -211.19047 
L 296.044902 -211.330457 
L 294.367676 -211.470443 
L 292.551953 -211.610429 
L 290.615601 -211.750415 
L 288.578207 -211.890401 
L 286.460771 -212.030388 
L 284.285374 -212.170374 
L 282.074834 -212.31036 
L 279.852354 -212.450346 
L 277.641168 -212.590333 
L 275.464196 -212.730319 
L 273.343708 -212.870305 
L 271.30101 -213.010291 
L 269.356163 -213.150278 
L 267.527726 -213.290264 
L 265.832542 -213.43025 
L 264.285566 -213.570236 
L 262.899733 -213.710223 
L 261.685868 -213.850209 
L 260.652648 -213.990195 
L 259.806596 -214.130181 
L 259.152116 -214.270168 
L 258.691567 -214.410154 
L 258.425356 -214.55014 
L 258.352066 -214.690126 
L 258.468591 -214.830113 
L 258.77029 -214.970099 
L 259.251152 -215.110085 
L 259.903952 -215.250071 
L 260.720413 -215.390058 
L 261.691367 -215.530044 
L 262.806901 -215.67003 
L 264.056497 -215.810016 
L 265.429165 -215.950002 
L 266.913565 -216.089989 
L 268.498117 -216.229975 
L 270.171108 -216.369961 
L 271.920784 -216.509947 
L 273.735446 -216.649934 
L 275.603526 -216.78992 
L 277.513672 -216.929906 
L 279.454817 -217.069892 
L 281.416255 -217.209879 
L 283.387696 -217.349865 
L 285.359337 -217.489851 
L 287.321905 -217.629837 
L 289.266711 -217.769824 
L 291.185689 -217.90981 
L 293.071423 -218.049796 
L 294.917177 -218.189782 
L 296.716902 -218.329769 
L 298.465248 -218.469755 
L 300.157555 -218.609741 
L 301.789845 -218.749727 
L 303.358801 -218.889714 
L 304.861744 -219.0297 
L 340.966355 -219.0297 
L 340.966355 -219.0297 
L 342.469298 -218.889714 
L 344.038254 -218.749727 
L 345.670544 -218.609741 
L 347.362851 -218.469755 
L 349.111197 -218.329769 
L 350.910922 -218.189782 
L 352.756676 -218.049796 
L 354.64241 -217.90981 
L 356.561388 -217.769824 
L 358.506194 -217.629837 
L 360.468762 -217.489851 
L 362.440403 -217.349865 
L 364.411845 -217.209879 
L 366.373282 -217.069892 
L 368.314428 -216.929906 
L 370.224573 -216.78992 
L 372.092653 -216.649934 
L 373.907315 -216.509947 
L 375.656992 -216.369961 
L 377.329982 -216.229975 
L 378.914534 -216.089989 
L 380.398934 -215.950002 
L 381.771602 -215.810016 
L 383.021198 -215.67003 
L 384.136732 -215.530044 
L 385.107686 -215.390058 
L 385.924148 -215.250071 
L 386.576947 -215.110085 
L 387.057809 -214.970099 
L 387.359509 -214.830113 
L 387.476033 -214.690126 
L 387.402743 -214.55014 
L 387.136532 -214.410154 
L 386.675983 -214.270168 
L 386.021503 -214.130181 
L 385.175451 -213.990195 
L 384.142231 -213.850209 
L 382.928366 -213.710223 
L 381.542533 -213.570236 
L 379.995557 -213.43025 
L 378.300374 -213.290264 
L 376.471936 -213.150278 
L 374.527089 -213.010291 
L 372.484391 -212.870305 
L 370.363903 -212.730319 
L 368.186931 -212.590333 
L 365.975746 -212.450346 
L 363.753265 -212.31036 
L 361.542725 -212.170374 
L 359.367328 -212.030388 
L 357.249892 -211.890401 
L 355.212498 -211.750415 
L 353.276146 -211.610429 
L 351.460423 -211.470443 
L 349.783197 -211.330457 
L 348.260332 -211.19047 
L 346.905438 -211.050484 
L 345.729651 -210.910498 
L 344.741458 -210.770512 
L 343.946553 -210.630525 
L 343.347741 -210.490539 
L 342.94489 -210.350553 
L 342.734915 -210.210567 
L 342.711821 -210.07058 
L 342.866784 -209.930594 
L 343.188279 -209.790608 
L 343.662258 -209.650622 
L 344.272367 -209.510635 
L 345.000206 -209.370649 
L 345.825632 -209.230663 
L 346.727099 -209.090677 
L 347.682022 -208.95069 
L 348.667175 -208.810704 
L 349.659105 -208.670718 
L 350.634557 -208.530732 
L 351.570898 -208.390745 
L 352.446538 -208.250759 
L 353.241326 -208.110773 
L 353.936923 -207.970787 
L 354.517137 -207.8308 
L 354.968201 -207.690814 
L 355.279009 -207.550828 
L 355.441275 -207.410842 
L 355.449637 -207.270856 
L 355.301682 -207.130869 
L 354.997904 -206.990883 
L 354.541596 -206.850897 
L 353.938675 -206.710911 
L 353.197449 -206.570924 
L 352.328339 -206.430938 
L 351.343555 -206.290952 
L 350.256748 -206.150966 
L 349.082648 -206.010979 
L 347.836683 -205.870993 
L 346.534623 -205.731007 
L 345.192222 -205.591021 
L 343.824897 -205.451034 
L 342.447433 -205.311048 
L 341.073734 -205.171062 
z
" style="stroke: #d41159; stroke-width: 1.8"/>
    </defs>
    <g clip-path="url(#p3717e9535e)">
     <use xlink:href="#mc1c6ca7a30" x="0" y="864" style="fill: #d41159; fill-opacity: 0.45; stroke: #d41159; stroke-width: 1.8"/>
    </g>
   </g>
   <g id="FillBetweenPolyCollection_5">
    <defs>
     <path id="m3233618350" d="M 536.656586 -187.859275 
L 431.98143 -187.859275 
L 429.666928 -187.974357 
L 427.540807 -188.089439 
L 425.629991 -188.20452 
L 423.958487 -188.319602 
L 422.546774 -188.434684 
L 421.411271 -188.549766 
L 420.563903 -188.664847 
L 420.011785 -188.779929 
L 419.757025 -188.895011 
L 419.796663 -189.010093 
L 420.122744 -189.125174 
L 420.722519 -189.240256 
L 421.578762 -189.355338 
L 422.670208 -189.470419 
L 423.972067 -189.585501 
L 425.456625 -189.700583 
L 427.093887 -189.815665 
L 428.852254 -189.930746 
L 430.699204 -190.045828 
L 432.601964 -190.16091 
L 434.528142 -190.275992 
L 436.446318 -190.391073 
L 438.326563 -190.506155 
L 440.140896 -190.621237 
L 441.863652 -190.736319 
L 443.471779 -190.8514 
L 444.94505 -190.966482 
L 446.266197 -191.081564 
L 447.420988 -191.196645 
L 448.398232 -191.311727 
L 449.189741 -191.426809 
L 449.790248 -191.541891 
L 450.197303 -191.656972 
L 450.411144 -191.772054 
L 450.434558 -191.887136 
L 450.272738 -192.002218 
L 449.933144 -192.117299 
L 449.425363 -192.232381 
L 448.760974 -192.347463 
L 447.95342 -192.462545 
L 447.017872 -192.577626 
L 445.9711 -192.692708 
L 444.831323 -192.80779 
L 443.618052 -192.922871 
L 442.351909 -193.037953 
L 441.054422 -193.153035 
L 439.747789 -193.268117 
L 438.454619 -193.383198 
L 437.197631 -193.49828 
L 435.999331 -193.613362 
L 434.881665 -193.728444 
L 433.865653 -193.843525 
L 432.971015 -193.958607 
L 432.215795 -194.073689 
L 431.616004 -194.188771 
L 431.185286 -194.303852 
L 430.934625 -194.418934 
L 430.872097 -194.534016 
L 431.002691 -194.649097 
L 431.328198 -194.764179 
L 431.847174 -194.879261 
L 432.554991 -194.994343 
L 433.443964 -195.109424 
L 434.503559 -195.224506 
L 435.720676 -195.339588 
L 437.079991 -195.45467 
L 438.564361 -195.569751 
L 440.155253 -195.684833 
L 441.833212 -195.799915 
L 443.578329 -195.914997 
L 445.370703 -196.030078 
L 447.190884 -196.14516 
L 449.020274 -196.260242 
L 450.841488 -196.375323 
L 452.638653 -196.490405 
L 454.397646 -196.605487 
L 456.106268 -196.720569 
L 457.754347 -196.83565 
L 459.333777 -196.950732 
L 460.838496 -197.065814 
L 462.264412 -197.180896 
L 463.609276 -197.295977 
L 464.872522 -197.411059 
L 466.055073 -197.526141 
L 467.159134 -197.641223 
L 468.187967 -197.756304 
L 469.145669 -197.871386 
L 470.03695 -197.986468 
L 470.866928 -198.101549 
L 471.640935 -198.216631 
L 472.364344 -198.331713 
L 473.042425 -198.446795 
L 473.680212 -198.561876 
L 474.282408 -198.676958 
L 474.853306 -198.79204 
L 475.396732 -198.907122 
L 475.916018 -199.022203 
L 476.413983 -199.137285 
L 476.892939 -199.252367 
L 491.745078 -199.252367 
L 491.745078 -199.252367 
L 492.224034 -199.137285 
L 492.721999 -199.022203 
L 493.241284 -198.907122 
L 493.784711 -198.79204 
L 494.355608 -198.676958 
L 494.957804 -198.561876 
L 495.595592 -198.446795 
L 496.273672 -198.331713 
L 496.997082 -198.216631 
L 497.771088 -198.101549 
L 498.601066 -197.986468 
L 499.492348 -197.871386 
L 500.45005 -197.756304 
L 501.478883 -197.641223 
L 502.582944 -197.526141 
L 503.765495 -197.411059 
L 505.02874 -197.295977 
L 506.373604 -197.180896 
L 507.79952 -197.065814 
L 509.30424 -196.950732 
L 510.88367 -196.83565 
L 512.531749 -196.720569 
L 514.240371 -196.605487 
L 515.999364 -196.490405 
L 517.796529 -196.375323 
L 519.617742 -196.260242 
L 521.447133 -196.14516 
L 523.267313 -196.030078 
L 525.059688 -195.914997 
L 526.804805 -195.799915 
L 528.482764 -195.684833 
L 530.073656 -195.569751 
L 531.558025 -195.45467 
L 532.917341 -195.339588 
L 534.134457 -195.224506 
L 535.194053 -195.109424 
L 536.083025 -194.994343 
L 536.790843 -194.879261 
L 537.309819 -194.764179 
L 537.635325 -194.649097 
L 537.765919 -194.534016 
L 537.703391 -194.418934 
L 537.45273 -194.303852 
L 537.022013 -194.188771 
L 536.422222 -194.073689 
L 535.667002 -193.958607 
L 534.772363 -193.843525 
L 533.756352 -193.728444 
L 532.638686 -193.613362 
L 531.440386 -193.49828 
L 530.183397 -193.383198 
L 528.890227 -193.268117 
L 527.583595 -193.153035 
L 526.286107 -193.037953 
L 525.019964 -192.922871 
L 523.806693 -192.80779 
L 522.666916 -192.692708 
L 521.620144 -192.577626 
L 520.684597 -192.462545 
L 519.877042 -192.347463 
L 519.212653 -192.232381 
L 518.704872 -192.117299 
L 518.365278 -192.002218 
L 518.203459 -191.887136 
L 518.226872 -191.772054 
L 518.440713 -191.656972 
L 518.847769 -191.541891 
L 519.448276 -191.426809 
L 520.239784 -191.311727 
L 521.217028 -191.196645 
L 522.37182 -191.081564 
L 523.692967 -190.966482 
L 525.166237 -190.8514 
L 526.774364 -190.736319 
L 528.497121 -190.621237 
L 530.311454 -190.506155 
L 532.191699 -190.391073 
L 534.109875 -190.275992 
L 536.036053 -190.16091 
L 537.938813 -190.045828 
L 539.785763 -189.930746 
L 541.54413 -189.815665 
L 543.181392 -189.700583 
L 544.66595 -189.585501 
L 545.967809 -189.470419 
L 547.059254 -189.355338 
L 547.915498 -189.240256 
L 548.515272 -189.125174 
L 548.841354 -189.010093 
L 548.880992 -188.895011 
L 548.626231 -188.779929 
L 548.074113 -188.664847 
L 547.226746 -188.549766 
L 546.091243 -188.434684 
L 544.67953 -188.319602 
L 543.008026 -188.20452 
L 541.09721 -188.089439 
L 538.971089 -187.974357 
L 536.656586 -187.859275 
z
" style="stroke: #d41159; stroke-width: 1.8"/>
    </defs>
    <g clip-path="url(#p3717e9535e)">
     <use xlink:href="#m3233618350" x="0" y="864" style="fill: #d41159; fill-opacity: 0.45; stroke: #d41159; stroke-width: 1.8"/>
    </g>
   </g>
   <g id="FillBetweenPolyCollection_6">
    <defs>
     <path id="ma6f3f60675" d="M 825.973681 -614.17013 
L 788.28417 -614.17013 
L 787.210557 -614.939614 
L 786.185495 -615.709098 
L 785.221206 -616.478582 
L 784.329227 -617.248066 
L 783.520107 -618.01755 
L 782.80313 -618.787034 
L 782.186052 -619.556518 
L 781.674882 -620.326002 
L 781.273698 -621.095486 
L 780.984516 -621.86497 
L 780.807207 -622.634454 
L 780.73947 -623.403938 
L 780.776859 -624.173422 
L 780.912863 -624.942907 
L 781.139033 -625.712391 
L 781.445156 -626.481875 
L 781.819464 -627.251359 
L 782.248872 -628.020843 
L 782.719239 -628.790327 
L 783.215639 -629.559811 
L 783.722644 -630.329295 
L 784.224592 -631.098779 
L 784.705861 -631.868263 
L 785.151115 -632.637747 
L 785.545538 -633.407231 
L 785.875046 -634.176715 
L 786.126468 -634.946199 
L 786.287709 -635.715683 
L 786.347888 -636.485167 
L 786.297445 -637.254651 
L 786.128237 -638.024135 
L 785.833605 -638.793619 
L 785.408431 -639.563103 
L 784.849172 -640.332587 
L 784.153888 -641.102071 
L 783.322252 -641.871555 
L 782.355556 -642.64104 
L 781.256695 -643.410524 
L 780.030154 -644.180008 
L 778.681969 -644.949492 
L 777.21969 -645.718976 
L 775.652316 -646.48846 
L 773.990226 -647.257944 
L 772.245084 -648.027428 
L 770.429733 -648.796912 
L 768.558068 -649.566396 
L 766.644892 -650.33588 
L 764.705751 -651.105364 
L 762.756758 -651.874848 
L 760.814405 -652.644332 
L 758.895358 -653.413816 
L 757.016253 -654.1833 
L 755.19349 -654.952784 
L 753.443026 -655.722268 
L 751.780179 -656.491752 
L 750.219449 -657.261236 
L 748.774348 -658.03072 
L 747.457256 -658.800204 
L 746.279297 -659.569688 
L 745.250246 -660.339173 
L 744.378454 -661.108657 
L 743.670799 -661.878141 
L 743.132668 -662.647625 
L 742.76795 -663.417109 
L 742.579055 -664.186593 
L 742.566942 -664.956077 
L 742.731166 -665.725561 
L 743.069924 -666.495045 
L 743.580116 -667.264529 
L 744.257402 -668.034013 
L 745.096269 -668.803497 
L 746.090088 -669.572981 
L 747.231186 -670.342465 
L 748.510912 -671.111949 
L 749.919713 -671.881433 
L 751.44721 -672.650917 
L 753.082291 -673.420401 
L 754.813208 -674.189885 
L 756.627691 -674.959369 
L 758.513067 -675.728853 
L 760.456399 -676.498337 
L 762.444629 -677.267821 
L 764.464736 -678.037306 
L 766.503895 -678.80679 
L 768.549633 -679.576274 
L 770.589989 -680.345758 
L 772.613659 -681.115242 
L 774.610133 -681.884726 
L 776.569803 -682.65421 
L 778.484058 -683.423694 
L 780.345352 -684.193178 
L 782.147239 -684.962662 
L 783.884387 -685.732146 
L 785.552559 -686.50163 
L 787.148574 -687.271114 
L 788.670242 -688.040598 
L 790.116281 -688.810082 
L 791.486227 -689.579566 
L 792.780323 -690.34905 
L 821.477529 -690.34905 
L 821.477529 -690.34905 
L 822.771624 -689.579566 
L 824.14157 -688.810082 
L 825.587609 -688.040598 
L 827.109277 -687.271114 
L 828.705292 -686.50163 
L 830.373464 -685.732146 
L 832.110612 -684.962662 
L 833.912499 -684.193178 
L 835.773793 -683.423694 
L 837.688048 -682.65421 
L 839.647718 -681.884726 
L 841.644192 -681.115242 
L 843.667863 -680.345758 
L 845.708219 -679.576274 
L 847.753956 -678.80679 
L 849.793115 -678.037306 
L 851.813223 -677.267821 
L 853.801453 -676.498337 
L 855.744784 -675.728853 
L 857.63016 -674.959369 
L 859.444643 -674.189885 
L 861.175561 -673.420401 
L 862.810642 -672.650917 
L 864.338139 -671.881433 
L 865.746939 -671.111949 
L 867.026665 -670.342465 
L 868.167763 -669.572981 
L 869.161582 -668.803497 
L 870.000449 -668.034013 
L 870.677736 -667.264529 
L 871.187928 -666.495045 
L 871.526686 -665.725561 
L 871.690909 -664.956077 
L 871.678796 -664.186593 
L 871.489901 -663.417109 
L 871.125183 -662.647625 
L 870.587052 -661.878141 
L 869.879397 -661.108657 
L 869.007605 -660.339173 
L 867.978554 -659.569688 
L 866.800596 -658.800204 
L 865.483503 -658.03072 
L 864.038402 -657.261236 
L 862.477672 -656.491752 
L 860.814826 -655.722268 
L 859.064361 -654.952784 
L 857.241598 -654.1833 
L 855.362494 -653.413816 
L 853.443446 -652.644332 
L 851.501093 -651.874848 
L 849.552101 -651.105364 
L 847.612959 -650.33588 
L 845.699783 -649.566396 
L 843.828118 -648.796912 
L 842.012767 -648.027428 
L 840.267625 -647.257944 
L 838.605535 -646.48846 
L 837.038161 -645.718976 
L 835.575882 -644.949492 
L 834.227697 -644.180008 
L 833.001156 -643.410524 
L 831.902295 -642.64104 
L 830.935599 -641.871555 
L 830.103964 -641.102071 
L 829.408679 -640.332587 
L 828.84942 -639.563103 
L 828.424246 -638.793619 
L 828.129614 -638.024135 
L 827.960406 -637.254651 
L 827.909963 -636.485167 
L 827.970142 -635.715683 
L 828.131383 -634.946199 
L 828.382805 -634.176715 
L 828.712313 -633.407231 
L 829.106736 -632.637747 
L 829.55199 -631.868263 
L 830.033259 -631.098779 
L 830.535208 -630.329295 
L 831.042212 -629.559811 
L 831.538613 -628.790327 
L 832.008979 -628.020843 
L 832.438387 -627.251359 
L 832.812695 -626.481875 
L 833.118819 -625.712391 
L 833.344988 -624.942907 
L 833.480992 -624.173422 
L 833.518381 -623.403938 
L 833.450644 -622.634454 
L 833.273336 -621.86497 
L 832.984154 -621.095486 
L 832.58297 -620.326002 
L 832.071799 -619.556518 
L 831.454721 -618.787034 
L 830.737744 -618.01755 
L 829.928624 -617.248066 
L 829.036645 -616.478582 
L 828.072356 -615.709098 
L 827.047294 -614.939614 
L 825.973681 -614.17013 
z
" style="stroke: #d41159; stroke-width: 1.8"/>
    </defs>
    <g clip-path="url(#p3717e9535e)">
     <use xlink:href="#ma6f3f60675" x="0" y="864" style="fill: #d41159; fill-opacity: 0.45; stroke: #d41159; stroke-width: 1.8"/>
    </g>
   </g>
   <g id="PathCollection_3">
    <defs>
     <path id="m188a157e48" d="M -3.061862 6.123724 
L 0 3.061862 
L 3.061862 6.123724 
L 6.123724 3.061862 
L 3.061862 0 
L 6.123724 -3.061862 
L 3.061862 -6.123724 
L 0 -3.061862 
L -3.061862 -6.123724 
L -6.123724 -3.061862 
L -3.061862 0 
L -6.123724 3.061862 
z
" style="stroke: #000000; stroke-opacity: 0.8; stroke-width: 2"/>
    </defs>
    <g clip-path="url(#p3717e9535e)">
     <use xlink:href="#m188a157e48" x="161.509091" y="738.72" style="fill: #d41159; fill-opacity: 0.8; stroke: #000000; stroke-opacity: 0.8; stroke-width: 2"/>
    </g>
   </g>
   <g id="PathCollection_4">
    <g clip-path="url(#p3717e9535e)">
     <use xlink:href="#m188a157e48" x="645.723967" y="738.72" style="fill: #d41159; fill-opacity: 0.8; stroke: #000000; stroke-opacity: 0.8; stroke-width: 2"/>
    </g>
   </g>
   <g id="FillBetweenPolyCollection_7">
    <defs>
     <path id="md8b55ae3b0" d="M 358.273295 -205.348967 
L 287.554804 -205.348967 
L 285.58615 -205.505075 
L 283.734533 -205.661183 
L 282.02598 -205.81729 
L 280.484707 -205.973398 
L 279.132414 -206.129506 
L 277.987635 -206.285614 
L 277.065165 -206.441722 
L 276.375584 -206.59783 
L 275.924902 -206.753937 
L 275.71434 -206.910045 
L 275.740251 -207.066153 
L 275.994195 -207.222261 
L 276.463146 -207.378369 
L 277.129841 -207.534476 
L 277.973242 -207.690584 
L 278.96909 -207.846692 
L 280.09054 -208.0028 
L 281.308833 -208.158908 
L 282.593989 -208.315016 
L 283.915501 -208.471123 
L 285.242983 -208.627231 
L 286.546782 -208.783339 
L 287.798512 -208.939447 
L 288.971517 -209.095555 
L 290.041248 -209.251662 
L 290.985554 -209.40777 
L 291.784899 -209.563878 
L 292.422499 -209.719986 
L 292.884405 -209.876094 
L 293.159531 -210.032202 
L 293.239652 -210.188309 
L 293.119369 -210.344417 
L 292.796072 -210.500525 
L 292.269889 -210.656633 
L 291.543645 -210.812741 
L 290.622813 -210.968848 
L 289.515478 -211.124956 
L 288.232297 -211.281064 
L 286.786443 -211.437172 
L 285.193548 -211.59328 
L 283.471605 -211.749388 
L 281.640852 -211.905495 
L 279.723602 -212.061603 
L 277.744034 -212.217711 
L 275.72792 -212.373819 
L 273.702311 -212.529927 
L 271.695163 -212.686034 
L 269.734914 -212.842142 
L 267.850025 -212.99825 
L 266.068491 -213.154358 
L 264.417334 -213.310466 
L 262.922093 -213.466574 
L 261.606335 -213.622681 
L 260.491187 -213.778789 
L 259.594915 -213.934897 
L 258.932567 -214.091005 
L 258.51568 -214.247113 
L 258.352066 -214.40322 
L 258.445697 -214.559328 
L 258.796663 -214.715436 
L 259.401238 -214.871544 
L 260.252018 -215.027652 
L 261.338155 -215.18376 
L 262.645657 -215.339867 
L 264.157755 -215.495975 
L 265.855319 -215.652083 
L 267.717312 -215.808191 
L 269.721266 -215.964299 
L 271.843774 -216.120406 
L 274.060966 -216.276514 
L 276.348974 -216.432622 
L 278.684372 -216.58873 
L 281.044564 -216.744838 
L 283.40814 -216.900946 
L 285.75517 -217.057053 
L 288.067445 -217.213161 
L 290.32866 -217.369269 
L 292.524542 -217.525377 
L 294.642921 -217.681485 
L 296.673747 -217.837592 
L 298.609072 -217.9937 
L 300.442975 -218.149808 
L 302.171467 -218.305916 
L 303.792358 -218.462024 
L 305.305111 -218.618132 
L 306.710668 -218.774239 
L 308.011277 -218.930347 
L 309.210311 -219.086455 
L 310.312075 -219.242563 
L 311.321631 -219.398671 
L 312.244618 -219.554778 
L 313.087082 -219.710886 
L 313.855317 -219.866994 
L 314.555717 -220.023102 
L 315.194642 -220.17921 
L 315.778297 -220.335318 
L 316.312629 -220.491425 
L 316.803236 -220.647533 
L 317.255301 -220.803641 
L 328.572798 -220.803641 
L 328.572798 -220.803641 
L 329.024863 -220.647533 
L 329.51547 -220.491425 
L 330.049802 -220.335318 
L 330.633457 -220.17921 
L 331.272382 -220.023102 
L 331.972782 -219.866994 
L 332.741017 -219.710886 
L 333.583481 -219.554778 
L 334.506468 -219.398671 
L 335.516024 -219.242563 
L 336.617788 -219.086455 
L 337.816822 -218.930347 
L 339.117432 -218.774239 
L 340.522988 -218.618132 
L 342.035741 -218.462024 
L 343.656632 -218.305916 
L 345.385124 -218.149808 
L 347.219027 -217.9937 
L 349.154352 -217.837592 
L 351.185179 -217.681485 
L 353.303557 -217.525377 
L 355.499439 -217.369269 
L 357.760654 -217.213161 
L 360.072929 -217.057053 
L 362.419959 -216.900946 
L 364.783535 -216.744838 
L 367.143728 -216.58873 
L 369.479125 -216.432622 
L 371.767133 -216.276514 
L 373.984325 -216.120406 
L 376.106833 -215.964299 
L 378.110787 -215.808191 
L 379.97278 -215.652083 
L 381.670344 -215.495975 
L 383.182442 -215.339867 
L 384.489945 -215.18376 
L 385.576081 -215.027652 
L 386.426861 -214.871544 
L 387.031436 -214.715436 
L 387.382402 -214.559328 
L 387.476033 -214.40322 
L 387.31242 -214.247113 
L 386.895532 -214.091005 
L 386.233184 -213.934897 
L 385.336913 -213.778789 
L 384.221764 -213.622681 
L 382.906006 -213.466574 
L 381.410766 -213.310466 
L 379.759608 -213.154358 
L 377.978074 -212.99825 
L 376.093185 -212.842142 
L 374.132936 -212.686034 
L 372.125788 -212.529927 
L 370.10018 -212.373819 
L 368.084066 -212.217711 
L 366.104497 -212.061603 
L 364.187247 -211.905495 
L 362.356494 -211.749388 
L 360.634552 -211.59328 
L 359.041656 -211.437172 
L 357.595802 -211.281064 
L 356.312621 -211.124956 
L 355.205287 -210.968848 
L 354.284454 -210.812741 
L 353.55821 -210.656633 
L 353.032027 -210.500525 
L 352.70873 -210.344417 
L 352.588447 -210.188309 
L 352.668568 -210.032202 
L 352.943694 -209.876094 
L 353.4056 -209.719986 
L 354.0432 -209.563878 
L 354.842545 -209.40777 
L 355.786851 -209.251662 
L 356.856582 -209.095555 
L 358.029587 -208.939447 
L 359.281317 -208.783339 
L 360.585116 -208.627231 
L 361.912598 -208.471123 
L 363.23411 -208.315016 
L 364.519267 -208.158908 
L 365.737559 -208.0028 
L 366.859009 -207.846692 
L 367.854857 -207.690584 
L 368.698258 -207.534476 
L 369.364954 -207.378369 
L 369.833905 -207.222261 
L 370.087848 -207.066153 
L 370.11376 -206.910045 
L 369.903197 -206.753937 
L 369.452515 -206.59783 
L 368.762934 -206.441722 
L 367.840465 -206.285614 
L 366.695686 -206.129506 
L 365.343392 -205.973398 
L 363.802119 -205.81729 
L 362.093566 -205.661183 
L 360.241949 -205.505075 
L 358.273295 -205.348967 
z
" style="stroke: #004d40; stroke-width: 1.8"/>
    </defs>
    <g clip-path="url(#p3717e9535e)">
     <use xlink:href="#md8b55ae3b0" x="0" y="864" style="fill: #004d40; fill-opacity: 0.45; stroke: #004d40; stroke-width: 1.8"/>
    </g>
   </g>
   <g id="FillBetweenPolyCollection_8">
    <defs>
     <path id="m9a7306d791" d="M 524.592703 -187.970482 
L 444.045314 -187.970482 
L 442.303239 -188.095804 
L 440.76884 -188.221126 
L 439.465335 -188.346448 
L 438.411079 -188.471771 
L 437.618889 -188.597093 
L 437.095565 -188.722415 
L 436.841601 -188.847737 
L 436.851118 -188.973059 
L 437.112017 -189.098381 
L 437.606329 -189.223703 
L 438.310769 -189.349026 
L 439.197448 -189.474348 
L 440.234715 -189.59967 
L 441.388097 -189.724992 
L 442.621286 -189.850314 
L 443.897137 -189.975636 
L 445.178642 -190.100958 
L 446.429835 -190.226281 
L 447.616615 -190.351603 
L 448.707443 -190.476925 
L 449.673916 -190.602247 
L 450.491208 -190.727569 
L 451.138372 -190.852891 
L 451.598506 -190.978213 
L 451.858821 -191.103535 
L 451.910587 -191.228858 
L 451.749021 -191.35418 
L 451.373095 -191.479502 
L 450.785322 -191.604824 
L 449.99151 -191.730146 
L 449.000522 -191.855468 
L 447.824035 -191.98079 
L 446.476327 -192.106113 
L 444.974076 -192.231435 
L 443.336191 -192.356757 
L 441.583647 -192.482079 
L 439.739343 -192.607401 
L 437.827945 -192.732723 
L 435.875723 -192.858045 
L 433.910358 -192.983368 
L 431.960702 -193.10869 
L 430.056495 -193.234012 
L 428.228015 -193.359334 
L 426.505664 -193.484656 
L 424.91949 -193.609978 
L 423.498651 -193.7353 
L 422.27083 -193.860623 
L 421.261615 -193.985945 
L 420.493874 -194.111267 
L 419.987138 -194.236589 
L 419.757025 -194.361911 
L 419.814736 -194.487233 
L 420.166644 -194.612555 
L 420.814003 -194.737877 
L 421.752797 -194.8632 
L 422.973747 -194.988522 
L 424.462476 -195.113844 
L 426.199841 -195.239166 
L 428.162418 -195.364488 
L 430.323119 -195.48981 
L 432.651931 -195.615132 
L 435.116737 -195.740455 
L 437.684187 -195.865777 
L 440.320584 -195.991099 
L 442.992756 -196.116421 
L 445.668863 -196.241743 
L 448.319125 -196.367065 
L 450.916437 -196.492387 
L 453.436852 -196.61771 
L 455.859925 -196.743032 
L 458.16891 -196.868354 
L 460.350816 -196.993676 
L 462.396332 -197.118998 
L 464.299638 -197.24432 
L 466.058118 -197.369642 
L 467.672005 -197.494965 
L 469.143978 -197.620287 
L 470.478736 -197.745609 
L 471.682572 -197.870931 
L 472.762961 -197.996253 
L 473.728189 -198.121575 
L 474.587023 -198.246897 
L 475.348432 -198.372219 
L 476.021363 -198.497542 
L 476.614577 -198.622864 
L 477.136521 -198.748186 
L 477.595257 -198.873508 
L 477.99841 -198.99883 
L 478.353155 -199.124152 
L 478.666211 -199.249474 
L 478.943846 -199.374797 
L 479.191886 -199.500119 
L 479.415717 -199.625441 
L 479.620285 -199.750763 
L 479.81009 -199.876085 
L 479.989169 -200.001407 
L 480.161078 -200.126729 
L 480.328874 -200.252052 
L 480.495096 -200.377374 
L 488.14292 -200.377374 
L 488.14292 -200.377374 
L 488.309143 -200.252052 
L 488.476939 -200.126729 
L 488.648848 -200.001407 
L 488.827926 -199.876085 
L 489.017731 -199.750763 
L 489.2223 -199.625441 
L 489.44613 -199.500119 
L 489.69417 -199.374797 
L 489.971805 -199.249474 
L 490.284861 -199.124152 
L 490.639607 -198.99883 
L 491.04276 -198.873508 
L 491.501495 -198.748186 
L 492.02344 -198.622864 
L 492.616653 -198.497542 
L 493.289585 -198.372219 
L 494.050993 -198.246897 
L 494.909827 -198.121575 
L 495.875055 -197.996253 
L 496.955444 -197.870931 
L 498.15928 -197.745609 
L 499.494038 -197.620287 
L 500.966012 -197.494965 
L 502.579898 -197.369642 
L 504.338378 -197.24432 
L 506.241684 -197.118998 
L 508.2872 -196.993676 
L 510.469106 -196.868354 
L 512.778091 -196.743032 
L 515.201164 -196.61771 
L 517.721579 -196.492387 
L 520.318891 -196.367065 
L 522.969154 -196.241743 
L 525.645261 -196.116421 
L 528.317433 -195.991099 
L 530.95383 -195.865777 
L 533.521279 -195.740455 
L 535.986085 -195.615132 
L 538.314897 -195.48981 
L 540.475598 -195.364488 
L 542.438175 -195.239166 
L 544.175541 -195.113844 
L 545.66427 -194.988522 
L 546.885219 -194.8632 
L 547.824013 -194.737877 
L 548.471372 -194.612555 
L 548.82328 -194.487233 
L 548.880992 -194.361911 
L 548.650879 -194.236589 
L 548.144142 -194.111267 
L 547.376402 -193.985945 
L 546.367187 -193.860623 
L 545.139366 -193.7353 
L 543.718527 -193.609978 
L 542.132353 -193.484656 
L 540.410001 -193.359334 
L 538.581521 -193.234012 
L 536.677315 -193.10869 
L 534.727659 -192.983368 
L 532.762293 -192.858045 
L 530.810072 -192.732723 
L 528.898674 -192.607401 
L 527.054369 -192.482079 
L 525.301826 -192.356757 
L 523.66394 -192.231435 
L 522.16169 -192.106113 
L 520.813981 -191.98079 
L 519.637494 -191.855468 
L 518.646506 -191.730146 
L 517.852694 -191.604824 
L 517.264921 -191.479502 
L 516.888995 -191.35418 
L 516.727429 -191.228858 
L 516.779196 -191.103535 
L 517.03951 -190.978213 
L 517.499645 -190.852891 
L 518.146808 -190.727569 
L 518.964101 -190.602247 
L 519.930574 -190.476925 
L 521.021401 -190.351603 
L 522.208181 -190.226281 
L 523.459375 -190.100958 
L 524.740879 -189.975636 
L 526.01673 -189.850314 
L 527.249919 -189.724992 
L 528.403302 -189.59967 
L 529.440569 -189.474348 
L 530.327248 -189.349026 
L 531.031688 -189.223703 
L 531.525999 -189.098381 
L 531.786898 -188.973059 
L 531.796416 -188.847737 
L 531.542452 -188.722415 
L 531.019127 -188.597093 
L 530.226938 -188.471771 
L 529.172681 -188.346448 
L 527.869177 -188.221126 
L 526.334777 -188.095804 
L 524.592703 -187.970482 
z
" style="stroke: #004d40; stroke-width: 1.8"/>
    </defs>
    <g clip-path="url(#p3717e9535e)">
     <use xlink:href="#m9a7306d791" x="0" y="864" style="fill: #004d40; fill-opacity: 0.45; stroke: #004d40; stroke-width: 1.8"/>
    </g>
   </g>
   <g id="FillBetweenPolyCollection_9">
    <defs>
     <path id="mc1006e324c" d="M 846.347699 -613.560649 
L 767.910152 -613.560649 
L 765.800541 -614.252984 
L 763.732208 -614.94532 
L 761.717298 -615.637656 
L 759.767235 -616.329992 
L 757.89258 -617.022327 
L 756.102913 -617.714663 
L 754.406748 -618.406999 
L 752.811472 -619.099335 
L 751.323306 -619.79167 
L 749.947296 -620.484006 
L 748.68732 -621.176342 
L 747.546118 -621.868678 
L 746.525332 -622.561013 
L 745.625563 -623.253349 
L 744.846432 -623.945685 
L 744.186651 -624.638021 
L 743.644096 -625.330356 
L 743.215888 -626.022692 
L 742.898469 -626.715028 
L 742.687686 -627.407364 
L 742.578874 -628.099699 
L 742.566942 -628.792035 
L 742.646465 -629.484371 
L 742.811768 -630.176707 
L 743.057025 -630.869042 
L 743.376349 -631.561378 
L 743.763887 -632.253714 
L 744.21391 -632.94605 
L 744.720902 -633.638385 
L 745.279642 -634.330721 
L 745.885269 -635.023057 
L 746.533342 -635.715393 
L 747.219882 -636.407729 
L 747.941391 -637.100064 
L 748.694856 -637.7924 
L 749.47773 -638.484736 
L 750.287888 -639.177072 
L 751.123565 -639.869407 
L 751.983275 -640.561743 
L 752.865717 -641.254079 
L 753.769661 -641.946415 
L 754.693836 -642.63875 
L 755.636815 -643.331086 
L 756.5969 -644.023422 
L 757.572022 -644.715758 
L 758.559657 -645.408093 
L 759.55676 -646.100429 
L 760.559727 -646.792765 
L 761.564385 -647.485101 
L 762.566009 -648.177436 
L 763.559374 -648.869772 
L 764.538838 -649.562108 
L 765.498446 -650.254444 
L 766.432063 -650.946779 
L 767.333531 -651.639115 
L 768.196832 -652.331451 
L 769.016266 -653.023787 
L 769.786631 -653.716122 
L 770.503395 -654.408458 
L 771.16286 -655.100794 
L 771.76231 -655.79313 
L 772.300133 -656.485465 
L 772.775919 -657.177801 
L 773.190527 -657.870137 
L 773.546114 -658.562473 
L 773.84613 -659.254808 
L 774.09528 -659.947144 
L 774.299447 -660.63948 
L 774.46558 -661.331816 
L 774.601551 -662.024151 
L 774.71599 -662.716487 
L 774.818089 -663.408823 
L 774.917399 -664.101159 
L 775.023604 -664.793494 
L 775.146303 -665.48583 
L 775.294783 -666.178166 
L 775.477812 -666.870502 
L 775.703435 -667.562837 
L 775.978799 -668.255173 
L 776.309997 -668.947509 
L 776.701948 -669.639845 
L 777.158304 -670.33218 
L 777.681391 -671.024516 
L 778.27219 -671.716852 
L 778.930345 -672.409188 
L 779.654211 -673.101523 
L 780.440928 -673.793859 
L 781.28652 -674.486195 
L 782.186023 -675.178531 
L 783.133624 -675.870866 
L 784.122816 -676.563202 
L 785.146561 -677.255538 
L 786.197453 -677.947874 
L 787.267883 -678.640209 
L 788.350192 -679.332545 
L 789.436819 -680.024881 
L 790.520433 -680.717217 
L 791.594049 -681.409552 
L 792.651128 -682.101888 
L 821.606723 -682.101888 
L 821.606723 -682.101888 
L 822.663802 -681.409552 
L 823.737418 -680.717217 
L 824.821032 -680.024881 
L 825.907659 -679.332545 
L 826.989968 -678.640209 
L 828.060398 -677.947874 
L 829.11129 -677.255538 
L 830.135035 -676.563202 
L 831.124227 -675.870866 
L 832.071828 -675.178531 
L 832.971331 -674.486195 
L 833.816923 -673.793859 
L 834.60364 -673.101523 
L 835.327506 -672.409188 
L 835.985661 -671.716852 
L 836.57646 -671.024516 
L 837.099547 -670.33218 
L 837.555903 -669.639845 
L 837.947854 -668.947509 
L 838.279052 -668.255173 
L 838.554416 -667.562837 
L 838.780039 -666.870502 
L 838.963068 -666.178166 
L 839.111549 -665.48583 
L 839.234247 -664.793494 
L 839.340452 -664.101159 
L 839.439762 -663.408823 
L 839.541862 -662.716487 
L 839.6563 -662.024151 
L 839.792271 -661.331816 
L 839.958404 -660.63948 
L 840.162571 -659.947144 
L 840.411722 -659.254808 
L 840.711737 -658.562473 
L 841.067324 -657.870137 
L 841.481932 -657.177801 
L 841.957719 -656.485465 
L 842.495542 -655.79313 
L 843.094991 -655.100794 
L 843.754457 -654.408458 
L 844.47122 -653.716122 
L 845.241585 -653.023787 
L 846.06102 -652.331451 
L 846.92432 -651.639115 
L 847.825788 -650.946779 
L 848.759405 -650.254444 
L 849.719013 -649.562108 
L 850.698477 -648.869772 
L 851.691843 -648.177436 
L 852.693466 -647.485101 
L 853.698124 -646.792765 
L 854.701091 -646.100429 
L 855.698194 -645.408093 
L 856.685829 -644.715758 
L 857.660951 -644.023422 
L 858.621036 -643.331086 
L 859.564015 -642.63875 
L 860.488191 -641.946415 
L 861.392134 -641.254079 
L 862.274576 -640.561743 
L 863.134287 -639.869407 
L 863.969963 -639.177072 
L 864.780121 -638.484736 
L 865.562995 -637.7924 
L 866.31646 -637.100064 
L 867.037969 -636.407729 
L 867.724509 -635.715393 
L 868.372582 -635.023057 
L 868.978209 -634.330721 
L 869.536949 -633.638385 
L 870.043942 -632.94605 
L 870.493965 -632.253714 
L 870.881502 -631.561378 
L 871.200826 -630.869042 
L 871.446083 -630.176707 
L 871.611386 -629.484371 
L 871.690909 -628.792035 
L 871.678978 -628.099699 
L 871.570165 -627.407364 
L 871.359382 -626.715028 
L 871.041963 -626.022692 
L 870.613755 -625.330356 
L 870.071201 -624.638021 
L 869.411419 -623.945685 
L 868.632288 -623.253349 
L 867.732519 -622.561013 
L 866.711733 -621.868678 
L 865.570531 -621.176342 
L 864.310555 -620.484006 
L 862.934545 -619.79167 
L 861.446379 -619.099335 
L 859.851103 -618.406999 
L 858.154939 -617.714663 
L 856.365271 -617.022327 
L 854.490616 -616.329992 
L 852.540553 -615.637656 
L 850.525644 -614.94532 
L 848.45731 -614.252984 
L 846.347699 -613.560649 
z
" style="stroke: #004d40; stroke-width: 1.8"/>
    </defs>
    <g clip-path="url(#p3717e9535e)">
     <use xlink:href="#mc1006e324c" x="0" y="864" style="fill: #004d40; fill-opacity: 0.45; stroke: #004d40; stroke-width: 1.8"/>
    </g>
   </g>
   <g id="PathCollection_5">
    <defs>
     <path id="m2c15ec4b36" d="M -3.061862 6.123724 
L 0 3.061862 
L 3.061862 6.123724 
L 6.123724 3.061862 
L 3.061862 0 
L 6.123724 -3.061862 
L 3.061862 -6.123724 
L 0 -3.061862 
L -3.061862 -6.123724 
L -6.123724 -3.061862 
L -3.061862 0 
L -6.123724 3.061862 
z
" style="stroke: #000000; stroke-opacity: 0.8; stroke-width: 2"/>
    </defs>
    <g clip-path="url(#p3717e9535e)">
     <use xlink:href="#m2c15ec4b36" x="161.509091" y="738.72" style="fill: #004d40; fill-opacity: 0.8; stroke: #000000; stroke-opacity: 0.8; stroke-width: 2"/>
    </g>
   </g>
   <g id="PathCollection_6">
    <g clip-path="url(#p3717e9535e)">
     <use xlink:href="#m2c15ec4b36" x="645.723967" y="738.72" style="fill: #004d40; fill-opacity: 0.8; stroke: #000000; stroke-opacity: 0.8; stroke-width: 2"/>
    </g>
   </g>
   <g id="matplotlib.axis_1">
    <g id="xtick_1">
     <g id="line2d_1">
      <defs>
       <path id="m7def03306e" d="M 0 0 
L 0 3.5 
" style="stroke: #000000; stroke-width: 0.8"/>
      </defs>
      <g>
       <use xlink:href="#m7def03306e" x="161.509091" y="768.96" style="stroke: #000000; stroke-width: 0.8"/>
      </g>
     </g>
     <g id="text_1">
      <!-- D6V1 -->
      <g transform="translate(127.42706 794.956094) scale(0.25 -0.25)">
       <defs>
        <path id="DejaVuSans-44" d="M 1259 4147 
L 1259 519 
L 2022 519 
Q 2988 519 3436 956 
Q 3884 1394 3884 2338 
Q 3884 3275 3436 3711 
Q 2988 4147 2022 4147 
L 1259 4147 
z
M 628 4666 
L 1925 4666 
Q 3281 4666 3915 4102 
Q 4550 3538 4550 2338 
Q 4550 1131 3912 565 
Q 3275 0 1925 0 
L 628 0 
L 628 4666 
z
" transform="scale(0.015625)"/>
        <path id="DejaVuSans-36" d="M 2113 2584 
Q 1688 2584 1439 2293 
Q 1191 2003 1191 1497 
Q 1191 994 1439 701 
Q 1688 409 2113 409 
Q 2538 409 2786 701 
Q 3034 994 3034 1497 
Q 3034 2003 2786 2293 
Q 2538 2584 2113 2584 
z
M 3366 4563 
L 3366 3988 
Q 3128 4100 2886 4159 
Q 2644 4219 2406 4219 
Q 1781 4219 1451 3797 
Q 1122 3375 1075 2522 
Q 1259 2794 1537 2939 
Q 1816 3084 2150 3084 
Q 2853 3084 3261 2657 
Q 3669 2231 3669 1497 
Q 3669 778 3244 343 
Q 2819 -91 2113 -91 
Q 1303 -91 875 529 
Q 447 1150 447 2328 
Q 447 3434 972 4092 
Q 1497 4750 2381 4750 
Q 2619 4750 2861 4703 
Q 3103 4656 3366 4563 
z
" transform="scale(0.015625)"/>
        <path id="DejaVuSans-56" d="M 1831 0 
L 50 4666 
L 709 4666 
L 2188 738 
L 3669 4666 
L 4325 4666 
L 2547 0 
L 1831 0 
z
" transform="scale(0.015625)"/>
        <path id="DejaVuSans-31" d="M 794 531 
L 1825 531 
L 1825 4091 
L 703 3866 
L 703 4441 
L 1819 4666 
L 2450 4666 
L 2450 531 
L 3481 531 
L 3481 0 
L 794 0 
L 794 531 
z
" transform="scale(0.015625)"/>
       </defs>
       <use xlink:href="#DejaVuSans-44"/>
       <use xlink:href="#DejaVuSans-36" transform="translate(77.001953 0)"/>
       <use xlink:href="#DejaVuSans-56" transform="translate(140.625 0)"/>
       <use xlink:href="#DejaVuSans-31" transform="translate(209.033203 0)"/>
      </g>
     </g>
    </g>
    <g id="xtick_2">
     <g id="line2d_2">
      <g>
       <use xlink:href="#m7def03306e" x="322.91405" y="768.96" style="stroke: #000000; stroke-width: 0.8"/>
      </g>
     </g>
     <g id="text_2">
      <!-- D6V2 -->
      <g transform="translate(288.832018 794.956094) scale(0.25 -0.25)">
       <defs>
        <path id="DejaVuSans-32" d="M 1228 531 
L 3431 531 
L 3431 0 
L 469 0 
L 469 531 
Q 828 903 1448 1529 
Q 2069 2156 2228 2338 
Q 2531 2678 2651 2914 
Q 2772 3150 2772 3378 
Q 2772 3750 2511 3984 
Q 2250 4219 1831 4219 
Q 1534 4219 1204 4116 
Q 875 4013 500 3803 
L 500 4441 
Q 881 4594 1212 4672 
Q 1544 4750 1819 4750 
Q 2544 4750 2975 4387 
Q 3406 4025 3406 3419 
Q 3406 3131 3298 2873 
Q 3191 2616 2906 2266 
Q 2828 2175 2409 1742 
Q 1991 1309 1228 531 
z
" transform="scale(0.015625)"/>
       </defs>
       <use xlink:href="#DejaVuSans-44"/>
       <use xlink:href="#DejaVuSans-36" transform="translate(77.001953 0)"/>
       <use xlink:href="#DejaVuSans-56" transform="translate(140.625 0)"/>
       <use xlink:href="#DejaVuSans-32" transform="translate(209.033203 0)"/>
      </g>
     </g>
    </g>
    <g id="xtick_3">
     <g id="line2d_3">
      <g>
       <use xlink:href="#m7def03306e" x="484.319008" y="768.96" style="stroke: #000000; stroke-width: 0.8"/>
      </g>
     </g>
     <g id="text_3">
      <!-- D6V3 -->
      <g transform="translate(450.236977 794.956094) scale(0.25 -0.25)">
       <defs>
        <path id="DejaVuSans-33" d="M 2597 2516 
Q 3050 2419 3304 2112 
Q 3559 1806 3559 1356 
Q 3559 666 3084 287 
Q 2609 -91 1734 -91 
Q 1441 -91 1130 -33 
Q 819 25 488 141 
L 488 750 
Q 750 597 1062 519 
Q 1375 441 1716 441 
Q 2309 441 2620 675 
Q 2931 909 2931 1356 
Q 2931 1769 2642 2001 
Q 2353 2234 1838 2234 
L 1294 2234 
L 1294 2753 
L 1863 2753 
Q 2328 2753 2575 2939 
Q 2822 3125 2822 3475 
Q 2822 3834 2567 4026 
Q 2313 4219 1838 4219 
Q 1578 4219 1281 4162 
Q 984 4106 628 3988 
L 628 4550 
Q 988 4650 1302 4700 
Q 1616 4750 1894 4750 
Q 2613 4750 3031 4423 
Q 3450 4097 3450 3541 
Q 3450 3153 3228 2886 
Q 3006 2619 2597 2516 
z
" transform="scale(0.015625)"/>
       </defs>
       <use xlink:href="#DejaVuSans-44"/>
       <use xlink:href="#DejaVuSans-36" transform="translate(77.001953 0)"/>
       <use xlink:href="#DejaVuSans-56" transform="translate(140.625 0)"/>
       <use xlink:href="#DejaVuSans-33" transform="translate(209.033203 0)"/>
      </g>
     </g>
    </g>
    <g id="xtick_4">
     <g id="line2d_4">
      <g>
       <use xlink:href="#m7def03306e" x="645.723967" y="768.96" style="stroke: #000000; stroke-width: 0.8"/>
      </g>
     </g>
     <g id="text_4">
      <!-- D6V4 -->
      <g transform="translate(611.641936 794.956094) scale(0.25 -0.25)">
       <defs>
        <path id="DejaVuSans-34" d="M 2419 4116 
L 825 1625 
L 2419 1625 
L 2419 4116 
z
M 2253 4666 
L 3047 4666 
L 3047 1625 
L 3713 1625 
L 3713 1100 
L 3047 1100 
L 3047 0 
L 2419 0 
L 2419 1100 
L 313 1100 
L 313 1709 
L 2253 4666 
z
" transform="scale(0.015625)"/>
       </defs>
       <use xlink:href="#DejaVuSans-44"/>
       <use xlink:href="#DejaVuSans-36" transform="translate(77.001953 0)"/>
       <use xlink:href="#DejaVuSans-56" transform="translate(140.625 0)"/>
       <use xlink:href="#DejaVuSans-34" transform="translate(209.033203 0)"/>
      </g>
     </g>
    </g>
    <g id="xtick_5">
     <g id="line2d_5">
      <g>
       <use xlink:href="#m7def03306e" x="807.128926" y="768.96" style="stroke: #000000; stroke-width: 0.8"/>
      </g>
     </g>
     <g id="text_5">
      <!-- D6V5 -->
      <g transform="translate(773.046894 794.956094) scale(0.25 -0.25)">
       <defs>
        <path id="DejaVuSans-35" d="M 691 4666 
L 3169 4666 
L 3169 4134 
L 1269 4134 
L 1269 2991 
Q 1406 3038 1543 3061 
Q 1681 3084 1819 3084 
Q 2600 3084 3056 2656 
Q 3513 2228 3513 1497 
Q 3513 744 3044 326 
Q 2575 -91 1722 -91 
Q 1428 -91 1123 -41 
Q 819 9 494 109 
L 494 744 
Q 775 591 1075 516 
Q 1375 441 1709 441 
Q 2250 441 2565 725 
Q 2881 1009 2881 1497 
Q 2881 1984 2565 2268 
Q 2250 2553 1709 2553 
Q 1456 2553 1204 2497 
Q 953 2441 691 2322 
L 691 4666 
z
" transform="scale(0.015625)"/>
       </defs>
       <use xlink:href="#DejaVuSans-44"/>
       <use xlink:href="#DejaVuSans-36" transform="translate(77.001953 0)"/>
       <use xlink:href="#DejaVuSans-56" transform="translate(140.625 0)"/>
       <use xlink:href="#DejaVuSans-35" transform="translate(209.033203 0)"/>
      </g>
     </g>
    </g>
    <g id="text_6">
     <!-- Query -->
     <g transform="translate(478.609766 823.151406) scale(0.25 -0.25)">
      <defs>
       <path id="DejaVuSans-51" d="M 2522 4238 
Q 1834 4238 1429 3725 
Q 1025 3213 1025 2328 
Q 1025 1447 1429 934 
Q 1834 422 2522 422 
Q 3209 422 3611 934 
Q 4013 1447 4013 2328 
Q 4013 3213 3611 3725 
Q 3209 4238 2522 4238 
z
M 3406 84 
L 4238 -825 
L 3475 -825 
L 2784 -78 
Q 2681 -84 2626 -87 
Q 2572 -91 2522 -91 
Q 1538 -91 948 567 
Q 359 1225 359 2328 
Q 359 3434 948 4092 
Q 1538 4750 2522 4750 
Q 3503 4750 4090 4092 
Q 4678 3434 4678 2328 
Q 4678 1516 4351 937 
Q 4025 359 3406 84 
z
" transform="scale(0.015625)"/>
       <path id="DejaVuSans-75" d="M 544 1381 
L 544 3500 
L 1119 3500 
L 1119 1403 
Q 1119 906 1312 657 
Q 1506 409 1894 409 
Q 2359 409 2629 706 
Q 2900 1003 2900 1516 
L 2900 3500 
L 3475 3500 
L 3475 0 
L 2900 0 
L 2900 538 
Q 2691 219 2414 64 
Q 2138 -91 1772 -91 
Q 1169 -91 856 284 
Q 544 659 544 1381 
z
M 1991 3584 
L 1991 3584 
z
" transform="scale(0.015625)"/>
       <path id="DejaVuSans-65" d="M 3597 1894 
L 3597 1613 
L 953 1613 
Q 991 1019 1311 708 
Q 1631 397 2203 397 
Q 2534 397 2845 478 
Q 3156 559 3463 722 
L 3463 178 
Q 3153 47 2828 -22 
Q 2503 -91 2169 -91 
Q 1331 -91 842 396 
Q 353 884 353 1716 
Q 353 2575 817 3079 
Q 1281 3584 2069 3584 
Q 2775 3584 3186 3129 
Q 3597 2675 3597 1894 
z
M 3022 2063 
Q 3016 2534 2758 2815 
Q 2500 3097 2075 3097 
Q 1594 3097 1305 2825 
Q 1016 2553 972 2059 
L 3022 2063 
z
" transform="scale(0.015625)"/>
       <path id="DejaVuSans-72" d="M 2631 2963 
Q 2534 3019 2420 3045 
Q 2306 3072 2169 3072 
Q 1681 3072 1420 2755 
Q 1159 2438 1159 1844 
L 1159 0 
L 581 0 
L 581 3500 
L 1159 3500 
L 1159 2956 
Q 1341 3275 1631 3429 
Q 1922 3584 2338 3584 
Q 2397 3584 2469 3576 
Q 2541 3569 2628 3553 
L 2631 2963 
z
" transform="scale(0.015625)"/>
       <path id="DejaVuSans-79" d="M 2059 -325 
Q 1816 -950 1584 -1140 
Q 1353 -1331 966 -1331 
L 506 -1331 
L 506 -850 
L 844 -850 
Q 1081 -850 1212 -737 
Q 1344 -625 1503 -206 
L 1606 56 
L 191 3500 
L 800 3500 
L 1894 763 
L 2988 3500 
L 3597 3500 
L 2059 -325 
z
" transform="scale(0.015625)"/>
      </defs>
      <use xlink:href="#DejaVuSans-51"/>
      <use xlink:href="#DejaVuSans-75" transform="translate(78.710938 0)"/>
      <use xlink:href="#DejaVuSans-65" transform="translate(142.089844 0)"/>
      <use xlink:href="#DejaVuSans-72" transform="translate(203.613281 0)"/>
      <use xlink:href="#DejaVuSans-79" transform="translate(244.726562 0)"/>
     </g>
    </g>
   </g>
   <g id="matplotlib.axis_2">
    <g id="ytick_1">
     <g id="line2d_6">
      <path d="M 126 738.72 
L 907.2 738.72 
" clip-path="url(#p3717e9535e)" style="fill: none; stroke: #b0b0b0; stroke-width: 0.8; stroke-linecap: square"/>
     </g>
     <g id="line2d_7">
      <defs>
       <path id="m60ebc3c368" d="M 0 0 
L -3.5 0 
" style="stroke: #000000; stroke-width: 0.8"/>
      </defs>
      <g>
       <use xlink:href="#m60ebc3c368" x="126" y="738.72" style="stroke: #000000; stroke-width: 0.8"/>
      </g>
     </g>
     <g id="text_7">
      <!-- 0 -->
      <g transform="translate(103.09375 748.218047) scale(0.25 -0.25)">
       <defs>
        <path id="DejaVuSans-30" d="M 2034 4250 
Q 1547 4250 1301 3770 
Q 1056 3291 1056 2328 
Q 1056 1369 1301 889 
Q 1547 409 2034 409 
Q 2525 409 2770 889 
Q 3016 1369 3016 2328 
Q 3016 3291 2770 3770 
Q 2525 4250 2034 4250 
z
M 2034 4750 
Q 2819 4750 3233 4129 
Q 3647 3509 3647 2328 
Q 3647 1150 3233 529 
Q 2819 -91 2034 -91 
Q 1250 -91 836 529 
Q 422 1150 422 2328 
Q 422 3509 836 4129 
Q 1250 4750 2034 4750 
z
" transform="scale(0.015625)"/>
       </defs>
       <use xlink:href="#DejaVuSans-30"/>
      </g>
     </g>
    </g>
    <g id="ytick_2">
     <g id="line2d_8">
      <path d="M 126 652.628599 
L 907.2 652.628599 
" clip-path="url(#p3717e9535e)" style="fill: none; stroke: #b0b0b0; stroke-width: 0.8; stroke-linecap: square"/>
     </g>
     <g id="line2d_9">
      <g>
       <use xlink:href="#m60ebc3c368" x="126" y="652.628599" style="stroke: #000000; stroke-width: 0.8"/>
      </g>
     </g>
     <g id="text_8">
      <!-- 1000 -->
      <g transform="translate(55.375 662.126646) scale(0.25 -0.25)">
       <use xlink:href="#DejaVuSans-31"/>
       <use xlink:href="#DejaVuSans-30" transform="translate(63.623047 0)"/>
       <use xlink:href="#DejaVuSans-30" transform="translate(127.246094 0)"/>
       <use xlink:href="#DejaVuSans-30" transform="translate(190.869141 0)"/>
      </g>
     </g>
    </g>
    <g id="ytick_3">
     <g id="line2d_10">
      <path d="M 126 566.537199 
L 907.2 566.537199 
" clip-path="url(#p3717e9535e)" style="fill: none; stroke: #b0b0b0; stroke-width: 0.8; stroke-linecap: square"/>
     </g>
     <g id="line2d_11">
      <g>
       <use xlink:href="#m60ebc3c368" x="126" y="566.537199" style="stroke: #000000; stroke-width: 0.8"/>
      </g>
     </g>
     <g id="text_9">
      <!-- 2000 -->
      <g transform="translate(55.375 576.035246) scale(0.25 -0.25)">
       <use xlink:href="#DejaVuSans-32"/>
       <use xlink:href="#DejaVuSans-30" transform="translate(63.623047 0)"/>
       <use xlink:href="#DejaVuSans-30" transform="translate(127.246094 0)"/>
       <use xlink:href="#DejaVuSans-30" transform="translate(190.869141 0)"/>
      </g>
     </g>
    </g>
    <g id="ytick_4">
     <g id="line2d_12">
      <path d="M 126 480.445798 
L 907.2 480.445798 
" clip-path="url(#p3717e9535e)" style="fill: none; stroke: #b0b0b0; stroke-width: 0.8; stroke-linecap: square"/>
     </g>
     <g id="line2d_13">
      <g>
       <use xlink:href="#m60ebc3c368" x="126" y="480.445798" style="stroke: #000000; stroke-width: 0.8"/>
      </g>
     </g>
     <g id="text_10">
      <!-- 3000 -->
      <g transform="translate(55.375 489.943845) scale(0.25 -0.25)">
       <use xlink:href="#DejaVuSans-33"/>
       <use xlink:href="#DejaVuSans-30" transform="translate(63.623047 0)"/>
       <use xlink:href="#DejaVuSans-30" transform="translate(127.246094 0)"/>
       <use xlink:href="#DejaVuSans-30" transform="translate(190.869141 0)"/>
      </g>
     </g>
    </g>
    <g id="ytick_5">
     <g id="line2d_14">
      <path d="M 126 394.354398 
L 907.2 394.354398 
" clip-path="url(#p3717e9535e)" style="fill: none; stroke: #b0b0b0; stroke-width: 0.8; stroke-linecap: square"/>
     </g>
     <g id="line2d_15">
      <g>
       <use xlink:href="#m60ebc3c368" x="126" y="394.354398" style="stroke: #000000; stroke-width: 0.8"/>
      </g>
     </g>
     <g id="text_11">
      <!-- 4000 -->
      <g transform="translate(55.375 403.852445) scale(0.25 -0.25)">
       <use xlink:href="#DejaVuSans-34"/>
       <use xlink:href="#DejaVuSans-30" transform="translate(63.623047 0)"/>
       <use xlink:href="#DejaVuSans-30" transform="translate(127.246094 0)"/>
       <use xlink:href="#DejaVuSans-30" transform="translate(190.869141 0)"/>
      </g>
     </g>
    </g>
    <g id="ytick_6">
     <g id="line2d_16">
      <path d="M 126 308.262997 
L 907.2 308.262997 
" clip-path="url(#p3717e9535e)" style="fill: none; stroke: #b0b0b0; stroke-width: 0.8; stroke-linecap: square"/>
     </g>
     <g id="line2d_17">
      <g>
       <use xlink:href="#m60ebc3c368" x="126" y="308.262997" style="stroke: #000000; stroke-width: 0.8"/>
      </g>
     </g>
     <g id="text_12">
      <!-- 5000 -->
      <g transform="translate(55.375 317.761044) scale(0.25 -0.25)">
       <use xlink:href="#DejaVuSans-35"/>
       <use xlink:href="#DejaVuSans-30" transform="translate(63.623047 0)"/>
       <use xlink:href="#DejaVuSans-30" transform="translate(127.246094 0)"/>
       <use xlink:href="#DejaVuSans-30" transform="translate(190.869141 0)"/>
      </g>
     </g>
    </g>
    <g id="ytick_7">
     <g id="line2d_18">
      <path d="M 126 222.171597 
L 907.2 222.171597 
" clip-path="url(#p3717e9535e)" style="fill: none; stroke: #b0b0b0; stroke-width: 0.8; stroke-linecap: square"/>
     </g>
     <g id="line2d_19">
      <g>
       <use xlink:href="#m60ebc3c368" x="126" y="222.171597" style="stroke: #000000; stroke-width: 0.8"/>
      </g>
     </g>
     <g id="text_13">
      <!-- 6000 -->
      <g transform="translate(55.375 231.669643) scale(0.25 -0.25)">
       <use xlink:href="#DejaVuSans-36"/>
       <use xlink:href="#DejaVuSans-30" transform="translate(63.623047 0)"/>
       <use xlink:href="#DejaVuSans-30" transform="translate(127.246094 0)"/>
       <use xlink:href="#DejaVuSans-30" transform="translate(190.869141 0)"/>
      </g>
     </g>
    </g>
    <g id="ytick_8">
     <g id="line2d_20">
      <path d="M 126 136.080196 
L 907.2 136.080196 
" clip-path="url(#p3717e9535e)" style="fill: none; stroke: #b0b0b0; stroke-width: 0.8; stroke-linecap: square"/>
     </g>
     <g id="line2d_21">
      <g>
       <use xlink:href="#m60ebc3c368" x="126" y="136.080196" style="stroke: #000000; stroke-width: 0.8"/>
      </g>
     </g>
     <g id="text_14">
      <!-- 7000 -->
      <g transform="translate(55.375 145.578243) scale(0.25 -0.25)">
       <defs>
        <path id="DejaVuSans-37" d="M 525 4666 
L 3525 4666 
L 3525 4397 
L 1831 0 
L 1172 0 
L 2766 4134 
L 525 4134 
L 525 4666 
z
" transform="scale(0.015625)"/>
       </defs>
       <use xlink:href="#DejaVuSans-37"/>
       <use xlink:href="#DejaVuSans-30" transform="translate(63.623047 0)"/>
       <use xlink:href="#DejaVuSans-30" transform="translate(127.246094 0)"/>
       <use xlink:href="#DejaVuSans-30" transform="translate(190.869141 0)"/>
      </g>
     </g>
    </g>
    <g id="text_15">
     <!-- Execution time (ms) -->
     <g transform="translate(46.175781 562.282891) rotate(-90) scale(0.25 -0.25)">
      <defs>
       <path id="DejaVuSans-45" d="M 628 4666 
L 3578 4666 
L 3578 4134 
L 1259 4134 
L 1259 2753 
L 3481 2753 
L 3481 2222 
L 1259 2222 
L 1259 531 
L 3634 531 
L 3634 0 
L 628 0 
L 628 4666 
z
" transform="scale(0.015625)"/>
       <path id="DejaVuSans-78" d="M 3513 3500 
L 2247 1797 
L 3578 0 
L 2900 0 
L 1881 1375 
L 863 0 
L 184 0 
L 1544 1831 
L 300 3500 
L 978 3500 
L 1906 2253 
L 2834 3500 
L 3513 3500 
z
" transform="scale(0.015625)"/>
       <path id="DejaVuSans-63" d="M 3122 3366 
L 3122 2828 
Q 2878 2963 2633 3030 
Q 2388 3097 2138 3097 
Q 1578 3097 1268 2742 
Q 959 2388 959 1747 
Q 959 1106 1268 751 
Q 1578 397 2138 397 
Q 2388 397 2633 464 
Q 2878 531 3122 666 
L 3122 134 
Q 2881 22 2623 -34 
Q 2366 -91 2075 -91 
Q 1284 -91 818 406 
Q 353 903 353 1747 
Q 353 2603 823 3093 
Q 1294 3584 2113 3584 
Q 2378 3584 2631 3529 
Q 2884 3475 3122 3366 
z
" transform="scale(0.015625)"/>
       <path id="DejaVuSans-74" d="M 1172 4494 
L 1172 3500 
L 2356 3500 
L 2356 3053 
L 1172 3053 
L 1172 1153 
Q 1172 725 1289 603 
Q 1406 481 1766 481 
L 2356 481 
L 2356 0 
L 1766 0 
Q 1100 0 847 248 
Q 594 497 594 1153 
L 594 3053 
L 172 3053 
L 172 3500 
L 594 3500 
L 594 4494 
L 1172 4494 
z
" transform="scale(0.015625)"/>
       <path id="DejaVuSans-69" d="M 603 3500 
L 1178 3500 
L 1178 0 
L 603 0 
L 603 3500 
z
M 603 4863 
L 1178 4863 
L 1178 4134 
L 603 4134 
L 603 4863 
z
" transform="scale(0.015625)"/>
       <path id="DejaVuSans-6f" d="M 1959 3097 
Q 1497 3097 1228 2736 
Q 959 2375 959 1747 
Q 959 1119 1226 758 
Q 1494 397 1959 397 
Q 2419 397 2687 759 
Q 2956 1122 2956 1747 
Q 2956 2369 2687 2733 
Q 2419 3097 1959 3097 
z
M 1959 3584 
Q 2709 3584 3137 3096 
Q 3566 2609 3566 1747 
Q 3566 888 3137 398 
Q 2709 -91 1959 -91 
Q 1206 -91 779 398 
Q 353 888 353 1747 
Q 353 2609 779 3096 
Q 1206 3584 1959 3584 
z
" transform="scale(0.015625)"/>
       <path id="DejaVuSans-6e" d="M 3513 2113 
L 3513 0 
L 2938 0 
L 2938 2094 
Q 2938 2591 2744 2837 
Q 2550 3084 2163 3084 
Q 1697 3084 1428 2787 
Q 1159 2491 1159 1978 
L 1159 0 
L 581 0 
L 581 3500 
L 1159 3500 
L 1159 2956 
Q 1366 3272 1645 3428 
Q 1925 3584 2291 3584 
Q 2894 3584 3203 3211 
Q 3513 2838 3513 2113 
z
" transform="scale(0.015625)"/>
       <path id="DejaVuSans-20" transform="scale(0.015625)"/>
       <path id="DejaVuSans-6d" d="M 3328 2828 
Q 3544 3216 3844 3400 
Q 4144 3584 4550 3584 
Q 5097 3584 5394 3201 
Q 5691 2819 5691 2113 
L 5691 0 
L 5113 0 
L 5113 2094 
Q 5113 2597 4934 2840 
Q 4756 3084 4391 3084 
Q 3944 3084 3684 2787 
Q 3425 2491 3425 1978 
L 3425 0 
L 2847 0 
L 2847 2094 
Q 2847 2600 2669 2842 
Q 2491 3084 2119 3084 
Q 1678 3084 1418 2786 
Q 1159 2488 1159 1978 
L 1159 0 
L 581 0 
L 581 3500 
L 1159 3500 
L 1159 2956 
Q 1356 3278 1631 3431 
Q 1906 3584 2284 3584 
Q 2666 3584 2933 3390 
Q 3200 3197 3328 2828 
z
" transform="scale(0.015625)"/>
       <path id="DejaVuSans-28" d="M 1984 4856 
Q 1566 4138 1362 3434 
Q 1159 2731 1159 2009 
Q 1159 1288 1364 580 
Q 1569 -128 1984 -844 
L 1484 -844 
Q 1016 -109 783 600 
Q 550 1309 550 2009 
Q 550 2706 781 3412 
Q 1013 4119 1484 4856 
L 1984 4856 
z
" transform="scale(0.015625)"/>
       <path id="DejaVuSans-73" d="M 2834 3397 
L 2834 2853 
Q 2591 2978 2328 3040 
Q 2066 3103 1784 3103 
Q 1356 3103 1142 2972 
Q 928 2841 928 2578 
Q 928 2378 1081 2264 
Q 1234 2150 1697 2047 
L 1894 2003 
Q 2506 1872 2764 1633 
Q 3022 1394 3022 966 
Q 3022 478 2636 193 
Q 2250 -91 1575 -91 
Q 1294 -91 989 -36 
Q 684 19 347 128 
L 347 722 
Q 666 556 975 473 
Q 1284 391 1588 391 
Q 1994 391 2212 530 
Q 2431 669 2431 922 
Q 2431 1156 2273 1281 
Q 2116 1406 1581 1522 
L 1381 1569 
Q 847 1681 609 1914 
Q 372 2147 372 2553 
Q 372 3047 722 3315 
Q 1072 3584 1716 3584 
Q 2034 3584 2315 3537 
Q 2597 3491 2834 3397 
z
" transform="scale(0.015625)"/>
       <path id="DejaVuSans-29" d="M 513 4856 
L 1013 4856 
Q 1481 4119 1714 3412 
Q 1947 2706 1947 2009 
Q 1947 1309 1714 600 
Q 1481 -109 1013 -844 
L 513 -844 
Q 928 -128 1133 580 
Q 1338 1288 1338 2009 
Q 1338 2731 1133 3434 
Q 928 4138 513 4856 
z
" transform="scale(0.015625)"/>
      </defs>
      <use xlink:href="#DejaVuSans-45"/>
      <use xlink:href="#DejaVuSans-78" transform="translate(63.183594 0)"/>
      <use xlink:href="#DejaVuSans-65" transform="translate(119.238281 0)"/>
      <use xlink:href="#DejaVuSans-63" transform="translate(180.761719 0)"/>
      <use xlink:href="#DejaVuSans-75" transform="translate(235.742188 0)"/>
      <use xlink:href="#DejaVuSans-74" transform="translate(299.121094 0)"/>
      <use xlink:href="#DejaVuSans-69" transform="translate(338.330078 0)"/>
      <use xlink:href="#DejaVuSans-6f" transform="translate(366.113281 0)"/>
      <use xlink:href="#DejaVuSans-6e" transform="translate(427.294922 0)"/>
      <use xlink:href="#DejaVuSans-20" transform="translate(490.673828 0)"/>
      <use xlink:href="#DejaVuSans-74" transform="translate(522.460938 0)"/>
      <use xlink:href="#DejaVuSans-69" transform="translate(561.669922 0)"/>
      <use xlink:href="#DejaVuSans-6d" transform="translate(589.453125 0)"/>
      <use xlink:href="#DejaVuSans-65" transform="translate(686.865234 0)"/>
      <use xlink:href="#DejaVuSans-20" transform="translate(748.388672 0)"/>
      <use xlink:href="#DejaVuSans-28" transform="translate(780.175781 0)"/>
      <use xlink:href="#DejaVuSans-6d" transform="translate(819.189453 0)"/>
      <use xlink:href="#DejaVuSans-73" transform="translate(916.601562 0)"/>
      <use xlink:href="#DejaVuSans-29" transform="translate(968.701172 0)"/>
     </g>
    </g>
   </g>
   <g id="LineCollection_1">
    <path d="M 290.633058 653.178144 
L 355.195041 653.178144 
" clip-path="url(#p3717e9535e)" style="fill: none; stroke: #1a85ff; stroke-width: 1.5"/>
    <path d="M 452.038017 672.973719 
L 516.6 672.973719 
" clip-path="url(#p3717e9535e)" style="fill: none; stroke: #1a85ff; stroke-width: 1.5"/>
    <path d="M 774.847934 174.799684 
L 839.409917 174.799684 
" clip-path="url(#p3717e9535e)" style="fill: none; stroke: #1a85ff; stroke-width: 1.5"/>
   </g>
   <g id="LineCollection_2">
    <path d="M 290.633058 645.727278 
L 355.195041 645.727278 
" clip-path="url(#p3717e9535e)" style="fill: none; stroke: #1a85ff; stroke-width: 1.5"/>
    <path d="M 452.038017 668.761694 
L 516.6 668.761694 
" clip-path="url(#p3717e9535e)" style="fill: none; stroke: #1a85ff; stroke-width: 1.5"/>
    <path d="M 774.847934 133.92 
L 839.409917 133.92 
" clip-path="url(#p3717e9535e)" style="fill: none; stroke: #1a85ff; stroke-width: 1.5"/>
   </g>
   <g id="LineCollection_3">
    <path d="M 290.633058 658.222847 
L 355.195041 658.222847 
" clip-path="url(#p3717e9535e)" style="fill: none; stroke: #1a85ff; stroke-width: 1.5"/>
    <path d="M 452.038017 676.086212 
L 516.6 676.086212 
" clip-path="url(#p3717e9535e)" style="fill: none; stroke: #1a85ff; stroke-width: 1.5"/>
    <path d="M 774.847934 209.757404 
L 839.409917 209.757404 
" clip-path="url(#p3717e9535e)" style="fill: none; stroke: #1a85ff; stroke-width: 1.5"/>
   </g>
   <g id="LineCollection_4">
    <path d="M 322.91405 658.222847 
L 322.91405 645.727278 
" clip-path="url(#p3717e9535e)" style="fill: none; stroke: #1a85ff; stroke-width: 1.5"/>
    <path d="M 484.319008 676.086212 
L 484.319008 668.761694 
" clip-path="url(#p3717e9535e)" style="fill: none; stroke: #1a85ff; stroke-width: 1.5"/>
    <path d="M 807.128926 209.757404 
L 807.128926 133.92 
" clip-path="url(#p3717e9535e)" style="fill: none; stroke: #1a85ff; stroke-width: 1.5"/>
   </g>
   <g id="LineCollection_5">
    <path d="M 290.633058 652.506977 
L 355.195041 652.506977 
" clip-path="url(#p3717e9535e)" style="fill: none; stroke: #1a85ff; stroke-width: 1.5"/>
    <path d="M 452.038017 672.980356 
L 516.6 672.980356 
" clip-path="url(#p3717e9535e)" style="fill: none; stroke: #1a85ff; stroke-width: 1.5"/>
    <path d="M 774.847934 169.237316 
L 839.409917 169.237316 
" clip-path="url(#p3717e9535e)" style="fill: none; stroke: #1a85ff; stroke-width: 1.5"/>
   </g>
   <g id="LineCollection_6">
    <path d="M 290.633058 651.180742 
L 355.195041 651.180742 
" clip-path="url(#p3717e9535e)" style="fill: none; stroke: #d41159; stroke-width: 1.5"/>
    <path d="M 452.038017 672.070563 
L 516.6 672.070563 
" clip-path="url(#p3717e9535e)" style="fill: none; stroke: #d41159; stroke-width: 1.5"/>
    <path d="M 774.847934 208.522977 
L 839.409917 208.522977 
" clip-path="url(#p3717e9535e)" style="fill: none; stroke: #d41159; stroke-width: 1.5"/>
   </g>
   <g id="LineCollection_7">
    <path d="M 290.633058 644.9703 
L 355.195041 644.9703 
" clip-path="url(#p3717e9535e)" style="fill: none; stroke: #d41159; stroke-width: 1.5"/>
    <path d="M 452.038017 664.747633 
L 516.6 664.747633 
" clip-path="url(#p3717e9535e)" style="fill: none; stroke: #d41159; stroke-width: 1.5"/>
    <path d="M 774.847934 173.65095 
L 839.409917 173.65095 
" clip-path="url(#p3717e9535e)" style="fill: none; stroke: #d41159; stroke-width: 1.5"/>
   </g>
   <g id="LineCollection_8">
    <path d="M 290.633058 658.828938 
L 355.195041 658.828938 
" clip-path="url(#p3717e9535e)" style="fill: none; stroke: #d41159; stroke-width: 1.5"/>
    <path d="M 452.038017 676.140725 
L 516.6 676.140725 
" clip-path="url(#p3717e9535e)" style="fill: none; stroke: #d41159; stroke-width: 1.5"/>
    <path d="M 774.847934 249.82987 
L 839.409917 249.82987 
" clip-path="url(#p3717e9535e)" style="fill: none; stroke: #d41159; stroke-width: 1.5"/>
   </g>
   <g id="LineCollection_9">
    <path d="M 322.91405 658.828938 
L 322.91405 644.9703 
" clip-path="url(#p3717e9535e)" style="fill: none; stroke: #d41159; stroke-width: 1.5"/>
    <path d="M 484.319008 676.140725 
L 484.319008 664.747633 
" clip-path="url(#p3717e9535e)" style="fill: none; stroke: #d41159; stroke-width: 1.5"/>
    <path d="M 807.128926 249.82987 
L 807.128926 173.65095 
" clip-path="url(#p3717e9535e)" style="fill: none; stroke: #d41159; stroke-width: 1.5"/>
   </g>
   <g id="LineCollection_10">
    <path d="M 290.633058 650.223405 
L 355.195041 650.223405 
" clip-path="url(#p3717e9535e)" style="fill: none; stroke: #d41159; stroke-width: 1.5"/>
    <path d="M 452.038017 672.349084 
L 516.6 672.349084 
" clip-path="url(#p3717e9535e)" style="fill: none; stroke: #d41159; stroke-width: 1.5"/>
    <path d="M 774.847934 202.945642 
L 839.409917 202.945642 
" clip-path="url(#p3717e9535e)" style="fill: none; stroke: #d41159; stroke-width: 1.5"/>
   </g>
   <g id="LineCollection_11">
    <path d="M 290.633058 652.190992 
L 355.195041 652.190992 
" clip-path="url(#p3717e9535e)" style="fill: none; stroke: #004d40; stroke-width: 1.5"/>
    <path d="M 452.038017 671.497305 
L 516.6 671.497305 
" clip-path="url(#p3717e9535e)" style="fill: none; stroke: #004d40; stroke-width: 1.5"/>
    <path d="M 774.847934 223.687907 
L 839.409917 223.687907 
" clip-path="url(#p3717e9535e)" style="fill: none; stroke: #004d40; stroke-width: 1.5"/>
   </g>
   <g id="LineCollection_12">
    <path d="M 290.633058 643.196359 
L 355.195041 643.196359 
" clip-path="url(#p3717e9535e)" style="fill: none; stroke: #004d40; stroke-width: 1.5"/>
    <path d="M 452.038017 663.622626 
L 516.6 663.622626 
" clip-path="url(#p3717e9535e)" style="fill: none; stroke: #004d40; stroke-width: 1.5"/>
    <path d="M 774.847934 181.898112 
L 839.409917 181.898112 
" clip-path="url(#p3717e9535e)" style="fill: none; stroke: #004d40; stroke-width: 1.5"/>
   </g>
   <g id="LineCollection_13">
    <path d="M 290.633058 658.651033 
L 355.195041 658.651033 
" clip-path="url(#p3717e9535e)" style="fill: none; stroke: #004d40; stroke-width: 1.5"/>
    <path d="M 452.038017 676.029518 
L 516.6 676.029518 
" clip-path="url(#p3717e9535e)" style="fill: none; stroke: #004d40; stroke-width: 1.5"/>
    <path d="M 774.847934 250.439351 
L 839.409917 250.439351 
" clip-path="url(#p3717e9535e)" style="fill: none; stroke: #004d40; stroke-width: 1.5"/>
   </g>
   <g id="LineCollection_14">
    <path d="M 322.91405 658.651033 
L 322.91405 643.196359 
" clip-path="url(#p3717e9535e)" style="fill: none; stroke: #004d40; stroke-width: 1.5"/>
    <path d="M 484.319008 676.029518 
L 484.319008 663.622626 
" clip-path="url(#p3717e9535e)" style="fill: none; stroke: #004d40; stroke-width: 1.5"/>
    <path d="M 807.128926 250.439351 
L 807.128926 181.898112 
" clip-path="url(#p3717e9535e)" style="fill: none; stroke: #004d40; stroke-width: 1.5"/>
   </g>
   <g id="LineCollection_15">
    <path d="M 290.633058 650.740329 
L 355.195041 650.740329 
" clip-path="url(#p3717e9535e)" style="fill: none; stroke: #004d40; stroke-width: 1.5"/>
    <path d="M 452.038017 670.519477 
L 516.6 670.519477 
" clip-path="url(#p3717e9535e)" style="fill: none; stroke: #004d40; stroke-width: 1.5"/>
    <path d="M 774.847934 227.506958 
L 839.409917 227.506958 
" clip-path="url(#p3717e9535e)" style="fill: none; stroke: #004d40; stroke-width: 1.5"/>
   </g>
   <g id="patch_3">
    <path d="M 126 768.96 
L 126 103.68 
" style="fill: none; stroke: #000000; stroke-width: 0.8; stroke-linejoin: miter; stroke-linecap: square"/>
   </g>
   <g id="patch_4">
    <path d="M 907.2 768.96 
L 907.2 103.68 
" style="fill: none; stroke: #000000; stroke-width: 0.8; stroke-linejoin: miter; stroke-linecap: square"/>
   </g>
   <g id="patch_5">
    <path d="M 126 768.96 
L 907.2 768.96 
" style="fill: none; stroke: #000000; stroke-width: 0.8; stroke-linejoin: miter; stroke-linecap: square"/>
   </g>
   <g id="patch_6">
    <path d="M 126 103.68 
L 907.2 103.68 
" style="fill: none; stroke: #000000; stroke-width: 0.8; stroke-linejoin: miter; stroke-linecap: square"/>
   </g>
   <g id="legend_1">
    <g id="patch_7">
     <path d="M 138.6 223.7625 
L 364.545 223.7625 
Q 368.145 223.7625 368.145 220.1625 
L 368.145 116.28 
Q 368.145 112.68 364.545 112.68 
L 138.6 112.68 
Q 135 112.68 135 116.28 
L 135 220.1625 
Q 135 223.7625 138.6 223.7625 
z
" style="fill: #ffffff; opacity: 0.8; stroke: #cccccc; stroke-linejoin: miter"/>
    </g>
    <g id="patch_8">
     <path d="M 142.2 133.557187 
L 178.2 133.557187 
L 178.2 120.957187 
L 142.2 120.957187 
z
" style="fill: #1a85ff; opacity: 0.5; stroke: #1a85ff; stroke-linejoin: miter"/>
    </g>
    <g id="text_16">
     <!-- shape index -->
     <g transform="translate(192.6 133.557187) scale(0.18 -0.18)">
      <defs>
       <path id="DejaVuSans-68" d="M 3513 2113 
L 3513 0 
L 2938 0 
L 2938 2094 
Q 2938 2591 2744 2837 
Q 2550 3084 2163 3084 
Q 1697 3084 1428 2787 
Q 1159 2491 1159 1978 
L 1159 0 
L 581 0 
L 581 4863 
L 1159 4863 
L 1159 2956 
Q 1366 3272 1645 3428 
Q 1925 3584 2291 3584 
Q 2894 3584 3203 3211 
Q 3513 2838 3513 2113 
z
" transform="scale(0.015625)"/>
       <path id="DejaVuSans-61" d="M 2194 1759 
Q 1497 1759 1228 1600 
Q 959 1441 959 1056 
Q 959 750 1161 570 
Q 1363 391 1709 391 
Q 2188 391 2477 730 
Q 2766 1069 2766 1631 
L 2766 1759 
L 2194 1759 
z
M 3341 1997 
L 3341 0 
L 2766 0 
L 2766 531 
Q 2569 213 2275 61 
Q 1981 -91 1556 -91 
Q 1019 -91 701 211 
Q 384 513 384 1019 
Q 384 1609 779 1909 
Q 1175 2209 1959 2209 
L 2766 2209 
L 2766 2266 
Q 2766 2663 2505 2880 
Q 2244 3097 1772 3097 
Q 1472 3097 1187 3025 
Q 903 2953 641 2809 
L 641 3341 
Q 956 3463 1253 3523 
Q 1550 3584 1831 3584 
Q 2591 3584 2966 3190 
Q 3341 2797 3341 1997 
z
" transform="scale(0.015625)"/>
       <path id="DejaVuSans-70" d="M 1159 525 
L 1159 -1331 
L 581 -1331 
L 581 3500 
L 1159 3500 
L 1159 2969 
Q 1341 3281 1617 3432 
Q 1894 3584 2278 3584 
Q 2916 3584 3314 3078 
Q 3713 2572 3713 1747 
Q 3713 922 3314 415 
Q 2916 -91 2278 -91 
Q 1894 -91 1617 61 
Q 1341 213 1159 525 
z
M 3116 1747 
Q 3116 2381 2855 2742 
Q 2594 3103 2138 3103 
Q 1681 3103 1420 2742 
Q 1159 2381 1159 1747 
Q 1159 1113 1420 752 
Q 1681 391 2138 391 
Q 2594 391 2855 752 
Q 3116 1113 3116 1747 
z
" transform="scale(0.015625)"/>
       <path id="DejaVuSans-64" d="M 2906 2969 
L 2906 4863 
L 3481 4863 
L 3481 0 
L 2906 0 
L 2906 525 
Q 2725 213 2448 61 
Q 2172 -91 1784 -91 
Q 1150 -91 751 415 
Q 353 922 353 1747 
Q 353 2572 751 3078 
Q 1150 3584 1784 3584 
Q 2172 3584 2448 3432 
Q 2725 3281 2906 2969 
z
M 947 1747 
Q 947 1113 1208 752 
Q 1469 391 1925 391 
Q 2381 391 2643 752 
Q 2906 1113 2906 1747 
Q 2906 2381 2643 2742 
Q 2381 3103 1925 3103 
Q 1469 3103 1208 2742 
Q 947 2381 947 1747 
z
" transform="scale(0.015625)"/>
      </defs>
      <use xlink:href="#DejaVuSans-73"/>
      <use xlink:href="#DejaVuSans-68" transform="translate(52.099609 0)"/>
      <use xlink:href="#DejaVuSans-61" transform="translate(115.478516 0)"/>
      <use xlink:href="#DejaVuSans-70" transform="translate(176.757812 0)"/>
      <use xlink:href="#DejaVuSans-65" transform="translate(240.234375 0)"/>
      <use xlink:href="#DejaVuSans-20" transform="translate(301.757812 0)"/>
      <use xlink:href="#DejaVuSans-69" transform="translate(333.544922 0)"/>
      <use xlink:href="#DejaVuSans-6e" transform="translate(361.328125 0)"/>
      <use xlink:href="#DejaVuSans-64" transform="translate(424.707031 0)"/>
      <use xlink:href="#DejaVuSans-65" transform="translate(488.183594 0)"/>
      <use xlink:href="#DejaVuSans-78" transform="translate(547.957031 0)"/>
     </g>
    </g>
    <g id="patch_9">
     <path d="M 142.2 159.977812 
L 178.2 159.977812 
L 178.2 147.377812 
L 142.2 147.377812 
z
" style="fill: #d41159; opacity: 0.5; stroke: #d41159; stroke-linejoin: miter"/>
    </g>
    <g id="text_17">
     <!-- ldp -->
     <g transform="translate(192.6 159.977812) scale(0.18 -0.18)">
      <defs>
       <path id="DejaVuSans-6c" d="M 603 4863 
L 1178 4863 
L 1178 0 
L 603 0 
L 603 4863 
z
" transform="scale(0.015625)"/>
      </defs>
      <use xlink:href="#DejaVuSans-6c"/>
      <use xlink:href="#DejaVuSans-64" transform="translate(27.783203 0)"/>
      <use xlink:href="#DejaVuSans-70" transform="translate(91.259766 0)"/>
     </g>
    </g>
    <g id="patch_10">
     <path d="M 142.2 186.398437 
L 178.2 186.398437 
L 178.2 173.798437 
L 142.2 173.798437 
z
" style="fill: #004d40; opacity: 0.5; stroke: #004d40; stroke-linejoin: miter"/>
    </g>
    <g id="text_18">
     <!-- type index and ldp -->
     <g transform="translate(192.6 186.398437) scale(0.18 -0.18)">
      <use xlink:href="#DejaVuSans-74"/>
      <use xlink:href="#DejaVuSans-79" transform="translate(39.208984 0)"/>
      <use xlink:href="#DejaVuSans-70" transform="translate(98.388672 0)"/>
      <use xlink:href="#DejaVuSans-65" transform="translate(161.865234 0)"/>
      <use xlink:href="#DejaVuSans-20" transform="translate(223.388672 0)"/>
      <use xlink:href="#DejaVuSans-69" transform="translate(255.175781 0)"/>
      <use xlink:href="#DejaVuSans-6e" transform="translate(282.958984 0)"/>
      <use xlink:href="#DejaVuSans-64" transform="translate(346.337891 0)"/>
      <use xlink:href="#DejaVuSans-65" transform="translate(409.814453 0)"/>
      <use xlink:href="#DejaVuSans-78" transform="translate(469.587891 0)"/>
      <use xlink:href="#DejaVuSans-20" transform="translate(528.767578 0)"/>
      <use xlink:href="#DejaVuSans-61" transform="translate(560.554688 0)"/>
      <use xlink:href="#DejaVuSans-6e" transform="translate(621.833984 0)"/>
      <use xlink:href="#DejaVuSans-64" transform="translate(685.212891 0)"/>
      <use xlink:href="#DejaVuSans-20" transform="translate(748.689453 0)"/>
      <use xlink:href="#DejaVuSans-6c" transform="translate(780.476562 0)"/>
      <use xlink:href="#DejaVuSans-64" transform="translate(808.259766 0)"/>
      <use xlink:href="#DejaVuSans-70" transform="translate(871.736328 0)"/>
     </g>
    </g>
    <g id="line2d_22">
     <defs>
      <path id="m8d0d9e9113" d="M -2.5 5 
L 0 2.5 
L 2.5 5 
L 5 2.5 
L 2.5 0 
L 5 -2.5 
L 2.5 -5 
L 0 -2.5 
L -2.5 -5 
L -5 -2.5 
L -2.5 0 
L -5 2.5 
z
" style="stroke: #000000; stroke-linejoin: miter"/>
     </defs>
     <g>
      <use xlink:href="#m8d0d9e9113" x="160.2" y="206.519062" style="stroke: #000000; stroke-linejoin: miter"/>
     </g>
    </g>
    <g id="text_19">
     <!-- Timeout -->
     <g transform="translate(192.6 212.819062) scale(0.18 -0.18)">
      <defs>
       <path id="DejaVuSans-54" d="M -19 4666 
L 3928 4666 
L 3928 4134 
L 2272 4134 
L 2272 0 
L 1638 0 
L 1638 4134 
L -19 4134 
L -19 4666 
z
" transform="scale(0.015625)"/>
      </defs>
      <use xlink:href="#DejaVuSans-54"/>
      <use xlink:href="#DejaVuSans-69" transform="translate(57.958984 0)"/>
      <use xlink:href="#DejaVuSans-6d" transform="translate(85.742188 0)"/>
      <use xlink:href="#DejaVuSans-65" transform="translate(183.154297 0)"/>
      <use xlink:href="#DejaVuSans-6f" transform="translate(244.677734 0)"/>
      <use xlink:href="#DejaVuSans-75" transform="translate(305.859375 0)"/>
      <use xlink:href="#DejaVuSans-74" transform="translate(369.238281 0)"/>
     </g>
    </g>
   </g>
  </g>
 </g>
 <defs>
  <clipPath id="p3717e9535e">
   <rect x="126" y="103.68" width="781.2" height="665.28"/>
  </clipPath>
 </defs>
</svg>
