<?xml version="1.0" encoding="utf-8" standalone="no"?>
<!DOCTYPE svg PUBLIC "-//W3C//DTD SVG 1.1//EN"
  "http://www.w3.org/Graphics/SVG/1.1/DTD/svg11.dtd">
<svg xmlns:xlink="http://www.w3.org/1999/xlink" width="720pt" height="576pt" viewBox="0 0 720 576" xmlns="http://www.w3.org/2000/svg" version="1.1">
 <metadata>
  <rdf:RDF xmlns:dc="http://purl.org/dc/elements/1.1/" xmlns:cc="http://creativecommons.org/ns#" xmlns:rdf="http://www.w3.org/1999/02/22-rdf-syntax-ns#">
   <cc:Work>
    <dc:type rdf:resource="http://purl.org/dc/dcmitype/StillImage"/>
    <dc:date>2025-09-14T20:16:43.025148</dc:date>
    <dc:format>image/svg+xml</dc:format>
    <dc:creator>
     <cc:Agent>
      <dc:title>Matplotlib v3.10.3, https://matplotlib.org/</dc:title>
     </cc:Agent>
    </dc:creator>
   </cc:Work>
  </rdf:RDF>
 </metadata>
 <defs>
  <style type="text/css">*{stroke-linejoin: round; stroke-linecap: butt}</style>
 </defs>
 <g id="figure_1">
  <g id="patch_1">
   <path d="M 0 576 
L 720 576 
L 720 0 
L 0 0 
z
" style="fill: #ffffff"/>
  </g>
  <g id="axes_1">
   <g id="patch_2">
    <path d="M 90 512.64 
L 648 512.64 
L 648 69.12 
L 90 69.12 
z
" style="fill: #ffffff"/>
   </g>
   <g id="FillBetweenPolyCollection_1">
    <defs>
     <path id="m8a88399a88" d="M 259.760128 -138.079277 
L 201.545657 -138.079277 
L 199.580292 -138.168901 
L 197.657287 -138.258525 
L 195.798262 -138.348149 
L 194.024621 -138.437772 
L 192.357035 -138.527396 
L 190.814923 -138.61702 
L 189.415932 -138.706644 
L 188.175446 -138.796267 
L 187.10613 -138.885891 
L 186.217542 -138.975515 
L 185.515802 -139.065139 
L 185.003368 -139.154762 
L 184.67889 -139.244386 
L 184.53719 -139.33401 
L 184.569342 -139.423634 
L 184.762872 -139.513257 
L 185.102062 -139.602881 
L 185.568372 -139.692505 
L 186.140936 -139.782129 
L 186.797153 -139.871752 
L 187.513329 -139.961376 
L 188.265361 -140.051 
L 189.029442 -140.140624 
L 189.782747 -140.230247 
L 190.504108 -140.319871 
L 191.174617 -140.409495 
L 191.778164 -140.499119 
L 192.301878 -140.588742 
L 192.736462 -140.678366 
L 193.076401 -140.76799 
L 193.320049 -140.857614 
L 193.46958 -140.947237 
L 193.530812 -141.036861 
L 193.512917 -141.126485 
L 193.428015 -141.216109 
L 193.290679 -141.305732 
L 193.117369 -141.395356 
L 192.925812 -141.48498 
L 192.734364 -141.574604 
L 192.561356 -141.664227 
L 192.42448 -141.753851 
L 192.34021 -141.843475 
L 192.32329 -141.933099 
L 192.386314 -142.022722 
L 192.539394 -142.112346 
L 192.789941 -142.20197 
L 193.142556 -142.291594 
L 193.599026 -142.381217 
L 194.158428 -142.470841 
L 194.817326 -142.560465 
L 195.570046 -142.650089 
L 196.409015 -142.739712 
L 197.325145 -142.829336 
L 198.308235 -142.91896 
L 199.347386 -143.008584 
L 200.43139 -143.098207 
L 201.549098 -143.187831 
L 202.689733 -143.277455 
L 203.843154 -143.367079 
L 205.00005 -143.456702 
L 206.152074 -143.546326 
L 207.291909 -143.63595 
L 208.413272 -143.725574 
L 209.510872 -143.815197 
L 210.580318 -143.904821 
L 211.618004 -143.994445 
L 212.62097 -144.084069 
L 213.586761 -144.173692 
L 214.513295 -144.263316 
L 215.398742 -144.35294 
L 216.241435 -144.442564 
L 217.039807 -144.532187 
L 217.792362 -144.621811 
L 218.497683 -144.711435 
L 219.154468 -144.801059 
L 219.761597 -144.890682 
L 220.31821 -144.980306 
L 220.823812 -145.06993 
L 221.278363 -145.159554 
L 221.682382 -145.249177 
L 222.03702 -145.338801 
L 222.344123 -145.428425 
L 222.606268 -145.518049 
L 222.826758 -145.607672 
L 223.009597 -145.697296 
L 223.159425 -145.78692 
L 223.28142 -145.876544 
L 223.381177 -145.966167 
L 223.464563 -146.055791 
L 223.537553 -146.145415 
L 223.606066 -146.235039 
L 223.675788 -146.324662 
L 223.752011 -146.414286 
L 223.839484 -146.50391 
L 223.942284 -146.593534 
L 224.063709 -146.683157 
L 224.206207 -146.772781 
L 224.371336 -146.862405 
L 224.559751 -146.952029 
L 236.746034 -146.952029 
L 236.746034 -146.952029 
L 236.934449 -146.862405 
L 237.099578 -146.772781 
L 237.242076 -146.683157 
L 237.363501 -146.593534 
L 237.466301 -146.50391 
L 237.553774 -146.414286 
L 237.629998 -146.324662 
L 237.699719 -146.235039 
L 237.768232 -146.145415 
L 237.841222 -146.055791 
L 237.924608 -145.966167 
L 238.024365 -145.876544 
L 238.14636 -145.78692 
L 238.296188 -145.697296 
L 238.479027 -145.607672 
L 238.699517 -145.518049 
L 238.961662 -145.428425 
L 239.268765 -145.338801 
L 239.623403 -145.249177 
L 240.027422 -145.159554 
L 240.481974 -145.06993 
L 240.987575 -144.980306 
L 241.544188 -144.890682 
L 242.151317 -144.801059 
L 242.808102 -144.711435 
L 243.513423 -144.621811 
L 244.265978 -144.532187 
L 245.06435 -144.442564 
L 245.907043 -144.35294 
L 246.79249 -144.263316 
L 247.719024 -144.173692 
L 248.684815 -144.084069 
L 249.687781 -143.994445 
L 250.725467 -143.904821 
L 251.794913 -143.815197 
L 252.892513 -143.725574 
L 254.013876 -143.63595 
L 255.153711 -143.546326 
L 256.305735 -143.456702 
L 257.462631 -143.367079 
L 258.616052 -143.277455 
L 259.756687 -143.187831 
L 260.874395 -143.098207 
L 261.958399 -143.008584 
L 262.99755 -142.91896 
L 263.98064 -142.829336 
L 264.89677 -142.739712 
L 265.73574 -142.650089 
L 266.488459 -142.560465 
L 267.147357 -142.470841 
L 267.706759 -142.381217 
L 268.163229 -142.291594 
L 268.515844 -142.20197 
L 268.766391 -142.112346 
L 268.919471 -142.022722 
L 268.982495 -141.933099 
L 268.965575 -141.843475 
L 268.881305 -141.753851 
L 268.744429 -141.664227 
L 268.571421 -141.574604 
L 268.379973 -141.48498 
L 268.188416 -141.395356 
L 268.015106 -141.305732 
L 267.87777 -141.216109 
L 267.792868 -141.126485 
L 267.774973 -141.036861 
L 267.836206 -140.947237 
L 267.985736 -140.857614 
L 268.229384 -140.76799 
L 268.569323 -140.678366 
L 269.003907 -140.588742 
L 269.527622 -140.499119 
L 270.131168 -140.409495 
L 270.801677 -140.319871 
L 271.523038 -140.230247 
L 272.276343 -140.140624 
L 273.040424 -140.051 
L 273.792456 -139.961376 
L 274.508633 -139.871752 
L 275.164849 -139.782129 
L 275.737413 -139.692505 
L 276.203723 -139.602881 
L 276.542913 -139.513257 
L 276.736443 -139.423634 
L 276.768595 -139.33401 
L 276.626895 -139.244386 
L 276.302418 -139.154762 
L 275.789983 -139.065139 
L 275.088244 -138.975515 
L 274.199655 -138.885891 
L 273.13034 -138.796267 
L 271.889853 -138.706644 
L 270.490862 -138.61702 
L 268.94875 -138.527396 
L 267.281164 -138.437772 
L 265.507523 -138.348149 
L 263.648498 -138.258525 
L 261.725493 -138.168901 
L 259.760128 -138.079277 
z
" style="stroke: #1a85ff; stroke-opacity: 0.75"/>
    </defs>
    <g clip-path="url(#p7c29c872f6)">
     <use xlink:href="#m8a88399a88" x="0" y="576" style="fill: #1a85ff; fill-opacity: 0.75; stroke: #1a85ff; stroke-opacity: 0.75"/>
    </g>
   </g>
   <g id="FillBetweenPolyCollection_2">
    <defs>
     <path id="mef90c02070" d="M 370.793551 -126.419419 
L 321.090747 -126.419419 
L 319.6434 -126.473653 
L 318.245886 -126.527887 
L 316.913693 -126.582121 
L 315.661892 -126.636355 
L 314.50481 -126.690589 
L 313.455702 -126.744823 
L 312.526448 -126.799056 
L 311.727267 -126.85329 
L 311.066473 -126.907524 
L 310.550264 -126.961758 
L 310.182563 -127.015992 
L 309.964911 -127.070226 
L 309.896408 -127.12446 
L 309.973722 -127.178694 
L 310.191138 -127.232928 
L 310.540673 -127.287161 
L 311.012228 -127.341395 
L 311.59379 -127.395629 
L 312.271667 -127.449863 
L 313.030753 -127.504097 
L 313.854811 -127.558331 
L 314.726777 -127.612565 
L 315.629062 -127.666799 
L 316.543854 -127.721033 
L 317.453415 -127.775266 
L 318.340361 -127.8295 
L 319.187927 -127.883734 
L 319.9802 -127.937968 
L 320.702343 -127.992202 
L 321.340775 -128.046436 
L 321.883337 -128.10067 
L 322.319422 -128.154904 
L 322.640085 -128.209137 
L 322.838125 -128.263371 
L 322.908144 -128.317605 
L 322.846583 -128.371839 
L 322.651745 -128.426073 
L 322.323791 -128.480307 
L 321.864729 -128.534541 
L 321.278375 -128.588775 
L 320.570314 -128.643009 
L 319.747832 -128.697242 
L 318.81984 -128.751476 
L 317.796781 -128.80571 
L 316.690512 -128.859944 
L 315.514183 -128.914178 
L 314.282077 -128.968412 
L 313.009449 -129.022646 
L 311.712331 -129.07688 
L 310.407329 -129.131114 
L 309.111393 -129.185347 
L 307.84158 -129.239581 
L 306.614802 -129.293815 
L 305.447565 -129.348049 
L 304.35571 -129.402283 
L 303.354155 -129.456517 
L 302.456646 -129.510751 
L 301.67553 -129.564985 
L 301.021546 -129.619219 
L 300.503645 -129.673452 
L 300.128849 -129.727686 
L 299.902151 -129.78192 
L 299.826446 -129.836154 
L 299.902527 -129.890388 
L 300.129108 -129.944622 
L 300.502906 -129.998856 
L 301.018759 -130.05309 
L 301.669784 -130.107324 
L 302.447574 -130.161557 
L 303.342412 -130.215791 
L 304.343521 -130.270025 
L 305.439311 -130.324259 
L 306.617646 -130.378493 
L 307.866095 -130.432727 
L 309.172184 -130.486961 
L 310.523624 -130.541195 
L 311.908525 -130.595429 
L 313.315573 -130.649662 
L 314.734185 -130.703896 
L 316.154626 -130.75813 
L 317.568101 -130.812364 
L 318.966804 -130.866598 
L 320.343942 -130.920832 
L 321.693735 -130.975066 
L 323.011376 -131.0293 
L 324.29299 -131.083534 
L 325.535556 -131.137767 
L 326.736833 -131.192001 
L 327.895266 -131.246235 
L 329.009897 -131.300469 
L 330.080266 -131.354703 
L 331.106324 -131.408937 
L 332.088351 -131.463171 
L 333.02687 -131.517405 
L 333.922587 -131.571639 
L 334.77633 -131.625872 
L 335.589003 -131.680106 
L 336.361547 -131.73434 
L 337.094914 -131.788574 
L 354.789383 -131.788574 
L 354.789383 -131.788574 
L 355.52275 -131.73434 
L 356.295294 -131.680106 
L 357.107967 -131.625872 
L 357.961711 -131.571639 
L 358.857428 -131.517405 
L 359.795947 -131.463171 
L 360.777973 -131.408937 
L 361.804032 -131.354703 
L 362.874401 -131.300469 
L 363.989031 -131.246235 
L 365.147464 -131.192001 
L 366.348741 -131.137767 
L 367.591308 -131.083534 
L 368.872921 -131.0293 
L 370.190563 -130.975066 
L 371.540355 -130.920832 
L 372.917494 -130.866598 
L 374.316197 -130.812364 
L 375.729671 -130.75813 
L 377.150113 -130.703896 
L 378.568724 -130.649662 
L 379.975772 -130.595429 
L 381.360673 -130.541195 
L 382.712114 -130.486961 
L 384.018202 -130.432727 
L 385.266651 -130.378493 
L 386.444986 -130.324259 
L 387.540777 -130.270025 
L 388.541886 -130.215791 
L 389.436724 -130.161557 
L 390.214513 -130.107324 
L 390.865538 -130.05309 
L 391.381391 -129.998856 
L 391.755189 -129.944622 
L 391.98177 -129.890388 
L 392.057851 -129.836154 
L 391.982147 -129.78192 
L 391.755448 -129.727686 
L 391.380653 -129.673452 
L 390.862752 -129.619219 
L 390.208767 -129.564985 
L 389.427651 -129.510751 
L 388.530143 -129.456517 
L 387.528587 -129.402283 
L 386.436732 -129.348049 
L 385.269495 -129.293815 
L 384.042718 -129.239581 
L 382.772905 -129.185347 
L 381.476969 -129.131114 
L 380.171967 -129.07688 
L 378.874849 -129.022646 
L 377.60222 -128.968412 
L 376.370115 -128.914178 
L 375.193785 -128.859944 
L 374.087517 -128.80571 
L 373.064457 -128.751476 
L 372.136466 -128.697242 
L 371.313984 -128.643009 
L 370.605923 -128.588775 
L 370.019569 -128.534541 
L 369.560506 -128.480307 
L 369.232553 -128.426073 
L 369.037715 -128.371839 
L 368.976154 -128.317605 
L 369.046172 -128.263371 
L 369.244212 -128.209137 
L 369.564876 -128.154904 
L 370.00096 -128.10067 
L 370.543522 -128.046436 
L 371.181954 -127.992202 
L 371.904097 -127.937968 
L 372.696371 -127.883734 
L 373.543936 -127.8295 
L 374.430883 -127.775266 
L 375.340444 -127.721033 
L 376.255236 -127.666799 
L 377.15752 -127.612565 
L 378.029487 -127.558331 
L 378.853545 -127.504097 
L 379.61263 -127.449863 
L 380.290507 -127.395629 
L 380.872069 -127.341395 
L 381.343625 -127.287161 
L 381.69316 -127.232928 
L 381.910576 -127.178694 
L 381.98789 -127.12446 
L 381.919387 -127.070226 
L 381.701734 -127.015992 
L 381.334034 -126.961758 
L 380.817825 -126.907524 
L 380.157031 -126.85329 
L 379.35785 -126.799056 
L 378.428595 -126.744823 
L 377.379487 -126.690589 
L 376.222405 -126.636355 
L 374.970605 -126.582121 
L 373.638412 -126.527887 
L 372.240897 -126.473653 
L 370.793551 -126.419419 
z
" style="stroke: #1a85ff; stroke-opacity: 0.75"/>
    </defs>
    <g clip-path="url(#p7c29c872f6)">
     <use xlink:href="#mef90c02070" x="0" y="576" style="fill: #1a85ff; fill-opacity: 0.75; stroke: #1a85ff; stroke-opacity: 0.75"/>
    </g>
   </g>
   <g id="FillBetweenPolyCollection_3">
    <defs>
     <path id="m29687cb5fd" d="M 597.771503 -411.034035 
L 555.269819 -411.034035 
L 553.84896 -411.79854 
L 552.418525 -412.563045 
L 550.984761 -413.327549 
L 549.553926 -414.092054 
L 548.132277 -414.856559 
L 546.726069 -415.621063 
L 545.341553 -416.385568 
L 543.984975 -417.150073 
L 542.662567 -417.914577 
L 541.380532 -418.679082 
L 540.145008 -419.443587 
L 538.962026 -420.208092 
L 537.837448 -420.972596 
L 536.776895 -421.737101 
L 535.785661 -422.501606 
L 534.868624 -423.26611 
L 534.030156 -424.030615 
L 533.274039 -424.79512 
L 532.603384 -425.559624 
L 532.020578 -426.324129 
L 531.527239 -427.088634 
L 531.124199 -427.853138 
L 530.811505 -428.617643 
L 530.588451 -429.382148 
L 530.453622 -430.146653 
L 530.404959 -430.911157 
L 530.439833 -431.675662 
L 530.555133 -432.440167 
L 530.747352 -433.204671 
L 531.012666 -433.969176 
L 531.347018 -434.733681 
L 531.746176 -435.498185 
L 532.205793 -436.26269 
L 532.721446 -437.027195 
L 533.288663 -437.7917 
L 533.902939 -438.556204 
L 534.559749 -439.320709 
L 535.254546 -440.085214 
L 535.982768 -440.849718 
L 536.739837 -441.614223 
L 537.52117 -442.378728 
L 538.322193 -443.143232 
L 539.138367 -443.907737 
L 539.965217 -444.672242 
L 540.798378 -445.436746 
L 541.63364 -446.201251 
L 542.466999 -446.965756 
L 543.294714 -447.730261 
L 544.113355 -448.494765 
L 544.91985 -449.25927 
L 545.71152 -450.023775 
L 546.486106 -450.788279 
L 547.241779 -451.552784 
L 547.977137 -452.317289 
L 548.691191 -453.081793 
L 549.383332 -453.846298 
L 550.053291 -454.610803 
L 550.701096 -455.375308 
L 551.327013 -456.139812 
L 551.931494 -456.904317 
L 552.515133 -457.668822 
L 553.078614 -458.433326 
L 553.622682 -459.197831 
L 554.14812 -459.962336 
L 554.65573 -460.72684 
L 555.146338 -461.491345 
L 555.620801 -462.25585 
L 556.080019 -463.020354 
L 556.524959 -463.784859 
L 556.956677 -464.549364 
L 557.376335 -465.313869 
L 557.785217 -466.078373 
L 558.184733 -466.842878 
L 558.576421 -467.607383 
L 558.96193 -468.371887 
L 559.342998 -469.136392 
L 559.721418 -469.900897 
L 560.098998 -470.665401 
L 560.477519 -471.429906 
L 560.858681 -472.194411 
L 561.24406 -472.958915 
L 561.635064 -473.72342 
L 562.032896 -474.487925 
L 562.438523 -475.25243 
L 562.852653 -476.016934 
L 563.275726 -476.781439 
L 563.707913 -477.545944 
L 564.149113 -478.310448 
L 564.598974 -479.074953 
L 565.056906 -479.839458 
L 565.522099 -480.603962 
L 565.993551 -481.368467 
L 566.470087 -482.132972 
L 566.950383 -482.897477 
L 567.432987 -483.661981 
L 567.916339 -484.426486 
L 568.398792 -485.190991 
L 568.878629 -485.955495 
L 569.354082 -486.72 
L 583.68724 -486.72 
L 583.68724 -486.72 
L 584.162694 -485.955495 
L 584.642531 -485.190991 
L 585.124983 -484.426486 
L 585.608335 -483.661981 
L 586.090939 -482.897477 
L 586.571235 -482.132972 
L 587.047771 -481.368467 
L 587.519223 -480.603962 
L 587.984417 -479.839458 
L 588.442348 -479.074953 
L 588.892209 -478.310448 
L 589.33341 -477.545944 
L 589.765596 -476.781439 
L 590.18867 -476.016934 
L 590.6028 -475.25243 
L 591.008426 -474.487925 
L 591.406258 -473.72342 
L 591.797263 -472.958915 
L 592.182641 -472.194411 
L 592.563803 -471.429906 
L 592.942324 -470.665401 
L 593.319905 -469.900897 
L 593.698325 -469.136392 
L 594.079392 -468.371887 
L 594.464901 -467.607383 
L 594.856589 -466.842878 
L 595.256106 -466.078373 
L 595.664987 -465.313869 
L 596.084645 -464.549364 
L 596.516363 -463.784859 
L 596.961304 -463.020354 
L 597.420521 -462.25585 
L 597.894984 -461.491345 
L 598.385592 -460.72684 
L 598.893202 -459.962336 
L 599.41864 -459.197831 
L 599.962709 -458.433326 
L 600.52619 -457.668822 
L 601.109828 -456.904317 
L 601.71431 -456.139812 
L 602.340226 -455.375308 
L 602.988031 -454.610803 
L 603.657991 -453.846298 
L 604.350131 -453.081793 
L 605.064185 -452.317289 
L 605.799543 -451.552784 
L 606.555216 -450.788279 
L 607.329802 -450.023775 
L 608.121472 -449.25927 
L 608.927967 -448.494765 
L 609.746608 -447.730261 
L 610.574324 -446.965756 
L 611.407683 -446.201251 
L 612.242944 -445.436746 
L 613.076105 -444.672242 
L 613.902956 -443.907737 
L 614.719129 -443.143232 
L 615.520152 -442.378728 
L 616.301485 -441.614223 
L 617.058554 -440.849718 
L 617.786776 -440.085214 
L 618.481574 -439.320709 
L 619.138383 -438.556204 
L 619.75266 -437.7917 
L 620.319876 -437.027195 
L 620.835529 -436.26269 
L 621.295146 -435.498185 
L 621.694305 -434.733681 
L 622.028656 -433.969176 
L 622.293971 -433.204671 
L 622.486189 -432.440167 
L 622.60149 -431.675662 
L 622.636364 -430.911157 
L 622.5877 -430.146653 
L 622.452871 -429.382148 
L 622.229817 -428.617643 
L 621.917124 -427.853138 
L 621.514083 -427.088634 
L 621.020744 -426.324129 
L 620.437938 -425.559624 
L 619.767284 -424.79512 
L 619.011166 -424.030615 
L 618.172699 -423.26611 
L 617.255662 -422.501606 
L 616.264427 -421.737101 
L 615.203874 -420.972596 
L 614.079296 -420.208092 
L 612.896314 -419.443587 
L 611.66079 -418.679082 
L 610.378755 -417.914577 
L 609.056348 -417.150073 
L 607.69977 -416.385568 
L 606.315254 -415.621063 
L 604.909046 -414.856559 
L 603.487397 -414.092054 
L 602.056561 -413.327549 
L 600.622797 -412.563045 
L 599.192362 -411.79854 
L 597.771503 -411.034035 
z
" style="stroke: #1a85ff; stroke-opacity: 0.75"/>
    </defs>
    <g clip-path="url(#p7c29c872f6)">
     <use xlink:href="#m29687cb5fd" x="0" y="576" style="fill: #1a85ff; fill-opacity: 0.75; stroke: #1a85ff; stroke-opacity: 0.75"/>
    </g>
   </g>
   <g id="PathCollection_1">
    <defs>
     <path id="mcbe508b972" d="M -3.061862 6.123724 
L 0 3.061862 
L 3.061862 6.123724 
L 6.123724 3.061862 
L 3.061862 0 
L 6.123724 -3.061862 
L 3.061862 -6.123724 
L 0 -3.061862 
L -3.061862 -6.123724 
L -6.123724 -3.061862 
L -3.061862 0 
L -6.123724 3.061862 
z
" style="stroke: #000000; stroke-opacity: 0.8; stroke-width: 2"/>
    </defs>
    <g clip-path="url(#p7c29c872f6)">
     <use xlink:href="#mcbe508b972" x="115.363636" y="492.48" style="fill: #1a85ff; fill-opacity: 0.8; stroke: #000000; stroke-opacity: 0.8; stroke-width: 2"/>
    </g>
   </g>
   <g id="PathCollection_2">
    <g clip-path="url(#p7c29c872f6)">
     <use xlink:href="#mcbe508b972" x="461.231405" y="492.48" style="fill: #1a85ff; fill-opacity: 0.8; stroke: #000000; stroke-opacity: 0.8; stroke-width: 2"/>
    </g>
   </g>
   <g id="FillBetweenPolyCollection_4">
    <defs>
     <path id="mf62c3eab09" d="M 258.042685 -138.091765 
L 203.2631 -138.091765 
L 202.358241 -138.200661 
L 201.57252 -138.309558 
L 200.915572 -138.418454 
L 200.394861 -138.527351 
L 200.015463 -138.636247 
L 199.779904 -138.745144 
L 199.688063 -138.85404 
L 199.737159 -138.962937 
L 199.9218 -139.071833 
L 200.234109 -139.180729 
L 200.663915 -139.289626 
L 201.199002 -139.398522 
L 201.825411 -139.507419 
L 202.527771 -139.616315 
L 203.289666 -139.725212 
L 204.094005 -139.834108 
L 204.923396 -139.943004 
L 205.760504 -140.051901 
L 206.588384 -140.160797 
L 207.390779 -140.269694 
L 208.152379 -140.37859 
L 208.859028 -140.487487 
L 209.497885 -140.596383 
L 210.057537 -140.70528 
L 210.528064 -140.814176 
L 210.901055 -140.923072 
L 211.169604 -141.031969 
L 211.32826 -141.140865 
L 211.372973 -141.249762 
L 211.301017 -141.358658 
L 211.110917 -141.467555 
L 210.802376 -141.576451 
L 210.376218 -141.685348 
L 209.834341 -141.794244 
L 209.179691 -141.90314 
L 208.416248 -142.012037 
L 207.549035 -142.120933 
L 206.584139 -142.22983 
L 205.528733 -142.338726 
L 204.391107 -142.447623 
L 203.18069 -142.556519 
L 201.908057 -142.665415 
L 200.584915 -142.774312 
L 199.22407 -142.883208 
L 197.839343 -142.992105 
L 196.445469 -143.101001 
L 195.057943 -143.209898 
L 193.69283 -143.318794 
L 192.366543 -143.427691 
L 191.095585 -143.536587 
L 189.896265 -143.645483 
L 188.784395 -143.75438 
L 187.77499 -143.863276 
L 186.881955 -143.972173 
L 186.117796 -144.081069 
L 185.493354 -144.189966 
L 185.017574 -144.298862 
L 184.69731 -144.407759 
L 184.53719 -144.516655 
L 184.539532 -144.625551 
L 184.704315 -144.734448 
L 185.029214 -144.843344 
L 185.509688 -144.952241 
L 186.139123 -145.061137 
L 186.909022 -145.170034 
L 187.809235 -145.27893 
L 188.828215 -145.387826 
L 189.953305 -145.496723 
L 191.17103 -145.605619 
L 192.46739 -145.714516 
L 193.828156 -145.823412 
L 195.239141 -145.932309 
L 196.686452 -146.041205 
L 198.156723 -146.150102 
L 199.637307 -146.258998 
L 201.116438 -146.367894 
L 202.583364 -146.476791 
L 204.028436 -146.585687 
L 205.443172 -146.694584 
L 206.820289 -146.80348 
L 208.153703 -146.912377 
L 209.43851 -147.021273 
L 210.670944 -147.13017 
L 211.848315 -147.239066 
L 212.968938 -147.347962 
L 214.03205 -147.456859 
L 215.037715 -147.565755 
L 215.986727 -147.674652 
L 216.880513 -147.783548 
L 217.72103 -147.892445 
L 218.510664 -148.001341 
L 219.252131 -148.110237 
L 219.948385 -148.219134 
L 220.602524 -148.32803 
L 221.217709 -148.436927 
L 221.797084 -148.545823 
L 222.343708 -148.65472 
L 222.860494 -148.763616 
L 223.35016 -148.872513 
L 237.955625 -148.872513 
L 237.955625 -148.872513 
L 238.445291 -148.763616 
L 238.962077 -148.65472 
L 239.508701 -148.545823 
L 240.088076 -148.436927 
L 240.703261 -148.32803 
L 241.3574 -148.219134 
L 242.053654 -148.110237 
L 242.795121 -148.001341 
L 243.584755 -147.892445 
L 244.425272 -147.783548 
L 245.319058 -147.674652 
L 246.26807 -147.565755 
L 247.273735 -147.456859 
L 248.336847 -147.347962 
L 249.457471 -147.239066 
L 250.634842 -147.13017 
L 251.867275 -147.021273 
L 253.152082 -146.912377 
L 254.485496 -146.80348 
L 255.862613 -146.694584 
L 257.277349 -146.585687 
L 258.722421 -146.476791 
L 260.189347 -146.367894 
L 261.668479 -146.258998 
L 263.149062 -146.150102 
L 264.619333 -146.041205 
L 266.066645 -145.932309 
L 267.477629 -145.823412 
L 268.838395 -145.714516 
L 270.134755 -145.605619 
L 271.35248 -145.496723 
L 272.47757 -145.387826 
L 273.49655 -145.27893 
L 274.396763 -145.170034 
L 275.166662 -145.061137 
L 275.796097 -144.952241 
L 276.276571 -144.843344 
L 276.60147 -144.734448 
L 276.766253 -144.625551 
L 276.768595 -144.516655 
L 276.608475 -144.407759 
L 276.288211 -144.298862 
L 275.812431 -144.189966 
L 275.187989 -144.081069 
L 274.42383 -143.972173 
L 273.530795 -143.863276 
L 272.52139 -143.75438 
L 271.409521 -143.645483 
L 270.2102 -143.536587 
L 268.939242 -143.427691 
L 267.612955 -143.318794 
L 266.247842 -143.209898 
L 264.860316 -143.101001 
L 263.466442 -142.992105 
L 262.081715 -142.883208 
L 260.72087 -142.774312 
L 259.397729 -142.665415 
L 258.125095 -142.556519 
L 256.914678 -142.447623 
L 255.777052 -142.338726 
L 254.721646 -142.22983 
L 253.75675 -142.120933 
L 252.889538 -142.012037 
L 252.126094 -141.90314 
L 251.471444 -141.794244 
L 250.929567 -141.685348 
L 250.503409 -141.576451 
L 250.194868 -141.467555 
L 250.004768 -141.358658 
L 249.932812 -141.249762 
L 249.977525 -141.140865 
L 250.136182 -141.031969 
L 250.40473 -140.923072 
L 250.777721 -140.814176 
L 251.248248 -140.70528 
L 251.8079 -140.596383 
L 252.446758 -140.487487 
L 253.153406 -140.37859 
L 253.915006 -140.269694 
L 254.717401 -140.160797 
L 255.545281 -140.051901 
L 256.382389 -139.943004 
L 257.21178 -139.834108 
L 258.016119 -139.725212 
L 258.778014 -139.616315 
L 259.480374 -139.507419 
L 260.106783 -139.398522 
L 260.641871 -139.289626 
L 261.071676 -139.180729 
L 261.383985 -139.071833 
L 261.568626 -138.962937 
L 261.617722 -138.85404 
L 261.525881 -138.745144 
L 261.290322 -138.636247 
L 260.910924 -138.527351 
L 260.390213 -138.418454 
L 259.733265 -138.309558 
L 258.947544 -138.200661 
L 258.042685 -138.091765 
z
" style="stroke: #d41159; stroke-opacity: 0.75"/>
    </defs>
    <g clip-path="url(#p7c29c872f6)">
     <use xlink:href="#mf62c3eab09" x="0" y="576" style="fill: #d41159; fill-opacity: 0.75; stroke: #d41159; stroke-opacity: 0.75"/>
    </g>
   </g>
   <g id="FillBetweenPolyCollection_5">
    <defs>
     <path id="me78cd56178" d="M 370.909444 -125.797707 
L 320.974854 -125.797707 
L 319.644362 -125.868761 
L 318.378995 -125.939814 
L 317.193035 -126.010868 
L 316.09982 -126.081922 
L 315.111417 -126.152976 
L 314.238318 -126.22403 
L 313.489175 -126.295084 
L 312.870576 -126.366137 
L 312.386881 -126.437191 
L 312.040113 -126.508245 
L 311.829913 -126.579299 
L 311.753559 -126.650353 
L 311.806047 -126.721407 
L 311.980232 -126.79246 
L 312.267018 -126.863514 
L 312.655595 -126.934568 
L 313.133711 -127.005622 
L 313.687968 -127.076676 
L 314.304132 -127.14773 
L 314.967446 -127.218783 
L 315.662937 -127.289837 
L 316.375707 -127.360891 
L 317.0912 -127.431945 
L 317.795436 -127.502999 
L 318.475219 -127.574053 
L 319.118299 -127.645106 
L 319.713498 -127.71616 
L 320.250804 -127.787214 
L 320.721425 -127.858268 
L 321.117811 -127.929322 
L 321.433655 -128.000376 
L 321.663863 -128.07143 
L 321.804512 -128.142483 
L 321.852799 -128.213537 
L 321.806976 -128.284591 
L 321.666287 -128.355645 
L 321.430905 -128.426699 
L 321.101876 -128.497753 
L 320.681068 -128.568806 
L 320.171127 -128.63986 
L 319.575449 -128.710914 
L 318.898155 -128.781968 
L 318.144076 -128.853022 
L 317.318749 -128.924076 
L 316.428412 -128.995129 
L 315.480012 -129.066183 
L 314.481199 -129.137237 
L 313.440329 -129.208291 
L 312.366454 -129.279345 
L 311.269303 -129.350399 
L 310.159251 -129.421452 
L 309.047272 -129.492506 
L 307.944869 -129.56356 
L 306.863991 -129.634614 
L 305.816919 -129.705668 
L 304.816137 -129.776722 
L 303.874176 -129.847776 
L 303.003444 -129.918829 
L 302.216033 -129.989883 
L 301.523515 -130.060937 
L 300.936732 -130.131991 
L 300.465582 -130.203045 
L 300.11881 -130.274099 
L 299.90381 -130.345152 
L 299.826446 -130.416206 
L 299.890901 -130.48726 
L 300.099554 -130.558314 
L 300.452899 -130.629368 
L 300.949503 -130.700422 
L 301.586013 -130.771475 
L 302.357207 -130.842529 
L 303.256091 -130.913583 
L 304.274045 -130.984637 
L 305.401002 -131.055691 
L 306.625666 -131.126745 
L 307.935761 -131.197798 
L 309.318293 -131.268852 
L 310.759828 -131.339906 
L 312.246769 -131.41096 
L 313.765632 -131.482014 
L 315.303299 -131.553068 
L 316.847257 -131.624122 
L 318.385799 -131.695175 
L 319.908197 -131.766229 
L 321.404837 -131.837283 
L 322.867307 -131.908337 
L 324.288459 -131.979391 
L 325.662416 -132.050445 
L 326.984555 -132.121498 
L 328.251454 -132.192552 
L 329.460813 -132.263606 
L 330.611347 -132.33466 
L 331.702674 -132.405714 
L 332.735184 -132.476768 
L 333.709907 -132.547821 
L 334.628383 -132.618875 
L 335.492535 -132.689929 
L 336.30455 -132.760983 
L 337.06678 -132.832037 
L 354.817517 -132.832037 
L 354.817517 -132.832037 
L 355.579747 -132.760983 
L 356.391762 -132.689929 
L 357.255914 -132.618875 
L 358.17439 -132.547821 
L 359.149114 -132.476768 
L 360.181624 -132.405714 
L 361.272951 -132.33466 
L 362.423485 -132.263606 
L 363.632843 -132.192552 
L 364.899743 -132.121498 
L 366.221882 -132.050445 
L 367.595838 -131.979391 
L 369.01699 -131.908337 
L 370.479461 -131.837283 
L 371.9761 -131.766229 
L 373.498499 -131.695175 
L 375.037041 -131.624122 
L 376.580999 -131.553068 
L 378.118666 -131.482014 
L 379.637529 -131.41096 
L 381.12447 -131.339906 
L 382.566004 -131.268852 
L 383.948536 -131.197798 
L 385.258631 -131.126745 
L 386.483296 -131.055691 
L 387.610252 -130.984637 
L 388.628206 -130.913583 
L 389.527091 -130.842529 
L 390.298285 -130.771475 
L 390.934795 -130.700422 
L 391.431398 -130.629368 
L 391.784743 -130.558314 
L 391.993396 -130.48726 
L 392.057851 -130.416206 
L 391.980488 -130.345152 
L 391.765488 -130.274099 
L 391.418716 -130.203045 
L 390.947566 -130.131991 
L 390.360783 -130.060937 
L 389.668265 -129.989883 
L 388.880853 -129.918829 
L 388.010122 -129.847776 
L 387.068161 -129.776722 
L 386.067378 -129.705668 
L 385.020306 -129.634614 
L 383.939428 -129.56356 
L 382.837025 -129.492506 
L 381.725046 -129.421452 
L 380.614994 -129.350399 
L 379.517843 -129.279345 
L 378.443968 -129.208291 
L 377.403098 -129.137237 
L 376.404285 -129.066183 
L 375.455885 -128.995129 
L 374.565549 -128.924076 
L 373.740221 -128.853022 
L 372.986142 -128.781968 
L 372.308848 -128.710914 
L 371.713171 -128.63986 
L 371.20323 -128.568806 
L 370.782421 -128.497753 
L 370.453392 -128.426699 
L 370.21801 -128.355645 
L 370.077321 -128.284591 
L 370.031498 -128.213537 
L 370.079786 -128.142483 
L 370.220435 -128.07143 
L 370.450642 -128.000376 
L 370.766486 -127.929322 
L 371.162873 -127.858268 
L 371.633494 -127.787214 
L 372.1708 -127.71616 
L 372.765999 -127.645106 
L 373.409078 -127.574053 
L 374.088862 -127.502999 
L 374.793098 -127.431945 
L 375.50859 -127.360891 
L 376.22136 -127.289837 
L 376.916852 -127.218783 
L 377.580166 -127.14773 
L 378.19633 -127.076676 
L 378.750587 -127.005622 
L 379.228703 -126.934568 
L 379.61728 -126.863514 
L 379.904065 -126.79246 
L 380.07825 -126.721407 
L 380.130738 -126.650353 
L 380.054384 -126.579299 
L 379.844184 -126.508245 
L 379.497416 -126.437191 
L 379.013721 -126.366137 
L 378.395122 -126.295084 
L 377.645979 -126.22403 
L 376.772881 -126.152976 
L 375.784478 -126.081922 
L 374.691263 -126.010868 
L 373.505303 -125.939814 
L 372.239936 -125.868761 
L 370.909444 -125.797707 
z
" style="stroke: #d41159; stroke-opacity: 0.75"/>
    </defs>
    <g clip-path="url(#p7c29c872f6)">
     <use xlink:href="#me78cd56178" x="0" y="576" style="fill: #d41159; fill-opacity: 0.75; stroke: #d41159; stroke-opacity: 0.75"/>
    </g>
   </g>
   <g id="FillBetweenPolyCollection_6">
    <defs>
     <path id="m743340792d" d="M 602.287246 -412.085359 
L 550.754076 -412.085359 
L 549.009203 -412.681291 
L 547.266585 -413.277223 
L 545.540319 -413.873155 
L 543.84493 -414.469087 
L 542.195132 -415.065019 
L 540.605576 -415.660951 
L 539.090583 -416.256883 
L 537.663889 -416.852815 
L 536.338388 -417.448747 
L 535.125886 -418.044679 
L 534.036885 -418.640611 
L 533.080385 -419.236543 
L 532.263719 -419.832475 
L 531.592426 -420.428407 
L 531.070159 -421.024339 
L 530.698635 -421.620271 
L 530.47762 -422.216203 
L 530.404959 -422.812135 
L 530.476637 -423.408067 
L 530.686877 -424.003999 
L 531.028264 -424.599931 
L 531.491896 -425.195863 
L 532.067554 -425.791795 
L 532.743883 -426.387727 
L 533.508595 -426.983659 
L 534.348662 -427.579591 
L 535.250521 -428.175523 
L 536.200279 -428.771455 
L 537.183903 -429.367387 
L 538.187414 -429.963319 
L 539.197071 -430.559251 
L 540.199537 -431.155183 
L 541.182046 -431.751115 
L 542.13255 -432.347047 
L 543.03986 -432.942979 
L 543.893767 -433.538911 
L 544.685156 -434.134843 
L 545.406101 -434.730775 
L 546.049945 -435.326707 
L 546.611361 -435.922639 
L 547.086397 -436.518571 
L 547.472498 -437.114503 
L 547.768508 -437.710435 
L 547.974648 -438.306367 
L 548.092476 -438.902299 
L 548.124818 -439.498231 
L 548.075685 -440.094163 
L 547.950167 -440.690095 
L 547.754308 -441.286027 
L 547.494972 -441.881959 
L 547.179694 -442.477891 
L 546.816529 -443.073823 
L 546.413894 -443.669755 
L 545.980416 -444.265687 
L 545.524786 -444.861619 
L 545.055622 -445.457551 
L 544.581346 -446.053483 
L 544.110075 -446.649415 
L 543.649535 -447.245347 
L 543.206989 -447.841279 
L 542.789182 -448.437211 
L 542.402309 -449.033143 
L 542.051994 -449.629075 
L 541.743285 -450.225007 
L 541.480659 -450.820939 
L 541.268037 -451.416871 
L 541.108798 -452.012803 
L 541.005805 -452.608735 
L 540.96142 -453.204667 
L 540.97753 -453.800599 
L 541.055554 -454.396531 
L 541.19646 -454.992463 
L 541.400769 -455.588395 
L 541.668563 -456.184327 
L 541.999482 -456.780259 
L 542.392725 -457.376191 
L 542.847054 -457.972123 
L 543.360796 -458.568055 
L 543.931851 -459.163987 
L 544.557705 -459.75992 
L 545.235451 -460.355852 
L 545.961817 -460.951784 
L 546.733201 -461.547716 
L 547.545712 -462.143648 
L 548.395222 -462.73958 
L 549.277415 -463.335512 
L 550.187847 -463.931444 
L 551.122001 -464.527376 
L 552.075347 -465.123308 
L 553.043396 -465.71924 
L 554.021748 -466.315172 
L 555.006139 -466.911104 
L 555.99248 -467.507036 
L 556.976881 -468.102968 
L 557.955679 -468.6989 
L 558.925449 -469.294832 
L 559.883014 -469.890764 
L 560.825443 -470.486696 
L 561.750047 -471.082628 
L 591.291275 -471.082628 
L 591.291275 -471.082628 
L 592.21588 -470.486696 
L 593.158308 -469.890764 
L 594.115873 -469.294832 
L 595.085644 -468.6989 
L 596.064442 -468.102968 
L 597.048843 -467.507036 
L 598.035183 -466.911104 
L 599.019575 -466.315172 
L 599.997927 -465.71924 
L 600.965975 -465.123308 
L 601.919321 -464.527376 
L 602.853475 -463.931444 
L 603.763907 -463.335512 
L 604.6461 -462.73958 
L 605.49561 -462.143648 
L 606.308122 -461.547716 
L 607.079506 -460.951784 
L 607.805872 -460.355852 
L 608.483617 -459.75992 
L 609.109471 -459.163987 
L 609.680526 -458.568055 
L 610.194268 -457.972123 
L 610.648597 -457.376191 
L 611.041841 -456.780259 
L 611.372759 -456.184327 
L 611.640553 -455.588395 
L 611.844863 -454.992463 
L 611.985768 -454.396531 
L 612.063792 -453.800599 
L 612.079902 -453.204667 
L 612.035518 -452.608735 
L 611.932524 -452.012803 
L 611.773285 -451.416871 
L 611.560663 -450.820939 
L 611.298037 -450.225007 
L 610.989328 -449.629075 
L 610.639013 -449.033143 
L 610.25214 -448.437211 
L 609.834333 -447.841279 
L 609.391787 -447.245347 
L 608.931247 -446.649415 
L 608.459977 -446.053483 
L 607.9857 -445.457551 
L 607.516536 -444.861619 
L 607.060906 -444.265687 
L 606.627429 -443.669755 
L 606.224793 -443.073823 
L 605.861628 -442.477891 
L 605.54635 -441.881959 
L 605.287014 -441.286027 
L 605.091155 -440.690095 
L 604.965637 -440.094163 
L 604.916504 -439.498231 
L 604.948847 -438.902299 
L 605.066674 -438.306367 
L 605.272815 -437.710435 
L 605.568825 -437.114503 
L 605.954926 -436.518571 
L 606.429962 -435.922639 
L 606.991378 -435.326707 
L 607.635221 -434.730775 
L 608.356166 -434.134843 
L 609.147555 -433.538911 
L 610.001462 -432.942979 
L 610.908772 -432.347047 
L 611.859276 -431.751115 
L 612.841785 -431.155183 
L 613.844251 -430.559251 
L 614.853908 -429.963319 
L 615.85742 -429.367387 
L 616.841043 -428.771455 
L 617.790801 -428.175523 
L 618.692661 -427.579591 
L 619.532727 -426.983659 
L 620.297439 -426.387727 
L 620.973769 -425.791795 
L 621.549426 -425.195863 
L 622.013058 -424.599931 
L 622.354445 -424.003999 
L 622.564686 -423.408067 
L 622.636364 -422.812135 
L 622.563702 -422.216203 
L 622.342687 -421.620271 
L 621.971163 -421.024339 
L 621.448896 -420.428407 
L 620.777603 -419.832475 
L 619.960937 -419.236543 
L 619.004437 -418.640611 
L 617.915436 -418.044679 
L 616.702934 -417.448747 
L 615.377433 -416.852815 
L 613.95074 -416.256883 
L 612.435747 -415.660951 
L 610.84619 -415.065019 
L 609.196392 -414.469087 
L 607.501004 -413.873155 
L 605.774738 -413.277223 
L 604.032119 -412.681291 
L 602.287246 -412.085359 
z
" style="stroke: #d41159; stroke-opacity: 0.75"/>
    </defs>
    <g clip-path="url(#p7c29c872f6)">
     <use xlink:href="#m743340792d" x="0" y="576" style="fill: #d41159; fill-opacity: 0.75; stroke: #d41159; stroke-opacity: 0.75"/>
    </g>
   </g>
   <g id="PathCollection_3">
    <defs>
     <path id="m6d31d3639c" d="M -3.061862 6.123724 
L 0 3.061862 
L 3.061862 6.123724 
L 6.123724 3.061862 
L 3.061862 0 
L 6.123724 -3.061862 
L 3.061862 -6.123724 
L 0 -3.061862 
L -3.061862 -6.123724 
L -6.123724 -3.061862 
L -3.061862 0 
L -6.123724 3.061862 
z
" style="stroke: #000000; stroke-opacity: 0.8; stroke-width: 2"/>
    </defs>
    <g clip-path="url(#p7c29c872f6)">
     <use xlink:href="#m6d31d3639c" x="115.363636" y="492.48" style="fill: #d41159; fill-opacity: 0.8; stroke: #000000; stroke-opacity: 0.8; stroke-width: 2"/>
    </g>
   </g>
   <g id="PathCollection_4">
    <g clip-path="url(#p7c29c872f6)">
     <use xlink:href="#m6d31d3639c" x="461.231405" y="492.48" style="fill: #d41159; fill-opacity: 0.8; stroke: #000000; stroke-opacity: 0.8; stroke-width: 2"/>
    </g>
   </g>
   <g id="FillBetweenPolyCollection_7">
    <defs>
     <path id="mba3aff2246" d="M 245.907893 -138.228444 
L 215.397892 -138.228444 
L 214.477948 -138.338455 
L 213.599514 -138.448466 
L 212.771348 -138.558477 
L 212.000904 -138.668489 
L 211.294101 -138.7785 
L 210.655163 -138.888511 
L 210.086525 -138.998522 
L 209.588827 -139.108534 
L 209.160978 -139.218545 
L 208.8003 -139.328556 
L 208.502734 -139.438567 
L 208.263095 -139.548579 
L 208.075365 -139.65859 
L 207.932991 -139.768601 
L 207.829187 -139.878612 
L 207.757206 -139.988624 
L 207.710564 -140.098635 
L 207.683214 -140.208646 
L 207.669645 -140.318657 
L 207.664911 -140.428668 
L 207.664586 -140.53868 
L 207.664654 -140.648691 
L 207.661337 -140.758702 
L 207.650889 -140.868713 
L 207.629371 -140.978725 
L 207.592419 -141.088736 
L 207.535049 -141.198747 
L 207.451501 -141.308758 
L 207.335153 -141.41877 
L 207.178513 -141.528781 
L 206.973318 -141.638792 
L 206.710716 -141.748803 
L 206.381556 -141.858815 
L 205.976763 -141.968826 
L 205.487784 -142.078837 
L 204.90709 -142.188848 
L 204.228698 -142.29886 
L 203.448689 -142.408871 
L 202.565694 -142.518882 
L 201.581308 -142.628893 
L 200.500411 -142.738905 
L 199.331365 -142.848916 
L 198.086077 -142.958927 
L 196.779902 -143.068938 
L 195.431402 -143.17895 
L 194.061943 -143.288961 
L 192.695159 -143.398972 
L 191.356303 -143.508983 
L 190.071502 -143.618995 
L 188.866955 -143.729006 
L 187.768114 -143.839017 
L 186.798874 -143.949028 
L 185.980821 -144.05904 
L 185.332559 -144.169051 
L 184.869159 -144.279062 
L 184.601737 -144.389073 
L 184.53719 -144.499085 
L 184.678096 -144.609096 
L 185.022766 -144.719107 
L 185.565457 -144.829118 
L 186.296718 -144.93913 
L 187.203849 -145.049141 
L 188.271451 -145.159152 
L 189.482035 -145.269163 
L 190.816655 -145.379175 
L 192.255545 -145.489186 
L 193.778716 -145.599197 
L 195.366504 -145.709208 
L 197.000044 -145.81922 
L 198.661645 -145.929231 
L 200.335081 -146.039242 
L 202.005776 -146.149253 
L 203.660897 -146.259265 
L 205.289367 -146.369276 
L 206.881799 -146.479287 
L 208.430387 -146.589298 
L 209.928746 -146.69931 
L 211.371747 -146.809321 
L 212.755341 -146.919332 
L 214.076388 -147.029343 
L 215.332522 -147.139355 
L 216.52203 -147.249366 
L 217.643767 -147.359377 
L 218.697104 -147.469388 
L 219.681901 -147.5794 
L 220.598501 -147.689411 
L 221.447735 -147.799422 
L 222.230941 -147.909433 
L 222.949969 -148.019445 
L 223.607183 -148.129456 
L 224.205446 -148.239467 
L 224.748082 -148.349478 
L 225.238824 -148.45949 
L 225.681732 -148.569501 
L 226.081105 -148.679512 
L 226.441374 -148.789523 
L 226.766986 -148.899535 
L 227.062296 -149.009546 
L 227.331454 -149.119557 
L 233.974331 -149.119557 
L 233.974331 -149.119557 
L 234.243489 -149.009546 
L 234.538799 -148.899535 
L 234.864411 -148.789523 
L 235.22468 -148.679512 
L 235.624053 -148.569501 
L 236.066961 -148.45949 
L 236.557703 -148.349478 
L 237.100339 -148.239467 
L 237.698602 -148.129456 
L 238.355816 -148.019445 
L 239.074844 -147.909433 
L 239.85805 -147.799422 
L 240.707284 -147.689411 
L 241.623884 -147.5794 
L 242.608681 -147.469388 
L 243.662018 -147.359377 
L 244.783755 -147.249366 
L 245.973263 -147.139355 
L 247.229397 -147.029343 
L 248.550445 -146.919332 
L 249.934038 -146.809321 
L 251.377039 -146.69931 
L 252.875398 -146.589298 
L 254.423986 -146.479287 
L 256.016418 -146.369276 
L 257.644888 -146.259265 
L 259.300009 -146.149253 
L 260.970704 -146.039242 
L 262.64414 -145.929231 
L 264.305741 -145.81922 
L 265.939281 -145.709208 
L 267.52707 -145.599197 
L 269.050241 -145.489186 
L 270.48913 -145.379175 
L 271.823751 -145.269163 
L 273.034334 -145.159152 
L 274.101936 -145.049141 
L 275.009067 -144.93913 
L 275.740328 -144.829118 
L 276.283019 -144.719107 
L 276.627689 -144.609096 
L 276.768595 -144.499085 
L 276.704048 -144.389073 
L 276.436626 -144.279062 
L 275.973226 -144.169051 
L 275.324964 -144.05904 
L 274.506911 -143.949028 
L 273.537671 -143.839017 
L 272.43883 -143.729006 
L 271.234283 -143.618995 
L 269.949482 -143.508983 
L 268.610626 -143.398972 
L 267.243843 -143.288961 
L 265.874383 -143.17895 
L 264.525883 -143.068938 
L 263.219708 -142.958927 
L 261.97442 -142.848916 
L 260.805374 -142.738905 
L 259.724477 -142.628893 
L 258.740091 -142.518882 
L 257.857096 -142.408871 
L 257.077087 -142.29886 
L 256.398695 -142.188848 
L 255.818001 -142.078837 
L 255.329023 -141.968826 
L 254.924229 -141.858815 
L 254.595069 -141.748803 
L 254.332467 -141.638792 
L 254.127272 -141.528781 
L 253.970632 -141.41877 
L 253.854284 -141.308758 
L 253.770736 -141.198747 
L 253.713367 -141.088736 
L 253.676415 -140.978725 
L 253.654896 -140.868713 
L 253.644448 -140.758702 
L 253.641131 -140.648691 
L 253.641199 -140.53868 
L 253.640875 -140.428668 
L 253.63614 -140.318657 
L 253.622571 -140.208646 
L 253.595221 -140.098635 
L 253.548579 -139.988624 
L 253.476598 -139.878612 
L 253.372795 -139.768601 
L 253.23042 -139.65859 
L 253.04269 -139.548579 
L 252.803051 -139.438567 
L 252.505485 -139.328556 
L 252.144807 -139.218545 
L 251.716958 -139.108534 
L 251.21926 -138.998522 
L 250.650622 -138.888511 
L 250.011684 -138.7785 
L 249.304881 -138.668489 
L 248.534437 -138.558477 
L 247.706271 -138.448466 
L 246.827837 -138.338455 
L 245.907893 -138.228444 
z
" style="stroke: #004d40; stroke-opacity: 0.75"/>
    </defs>
    <g clip-path="url(#p7c29c872f6)">
     <use xlink:href="#mba3aff2246" x="0" y="576" style="fill: #004d40; fill-opacity: 0.75; stroke: #004d40; stroke-opacity: 0.75"/>
    </g>
   </g>
   <g id="FillBetweenPolyCollection_8">
    <defs>
     <path id="m012bf96d75" d="M 374.860046 -125.726585 
L 317.024251 -125.726585 
L 316.099164 -125.796435 
L 315.272886 -125.866284 
L 314.553784 -125.936134 
L 313.948823 -126.005984 
L 313.463416 -126.075834 
L 313.101298 -126.145684 
L 312.864446 -126.215534 
L 312.753028 -126.285384 
L 312.765403 -126.355234 
L 312.898155 -126.425083 
L 313.146166 -126.494933 
L 313.502732 -126.564783 
L 313.959701 -126.634633 
L 314.50765 -126.704483 
L 315.136079 -126.774333 
L 315.833619 -126.844183 
L 316.588253 -126.914033 
L 317.387538 -126.983883 
L 318.218827 -127.053732 
L 319.069475 -127.123582 
L 319.927035 -127.193432 
L 320.779436 -127.263282 
L 321.615132 -127.333132 
L 322.423232 -127.402982 
L 323.193601 -127.472832 
L 323.916934 -127.542682 
L 324.584808 -127.612532 
L 325.189704 -127.682381 
L 325.72501 -127.752231 
L 326.185013 -127.822081 
L 326.564866 -127.891931 
L 326.86055 -127.961781 
L 327.068833 -128.031631 
L 327.187218 -128.101481 
L 327.213902 -128.171331 
L 327.14773 -128.241181 
L 326.988162 -128.31103 
L 326.735244 -128.38088 
L 326.389592 -128.45073 
L 325.952383 -128.52058 
L 325.425358 -128.59043 
L 324.810828 -128.66028 
L 324.111695 -128.73013 
L 323.331469 -128.79998 
L 322.474296 -128.86983 
L 321.544981 -128.939679 
L 320.549006 -129.009529 
L 319.492549 -129.079379 
L 318.382493 -129.149229 
L 317.226419 -129.219079 
L 316.032595 -129.288929 
L 314.809949 -129.358779 
L 313.568024 -129.428629 
L 312.316919 -129.498479 
L 311.067217 -129.568328 
L 309.829899 -129.638178 
L 308.616232 -129.708028 
L 307.437663 -129.777878 
L 306.305684 -129.847728 
L 305.231699 -129.917578 
L 304.226878 -129.987428 
L 303.302012 -130.057278 
L 302.467363 -130.127127 
L 301.732515 -130.196977 
L 301.106239 -130.266827 
L 300.59635 -130.336677 
L 300.209593 -130.406527 
L 299.951529 -130.476377 
L 299.826446 -130.546227 
L 299.837286 -130.616077 
L 299.985589 -130.685927 
L 300.271467 -130.755776 
L 300.693599 -130.825626 
L 301.249242 -130.895476 
L 301.934278 -130.965326 
L 302.743277 -131.035176 
L 303.66958 -131.105026 
L 304.705413 -131.174876 
L 305.842004 -131.244726 
L 307.069728 -131.314576 
L 308.378262 -131.384425 
L 309.756739 -131.454275 
L 311.193925 -131.524125 
L 312.678382 -131.593975 
L 314.198637 -131.663825 
L 315.743347 -131.733675 
L 317.301447 -131.803525 
L 318.862299 -131.873375 
L 320.415814 -131.943225 
L 321.952565 -132.013074 
L 323.463879 -132.082924 
L 324.941913 -132.152774 
L 326.379706 -132.222624 
L 327.771213 -132.292474 
L 329.111318 -132.362324 
L 330.395834 -132.432174 
L 331.621481 -132.502024 
L 332.785851 -132.571874 
L 333.88736 -132.641723 
L 357.996938 -132.641723 
L 357.996938 -132.641723 
L 359.098446 -132.571874 
L 360.262816 -132.502024 
L 361.488464 -132.432174 
L 362.77298 -132.362324 
L 364.113085 -132.292474 
L 365.504591 -132.222624 
L 366.942384 -132.152774 
L 368.420419 -132.082924 
L 369.931733 -132.013074 
L 371.468484 -131.943225 
L 373.021998 -131.873375 
L 374.58285 -131.803525 
L 376.140951 -131.733675 
L 377.68566 -131.663825 
L 379.205915 -131.593975 
L 380.690372 -131.524125 
L 382.127558 -131.454275 
L 383.506036 -131.384425 
L 384.814569 -131.314576 
L 386.042294 -131.244726 
L 387.178885 -131.174876 
L 388.214717 -131.105026 
L 389.141021 -131.035176 
L 389.950019 -130.965326 
L 390.635055 -130.895476 
L 391.190698 -130.825626 
L 391.61283 -130.755776 
L 391.898709 -130.685927 
L 392.047012 -130.616077 
L 392.057851 -130.546227 
L 391.932769 -130.476377 
L 391.674705 -130.406527 
L 391.287948 -130.336677 
L 390.778059 -130.266827 
L 390.151782 -130.196977 
L 389.416935 -130.127127 
L 388.582285 -130.057278 
L 387.657419 -129.987428 
L 386.652598 -129.917578 
L 385.578613 -129.847728 
L 384.446634 -129.777878 
L 383.268065 -129.708028 
L 382.054399 -129.638178 
L 380.81708 -129.568328 
L 379.567379 -129.498479 
L 378.316274 -129.428629 
L 377.074348 -129.358779 
L 375.851702 -129.288929 
L 374.657879 -129.219079 
L 373.501805 -129.149229 
L 372.391748 -129.079379 
L 371.335292 -129.009529 
L 370.339317 -128.939679 
L 369.410001 -128.86983 
L 368.552829 -128.79998 
L 367.772603 -128.73013 
L 367.073469 -128.66028 
L 366.458939 -128.59043 
L 365.931914 -128.52058 
L 365.494706 -128.45073 
L 365.149054 -128.38088 
L 364.896136 -128.31103 
L 364.736567 -128.241181 
L 364.670395 -128.171331 
L 364.697079 -128.101481 
L 364.815465 -128.031631 
L 365.023747 -127.961781 
L 365.319432 -127.891931 
L 365.699284 -127.822081 
L 366.159287 -127.752231 
L 366.694594 -127.682381 
L 367.299489 -127.612532 
L 367.967363 -127.542682 
L 368.690697 -127.472832 
L 369.461066 -127.402982 
L 370.269166 -127.333132 
L 371.104861 -127.263282 
L 371.957262 -127.193432 
L 372.814822 -127.123582 
L 373.66547 -127.053732 
L 374.496759 -126.983883 
L 375.296045 -126.914033 
L 376.050678 -126.844183 
L 376.748218 -126.774333 
L 377.376647 -126.704483 
L 377.924597 -126.634633 
L 378.381566 -126.564783 
L 378.738131 -126.494933 
L 378.986143 -126.425083 
L 379.118895 -126.355234 
L 379.13127 -126.285384 
L 379.019852 -126.215534 
L 378.782999 -126.145684 
L 378.420881 -126.075834 
L 377.935474 -126.005984 
L 377.330513 -125.936134 
L 376.611411 -125.866284 
L 375.785134 -125.796435 
L 374.860046 -125.726585 
z
" style="stroke: #004d40; stroke-opacity: 0.75"/>
    </defs>
    <g clip-path="url(#p7c29c872f6)">
     <use xlink:href="#m012bf96d75" x="0" y="576" style="fill: #004d40; fill-opacity: 0.75; stroke: #004d40; stroke-opacity: 0.75"/>
    </g>
   </g>
   <g id="FillBetweenPolyCollection_9">
    <defs>
     <path id="ma8cad60342" d="M 597.54893 -410.446349 
L 555.492392 -410.446349 
L 553.704075 -411.13175 
L 551.885528 -411.817151 
L 550.051359 -412.502552 
L 548.217091 -413.187954 
L 546.398899 -413.873355 
L 544.613312 -414.558756 
L 542.876913 -415.244157 
L 541.206026 -415.929558 
L 539.61641 -416.614959 
L 538.122969 -417.30036 
L 536.739479 -417.985761 
L 535.478338 -418.671162 
L 534.350359 -419.356563 
L 533.364581 -420.041964 
L 532.528125 -420.727366 
L 531.846087 -421.412767 
L 531.321455 -422.098168 
L 530.955069 -422.783569 
L 530.745603 -423.46897 
L 530.689582 -424.154371 
L 530.781416 -424.839772 
L 531.013467 -425.525173 
L 531.376134 -426.210574 
L 531.85796 -426.895975 
L 532.44577 -427.581376 
L 533.124824 -428.266778 
L 533.879004 -428.952179 
L 534.691022 -429.63758 
L 535.542664 -430.322981 
L 536.415047 -431.008382 
L 537.288922 -431.693783 
L 538.144985 -432.379184 
L 538.964215 -433.064585 
L 539.728231 -433.749986 
L 540.41965 -434.435387 
L 541.02245 -435.120788 
L 541.522328 -435.80619 
L 541.907035 -436.491591 
L 542.166689 -437.176992 
L 542.294047 -437.862393 
L 542.284735 -438.547794 
L 542.13742 -439.233195 
L 541.853925 -439.918596 
L 541.439275 -440.603997 
L 540.901667 -441.289398 
L 540.252375 -441.974799 
L 539.505575 -442.6602 
L 538.678098 -443.345602 
L 537.789112 -444.031003 
L 536.859743 -444.716404 
L 535.912636 -445.401805 
L 534.971462 -446.087206 
L 534.060399 -446.772607 
L 533.203571 -447.458008 
L 532.424483 -448.143409 
L 531.745453 -448.82881 
L 531.187064 -449.514211 
L 530.767639 -450.199612 
L 530.502781 -450.885014 
L 530.404959 -451.570415 
L 530.483183 -452.255816 
L 530.742773 -452.941217 
L 531.18522 -453.626618 
L 531.808169 -454.312019 
L 532.605504 -454.99742 
L 533.567555 -455.682821 
L 534.681407 -456.368222 
L 535.931306 -457.053623 
L 537.29916 -457.739024 
L 538.765092 -458.424426 
L 540.308047 -459.109827 
L 541.906426 -459.795228 
L 543.538705 -460.480629 
L 545.184043 -461.16603 
L 546.822829 -461.851431 
L 548.437171 -462.536832 
L 550.011291 -463.222233 
L 551.531826 -463.907634 
L 552.988023 -464.593035 
L 554.371824 -465.278436 
L 555.677855 -465.963838 
L 556.903302 -466.649239 
L 558.047719 -467.33464 
L 559.112757 -468.020041 
L 560.101838 -468.705442 
L 561.019804 -469.390843 
L 561.872544 -470.076244 
L 562.666623 -470.761645 
L 563.408935 -471.447046 
L 564.10638 -472.132447 
L 564.765593 -472.817848 
L 565.392709 -473.50325 
L 565.993195 -474.188651 
L 566.571726 -474.874052 
L 567.132117 -475.559453 
L 567.677304 -476.244854 
L 568.209361 -476.930255 
L 568.729561 -477.615656 
L 569.238456 -478.301057 
L 583.802866 -478.301057 
L 583.802866 -478.301057 
L 584.311761 -477.615656 
L 584.831962 -476.930255 
L 585.364019 -476.244854 
L 585.909205 -475.559453 
L 586.469596 -474.874052 
L 587.048127 -474.188651 
L 587.648613 -473.50325 
L 588.275729 -472.817848 
L 588.934942 -472.132447 
L 589.632388 -471.447046 
L 590.374699 -470.761645 
L 591.168778 -470.076244 
L 592.021518 -469.390843 
L 592.939484 -468.705442 
L 593.928566 -468.020041 
L 594.993603 -467.33464 
L 596.138021 -466.649239 
L 597.363468 -465.963838 
L 598.669498 -465.278436 
L 600.0533 -464.593035 
L 601.509496 -463.907634 
L 603.030031 -463.222233 
L 604.604151 -462.536832 
L 606.218493 -461.851431 
L 607.85728 -461.16603 
L 609.502617 -460.480629 
L 611.134896 -459.795228 
L 612.733275 -459.109827 
L 614.276231 -458.424426 
L 615.742162 -457.739024 
L 617.110016 -457.053623 
L 618.359916 -456.368222 
L 619.473767 -455.682821 
L 620.435818 -454.99742 
L 621.233153 -454.312019 
L 621.856102 -453.626618 
L 622.29855 -452.941217 
L 622.558139 -452.255816 
L 622.636364 -451.570415 
L 622.538541 -450.885014 
L 622.273683 -450.199612 
L 621.854259 -449.514211 
L 621.295869 -448.82881 
L 620.616839 -448.143409 
L 619.837751 -447.458008 
L 618.980923 -446.772607 
L 618.06986 -446.087206 
L 617.128687 -445.401805 
L 616.181579 -444.716404 
L 615.25221 -444.031003 
L 614.363224 -443.345602 
L 613.535747 -442.6602 
L 612.788948 -441.974799 
L 612.139656 -441.289398 
L 611.602048 -440.603997 
L 611.187397 -439.918596 
L 610.903902 -439.233195 
L 610.756587 -438.547794 
L 610.747275 -437.862393 
L 610.874633 -437.176992 
L 611.134287 -436.491591 
L 611.518995 -435.80619 
L 612.018873 -435.120788 
L 612.621673 -434.435387 
L 613.313091 -433.749986 
L 614.077107 -433.064585 
L 614.896338 -432.379184 
L 615.7524 -431.693783 
L 616.626275 -431.008382 
L 617.498659 -430.322981 
L 618.3503 -429.63758 
L 619.162318 -428.952179 
L 619.916498 -428.266778 
L 620.595552 -427.581376 
L 621.183362 -426.895975 
L 621.665188 -426.210574 
L 622.027855 -425.525173 
L 622.259907 -424.839772 
L 622.351741 -424.154371 
L 622.295719 -423.46897 
L 622.086253 -422.783569 
L 621.719867 -422.098168 
L 621.195235 -421.412767 
L 620.513197 -420.727366 
L 619.676742 -420.041964 
L 618.690963 -419.356563 
L 617.562984 -418.671162 
L 616.301844 -417.985761 
L 614.918353 -417.30036 
L 613.424912 -416.614959 
L 611.835297 -415.929558 
L 610.164409 -415.244157 
L 608.42801 -414.558756 
L 606.642424 -413.873355 
L 604.824231 -413.187954 
L 602.989964 -412.502552 
L 601.155794 -411.817151 
L 599.337248 -411.13175 
L 597.54893 -410.446349 
z
" style="stroke: #004d40; stroke-opacity: 0.75"/>
    </defs>
    <g clip-path="url(#p7c29c872f6)">
     <use xlink:href="#ma8cad60342" x="0" y="576" style="fill: #004d40; fill-opacity: 0.75; stroke: #004d40; stroke-opacity: 0.75"/>
    </g>
   </g>
   <g id="PathCollection_5">
    <defs>
     <path id="m1166728c6c" d="M -3.061862 6.123724 
L 0 3.061862 
L 3.061862 6.123724 
L 6.123724 3.061862 
L 3.061862 0 
L 6.123724 -3.061862 
L 3.061862 -6.123724 
L 0 -3.061862 
L -3.061862 -6.123724 
L -6.123724 -3.061862 
L -3.061862 0 
L -6.123724 3.061862 
z
" style="stroke: #000000; stroke-opacity: 0.8; stroke-width: 2"/>
    </defs>
    <g clip-path="url(#p7c29c872f6)">
     <use xlink:href="#m1166728c6c" x="115.363636" y="492.48" style="fill: #004d40; fill-opacity: 0.8; stroke: #000000; stroke-opacity: 0.8; stroke-width: 2"/>
    </g>
   </g>
   <g id="PathCollection_6">
    <g clip-path="url(#p7c29c872f6)">
     <use xlink:href="#m1166728c6c" x="461.231405" y="492.48" style="fill: #004d40; fill-opacity: 0.8; stroke: #000000; stroke-opacity: 0.8; stroke-width: 2"/>
    </g>
   </g>
   <g id="matplotlib.axis_1">
    <g id="xtick_1">
     <g id="line2d_1">
      <defs>
       <path id="mc8f7a4129b" d="M 0 0 
L 0 3.5 
" style="stroke: #000000; stroke-width: 0.8"/>
      </defs>
      <g>
       <use xlink:href="#mc8f7a4129b" x="115.363636" y="512.64" style="stroke: #000000; stroke-width: 0.8"/>
      </g>
     </g>
     <g id="text_1">
      <!-- D7V1 -->
      <g transform="translate(81.281605 538.636094) scale(0.25 -0.25)">
       <defs>
        <path id="DejaVuSans-44" d="M 1259 4147 
L 1259 519 
L 2022 519 
Q 2988 519 3436 956 
Q 3884 1394 3884 2338 
Q 3884 3275 3436 3711 
Q 2988 4147 2022 4147 
L 1259 4147 
z
M 628 4666 
L 1925 4666 
Q 3281 4666 3915 4102 
Q 4550 3538 4550 2338 
Q 4550 1131 3912 565 
Q 3275 0 1925 0 
L 628 0 
L 628 4666 
z
" transform="scale(0.015625)"/>
        <path id="DejaVuSans-37" d="M 525 4666 
L 3525 4666 
L 3525 4397 
L 1831 0 
L 1172 0 
L 2766 4134 
L 525 4134 
L 525 4666 
z
" transform="scale(0.015625)"/>
        <path id="DejaVuSans-56" d="M 1831 0 
L 50 4666 
L 709 4666 
L 2188 738 
L 3669 4666 
L 4325 4666 
L 2547 0 
L 1831 0 
z
" transform="scale(0.015625)"/>
        <path id="DejaVuSans-31" d="M 794 531 
L 1825 531 
L 1825 4091 
L 703 3866 
L 703 4441 
L 1819 4666 
L 2450 4666 
L 2450 531 
L 3481 531 
L 3481 0 
L 794 0 
L 794 531 
z
" transform="scale(0.015625)"/>
       </defs>
       <use xlink:href="#DejaVuSans-44"/>
       <use xlink:href="#DejaVuSans-37" transform="translate(77.001953 0)"/>
       <use xlink:href="#DejaVuSans-56" transform="translate(140.625 0)"/>
       <use xlink:href="#DejaVuSans-31" transform="translate(209.033203 0)"/>
      </g>
     </g>
    </g>
    <g id="xtick_2">
     <g id="line2d_2">
      <g>
       <use xlink:href="#mc8f7a4129b" x="230.652893" y="512.64" style="stroke: #000000; stroke-width: 0.8"/>
      </g>
     </g>
     <g id="text_2">
      <!-- D7V2 -->
      <g transform="translate(196.570861 538.636094) scale(0.25 -0.25)">
       <defs>
        <path id="DejaVuSans-32" d="M 1228 531 
L 3431 531 
L 3431 0 
L 469 0 
L 469 531 
Q 828 903 1448 1529 
Q 2069 2156 2228 2338 
Q 2531 2678 2651 2914 
Q 2772 3150 2772 3378 
Q 2772 3750 2511 3984 
Q 2250 4219 1831 4219 
Q 1534 4219 1204 4116 
Q 875 4013 500 3803 
L 500 4441 
Q 881 4594 1212 4672 
Q 1544 4750 1819 4750 
Q 2544 4750 2975 4387 
Q 3406 4025 3406 3419 
Q 3406 3131 3298 2873 
Q 3191 2616 2906 2266 
Q 2828 2175 2409 1742 
Q 1991 1309 1228 531 
z
" transform="scale(0.015625)"/>
       </defs>
       <use xlink:href="#DejaVuSans-44"/>
       <use xlink:href="#DejaVuSans-37" transform="translate(77.001953 0)"/>
       <use xlink:href="#DejaVuSans-56" transform="translate(140.625 0)"/>
       <use xlink:href="#DejaVuSans-32" transform="translate(209.033203 0)"/>
      </g>
     </g>
    </g>
    <g id="xtick_3">
     <g id="line2d_3">
      <g>
       <use xlink:href="#mc8f7a4129b" x="345.942149" y="512.64" style="stroke: #000000; stroke-width: 0.8"/>
      </g>
     </g>
     <g id="text_3">
      <!-- D7V3 -->
      <g transform="translate(311.860118 538.636094) scale(0.25 -0.25)">
       <defs>
        <path id="DejaVuSans-33" d="M 2597 2516 
Q 3050 2419 3304 2112 
Q 3559 1806 3559 1356 
Q 3559 666 3084 287 
Q 2609 -91 1734 -91 
Q 1441 -91 1130 -33 
Q 819 25 488 141 
L 488 750 
Q 750 597 1062 519 
Q 1375 441 1716 441 
Q 2309 441 2620 675 
Q 2931 909 2931 1356 
Q 2931 1769 2642 2001 
Q 2353 2234 1838 2234 
L 1294 2234 
L 1294 2753 
L 1863 2753 
Q 2328 2753 2575 2939 
Q 2822 3125 2822 3475 
Q 2822 3834 2567 4026 
Q 2313 4219 1838 4219 
Q 1578 4219 1281 4162 
Q 984 4106 628 3988 
L 628 4550 
Q 988 4650 1302 4700 
Q 1616 4750 1894 4750 
Q 2613 4750 3031 4423 
Q 3450 4097 3450 3541 
Q 3450 3153 3228 2886 
Q 3006 2619 2597 2516 
z
" transform="scale(0.015625)"/>
       </defs>
       <use xlink:href="#DejaVuSans-44"/>
       <use xlink:href="#DejaVuSans-37" transform="translate(77.001953 0)"/>
       <use xlink:href="#DejaVuSans-56" transform="translate(140.625 0)"/>
       <use xlink:href="#DejaVuSans-33" transform="translate(209.033203 0)"/>
      </g>
     </g>
    </g>
    <g id="xtick_4">
     <g id="line2d_4">
      <g>
       <use xlink:href="#mc8f7a4129b" x="461.231405" y="512.64" style="stroke: #000000; stroke-width: 0.8"/>
      </g>
     </g>
     <g id="text_4">
      <!-- D7V4 -->
      <g transform="translate(427.149374 538.636094) scale(0.25 -0.25)">
       <defs>
        <path id="DejaVuSans-34" d="M 2419 4116 
L 825 1625 
L 2419 1625 
L 2419 4116 
z
M 2253 4666 
L 3047 4666 
L 3047 1625 
L 3713 1625 
L 3713 1100 
L 3047 1100 
L 3047 0 
L 2419 0 
L 2419 1100 
L 313 1100 
L 313 1709 
L 2253 4666 
z
" transform="scale(0.015625)"/>
       </defs>
       <use xlink:href="#DejaVuSans-44"/>
       <use xlink:href="#DejaVuSans-37" transform="translate(77.001953 0)"/>
       <use xlink:href="#DejaVuSans-56" transform="translate(140.625 0)"/>
       <use xlink:href="#DejaVuSans-34" transform="translate(209.033203 0)"/>
      </g>
     </g>
    </g>
    <g id="xtick_5">
     <g id="line2d_5">
      <g>
       <use xlink:href="#mc8f7a4129b" x="576.520661" y="512.64" style="stroke: #000000; stroke-width: 0.8"/>
      </g>
     </g>
     <g id="text_5">
      <!-- D7V5 -->
      <g transform="translate(542.43863 538.636094) scale(0.25 -0.25)">
       <defs>
        <path id="DejaVuSans-35" d="M 691 4666 
L 3169 4666 
L 3169 4134 
L 1269 4134 
L 1269 2991 
Q 1406 3038 1543 3061 
Q 1681 3084 1819 3084 
Q 2600 3084 3056 2656 
Q 3513 2228 3513 1497 
Q 3513 744 3044 326 
Q 2575 -91 1722 -91 
Q 1428 -91 1123 -41 
Q 819 9 494 109 
L 494 744 
Q 775 591 1075 516 
Q 1375 441 1709 441 
Q 2250 441 2565 725 
Q 2881 1009 2881 1497 
Q 2881 1984 2565 2268 
Q 2250 2553 1709 2553 
Q 1456 2553 1204 2497 
Q 953 2441 691 2322 
L 691 4666 
z
" transform="scale(0.015625)"/>
       </defs>
       <use xlink:href="#DejaVuSans-44"/>
       <use xlink:href="#DejaVuSans-37" transform="translate(77.001953 0)"/>
       <use xlink:href="#DejaVuSans-56" transform="translate(140.625 0)"/>
       <use xlink:href="#DejaVuSans-35" transform="translate(209.033203 0)"/>
      </g>
     </g>
    </g>
    <g id="text_6">
     <!-- Query -->
     <g transform="translate(331.009766 566.831406) scale(0.25 -0.25)">
      <defs>
       <path id="DejaVuSans-51" d="M 2522 4238 
Q 1834 4238 1429 3725 
Q 1025 3213 1025 2328 
Q 1025 1447 1429 934 
Q 1834 422 2522 422 
Q 3209 422 3611 934 
Q 4013 1447 4013 2328 
Q 4013 3213 3611 3725 
Q 3209 4238 2522 4238 
z
M 3406 84 
L 4238 -825 
L 3475 -825 
L 2784 -78 
Q 2681 -84 2626 -87 
Q 2572 -91 2522 -91 
Q 1538 -91 948 567 
Q 359 1225 359 2328 
Q 359 3434 948 4092 
Q 1538 4750 2522 4750 
Q 3503 4750 4090 4092 
Q 4678 3434 4678 2328 
Q 4678 1516 4351 937 
Q 4025 359 3406 84 
z
" transform="scale(0.015625)"/>
       <path id="DejaVuSans-75" d="M 544 1381 
L 544 3500 
L 1119 3500 
L 1119 1403 
Q 1119 906 1312 657 
Q 1506 409 1894 409 
Q 2359 409 2629 706 
Q 2900 1003 2900 1516 
L 2900 3500 
L 3475 3500 
L 3475 0 
L 2900 0 
L 2900 538 
Q 2691 219 2414 64 
Q 2138 -91 1772 -91 
Q 1169 -91 856 284 
Q 544 659 544 1381 
z
M 1991 3584 
L 1991 3584 
z
" transform="scale(0.015625)"/>
       <path id="DejaVuSans-65" d="M 3597 1894 
L 3597 1613 
L 953 1613 
Q 991 1019 1311 708 
Q 1631 397 2203 397 
Q 2534 397 2845 478 
Q 3156 559 3463 722 
L 3463 178 
Q 3153 47 2828 -22 
Q 2503 -91 2169 -91 
Q 1331 -91 842 396 
Q 353 884 353 1716 
Q 353 2575 817 3079 
Q 1281 3584 2069 3584 
Q 2775 3584 3186 3129 
Q 3597 2675 3597 1894 
z
M 3022 2063 
Q 3016 2534 2758 2815 
Q 2500 3097 2075 3097 
Q 1594 3097 1305 2825 
Q 1016 2553 972 2059 
L 3022 2063 
z
" transform="scale(0.015625)"/>
       <path id="DejaVuSans-72" d="M 2631 2963 
Q 2534 3019 2420 3045 
Q 2306 3072 2169 3072 
Q 1681 3072 1420 2755 
Q 1159 2438 1159 1844 
L 1159 0 
L 581 0 
L 581 3500 
L 1159 3500 
L 1159 2956 
Q 1341 3275 1631 3429 
Q 1922 3584 2338 3584 
Q 2397 3584 2469 3576 
Q 2541 3569 2628 3553 
L 2631 2963 
z
" transform="scale(0.015625)"/>
       <path id="DejaVuSans-79" d="M 2059 -325 
Q 1816 -950 1584 -1140 
Q 1353 -1331 966 -1331 
L 506 -1331 
L 506 -850 
L 844 -850 
Q 1081 -850 1212 -737 
Q 1344 -625 1503 -206 
L 1606 56 
L 191 3500 
L 800 3500 
L 1894 763 
L 2988 3500 
L 3597 3500 
L 2059 -325 
z
" transform="scale(0.015625)"/>
      </defs>
      <use xlink:href="#DejaVuSans-51"/>
      <use xlink:href="#DejaVuSans-75" transform="translate(78.710938 0)"/>
      <use xlink:href="#DejaVuSans-65" transform="translate(142.089844 0)"/>
      <use xlink:href="#DejaVuSans-72" transform="translate(203.613281 0)"/>
      <use xlink:href="#DejaVuSans-79" transform="translate(244.726562 0)"/>
     </g>
    </g>
   </g>
   <g id="matplotlib.axis_2">
    <g id="ytick_1">
     <g id="line2d_6">
      <path d="M 90 492.48 
L 648 492.48 
" clip-path="url(#p7c29c872f6)" style="fill: none; stroke: #b0b0b0; stroke-width: 0.8; stroke-linecap: square"/>
     </g>
     <g id="line2d_7">
      <defs>
       <path id="m47e73cb284" d="M 0 0 
L -3.5 0 
" style="stroke: #000000; stroke-width: 0.8"/>
      </defs>
      <g>
       <use xlink:href="#m47e73cb284" x="90" y="492.48" style="stroke: #000000; stroke-width: 0.8"/>
      </g>
     </g>
     <g id="text_7">
      <!-- 0 -->
      <g transform="translate(67.09375 501.978047) scale(0.25 -0.25)">
       <defs>
        <path id="DejaVuSans-30" d="M 2034 4250 
Q 1547 4250 1301 3770 
Q 1056 3291 1056 2328 
Q 1056 1369 1301 889 
Q 1547 409 2034 409 
Q 2525 409 2770 889 
Q 3016 1369 3016 2328 
Q 3016 3291 2770 3770 
Q 2525 4250 2034 4250 
z
M 2034 4750 
Q 2819 4750 3233 4129 
Q 3647 3509 3647 2328 
Q 3647 1150 3233 529 
Q 2819 -91 2034 -91 
Q 1250 -91 836 529 
Q 422 1150 422 2328 
Q 422 3509 836 4129 
Q 1250 4750 2034 4750 
z
" transform="scale(0.015625)"/>
       </defs>
       <use xlink:href="#DejaVuSans-30"/>
      </g>
     </g>
    </g>
    <g id="ytick_2">
     <g id="line2d_8">
      <path d="M 90 435.009829 
L 648 435.009829 
" clip-path="url(#p7c29c872f6)" style="fill: none; stroke: #b0b0b0; stroke-width: 0.8; stroke-linecap: square"/>
     </g>
     <g id="line2d_9">
      <g>
       <use xlink:href="#m47e73cb284" x="90" y="435.009829" style="stroke: #000000; stroke-width: 0.8"/>
      </g>
     </g>
     <g id="text_8">
      <!-- 1000 -->
      <g transform="translate(19.375 444.507875) scale(0.25 -0.25)">
       <use xlink:href="#DejaVuSans-31"/>
       <use xlink:href="#DejaVuSans-30" transform="translate(63.623047 0)"/>
       <use xlink:href="#DejaVuSans-30" transform="translate(127.246094 0)"/>
       <use xlink:href="#DejaVuSans-30" transform="translate(190.869141 0)"/>
      </g>
     </g>
    </g>
    <g id="ytick_3">
     <g id="line2d_10">
      <path d="M 90 377.539657 
L 648 377.539657 
" clip-path="url(#p7c29c872f6)" style="fill: none; stroke: #b0b0b0; stroke-width: 0.8; stroke-linecap: square"/>
     </g>
     <g id="line2d_11">
      <g>
       <use xlink:href="#m47e73cb284" x="90" y="377.539657" style="stroke: #000000; stroke-width: 0.8"/>
      </g>
     </g>
     <g id="text_9">
      <!-- 2000 -->
      <g transform="translate(19.375 387.037704) scale(0.25 -0.25)">
       <use xlink:href="#DejaVuSans-32"/>
       <use xlink:href="#DejaVuSans-30" transform="translate(63.623047 0)"/>
       <use xlink:href="#DejaVuSans-30" transform="translate(127.246094 0)"/>
       <use xlink:href="#DejaVuSans-30" transform="translate(190.869141 0)"/>
      </g>
     </g>
    </g>
    <g id="ytick_4">
     <g id="line2d_12">
      <path d="M 90 320.069486 
L 648 320.069486 
" clip-path="url(#p7c29c872f6)" style="fill: none; stroke: #b0b0b0; stroke-width: 0.8; stroke-linecap: square"/>
     </g>
     <g id="line2d_13">
      <g>
       <use xlink:href="#m47e73cb284" x="90" y="320.069486" style="stroke: #000000; stroke-width: 0.8"/>
      </g>
     </g>
     <g id="text_10">
      <!-- 3000 -->
      <g transform="translate(19.375 329.567532) scale(0.25 -0.25)">
       <use xlink:href="#DejaVuSans-33"/>
       <use xlink:href="#DejaVuSans-30" transform="translate(63.623047 0)"/>
       <use xlink:href="#DejaVuSans-30" transform="translate(127.246094 0)"/>
       <use xlink:href="#DejaVuSans-30" transform="translate(190.869141 0)"/>
      </g>
     </g>
    </g>
    <g id="ytick_5">
     <g id="line2d_14">
      <path d="M 90 262.599314 
L 648 262.599314 
" clip-path="url(#p7c29c872f6)" style="fill: none; stroke: #b0b0b0; stroke-width: 0.8; stroke-linecap: square"/>
     </g>
     <g id="line2d_15">
      <g>
       <use xlink:href="#m47e73cb284" x="90" y="262.599314" style="stroke: #000000; stroke-width: 0.8"/>
      </g>
     </g>
     <g id="text_11">
      <!-- 4000 -->
      <g transform="translate(19.375 272.097361) scale(0.25 -0.25)">
       <use xlink:href="#DejaVuSans-34"/>
       <use xlink:href="#DejaVuSans-30" transform="translate(63.623047 0)"/>
       <use xlink:href="#DejaVuSans-30" transform="translate(127.246094 0)"/>
       <use xlink:href="#DejaVuSans-30" transform="translate(190.869141 0)"/>
      </g>
     </g>
    </g>
    <g id="ytick_6">
     <g id="line2d_16">
      <path d="M 90 205.129143 
L 648 205.129143 
" clip-path="url(#p7c29c872f6)" style="fill: none; stroke: #b0b0b0; stroke-width: 0.8; stroke-linecap: square"/>
     </g>
     <g id="line2d_17">
      <g>
       <use xlink:href="#m47e73cb284" x="90" y="205.129143" style="stroke: #000000; stroke-width: 0.8"/>
      </g>
     </g>
     <g id="text_12">
      <!-- 5000 -->
      <g transform="translate(19.375 214.627189) scale(0.25 -0.25)">
       <use xlink:href="#DejaVuSans-35"/>
       <use xlink:href="#DejaVuSans-30" transform="translate(63.623047 0)"/>
       <use xlink:href="#DejaVuSans-30" transform="translate(127.246094 0)"/>
       <use xlink:href="#DejaVuSans-30" transform="translate(190.869141 0)"/>
      </g>
     </g>
    </g>
    <g id="ytick_7">
     <g id="line2d_18">
      <path d="M 90 147.658971 
L 648 147.658971 
" clip-path="url(#p7c29c872f6)" style="fill: none; stroke: #b0b0b0; stroke-width: 0.8; stroke-linecap: square"/>
     </g>
     <g id="line2d_19">
      <g>
       <use xlink:href="#m47e73cb284" x="90" y="147.658971" style="stroke: #000000; stroke-width: 0.8"/>
      </g>
     </g>
     <g id="text_13">
      <!-- 6000 -->
      <g transform="translate(19.375 157.157018) scale(0.25 -0.25)">
       <defs>
        <path id="DejaVuSans-36" d="M 2113 2584 
Q 1688 2584 1439 2293 
Q 1191 2003 1191 1497 
Q 1191 994 1439 701 
Q 1688 409 2113 409 
Q 2538 409 2786 701 
Q 3034 994 3034 1497 
Q 3034 2003 2786 2293 
Q 2538 2584 2113 2584 
z
M 3366 4563 
L 3366 3988 
Q 3128 4100 2886 4159 
Q 2644 4219 2406 4219 
Q 1781 4219 1451 3797 
Q 1122 3375 1075 2522 
Q 1259 2794 1537 2939 
Q 1816 3084 2150 3084 
Q 2853 3084 3261 2657 
Q 3669 2231 3669 1497 
Q 3669 778 3244 343 
Q 2819 -91 2113 -91 
Q 1303 -91 875 529 
Q 447 1150 447 2328 
Q 447 3434 972 4092 
Q 1497 4750 2381 4750 
Q 2619 4750 2861 4703 
Q 3103 4656 3366 4563 
z
" transform="scale(0.015625)"/>
       </defs>
       <use xlink:href="#DejaVuSans-36"/>
       <use xlink:href="#DejaVuSans-30" transform="translate(63.623047 0)"/>
       <use xlink:href="#DejaVuSans-30" transform="translate(127.246094 0)"/>
       <use xlink:href="#DejaVuSans-30" transform="translate(190.869141 0)"/>
      </g>
     </g>
    </g>
    <g id="ytick_8">
     <g id="line2d_20">
      <path d="M 90 90.1888 
L 648 90.1888 
" clip-path="url(#p7c29c872f6)" style="fill: none; stroke: #b0b0b0; stroke-width: 0.8; stroke-linecap: square"/>
     </g>
     <g id="line2d_21">
      <g>
       <use xlink:href="#m47e73cb284" x="90" y="90.1888" style="stroke: #000000; stroke-width: 0.8"/>
      </g>
     </g>
     <g id="text_14">
      <!-- 7000 -->
      <g transform="translate(19.375 99.686846) scale(0.25 -0.25)">
       <use xlink:href="#DejaVuSans-37"/>
       <use xlink:href="#DejaVuSans-30" transform="translate(63.623047 0)"/>
       <use xlink:href="#DejaVuSans-30" transform="translate(127.246094 0)"/>
       <use xlink:href="#DejaVuSans-30" transform="translate(190.869141 0)"/>
      </g>
     </g>
    </g>
    <g id="text_15">
     <!-- Execution time (ms) -->
     <g transform="translate(10.175781 416.842891) rotate(-90) scale(0.25 -0.25)">
      <defs>
       <path id="DejaVuSans-45" d="M 628 4666 
L 3578 4666 
L 3578 4134 
L 1259 4134 
L 1259 2753 
L 3481 2753 
L 3481 2222 
L 1259 2222 
L 1259 531 
L 3634 531 
L 3634 0 
L 628 0 
L 628 4666 
z
" transform="scale(0.015625)"/>
       <path id="DejaVuSans-78" d="M 3513 3500 
L 2247 1797 
L 3578 0 
L 2900 0 
L 1881 1375 
L 863 0 
L 184 0 
L 1544 1831 
L 300 3500 
L 978 3500 
L 1906 2253 
L 2834 3500 
L 3513 3500 
z
" transform="scale(0.015625)"/>
       <path id="DejaVuSans-63" d="M 3122 3366 
L 3122 2828 
Q 2878 2963 2633 3030 
Q 2388 3097 2138 3097 
Q 1578 3097 1268 2742 
Q 959 2388 959 1747 
Q 959 1106 1268 751 
Q 1578 397 2138 397 
Q 2388 397 2633 464 
Q 2878 531 3122 666 
L 3122 134 
Q 2881 22 2623 -34 
Q 2366 -91 2075 -91 
Q 1284 -91 818 406 
Q 353 903 353 1747 
Q 353 2603 823 3093 
Q 1294 3584 2113 3584 
Q 2378 3584 2631 3529 
Q 2884 3475 3122 3366 
z
" transform="scale(0.015625)"/>
       <path id="DejaVuSans-74" d="M 1172 4494 
L 1172 3500 
L 2356 3500 
L 2356 3053 
L 1172 3053 
L 1172 1153 
Q 1172 725 1289 603 
Q 1406 481 1766 481 
L 2356 481 
L 2356 0 
L 1766 0 
Q 1100 0 847 248 
Q 594 497 594 1153 
L 594 3053 
L 172 3053 
L 172 3500 
L 594 3500 
L 594 4494 
L 1172 4494 
z
" transform="scale(0.015625)"/>
       <path id="DejaVuSans-69" d="M 603 3500 
L 1178 3500 
L 1178 0 
L 603 0 
L 603 3500 
z
M 603 4863 
L 1178 4863 
L 1178 4134 
L 603 4134 
L 603 4863 
z
" transform="scale(0.015625)"/>
       <path id="DejaVuSans-6f" d="M 1959 3097 
Q 1497 3097 1228 2736 
Q 959 2375 959 1747 
Q 959 1119 1226 758 
Q 1494 397 1959 397 
Q 2419 397 2687 759 
Q 2956 1122 2956 1747 
Q 2956 2369 2687 2733 
Q 2419 3097 1959 3097 
z
M 1959 3584 
Q 2709 3584 3137 3096 
Q 3566 2609 3566 1747 
Q 3566 888 3137 398 
Q 2709 -91 1959 -91 
Q 1206 -91 779 398 
Q 353 888 353 1747 
Q 353 2609 779 3096 
Q 1206 3584 1959 3584 
z
" transform="scale(0.015625)"/>
       <path id="DejaVuSans-6e" d="M 3513 2113 
L 3513 0 
L 2938 0 
L 2938 2094 
Q 2938 2591 2744 2837 
Q 2550 3084 2163 3084 
Q 1697 3084 1428 2787 
Q 1159 2491 1159 1978 
L 1159 0 
L 581 0 
L 581 3500 
L 1159 3500 
L 1159 2956 
Q 1366 3272 1645 3428 
Q 1925 3584 2291 3584 
Q 2894 3584 3203 3211 
Q 3513 2838 3513 2113 
z
" transform="scale(0.015625)"/>
       <path id="DejaVuSans-20" transform="scale(0.015625)"/>
       <path id="DejaVuSans-6d" d="M 3328 2828 
Q 3544 3216 3844 3400 
Q 4144 3584 4550 3584 
Q 5097 3584 5394 3201 
Q 5691 2819 5691 2113 
L 5691 0 
L 5113 0 
L 5113 2094 
Q 5113 2597 4934 2840 
Q 4756 3084 4391 3084 
Q 3944 3084 3684 2787 
Q 3425 2491 3425 1978 
L 3425 0 
L 2847 0 
L 2847 2094 
Q 2847 2600 2669 2842 
Q 2491 3084 2119 3084 
Q 1678 3084 1418 2786 
Q 1159 2488 1159 1978 
L 1159 0 
L 581 0 
L 581 3500 
L 1159 3500 
L 1159 2956 
Q 1356 3278 1631 3431 
Q 1906 3584 2284 3584 
Q 2666 3584 2933 3390 
Q 3200 3197 3328 2828 
z
" transform="scale(0.015625)"/>
       <path id="DejaVuSans-28" d="M 1984 4856 
Q 1566 4138 1362 3434 
Q 1159 2731 1159 2009 
Q 1159 1288 1364 580 
Q 1569 -128 1984 -844 
L 1484 -844 
Q 1016 -109 783 600 
Q 550 1309 550 2009 
Q 550 2706 781 3412 
Q 1013 4119 1484 4856 
L 1984 4856 
z
" transform="scale(0.015625)"/>
       <path id="DejaVuSans-73" d="M 2834 3397 
L 2834 2853 
Q 2591 2978 2328 3040 
Q 2066 3103 1784 3103 
Q 1356 3103 1142 2972 
Q 928 2841 928 2578 
Q 928 2378 1081 2264 
Q 1234 2150 1697 2047 
L 1894 2003 
Q 2506 1872 2764 1633 
Q 3022 1394 3022 966 
Q 3022 478 2636 193 
Q 2250 -91 1575 -91 
Q 1294 -91 989 -36 
Q 684 19 347 128 
L 347 722 
Q 666 556 975 473 
Q 1284 391 1588 391 
Q 1994 391 2212 530 
Q 2431 669 2431 922 
Q 2431 1156 2273 1281 
Q 2116 1406 1581 1522 
L 1381 1569 
Q 847 1681 609 1914 
Q 372 2147 372 2553 
Q 372 3047 722 3315 
Q 1072 3584 1716 3584 
Q 2034 3584 2315 3537 
Q 2597 3491 2834 3397 
z
" transform="scale(0.015625)"/>
       <path id="DejaVuSans-29" d="M 513 4856 
L 1013 4856 
Q 1481 4119 1714 3412 
Q 1947 2706 1947 2009 
Q 1947 1309 1714 600 
Q 1481 -109 1013 -844 
L 513 -844 
Q 928 -128 1133 580 
Q 1338 1288 1338 2009 
Q 1338 2731 1133 3434 
Q 928 4138 513 4856 
z
" transform="scale(0.015625)"/>
      </defs>
      <use xlink:href="#DejaVuSans-45"/>
      <use xlink:href="#DejaVuSans-78" transform="translate(63.183594 0)"/>
      <use xlink:href="#DejaVuSans-65" transform="translate(119.238281 0)"/>
      <use xlink:href="#DejaVuSans-63" transform="translate(180.761719 0)"/>
      <use xlink:href="#DejaVuSans-75" transform="translate(235.742188 0)"/>
      <use xlink:href="#DejaVuSans-74" transform="translate(299.121094 0)"/>
      <use xlink:href="#DejaVuSans-69" transform="translate(338.330078 0)"/>
      <use xlink:href="#DejaVuSans-6f" transform="translate(366.113281 0)"/>
      <use xlink:href="#DejaVuSans-6e" transform="translate(427.294922 0)"/>
      <use xlink:href="#DejaVuSans-20" transform="translate(490.673828 0)"/>
      <use xlink:href="#DejaVuSans-74" transform="translate(522.460938 0)"/>
      <use xlink:href="#DejaVuSans-69" transform="translate(561.669922 0)"/>
      <use xlink:href="#DejaVuSans-6d" transform="translate(589.453125 0)"/>
      <use xlink:href="#DejaVuSans-65" transform="translate(686.865234 0)"/>
      <use xlink:href="#DejaVuSans-20" transform="translate(748.388672 0)"/>
      <use xlink:href="#DejaVuSans-28" transform="translate(780.175781 0)"/>
      <use xlink:href="#DejaVuSans-6d" transform="translate(819.189453 0)"/>
      <use xlink:href="#DejaVuSans-73" transform="translate(916.601562 0)"/>
      <use xlink:href="#DejaVuSans-29" transform="translate(968.701172 0)"/>
     </g>
    </g>
   </g>
   <g id="LineCollection_1">
    <path d="M 207.595041 434.855405 
L 253.710744 434.855405 
" clip-path="url(#p7c29c872f6)" style="fill: none; stroke: #000000; stroke-width: 1.5"/>
    <path d="M 322.884298 447.144368 
L 369 447.144368 
" clip-path="url(#p7c29c872f6)" style="fill: none; stroke: #000000; stroke-width: 1.5"/>
    <path d="M 553.46281 135.859741 
L 599.578512 135.859741 
" clip-path="url(#p7c29c872f6)" style="fill: none; stroke: #000000; stroke-width: 1.5"/>
   </g>
   <g id="LineCollection_2">
    <path d="M 207.595041 429.047971 
L 253.710744 429.047971 
" clip-path="url(#p7c29c872f6)" style="fill: none; stroke: #000000; stroke-width: 1.5"/>
    <path d="M 322.884298 444.211426 
L 369 444.211426 
" clip-path="url(#p7c29c872f6)" style="fill: none; stroke: #000000; stroke-width: 1.5"/>
    <path d="M 553.46281 89.28 
L 599.578512 89.28 
" clip-path="url(#p7c29c872f6)" style="fill: none; stroke: #000000; stroke-width: 1.5"/>
   </g>
   <g id="LineCollection_3">
    <path d="M 207.595041 437.920723 
L 253.710744 437.920723 
" clip-path="url(#p7c29c872f6)" style="fill: none; stroke: #000000; stroke-width: 1.5"/>
    <path d="M 322.884298 449.580581 
L 369 449.580581 
" clip-path="url(#p7c29c872f6)" style="fill: none; stroke: #000000; stroke-width: 1.5"/>
    <path d="M 553.46281 164.965965 
L 599.578512 164.965965 
" clip-path="url(#p7c29c872f6)" style="fill: none; stroke: #000000; stroke-width: 1.5"/>
   </g>
   <g id="LineCollection_4">
    <path d="M 230.652893 437.920723 
L 230.652893 429.047971 
" clip-path="url(#p7c29c872f6)" style="fill: none; stroke: #000000; stroke-width: 1.5"/>
    <path d="M 345.942149 449.580581 
L 345.942149 444.211426 
" clip-path="url(#p7c29c872f6)" style="fill: none; stroke: #000000; stroke-width: 1.5"/>
    <path d="M 576.520661 164.965965 
L 576.520661 89.28 
" clip-path="url(#p7c29c872f6)" style="fill: none; stroke: #000000; stroke-width: 1.5"/>
   </g>
   <g id="LineCollection_5">
    <path d="M 207.595041 435.04979 
L 253.710744 435.04979 
" clip-path="url(#p7c29c872f6)" style="fill: none; stroke: #000000; stroke-width: 1.5"/>
    <path d="M 322.884298 446.637267 
L 369 446.637267 
" clip-path="url(#p7c29c872f6)" style="fill: none; stroke: #000000; stroke-width: 1.5"/>
    <path d="M 553.46281 139.615973 
L 599.578512 139.615973 
" clip-path="url(#p7c29c872f6)" style="fill: none; stroke: #000000; stroke-width: 1.5"/>
   </g>
   <g id="LineCollection_6">
    <path d="M 207.595041 433.194314 
L 253.710744 433.194314 
" clip-path="url(#p7c29c872f6)" style="fill: none; stroke: #000000; stroke-width: 1.5"/>
    <path d="M 322.884298 446.970359 
L 369 446.970359 
" clip-path="url(#p7c29c872f6)" style="fill: none; stroke: #000000; stroke-width: 1.5"/>
    <path d="M 553.46281 137.441934 
L 599.578512 137.441934 
" clip-path="url(#p7c29c872f6)" style="fill: none; stroke: #000000; stroke-width: 1.5"/>
   </g>
   <g id="LineCollection_7">
    <path d="M 207.595041 427.127487 
L 253.710744 427.127487 
" clip-path="url(#p7c29c872f6)" style="fill: none; stroke: #000000; stroke-width: 1.5"/>
    <path d="M 322.884298 443.167963 
L 369 443.167963 
" clip-path="url(#p7c29c872f6)" style="fill: none; stroke: #000000; stroke-width: 1.5"/>
    <path d="M 553.46281 104.917372 
L 599.578512 104.917372 
" clip-path="url(#p7c29c872f6)" style="fill: none; stroke: #000000; stroke-width: 1.5"/>
   </g>
   <g id="LineCollection_8">
    <path d="M 207.595041 437.908235 
L 253.710744 437.908235 
" clip-path="url(#p7c29c872f6)" style="fill: none; stroke: #000000; stroke-width: 1.5"/>
    <path d="M 322.884298 450.202293 
L 369 450.202293 
" clip-path="url(#p7c29c872f6)" style="fill: none; stroke: #000000; stroke-width: 1.5"/>
    <path d="M 553.46281 163.914641 
L 599.578512 163.914641 
" clip-path="url(#p7c29c872f6)" style="fill: none; stroke: #000000; stroke-width: 1.5"/>
   </g>
   <g id="LineCollection_9">
    <path d="M 230.652893 437.908235 
L 230.652893 427.127487 
" clip-path="url(#p7c29c872f6)" style="fill: none; stroke: #000000; stroke-width: 1.5"/>
    <path d="M 345.942149 450.202293 
L 345.942149 443.167963 
" clip-path="url(#p7c29c872f6)" style="fill: none; stroke: #000000; stroke-width: 1.5"/>
    <path d="M 576.520661 163.914641 
L 576.520661 104.917372 
" clip-path="url(#p7c29c872f6)" style="fill: none; stroke: #000000; stroke-width: 1.5"/>
   </g>
   <g id="LineCollection_10">
    <path d="M 207.595041 431.996451 
L 253.710744 431.996451 
" clip-path="url(#p7c29c872f6)" style="fill: none; stroke: #000000; stroke-width: 1.5"/>
    <path d="M 322.884298 446.473178 
L 369 446.473178 
" clip-path="url(#p7c29c872f6)" style="fill: none; stroke: #000000; stroke-width: 1.5"/>
    <path d="M 553.46281 142.804252 
L 599.578512 142.804252 
" clip-path="url(#p7c29c872f6)" style="fill: none; stroke: #000000; stroke-width: 1.5"/>
   </g>
   <g id="LineCollection_11">
    <path d="M 207.595041 432.853053 
L 253.710744 432.853053 
" clip-path="url(#p7c29c872f6)" style="fill: none; stroke: #000000; stroke-width: 1.5"/>
    <path d="M 322.884298 447.061409 
L 369 447.061409 
" clip-path="url(#p7c29c872f6)" style="fill: none; stroke: #000000; stroke-width: 1.5"/>
    <path d="M 553.46281 136.4922 
L 599.578512 136.4922 
" clip-path="url(#p7c29c872f6)" style="fill: none; stroke: #000000; stroke-width: 1.5"/>
   </g>
   <g id="LineCollection_12">
    <path d="M 207.595041 426.880443 
L 253.710744 426.880443 
" clip-path="url(#p7c29c872f6)" style="fill: none; stroke: #000000; stroke-width: 1.5"/>
    <path d="M 322.884298 443.358277 
L 369 443.358277 
" clip-path="url(#p7c29c872f6)" style="fill: none; stroke: #000000; stroke-width: 1.5"/>
    <path d="M 553.46281 97.698943 
L 599.578512 97.698943 
" clip-path="url(#p7c29c872f6)" style="fill: none; stroke: #000000; stroke-width: 1.5"/>
   </g>
   <g id="LineCollection_13">
    <path d="M 207.595041 437.771556 
L 253.710744 437.771556 
" clip-path="url(#p7c29c872f6)" style="fill: none; stroke: #000000; stroke-width: 1.5"/>
    <path d="M 322.884298 450.273415 
L 369 450.273415 
" clip-path="url(#p7c29c872f6)" style="fill: none; stroke: #000000; stroke-width: 1.5"/>
    <path d="M 553.46281 165.553651 
L 599.578512 165.553651 
" clip-path="url(#p7c29c872f6)" style="fill: none; stroke: #000000; stroke-width: 1.5"/>
   </g>
   <g id="LineCollection_14">
    <path d="M 230.652893 437.771556 
L 230.652893 426.880443 
" clip-path="url(#p7c29c872f6)" style="fill: none; stroke: #000000; stroke-width: 1.5"/>
    <path d="M 345.942149 450.273415 
L 345.942149 443.358277 
" clip-path="url(#p7c29c872f6)" style="fill: none; stroke: #000000; stroke-width: 1.5"/>
    <path d="M 576.520661 165.553651 
L 576.520661 97.698943 
" clip-path="url(#p7c29c872f6)" style="fill: none; stroke: #000000; stroke-width: 1.5"/>
   </g>
   <g id="LineCollection_15">
    <path d="M 207.595041 432.083019 
L 253.710744 432.083019 
" clip-path="url(#p7c29c872f6)" style="fill: none; stroke: #000000; stroke-width: 1.5"/>
    <path d="M 322.884298 446.195548 
L 369 446.195548 
" clip-path="url(#p7c29c872f6)" style="fill: none; stroke: #000000; stroke-width: 1.5"/>
    <path d="M 553.46281 135.343004 
L 599.578512 135.343004 
" clip-path="url(#p7c29c872f6)" style="fill: none; stroke: #000000; stroke-width: 1.5"/>
   </g>
   <g id="patch_3">
    <path d="M 90 512.64 
L 90 69.12 
" style="fill: none; stroke: #000000; stroke-width: 0.8; stroke-linejoin: miter; stroke-linecap: square"/>
   </g>
   <g id="patch_4">
    <path d="M 648 512.64 
L 648 69.12 
" style="fill: none; stroke: #000000; stroke-width: 0.8; stroke-linejoin: miter; stroke-linecap: square"/>
   </g>
   <g id="patch_5">
    <path d="M 90 512.64 
L 648 512.64 
" style="fill: none; stroke: #000000; stroke-width: 0.8; stroke-linejoin: miter; stroke-linecap: square"/>
   </g>
   <g id="patch_6">
    <path d="M 90 69.12 
L 648 69.12 
" style="fill: none; stroke: #000000; stroke-width: 0.8; stroke-linejoin: miter; stroke-linecap: square"/>
   </g>
   <g id="legend_1">
    <g id="patch_7">
     <path d="M 102.6 189.2025 
L 328.545 189.2025 
Q 332.145 189.2025 332.145 185.6025 
L 332.145 81.72 
Q 332.145 78.12 328.545 78.12 
L 102.6 78.12 
Q 99 78.12 99 81.72 
L 99 185.6025 
Q 99 189.2025 102.6 189.2025 
z
" style="fill: #ffffff; opacity: 0.8; stroke: #cccccc; stroke-linejoin: miter"/>
    </g>
    <g id="line2d_22">
     <path d="M 106.2 92.697187 
L 124.2 92.697187 
L 142.2 92.697187 
" style="fill: none; stroke: #1a85ff; stroke-width: 1.5; stroke-linecap: square"/>
    </g>
    <g id="text_16">
     <!-- shape index -->
     <g transform="translate(156.6 98.997187) scale(0.18 -0.18)">
      <defs>
       <path id="DejaVuSans-68" d="M 3513 2113 
L 3513 0 
L 2938 0 
L 2938 2094 
Q 2938 2591 2744 2837 
Q 2550 3084 2163 3084 
Q 1697 3084 1428 2787 
Q 1159 2491 1159 1978 
L 1159 0 
L 581 0 
L 581 4863 
L 1159 4863 
L 1159 2956 
Q 1366 3272 1645 3428 
Q 1925 3584 2291 3584 
Q 2894 3584 3203 3211 
Q 3513 2838 3513 2113 
z
" transform="scale(0.015625)"/>
       <path id="DejaVuSans-61" d="M 2194 1759 
Q 1497 1759 1228 1600 
Q 959 1441 959 1056 
Q 959 750 1161 570 
Q 1363 391 1709 391 
Q 2188 391 2477 730 
Q 2766 1069 2766 1631 
L 2766 1759 
L 2194 1759 
z
M 3341 1997 
L 3341 0 
L 2766 0 
L 2766 531 
Q 2569 213 2275 61 
Q 1981 -91 1556 -91 
Q 1019 -91 701 211 
Q 384 513 384 1019 
Q 384 1609 779 1909 
Q 1175 2209 1959 2209 
L 2766 2209 
L 2766 2266 
Q 2766 2663 2505 2880 
Q 2244 3097 1772 3097 
Q 1472 3097 1187 3025 
Q 903 2953 641 2809 
L 641 3341 
Q 956 3463 1253 3523 
Q 1550 3584 1831 3584 
Q 2591 3584 2966 3190 
Q 3341 2797 3341 1997 
z
" transform="scale(0.015625)"/>
       <path id="DejaVuSans-70" d="M 1159 525 
L 1159 -1331 
L 581 -1331 
L 581 3500 
L 1159 3500 
L 1159 2969 
Q 1341 3281 1617 3432 
Q 1894 3584 2278 3584 
Q 2916 3584 3314 3078 
Q 3713 2572 3713 1747 
Q 3713 922 3314 415 
Q 2916 -91 2278 -91 
Q 1894 -91 1617 61 
Q 1341 213 1159 525 
z
M 3116 1747 
Q 3116 2381 2855 2742 
Q 2594 3103 2138 3103 
Q 1681 3103 1420 2742 
Q 1159 2381 1159 1747 
Q 1159 1113 1420 752 
Q 1681 391 2138 391 
Q 2594 391 2855 752 
Q 3116 1113 3116 1747 
z
" transform="scale(0.015625)"/>
       <path id="DejaVuSans-64" d="M 2906 2969 
L 2906 4863 
L 3481 4863 
L 3481 0 
L 2906 0 
L 2906 525 
Q 2725 213 2448 61 
Q 2172 -91 1784 -91 
Q 1150 -91 751 415 
Q 353 922 353 1747 
Q 353 2572 751 3078 
Q 1150 3584 1784 3584 
Q 2172 3584 2448 3432 
Q 2725 3281 2906 2969 
z
M 947 1747 
Q 947 1113 1208 752 
Q 1469 391 1925 391 
Q 2381 391 2643 752 
Q 2906 1113 2906 1747 
Q 2906 2381 2643 2742 
Q 2381 3103 1925 3103 
Q 1469 3103 1208 2742 
Q 947 2381 947 1747 
z
" transform="scale(0.015625)"/>
      </defs>
      <use xlink:href="#DejaVuSans-73"/>
      <use xlink:href="#DejaVuSans-68" transform="translate(52.099609 0)"/>
      <use xlink:href="#DejaVuSans-61" transform="translate(115.478516 0)"/>
      <use xlink:href="#DejaVuSans-70" transform="translate(176.757812 0)"/>
      <use xlink:href="#DejaVuSans-65" transform="translate(240.234375 0)"/>
      <use xlink:href="#DejaVuSans-20" transform="translate(301.757812 0)"/>
      <use xlink:href="#DejaVuSans-69" transform="translate(333.544922 0)"/>
      <use xlink:href="#DejaVuSans-6e" transform="translate(361.328125 0)"/>
      <use xlink:href="#DejaVuSans-64" transform="translate(424.707031 0)"/>
      <use xlink:href="#DejaVuSans-65" transform="translate(488.183594 0)"/>
      <use xlink:href="#DejaVuSans-78" transform="translate(547.957031 0)"/>
     </g>
    </g>
    <g id="line2d_23">
     <path d="M 106.2 119.117812 
L 124.2 119.117812 
L 142.2 119.117812 
" style="fill: none; stroke: #d41159; stroke-width: 1.5; stroke-linecap: square"/>
    </g>
    <g id="text_17">
     <!-- ldp -->
     <g transform="translate(156.6 125.417812) scale(0.18 -0.18)">
      <defs>
       <path id="DejaVuSans-6c" d="M 603 4863 
L 1178 4863 
L 1178 0 
L 603 0 
L 603 4863 
z
" transform="scale(0.015625)"/>
      </defs>
      <use xlink:href="#DejaVuSans-6c"/>
      <use xlink:href="#DejaVuSans-64" transform="translate(27.783203 0)"/>
      <use xlink:href="#DejaVuSans-70" transform="translate(91.259766 0)"/>
     </g>
    </g>
    <g id="line2d_24">
     <path d="M 106.2 145.538437 
L 124.2 145.538437 
L 142.2 145.538437 
" style="fill: none; stroke: #004d40; stroke-width: 1.5; stroke-linecap: square"/>
    </g>
    <g id="text_18">
     <!-- type index and ldp -->
     <g transform="translate(156.6 151.838437) scale(0.18 -0.18)">
      <use xlink:href="#DejaVuSans-74"/>
      <use xlink:href="#DejaVuSans-79" transform="translate(39.208984 0)"/>
      <use xlink:href="#DejaVuSans-70" transform="translate(98.388672 0)"/>
      <use xlink:href="#DejaVuSans-65" transform="translate(161.865234 0)"/>
      <use xlink:href="#DejaVuSans-20" transform="translate(223.388672 0)"/>
      <use xlink:href="#DejaVuSans-69" transform="translate(255.175781 0)"/>
      <use xlink:href="#DejaVuSans-6e" transform="translate(282.958984 0)"/>
      <use xlink:href="#DejaVuSans-64" transform="translate(346.337891 0)"/>
      <use xlink:href="#DejaVuSans-65" transform="translate(409.814453 0)"/>
      <use xlink:href="#DejaVuSans-78" transform="translate(469.587891 0)"/>
      <use xlink:href="#DejaVuSans-20" transform="translate(528.767578 0)"/>
      <use xlink:href="#DejaVuSans-61" transform="translate(560.554688 0)"/>
      <use xlink:href="#DejaVuSans-6e" transform="translate(621.833984 0)"/>
      <use xlink:href="#DejaVuSans-64" transform="translate(685.212891 0)"/>
      <use xlink:href="#DejaVuSans-20" transform="translate(748.689453 0)"/>
      <use xlink:href="#DejaVuSans-6c" transform="translate(780.476562 0)"/>
      <use xlink:href="#DejaVuSans-64" transform="translate(808.259766 0)"/>
      <use xlink:href="#DejaVuSans-70" transform="translate(871.736328 0)"/>
     </g>
    </g>
    <g id="line2d_25">
     <defs>
      <path id="mbb3e4e442b" d="M -2.5 5 
L 0 2.5 
L 2.5 5 
L 5 2.5 
L 2.5 0 
L 5 -2.5 
L 2.5 -5 
L 0 -2.5 
L -2.5 -5 
L -5 -2.5 
L -2.5 0 
L -5 2.5 
z
" style="stroke: #000000; stroke-linejoin: miter"/>
     </defs>
     <g>
      <use xlink:href="#mbb3e4e442b" x="124.2" y="171.959062" style="stroke: #000000; stroke-linejoin: miter"/>
     </g>
    </g>
    <g id="text_19">
     <!-- Timeout -->
     <g transform="translate(156.6 178.259062) scale(0.18 -0.18)">
      <defs>
       <path id="DejaVuSans-54" d="M -19 4666 
L 3928 4666 
L 3928 4134 
L 2272 4134 
L 2272 0 
L 1638 0 
L 1638 4134 
L -19 4134 
L -19 4666 
z
" transform="scale(0.015625)"/>
      </defs>
      <use xlink:href="#DejaVuSans-54"/>
      <use xlink:href="#DejaVuSans-69" transform="translate(57.958984 0)"/>
      <use xlink:href="#DejaVuSans-6d" transform="translate(85.742188 0)"/>
      <use xlink:href="#DejaVuSans-65" transform="translate(183.154297 0)"/>
      <use xlink:href="#DejaVuSans-6f" transform="translate(244.677734 0)"/>
      <use xlink:href="#DejaVuSans-75" transform="translate(305.859375 0)"/>
      <use xlink:href="#DejaVuSans-74" transform="translate(369.238281 0)"/>
     </g>
    </g>
   </g>
  </g>
 </g>
 <defs>
  <clipPath id="p7c29c872f6">
   <rect x="90" y="69.12" width="558" height="443.52"/>
  </clipPath>
 </defs>
</svg>
