<?xml version="1.0" encoding="utf-8" standalone="no"?>
<!DOCTYPE svg PUBLIC "-//W3C//DTD SVG 1.1//EN"
  "http://www.w3.org/Graphics/SVG/1.1/DTD/svg11.dtd">
<svg xmlns:xlink="http://www.w3.org/1999/xlink" width="1008pt" height="864pt" viewBox="0 0 1008 864" xmlns="http://www.w3.org/2000/svg" version="1.1">
 <metadata>
  <rdf:RDF xmlns:dc="http://purl.org/dc/elements/1.1/" xmlns:cc="http://creativecommons.org/ns#" xmlns:rdf="http://www.w3.org/1999/02/22-rdf-syntax-ns#">
   <cc:Work>
    <dc:type rdf:resource="http://purl.org/dc/dcmitype/StillImage"/>
    <dc:date>2026-06-23T09:34:08.649379</dc:date>
    <dc:format>image/svg+xml</dc:format>
    <dc:creator>
     <cc:Agent>
      <dc:title>Matplotlib v3.10.3, https://matplotlib.org/</dc:title>
     </cc:Agent>
    </dc:creator>
   </cc:Work>
  </rdf:RDF>
 </metadata>
 <defs>
  <style type="text/css">*{stroke-linejoin: round; stroke-linecap: butt}</style>
 </defs>
 <g id="figure_1">
  <g id="patch_1">
   <path d="M 0 864 
L 1008 864 
L 1008 0 
L 0 0 
z
" style="fill: #ffffff"/>
  </g>
  <g id="axes_1">
   <g id="patch_2">
    <path d="M 126 768.96 
L 907.2 768.96 
L 907.2 103.68 
L 126 103.68 
z
" style="fill: #ffffff"/>
   </g>
   <g id="FillBetweenPolyCollection_1">
    <defs>
     <path id="mdd93d12f60" d="M 363.664179 -207.118916 
L 282.16392 -207.118916 
L 279.412408 -207.253352 
L 276.720201 -207.387787 
L 274.117567 -207.522223 
L 271.634469 -207.656659 
L 269.299849 -207.791094 
L 267.140892 -207.92553 
L 265.182305 -208.059966 
L 263.445624 -208.194401 
L 261.948582 -208.328837 
L 260.704558 -208.463272 
L 259.722123 -208.597708 
L 259.004715 -208.732144 
L 258.550446 -208.866579 
L 258.352066 -209.001015 
L 258.397079 -209.135451 
L 258.66802 -209.269886 
L 259.142887 -209.404322 
L 259.795721 -209.538757 
L 260.59731 -209.673193 
L 261.516014 -209.807629 
L 262.51866 -209.942064 
L 263.571506 -210.0765 
L 264.641218 -210.210936 
L 265.695846 -210.345371 
L 266.705752 -210.479807 
L 267.644464 -210.614242 
L 268.489429 -210.748678 
L 269.222629 -210.883114 
L 269.831046 -211.017549 
L 270.306962 -211.151985 
L 270.648069 -211.286421 
L 270.857411 -211.420856 
L 270.943137 -211.555292 
L 270.918084 -211.689727 
L 270.799221 -211.824163 
L 270.606951 -211.958599 
L 270.364316 -212.093034 
L 270.096137 -212.22747 
L 269.828109 -212.361906 
L 269.585898 -212.496341 
L 269.394272 -212.630777 
L 269.276294 -212.765212 
L 269.252606 -212.899648 
L 269.340839 -213.034084 
L 269.555151 -213.168519 
L 269.905918 -213.302955 
L 270.399579 -213.437391 
L 271.038637 -213.571826 
L 271.821799 -213.706262 
L 272.744256 -213.840697 
L 273.798064 -213.975133 
L 274.972621 -214.109569 
L 276.255203 -214.244004 
L 277.631529 -214.37844 
L 279.08634 -214.512876 
L 280.603946 -214.647311 
L 282.168737 -214.781747 
L 283.765626 -214.916182 
L 285.380416 -215.050618 
L 287.00007 -215.185054 
L 288.612904 -215.319489 
L 290.208673 -215.453925 
L 291.778581 -215.588361 
L 293.315221 -215.722796 
L 294.812446 -215.857232 
L 296.265206 -215.991667 
L 297.669358 -216.126103 
L 299.021466 -216.260539 
L 300.318613 -216.394974 
L 301.558239 -216.52941 
L 302.73801 -216.663846 
L 303.85573 -216.798281 
L 304.909307 -216.932717 
L 305.896756 -217.067152 
L 306.816256 -217.201588 
L 307.666235 -217.336024 
L 308.445494 -217.470459 
L 309.153336 -217.604895 
L 309.789708 -217.739331 
L 310.355335 -217.873766 
L 310.851827 -218.008202 
L 311.281773 -218.142637 
L 311.648775 -218.277073 
L 311.957461 -218.411509 
L 312.213436 -218.545944 
L 312.423196 -218.68038 
L 312.593988 -218.814816 
L 312.733648 -218.949251 
L 312.850388 -219.083687 
L 312.952575 -219.218122 
L 313.048492 -219.352558 
L 313.146103 -219.486994 
L 313.252815 -219.621429 
L 313.375278 -219.755865 
L 313.519198 -219.890301 
L 313.689192 -220.024736 
L 313.88869 -220.159172 
L 314.119871 -220.293607 
L 314.383651 -220.428043 
L 331.444448 -220.428043 
L 331.444448 -220.428043 
L 331.708229 -220.293607 
L 331.939409 -220.159172 
L 332.138907 -220.024736 
L 332.308902 -219.890301 
L 332.452821 -219.755865 
L 332.575284 -219.621429 
L 332.681997 -219.486994 
L 332.779607 -219.352558 
L 332.875525 -219.218122 
L 332.977711 -219.083687 
L 333.094451 -218.949251 
L 333.234111 -218.814816 
L 333.404904 -218.68038 
L 333.614663 -218.545944 
L 333.870638 -218.411509 
L 334.179324 -218.277073 
L 334.546326 -218.142637 
L 334.976272 -218.008202 
L 335.472765 -217.873766 
L 336.038391 -217.739331 
L 336.674763 -217.604895 
L 337.382605 -217.470459 
L 338.161864 -217.336024 
L 339.011843 -217.201588 
L 339.931343 -217.067152 
L 340.918792 -216.932717 
L 341.972369 -216.798281 
L 343.09009 -216.663846 
L 344.26986 -216.52941 
L 345.509486 -216.394974 
L 346.806634 -216.260539 
L 348.158741 -216.126103 
L 349.562893 -215.991667 
L 351.015653 -215.857232 
L 352.512878 -215.722796 
L 354.049518 -215.588361 
L 355.619427 -215.453925 
L 357.215195 -215.319489 
L 358.828029 -215.185054 
L 360.447684 -215.050618 
L 362.062473 -214.916182 
L 363.659362 -214.781747 
L 365.224153 -214.647311 
L 366.741759 -214.512876 
L 368.19657 -214.37844 
L 369.572897 -214.244004 
L 370.855478 -214.109569 
L 372.030035 -213.975133 
L 373.083843 -213.840697 
L 374.0063 -213.706262 
L 374.789462 -213.571826 
L 375.42852 -213.437391 
L 375.922181 -213.302955 
L 376.272948 -213.168519 
L 376.48726 -213.034084 
L 376.575493 -212.899648 
L 376.551806 -212.765212 
L 376.433827 -212.630777 
L 376.242201 -212.496341 
L 375.99999 -212.361906 
L 375.731962 -212.22747 
L 375.463783 -212.093034 
L 375.221149 -211.958599 
L 375.028878 -211.824163 
L 374.910015 -211.689727 
L 374.884963 -211.555292 
L 374.970688 -211.420856 
L 375.18003 -211.286421 
L 375.521138 -211.151985 
L 375.997053 -211.017549 
L 376.60547 -210.883114 
L 377.33867 -210.748678 
L 378.183635 -210.614242 
L 379.122347 -210.479807 
L 380.132253 -210.345371 
L 381.186881 -210.210936 
L 382.256593 -210.0765 
L 383.309439 -209.942064 
L 384.312086 -209.807629 
L 385.230789 -209.673193 
L 386.032379 -209.538757 
L 386.685212 -209.404322 
L 387.160079 -209.269886 
L 387.43102 -209.135451 
L 387.476033 -209.001015 
L 387.277653 -208.866579 
L 386.823385 -208.732144 
L 386.105976 -208.597708 
L 385.123541 -208.463272 
L 383.879517 -208.328837 
L 382.382475 -208.194401 
L 380.645794 -208.059966 
L 378.687207 -207.92553 
L 376.52825 -207.791094 
L 374.19363 -207.656659 
L 371.710532 -207.522223 
L 369.107898 -207.387787 
L 366.415691 -207.253352 
L 363.664179 -207.118916 
z
" style="stroke: #1a85ff; stroke-width: 1.8"/>
    </defs>
    <g clip-path="url(#p09743c7c3b)">
     <use xlink:href="#mdd93d12f60" x="0" y="864" style="fill: #1a85ff; fill-opacity: 0.45; stroke: #1a85ff; stroke-width: 1.8"/>
    </g>
   </g>
   <g id="FillBetweenPolyCollection_2">
    <defs>
     <path id="m135579093f" d="M 519.110971 -189.629129 
L 449.527045 -189.629129 
L 447.50076 -189.71048 
L 445.54424 -189.79183 
L 443.67917 -189.873181 
L 441.926649 -189.954532 
L 440.306734 -190.035883 
L 438.837983 -190.117234 
L 437.537027 -190.198585 
L 436.418173 -190.279935 
L 435.493062 -190.361286 
L 434.770369 -190.442637 
L 434.255588 -190.523988 
L 433.950875 -190.605339 
L 433.854971 -190.68669 
L 433.96321 -190.76804 
L 434.267593 -190.849391 
L 434.756942 -190.930742 
L 435.417119 -191.012093 
L 436.231306 -191.093444 
L 437.180334 -191.174795 
L 438.243054 -191.256145 
L 439.396735 -191.337496 
L 440.617488 -191.418847 
L 441.880687 -191.500198 
L 443.161395 -191.581549 
L 444.434781 -191.6629 
L 445.676506 -191.74425 
L 446.863097 -191.825601 
L 447.972281 -191.906952 
L 448.983281 -191.988303 
L 449.877086 -192.069654 
L 450.636672 -192.151005 
L 451.247191 -192.232355 
L 451.696119 -192.313706 
L 451.973375 -192.395057 
L 452.071401 -192.476408 
L 451.985216 -192.557759 
L 451.712443 -192.63911 
L 451.253308 -192.72046 
L 450.61062 -192.801811 
L 449.789725 -192.883162 
L 448.798439 -192.964513 
L 447.646964 -193.045864 
L 446.347776 -193.127215 
L 444.915493 -193.208565 
L 443.366717 -193.289916 
L 441.719856 -193.371267 
L 439.994908 -193.452618 
L 438.213228 -193.533969 
L 436.397263 -193.61532 
L 434.57026 -193.69667 
L 432.75595 -193.778021 
L 430.978212 -193.859372 
L 429.260723 -193.940723 
L 427.626591 -194.022074 
L 426.097995 -194.103425 
L 424.695817 -194.184775 
L 423.439304 -194.266126 
L 422.345742 -194.347477 
L 421.430164 -194.428828 
L 420.705102 -194.510179 
L 420.180389 -194.59153 
L 419.863011 -194.67288 
L 419.757025 -194.754231 
L 419.863538 -194.835582 
L 420.180752 -194.916933 
L 420.704069 -194.998284 
L 421.426263 -195.079634 
L 422.337698 -195.160985 
L 423.426603 -195.242336 
L 424.679377 -195.323687 
L 426.080929 -195.405038 
L 427.615036 -195.486389 
L 429.264705 -195.567739 
L 431.012533 -195.64909 
L 432.841057 -195.730441 
L 434.733074 -195.811792 
L 436.671936 -195.893143 
L 438.641803 -195.974494 
L 440.627859 -196.055844 
L 442.616476 -196.137195 
L 444.595341 -196.218546 
L 446.553525 -196.299897 
L 448.481519 -196.381248 
L 450.371229 -196.462599 
L 452.215927 -196.543949 
L 454.010186 -196.6253 
L 455.749779 -196.706651 
L 457.431566 -196.788002 
L 459.053373 -196.869353 
L 460.613855 -196.950704 
L 462.112372 -197.032054 
L 463.548854 -197.113405 
L 464.923691 -197.194756 
L 466.237618 -197.276107 
L 467.491622 -197.357458 
L 468.686863 -197.438809 
L 469.824605 -197.520159 
L 470.906166 -197.60151 
L 471.93288 -197.682861 
L 496.705137 -197.682861 
L 496.705137 -197.682861 
L 497.731851 -197.60151 
L 498.813412 -197.520159 
L 499.951154 -197.438809 
L 501.146395 -197.357458 
L 502.400399 -197.276107 
L 503.714325 -197.194756 
L 505.089162 -197.113405 
L 506.525645 -197.032054 
L 508.024161 -196.950704 
L 509.584644 -196.869353 
L 511.20645 -196.788002 
L 512.888238 -196.706651 
L 514.627831 -196.6253 
L 516.422089 -196.543949 
L 518.266788 -196.462599 
L 520.156497 -196.381248 
L 522.084492 -196.299897 
L 524.042675 -196.218546 
L 526.02154 -196.137195 
L 528.010158 -196.055844 
L 529.996214 -195.974494 
L 531.966081 -195.893143 
L 533.904942 -195.811792 
L 535.796959 -195.730441 
L 537.625483 -195.64909 
L 539.373312 -195.567739 
L 541.022981 -195.486389 
L 542.557088 -195.405038 
L 543.95864 -195.323687 
L 545.211414 -195.242336 
L 546.300318 -195.160985 
L 547.211754 -195.079634 
L 547.933948 -194.998284 
L 548.457265 -194.916933 
L 548.774479 -194.835582 
L 548.880992 -194.754231 
L 548.775006 -194.67288 
L 548.457627 -194.59153 
L 547.932914 -194.510179 
L 547.207852 -194.428828 
L 546.292274 -194.347477 
L 545.198712 -194.266126 
L 543.9422 -194.184775 
L 542.540022 -194.103425 
L 541.011425 -194.022074 
L 539.377294 -193.940723 
L 537.659805 -193.859372 
L 535.882067 -193.778021 
L 534.067757 -193.69667 
L 532.240753 -193.61532 
L 530.424788 -193.533969 
L 528.643109 -193.452618 
L 526.91816 -193.371267 
L 525.271299 -193.289916 
L 523.722524 -193.208565 
L 522.29024 -193.127215 
L 520.991052 -193.045864 
L 519.839577 -192.964513 
L 518.848292 -192.883162 
L 518.027397 -192.801811 
L 517.384709 -192.72046 
L 516.925574 -192.63911 
L 516.6528 -192.557759 
L 516.566615 -192.476408 
L 516.664641 -192.395057 
L 516.941897 -192.313706 
L 517.390826 -192.232355 
L 518.001345 -192.151005 
L 518.760931 -192.069654 
L 519.654736 -191.988303 
L 520.665736 -191.906952 
L 521.774919 -191.825601 
L 522.961511 -191.74425 
L 524.203236 -191.6629 
L 525.476621 -191.581549 
L 526.75733 -191.500198 
L 528.020528 -191.418847 
L 529.241281 -191.337496 
L 530.394963 -191.256145 
L 531.457682 -191.174795 
L 532.40671 -191.093444 
L 533.220897 -191.012093 
L 533.881074 -190.930742 
L 534.370423 -190.849391 
L 534.674806 -190.76804 
L 534.783045 -190.68669 
L 534.687142 -190.605339 
L 534.382428 -190.523988 
L 533.867647 -190.442637 
L 533.144955 -190.361286 
L 532.219843 -190.279935 
L 531.10099 -190.198585 
L 529.800033 -190.117234 
L 528.331282 -190.035883 
L 526.711367 -189.954532 
L 524.958847 -189.873181 
L 523.093776 -189.79183 
L 521.137256 -189.71048 
L 519.110971 -189.629129 
z
" style="stroke: #1a85ff; stroke-width: 1.8"/>
    </defs>
    <g clip-path="url(#p09743c7c3b)">
     <use xlink:href="#m135579093f" x="0" y="864" style="fill: #1a85ff; fill-opacity: 0.45; stroke: #1a85ff; stroke-width: 1.8"/>
    </g>
   </g>
   <g id="FillBetweenPolyCollection_3">
    <defs>
     <path id="m0299aa0fee" d="M 836.880105 -616.551053 
L 777.377746 -616.551053 
L 775.388545 -617.69781 
L 773.385936 -618.844567 
L 771.378666 -619.991324 
L 769.375496 -621.138081 
L 767.385187 -622.284838 
L 765.416496 -623.431595 
L 763.478174 -624.578352 
L 761.578965 -625.725109 
L 759.727594 -626.871866 
L 757.932745 -628.018623 
L 756.203011 -629.16538 
L 754.546836 -630.312137 
L 752.972427 -631.458894 
L 751.487653 -632.605651 
L 750.099925 -633.752408 
L 748.816073 -634.899165 
L 747.642219 -636.045923 
L 746.583654 -637.19268 
L 745.644738 -638.339437 
L 744.82881 -639.486194 
L 744.138135 -640.632951 
L 743.573878 -641.779708 
L 743.136107 -642.926465 
L 742.823832 -644.073222 
L 742.635071 -645.219979 
L 742.566942 -646.366736 
L 742.615766 -647.513493 
L 742.777186 -648.66025 
L 743.046292 -649.807007 
L 743.417733 -650.953764 
L 743.885825 -652.100521 
L 744.444646 -653.247278 
L 745.088111 -654.394035 
L 745.810025 -655.540792 
L 746.604128 -656.687549 
L 747.464115 -657.834306 
L 748.383648 -658.981063 
L 749.356365 -660.12782 
L 750.375875 -661.274577 
L 751.435772 -662.421334 
L 752.529638 -663.568092 
L 753.65107 -664.714849 
L 754.793713 -665.861606 
L 755.951304 -667.008363 
L 757.117729 -668.15512 
L 758.287095 -669.301877 
L 759.453798 -670.448634 
L 760.612599 -671.595391 
L 761.758697 -672.742148 
L 762.88779 -673.888905 
L 763.996129 -675.035662 
L 765.080549 -676.182419 
L 766.138491 -677.329176 
L 767.167992 -678.475933 
L 768.167668 -679.62269 
L 769.136664 -680.769447 
L 770.074608 -681.916204 
L 770.981535 -683.062961 
L 771.857818 -684.209718 
L 772.704092 -685.356475 
L 773.521186 -686.503232 
L 774.310059 -687.649989 
L 775.071755 -688.796746 
L 775.807368 -689.943504 
L 776.518022 -691.090261 
L 777.204874 -692.237018 
L 777.869121 -693.383775 
L 778.512026 -694.530532 
L 779.134943 -695.677289 
L 779.739348 -696.824046 
L 780.32687 -697.970803 
L 780.899303 -699.11756 
L 781.458626 -700.264317 
L 782.006989 -701.411074 
L 782.546702 -702.557831 
L 783.080197 -703.704588 
L 783.609985 -704.851345 
L 784.138598 -705.998102 
L 784.668527 -707.144859 
L 785.202153 -708.291616 
L 785.741684 -709.438373 
L 786.28909 -710.58513 
L 786.846055 -711.731887 
L 787.413932 -712.878644 
L 787.993714 -714.025401 
L 788.586017 -715.172158 
L 789.191078 -716.318915 
L 789.808758 -717.465673 
L 790.438564 -718.61243 
L 791.079668 -719.759187 
L 791.730939 -720.905944 
L 792.390972 -722.052701 
L 793.058122 -723.199458 
L 793.730536 -724.346215 
L 794.406182 -725.492972 
L 795.082874 -726.639729 
L 795.758308 -727.786486 
L 796.43008 -728.933243 
L 797.095715 -730.08 
L 817.162136 -730.08 
L 817.162136 -730.08 
L 817.827771 -728.933243 
L 818.499543 -727.786486 
L 819.174977 -726.639729 
L 819.85167 -725.492972 
L 820.527315 -724.346215 
L 821.199729 -723.199458 
L 821.86688 -722.052701 
L 822.526913 -720.905944 
L 823.178183 -719.759187 
L 823.819287 -718.61243 
L 824.449093 -717.465673 
L 825.066774 -716.318915 
L 825.671834 -715.172158 
L 826.264138 -714.025401 
L 826.843919 -712.878644 
L 827.411796 -711.731887 
L 827.968761 -710.58513 
L 828.516168 -709.438373 
L 829.055698 -708.291616 
L 829.589324 -707.144859 
L 830.119253 -705.998102 
L 830.647867 -704.851345 
L 831.177655 -703.704588 
L 831.711149 -702.557831 
L 832.250862 -701.411074 
L 832.799225 -700.264317 
L 833.358548 -699.11756 
L 833.930982 -697.970803 
L 834.518503 -696.824046 
L 835.122908 -695.677289 
L 835.745825 -694.530532 
L 836.38873 -693.383775 
L 837.052977 -692.237018 
L 837.739829 -691.090261 
L 838.450483 -689.943504 
L 839.186096 -688.796746 
L 839.947792 -687.649989 
L 840.736666 -686.503232 
L 841.55376 -685.356475 
L 842.400034 -684.209718 
L 843.276316 -683.062961 
L 844.183243 -681.916204 
L 845.121187 -680.769447 
L 846.090184 -679.62269 
L 847.089859 -678.475933 
L 848.11936 -677.329176 
L 849.177302 -676.182419 
L 850.261723 -675.035662 
L 851.370061 -673.888905 
L 852.499154 -672.742148 
L 853.645252 -671.595391 
L 854.804053 -670.448634 
L 855.970756 -669.301877 
L 857.140122 -668.15512 
L 858.306548 -667.008363 
L 859.464138 -665.861606 
L 860.606781 -664.714849 
L 861.728213 -663.568092 
L 862.822079 -662.421334 
L 863.881976 -661.274577 
L 864.901487 -660.12782 
L 865.874203 -658.981063 
L 866.793737 -657.834306 
L 867.653724 -656.687549 
L 868.447827 -655.540792 
L 869.169741 -654.394035 
L 869.813205 -653.247278 
L 870.372026 -652.100521 
L 870.840118 -650.953764 
L 871.211559 -649.807007 
L 871.480665 -648.66025 
L 871.642086 -647.513493 
L 871.690909 -646.366736 
L 871.62278 -645.219979 
L 871.434019 -644.073222 
L 871.121744 -642.926465 
L 870.683973 -641.779708 
L 870.119716 -640.632951 
L 869.429042 -639.486194 
L 868.613114 -638.339437 
L 867.674197 -637.19268 
L 866.615632 -636.045923 
L 865.441778 -634.899165 
L 864.157926 -633.752408 
L 862.770198 -632.605651 
L 861.285424 -631.458894 
L 859.711015 -630.312137 
L 858.05484 -629.16538 
L 856.325106 -628.018623 
L 854.530257 -626.871866 
L 852.678887 -625.725109 
L 850.779678 -624.578352 
L 848.841355 -623.431595 
L 846.872664 -622.284838 
L 844.882355 -621.138081 
L 842.879185 -619.991324 
L 840.871916 -618.844567 
L 838.869307 -617.69781 
L 836.880105 -616.551053 
z
" style="stroke: #1a85ff; stroke-width: 1.8"/>
    </defs>
    <g clip-path="url(#p09743c7c3b)">
     <use xlink:href="#m0299aa0fee" x="0" y="864" style="fill: #1a85ff; fill-opacity: 0.45; stroke: #1a85ff; stroke-width: 1.8"/>
    </g>
   </g>
   <g id="PathCollection_1">
    <defs>
     <path id="m5142d23590" d="M -3.061862 6.123724 
L 0 3.061862 
L 3.061862 6.123724 
L 6.123724 3.061862 
L 3.061862 0 
L 6.123724 -3.061862 
L 3.061862 -6.123724 
L 0 -3.061862 
L -3.061862 -6.123724 
L -6.123724 -3.061862 
L -3.061862 0 
L -6.123724 3.061862 
z
" style="stroke: #000000; stroke-opacity: 0.8; stroke-width: 2"/>
    </defs>
    <g clip-path="url(#p09743c7c3b)">
     <use xlink:href="#m5142d23590" x="161.509091" y="738.72" style="fill: #1a85ff; fill-opacity: 0.8; stroke: #000000; stroke-opacity: 0.8; stroke-width: 2"/>
    </g>
   </g>
   <g id="PathCollection_2">
    <g clip-path="url(#p09743c7c3b)">
     <use xlink:href="#m5142d23590" x="645.723967" y="738.72" style="fill: #1a85ff; fill-opacity: 0.8; stroke: #000000; stroke-opacity: 0.8; stroke-width: 2"/>
    </g>
   </g>
   <g id="FillBetweenPolyCollection_4">
    <defs>
     <path id="m5c35e67608" d="M 361.259759 -207.137647 
L 284.56834 -207.137647 
L 283.301537 -207.300992 
L 282.201529 -207.464337 
L 281.2818 -207.627681 
L 280.552805 -207.791026 
L 280.021649 -207.954371 
L 279.691865 -208.117715 
L 279.563288 -208.28106 
L 279.632023 -208.444405 
L 279.89052 -208.607749 
L 280.327752 -208.771094 
L 280.92948 -208.934439 
L 281.678603 -209.097783 
L 282.555575 -209.261128 
L 283.538879 -209.424473 
L 284.605532 -209.587817 
L 285.731607 -209.751162 
L 286.892754 -209.914507 
L 288.064706 -210.077851 
L 289.223737 -210.241196 
L 290.347091 -210.404541 
L 291.413331 -210.567885 
L 292.402639 -210.73123 
L 293.297039 -210.894575 
L 294.080552 -211.057919 
L 294.739289 -211.221264 
L 295.261477 -211.384609 
L 295.637445 -211.547953 
L 295.859564 -211.711298 
L 295.922163 -211.874643 
L 295.821424 -212.037987 
L 295.555283 -212.201332 
L 295.123326 -212.364677 
L 294.526705 -212.528021 
L 293.768078 -212.691366 
L 292.851567 -212.854711 
L 291.782747 -213.018055 
L 290.568649 -213.1814 
L 289.217795 -213.344745 
L 287.740226 -213.508089 
L 286.14755 -213.671434 
L 284.452966 -213.834779 
L 282.671279 -213.998123 
L 280.818881 -214.161468 
L 278.913698 -214.324813 
L 276.97508 -214.488157 
L 275.023657 -214.651502 
L 273.08112 -214.814847 
L 271.169962 -214.978191 
L 269.313161 -215.141536 
L 267.533819 -215.304881 
L 265.85477 -215.468225 
L 264.298154 -215.63157 
L 262.884987 -215.794914 
L 261.634737 -215.958259 
L 260.564914 -216.121604 
L 259.690696 -216.284948 
L 259.024603 -216.448293 
L 258.576234 -216.611638 
L 258.352066 -216.774982 
L 258.355345 -216.938327 
L 258.586041 -217.101672 
L 259.040899 -217.265016 
L 259.713563 -217.428361 
L 260.594772 -217.591706 
L 261.672631 -217.75505 
L 262.932929 -217.918395 
L 264.359501 -218.08174 
L 265.934628 -218.245084 
L 267.639442 -218.408429 
L 269.454346 -218.571774 
L 271.359419 -218.735118 
L 273.334797 -218.898463 
L 275.361032 -219.061808 
L 277.419412 -219.225152 
L 279.492229 -219.388497 
L 281.563013 -219.551842 
L 283.61671 -219.715186 
L 285.63981 -219.878531 
L 287.620441 -220.041876 
L 289.548404 -220.20522 
L 291.415184 -220.368565 
L 293.213914 -220.53191 
L 294.939321 -220.695254 
L 296.58764 -220.858599 
L 298.156514 -221.021944 
L 299.644871 -221.185288 
L 301.052801 -221.348633 
L 302.381418 -221.511978 
L 303.632719 -221.675322 
L 304.809442 -221.838667 
L 305.91493 -222.002012 
L 306.952984 -222.165356 
L 307.927739 -222.328701 
L 308.843534 -222.492046 
L 309.704793 -222.65539 
L 310.515918 -222.818735 
L 311.281191 -222.98208 
L 312.004692 -223.145424 
L 312.690223 -223.308769 
L 333.137876 -223.308769 
L 333.137876 -223.308769 
L 333.823407 -223.145424 
L 334.546908 -222.98208 
L 335.312181 -222.818735 
L 336.123306 -222.65539 
L 336.984565 -222.492046 
L 337.90036 -222.328701 
L 338.875115 -222.165356 
L 339.91317 -222.002012 
L 341.018657 -221.838667 
L 342.195381 -221.675322 
L 343.446681 -221.511978 
L 344.775298 -221.348633 
L 346.183229 -221.185288 
L 347.671585 -221.021944 
L 349.240459 -220.858599 
L 350.888778 -220.695254 
L 352.614185 -220.53191 
L 354.412915 -220.368565 
L 356.279695 -220.20522 
L 358.207658 -220.041876 
L 360.188289 -219.878531 
L 362.21139 -219.715186 
L 364.265086 -219.551842 
L 366.33587 -219.388497 
L 368.408687 -219.225152 
L 370.467067 -219.061808 
L 372.493302 -218.898463 
L 374.46868 -218.735118 
L 376.373753 -218.571774 
L 378.188657 -218.408429 
L 379.893471 -218.245084 
L 381.468598 -218.08174 
L 382.89517 -217.918395 
L 384.155468 -217.75505 
L 385.233327 -217.591706 
L 386.114536 -217.428361 
L 386.7872 -217.265016 
L 387.242058 -217.101672 
L 387.472754 -216.938327 
L 387.476033 -216.774982 
L 387.251866 -216.611638 
L 386.803496 -216.448293 
L 386.137403 -216.284948 
L 385.263185 -216.121604 
L 384.193362 -215.958259 
L 382.943113 -215.794914 
L 381.529946 -215.63157 
L 379.973329 -215.468225 
L 378.29428 -215.304881 
L 376.514939 -215.141536 
L 374.658137 -214.978191 
L 372.746979 -214.814847 
L 370.804442 -214.651502 
L 368.853019 -214.488157 
L 366.914402 -214.324813 
L 365.009218 -214.161468 
L 363.15682 -213.998123 
L 361.375133 -213.834779 
L 359.680549 -213.671434 
L 358.087873 -213.508089 
L 356.610305 -213.344745 
L 355.25945 -213.1814 
L 354.045353 -213.018055 
L 352.976532 -212.854711 
L 352.060021 -212.691366 
L 351.301394 -212.528021 
L 350.704773 -212.364677 
L 350.272816 -212.201332 
L 350.006675 -212.037987 
L 349.905936 -211.874643 
L 349.968535 -211.711298 
L 350.190654 -211.547953 
L 350.566622 -211.384609 
L 351.08881 -211.221264 
L 351.747547 -211.057919 
L 352.53106 -210.894575 
L 353.425461 -210.73123 
L 354.414769 -210.567885 
L 355.481008 -210.404541 
L 356.604362 -210.241196 
L 357.763394 -210.077851 
L 358.935345 -209.914507 
L 360.096493 -209.751162 
L 361.222567 -209.587817 
L 362.28922 -209.424473 
L 363.272524 -209.261128 
L 364.149496 -209.097783 
L 364.898619 -208.934439 
L 365.500347 -208.771094 
L 365.937579 -208.607749 
L 366.196076 -208.444405 
L 366.264811 -208.28106 
L 366.136234 -208.117715 
L 365.80645 -207.954371 
L 365.275294 -207.791026 
L 364.546299 -207.627681 
L 363.626571 -207.464337 
L 362.526562 -207.300992 
L 361.259759 -207.137647 
z
" style="stroke: #d41159; stroke-width: 1.8"/>
    </defs>
    <g clip-path="url(#p09743c7c3b)">
     <use xlink:href="#m5c35e67608" x="0" y="864" style="fill: #d41159; fill-opacity: 0.45; stroke: #d41159; stroke-width: 1.8"/>
    </g>
   </g>
   <g id="FillBetweenPolyCollection_5">
    <defs>
     <path id="ma27b1db46b" d="M 519.273222 -188.69656 
L 449.364795 -188.69656 
L 447.502106 -188.803141 
L 445.730593 -188.909722 
L 444.070249 -189.016302 
L 442.539748 -189.122883 
L 441.155984 -189.229464 
L 439.933646 -189.336045 
L 438.884845 -189.442625 
L 438.018807 -189.549206 
L 437.341634 -189.655787 
L 436.856159 -189.762368 
L 436.561879 -189.868948 
L 436.454983 -189.975529 
L 436.528466 -190.08211 
L 436.772325 -190.188691 
L 437.173825 -190.295271 
L 437.717832 -190.401852 
L 438.387195 -190.508433 
L 439.163155 -190.615014 
L 440.025784 -190.721594 
L 440.954424 -190.828175 
L 441.928112 -190.934756 
L 442.92599 -191.041337 
L 443.927679 -191.147917 
L 444.91361 -191.254498 
L 445.865307 -191.361079 
L 446.765618 -191.46766 
L 447.598897 -191.574241 
L 448.351126 -191.680821 
L 449.009995 -191.787402 
L 449.564936 -191.893983 
L 450.007117 -192.000564 
L 450.329408 -192.107144 
L 450.526317 -192.213725 
L 450.593919 -192.320306 
L 450.529767 -192.426887 
L 450.332802 -192.533467 
L 450.003267 -192.640048 
L 449.542627 -192.746629 
L 448.953495 -192.85321 
L 448.239578 -192.95979 
L 447.405629 -193.066371 
L 446.457417 -193.172952 
L 445.401707 -193.279533 
L 444.246248 -193.386113 
L 442.999777 -193.492694 
L 441.672017 -193.599275 
L 440.273679 -193.705856 
L 438.816461 -193.812436 
L 437.313036 -193.919017 
L 435.777024 -194.025598 
L 434.222952 -194.132179 
L 432.666181 -194.238759 
L 431.122817 -194.34534 
L 429.609588 -194.451921 
L 428.143687 -194.558502 
L 426.742591 -194.665083 
L 425.423846 -194.771663 
L 424.204822 -194.878244 
L 423.102446 -194.984825 
L 422.132921 -195.091406 
L 421.311424 -195.197986 
L 420.651815 -195.304567 
L 420.166334 -195.411148 
L 419.865334 -195.517729 
L 419.757025 -195.624309 
L 419.847262 -195.73089 
L 420.139376 -195.837471 
L 420.634059 -195.944052 
L 421.329304 -196.050632 
L 422.220418 -196.157213 
L 423.300089 -196.263794 
L 424.558528 -196.370375 
L 425.983663 -196.476955 
L 427.561402 -196.583536 
L 429.275932 -196.690117 
L 431.110066 -196.796698 
L 433.045611 -196.903278 
L 435.063759 -197.009859 
L 437.145477 -197.11644 
L 439.271884 -197.223021 
L 441.424619 -197.329602 
L 443.58616 -197.436182 
L 445.740118 -197.542763 
L 447.871476 -197.649344 
L 449.966771 -197.755925 
L 452.01423 -197.862505 
L 454.003843 -197.969086 
L 455.927382 -198.075667 
L 457.778377 -198.182248 
L 459.552036 -198.288828 
L 461.245138 -198.395409 
L 462.855885 -198.50199 
L 464.383743 -198.608571 
L 465.829257 -198.715151 
L 467.19387 -198.821732 
L 468.479737 -198.928313 
L 469.689549 -199.034894 
L 470.826371 -199.141474 
L 471.893493 -199.248055 
L 496.744524 -199.248055 
L 496.744524 -199.248055 
L 497.811646 -199.141474 
L 498.948467 -199.034894 
L 500.15828 -198.928313 
L 501.444147 -198.821732 
L 502.808759 -198.715151 
L 504.254274 -198.608571 
L 505.782131 -198.50199 
L 507.392879 -198.395409 
L 509.08598 -198.288828 
L 510.85964 -198.182248 
L 512.710635 -198.075667 
L 514.634174 -197.969086 
L 516.623786 -197.862505 
L 518.671245 -197.755925 
L 520.76654 -197.649344 
L 522.897898 -197.542763 
L 525.051857 -197.436182 
L 527.213398 -197.329602 
L 529.366132 -197.223021 
L 531.49254 -197.11644 
L 533.574257 -197.009859 
L 535.592406 -196.903278 
L 537.527951 -196.796698 
L 539.362084 -196.690117 
L 541.076614 -196.583536 
L 542.654353 -196.476955 
L 544.079489 -196.370375 
L 545.337927 -196.263794 
L 546.417598 -196.157213 
L 547.308712 -196.050632 
L 548.003958 -195.944052 
L 548.49864 -195.837471 
L 548.790755 -195.73089 
L 548.880992 -195.624309 
L 548.772683 -195.517729 
L 548.471683 -195.411148 
L 547.986202 -195.304567 
L 547.326592 -195.197986 
L 546.505096 -195.091406 
L 545.535571 -194.984825 
L 544.433195 -194.878244 
L 543.21417 -194.771663 
L 541.895425 -194.665083 
L 540.49433 -194.558502 
L 539.028429 -194.451921 
L 537.515199 -194.34534 
L 535.971836 -194.238759 
L 534.415065 -194.132179 
L 532.860992 -194.025598 
L 531.324981 -193.919017 
L 529.821555 -193.812436 
L 528.364337 -193.705856 
L 526.965999 -193.599275 
L 525.638239 -193.492694 
L 524.391768 -193.386113 
L 523.23631 -193.279533 
L 522.180599 -193.172952 
L 521.232387 -193.066371 
L 520.398439 -192.95979 
L 519.684522 -192.85321 
L 519.09539 -192.746629 
L 518.634749 -192.640048 
L 518.305215 -192.533467 
L 518.10825 -192.426887 
L 518.044098 -192.320306 
L 518.1117 -192.213725 
L 518.308609 -192.107144 
L 518.630899 -192.000564 
L 519.073081 -191.893983 
L 519.628022 -191.787402 
L 520.286891 -191.680821 
L 521.03912 -191.574241 
L 521.872398 -191.46766 
L 522.77271 -191.361079 
L 523.724406 -191.254498 
L 524.710337 -191.147917 
L 525.712026 -191.041337 
L 526.709905 -190.934756 
L 527.683592 -190.828175 
L 528.612232 -190.721594 
L 529.474862 -190.615014 
L 530.250822 -190.508433 
L 530.920184 -190.401852 
L 531.464192 -190.295271 
L 531.865691 -190.188691 
L 532.10955 -190.08211 
L 532.183034 -189.975529 
L 532.076138 -189.868948 
L 531.781858 -189.762368 
L 531.296383 -189.655787 
L 530.61921 -189.549206 
L 529.753171 -189.442625 
L 528.704371 -189.336045 
L 527.482033 -189.229464 
L 526.098269 -189.122883 
L 524.567768 -189.016302 
L 522.907424 -188.909722 
L 521.13591 -188.803141 
L 519.273222 -188.69656 
z
" style="stroke: #d41159; stroke-width: 1.8"/>
    </defs>
    <g clip-path="url(#p09743c7c3b)">
     <use xlink:href="#ma27b1db46b" x="0" y="864" style="fill: #d41159; fill-opacity: 0.45; stroke: #d41159; stroke-width: 1.8"/>
    </g>
   </g>
   <g id="FillBetweenPolyCollection_6">
    <defs>
     <path id="m27d90b2903" d="M 843.202145 -618.128039 
L 771.055707 -618.128039 
L 768.612884 -619.021937 
L 766.173219 -619.915835 
L 763.756446 -620.809733 
L 761.382902 -621.703631 
L 759.073185 -622.597529 
L 756.847806 -623.491427 
L 754.726816 -624.385325 
L 752.729445 -625.279223 
L 750.873743 -626.173121 
L 749.176241 -627.067019 
L 747.65164 -627.960917 
L 746.312539 -628.854815 
L 745.169206 -629.748713 
L 744.229396 -630.642611 
L 743.498223 -631.536509 
L 742.978089 -632.430407 
L 742.668668 -633.324305 
L 742.566942 -634.218203 
L 742.667292 -635.112101 
L 742.961628 -636.005999 
L 743.43957 -636.899897 
L 744.088655 -637.793795 
L 744.894575 -638.687693 
L 745.841437 -639.581591 
L 746.912033 -640.475489 
L 748.088126 -641.369387 
L 749.35073 -642.263285 
L 750.68039 -643.157183 
L 752.057464 -644.051081 
L 753.46238 -644.944979 
L 754.875899 -645.838877 
L 756.279352 -646.732775 
L 757.654864 -647.626673 
L 758.985571 -648.520571 
L 760.255804 -649.414469 
L 761.451274 -650.308367 
L 762.559219 -651.202265 
L 763.568542 -652.096163 
L 764.469923 -652.990061 
L 765.255905 -653.883959 
L 765.920955 -654.777857 
L 766.461497 -655.671755 
L 766.875911 -656.565653 
L 767.164507 -657.459551 
L 767.329466 -658.353449 
L 767.374745 -659.247347 
L 767.30596 -660.141245 
L 767.130234 -661.035143 
L 766.856032 -661.929041 
L 766.492961 -662.822939 
L 766.051572 -663.716837 
L 765.543141 -664.610735 
L 764.979451 -665.504633 
L 764.372582 -666.398531 
L 763.734701 -667.292429 
L 763.077871 -668.186327 
L 762.413884 -669.080225 
L 761.754105 -669.974123 
L 761.10935 -670.868021 
L 760.489785 -671.761919 
L 759.904855 -672.655817 
L 759.363233 -673.549715 
L 758.872792 -674.443613 
L 758.440599 -675.337511 
L 758.072923 -676.231409 
L 757.775252 -677.125307 
L 757.552317 -678.019205 
L 757.408126 -678.913103 
L 757.345989 -679.807001 
L 757.368542 -680.700899 
L 757.477775 -681.594797 
L 757.675043 -682.488695 
L 757.961077 -683.382593 
L 758.335989 -684.276491 
L 758.799275 -685.170389 
L 759.349815 -686.064287 
L 759.985876 -686.958185 
L 760.705115 -687.852083 
L 761.504592 -688.745981 
L 762.380787 -689.639879 
L 763.329631 -690.533777 
L 764.346543 -691.427675 
L 765.426481 -692.321573 
L 766.563997 -693.215471 
L 767.753311 -694.109369 
L 768.988381 -695.003267 
L 770.262986 -695.897165 
L 771.570801 -696.791063 
L 772.905486 -697.684961 
L 774.260754 -698.578859 
L 775.630447 -699.472757 
L 777.008595 -700.366655 
L 778.389472 -701.260553 
L 779.767633 -702.154451 
L 781.13795 -703.048349 
L 782.495629 -703.942247 
L 783.83622 -704.836145 
L 785.15562 -705.730043 
L 786.450066 -706.623941 
L 827.807785 -706.623941 
L 827.807785 -706.623941 
L 829.102232 -705.730043 
L 830.421632 -704.836145 
L 831.762223 -703.942247 
L 833.119901 -703.048349 
L 834.490218 -702.154451 
L 835.86838 -701.260553 
L 837.249256 -700.366655 
L 838.627405 -699.472757 
L 839.997097 -698.578859 
L 841.352365 -697.684961 
L 842.68705 -696.791063 
L 843.994866 -695.897165 
L 845.26947 -695.003267 
L 846.50454 -694.109369 
L 847.693854 -693.215471 
L 848.831371 -692.321573 
L 849.911308 -691.427675 
L 850.92822 -690.533777 
L 851.877064 -689.639879 
L 852.753259 -688.745981 
L 853.552736 -687.852083 
L 854.271975 -686.958185 
L 854.908036 -686.064287 
L 855.458577 -685.170389 
L 855.921863 -684.276491 
L 856.296774 -683.382593 
L 856.582808 -682.488695 
L 856.780076 -681.594797 
L 856.889309 -680.700899 
L 856.911863 -679.807001 
L 856.849725 -678.913103 
L 856.705534 -678.019205 
L 856.482599 -677.125307 
L 856.184928 -676.231409 
L 855.817252 -675.337511 
L 855.38506 -674.443613 
L 854.894619 -673.549715 
L 854.352996 -672.655817 
L 853.768066 -671.761919 
L 853.148502 -670.868021 
L 852.503746 -669.974123 
L 851.843967 -669.080225 
L 851.17998 -668.186327 
L 850.523151 -667.292429 
L 849.885269 -666.398531 
L 849.2784 -665.504633 
L 848.714711 -664.610735 
L 848.206279 -663.716837 
L 847.76489 -662.822939 
L 847.40182 -661.929041 
L 847.127617 -661.035143 
L 846.951892 -660.141245 
L 846.883106 -659.247347 
L 846.928385 -658.353449 
L 847.093344 -657.459551 
L 847.381941 -656.565653 
L 847.796354 -655.671755 
L 848.336896 -654.777857 
L 849.001946 -653.883959 
L 849.787929 -652.990061 
L 850.689309 -652.096163 
L 851.698632 -651.202265 
L 852.806577 -650.308367 
L 854.002047 -649.414469 
L 855.272281 -648.520571 
L 856.602987 -647.626673 
L 857.978499 -646.732775 
L 859.381952 -645.838877 
L 860.795471 -644.944979 
L 862.200388 -644.051081 
L 863.577461 -643.157183 
L 864.907121 -642.263285 
L 866.169725 -641.369387 
L 867.345818 -640.475489 
L 868.416415 -639.581591 
L 869.363276 -638.687693 
L 870.169196 -637.793795 
L 870.818281 -636.899897 
L 871.296224 -636.005999 
L 871.59056 -635.112101 
L 871.690909 -634.218203 
L 871.589183 -633.324305 
L 871.279762 -632.430407 
L 870.759628 -631.536509 
L 870.028455 -630.642611 
L 869.088645 -629.748713 
L 867.945312 -628.854815 
L 866.606212 -627.960917 
L 865.08161 -627.067019 
L 863.384108 -626.173121 
L 861.528406 -625.279223 
L 859.531035 -624.385325 
L 857.410045 -623.491427 
L 855.184666 -622.597529 
L 852.874949 -621.703631 
L 850.501405 -620.809733 
L 848.084633 -619.915835 
L 845.644967 -619.021937 
L 843.202145 -618.128039 
z
" style="stroke: #d41159; stroke-width: 1.8"/>
    </defs>
    <g clip-path="url(#p09743c7c3b)">
     <use xlink:href="#m27d90b2903" x="0" y="864" style="fill: #d41159; fill-opacity: 0.45; stroke: #d41159; stroke-width: 1.8"/>
    </g>
   </g>
   <g id="PathCollection_3">
    <defs>
     <path id="m9854e8109f" d="M -3.061862 6.123724 
L 0 3.061862 
L 3.061862 6.123724 
L 6.123724 3.061862 
L 3.061862 0 
L 6.123724 -3.061862 
L 3.061862 -6.123724 
L 0 -3.061862 
L -3.061862 -6.123724 
L -6.123724 -3.061862 
L -3.061862 0 
L -6.123724 3.061862 
z
" style="stroke: #000000; stroke-opacity: 0.8; stroke-width: 2"/>
    </defs>
    <g clip-path="url(#p09743c7c3b)">
     <use xlink:href="#m9854e8109f" x="161.509091" y="738.72" style="fill: #d41159; fill-opacity: 0.8; stroke: #000000; stroke-opacity: 0.8; stroke-width: 2"/>
    </g>
   </g>
   <g id="PathCollection_4">
    <g clip-path="url(#p09743c7c3b)">
     <use xlink:href="#m9854e8109f" x="645.723967" y="738.72" style="fill: #d41159; fill-opacity: 0.8; stroke: #000000; stroke-opacity: 0.8; stroke-width: 2"/>
    </g>
   </g>
   <g id="FillBetweenPolyCollection_7">
    <defs>
     <path id="md9b817f1e8" d="M 344.27105 -207.342665 
L 301.557049 -207.342665 
L 300.269127 -207.507682 
L 299.03932 -207.672699 
L 297.879887 -207.837716 
L 296.801265 -208.002733 
L 295.811742 -208.16775 
L 294.917228 -208.332767 
L 294.121136 -208.497783 
L 293.424358 -208.6628 
L 292.82537 -208.827817 
L 292.32042 -208.992834 
L 291.903828 -209.157851 
L 291.568334 -209.322868 
L 291.305511 -209.487885 
L 291.106187 -209.652902 
L 290.960862 -209.817918 
L 290.860089 -209.982935 
L 290.79479 -210.147952 
L 290.7565 -210.312969 
L 290.737503 -210.477986 
L 290.730875 -210.643003 
L 290.730421 -210.80802 
L 290.730516 -210.973036 
L 290.725872 -211.138053 
L 290.711245 -211.30307 
L 290.681119 -211.468087 
L 290.629386 -211.633104 
L 290.549069 -211.798121 
L 290.432102 -211.963138 
L 290.269214 -212.128155 
L 290.049919 -212.293171 
L 289.762645 -212.458188 
L 289.395002 -212.623205 
L 288.934178 -212.788222 
L 288.367468 -212.953239 
L 287.682898 -213.118256 
L 286.869927 -213.283273 
L 285.920177 -213.44829 
L 284.828165 -213.613306 
L 283.591972 -213.778323 
L 282.213832 -213.94334 
L 280.700575 -214.108357 
L 279.063911 -214.273374 
L 277.320508 -214.438391 
L 275.491863 -214.603408 
L 273.603963 -214.768425 
L 271.68672 -214.933441 
L 269.773222 -215.098458 
L 267.898824 -215.263475 
L 266.100103 -215.428492 
L 264.413737 -215.593509 
L 262.875359 -215.758526 
L 261.518424 -215.923543 
L 260.373149 -216.088559 
L 259.465583 -216.253576 
L 258.816823 -216.418593 
L 258.442432 -216.58361 
L 258.352066 -216.748627 
L 258.549334 -216.913644 
L 259.031872 -217.078661 
L 259.79164 -217.243678 
L 260.815406 -217.408694 
L 262.085389 -217.573711 
L 263.580032 -217.738728 
L 265.274848 -217.903745 
L 267.143317 -218.068762 
L 269.157762 -218.233779 
L 271.290202 -218.398796 
L 273.513106 -218.563813 
L 275.800062 -218.728829 
L 278.126303 -218.893846 
L 280.469113 -219.058863 
L 282.808086 -219.22388 
L 285.125256 -219.388897 
L 287.405114 -219.553914 
L 289.634519 -219.718931 
L 291.802541 -219.883947 
L 293.900244 -220.048964 
L 295.920446 -220.213981 
L 297.857477 -220.378998 
L 299.706943 -220.544015 
L 301.465531 -220.709032 
L 303.130842 -220.874049 
L 304.701274 -221.039066 
L 306.175946 -221.204082 
L 307.554662 -221.369099 
L 308.837901 -221.534116 
L 310.026829 -221.699133 
L 311.123317 -221.86415 
L 312.129957 -222.029167 
L 313.050057 -222.194184 
L 313.887625 -222.359201 
L 314.647315 -222.524217 
L 315.334353 -222.689234 
L 315.954424 -222.854251 
L 316.513547 -223.019268 
L 317.017923 -223.184285 
L 317.473781 -223.349302 
L 317.887214 -223.514319 
L 318.264035 -223.679336 
L 327.564064 -223.679336 
L 327.564064 -223.679336 
L 327.940885 -223.514319 
L 328.354319 -223.349302 
L 328.810176 -223.184285 
L 329.314552 -223.019268 
L 329.873675 -222.854251 
L 330.493746 -222.689234 
L 331.180784 -222.524217 
L 331.940475 -222.359201 
L 332.778043 -222.194184 
L 333.698143 -222.029167 
L 334.704782 -221.86415 
L 335.80127 -221.699133 
L 336.990198 -221.534116 
L 338.273437 -221.369099 
L 339.652153 -221.204082 
L 341.126825 -221.039066 
L 342.697257 -220.874049 
L 344.362568 -220.709032 
L 346.121156 -220.544015 
L 347.970622 -220.378998 
L 349.907653 -220.213981 
L 351.927855 -220.048964 
L 354.025558 -219.883947 
L 356.19358 -219.718931 
L 358.422986 -219.553914 
L 360.702843 -219.388897 
L 363.020013 -219.22388 
L 365.358986 -219.058863 
L 367.701796 -218.893846 
L 370.028037 -218.728829 
L 372.314993 -218.563813 
L 374.537897 -218.398796 
L 376.670337 -218.233779 
L 378.684782 -218.068762 
L 380.553251 -217.903745 
L 382.248068 -217.738728 
L 383.74271 -217.573711 
L 385.012693 -217.408694 
L 386.036459 -217.243678 
L 386.796227 -217.078661 
L 387.278765 -216.913644 
L 387.476033 -216.748627 
L 387.385668 -216.58361 
L 387.011276 -216.418593 
L 386.362516 -216.253576 
L 385.45495 -216.088559 
L 384.309676 -215.923543 
L 382.95274 -215.758526 
L 381.414362 -215.593509 
L 379.727997 -215.428492 
L 377.929275 -215.263475 
L 376.054877 -215.098458 
L 374.14138 -214.933441 
L 372.224136 -214.768425 
L 370.336236 -214.603408 
L 368.507592 -214.438391 
L 366.764188 -214.273374 
L 365.127524 -214.108357 
L 363.614268 -213.94334 
L 362.236127 -213.778323 
L 360.999934 -213.613306 
L 359.907922 -213.44829 
L 358.958173 -213.283273 
L 358.145202 -213.118256 
L 357.460632 -212.953239 
L 356.893921 -212.788222 
L 356.433097 -212.623205 
L 356.065454 -212.458188 
L 355.778181 -212.293171 
L 355.558885 -212.128155 
L 355.395997 -211.963138 
L 355.279031 -211.798121 
L 355.198713 -211.633104 
L 355.14698 -211.468087 
L 355.116854 -211.30307 
L 355.102228 -211.138053 
L 355.097583 -210.973036 
L 355.097678 -210.80802 
L 355.097224 -210.643003 
L 355.090596 -210.477986 
L 355.071599 -210.312969 
L 355.033309 -210.147952 
L 354.968011 -209.982935 
L 354.867237 -209.817918 
L 354.721912 -209.652902 
L 354.522588 -209.487885 
L 354.259765 -209.322868 
L 353.924271 -209.157851 
L 353.507679 -208.992834 
L 353.00273 -208.827817 
L 352.403741 -208.6628 
L 351.706964 -208.497783 
L 350.910871 -208.332767 
L 350.016358 -208.16775 
L 349.026834 -208.002733 
L 347.948212 -207.837716 
L 346.78878 -207.672699 
L 345.558972 -207.507682 
L 344.27105 -207.342665 
z
" style="stroke: #004d40; stroke-width: 1.8"/>
    </defs>
    <g clip-path="url(#p09743c7c3b)">
     <use xlink:href="#md9b817f1e8" x="0" y="864" style="fill: #004d40; fill-opacity: 0.45; stroke: #004d40; stroke-width: 1.8"/>
    </g>
   </g>
   <g id="FillBetweenPolyCollection_8">
    <defs>
     <path id="m4ec7233dd2" d="M 524.804065 -188.589877 
L 443.833952 -188.589877 
L 442.538829 -188.694652 
L 441.382041 -188.799427 
L 440.375298 -188.904201 
L 439.528353 -189.008976 
L 438.848782 -189.113751 
L 438.341817 -189.218526 
L 438.010224 -189.323301 
L 437.854239 -189.428076 
L 437.871564 -189.53285 
L 438.057417 -189.637625 
L 438.404633 -189.7424 
L 438.903824 -189.847175 
L 439.543581 -189.95195 
L 440.31071 -190.056725 
L 441.190511 -190.161499 
L 442.167067 -190.266274 
L 443.223554 -190.371049 
L 444.342554 -190.475824 
L 445.506358 -190.580599 
L 446.697265 -190.685374 
L 447.89785 -190.790148 
L 449.091211 -190.894923 
L 450.261185 -190.999698 
L 451.392524 -191.104473 
L 452.471041 -191.209248 
L 453.483708 -191.314023 
L 454.418732 -191.418797 
L 455.265585 -191.523572 
L 456.015014 -191.628347 
L 456.659018 -191.733122 
L 457.190812 -191.837897 
L 457.60477 -191.942671 
L 457.896366 -192.047446 
L 458.062106 -192.152221 
L 458.099463 -192.256996 
L 458.006822 -192.361771 
L 457.783427 -192.466546 
L 457.429341 -192.57132 
L 456.945429 -192.676095 
L 456.333337 -192.78087 
L 455.595501 -192.885645 
L 454.735159 -192.99042 
L 453.756372 -193.095195 
L 452.664056 -193.199969 
L 451.464014 -193.304744 
L 450.162973 -193.409519 
L 448.768608 -193.514294 
L 447.289569 -193.619069 
L 445.73549 -193.723844 
L 444.116986 -193.828618 
L 442.445633 -193.933393 
L 440.733929 -194.038168 
L 438.995233 -194.142943 
L 437.243686 -194.247718 
L 435.494104 -194.352493 
L 433.761858 -194.457267 
L 432.062725 -194.562042 
L 430.412729 -194.666817 
L 428.827958 -194.771592 
L 427.324379 -194.876367 
L 425.91763 -194.981142 
L 424.622817 -195.085916 
L 423.454308 -195.190691 
L 422.425522 -195.295466 
L 421.548734 -195.400241 
L 420.83489 -195.505016 
L 420.29343 -195.609791 
L 419.93214 -195.714565 
L 419.757025 -195.81934 
L 419.7722 -195.924115 
L 419.979824 -196.02889 
L 420.380054 -196.133665 
L 420.971039 -196.23844 
L 421.748939 -196.343214 
L 422.70799 -196.447989 
L 423.840587 -196.552764 
L 425.137412 -196.657539 
L 426.587578 -196.762314 
L 428.178805 -196.867089 
L 429.89762 -196.971863 
L 431.729566 -197.076638 
L 433.659435 -197.181413 
L 435.671495 -197.286188 
L 437.749735 -197.390963 
L 439.878092 -197.495737 
L 442.040685 -197.600512 
L 444.222026 -197.705287 
L 446.407219 -197.810062 
L 448.58214 -197.914837 
L 450.73359 -198.019612 
L 452.84943 -198.124386 
L 454.918679 -198.229161 
L 456.931589 -198.333936 
L 458.879698 -198.438711 
L 460.755845 -198.543486 
L 462.554167 -198.648261 
L 464.270074 -198.753035 
L 465.900192 -198.85781 
L 467.442304 -198.962585 
L 501.195713 -198.962585 
L 501.195713 -198.962585 
L 502.737825 -198.85781 
L 504.367943 -198.753035 
L 506.083849 -198.648261 
L 507.882172 -198.543486 
L 509.758319 -198.438711 
L 511.706428 -198.333936 
L 513.719338 -198.229161 
L 515.788586 -198.124386 
L 517.904426 -198.019612 
L 520.055877 -197.914837 
L 522.230798 -197.810062 
L 524.41599 -197.705287 
L 526.597331 -197.600512 
L 528.759924 -197.495737 
L 530.888282 -197.390963 
L 532.966521 -197.286188 
L 534.978582 -197.181413 
L 536.90845 -197.076638 
L 538.740397 -196.971863 
L 540.459212 -196.867089 
L 542.050439 -196.762314 
L 543.500604 -196.657539 
L 544.797429 -196.552764 
L 545.930027 -196.447989 
L 546.889078 -196.343214 
L 547.666978 -196.23844 
L 548.257962 -196.133665 
L 548.658192 -196.02889 
L 548.865817 -195.924115 
L 548.880992 -195.81934 
L 548.705876 -195.714565 
L 548.344587 -195.609791 
L 547.803127 -195.505016 
L 547.089282 -195.400241 
L 546.212495 -195.295466 
L 545.183709 -195.190691 
L 544.015199 -195.085916 
L 542.720387 -194.981142 
L 541.313638 -194.876367 
L 539.810058 -194.771592 
L 538.225288 -194.666817 
L 536.575292 -194.562042 
L 534.876159 -194.457267 
L 533.143912 -194.352493 
L 531.39433 -194.247718 
L 529.642783 -194.142943 
L 527.904087 -194.038168 
L 526.192383 -193.933393 
L 524.52103 -193.828618 
L 522.902526 -193.723844 
L 521.348448 -193.619069 
L 519.869409 -193.514294 
L 518.475044 -193.409519 
L 517.174002 -193.304744 
L 515.97396 -193.199969 
L 514.881644 -193.095195 
L 513.902857 -192.99042 
L 513.042515 -192.885645 
L 512.30468 -192.78087 
L 511.692588 -192.676095 
L 511.208675 -192.57132 
L 510.85459 -192.466546 
L 510.631194 -192.361771 
L 510.538553 -192.256996 
L 510.575911 -192.152221 
L 510.741651 -192.047446 
L 511.033246 -191.942671 
L 511.447204 -191.837897 
L 511.978998 -191.733122 
L 512.623002 -191.628347 
L 513.372431 -191.523572 
L 514.219285 -191.418797 
L 515.154309 -191.314023 
L 516.166976 -191.209248 
L 517.245492 -191.104473 
L 518.376832 -190.999698 
L 519.546806 -190.894923 
L 520.740167 -190.790148 
L 521.940751 -190.685374 
L 523.131658 -190.580599 
L 524.295463 -190.475824 
L 525.414462 -190.371049 
L 526.47095 -190.266274 
L 527.447505 -190.161499 
L 528.327306 -190.056725 
L 529.094436 -189.95195 
L 529.734192 -189.847175 
L 530.233384 -189.7424 
L 530.5806 -189.637625 
L 530.766453 -189.53285 
L 530.783778 -189.428076 
L 530.627793 -189.323301 
L 530.296199 -189.218526 
L 529.789234 -189.113751 
L 529.109664 -189.008976 
L 528.262719 -188.904201 
L 527.255976 -188.799427 
L 526.099188 -188.694652 
L 524.804065 -188.589877 
z
" style="stroke: #004d40; stroke-width: 1.8"/>
    </defs>
    <g clip-path="url(#p09743c7c3b)">
     <use xlink:href="#m4ec7233dd2" x="0" y="864" style="fill: #004d40; fill-opacity: 0.45; stroke: #004d40; stroke-width: 1.8"/>
    </g>
   </g>
   <g id="FillBetweenPolyCollection_9">
    <defs>
     <path id="m02a07fc588" d="M 836.568503 -615.669524 
L 777.689349 -615.669524 
L 775.185704 -616.697625 
L 772.639739 -617.725727 
L 770.071902 -618.753829 
L 767.503927 -619.78193 
L 764.958458 -620.810032 
L 762.458637 -621.838134 
L 760.027678 -622.866235 
L 757.688436 -623.894337 
L 755.462974 -624.922439 
L 753.372157 -625.95054 
L 751.43527 -626.978642 
L 749.669674 -628.006743 
L 748.090503 -629.034845 
L 746.710413 -630.062947 
L 745.539376 -631.091048 
L 744.584522 -632.11915 
L 743.850037 -633.147252 
L 743.337096 -634.175353 
L 743.043844 -635.203455 
L 742.965414 -636.231557 
L 743.093982 -637.259658 
L 743.418854 -638.28776 
L 743.926587 -639.315861 
L 744.601144 -640.343963 
L 745.424078 -641.372065 
L 746.374754 -642.400166 
L 747.430605 -643.428268 
L 748.567431 -644.45637 
L 749.759729 -645.484471 
L 750.981066 -646.512573 
L 752.204491 -647.540674 
L 753.402979 -648.568776 
L 754.549901 -649.596878 
L 755.619524 -650.624979 
L 756.58751 -651.653081 
L 757.43143 -652.681183 
L 758.131259 -653.709284 
L 758.669849 -654.737386 
L 759.033365 -655.765488 
L 759.211666 -656.793589 
L 759.198629 -657.821691 
L 758.992388 -658.849792 
L 758.595496 -659.877894 
L 758.014985 -660.905996 
L 757.262333 -661.934097 
L 756.353325 -662.962199 
L 755.307805 -663.990301 
L 754.149337 -665.018402 
L 752.904757 -666.046504 
L 751.603641 -667.074606 
L 750.27769 -668.102707 
L 748.960047 -669.130809 
L 747.684559 -670.15891 
L 746.485 -671.187012 
L 745.394277 -672.215114 
L 744.443635 -673.243215 
L 743.661889 -674.271317 
L 743.074695 -675.299419 
L 742.703894 -676.32752 
L 742.566942 -677.355622 
L 742.676456 -678.383724 
L 743.039882 -679.411825 
L 743.659308 -680.439927 
L 744.531436 -681.468028 
L 745.647706 -682.49613 
L 746.994578 -683.524232 
L 748.553969 -684.552333 
L 750.303829 -685.580435 
L 752.218824 -686.608537 
L 754.271128 -687.636638 
L 756.431266 -688.66474 
L 758.668996 -689.692842 
L 760.954187 -690.720943 
L 763.25766 -691.749045 
L 765.55196 -692.777146 
L 767.81204 -693.805248 
L 770.015808 -694.83335 
L 772.144557 -695.861451 
L 774.183232 -696.889553 
L 776.120554 -697.917655 
L 777.948997 -698.945756 
L 779.664623 -699.973858 
L 781.266807 -701.00196 
L 782.757859 -702.030061 
L 784.142573 -703.058163 
L 785.427726 -704.086264 
L 786.621561 -705.114366 
L 787.733272 -706.142468 
L 788.772509 -707.170569 
L 789.748933 -708.198671 
L 790.67183 -709.226773 
L 791.549793 -710.254874 
L 792.390473 -711.282976 
L 793.200417 -712.311078 
L 793.984964 -713.339179 
L 794.748225 -714.367281 
L 795.493105 -715.395382 
L 796.221385 -716.423484 
L 796.933839 -717.451586 
L 817.324012 -717.451586 
L 817.324012 -717.451586 
L 818.036466 -716.423484 
L 818.764746 -715.395382 
L 819.509626 -714.367281 
L 820.272887 -713.339179 
L 821.057435 -712.311078 
L 821.867378 -711.282976 
L 822.708058 -710.254874 
L 823.586021 -709.226773 
L 824.508919 -708.198671 
L 825.485343 -707.170569 
L 826.524579 -706.142468 
L 827.63629 -705.114366 
L 828.830125 -704.086264 
L 830.115278 -703.058163 
L 831.499992 -702.030061 
L 832.991044 -701.00196 
L 834.593229 -699.973858 
L 836.308855 -698.945756 
L 838.137297 -697.917655 
L 840.07462 -696.889553 
L 842.113295 -695.861451 
L 844.242044 -694.83335 
L 846.445812 -693.805248 
L 848.705891 -692.777146 
L 851.000192 -691.749045 
L 853.303664 -690.720943 
L 855.588855 -689.692842 
L 857.826585 -688.66474 
L 859.986723 -687.636638 
L 862.039027 -686.608537 
L 863.954022 -685.580435 
L 865.703882 -684.552333 
L 867.263274 -683.524232 
L 868.610145 -682.49613 
L 869.726415 -681.468028 
L 870.598543 -680.439927 
L 871.21797 -679.411825 
L 871.581395 -678.383724 
L 871.690909 -677.355622 
L 871.553958 -676.32752 
L 871.183156 -675.299419 
L 870.595962 -674.271317 
L 869.814216 -673.243215 
L 868.863575 -672.215114 
L 867.772851 -671.187012 
L 866.573292 -670.15891 
L 865.297804 -669.130809 
L 863.980161 -668.102707 
L 862.65421 -667.074606 
L 861.353094 -666.046504 
L 860.108514 -665.018402 
L 858.950046 -663.990301 
L 857.904527 -662.962199 
L 856.995518 -661.934097 
L 856.242867 -660.905996 
L 855.662356 -659.877894 
L 855.265463 -658.849792 
L 855.059222 -657.821691 
L 855.046185 -656.793589 
L 855.224486 -655.765488 
L 855.588002 -654.737386 
L 856.126592 -653.709284 
L 856.826422 -652.681183 
L 857.670342 -651.653081 
L 858.638327 -650.624979 
L 859.70795 -649.596878 
L 860.854873 -648.568776 
L 862.05336 -647.540674 
L 863.276786 -646.512573 
L 864.498122 -645.484471 
L 865.69042 -644.45637 
L 866.827246 -643.428268 
L 867.883097 -642.400166 
L 868.833773 -641.372065 
L 869.656707 -640.343963 
L 870.331264 -639.315861 
L 870.838997 -638.28776 
L 871.163869 -637.259658 
L 871.292437 -636.231557 
L 871.214007 -635.203455 
L 870.920755 -634.175353 
L 870.407814 -633.147252 
L 869.673329 -632.11915 
L 868.718476 -631.091048 
L 867.547438 -630.062947 
L 866.167348 -629.034845 
L 864.588178 -628.006743 
L 862.822581 -626.978642 
L 860.885694 -625.95054 
L 858.794877 -624.922439 
L 856.569415 -623.894337 
L 854.230173 -622.866235 
L 851.799215 -621.838134 
L 849.299393 -620.810032 
L 846.753924 -619.78193 
L 844.185949 -618.753829 
L 841.618112 -617.725727 
L 839.072147 -616.697625 
L 836.568503 -615.669524 
z
" style="stroke: #004d40; stroke-width: 1.8"/>
    </defs>
    <g clip-path="url(#p09743c7c3b)">
     <use xlink:href="#m02a07fc588" x="0" y="864" style="fill: #004d40; fill-opacity: 0.45; stroke: #004d40; stroke-width: 1.8"/>
    </g>
   </g>
   <g id="PathCollection_5">
    <defs>
     <path id="m2f7ea57335" d="M -3.061862 6.123724 
L 0 3.061862 
L 3.061862 6.123724 
L 6.123724 3.061862 
L 3.061862 0 
L 6.123724 -3.061862 
L 3.061862 -6.123724 
L 0 -3.061862 
L -3.061862 -6.123724 
L -6.123724 -3.061862 
L -3.061862 0 
L -6.123724 3.061862 
z
" style="stroke: #000000; stroke-opacity: 0.8; stroke-width: 2"/>
    </defs>
    <g clip-path="url(#p09743c7c3b)">
     <use xlink:href="#m2f7ea57335" x="161.509091" y="738.72" style="fill: #004d40; fill-opacity: 0.8; stroke: #000000; stroke-opacity: 0.8; stroke-width: 2"/>
    </g>
   </g>
   <g id="PathCollection_6">
    <g clip-path="url(#p09743c7c3b)">
     <use xlink:href="#m2f7ea57335" x="645.723967" y="738.72" style="fill: #004d40; fill-opacity: 0.8; stroke: #000000; stroke-opacity: 0.8; stroke-width: 2"/>
    </g>
   </g>
   <g id="matplotlib.axis_1">
    <g id="xtick_1">
     <g id="line2d_1">
      <defs>
       <path id="m0f44d0c985" d="M 0 0 
L 0 3.5 
" style="stroke: #000000; stroke-width: 0.8"/>
      </defs>
      <g>
       <use xlink:href="#m0f44d0c985" x="161.509091" y="768.96" style="stroke: #000000; stroke-width: 0.8"/>
      </g>
     </g>
     <g id="text_1">
      <!-- D7V1 -->
      <g transform="translate(127.42706 794.956094) scale(0.25 -0.25)">
       <defs>
        <path id="DejaVuSans-44" d="M 1259 4147 
L 1259 519 
L 2022 519 
Q 2988 519 3436 956 
Q 3884 1394 3884 2338 
Q 3884 3275 3436 3711 
Q 2988 4147 2022 4147 
L 1259 4147 
z
M 628 4666 
L 1925 4666 
Q 3281 4666 3915 4102 
Q 4550 3538 4550 2338 
Q 4550 1131 3912 565 
Q 3275 0 1925 0 
L 628 0 
L 628 4666 
z
" transform="scale(0.015625)"/>
        <path id="DejaVuSans-37" d="M 525 4666 
L 3525 4666 
L 3525 4397 
L 1831 0 
L 1172 0 
L 2766 4134 
L 525 4134 
L 525 4666 
z
" transform="scale(0.015625)"/>
        <path id="DejaVuSans-56" d="M 1831 0 
L 50 4666 
L 709 4666 
L 2188 738 
L 3669 4666 
L 4325 4666 
L 2547 0 
L 1831 0 
z
" transform="scale(0.015625)"/>
        <path id="DejaVuSans-31" d="M 794 531 
L 1825 531 
L 1825 4091 
L 703 3866 
L 703 4441 
L 1819 4666 
L 2450 4666 
L 2450 531 
L 3481 531 
L 3481 0 
L 794 0 
L 794 531 
z
" transform="scale(0.015625)"/>
       </defs>
       <use xlink:href="#DejaVuSans-44"/>
       <use xlink:href="#DejaVuSans-37" transform="translate(77.001953 0)"/>
       <use xlink:href="#DejaVuSans-56" transform="translate(140.625 0)"/>
       <use xlink:href="#DejaVuSans-31" transform="translate(209.033203 0)"/>
      </g>
     </g>
    </g>
    <g id="xtick_2">
     <g id="line2d_2">
      <g>
       <use xlink:href="#m0f44d0c985" x="322.91405" y="768.96" style="stroke: #000000; stroke-width: 0.8"/>
      </g>
     </g>
     <g id="text_2">
      <!-- D7V2 -->
      <g transform="translate(288.832018 794.956094) scale(0.25 -0.25)">
       <defs>
        <path id="DejaVuSans-32" d="M 1228 531 
L 3431 531 
L 3431 0 
L 469 0 
L 469 531 
Q 828 903 1448 1529 
Q 2069 2156 2228 2338 
Q 2531 2678 2651 2914 
Q 2772 3150 2772 3378 
Q 2772 3750 2511 3984 
Q 2250 4219 1831 4219 
Q 1534 4219 1204 4116 
Q 875 4013 500 3803 
L 500 4441 
Q 881 4594 1212 4672 
Q 1544 4750 1819 4750 
Q 2544 4750 2975 4387 
Q 3406 4025 3406 3419 
Q 3406 3131 3298 2873 
Q 3191 2616 2906 2266 
Q 2828 2175 2409 1742 
Q 1991 1309 1228 531 
z
" transform="scale(0.015625)"/>
       </defs>
       <use xlink:href="#DejaVuSans-44"/>
       <use xlink:href="#DejaVuSans-37" transform="translate(77.001953 0)"/>
       <use xlink:href="#DejaVuSans-56" transform="translate(140.625 0)"/>
       <use xlink:href="#DejaVuSans-32" transform="translate(209.033203 0)"/>
      </g>
     </g>
    </g>
    <g id="xtick_3">
     <g id="line2d_3">
      <g>
       <use xlink:href="#m0f44d0c985" x="484.319008" y="768.96" style="stroke: #000000; stroke-width: 0.8"/>
      </g>
     </g>
     <g id="text_3">
      <!-- D7V3 -->
      <g transform="translate(450.236977 794.956094) scale(0.25 -0.25)">
       <defs>
        <path id="DejaVuSans-33" d="M 2597 2516 
Q 3050 2419 3304 2112 
Q 3559 1806 3559 1356 
Q 3559 666 3084 287 
Q 2609 -91 1734 -91 
Q 1441 -91 1130 -33 
Q 819 25 488 141 
L 488 750 
Q 750 597 1062 519 
Q 1375 441 1716 441 
Q 2309 441 2620 675 
Q 2931 909 2931 1356 
Q 2931 1769 2642 2001 
Q 2353 2234 1838 2234 
L 1294 2234 
L 1294 2753 
L 1863 2753 
Q 2328 2753 2575 2939 
Q 2822 3125 2822 3475 
Q 2822 3834 2567 4026 
Q 2313 4219 1838 4219 
Q 1578 4219 1281 4162 
Q 984 4106 628 3988 
L 628 4550 
Q 988 4650 1302 4700 
Q 1616 4750 1894 4750 
Q 2613 4750 3031 4423 
Q 3450 4097 3450 3541 
Q 3450 3153 3228 2886 
Q 3006 2619 2597 2516 
z
" transform="scale(0.015625)"/>
       </defs>
       <use xlink:href="#DejaVuSans-44"/>
       <use xlink:href="#DejaVuSans-37" transform="translate(77.001953 0)"/>
       <use xlink:href="#DejaVuSans-56" transform="translate(140.625 0)"/>
       <use xlink:href="#DejaVuSans-33" transform="translate(209.033203 0)"/>
      </g>
     </g>
    </g>
    <g id="xtick_4">
     <g id="line2d_4">
      <g>
       <use xlink:href="#m0f44d0c985" x="645.723967" y="768.96" style="stroke: #000000; stroke-width: 0.8"/>
      </g>
     </g>
     <g id="text_4">
      <!-- D7V4 -->
      <g transform="translate(611.641936 794.956094) scale(0.25 -0.25)">
       <defs>
        <path id="DejaVuSans-34" d="M 2419 4116 
L 825 1625 
L 2419 1625 
L 2419 4116 
z
M 2253 4666 
L 3047 4666 
L 3047 1625 
L 3713 1625 
L 3713 1100 
L 3047 1100 
L 3047 0 
L 2419 0 
L 2419 1100 
L 313 1100 
L 313 1709 
L 2253 4666 
z
" transform="scale(0.015625)"/>
       </defs>
       <use xlink:href="#DejaVuSans-44"/>
       <use xlink:href="#DejaVuSans-37" transform="translate(77.001953 0)"/>
       <use xlink:href="#DejaVuSans-56" transform="translate(140.625 0)"/>
       <use xlink:href="#DejaVuSans-34" transform="translate(209.033203 0)"/>
      </g>
     </g>
    </g>
    <g id="xtick_5">
     <g id="line2d_5">
      <g>
       <use xlink:href="#m0f44d0c985" x="807.128926" y="768.96" style="stroke: #000000; stroke-width: 0.8"/>
      </g>
     </g>
     <g id="text_5">
      <!-- D7V5 -->
      <g transform="translate(773.046894 794.956094) scale(0.25 -0.25)">
       <defs>
        <path id="DejaVuSans-35" d="M 691 4666 
L 3169 4666 
L 3169 4134 
L 1269 4134 
L 1269 2991 
Q 1406 3038 1543 3061 
Q 1681 3084 1819 3084 
Q 2600 3084 3056 2656 
Q 3513 2228 3513 1497 
Q 3513 744 3044 326 
Q 2575 -91 1722 -91 
Q 1428 -91 1123 -41 
Q 819 9 494 109 
L 494 744 
Q 775 591 1075 516 
Q 1375 441 1709 441 
Q 2250 441 2565 725 
Q 2881 1009 2881 1497 
Q 2881 1984 2565 2268 
Q 2250 2553 1709 2553 
Q 1456 2553 1204 2497 
Q 953 2441 691 2322 
L 691 4666 
z
" transform="scale(0.015625)"/>
       </defs>
       <use xlink:href="#DejaVuSans-44"/>
       <use xlink:href="#DejaVuSans-37" transform="translate(77.001953 0)"/>
       <use xlink:href="#DejaVuSans-56" transform="translate(140.625 0)"/>
       <use xlink:href="#DejaVuSans-35" transform="translate(209.033203 0)"/>
      </g>
     </g>
    </g>
    <g id="text_6">
     <!-- Query -->
     <g transform="translate(478.609766 823.151406) scale(0.25 -0.25)">
      <defs>
       <path id="DejaVuSans-51" d="M 2522 4238 
Q 1834 4238 1429 3725 
Q 1025 3213 1025 2328 
Q 1025 1447 1429 934 
Q 1834 422 2522 422 
Q 3209 422 3611 934 
Q 4013 1447 4013 2328 
Q 4013 3213 3611 3725 
Q 3209 4238 2522 4238 
z
M 3406 84 
L 4238 -825 
L 3475 -825 
L 2784 -78 
Q 2681 -84 2626 -87 
Q 2572 -91 2522 -91 
Q 1538 -91 948 567 
Q 359 1225 359 2328 
Q 359 3434 948 4092 
Q 1538 4750 2522 4750 
Q 3503 4750 4090 4092 
Q 4678 3434 4678 2328 
Q 4678 1516 4351 937 
Q 4025 359 3406 84 
z
" transform="scale(0.015625)"/>
       <path id="DejaVuSans-75" d="M 544 1381 
L 544 3500 
L 1119 3500 
L 1119 1403 
Q 1119 906 1312 657 
Q 1506 409 1894 409 
Q 2359 409 2629 706 
Q 2900 1003 2900 1516 
L 2900 3500 
L 3475 3500 
L 3475 0 
L 2900 0 
L 2900 538 
Q 2691 219 2414 64 
Q 2138 -91 1772 -91 
Q 1169 -91 856 284 
Q 544 659 544 1381 
z
M 1991 3584 
L 1991 3584 
z
" transform="scale(0.015625)"/>
       <path id="DejaVuSans-65" d="M 3597 1894 
L 3597 1613 
L 953 1613 
Q 991 1019 1311 708 
Q 1631 397 2203 397 
Q 2534 397 2845 478 
Q 3156 559 3463 722 
L 3463 178 
Q 3153 47 2828 -22 
Q 2503 -91 2169 -91 
Q 1331 -91 842 396 
Q 353 884 353 1716 
Q 353 2575 817 3079 
Q 1281 3584 2069 3584 
Q 2775 3584 3186 3129 
Q 3597 2675 3597 1894 
z
M 3022 2063 
Q 3016 2534 2758 2815 
Q 2500 3097 2075 3097 
Q 1594 3097 1305 2825 
Q 1016 2553 972 2059 
L 3022 2063 
z
" transform="scale(0.015625)"/>
       <path id="DejaVuSans-72" d="M 2631 2963 
Q 2534 3019 2420 3045 
Q 2306 3072 2169 3072 
Q 1681 3072 1420 2755 
Q 1159 2438 1159 1844 
L 1159 0 
L 581 0 
L 581 3500 
L 1159 3500 
L 1159 2956 
Q 1341 3275 1631 3429 
Q 1922 3584 2338 3584 
Q 2397 3584 2469 3576 
Q 2541 3569 2628 3553 
L 2631 2963 
z
" transform="scale(0.015625)"/>
       <path id="DejaVuSans-79" d="M 2059 -325 
Q 1816 -950 1584 -1140 
Q 1353 -1331 966 -1331 
L 506 -1331 
L 506 -850 
L 844 -850 
Q 1081 -850 1212 -737 
Q 1344 -625 1503 -206 
L 1606 56 
L 191 3500 
L 800 3500 
L 1894 763 
L 2988 3500 
L 3597 3500 
L 2059 -325 
z
" transform="scale(0.015625)"/>
      </defs>
      <use xlink:href="#DejaVuSans-51"/>
      <use xlink:href="#DejaVuSans-75" transform="translate(78.710938 0)"/>
      <use xlink:href="#DejaVuSans-65" transform="translate(142.089844 0)"/>
      <use xlink:href="#DejaVuSans-72" transform="translate(203.613281 0)"/>
      <use xlink:href="#DejaVuSans-79" transform="translate(244.726562 0)"/>
     </g>
    </g>
   </g>
   <g id="matplotlib.axis_2">
    <g id="ytick_1">
     <g id="line2d_6">
      <path d="M 126 738.72 
L 907.2 738.72 
" clip-path="url(#p09743c7c3b)" style="fill: none; stroke: #b0b0b0; stroke-width: 0.8; stroke-linecap: square"/>
     </g>
     <g id="line2d_7">
      <defs>
       <path id="m0da3b5ff5c" d="M 0 0 
L -3.5 0 
" style="stroke: #000000; stroke-width: 0.8"/>
      </defs>
      <g>
       <use xlink:href="#m0da3b5ff5c" x="126" y="738.72" style="stroke: #000000; stroke-width: 0.8"/>
      </g>
     </g>
     <g id="text_7">
      <!-- 0 -->
      <g transform="translate(103.09375 748.218047) scale(0.25 -0.25)">
       <defs>
        <path id="DejaVuSans-30" d="M 2034 4250 
Q 1547 4250 1301 3770 
Q 1056 3291 1056 2328 
Q 1056 1369 1301 889 
Q 1547 409 2034 409 
Q 2525 409 2770 889 
Q 3016 1369 3016 2328 
Q 3016 3291 2770 3770 
Q 2525 4250 2034 4250 
z
M 2034 4750 
Q 2819 4750 3233 4129 
Q 3647 3509 3647 2328 
Q 3647 1150 3233 529 
Q 2819 -91 2034 -91 
Q 1250 -91 836 529 
Q 422 1150 422 2328 
Q 422 3509 836 4129 
Q 1250 4750 2034 4750 
z
" transform="scale(0.015625)"/>
       </defs>
       <use xlink:href="#DejaVuSans-30"/>
      </g>
     </g>
    </g>
    <g id="ytick_2">
     <g id="line2d_8">
      <path d="M 126 652.514743 
L 907.2 652.514743 
" clip-path="url(#p09743c7c3b)" style="fill: none; stroke: #b0b0b0; stroke-width: 0.8; stroke-linecap: square"/>
     </g>
     <g id="line2d_9">
      <g>
       <use xlink:href="#m0da3b5ff5c" x="126" y="652.514743" style="stroke: #000000; stroke-width: 0.8"/>
      </g>
     </g>
     <g id="text_8">
      <!-- 1000 -->
      <g transform="translate(55.375 662.01279) scale(0.25 -0.25)">
       <use xlink:href="#DejaVuSans-31"/>
       <use xlink:href="#DejaVuSans-30" transform="translate(63.623047 0)"/>
       <use xlink:href="#DejaVuSans-30" transform="translate(127.246094 0)"/>
       <use xlink:href="#DejaVuSans-30" transform="translate(190.869141 0)"/>
      </g>
     </g>
    </g>
    <g id="ytick_3">
     <g id="line2d_10">
      <path d="M 126 566.309486 
L 907.2 566.309486 
" clip-path="url(#p09743c7c3b)" style="fill: none; stroke: #b0b0b0; stroke-width: 0.8; stroke-linecap: square"/>
     </g>
     <g id="line2d_11">
      <g>
       <use xlink:href="#m0da3b5ff5c" x="126" y="566.309486" style="stroke: #000000; stroke-width: 0.8"/>
      </g>
     </g>
     <g id="text_9">
      <!-- 2000 -->
      <g transform="translate(55.375 575.807532) scale(0.25 -0.25)">
       <use xlink:href="#DejaVuSans-32"/>
       <use xlink:href="#DejaVuSans-30" transform="translate(63.623047 0)"/>
       <use xlink:href="#DejaVuSans-30" transform="translate(127.246094 0)"/>
       <use xlink:href="#DejaVuSans-30" transform="translate(190.869141 0)"/>
      </g>
     </g>
    </g>
    <g id="ytick_4">
     <g id="line2d_12">
      <path d="M 126 480.104228 
L 907.2 480.104228 
" clip-path="url(#p09743c7c3b)" style="fill: none; stroke: #b0b0b0; stroke-width: 0.8; stroke-linecap: square"/>
     </g>
     <g id="line2d_13">
      <g>
       <use xlink:href="#m0da3b5ff5c" x="126" y="480.104228" style="stroke: #000000; stroke-width: 0.8"/>
      </g>
     </g>
     <g id="text_10">
      <!-- 3000 -->
      <g transform="translate(55.375 489.602275) scale(0.25 -0.25)">
       <use xlink:href="#DejaVuSans-33"/>
       <use xlink:href="#DejaVuSans-30" transform="translate(63.623047 0)"/>
       <use xlink:href="#DejaVuSans-30" transform="translate(127.246094 0)"/>
       <use xlink:href="#DejaVuSans-30" transform="translate(190.869141 0)"/>
      </g>
     </g>
    </g>
    <g id="ytick_5">
     <g id="line2d_14">
      <path d="M 126 393.898971 
L 907.2 393.898971 
" clip-path="url(#p09743c7c3b)" style="fill: none; stroke: #b0b0b0; stroke-width: 0.8; stroke-linecap: square"/>
     </g>
     <g id="line2d_15">
      <g>
       <use xlink:href="#m0da3b5ff5c" x="126" y="393.898971" style="stroke: #000000; stroke-width: 0.8"/>
      </g>
     </g>
     <g id="text_11">
      <!-- 4000 -->
      <g transform="translate(55.375 403.397018) scale(0.25 -0.25)">
       <use xlink:href="#DejaVuSans-34"/>
       <use xlink:href="#DejaVuSans-30" transform="translate(63.623047 0)"/>
       <use xlink:href="#DejaVuSans-30" transform="translate(127.246094 0)"/>
       <use xlink:href="#DejaVuSans-30" transform="translate(190.869141 0)"/>
      </g>
     </g>
    </g>
    <g id="ytick_6">
     <g id="line2d_16">
      <path d="M 126 307.693714 
L 907.2 307.693714 
" clip-path="url(#p09743c7c3b)" style="fill: none; stroke: #b0b0b0; stroke-width: 0.8; stroke-linecap: square"/>
     </g>
     <g id="line2d_17">
      <g>
       <use xlink:href="#m0da3b5ff5c" x="126" y="307.693714" style="stroke: #000000; stroke-width: 0.8"/>
      </g>
     </g>
     <g id="text_12">
      <!-- 5000 -->
      <g transform="translate(55.375 317.191761) scale(0.25 -0.25)">
       <use xlink:href="#DejaVuSans-35"/>
       <use xlink:href="#DejaVuSans-30" transform="translate(63.623047 0)"/>
       <use xlink:href="#DejaVuSans-30" transform="translate(127.246094 0)"/>
       <use xlink:href="#DejaVuSans-30" transform="translate(190.869141 0)"/>
      </g>
     </g>
    </g>
    <g id="ytick_7">
     <g id="line2d_18">
      <path d="M 126 221.488457 
L 907.2 221.488457 
" clip-path="url(#p09743c7c3b)" style="fill: none; stroke: #b0b0b0; stroke-width: 0.8; stroke-linecap: square"/>
     </g>
     <g id="line2d_19">
      <g>
       <use xlink:href="#m0da3b5ff5c" x="126" y="221.488457" style="stroke: #000000; stroke-width: 0.8"/>
      </g>
     </g>
     <g id="text_13">
      <!-- 6000 -->
      <g transform="translate(55.375 230.986503) scale(0.25 -0.25)">
       <defs>
        <path id="DejaVuSans-36" d="M 2113 2584 
Q 1688 2584 1439 2293 
Q 1191 2003 1191 1497 
Q 1191 994 1439 701 
Q 1688 409 2113 409 
Q 2538 409 2786 701 
Q 3034 994 3034 1497 
Q 3034 2003 2786 2293 
Q 2538 2584 2113 2584 
z
M 3366 4563 
L 3366 3988 
Q 3128 4100 2886 4159 
Q 2644 4219 2406 4219 
Q 1781 4219 1451 3797 
Q 1122 3375 1075 2522 
Q 1259 2794 1537 2939 
Q 1816 3084 2150 3084 
Q 2853 3084 3261 2657 
Q 3669 2231 3669 1497 
Q 3669 778 3244 343 
Q 2819 -91 2113 -91 
Q 1303 -91 875 529 
Q 447 1150 447 2328 
Q 447 3434 972 4092 
Q 1497 4750 2381 4750 
Q 2619 4750 2861 4703 
Q 3103 4656 3366 4563 
z
" transform="scale(0.015625)"/>
       </defs>
       <use xlink:href="#DejaVuSans-36"/>
       <use xlink:href="#DejaVuSans-30" transform="translate(63.623047 0)"/>
       <use xlink:href="#DejaVuSans-30" transform="translate(127.246094 0)"/>
       <use xlink:href="#DejaVuSans-30" transform="translate(190.869141 0)"/>
      </g>
     </g>
    </g>
    <g id="ytick_8">
     <g id="line2d_20">
      <path d="M 126 135.283199 
L 907.2 135.283199 
" clip-path="url(#p09743c7c3b)" style="fill: none; stroke: #b0b0b0; stroke-width: 0.8; stroke-linecap: square"/>
     </g>
     <g id="line2d_21">
      <g>
       <use xlink:href="#m0da3b5ff5c" x="126" y="135.283199" style="stroke: #000000; stroke-width: 0.8"/>
      </g>
     </g>
     <g id="text_14">
      <!-- 7000 -->
      <g transform="translate(55.375 144.781246) scale(0.25 -0.25)">
       <use xlink:href="#DejaVuSans-37"/>
       <use xlink:href="#DejaVuSans-30" transform="translate(63.623047 0)"/>
       <use xlink:href="#DejaVuSans-30" transform="translate(127.246094 0)"/>
       <use xlink:href="#DejaVuSans-30" transform="translate(190.869141 0)"/>
      </g>
     </g>
    </g>
    <g id="text_15">
     <!-- Execution time (ms) -->
     <g transform="translate(46.175781 562.282891) rotate(-90) scale(0.25 -0.25)">
      <defs>
       <path id="DejaVuSans-45" d="M 628 4666 
L 3578 4666 
L 3578 4134 
L 1259 4134 
L 1259 2753 
L 3481 2753 
L 3481 2222 
L 1259 2222 
L 1259 531 
L 3634 531 
L 3634 0 
L 628 0 
L 628 4666 
z
" transform="scale(0.015625)"/>
       <path id="DejaVuSans-78" d="M 3513 3500 
L 2247 1797 
L 3578 0 
L 2900 0 
L 1881 1375 
L 863 0 
L 184 0 
L 1544 1831 
L 300 3500 
L 978 3500 
L 1906 2253 
L 2834 3500 
L 3513 3500 
z
" transform="scale(0.015625)"/>
       <path id="DejaVuSans-63" d="M 3122 3366 
L 3122 2828 
Q 2878 2963 2633 3030 
Q 2388 3097 2138 3097 
Q 1578 3097 1268 2742 
Q 959 2388 959 1747 
Q 959 1106 1268 751 
Q 1578 397 2138 397 
Q 2388 397 2633 464 
Q 2878 531 3122 666 
L 3122 134 
Q 2881 22 2623 -34 
Q 2366 -91 2075 -91 
Q 1284 -91 818 406 
Q 353 903 353 1747 
Q 353 2603 823 3093 
Q 1294 3584 2113 3584 
Q 2378 3584 2631 3529 
Q 2884 3475 3122 3366 
z
" transform="scale(0.015625)"/>
       <path id="DejaVuSans-74" d="M 1172 4494 
L 1172 3500 
L 2356 3500 
L 2356 3053 
L 1172 3053 
L 1172 1153 
Q 1172 725 1289 603 
Q 1406 481 1766 481 
L 2356 481 
L 2356 0 
L 1766 0 
Q 1100 0 847 248 
Q 594 497 594 1153 
L 594 3053 
L 172 3053 
L 172 3500 
L 594 3500 
L 594 4494 
L 1172 4494 
z
" transform="scale(0.015625)"/>
       <path id="DejaVuSans-69" d="M 603 3500 
L 1178 3500 
L 1178 0 
L 603 0 
L 603 3500 
z
M 603 4863 
L 1178 4863 
L 1178 4134 
L 603 4134 
L 603 4863 
z
" transform="scale(0.015625)"/>
       <path id="DejaVuSans-6f" d="M 1959 3097 
Q 1497 3097 1228 2736 
Q 959 2375 959 1747 
Q 959 1119 1226 758 
Q 1494 397 1959 397 
Q 2419 397 2687 759 
Q 2956 1122 2956 1747 
Q 2956 2369 2687 2733 
Q 2419 3097 1959 3097 
z
M 1959 3584 
Q 2709 3584 3137 3096 
Q 3566 2609 3566 1747 
Q 3566 888 3137 398 
Q 2709 -91 1959 -91 
Q 1206 -91 779 398 
Q 353 888 353 1747 
Q 353 2609 779 3096 
Q 1206 3584 1959 3584 
z
" transform="scale(0.015625)"/>
       <path id="DejaVuSans-6e" d="M 3513 2113 
L 3513 0 
L 2938 0 
L 2938 2094 
Q 2938 2591 2744 2837 
Q 2550 3084 2163 3084 
Q 1697 3084 1428 2787 
Q 1159 2491 1159 1978 
L 1159 0 
L 581 0 
L 581 3500 
L 1159 3500 
L 1159 2956 
Q 1366 3272 1645 3428 
Q 1925 3584 2291 3584 
Q 2894 3584 3203 3211 
Q 3513 2838 3513 2113 
z
" transform="scale(0.015625)"/>
       <path id="DejaVuSans-20" transform="scale(0.015625)"/>
       <path id="DejaVuSans-6d" d="M 3328 2828 
Q 3544 3216 3844 3400 
Q 4144 3584 4550 3584 
Q 5097 3584 5394 3201 
Q 5691 2819 5691 2113 
L 5691 0 
L 5113 0 
L 5113 2094 
Q 5113 2597 4934 2840 
Q 4756 3084 4391 3084 
Q 3944 3084 3684 2787 
Q 3425 2491 3425 1978 
L 3425 0 
L 2847 0 
L 2847 2094 
Q 2847 2600 2669 2842 
Q 2491 3084 2119 3084 
Q 1678 3084 1418 2786 
Q 1159 2488 1159 1978 
L 1159 0 
L 581 0 
L 581 3500 
L 1159 3500 
L 1159 2956 
Q 1356 3278 1631 3431 
Q 1906 3584 2284 3584 
Q 2666 3584 2933 3390 
Q 3200 3197 3328 2828 
z
" transform="scale(0.015625)"/>
       <path id="DejaVuSans-28" d="M 1984 4856 
Q 1566 4138 1362 3434 
Q 1159 2731 1159 2009 
Q 1159 1288 1364 580 
Q 1569 -128 1984 -844 
L 1484 -844 
Q 1016 -109 783 600 
Q 550 1309 550 2009 
Q 550 2706 781 3412 
Q 1013 4119 1484 4856 
L 1984 4856 
z
" transform="scale(0.015625)"/>
       <path id="DejaVuSans-73" d="M 2834 3397 
L 2834 2853 
Q 2591 2978 2328 3040 
Q 2066 3103 1784 3103 
Q 1356 3103 1142 2972 
Q 928 2841 928 2578 
Q 928 2378 1081 2264 
Q 1234 2150 1697 2047 
L 1894 2003 
Q 2506 1872 2764 1633 
Q 3022 1394 3022 966 
Q 3022 478 2636 193 
Q 2250 -91 1575 -91 
Q 1294 -91 989 -36 
Q 684 19 347 128 
L 347 722 
Q 666 556 975 473 
Q 1284 391 1588 391 
Q 1994 391 2212 530 
Q 2431 669 2431 922 
Q 2431 1156 2273 1281 
Q 2116 1406 1581 1522 
L 1381 1569 
Q 847 1681 609 1914 
Q 372 2147 372 2553 
Q 372 3047 722 3315 
Q 1072 3584 1716 3584 
Q 2034 3584 2315 3537 
Q 2597 3491 2834 3397 
z
" transform="scale(0.015625)"/>
       <path id="DejaVuSans-29" d="M 513 4856 
L 1013 4856 
Q 1481 4119 1714 3412 
Q 1947 2706 1947 2009 
Q 1947 1309 1714 600 
Q 1481 -109 1013 -844 
L 513 -844 
Q 928 -128 1133 580 
Q 1338 1288 1338 2009 
Q 1338 2731 1133 3434 
Q 928 4138 513 4856 
z
" transform="scale(0.015625)"/>
      </defs>
      <use xlink:href="#DejaVuSans-45"/>
      <use xlink:href="#DejaVuSans-78" transform="translate(63.183594 0)"/>
      <use xlink:href="#DejaVuSans-65" transform="translate(119.238281 0)"/>
      <use xlink:href="#DejaVuSans-63" transform="translate(180.761719 0)"/>
      <use xlink:href="#DejaVuSans-75" transform="translate(235.742188 0)"/>
      <use xlink:href="#DejaVuSans-74" transform="translate(299.121094 0)"/>
      <use xlink:href="#DejaVuSans-69" transform="translate(338.330078 0)"/>
      <use xlink:href="#DejaVuSans-6f" transform="translate(366.113281 0)"/>
      <use xlink:href="#DejaVuSans-6e" transform="translate(427.294922 0)"/>
      <use xlink:href="#DejaVuSans-20" transform="translate(490.673828 0)"/>
      <use xlink:href="#DejaVuSans-74" transform="translate(522.460938 0)"/>
      <use xlink:href="#DejaVuSans-69" transform="translate(561.669922 0)"/>
      <use xlink:href="#DejaVuSans-6d" transform="translate(589.453125 0)"/>
      <use xlink:href="#DejaVuSans-65" transform="translate(686.865234 0)"/>
      <use xlink:href="#DejaVuSans-20" transform="translate(748.388672 0)"/>
      <use xlink:href="#DejaVuSans-28" transform="translate(780.175781 0)"/>
      <use xlink:href="#DejaVuSans-6d" transform="translate(819.189453 0)"/>
      <use xlink:href="#DejaVuSans-73" transform="translate(916.601562 0)"/>
      <use xlink:href="#DejaVuSans-29" transform="translate(968.701172 0)"/>
     </g>
    </g>
   </g>
   <g id="LineCollection_1">
    <path d="M 290.633058 652.283108 
L 355.195041 652.283108 
" clip-path="url(#p09743c7c3b)" style="fill: none; stroke: #1a85ff; stroke-width: 1.5"/>
    <path d="M 452.038017 670.716552 
L 516.6 670.716552 
" clip-path="url(#p09743c7c3b)" style="fill: none; stroke: #1a85ff; stroke-width: 1.5"/>
    <path d="M 774.847934 203.789612 
L 839.409917 203.789612 
" clip-path="url(#p09743c7c3b)" style="fill: none; stroke: #1a85ff; stroke-width: 1.5"/>
   </g>
   <g id="LineCollection_2">
    <path d="M 290.633058 643.571957 
L 355.195041 643.571957 
" clip-path="url(#p09743c7c3b)" style="fill: none; stroke: #1a85ff; stroke-width: 1.5"/>
    <path d="M 452.038017 666.317139 
L 516.6 666.317139 
" clip-path="url(#p09743c7c3b)" style="fill: none; stroke: #1a85ff; stroke-width: 1.5"/>
    <path d="M 774.847934 133.92 
L 839.409917 133.92 
" clip-path="url(#p09743c7c3b)" style="fill: none; stroke: #1a85ff; stroke-width: 1.5"/>
   </g>
   <g id="LineCollection_3">
    <path d="M 290.633058 656.881084 
L 355.195041 656.881084 
" clip-path="url(#p09743c7c3b)" style="fill: none; stroke: #1a85ff; stroke-width: 1.5"/>
    <path d="M 452.038017 674.370871 
L 516.6 674.370871 
" clip-path="url(#p09743c7c3b)" style="fill: none; stroke: #1a85ff; stroke-width: 1.5"/>
    <path d="M 774.847934 247.448947 
L 839.409917 247.448947 
" clip-path="url(#p09743c7c3b)" style="fill: none; stroke: #1a85ff; stroke-width: 1.5"/>
   </g>
   <g id="LineCollection_4">
    <path d="M 322.91405 656.881084 
L 322.91405 643.571957 
" clip-path="url(#p09743c7c3b)" style="fill: none; stroke: #1a85ff; stroke-width: 1.5"/>
    <path d="M 484.319008 674.370871 
L 484.319008 666.317139 
" clip-path="url(#p09743c7c3b)" style="fill: none; stroke: #1a85ff; stroke-width: 1.5"/>
    <path d="M 807.128926 247.448947 
L 807.128926 133.92 
" clip-path="url(#p09743c7c3b)" style="fill: none; stroke: #1a85ff; stroke-width: 1.5"/>
   </g>
   <g id="LineCollection_5">
    <path d="M 290.633058 652.574684 
L 355.195041 652.574684 
" clip-path="url(#p09743c7c3b)" style="fill: none; stroke: #1a85ff; stroke-width: 1.5"/>
    <path d="M 452.038017 669.955901 
L 516.6 669.955901 
" clip-path="url(#p09743c7c3b)" style="fill: none; stroke: #1a85ff; stroke-width: 1.5"/>
    <path d="M 774.847934 209.423959 
L 839.409917 209.423959 
" clip-path="url(#p09743c7c3b)" style="fill: none; stroke: #1a85ff; stroke-width: 1.5"/>
   </g>
   <g id="LineCollection_6">
    <path d="M 290.633058 649.791471 
L 355.195041 649.791471 
" clip-path="url(#p09743c7c3b)" style="fill: none; stroke: #d41159; stroke-width: 1.5"/>
    <path d="M 452.038017 670.455539 
L 516.6 670.455539 
" clip-path="url(#p09743c7c3b)" style="fill: none; stroke: #d41159; stroke-width: 1.5"/>
    <path d="M 774.847934 206.1629 
L 839.409917 206.1629 
" clip-path="url(#p09743c7c3b)" style="fill: none; stroke: #d41159; stroke-width: 1.5"/>
   </g>
   <g id="LineCollection_7">
    <path d="M 290.633058 640.691231 
L 355.195041 640.691231 
" clip-path="url(#p09743c7c3b)" style="fill: none; stroke: #d41159; stroke-width: 1.5"/>
    <path d="M 452.038017 664.751945 
L 516.6 664.751945 
" clip-path="url(#p09743c7c3b)" style="fill: none; stroke: #d41159; stroke-width: 1.5"/>
    <path d="M 774.847934 157.376059 
L 839.409917 157.376059 
" clip-path="url(#p09743c7c3b)" style="fill: none; stroke: #d41159; stroke-width: 1.5"/>
   </g>
   <g id="LineCollection_8">
    <path d="M 290.633058 656.862353 
L 355.195041 656.862353 
" clip-path="url(#p09743c7c3b)" style="fill: none; stroke: #d41159; stroke-width: 1.5"/>
    <path d="M 452.038017 675.30344 
L 516.6 675.30344 
" clip-path="url(#p09743c7c3b)" style="fill: none; stroke: #d41159; stroke-width: 1.5"/>
    <path d="M 774.847934 245.871961 
L 839.409917 245.871961 
" clip-path="url(#p09743c7c3b)" style="fill: none; stroke: #d41159; stroke-width: 1.5"/>
   </g>
   <g id="LineCollection_9">
    <path d="M 322.91405 656.862353 
L 322.91405 640.691231 
" clip-path="url(#p09743c7c3b)" style="fill: none; stroke: #d41159; stroke-width: 1.5"/>
    <path d="M 484.319008 675.30344 
L 484.319008 664.751945 
" clip-path="url(#p09743c7c3b)" style="fill: none; stroke: #d41159; stroke-width: 1.5"/>
    <path d="M 807.128926 245.871961 
L 807.128926 157.376059 
" clip-path="url(#p09743c7c3b)" style="fill: none; stroke: #d41159; stroke-width: 1.5"/>
   </g>
   <g id="LineCollection_10">
    <path d="M 290.633058 647.994676 
L 355.195041 647.994676 
" clip-path="url(#p09743c7c3b)" style="fill: none; stroke: #d41159; stroke-width: 1.5"/>
    <path d="M 452.038017 669.709767 
L 516.6 669.709767 
" clip-path="url(#p09743c7c3b)" style="fill: none; stroke: #d41159; stroke-width: 1.5"/>
    <path d="M 774.847934 214.206378 
L 839.409917 214.206378 
" clip-path="url(#p09743c7c3b)" style="fill: none; stroke: #d41159; stroke-width: 1.5"/>
   </g>
   <g id="LineCollection_11">
    <path d="M 290.633058 649.27958 
L 355.195041 649.27958 
" clip-path="url(#p09743c7c3b)" style="fill: none; stroke: #004d40; stroke-width: 1.5"/>
    <path d="M 452.038017 670.592113 
L 516.6 670.592113 
" clip-path="url(#p09743c7c3b)" style="fill: none; stroke: #004d40; stroke-width: 1.5"/>
    <path d="M 774.847934 204.7383 
L 839.409917 204.7383 
" clip-path="url(#p09743c7c3b)" style="fill: none; stroke: #004d40; stroke-width: 1.5"/>
   </g>
   <g id="LineCollection_12">
    <path d="M 290.633058 640.320664 
L 355.195041 640.320664 
" clip-path="url(#p09743c7c3b)" style="fill: none; stroke: #004d40; stroke-width: 1.5"/>
    <path d="M 452.038017 665.037415 
L 516.6 665.037415 
" clip-path="url(#p09743c7c3b)" style="fill: none; stroke: #004d40; stroke-width: 1.5"/>
    <path d="M 774.847934 146.548414 
L 839.409917 146.548414 
" clip-path="url(#p09743c7c3b)" style="fill: none; stroke: #004d40; stroke-width: 1.5"/>
   </g>
   <g id="LineCollection_13">
    <path d="M 290.633058 656.657335 
L 355.195041 656.657335 
" clip-path="url(#p09743c7c3b)" style="fill: none; stroke: #004d40; stroke-width: 1.5"/>
    <path d="M 452.038017 675.410123 
L 516.6 675.410123 
" clip-path="url(#p09743c7c3b)" style="fill: none; stroke: #004d40; stroke-width: 1.5"/>
    <path d="M 774.847934 248.330476 
L 839.409917 248.330476 
" clip-path="url(#p09743c7c3b)" style="fill: none; stroke: #004d40; stroke-width: 1.5"/>
   </g>
   <g id="LineCollection_14">
    <path d="M 322.91405 656.657335 
L 322.91405 640.320664 
" clip-path="url(#p09743c7c3b)" style="fill: none; stroke: #004d40; stroke-width: 1.5"/>
    <path d="M 484.319008 675.410123 
L 484.319008 665.037415 
" clip-path="url(#p09743c7c3b)" style="fill: none; stroke: #004d40; stroke-width: 1.5"/>
    <path d="M 807.128926 248.330476 
L 807.128926 146.548414 
" clip-path="url(#p09743c7c3b)" style="fill: none; stroke: #004d40; stroke-width: 1.5"/>
   </g>
   <g id="LineCollection_15">
    <path d="M 290.633058 648.124528 
L 355.195041 648.124528 
" clip-path="url(#p09743c7c3b)" style="fill: none; stroke: #004d40; stroke-width: 1.5"/>
    <path d="M 452.038017 669.293321 
L 516.6 669.293321 
" clip-path="url(#p09743c7c3b)" style="fill: none; stroke: #004d40; stroke-width: 1.5"/>
    <path d="M 774.847934 203.014506 
L 839.409917 203.014506 
" clip-path="url(#p09743c7c3b)" style="fill: none; stroke: #004d40; stroke-width: 1.5"/>
   </g>
   <g id="patch_3">
    <path d="M 126 768.96 
L 126 103.68 
" style="fill: none; stroke: #000000; stroke-width: 0.8; stroke-linejoin: miter; stroke-linecap: square"/>
   </g>
   <g id="patch_4">
    <path d="M 907.2 768.96 
L 907.2 103.68 
" style="fill: none; stroke: #000000; stroke-width: 0.8; stroke-linejoin: miter; stroke-linecap: square"/>
   </g>
   <g id="patch_5">
    <path d="M 126 768.96 
L 907.2 768.96 
" style="fill: none; stroke: #000000; stroke-width: 0.8; stroke-linejoin: miter; stroke-linecap: square"/>
   </g>
   <g id="patch_6">
    <path d="M 126 103.68 
L 907.2 103.68 
" style="fill: none; stroke: #000000; stroke-width: 0.8; stroke-linejoin: miter; stroke-linecap: square"/>
   </g>
   <g id="legend_1">
    <g id="patch_7">
     <path d="M 138.6 223.7625 
L 364.545 223.7625 
Q 368.145 223.7625 368.145 220.1625 
L 368.145 116.28 
Q 368.145 112.68 364.545 112.68 
L 138.6 112.68 
Q 135 112.68 135 116.28 
L 135 220.1625 
Q 135 223.7625 138.6 223.7625 
z
" style="fill: #ffffff; opacity: 0.8; stroke: #cccccc; stroke-linejoin: miter"/>
    </g>
    <g id="patch_8">
     <path d="M 142.2 133.557187 
L 178.2 133.557187 
L 178.2 120.957187 
L 142.2 120.957187 
z
" style="fill: #1a85ff; opacity: 0.5; stroke: #1a85ff; stroke-linejoin: miter"/>
    </g>
    <g id="text_16">
     <!-- shape index -->
     <g transform="translate(192.6 133.557187) scale(0.18 -0.18)">
      <defs>
       <path id="DejaVuSans-68" d="M 3513 2113 
L 3513 0 
L 2938 0 
L 2938 2094 
Q 2938 2591 2744 2837 
Q 2550 3084 2163 3084 
Q 1697 3084 1428 2787 
Q 1159 2491 1159 1978 
L 1159 0 
L 581 0 
L 581 4863 
L 1159 4863 
L 1159 2956 
Q 1366 3272 1645 3428 
Q 1925 3584 2291 3584 
Q 2894 3584 3203 3211 
Q 3513 2838 3513 2113 
z
" transform="scale(0.015625)"/>
       <path id="DejaVuSans-61" d="M 2194 1759 
Q 1497 1759 1228 1600 
Q 959 1441 959 1056 
Q 959 750 1161 570 
Q 1363 391 1709 391 
Q 2188 391 2477 730 
Q 2766 1069 2766 1631 
L 2766 1759 
L 2194 1759 
z
M 3341 1997 
L 3341 0 
L 2766 0 
L 2766 531 
Q 2569 213 2275 61 
Q 1981 -91 1556 -91 
Q 1019 -91 701 211 
Q 384 513 384 1019 
Q 384 1609 779 1909 
Q 1175 2209 1959 2209 
L 2766 2209 
L 2766 2266 
Q 2766 2663 2505 2880 
Q 2244 3097 1772 3097 
Q 1472 3097 1187 3025 
Q 903 2953 641 2809 
L 641 3341 
Q 956 3463 1253 3523 
Q 1550 3584 1831 3584 
Q 2591 3584 2966 3190 
Q 3341 2797 3341 1997 
z
" transform="scale(0.015625)"/>
       <path id="DejaVuSans-70" d="M 1159 525 
L 1159 -1331 
L 581 -1331 
L 581 3500 
L 1159 3500 
L 1159 2969 
Q 1341 3281 1617 3432 
Q 1894 3584 2278 3584 
Q 2916 3584 3314 3078 
Q 3713 2572 3713 1747 
Q 3713 922 3314 415 
Q 2916 -91 2278 -91 
Q 1894 -91 1617 61 
Q 1341 213 1159 525 
z
M 3116 1747 
Q 3116 2381 2855 2742 
Q 2594 3103 2138 3103 
Q 1681 3103 1420 2742 
Q 1159 2381 1159 1747 
Q 1159 1113 1420 752 
Q 1681 391 2138 391 
Q 2594 391 2855 752 
Q 3116 1113 3116 1747 
z
" transform="scale(0.015625)"/>
       <path id="DejaVuSans-64" d="M 2906 2969 
L 2906 4863 
L 3481 4863 
L 3481 0 
L 2906 0 
L 2906 525 
Q 2725 213 2448 61 
Q 2172 -91 1784 -91 
Q 1150 -91 751 415 
Q 353 922 353 1747 
Q 353 2572 751 3078 
Q 1150 3584 1784 3584 
Q 2172 3584 2448 3432 
Q 2725 3281 2906 2969 
z
M 947 1747 
Q 947 1113 1208 752 
Q 1469 391 1925 391 
Q 2381 391 2643 752 
Q 2906 1113 2906 1747 
Q 2906 2381 2643 2742 
Q 2381 3103 1925 3103 
Q 1469 3103 1208 2742 
Q 947 2381 947 1747 
z
" transform="scale(0.015625)"/>
      </defs>
      <use xlink:href="#DejaVuSans-73"/>
      <use xlink:href="#DejaVuSans-68" transform="translate(52.099609 0)"/>
      <use xlink:href="#DejaVuSans-61" transform="translate(115.478516 0)"/>
      <use xlink:href="#DejaVuSans-70" transform="translate(176.757812 0)"/>
      <use xlink:href="#DejaVuSans-65" transform="translate(240.234375 0)"/>
      <use xlink:href="#DejaVuSans-20" transform="translate(301.757812 0)"/>
      <use xlink:href="#DejaVuSans-69" transform="translate(333.544922 0)"/>
      <use xlink:href="#DejaVuSans-6e" transform="translate(361.328125 0)"/>
      <use xlink:href="#DejaVuSans-64" transform="translate(424.707031 0)"/>
      <use xlink:href="#DejaVuSans-65" transform="translate(488.183594 0)"/>
      <use xlink:href="#DejaVuSans-78" transform="translate(547.957031 0)"/>
     </g>
    </g>
    <g id="patch_9">
     <path d="M 142.2 159.977812 
L 178.2 159.977812 
L 178.2 147.377812 
L 142.2 147.377812 
z
" style="fill: #d41159; opacity: 0.5; stroke: #d41159; stroke-linejoin: miter"/>
    </g>
    <g id="text_17">
     <!-- ldp -->
     <g transform="translate(192.6 159.977812) scale(0.18 -0.18)">
      <defs>
       <path id="DejaVuSans-6c" d="M 603 4863 
L 1178 4863 
L 1178 0 
L 603 0 
L 603 4863 
z
" transform="scale(0.015625)"/>
      </defs>
      <use xlink:href="#DejaVuSans-6c"/>
      <use xlink:href="#DejaVuSans-64" transform="translate(27.783203 0)"/>
      <use xlink:href="#DejaVuSans-70" transform="translate(91.259766 0)"/>
     </g>
    </g>
    <g id="patch_10">
     <path d="M 142.2 186.398437 
L 178.2 186.398437 
L 178.2 173.798437 
L 142.2 173.798437 
z
" style="fill: #004d40; opacity: 0.5; stroke: #004d40; stroke-linejoin: miter"/>
    </g>
    <g id="text_18">
     <!-- type index and ldp -->
     <g transform="translate(192.6 186.398437) scale(0.18 -0.18)">
      <use xlink:href="#DejaVuSans-74"/>
      <use xlink:href="#DejaVuSans-79" transform="translate(39.208984 0)"/>
      <use xlink:href="#DejaVuSans-70" transform="translate(98.388672 0)"/>
      <use xlink:href="#DejaVuSans-65" transform="translate(161.865234 0)"/>
      <use xlink:href="#DejaVuSans-20" transform="translate(223.388672 0)"/>
      <use xlink:href="#DejaVuSans-69" transform="translate(255.175781 0)"/>
      <use xlink:href="#DejaVuSans-6e" transform="translate(282.958984 0)"/>
      <use xlink:href="#DejaVuSans-64" transform="translate(346.337891 0)"/>
      <use xlink:href="#DejaVuSans-65" transform="translate(409.814453 0)"/>
      <use xlink:href="#DejaVuSans-78" transform="translate(469.587891 0)"/>
      <use xlink:href="#DejaVuSans-20" transform="translate(528.767578 0)"/>
      <use xlink:href="#DejaVuSans-61" transform="translate(560.554688 0)"/>
      <use xlink:href="#DejaVuSans-6e" transform="translate(621.833984 0)"/>
      <use xlink:href="#DejaVuSans-64" transform="translate(685.212891 0)"/>
      <use xlink:href="#DejaVuSans-20" transform="translate(748.689453 0)"/>
      <use xlink:href="#DejaVuSans-6c" transform="translate(780.476562 0)"/>
      <use xlink:href="#DejaVuSans-64" transform="translate(808.259766 0)"/>
      <use xlink:href="#DejaVuSans-70" transform="translate(871.736328 0)"/>
     </g>
    </g>
    <g id="line2d_22">
     <defs>
      <path id="mc2dbc760d7" d="M -2.5 5 
L 0 2.5 
L 2.5 5 
L 5 2.5 
L 2.5 0 
L 5 -2.5 
L 2.5 -5 
L 0 -2.5 
L -2.5 -5 
L -5 -2.5 
L -2.5 0 
L -5 2.5 
z
" style="stroke: #000000; stroke-linejoin: miter"/>
     </defs>
     <g>
      <use xlink:href="#mc2dbc760d7" x="160.2" y="206.519062" style="stroke: #000000; stroke-linejoin: miter"/>
     </g>
    </g>
    <g id="text_19">
     <!-- Timeout -->
     <g transform="translate(192.6 212.819062) scale(0.18 -0.18)">
      <defs>
       <path id="DejaVuSans-54" d="M -19 4666 
L 3928 4666 
L 3928 4134 
L 2272 4134 
L 2272 0 
L 1638 0 
L 1638 4134 
L -19 4134 
L -19 4666 
z
" transform="scale(0.015625)"/>
      </defs>
      <use xlink:href="#DejaVuSans-54"/>
      <use xlink:href="#DejaVuSans-69" transform="translate(57.958984 0)"/>
      <use xlink:href="#DejaVuSans-6d" transform="translate(85.742188 0)"/>
      <use xlink:href="#DejaVuSans-65" transform="translate(183.154297 0)"/>
      <use xlink:href="#DejaVuSans-6f" transform="translate(244.677734 0)"/>
      <use xlink:href="#DejaVuSans-75" transform="translate(305.859375 0)"/>
      <use xlink:href="#DejaVuSans-74" transform="translate(369.238281 0)"/>
     </g>
    </g>
   </g>
  </g>
 </g>
 <defs>
  <clipPath id="p09743c7c3b">
   <rect x="126" y="103.68" width="781.2" height="665.28"/>
  </clipPath>
 </defs>
</svg>
