<?xml version="1.0" encoding="utf-8" standalone="no"?>
<!DOCTYPE svg PUBLIC "-//W3C//DTD SVG 1.1//EN"
  "http://www.w3.org/Graphics/SVG/1.1/DTD/svg11.dtd">
<svg xmlns:xlink="http://www.w3.org/1999/xlink" width="1440pt" height="720pt" viewBox="0 0 1440 720" xmlns="http://www.w3.org/2000/svg" version="1.1">
 <metadata>
  <rdf:RDF xmlns:dc="http://purl.org/dc/elements/1.1/" xmlns:cc="http://creativecommons.org/ns#" xmlns:rdf="http://www.w3.org/1999/02/22-rdf-syntax-ns#">
   <cc:Work>
    <dc:type rdf:resource="http://purl.org/dc/dcmitype/StillImage"/>
    <dc:date>2025-09-13T10:07:50.671512</dc:date>
    <dc:format>image/svg+xml</dc:format>
    <dc:creator>
     <cc:Agent>
      <dc:title>Matplotlib v3.10.3, https://matplotlib.org/</dc:title>
     </cc:Agent>
    </dc:creator>
   </cc:Work>
  </rdf:RDF>
 </metadata>
 <defs>
  <style type="text/css">*{stroke-linejoin: round; stroke-linecap: butt}</style>
 </defs>
 <g id="figure_1">
  <g id="patch_1">
   <path d="M 0 720 
L 1440 720 
L 1440 0 
L 0 0 
z
" style="fill: #ffffff"/>
  </g>
  <g id="axes_1">
   <g id="patch_2">
    <path d="M 180 640.8 
L 1296 640.8 
L 1296 86.4 
L 180 86.4 
z
" style="fill: #ffffff"/>
   </g>
   <g id="patch_3">
    <path d="M 230.727273 640.8 
L 247.359165 640.8 
L 247.359165 528.846569 
L 230.727273 528.846569 
z
" clip-path="url(#p529c3c68ed)" style="fill: #1a85ff"/>
   </g>
   <g id="patch_4">
    <path d="M 302.006813 640.8 
L 318.638706 640.8 
L 318.638706 424.062872 
L 302.006813 424.062872 
z
" clip-path="url(#p529c3c68ed)" style="fill: #1a85ff"/>
   </g>
   <g id="patch_5">
    <path d="M 373.286353 640.8 
L 389.918246 640.8 
L 389.918246 432.332922 
L 373.286353 432.332922 
z
" clip-path="url(#p529c3c68ed)" style="fill: #1a85ff"/>
   </g>
   <g id="patch_6">
    <path d="M 444.565893 640.8 
L 461.197786 640.8 
L 461.197786 544.044746 
L 444.565893 544.044746 
z
" clip-path="url(#p529c3c68ed)" style="fill: #1a85ff"/>
   </g>
   <g id="patch_7">
    <path d="M 515.845433 640.8 
L 532.477326 640.8 
L 532.477326 532.232919 
L 515.845433 532.232919 
z
" clip-path="url(#p529c3c68ed)" style="fill: #1a85ff"/>
   </g>
   <g id="patch_8">
    <path d="M 587.124973 640.8 
L 603.756866 640.8 
L 603.756866 486.748986 
L 587.124973 486.748986 
z
" clip-path="url(#p529c3c68ed)" style="fill: #1a85ff"/>
   </g>
   <g id="patch_9">
    <path d="M 658.404514 640.8 
L 675.036406 640.8 
L 675.036406 492.51037 
L 658.404514 492.51037 
z
" clip-path="url(#p529c3c68ed)" style="fill: #1a85ff"/>
   </g>
   <g id="patch_10">
    <path d="M 0 0 
z
" clip-path="url(#p529c3c68ed)" style="fill: #1a85ff"/>
   </g>
   <g id="patch_11">
    <path d="M 800.963594 640.8 
L 817.595486 640.8 
L 817.595486 622.751671 
L 800.963594 622.751671 
z
" clip-path="url(#p529c3c68ed)" style="fill: #1a85ff"/>
   </g>
   <g id="patch_12">
    <path d="M 0 0 
z
" clip-path="url(#p529c3c68ed)" style="fill: #1a85ff"/>
   </g>
   <g id="patch_13">
    <path d="M 0 0 
z
" clip-path="url(#p529c3c68ed)" style="fill: #1a85ff"/>
   </g>
   <g id="patch_14">
    <path d="M 1014.802214 640.8 
L 1031.434107 640.8 
L 1031.434107 612.107389 
L 1014.802214 612.107389 
z
" clip-path="url(#p529c3c68ed)" style="fill: #1a85ff"/>
   </g>
   <g id="patch_15">
    <path d="M 1086.081754 640.8 
L 1102.713647 640.8 
L 1102.713647 590.091669 
L 1086.081754 590.091669 
z
" clip-path="url(#p529c3c68ed)" style="fill: #1a85ff"/>
   </g>
   <g id="patch_16">
    <path d="M 0 0 
z
" clip-path="url(#p529c3c68ed)" style="fill: #1a85ff"/>
   </g>
   <g id="patch_17">
    <path d="M 1228.640835 640.8 
L 1245.272727 640.8 
L 1245.272727 112.8 
L 1228.640835 112.8 
z
" clip-path="url(#p529c3c68ed)" style="fill: #1a85ff"/>
   </g>
   <g id="patch_18">
    <path d="M 247.359165 640.8 
L 263.991058 640.8 
L 263.991058 438.68098 
L 247.359165 438.68098 
z
" clip-path="url(#p529c3c68ed)" style="fill: #d41159"/>
   </g>
   <g id="patch_19">
    <path d="M 318.638706 640.8 
L 335.270598 640.8 
L 335.270598 417.115722 
L 318.638706 417.115722 
z
" clip-path="url(#p529c3c68ed)" style="fill: #d41159"/>
   </g>
   <g id="patch_20">
    <path d="M 389.918246 640.8 
L 406.550138 640.8 
L 406.550138 430.596587 
L 389.918246 430.596587 
z
" clip-path="url(#p529c3c68ed)" style="fill: #d41159"/>
   </g>
   <g id="patch_21">
    <path d="M 461.197786 640.8 
L 477.829679 640.8 
L 477.829679 464.322396 
L 461.197786 464.322396 
z
" clip-path="url(#p529c3c68ed)" style="fill: #d41159"/>
   </g>
   <g id="patch_22">
    <path d="M 532.477326 640.8 
L 549.109219 640.8 
L 549.109219 530.919364 
L 532.477326 530.919364 
z
" clip-path="url(#p529c3c68ed)" style="fill: #d41159"/>
   </g>
   <g id="patch_23">
    <path d="M 603.756866 640.8 
L 620.388759 640.8 
L 620.388759 493.387993 
L 603.756866 493.387993 
z
" clip-path="url(#p529c3c68ed)" style="fill: #d41159"/>
   </g>
   <g id="patch_24">
    <path d="M 675.036406 640.8 
L 691.668299 640.8 
L 691.668299 492.428766 
L 675.036406 492.428766 
z
" clip-path="url(#p529c3c68ed)" style="fill: #d41159"/>
   </g>
   <g id="patch_25">
    <path d="M 0 0 
z
" clip-path="url(#p529c3c68ed)" style="fill: #d41159"/>
   </g>
   <g id="patch_26">
    <path d="M 817.595486 640.8 
L 834.227379 640.8 
L 834.227379 563.075259 
L 817.595486 563.075259 
z
" clip-path="url(#p529c3c68ed)" style="fill: #d41159"/>
   </g>
   <g id="patch_27">
    <path d="M 0 0 
z
" clip-path="url(#p529c3c68ed)" style="fill: #d41159"/>
   </g>
   <g id="patch_28">
    <path d="M 0 0 
z
" clip-path="url(#p529c3c68ed)" style="fill: #d41159"/>
   </g>
   <g id="patch_29">
    <path d="M 1031.434107 640.8 
L 1048.066 640.8 
L 1048.066 621.345347 
L 1031.434107 621.345347 
z
" clip-path="url(#p529c3c68ed)" style="fill: #d41159"/>
   </g>
   <g id="patch_30">
    <path d="M 1102.713647 640.8 
L 1119.34554 640.8 
L 1119.34554 556.5021 
L 1102.713647 556.5021 
z
" clip-path="url(#p529c3c68ed)" style="fill: #d41159"/>
   </g>
   <g id="patch_31">
    <path d="M 0 0 
z
" clip-path="url(#p529c3c68ed)" style="fill: #d41159"/>
   </g>
   <g id="patch_32">
    <path d="M 0 0 
z
" clip-path="url(#p529c3c68ed)" style="fill: #d41159"/>
   </g>
   <g id="patch_33">
    <path d="M 263.991058 640.8 
L 280.622951 640.8 
L 280.622951 438.022109 
L 263.991058 438.022109 
z
" clip-path="url(#p529c3c68ed)" style="fill: #004d40"/>
   </g>
   <g id="patch_34">
    <path d="M 335.270598 640.8 
L 351.902491 640.8 
L 351.902491 416.668333 
L 335.270598 416.668333 
z
" clip-path="url(#p529c3c68ed)" style="fill: #004d40"/>
   </g>
   <g id="patch_35">
    <path d="M 406.550138 640.8 
L 423.182031 640.8 
L 423.182031 436.479249 
L 406.550138 436.479249 
z
" clip-path="url(#p529c3c68ed)" style="fill: #004d40"/>
   </g>
   <g id="patch_36">
    <path d="M 477.829679 640.8 
L 494.461571 640.8 
L 494.461571 466.144596 
L 477.829679 466.144596 
z
" clip-path="url(#p529c3c68ed)" style="fill: #004d40"/>
   </g>
   <g id="patch_37">
    <path d="M 549.109219 640.8 
L 565.741111 640.8 
L 565.741111 530.492089 
L 549.109219 530.492089 
z
" clip-path="url(#p529c3c68ed)" style="fill: #004d40"/>
   </g>
   <g id="patch_38">
    <path d="M 620.388759 640.8 
L 637.020651 640.8 
L 637.020651 496.74854 
L 620.388759 496.74854 
z
" clip-path="url(#p529c3c68ed)" style="fill: #004d40"/>
   </g>
   <g id="patch_39">
    <path d="M 691.668299 640.8 
L 708.300192 640.8 
L 708.300192 492.041589 
L 691.668299 492.041589 
z
" clip-path="url(#p529c3c68ed)" style="fill: #004d40"/>
   </g>
   <g id="patch_40">
    <path d="M 0 0 
z
" clip-path="url(#p529c3c68ed)" style="fill: #004d40"/>
   </g>
   <g id="patch_41">
    <path d="M 834.227379 640.8 
L 850.859272 640.8 
L 850.859272 563.58193 
L 834.227379 563.58193 
z
" clip-path="url(#p529c3c68ed)" style="fill: #004d40"/>
   </g>
   <g id="patch_42">
    <path d="M 0 0 
z
" clip-path="url(#p529c3c68ed)" style="fill: #004d40"/>
   </g>
   <g id="patch_43">
    <path d="M 0 0 
z
" clip-path="url(#p529c3c68ed)" style="fill: #004d40"/>
   </g>
   <g id="patch_44">
    <path d="M 1048.066 640.8 
L 1064.697892 640.8 
L 1064.697892 621.505004 
L 1048.066 621.505004 
z
" clip-path="url(#p529c3c68ed)" style="fill: #004d40"/>
   </g>
   <g id="patch_45">
    <path d="M 1119.34554 640.8 
L 1135.977432 640.8 
L 1135.977432 559.07761 
L 1119.34554 559.07761 
z
" clip-path="url(#p529c3c68ed)" style="fill: #004d40"/>
   </g>
   <g id="patch_46">
    <path d="M 0 0 
z
" clip-path="url(#p529c3c68ed)" style="fill: #004d40"/>
   </g>
   <g id="patch_47">
    <path d="M 0 0 
z
" clip-path="url(#p529c3c68ed)" style="fill: #004d40"/>
   </g>
   <g id="matplotlib.axis_1">
    <g id="xtick_1">
     <g id="line2d_1"/>
     <g id="text_1">
      <!-- D1 -->
      <g transform="translate(238.881148 656.4575) scale(0.16 -0.16)">
       <defs>
        <path id="DejaVuSans-44" d="M 1259 4147 
L 1259 519 
L 2022 519 
Q 2988 519 3436 956 
Q 3884 1394 3884 2338 
Q 3884 3275 3436 3711 
Q 2988 4147 2022 4147 
L 1259 4147 
z
M 628 4666 
L 1925 4666 
Q 3281 4666 3915 4102 
Q 4550 3538 4550 2338 
Q 4550 1131 3912 565 
Q 3275 0 1925 0 
L 628 0 
L 628 4666 
z
" transform="scale(0.015625)"/>
        <path id="DejaVuSans-31" d="M 794 531 
L 1825 531 
L 1825 4091 
L 703 3866 
L 703 4441 
L 1819 4666 
L 2450 4666 
L 2450 531 
L 3481 531 
L 3481 0 
L 794 0 
L 794 531 
z
" transform="scale(0.015625)"/>
       </defs>
       <use xlink:href="#DejaVuSans-44"/>
       <use xlink:href="#DejaVuSans-31" transform="translate(77.001953 0)"/>
      </g>
     </g>
    </g>
    <g id="xtick_2">
     <g id="line2d_2"/>
     <g id="text_2">
      <!-- D2 -->
      <g transform="translate(310.160688 656.4575) scale(0.16 -0.16)">
       <defs>
        <path id="DejaVuSans-32" d="M 1228 531 
L 3431 531 
L 3431 0 
L 469 0 
L 469 531 
Q 828 903 1448 1529 
Q 2069 2156 2228 2338 
Q 2531 2678 2651 2914 
Q 2772 3150 2772 3378 
Q 2772 3750 2511 3984 
Q 2250 4219 1831 4219 
Q 1534 4219 1204 4116 
Q 875 4013 500 3803 
L 500 4441 
Q 881 4594 1212 4672 
Q 1544 4750 1819 4750 
Q 2544 4750 2975 4387 
Q 3406 4025 3406 3419 
Q 3406 3131 3298 2873 
Q 3191 2616 2906 2266 
Q 2828 2175 2409 1742 
Q 1991 1309 1228 531 
z
" transform="scale(0.015625)"/>
       </defs>
       <use xlink:href="#DejaVuSans-44"/>
       <use xlink:href="#DejaVuSans-32" transform="translate(77.001953 0)"/>
      </g>
     </g>
    </g>
    <g id="xtick_3">
     <g id="line2d_3"/>
     <g id="text_3">
      <!-- D3 -->
      <g transform="translate(381.440228 656.4575) scale(0.16 -0.16)">
       <defs>
        <path id="DejaVuSans-33" d="M 2597 2516 
Q 3050 2419 3304 2112 
Q 3559 1806 3559 1356 
Q 3559 666 3084 287 
Q 2609 -91 1734 -91 
Q 1441 -91 1130 -33 
Q 819 25 488 141 
L 488 750 
Q 750 597 1062 519 
Q 1375 441 1716 441 
Q 2309 441 2620 675 
Q 2931 909 2931 1356 
Q 2931 1769 2642 2001 
Q 2353 2234 1838 2234 
L 1294 2234 
L 1294 2753 
L 1863 2753 
Q 2328 2753 2575 2939 
Q 2822 3125 2822 3475 
Q 2822 3834 2567 4026 
Q 2313 4219 1838 4219 
Q 1578 4219 1281 4162 
Q 984 4106 628 3988 
L 628 4550 
Q 988 4650 1302 4700 
Q 1616 4750 1894 4750 
Q 2613 4750 3031 4423 
Q 3450 4097 3450 3541 
Q 3450 3153 3228 2886 
Q 3006 2619 2597 2516 
z
" transform="scale(0.015625)"/>
       </defs>
       <use xlink:href="#DejaVuSans-44"/>
       <use xlink:href="#DejaVuSans-33" transform="translate(77.001953 0)"/>
      </g>
     </g>
    </g>
    <g id="xtick_4">
     <g id="line2d_4"/>
     <g id="text_4">
      <!-- D4 -->
      <g transform="translate(452.719768 656.4575) scale(0.16 -0.16)">
       <defs>
        <path id="DejaVuSans-34" d="M 2419 4116 
L 825 1625 
L 2419 1625 
L 2419 4116 
z
M 2253 4666 
L 3047 4666 
L 3047 1625 
L 3713 1625 
L 3713 1100 
L 3047 1100 
L 3047 0 
L 2419 0 
L 2419 1100 
L 313 1100 
L 313 1709 
L 2253 4666 
z
" transform="scale(0.015625)"/>
       </defs>
       <use xlink:href="#DejaVuSans-44"/>
       <use xlink:href="#DejaVuSans-34" transform="translate(77.001953 0)"/>
      </g>
     </g>
    </g>
    <g id="xtick_5">
     <g id="line2d_5"/>
     <g id="text_5">
      <!-- D5 -->
      <g transform="translate(523.999308 656.4575) scale(0.16 -0.16)">
       <defs>
        <path id="DejaVuSans-35" d="M 691 4666 
L 3169 4666 
L 3169 4134 
L 1269 4134 
L 1269 2991 
Q 1406 3038 1543 3061 
Q 1681 3084 1819 3084 
Q 2600 3084 3056 2656 
Q 3513 2228 3513 1497 
Q 3513 744 3044 326 
Q 2575 -91 1722 -91 
Q 1428 -91 1123 -41 
Q 819 9 494 109 
L 494 744 
Q 775 591 1075 516 
Q 1375 441 1709 441 
Q 2250 441 2565 725 
Q 2881 1009 2881 1497 
Q 2881 1984 2565 2268 
Q 2250 2553 1709 2553 
Q 1456 2553 1204 2497 
Q 953 2441 691 2322 
L 691 4666 
z
" transform="scale(0.015625)"/>
       </defs>
       <use xlink:href="#DejaVuSans-44"/>
       <use xlink:href="#DejaVuSans-35" transform="translate(77.001953 0)"/>
      </g>
     </g>
    </g>
    <g id="xtick_6">
     <g id="line2d_6"/>
     <g id="text_6">
      <!-- D6 -->
      <g transform="translate(595.278848 656.4575) scale(0.16 -0.16)">
       <defs>
        <path id="DejaVuSans-36" d="M 2113 2584 
Q 1688 2584 1439 2293 
Q 1191 2003 1191 1497 
Q 1191 994 1439 701 
Q 1688 409 2113 409 
Q 2538 409 2786 701 
Q 3034 994 3034 1497 
Q 3034 2003 2786 2293 
Q 2538 2584 2113 2584 
z
M 3366 4563 
L 3366 3988 
Q 3128 4100 2886 4159 
Q 2644 4219 2406 4219 
Q 1781 4219 1451 3797 
Q 1122 3375 1075 2522 
Q 1259 2794 1537 2939 
Q 1816 3084 2150 3084 
Q 2853 3084 3261 2657 
Q 3669 2231 3669 1497 
Q 3669 778 3244 343 
Q 2819 -91 2113 -91 
Q 1303 -91 875 529 
Q 447 1150 447 2328 
Q 447 3434 972 4092 
Q 1497 4750 2381 4750 
Q 2619 4750 2861 4703 
Q 3103 4656 3366 4563 
z
" transform="scale(0.015625)"/>
       </defs>
       <use xlink:href="#DejaVuSans-44"/>
       <use xlink:href="#DejaVuSans-36" transform="translate(77.001953 0)"/>
      </g>
     </g>
    </g>
    <g id="xtick_7">
     <g id="line2d_7"/>
     <g id="text_7">
      <!-- D7 -->
      <g transform="translate(666.558388 656.4575) scale(0.16 -0.16)">
       <defs>
        <path id="DejaVuSans-37" d="M 525 4666 
L 3525 4666 
L 3525 4397 
L 1831 0 
L 1172 0 
L 2766 4134 
L 525 4134 
L 525 4666 
z
" transform="scale(0.015625)"/>
       </defs>
       <use xlink:href="#DejaVuSans-44"/>
       <use xlink:href="#DejaVuSans-37" transform="translate(77.001953 0)"/>
      </g>
     </g>
    </g>
    <g id="xtick_8">
     <g id="line2d_8"/>
     <g id="text_8">
      <!-- D8 -->
      <g transform="translate(737.837928 656.4575) scale(0.16 -0.16)">
       <defs>
        <path id="DejaVuSans-38" d="M 2034 2216 
Q 1584 2216 1326 1975 
Q 1069 1734 1069 1313 
Q 1069 891 1326 650 
Q 1584 409 2034 409 
Q 2484 409 2743 651 
Q 3003 894 3003 1313 
Q 3003 1734 2745 1975 
Q 2488 2216 2034 2216 
z
M 1403 2484 
Q 997 2584 770 2862 
Q 544 3141 544 3541 
Q 544 4100 942 4425 
Q 1341 4750 2034 4750 
Q 2731 4750 3128 4425 
Q 3525 4100 3525 3541 
Q 3525 3141 3298 2862 
Q 3072 2584 2669 2484 
Q 3125 2378 3379 2068 
Q 3634 1759 3634 1313 
Q 3634 634 3220 271 
Q 2806 -91 2034 -91 
Q 1263 -91 848 271 
Q 434 634 434 1313 
Q 434 1759 690 2068 
Q 947 2378 1403 2484 
z
M 1172 3481 
Q 1172 3119 1398 2916 
Q 1625 2713 2034 2713 
Q 2441 2713 2670 2916 
Q 2900 3119 2900 3481 
Q 2900 3844 2670 4047 
Q 2441 4250 2034 4250 
Q 1625 4250 1398 4047 
Q 1172 3844 1172 3481 
z
" transform="scale(0.015625)"/>
       </defs>
       <use xlink:href="#DejaVuSans-44"/>
       <use xlink:href="#DejaVuSans-38" transform="translate(77.001953 0)"/>
      </g>
     </g>
    </g>
    <g id="xtick_9">
     <g id="line2d_9"/>
     <g id="text_9">
      <!-- S1 -->
      <g transform="translate(810.198719 656.4575) scale(0.16 -0.16)">
       <defs>
        <path id="DejaVuSans-53" d="M 3425 4513 
L 3425 3897 
Q 3066 4069 2747 4153 
Q 2428 4238 2131 4238 
Q 1616 4238 1336 4038 
Q 1056 3838 1056 3469 
Q 1056 3159 1242 3001 
Q 1428 2844 1947 2747 
L 2328 2669 
Q 3034 2534 3370 2195 
Q 3706 1856 3706 1288 
Q 3706 609 3251 259 
Q 2797 -91 1919 -91 
Q 1588 -91 1214 -16 
Q 841 59 441 206 
L 441 856 
Q 825 641 1194 531 
Q 1563 422 1919 422 
Q 2459 422 2753 634 
Q 3047 847 3047 1241 
Q 3047 1584 2836 1778 
Q 2625 1972 2144 2069 
L 1759 2144 
Q 1053 2284 737 2584 
Q 422 2884 422 3419 
Q 422 4038 858 4394 
Q 1294 4750 2059 4750 
Q 2388 4750 2728 4690 
Q 3069 4631 3425 4513 
z
" transform="scale(0.015625)"/>
       </defs>
       <use xlink:href="#DejaVuSans-53"/>
       <use xlink:href="#DejaVuSans-31" transform="translate(63.476562 0)"/>
      </g>
     </g>
    </g>
    <g id="xtick_10">
     <g id="line2d_10"/>
     <g id="text_10">
      <!-- S2 -->
      <g transform="translate(881.478259 656.4575) scale(0.16 -0.16)">
       <use xlink:href="#DejaVuSans-53"/>
       <use xlink:href="#DejaVuSans-32" transform="translate(63.476562 0)"/>
      </g>
     </g>
    </g>
    <g id="xtick_11">
     <g id="line2d_11"/>
     <g id="text_11">
      <!-- S3 -->
      <g transform="translate(952.757799 656.4575) scale(0.16 -0.16)">
       <use xlink:href="#DejaVuSans-53"/>
       <use xlink:href="#DejaVuSans-33" transform="translate(63.476562 0)"/>
      </g>
     </g>
    </g>
    <g id="xtick_12">
     <g id="line2d_12"/>
     <g id="text_12">
      <!-- S4 -->
      <g transform="translate(1024.037339 656.4575) scale(0.16 -0.16)">
       <use xlink:href="#DejaVuSans-53"/>
       <use xlink:href="#DejaVuSans-34" transform="translate(63.476562 0)"/>
      </g>
     </g>
    </g>
    <g id="xtick_13">
     <g id="line2d_13"/>
     <g id="text_13">
      <!-- S5 -->
      <g transform="translate(1095.316879 656.4575) scale(0.16 -0.16)">
       <use xlink:href="#DejaVuSans-53"/>
       <use xlink:href="#DejaVuSans-35" transform="translate(63.476562 0)"/>
      </g>
     </g>
    </g>
    <g id="xtick_14">
     <g id="line2d_14"/>
     <g id="text_14">
      <!-- S6 -->
      <g transform="translate(1166.596419 656.4575) scale(0.16 -0.16)">
       <use xlink:href="#DejaVuSans-53"/>
       <use xlink:href="#DejaVuSans-36" transform="translate(63.476562 0)"/>
      </g>
     </g>
    </g>
    <g id="xtick_15">
     <g id="line2d_15"/>
     <g id="text_15">
      <!-- S7 -->
      <g transform="translate(1237.875959 656.4575) scale(0.16 -0.16)">
       <use xlink:href="#DejaVuSans-53"/>
       <use xlink:href="#DejaVuSans-37" transform="translate(63.476562 0)"/>
      </g>
     </g>
    </g>
    <g id="text_16">
     <!-- query template -->
     <g transform="translate(676.24875 675.9425) scale(0.16 -0.16)">
      <defs>
       <path id="DejaVuSans-71" d="M 947 1747 
Q 947 1113 1208 752 
Q 1469 391 1925 391 
Q 2381 391 2643 752 
Q 2906 1113 2906 1747 
Q 2906 2381 2643 2742 
Q 2381 3103 1925 3103 
Q 1469 3103 1208 2742 
Q 947 2381 947 1747 
z
M 2906 525 
Q 2725 213 2448 61 
Q 2172 -91 1784 -91 
Q 1150 -91 751 415 
Q 353 922 353 1747 
Q 353 2572 751 3078 
Q 1150 3584 1784 3584 
Q 2172 3584 2448 3432 
Q 2725 3281 2906 2969 
L 2906 3500 
L 3481 3500 
L 3481 -1331 
L 2906 -1331 
L 2906 525 
z
" transform="scale(0.015625)"/>
       <path id="DejaVuSans-75" d="M 544 1381 
L 544 3500 
L 1119 3500 
L 1119 1403 
Q 1119 906 1312 657 
Q 1506 409 1894 409 
Q 2359 409 2629 706 
Q 2900 1003 2900 1516 
L 2900 3500 
L 3475 3500 
L 3475 0 
L 2900 0 
L 2900 538 
Q 2691 219 2414 64 
Q 2138 -91 1772 -91 
Q 1169 -91 856 284 
Q 544 659 544 1381 
z
M 1991 3584 
L 1991 3584 
z
" transform="scale(0.015625)"/>
       <path id="DejaVuSans-65" d="M 3597 1894 
L 3597 1613 
L 953 1613 
Q 991 1019 1311 708 
Q 1631 397 2203 397 
Q 2534 397 2845 478 
Q 3156 559 3463 722 
L 3463 178 
Q 3153 47 2828 -22 
Q 2503 -91 2169 -91 
Q 1331 -91 842 396 
Q 353 884 353 1716 
Q 353 2575 817 3079 
Q 1281 3584 2069 3584 
Q 2775 3584 3186 3129 
Q 3597 2675 3597 1894 
z
M 3022 2063 
Q 3016 2534 2758 2815 
Q 2500 3097 2075 3097 
Q 1594 3097 1305 2825 
Q 1016 2553 972 2059 
L 3022 2063 
z
" transform="scale(0.015625)"/>
       <path id="DejaVuSans-72" d="M 2631 2963 
Q 2534 3019 2420 3045 
Q 2306 3072 2169 3072 
Q 1681 3072 1420 2755 
Q 1159 2438 1159 1844 
L 1159 0 
L 581 0 
L 581 3500 
L 1159 3500 
L 1159 2956 
Q 1341 3275 1631 3429 
Q 1922 3584 2338 3584 
Q 2397 3584 2469 3576 
Q 2541 3569 2628 3553 
L 2631 2963 
z
" transform="scale(0.015625)"/>
       <path id="DejaVuSans-79" d="M 2059 -325 
Q 1816 -950 1584 -1140 
Q 1353 -1331 966 -1331 
L 506 -1331 
L 506 -850 
L 844 -850 
Q 1081 -850 1212 -737 
Q 1344 -625 1503 -206 
L 1606 56 
L 191 3500 
L 800 3500 
L 1894 763 
L 2988 3500 
L 3597 3500 
L 2059 -325 
z
" transform="scale(0.015625)"/>
       <path id="DejaVuSans-20" transform="scale(0.015625)"/>
       <path id="DejaVuSans-74" d="M 1172 4494 
L 1172 3500 
L 2356 3500 
L 2356 3053 
L 1172 3053 
L 1172 1153 
Q 1172 725 1289 603 
Q 1406 481 1766 481 
L 2356 481 
L 2356 0 
L 1766 0 
Q 1100 0 847 248 
Q 594 497 594 1153 
L 594 3053 
L 172 3053 
L 172 3500 
L 594 3500 
L 594 4494 
L 1172 4494 
z
" transform="scale(0.015625)"/>
       <path id="DejaVuSans-6d" d="M 3328 2828 
Q 3544 3216 3844 3400 
Q 4144 3584 4550 3584 
Q 5097 3584 5394 3201 
Q 5691 2819 5691 2113 
L 5691 0 
L 5113 0 
L 5113 2094 
Q 5113 2597 4934 2840 
Q 4756 3084 4391 3084 
Q 3944 3084 3684 2787 
Q 3425 2491 3425 1978 
L 3425 0 
L 2847 0 
L 2847 2094 
Q 2847 2600 2669 2842 
Q 2491 3084 2119 3084 
Q 1678 3084 1418 2786 
Q 1159 2488 1159 1978 
L 1159 0 
L 581 0 
L 581 3500 
L 1159 3500 
L 1159 2956 
Q 1356 3278 1631 3431 
Q 1906 3584 2284 3584 
Q 2666 3584 2933 3390 
Q 3200 3197 3328 2828 
z
" transform="scale(0.015625)"/>
       <path id="DejaVuSans-70" d="M 1159 525 
L 1159 -1331 
L 581 -1331 
L 581 3500 
L 1159 3500 
L 1159 2969 
Q 1341 3281 1617 3432 
Q 1894 3584 2278 3584 
Q 2916 3584 3314 3078 
Q 3713 2572 3713 1747 
Q 3713 922 3314 415 
Q 2916 -91 2278 -91 
Q 1894 -91 1617 61 
Q 1341 213 1159 525 
z
M 3116 1747 
Q 3116 2381 2855 2742 
Q 2594 3103 2138 3103 
Q 1681 3103 1420 2742 
Q 1159 2381 1159 1747 
Q 1159 1113 1420 752 
Q 1681 391 2138 391 
Q 2594 391 2855 752 
Q 3116 1113 3116 1747 
z
" transform="scale(0.015625)"/>
       <path id="DejaVuSans-6c" d="M 603 4863 
L 1178 4863 
L 1178 0 
L 603 0 
L 603 4863 
z
" transform="scale(0.015625)"/>
       <path id="DejaVuSans-61" d="M 2194 1759 
Q 1497 1759 1228 1600 
Q 959 1441 959 1056 
Q 959 750 1161 570 
Q 1363 391 1709 391 
Q 2188 391 2477 730 
Q 2766 1069 2766 1631 
L 2766 1759 
L 2194 1759 
z
M 3341 1997 
L 3341 0 
L 2766 0 
L 2766 531 
Q 2569 213 2275 61 
Q 1981 -91 1556 -91 
Q 1019 -91 701 211 
Q 384 513 384 1019 
Q 384 1609 779 1909 
Q 1175 2209 1959 2209 
L 2766 2209 
L 2766 2266 
Q 2766 2663 2505 2880 
Q 2244 3097 1772 3097 
Q 1472 3097 1187 3025 
Q 903 2953 641 2809 
L 641 3341 
Q 956 3463 1253 3523 
Q 1550 3584 1831 3584 
Q 2591 3584 2966 3190 
Q 3341 2797 3341 1997 
z
" transform="scale(0.015625)"/>
      </defs>
      <use xlink:href="#DejaVuSans-71"/>
      <use xlink:href="#DejaVuSans-75" transform="translate(63.476562 0)"/>
      <use xlink:href="#DejaVuSans-65" transform="translate(126.855469 0)"/>
      <use xlink:href="#DejaVuSans-72" transform="translate(188.378906 0)"/>
      <use xlink:href="#DejaVuSans-79" transform="translate(229.492188 0)"/>
      <use xlink:href="#DejaVuSans-20" transform="translate(288.671875 0)"/>
      <use xlink:href="#DejaVuSans-74" transform="translate(320.458984 0)"/>
      <use xlink:href="#DejaVuSans-65" transform="translate(359.667969 0)"/>
      <use xlink:href="#DejaVuSans-6d" transform="translate(421.191406 0)"/>
      <use xlink:href="#DejaVuSans-70" transform="translate(518.603516 0)"/>
      <use xlink:href="#DejaVuSans-6c" transform="translate(582.080078 0)"/>
      <use xlink:href="#DejaVuSans-61" transform="translate(609.863281 0)"/>
      <use xlink:href="#DejaVuSans-74" transform="translate(671.142578 0)"/>
      <use xlink:href="#DejaVuSans-65" transform="translate(710.351562 0)"/>
     </g>
    </g>
   </g>
   <g id="matplotlib.axis_2">
    <g id="ytick_1">
     <g id="line2d_16"/>
     <g id="text_17">
      <!-- 0 -->
      <g transform="translate(166.32 646.87875) scale(0.16 -0.16)">
       <defs>
        <path id="DejaVuSans-30" d="M 2034 4250 
Q 1547 4250 1301 3770 
Q 1056 3291 1056 2328 
Q 1056 1369 1301 889 
Q 1547 409 2034 409 
Q 2525 409 2770 889 
Q 3016 1369 3016 2328 
Q 3016 3291 2770 3770 
Q 2525 4250 2034 4250 
z
M 2034 4750 
Q 2819 4750 3233 4129 
Q 3647 3509 3647 2328 
Q 3647 1150 3233 529 
Q 2819 -91 2034 -91 
Q 1250 -91 836 529 
Q 422 1150 422 2328 
Q 422 3509 836 4129 
Q 1250 4750 2034 4750 
z
" transform="scale(0.015625)"/>
       </defs>
       <use xlink:href="#DejaVuSans-30"/>
      </g>
     </g>
    </g>
    <g id="ytick_2">
     <g id="line2d_17"/>
     <g id="text_18">
      <!-- 2,000 -->
      <g transform="translate(130.695 535.617754) scale(0.16 -0.16)">
       <defs>
        <path id="DejaVuSans-2c" d="M 750 794 
L 1409 794 
L 1409 256 
L 897 -744 
L 494 -744 
L 750 256 
L 750 794 
z
" transform="scale(0.015625)"/>
       </defs>
       <use xlink:href="#DejaVuSans-32"/>
       <use xlink:href="#DejaVuSans-2c" transform="translate(63.623047 0)"/>
       <use xlink:href="#DejaVuSans-30" transform="translate(95.410156 0)"/>
       <use xlink:href="#DejaVuSans-30" transform="translate(159.033203 0)"/>
       <use xlink:href="#DejaVuSans-30" transform="translate(222.65625 0)"/>
      </g>
     </g>
    </g>
    <g id="ytick_3">
     <g id="line2d_18"/>
     <g id="text_19">
      <!-- 4,000 -->
      <g transform="translate(130.695 424.356757) scale(0.16 -0.16)">
       <use xlink:href="#DejaVuSans-34"/>
       <use xlink:href="#DejaVuSans-2c" transform="translate(63.623047 0)"/>
       <use xlink:href="#DejaVuSans-30" transform="translate(95.410156 0)"/>
       <use xlink:href="#DejaVuSans-30" transform="translate(159.033203 0)"/>
       <use xlink:href="#DejaVuSans-30" transform="translate(222.65625 0)"/>
      </g>
     </g>
    </g>
    <g id="ytick_4">
     <g id="line2d_19"/>
     <g id="text_20">
      <!-- 6,000 -->
      <g transform="translate(130.695 313.095761) scale(0.16 -0.16)">
       <use xlink:href="#DejaVuSans-36"/>
       <use xlink:href="#DejaVuSans-2c" transform="translate(63.623047 0)"/>
       <use xlink:href="#DejaVuSans-30" transform="translate(95.410156 0)"/>
       <use xlink:href="#DejaVuSans-30" transform="translate(159.033203 0)"/>
       <use xlink:href="#DejaVuSans-30" transform="translate(222.65625 0)"/>
      </g>
     </g>
    </g>
    <g id="ytick_5">
     <g id="line2d_20"/>
     <g id="text_21">
      <!-- 8,000 -->
      <g transform="translate(130.695 201.834765) scale(0.16 -0.16)">
       <use xlink:href="#DejaVuSans-38"/>
       <use xlink:href="#DejaVuSans-2c" transform="translate(63.623047 0)"/>
       <use xlink:href="#DejaVuSans-30" transform="translate(95.410156 0)"/>
       <use xlink:href="#DejaVuSans-30" transform="translate(159.033203 0)"/>
       <use xlink:href="#DejaVuSans-30" transform="translate(222.65625 0)"/>
      </g>
     </g>
    </g>
    <g id="text_22">
     <!-- query execution time (ms) -->
     <g transform="translate(123.3675 469.58125) rotate(-90) scale(0.16 -0.16)">
      <defs>
       <path id="DejaVuSans-78" d="M 3513 3500 
L 2247 1797 
L 3578 0 
L 2900 0 
L 1881 1375 
L 863 0 
L 184 0 
L 1544 1831 
L 300 3500 
L 978 3500 
L 1906 2253 
L 2834 3500 
L 3513 3500 
z
" transform="scale(0.015625)"/>
       <path id="DejaVuSans-63" d="M 3122 3366 
L 3122 2828 
Q 2878 2963 2633 3030 
Q 2388 3097 2138 3097 
Q 1578 3097 1268 2742 
Q 959 2388 959 1747 
Q 959 1106 1268 751 
Q 1578 397 2138 397 
Q 2388 397 2633 464 
Q 2878 531 3122 666 
L 3122 134 
Q 2881 22 2623 -34 
Q 2366 -91 2075 -91 
Q 1284 -91 818 406 
Q 353 903 353 1747 
Q 353 2603 823 3093 
Q 1294 3584 2113 3584 
Q 2378 3584 2631 3529 
Q 2884 3475 3122 3366 
z
" transform="scale(0.015625)"/>
       <path id="DejaVuSans-69" d="M 603 3500 
L 1178 3500 
L 1178 0 
L 603 0 
L 603 3500 
z
M 603 4863 
L 1178 4863 
L 1178 4134 
L 603 4134 
L 603 4863 
z
" transform="scale(0.015625)"/>
       <path id="DejaVuSans-6f" d="M 1959 3097 
Q 1497 3097 1228 2736 
Q 959 2375 959 1747 
Q 959 1119 1226 758 
Q 1494 397 1959 397 
Q 2419 397 2687 759 
Q 2956 1122 2956 1747 
Q 2956 2369 2687 2733 
Q 2419 3097 1959 3097 
z
M 1959 3584 
Q 2709 3584 3137 3096 
Q 3566 2609 3566 1747 
Q 3566 888 3137 398 
Q 2709 -91 1959 -91 
Q 1206 -91 779 398 
Q 353 888 353 1747 
Q 353 2609 779 3096 
Q 1206 3584 1959 3584 
z
" transform="scale(0.015625)"/>
       <path id="DejaVuSans-6e" d="M 3513 2113 
L 3513 0 
L 2938 0 
L 2938 2094 
Q 2938 2591 2744 2837 
Q 2550 3084 2163 3084 
Q 1697 3084 1428 2787 
Q 1159 2491 1159 1978 
L 1159 0 
L 581 0 
L 581 3500 
L 1159 3500 
L 1159 2956 
Q 1366 3272 1645 3428 
Q 1925 3584 2291 3584 
Q 2894 3584 3203 3211 
Q 3513 2838 3513 2113 
z
" transform="scale(0.015625)"/>
       <path id="DejaVuSans-28" d="M 1984 4856 
Q 1566 4138 1362 3434 
Q 1159 2731 1159 2009 
Q 1159 1288 1364 580 
Q 1569 -128 1984 -844 
L 1484 -844 
Q 1016 -109 783 600 
Q 550 1309 550 2009 
Q 550 2706 781 3412 
Q 1013 4119 1484 4856 
L 1984 4856 
z
" transform="scale(0.015625)"/>
       <path id="DejaVuSans-73" d="M 2834 3397 
L 2834 2853 
Q 2591 2978 2328 3040 
Q 2066 3103 1784 3103 
Q 1356 3103 1142 2972 
Q 928 2841 928 2578 
Q 928 2378 1081 2264 
Q 1234 2150 1697 2047 
L 1894 2003 
Q 2506 1872 2764 1633 
Q 3022 1394 3022 966 
Q 3022 478 2636 193 
Q 2250 -91 1575 -91 
Q 1294 -91 989 -36 
Q 684 19 347 128 
L 347 722 
Q 666 556 975 473 
Q 1284 391 1588 391 
Q 1994 391 2212 530 
Q 2431 669 2431 922 
Q 2431 1156 2273 1281 
Q 2116 1406 1581 1522 
L 1381 1569 
Q 847 1681 609 1914 
Q 372 2147 372 2553 
Q 372 3047 722 3315 
Q 1072 3584 1716 3584 
Q 2034 3584 2315 3537 
Q 2597 3491 2834 3397 
z
" transform="scale(0.015625)"/>
       <path id="DejaVuSans-29" d="M 513 4856 
L 1013 4856 
Q 1481 4119 1714 3412 
Q 1947 2706 1947 2009 
Q 1947 1309 1714 600 
Q 1481 -109 1013 -844 
L 513 -844 
Q 928 -128 1133 580 
Q 1338 1288 1338 2009 
Q 1338 2731 1133 3434 
Q 928 4138 513 4856 
z
" transform="scale(0.015625)"/>
      </defs>
      <use xlink:href="#DejaVuSans-71"/>
      <use xlink:href="#DejaVuSans-75" transform="translate(63.476562 0)"/>
      <use xlink:href="#DejaVuSans-65" transform="translate(126.855469 0)"/>
      <use xlink:href="#DejaVuSans-72" transform="translate(188.378906 0)"/>
      <use xlink:href="#DejaVuSans-79" transform="translate(229.492188 0)"/>
      <use xlink:href="#DejaVuSans-20" transform="translate(288.671875 0)"/>
      <use xlink:href="#DejaVuSans-65" transform="translate(320.458984 0)"/>
      <use xlink:href="#DejaVuSans-78" transform="translate(380.232422 0)"/>
      <use xlink:href="#DejaVuSans-65" transform="translate(436.287109 0)"/>
      <use xlink:href="#DejaVuSans-63" transform="translate(497.810547 0)"/>
      <use xlink:href="#DejaVuSans-75" transform="translate(552.791016 0)"/>
      <use xlink:href="#DejaVuSans-74" transform="translate(616.169922 0)"/>
      <use xlink:href="#DejaVuSans-69" transform="translate(655.378906 0)"/>
      <use xlink:href="#DejaVuSans-6f" transform="translate(683.162109 0)"/>
      <use xlink:href="#DejaVuSans-6e" transform="translate(744.34375 0)"/>
      <use xlink:href="#DejaVuSans-20" transform="translate(807.722656 0)"/>
      <use xlink:href="#DejaVuSans-74" transform="translate(839.509766 0)"/>
      <use xlink:href="#DejaVuSans-69" transform="translate(878.71875 0)"/>
      <use xlink:href="#DejaVuSans-6d" transform="translate(906.501953 0)"/>
      <use xlink:href="#DejaVuSans-65" transform="translate(1003.914062 0)"/>
      <use xlink:href="#DejaVuSans-20" transform="translate(1065.4375 0)"/>
      <use xlink:href="#DejaVuSans-28" transform="translate(1097.224609 0)"/>
      <use xlink:href="#DejaVuSans-6d" transform="translate(1136.238281 0)"/>
      <use xlink:href="#DejaVuSans-73" transform="translate(1233.650391 0)"/>
      <use xlink:href="#DejaVuSans-29" transform="translate(1285.75 0)"/>
     </g>
    </g>
   </g>
   <g id="LineCollection_1">
    <path d="M 239.043219 623.110225 
L 239.043219 396.483415 
" clip-path="url(#p529c3c68ed)" style="fill: none; stroke: #000000; stroke-opacity: 0.3"/>
    <path d="M 310.322759 593.496261 
L 310.322759 301.780236 
" clip-path="url(#p529c3c68ed)" style="fill: none; stroke: #000000; stroke-opacity: 0.3"/>
    <path d="M 381.602299 533.913115 
L 381.602299 333.762694 
" clip-path="url(#p529c3c68ed)" style="fill: none; stroke: #000000; stroke-opacity: 0.3"/>
    <path d="M 452.881839 602.410199 
L 452.881839 459.136818 
" clip-path="url(#p529c3c68ed)" style="fill: none; stroke: #000000; stroke-opacity: 0.3"/>
    <path d="M 524.16138 619.117889 
L 524.16138 468.320502 
" clip-path="url(#p529c3c68ed)" style="fill: none; stroke: #000000; stroke-opacity: 0.3"/>
    <path d="M 595.44092 595.757802 
L 595.44092 338.229923 
" clip-path="url(#p529c3c68ed)" style="fill: none; stroke: #000000; stroke-opacity: 0.3"/>
    <path d="M 666.72046 594.536487 
L 666.72046 353.480393 
" clip-path="url(#p529c3c68ed)" style="fill: none; stroke: #000000; stroke-opacity: 0.3"/>
    <path clip-path="url(#p529c3c68ed)" style="fill: none; stroke: #000000; stroke-opacity: 0.3"/>
    <path d="M 809.27954 623.166147 
L 809.27954 622.385616 
" clip-path="url(#p529c3c68ed)" style="fill: none; stroke: #000000; stroke-opacity: 0.3"/>
    <path clip-path="url(#p529c3c68ed)" style="fill: none; stroke: #000000; stroke-opacity: 0.3"/>
    <path clip-path="url(#p529c3c68ed)" style="fill: none; stroke: #000000; stroke-opacity: 0.3"/>
    <path d="M 1023.118161 626.398199 
L 1023.118161 600.018128 
" clip-path="url(#p529c3c68ed)" style="fill: none; stroke: #000000; stroke-opacity: 0.3"/>
    <path d="M 1094.397701 616.261431 
L 1094.397701 558.636246 
" clip-path="url(#p529c3c68ed)" style="fill: none; stroke: #000000; stroke-opacity: 0.3"/>
    <path clip-path="url(#p529c3c68ed)" style="fill: none; stroke: #000000; stroke-opacity: 0.3"/>
    <path d="M 1236.956781 112.8 
L 1236.956781 112.8 
" clip-path="url(#p529c3c68ed)" style="fill: none; stroke: #000000; stroke-opacity: 0.3"/>
   </g>
   <g id="line2d_21">
    <defs>
     <path id="m3736d9a7f6" d="M 4 0 
L -4 -0 
" style="stroke: #000000; stroke-opacity: 0.3"/>
    </defs>
    <g clip-path="url(#p529c3c68ed)">
     <use xlink:href="#m3736d9a7f6" x="239.043219" y="623.110225" style="fill-opacity: 0.3; stroke: #000000; stroke-opacity: 0.3"/>
     <use xlink:href="#m3736d9a7f6" x="310.322759" y="593.496261" style="fill-opacity: 0.3; stroke: #000000; stroke-opacity: 0.3"/>
     <use xlink:href="#m3736d9a7f6" x="381.602299" y="533.913115" style="fill-opacity: 0.3; stroke: #000000; stroke-opacity: 0.3"/>
     <use xlink:href="#m3736d9a7f6" x="452.881839" y="602.410199" style="fill-opacity: 0.3; stroke: #000000; stroke-opacity: 0.3"/>
     <use xlink:href="#m3736d9a7f6" x="524.16138" y="619.117889" style="fill-opacity: 0.3; stroke: #000000; stroke-opacity: 0.3"/>
     <use xlink:href="#m3736d9a7f6" x="595.44092" y="595.757802" style="fill-opacity: 0.3; stroke: #000000; stroke-opacity: 0.3"/>
     <use xlink:href="#m3736d9a7f6" x="666.72046" y="594.536487" style="fill-opacity: 0.3; stroke: #000000; stroke-opacity: 0.3"/>
     <use xlink:href="#m3736d9a7f6" x="809.27954" y="623.166147" style="fill-opacity: 0.3; stroke: #000000; stroke-opacity: 0.3"/>
     <use xlink:href="#m3736d9a7f6" x="1023.118161" y="626.398199" style="fill-opacity: 0.3; stroke: #000000; stroke-opacity: 0.3"/>
     <use xlink:href="#m3736d9a7f6" x="1094.397701" y="616.261431" style="fill-opacity: 0.3; stroke: #000000; stroke-opacity: 0.3"/>
     <use xlink:href="#m3736d9a7f6" x="1236.956781" y="112.8" style="fill-opacity: 0.3; stroke: #000000; stroke-opacity: 0.3"/>
    </g>
   </g>
   <g id="line2d_22">
    <g clip-path="url(#p529c3c68ed)">
     <use xlink:href="#m3736d9a7f6" x="239.043219" y="396.483415" style="fill-opacity: 0.3; stroke: #000000; stroke-opacity: 0.3"/>
     <use xlink:href="#m3736d9a7f6" x="310.322759" y="301.780236" style="fill-opacity: 0.3; stroke: #000000; stroke-opacity: 0.3"/>
     <use xlink:href="#m3736d9a7f6" x="381.602299" y="333.762694" style="fill-opacity: 0.3; stroke: #000000; stroke-opacity: 0.3"/>
     <use xlink:href="#m3736d9a7f6" x="452.881839" y="459.136818" style="fill-opacity: 0.3; stroke: #000000; stroke-opacity: 0.3"/>
     <use xlink:href="#m3736d9a7f6" x="524.16138" y="468.320502" style="fill-opacity: 0.3; stroke: #000000; stroke-opacity: 0.3"/>
     <use xlink:href="#m3736d9a7f6" x="595.44092" y="338.229923" style="fill-opacity: 0.3; stroke: #000000; stroke-opacity: 0.3"/>
     <use xlink:href="#m3736d9a7f6" x="666.72046" y="353.480393" style="fill-opacity: 0.3; stroke: #000000; stroke-opacity: 0.3"/>
     <use xlink:href="#m3736d9a7f6" x="809.27954" y="622.385616" style="fill-opacity: 0.3; stroke: #000000; stroke-opacity: 0.3"/>
     <use xlink:href="#m3736d9a7f6" x="1023.118161" y="600.018128" style="fill-opacity: 0.3; stroke: #000000; stroke-opacity: 0.3"/>
     <use xlink:href="#m3736d9a7f6" x="1094.397701" y="558.636246" style="fill-opacity: 0.3; stroke: #000000; stroke-opacity: 0.3"/>
     <use xlink:href="#m3736d9a7f6" x="1236.956781" y="112.8" style="fill-opacity: 0.3; stroke: #000000; stroke-opacity: 0.3"/>
    </g>
   </g>
   <g id="LineCollection_2">
    <path d="M 255.675112 584.635719 
L 255.675112 324.718272 
" clip-path="url(#p529c3c68ed)" style="fill: none; stroke: #000000; stroke-opacity: 0.3"/>
    <path d="M 326.954652 577.211957 
L 326.954652 290.044724 
" clip-path="url(#p529c3c68ed)" style="fill: none; stroke: #000000; stroke-opacity: 0.3"/>
    <path d="M 398.234192 522.777544 
L 398.234192 359.535874 
" clip-path="url(#p529c3c68ed)" style="fill: none; stroke: #000000; stroke-opacity: 0.3"/>
    <path d="M 469.513732 587.583687 
L 469.513732 361.911974 
" clip-path="url(#p529c3c68ed)" style="fill: none; stroke: #000000; stroke-opacity: 0.3"/>
    <path d="M 540.793272 610.29709 
L 540.793272 474.404978 
" clip-path="url(#p529c3c68ed)" style="fill: none; stroke: #000000; stroke-opacity: 0.3"/>
    <path d="M 612.072812 595.032785 
L 612.072812 355.404827 
" clip-path="url(#p529c3c68ed)" style="fill: none; stroke: #000000; stroke-opacity: 0.3"/>
    <path d="M 683.352353 594.080153 
L 683.352353 354.384045 
" clip-path="url(#p529c3c68ed)" style="fill: none; stroke: #000000; stroke-opacity: 0.3"/>
    <path clip-path="url(#p529c3c68ed)" style="fill: none; stroke: #000000; stroke-opacity: 0.3"/>
    <path d="M 825.911433 609.983786 
L 825.911433 519.799177 
" clip-path="url(#p529c3c68ed)" style="fill: none; stroke: #000000; stroke-opacity: 0.3"/>
    <path clip-path="url(#p529c3c68ed)" style="fill: none; stroke: #000000; stroke-opacity: 0.3"/>
    <path clip-path="url(#p529c3c68ed)" style="fill: none; stroke: #000000; stroke-opacity: 0.3"/>
    <path d="M 1039.750053 635.352536 
L 1039.750053 609.530981 
" clip-path="url(#p529c3c68ed)" style="fill: none; stroke: #000000; stroke-opacity: 0.3"/>
    <path d="M 1111.029593 597.452199 
L 1111.029593 496.009721 
" clip-path="url(#p529c3c68ed)" style="fill: none; stroke: #000000; stroke-opacity: 0.3"/>
    <path clip-path="url(#p529c3c68ed)" style="fill: none; stroke: #000000; stroke-opacity: 0.3"/>
    <path clip-path="url(#p529c3c68ed)" style="fill: none; stroke: #000000; stroke-opacity: 0.3"/>
   </g>
   <g id="line2d_23">
    <g clip-path="url(#p529c3c68ed)">
     <use xlink:href="#m3736d9a7f6" x="255.675112" y="584.635719" style="fill-opacity: 0.3; stroke: #000000; stroke-opacity: 0.3"/>
     <use xlink:href="#m3736d9a7f6" x="326.954652" y="577.211957" style="fill-opacity: 0.3; stroke: #000000; stroke-opacity: 0.3"/>
     <use xlink:href="#m3736d9a7f6" x="398.234192" y="522.777544" style="fill-opacity: 0.3; stroke: #000000; stroke-opacity: 0.3"/>
     <use xlink:href="#m3736d9a7f6" x="469.513732" y="587.583687" style="fill-opacity: 0.3; stroke: #000000; stroke-opacity: 0.3"/>
     <use xlink:href="#m3736d9a7f6" x="540.793272" y="610.29709" style="fill-opacity: 0.3; stroke: #000000; stroke-opacity: 0.3"/>
     <use xlink:href="#m3736d9a7f6" x="612.072812" y="595.032785" style="fill-opacity: 0.3; stroke: #000000; stroke-opacity: 0.3"/>
     <use xlink:href="#m3736d9a7f6" x="683.352353" y="594.080153" style="fill-opacity: 0.3; stroke: #000000; stroke-opacity: 0.3"/>
     <use xlink:href="#m3736d9a7f6" x="825.911433" y="609.983786" style="fill-opacity: 0.3; stroke: #000000; stroke-opacity: 0.3"/>
     <use xlink:href="#m3736d9a7f6" x="1039.750053" y="635.352536" style="fill-opacity: 0.3; stroke: #000000; stroke-opacity: 0.3"/>
     <use xlink:href="#m3736d9a7f6" x="1111.029593" y="597.452199" style="fill-opacity: 0.3; stroke: #000000; stroke-opacity: 0.3"/>
    </g>
   </g>
   <g id="line2d_24">
    <g clip-path="url(#p529c3c68ed)">
     <use xlink:href="#m3736d9a7f6" x="255.675112" y="324.718272" style="fill-opacity: 0.3; stroke: #000000; stroke-opacity: 0.3"/>
     <use xlink:href="#m3736d9a7f6" x="326.954652" y="290.044724" style="fill-opacity: 0.3; stroke: #000000; stroke-opacity: 0.3"/>
     <use xlink:href="#m3736d9a7f6" x="398.234192" y="359.535874" style="fill-opacity: 0.3; stroke: #000000; stroke-opacity: 0.3"/>
     <use xlink:href="#m3736d9a7f6" x="469.513732" y="361.911974" style="fill-opacity: 0.3; stroke: #000000; stroke-opacity: 0.3"/>
     <use xlink:href="#m3736d9a7f6" x="540.793272" y="474.404978" style="fill-opacity: 0.3; stroke: #000000; stroke-opacity: 0.3"/>
     <use xlink:href="#m3736d9a7f6" x="612.072812" y="355.404827" style="fill-opacity: 0.3; stroke: #000000; stroke-opacity: 0.3"/>
     <use xlink:href="#m3736d9a7f6" x="683.352353" y="354.384045" style="fill-opacity: 0.3; stroke: #000000; stroke-opacity: 0.3"/>
     <use xlink:href="#m3736d9a7f6" x="825.911433" y="519.799177" style="fill-opacity: 0.3; stroke: #000000; stroke-opacity: 0.3"/>
     <use xlink:href="#m3736d9a7f6" x="1039.750053" y="609.530981" style="fill-opacity: 0.3; stroke: #000000; stroke-opacity: 0.3"/>
     <use xlink:href="#m3736d9a7f6" x="1111.029593" y="496.009721" style="fill-opacity: 0.3; stroke: #000000; stroke-opacity: 0.3"/>
    </g>
   </g>
   <g id="LineCollection_3">
    <path d="M 272.307004 585.090435 
L 272.307004 324.971581 
" clip-path="url(#p529c3c68ed)" style="fill: none; stroke: #000000; stroke-opacity: 0.3"/>
    <path d="M 343.586545 578.740185 
L 343.586545 291.423801 
" clip-path="url(#p529c3c68ed)" style="fill: none; stroke: #000000; stroke-opacity: 0.3"/>
    <path d="M 414.866085 525.931981 
L 414.866085 367.110243 
" clip-path="url(#p529c3c68ed)" style="fill: none; stroke: #000000; stroke-opacity: 0.3"/>
    <path d="M 486.145625 587.230368 
L 486.145625 365.363881 
" clip-path="url(#p529c3c68ed)" style="fill: none; stroke: #000000; stroke-opacity: 0.3"/>
    <path d="M 557.425165 609.863256 
L 557.425165 472.956908 
" clip-path="url(#p529c3c68ed)" style="fill: none; stroke: #000000; stroke-opacity: 0.3"/>
    <path d="M 628.704705 594.867004 
L 628.704705 363.374802 
" clip-path="url(#p529c3c68ed)" style="fill: none; stroke: #000000; stroke-opacity: 0.3"/>
    <path d="M 699.984245 594.084593 
L 699.984245 353.582513 
" clip-path="url(#p529c3c68ed)" style="fill: none; stroke: #000000; stroke-opacity: 0.3"/>
    <path clip-path="url(#p529c3c68ed)" style="fill: none; stroke: #000000; stroke-opacity: 0.3"/>
    <path d="M 842.543326 609.873193 
L 842.543326 521.484854 
" clip-path="url(#p529c3c68ed)" style="fill: none; stroke: #000000; stroke-opacity: 0.3"/>
    <path clip-path="url(#p529c3c68ed)" style="fill: none; stroke: #000000; stroke-opacity: 0.3"/>
    <path clip-path="url(#p529c3c68ed)" style="fill: none; stroke: #000000; stroke-opacity: 0.3"/>
    <path d="M 1056.381946 635.319333 
L 1056.381946 609.826444 
" clip-path="url(#p529c3c68ed)" style="fill: none; stroke: #000000; stroke-opacity: 0.3"/>
    <path d="M 1127.661486 596.942561 
L 1127.661486 504.424512 
" clip-path="url(#p529c3c68ed)" style="fill: none; stroke: #000000; stroke-opacity: 0.3"/>
    <path clip-path="url(#p529c3c68ed)" style="fill: none; stroke: #000000; stroke-opacity: 0.3"/>
    <path clip-path="url(#p529c3c68ed)" style="fill: none; stroke: #000000; stroke-opacity: 0.3"/>
   </g>
   <g id="line2d_25">
    <g clip-path="url(#p529c3c68ed)">
     <use xlink:href="#m3736d9a7f6" x="272.307004" y="585.090435" style="fill-opacity: 0.3; stroke: #000000; stroke-opacity: 0.3"/>
     <use xlink:href="#m3736d9a7f6" x="343.586545" y="578.740185" style="fill-opacity: 0.3; stroke: #000000; stroke-opacity: 0.3"/>
     <use xlink:href="#m3736d9a7f6" x="414.866085" y="525.931981" style="fill-opacity: 0.3; stroke: #000000; stroke-opacity: 0.3"/>
     <use xlink:href="#m3736d9a7f6" x="486.145625" y="587.230368" style="fill-opacity: 0.3; stroke: #000000; stroke-opacity: 0.3"/>
     <use xlink:href="#m3736d9a7f6" x="557.425165" y="609.863256" style="fill-opacity: 0.3; stroke: #000000; stroke-opacity: 0.3"/>
     <use xlink:href="#m3736d9a7f6" x="628.704705" y="594.867004" style="fill-opacity: 0.3; stroke: #000000; stroke-opacity: 0.3"/>
     <use xlink:href="#m3736d9a7f6" x="699.984245" y="594.084593" style="fill-opacity: 0.3; stroke: #000000; stroke-opacity: 0.3"/>
     <use xlink:href="#m3736d9a7f6" x="842.543326" y="609.873193" style="fill-opacity: 0.3; stroke: #000000; stroke-opacity: 0.3"/>
     <use xlink:href="#m3736d9a7f6" x="1056.381946" y="635.319333" style="fill-opacity: 0.3; stroke: #000000; stroke-opacity: 0.3"/>
     <use xlink:href="#m3736d9a7f6" x="1127.661486" y="596.942561" style="fill-opacity: 0.3; stroke: #000000; stroke-opacity: 0.3"/>
    </g>
   </g>
   <g id="line2d_26">
    <g clip-path="url(#p529c3c68ed)">
     <use xlink:href="#m3736d9a7f6" x="272.307004" y="324.971581" style="fill-opacity: 0.3; stroke: #000000; stroke-opacity: 0.3"/>
     <use xlink:href="#m3736d9a7f6" x="343.586545" y="291.423801" style="fill-opacity: 0.3; stroke: #000000; stroke-opacity: 0.3"/>
     <use xlink:href="#m3736d9a7f6" x="414.866085" y="367.110243" style="fill-opacity: 0.3; stroke: #000000; stroke-opacity: 0.3"/>
     <use xlink:href="#m3736d9a7f6" x="486.145625" y="365.363881" style="fill-opacity: 0.3; stroke: #000000; stroke-opacity: 0.3"/>
     <use xlink:href="#m3736d9a7f6" x="557.425165" y="472.956908" style="fill-opacity: 0.3; stroke: #000000; stroke-opacity: 0.3"/>
     <use xlink:href="#m3736d9a7f6" x="628.704705" y="363.374802" style="fill-opacity: 0.3; stroke: #000000; stroke-opacity: 0.3"/>
     <use xlink:href="#m3736d9a7f6" x="699.984245" y="353.582513" style="fill-opacity: 0.3; stroke: #000000; stroke-opacity: 0.3"/>
     <use xlink:href="#m3736d9a7f6" x="842.543326" y="521.484854" style="fill-opacity: 0.3; stroke: #000000; stroke-opacity: 0.3"/>
     <use xlink:href="#m3736d9a7f6" x="1056.381946" y="609.826444" style="fill-opacity: 0.3; stroke: #000000; stroke-opacity: 0.3"/>
     <use xlink:href="#m3736d9a7f6" x="1127.661486" y="504.424512" style="fill-opacity: 0.3; stroke: #000000; stroke-opacity: 0.3"/>
    </g>
   </g>
   <g id="legend_1">
    <g id="patch_48">
     <path d="M 194.4 112.9575 
L 226.4 112.9575 
L 226.4 101.7575 
L 194.4 101.7575 
z
" style="fill: #1a85ff"/>
    </g>
    <g id="text_23">
     <!-- shape index -->
     <g transform="translate(239.2 112.9575) scale(0.16 -0.16)">
      <defs>
       <path id="DejaVuSans-68" d="M 3513 2113 
L 3513 0 
L 2938 0 
L 2938 2094 
Q 2938 2591 2744 2837 
Q 2550 3084 2163 3084 
Q 1697 3084 1428 2787 
Q 1159 2491 1159 1978 
L 1159 0 
L 581 0 
L 581 4863 
L 1159 4863 
L 1159 2956 
Q 1366 3272 1645 3428 
Q 1925 3584 2291 3584 
Q 2894 3584 3203 3211 
Q 3513 2838 3513 2113 
z
" transform="scale(0.015625)"/>
       <path id="DejaVuSans-64" d="M 2906 2969 
L 2906 4863 
L 3481 4863 
L 3481 0 
L 2906 0 
L 2906 525 
Q 2725 213 2448 61 
Q 2172 -91 1784 -91 
Q 1150 -91 751 415 
Q 353 922 353 1747 
Q 353 2572 751 3078 
Q 1150 3584 1784 3584 
Q 2172 3584 2448 3432 
Q 2725 3281 2906 2969 
z
M 947 1747 
Q 947 1113 1208 752 
Q 1469 391 1925 391 
Q 2381 391 2643 752 
Q 2906 1113 2906 1747 
Q 2906 2381 2643 2742 
Q 2381 3103 1925 3103 
Q 1469 3103 1208 2742 
Q 947 2381 947 1747 
z
" transform="scale(0.015625)"/>
      </defs>
      <use xlink:href="#DejaVuSans-73"/>
      <use xlink:href="#DejaVuSans-68" transform="translate(52.099609 0)"/>
      <use xlink:href="#DejaVuSans-61" transform="translate(115.478516 0)"/>
      <use xlink:href="#DejaVuSans-70" transform="translate(176.757812 0)"/>
      <use xlink:href="#DejaVuSans-65" transform="translate(240.234375 0)"/>
      <use xlink:href="#DejaVuSans-20" transform="translate(301.757812 0)"/>
      <use xlink:href="#DejaVuSans-69" transform="translate(333.544922 0)"/>
      <use xlink:href="#DejaVuSans-6e" transform="translate(361.328125 0)"/>
      <use xlink:href="#DejaVuSans-64" transform="translate(424.707031 0)"/>
      <use xlink:href="#DejaVuSans-65" transform="translate(488.183594 0)"/>
      <use xlink:href="#DejaVuSans-78" transform="translate(547.957031 0)"/>
     </g>
    </g>
    <g id="patch_49">
     <path d="M 194.4 136.4425 
L 226.4 136.4425 
L 226.4 125.2425 
L 194.4 125.2425 
z
" style="fill: #d41159"/>
    </g>
    <g id="text_24">
     <!-- ldp -->
     <g transform="translate(239.2 136.4425) scale(0.16 -0.16)">
      <use xlink:href="#DejaVuSans-6c"/>
      <use xlink:href="#DejaVuSans-64" transform="translate(27.783203 0)"/>
      <use xlink:href="#DejaVuSans-70" transform="translate(91.259766 0)"/>
     </g>
    </g>
    <g id="patch_50">
     <path d="M 194.4 159.9275 
L 226.4 159.9275 
L 226.4 148.7275 
L 194.4 148.7275 
z
" style="fill: #004d40"/>
    </g>
    <g id="text_25">
     <!-- type index and ldp -->
     <g transform="translate(239.2 159.9275) scale(0.16 -0.16)">
      <use xlink:href="#DejaVuSans-74"/>
      <use xlink:href="#DejaVuSans-79" transform="translate(39.208984 0)"/>
      <use xlink:href="#DejaVuSans-70" transform="translate(98.388672 0)"/>
      <use xlink:href="#DejaVuSans-65" transform="translate(161.865234 0)"/>
      <use xlink:href="#DejaVuSans-20" transform="translate(223.388672 0)"/>
      <use xlink:href="#DejaVuSans-69" transform="translate(255.175781 0)"/>
      <use xlink:href="#DejaVuSans-6e" transform="translate(282.958984 0)"/>
      <use xlink:href="#DejaVuSans-64" transform="translate(346.337891 0)"/>
      <use xlink:href="#DejaVuSans-65" transform="translate(409.814453 0)"/>
      <use xlink:href="#DejaVuSans-78" transform="translate(469.587891 0)"/>
      <use xlink:href="#DejaVuSans-20" transform="translate(528.767578 0)"/>
      <use xlink:href="#DejaVuSans-61" transform="translate(560.554688 0)"/>
      <use xlink:href="#DejaVuSans-6e" transform="translate(621.833984 0)"/>
      <use xlink:href="#DejaVuSans-64" transform="translate(685.212891 0)"/>
      <use xlink:href="#DejaVuSans-20" transform="translate(748.689453 0)"/>
      <use xlink:href="#DejaVuSans-6c" transform="translate(780.476562 0)"/>
      <use xlink:href="#DejaVuSans-64" transform="translate(808.259766 0)"/>
      <use xlink:href="#DejaVuSans-70" transform="translate(871.736328 0)"/>
     </g>
    </g>
   </g>
  </g>
 </g>
 <defs>
  <clipPath id="p529c3c68ed">
   <rect x="180" y="86.4" width="1116" height="554.4"/>
  </clipPath>
 </defs>
</svg>
