<?xml version="1.0" encoding="utf-8" standalone="no"?>
<!DOCTYPE svg PUBLIC "-//W3C//DTD SVG 1.1//EN"
  "http://www.w3.org/Graphics/SVG/1.1/DTD/svg11.dtd">
<svg xmlns:xlink="http://www.w3.org/1999/xlink" width="720pt" height="720pt" viewBox="0 0 720 720" xmlns="http://www.w3.org/2000/svg" version="1.1">
 <metadata>
  <rdf:RDF xmlns:dc="http://purl.org/dc/elements/1.1/" xmlns:cc="http://creativecommons.org/ns#" xmlns:rdf="http://www.w3.org/1999/02/22-rdf-syntax-ns#">
   <cc:Work>
    <dc:type rdf:resource="http://purl.org/dc/dcmitype/StillImage"/>
    <dc:date>2025-09-30T08:47:25.914132</dc:date>
    <dc:format>image/svg+xml</dc:format>
    <dc:creator>
     <cc:Agent>
      <dc:title>Matplotlib v3.10.3, https://matplotlib.org/</dc:title>
     </cc:Agent>
    </dc:creator>
   </cc:Work>
  </rdf:RDF>
 </metadata>
 <defs>
  <style type="text/css">*{stroke-linejoin: round; stroke-linecap: butt}</style>
 </defs>
 <g id="figure_1">
  <g id="patch_1">
   <path d="M 0 720 
L 720 720 
L 720 0 
L 0 0 
z
" style="fill: #ffffff"/>
  </g>
  <g id="axes_1">
   <g id="patch_2">
    <path d="M 86.15 649.24 
L 709.2 649.24 
L 709.2 10.8 
L 86.15 10.8 
z
" style="fill: #ffffff"/>
   </g>
   <g id="matplotlib.axis_1">
    <g id="xtick_1">
     <g id="line2d_1">
      <path d="M 128.086058 649.24 
L 128.086058 10.8 
" clip-path="url(#pb8e8d90d3c)" style="fill: none; stroke: #b0b0b0; stroke-width: 0.8; stroke-linecap: square"/>
     </g>
     <g id="line2d_2">
      <defs>
       <path id="m9f29c1d153" d="M 0 0 
L 0 3.5 
" style="stroke: #000000; stroke-width: 0.8"/>
      </defs>
      <g>
       <use xlink:href="#m9f29c1d153" x="128.086058" y="649.24" style="stroke: #000000; stroke-width: 0.8"/>
      </g>
     </g>
     <g id="text_1">
      <!-- D1 -->
      <g transform="translate(110.507933 675.236094) scale(0.25 -0.25)">
       <defs>
        <path id="DejaVuSans-44" d="M 1259 4147 
L 1259 519 
L 2022 519 
Q 2988 519 3436 956 
Q 3884 1394 3884 2338 
Q 3884 3275 3436 3711 
Q 2988 4147 2022 4147 
L 1259 4147 
z
M 628 4666 
L 1925 4666 
Q 3281 4666 3915 4102 
Q 4550 3538 4550 2338 
Q 4550 1131 3912 565 
Q 3275 0 1925 0 
L 628 0 
L 628 4666 
z
" transform="scale(0.015625)"/>
        <path id="DejaVuSans-31" d="M 794 531 
L 1825 531 
L 1825 4091 
L 703 3866 
L 703 4441 
L 1819 4666 
L 2450 4666 
L 2450 531 
L 3481 531 
L 3481 0 
L 794 0 
L 794 531 
z
" transform="scale(0.015625)"/>
       </defs>
       <use xlink:href="#DejaVuSans-44"/>
       <use xlink:href="#DejaVuSans-31" transform="translate(77.001953 0)"/>
      </g>
     </g>
    </g>
    <g id="xtick_2">
     <g id="line2d_3">
      <path d="M 187.994712 649.24 
L 187.994712 10.8 
" clip-path="url(#pb8e8d90d3c)" style="fill: none; stroke: #b0b0b0; stroke-width: 0.8; stroke-linecap: square"/>
     </g>
     <g id="line2d_4">
      <g>
       <use xlink:href="#m9f29c1d153" x="187.994712" y="649.24" style="stroke: #000000; stroke-width: 0.8"/>
      </g>
     </g>
     <g id="text_2">
      <!-- D2 -->
      <g transform="translate(170.416587 675.236094) scale(0.25 -0.25)">
       <defs>
        <path id="DejaVuSans-32" d="M 1228 531 
L 3431 531 
L 3431 0 
L 469 0 
L 469 531 
Q 828 903 1448 1529 
Q 2069 2156 2228 2338 
Q 2531 2678 2651 2914 
Q 2772 3150 2772 3378 
Q 2772 3750 2511 3984 
Q 2250 4219 1831 4219 
Q 1534 4219 1204 4116 
Q 875 4013 500 3803 
L 500 4441 
Q 881 4594 1212 4672 
Q 1544 4750 1819 4750 
Q 2544 4750 2975 4387 
Q 3406 4025 3406 3419 
Q 3406 3131 3298 2873 
Q 3191 2616 2906 2266 
Q 2828 2175 2409 1742 
Q 1991 1309 1228 531 
z
" transform="scale(0.015625)"/>
       </defs>
       <use xlink:href="#DejaVuSans-44"/>
       <use xlink:href="#DejaVuSans-32" transform="translate(77.001953 0)"/>
      </g>
     </g>
    </g>
    <g id="xtick_3">
     <g id="line2d_5">
      <path d="M 247.903365 649.24 
L 247.903365 10.8 
" clip-path="url(#pb8e8d90d3c)" style="fill: none; stroke: #b0b0b0; stroke-width: 0.8; stroke-linecap: square"/>
     </g>
     <g id="line2d_6">
      <g>
       <use xlink:href="#m9f29c1d153" x="247.903365" y="649.24" style="stroke: #000000; stroke-width: 0.8"/>
      </g>
     </g>
     <g id="text_3">
      <!-- D3 -->
      <g transform="translate(230.32524 675.236094) scale(0.25 -0.25)">
       <defs>
        <path id="DejaVuSans-33" d="M 2597 2516 
Q 3050 2419 3304 2112 
Q 3559 1806 3559 1356 
Q 3559 666 3084 287 
Q 2609 -91 1734 -91 
Q 1441 -91 1130 -33 
Q 819 25 488 141 
L 488 750 
Q 750 597 1062 519 
Q 1375 441 1716 441 
Q 2309 441 2620 675 
Q 2931 909 2931 1356 
Q 2931 1769 2642 2001 
Q 2353 2234 1838 2234 
L 1294 2234 
L 1294 2753 
L 1863 2753 
Q 2328 2753 2575 2939 
Q 2822 3125 2822 3475 
Q 2822 3834 2567 4026 
Q 2313 4219 1838 4219 
Q 1578 4219 1281 4162 
Q 984 4106 628 3988 
L 628 4550 
Q 988 4650 1302 4700 
Q 1616 4750 1894 4750 
Q 2613 4750 3031 4423 
Q 3450 4097 3450 3541 
Q 3450 3153 3228 2886 
Q 3006 2619 2597 2516 
z
" transform="scale(0.015625)"/>
       </defs>
       <use xlink:href="#DejaVuSans-44"/>
       <use xlink:href="#DejaVuSans-33" transform="translate(77.001953 0)"/>
      </g>
     </g>
    </g>
    <g id="xtick_4">
     <g id="line2d_7">
      <path d="M 307.812019 649.24 
L 307.812019 10.8 
" clip-path="url(#pb8e8d90d3c)" style="fill: none; stroke: #b0b0b0; stroke-width: 0.8; stroke-linecap: square"/>
     </g>
     <g id="line2d_8">
      <g>
       <use xlink:href="#m9f29c1d153" x="307.812019" y="649.24" style="stroke: #000000; stroke-width: 0.8"/>
      </g>
     </g>
     <g id="text_4">
      <!-- D4 -->
      <g transform="translate(290.233894 675.236094) scale(0.25 -0.25)">
       <defs>
        <path id="DejaVuSans-34" d="M 2419 4116 
L 825 1625 
L 2419 1625 
L 2419 4116 
z
M 2253 4666 
L 3047 4666 
L 3047 1625 
L 3713 1625 
L 3713 1100 
L 3047 1100 
L 3047 0 
L 2419 0 
L 2419 1100 
L 313 1100 
L 313 1709 
L 2253 4666 
z
" transform="scale(0.015625)"/>
       </defs>
       <use xlink:href="#DejaVuSans-44"/>
       <use xlink:href="#DejaVuSans-34" transform="translate(77.001953 0)"/>
      </g>
     </g>
    </g>
    <g id="xtick_5">
     <g id="line2d_9">
      <path d="M 367.720673 649.24 
L 367.720673 10.8 
" clip-path="url(#pb8e8d90d3c)" style="fill: none; stroke: #b0b0b0; stroke-width: 0.8; stroke-linecap: square"/>
     </g>
     <g id="line2d_10">
      <g>
       <use xlink:href="#m9f29c1d153" x="367.720673" y="649.24" style="stroke: #000000; stroke-width: 0.8"/>
      </g>
     </g>
     <g id="text_5">
      <!-- D5 -->
      <g transform="translate(350.142548 675.236094) scale(0.25 -0.25)">
       <defs>
        <path id="DejaVuSans-35" d="M 691 4666 
L 3169 4666 
L 3169 4134 
L 1269 4134 
L 1269 2991 
Q 1406 3038 1543 3061 
Q 1681 3084 1819 3084 
Q 2600 3084 3056 2656 
Q 3513 2228 3513 1497 
Q 3513 744 3044 326 
Q 2575 -91 1722 -91 
Q 1428 -91 1123 -41 
Q 819 9 494 109 
L 494 744 
Q 775 591 1075 516 
Q 1375 441 1709 441 
Q 2250 441 2565 725 
Q 2881 1009 2881 1497 
Q 2881 1984 2565 2268 
Q 2250 2553 1709 2553 
Q 1456 2553 1204 2497 
Q 953 2441 691 2322 
L 691 4666 
z
" transform="scale(0.015625)"/>
       </defs>
       <use xlink:href="#DejaVuSans-44"/>
       <use xlink:href="#DejaVuSans-35" transform="translate(77.001953 0)"/>
      </g>
     </g>
    </g>
    <g id="xtick_6">
     <g id="line2d_11">
      <path d="M 427.629327 649.24 
L 427.629327 10.8 
" clip-path="url(#pb8e8d90d3c)" style="fill: none; stroke: #b0b0b0; stroke-width: 0.8; stroke-linecap: square"/>
     </g>
     <g id="line2d_12">
      <g>
       <use xlink:href="#m9f29c1d153" x="427.629327" y="649.24" style="stroke: #000000; stroke-width: 0.8"/>
      </g>
     </g>
     <g id="text_6">
      <!-- D6 -->
      <g transform="translate(410.051202 675.236094) scale(0.25 -0.25)">
       <defs>
        <path id="DejaVuSans-36" d="M 2113 2584 
Q 1688 2584 1439 2293 
Q 1191 2003 1191 1497 
Q 1191 994 1439 701 
Q 1688 409 2113 409 
Q 2538 409 2786 701 
Q 3034 994 3034 1497 
Q 3034 2003 2786 2293 
Q 2538 2584 2113 2584 
z
M 3366 4563 
L 3366 3988 
Q 3128 4100 2886 4159 
Q 2644 4219 2406 4219 
Q 1781 4219 1451 3797 
Q 1122 3375 1075 2522 
Q 1259 2794 1537 2939 
Q 1816 3084 2150 3084 
Q 2853 3084 3261 2657 
Q 3669 2231 3669 1497 
Q 3669 778 3244 343 
Q 2819 -91 2113 -91 
Q 1303 -91 875 529 
Q 447 1150 447 2328 
Q 447 3434 972 4092 
Q 1497 4750 2381 4750 
Q 2619 4750 2861 4703 
Q 3103 4656 3366 4563 
z
" transform="scale(0.015625)"/>
       </defs>
       <use xlink:href="#DejaVuSans-44"/>
       <use xlink:href="#DejaVuSans-36" transform="translate(77.001953 0)"/>
      </g>
     </g>
    </g>
    <g id="xtick_7">
     <g id="line2d_13">
      <path d="M 487.537981 649.24 
L 487.537981 10.8 
" clip-path="url(#pb8e8d90d3c)" style="fill: none; stroke: #b0b0b0; stroke-width: 0.8; stroke-linecap: square"/>
     </g>
     <g id="line2d_14">
      <g>
       <use xlink:href="#m9f29c1d153" x="487.537981" y="649.24" style="stroke: #000000; stroke-width: 0.8"/>
      </g>
     </g>
     <g id="text_7">
      <!-- D7 -->
      <g transform="translate(469.959856 675.236094) scale(0.25 -0.25)">
       <defs>
        <path id="DejaVuSans-37" d="M 525 4666 
L 3525 4666 
L 3525 4397 
L 1831 0 
L 1172 0 
L 2766 4134 
L 525 4134 
L 525 4666 
z
" transform="scale(0.015625)"/>
       </defs>
       <use xlink:href="#DejaVuSans-44"/>
       <use xlink:href="#DejaVuSans-37" transform="translate(77.001953 0)"/>
      </g>
     </g>
    </g>
    <g id="xtick_8">
     <g id="line2d_15">
      <path d="M 547.446635 649.24 
L 547.446635 10.8 
" clip-path="url(#pb8e8d90d3c)" style="fill: none; stroke: #b0b0b0; stroke-width: 0.8; stroke-linecap: square"/>
     </g>
     <g id="line2d_16">
      <g>
       <use xlink:href="#m9f29c1d153" x="547.446635" y="649.24" style="stroke: #000000; stroke-width: 0.8"/>
      </g>
     </g>
     <g id="text_8">
      <!-- S1 -->
      <g transform="translate(531.557963 675.236094) scale(0.25 -0.25)">
       <defs>
        <path id="DejaVuSans-53" d="M 3425 4513 
L 3425 3897 
Q 3066 4069 2747 4153 
Q 2428 4238 2131 4238 
Q 1616 4238 1336 4038 
Q 1056 3838 1056 3469 
Q 1056 3159 1242 3001 
Q 1428 2844 1947 2747 
L 2328 2669 
Q 3034 2534 3370 2195 
Q 3706 1856 3706 1288 
Q 3706 609 3251 259 
Q 2797 -91 1919 -91 
Q 1588 -91 1214 -16 
Q 841 59 441 206 
L 441 856 
Q 825 641 1194 531 
Q 1563 422 1919 422 
Q 2459 422 2753 634 
Q 3047 847 3047 1241 
Q 3047 1584 2836 1778 
Q 2625 1972 2144 2069 
L 1759 2144 
Q 1053 2284 737 2584 
Q 422 2884 422 3419 
Q 422 4038 858 4394 
Q 1294 4750 2059 4750 
Q 2388 4750 2728 4690 
Q 3069 4631 3425 4513 
z
" transform="scale(0.015625)"/>
       </defs>
       <use xlink:href="#DejaVuSans-53"/>
       <use xlink:href="#DejaVuSans-31" transform="translate(63.476562 0)"/>
      </g>
     </g>
    </g>
    <g id="xtick_9">
     <g id="line2d_17">
      <path d="M 607.355288 649.24 
L 607.355288 10.8 
" clip-path="url(#pb8e8d90d3c)" style="fill: none; stroke: #b0b0b0; stroke-width: 0.8; stroke-linecap: square"/>
     </g>
     <g id="line2d_18">
      <g>
       <use xlink:href="#m9f29c1d153" x="607.355288" y="649.24" style="stroke: #000000; stroke-width: 0.8"/>
      </g>
     </g>
     <g id="text_9">
      <!-- S4 -->
      <g transform="translate(591.466617 675.236094) scale(0.25 -0.25)">
       <use xlink:href="#DejaVuSans-53"/>
       <use xlink:href="#DejaVuSans-34" transform="translate(63.476562 0)"/>
      </g>
     </g>
    </g>
    <g id="xtick_10">
     <g id="line2d_19">
      <path d="M 667.263942 649.24 
L 667.263942 10.8 
" clip-path="url(#pb8e8d90d3c)" style="fill: none; stroke: #b0b0b0; stroke-width: 0.8; stroke-linecap: square"/>
     </g>
     <g id="line2d_20">
      <g>
       <use xlink:href="#m9f29c1d153" x="667.263942" y="649.24" style="stroke: #000000; stroke-width: 0.8"/>
      </g>
     </g>
     <g id="text_10">
      <!-- S5 -->
      <g transform="translate(651.37527 675.236094) scale(0.25 -0.25)">
       <use xlink:href="#DejaVuSans-53"/>
       <use xlink:href="#DejaVuSans-35" transform="translate(63.476562 0)"/>
      </g>
     </g>
    </g>
    <g id="text_11">
     <!-- query template -->
     <g transform="translate(301.188672 703.431406) scale(0.25 -0.25)">
      <defs>
       <path id="DejaVuSans-71" d="M 947 1747 
Q 947 1113 1208 752 
Q 1469 391 1925 391 
Q 2381 391 2643 752 
Q 2906 1113 2906 1747 
Q 2906 2381 2643 2742 
Q 2381 3103 1925 3103 
Q 1469 3103 1208 2742 
Q 947 2381 947 1747 
z
M 2906 525 
Q 2725 213 2448 61 
Q 2172 -91 1784 -91 
Q 1150 -91 751 415 
Q 353 922 353 1747 
Q 353 2572 751 3078 
Q 1150 3584 1784 3584 
Q 2172 3584 2448 3432 
Q 2725 3281 2906 2969 
L 2906 3500 
L 3481 3500 
L 3481 -1331 
L 2906 -1331 
L 2906 525 
z
" transform="scale(0.015625)"/>
       <path id="DejaVuSans-75" d="M 544 1381 
L 544 3500 
L 1119 3500 
L 1119 1403 
Q 1119 906 1312 657 
Q 1506 409 1894 409 
Q 2359 409 2629 706 
Q 2900 1003 2900 1516 
L 2900 3500 
L 3475 3500 
L 3475 0 
L 2900 0 
L 2900 538 
Q 2691 219 2414 64 
Q 2138 -91 1772 -91 
Q 1169 -91 856 284 
Q 544 659 544 1381 
z
M 1991 3584 
L 1991 3584 
z
" transform="scale(0.015625)"/>
       <path id="DejaVuSans-65" d="M 3597 1894 
L 3597 1613 
L 953 1613 
Q 991 1019 1311 708 
Q 1631 397 2203 397 
Q 2534 397 2845 478 
Q 3156 559 3463 722 
L 3463 178 
Q 3153 47 2828 -22 
Q 2503 -91 2169 -91 
Q 1331 -91 842 396 
Q 353 884 353 1716 
Q 353 2575 817 3079 
Q 1281 3584 2069 3584 
Q 2775 3584 3186 3129 
Q 3597 2675 3597 1894 
z
M 3022 2063 
Q 3016 2534 2758 2815 
Q 2500 3097 2075 3097 
Q 1594 3097 1305 2825 
Q 1016 2553 972 2059 
L 3022 2063 
z
" transform="scale(0.015625)"/>
       <path id="DejaVuSans-72" d="M 2631 2963 
Q 2534 3019 2420 3045 
Q 2306 3072 2169 3072 
Q 1681 3072 1420 2755 
Q 1159 2438 1159 1844 
L 1159 0 
L 581 0 
L 581 3500 
L 1159 3500 
L 1159 2956 
Q 1341 3275 1631 3429 
Q 1922 3584 2338 3584 
Q 2397 3584 2469 3576 
Q 2541 3569 2628 3553 
L 2631 2963 
z
" transform="scale(0.015625)"/>
       <path id="DejaVuSans-79" d="M 2059 -325 
Q 1816 -950 1584 -1140 
Q 1353 -1331 966 -1331 
L 506 -1331 
L 506 -850 
L 844 -850 
Q 1081 -850 1212 -737 
Q 1344 -625 1503 -206 
L 1606 56 
L 191 3500 
L 800 3500 
L 1894 763 
L 2988 3500 
L 3597 3500 
L 2059 -325 
z
" transform="scale(0.015625)"/>
       <path id="DejaVuSans-20" transform="scale(0.015625)"/>
       <path id="DejaVuSans-74" d="M 1172 4494 
L 1172 3500 
L 2356 3500 
L 2356 3053 
L 1172 3053 
L 1172 1153 
Q 1172 725 1289 603 
Q 1406 481 1766 481 
L 2356 481 
L 2356 0 
L 1766 0 
Q 1100 0 847 248 
Q 594 497 594 1153 
L 594 3053 
L 172 3053 
L 172 3500 
L 594 3500 
L 594 4494 
L 1172 4494 
z
" transform="scale(0.015625)"/>
       <path id="DejaVuSans-6d" d="M 3328 2828 
Q 3544 3216 3844 3400 
Q 4144 3584 4550 3584 
Q 5097 3584 5394 3201 
Q 5691 2819 5691 2113 
L 5691 0 
L 5113 0 
L 5113 2094 
Q 5113 2597 4934 2840 
Q 4756 3084 4391 3084 
Q 3944 3084 3684 2787 
Q 3425 2491 3425 1978 
L 3425 0 
L 2847 0 
L 2847 2094 
Q 2847 2600 2669 2842 
Q 2491 3084 2119 3084 
Q 1678 3084 1418 2786 
Q 1159 2488 1159 1978 
L 1159 0 
L 581 0 
L 581 3500 
L 1159 3500 
L 1159 2956 
Q 1356 3278 1631 3431 
Q 1906 3584 2284 3584 
Q 2666 3584 2933 3390 
Q 3200 3197 3328 2828 
z
" transform="scale(0.015625)"/>
       <path id="DejaVuSans-70" d="M 1159 525 
L 1159 -1331 
L 581 -1331 
L 581 3500 
L 1159 3500 
L 1159 2969 
Q 1341 3281 1617 3432 
Q 1894 3584 2278 3584 
Q 2916 3584 3314 3078 
Q 3713 2572 3713 1747 
Q 3713 922 3314 415 
Q 2916 -91 2278 -91 
Q 1894 -91 1617 61 
Q 1341 213 1159 525 
z
M 3116 1747 
Q 3116 2381 2855 2742 
Q 2594 3103 2138 3103 
Q 1681 3103 1420 2742 
Q 1159 2381 1159 1747 
Q 1159 1113 1420 752 
Q 1681 391 2138 391 
Q 2594 391 2855 752 
Q 3116 1113 3116 1747 
z
" transform="scale(0.015625)"/>
       <path id="DejaVuSans-6c" d="M 603 4863 
L 1178 4863 
L 1178 0 
L 603 0 
L 603 4863 
z
" transform="scale(0.015625)"/>
       <path id="DejaVuSans-61" d="M 2194 1759 
Q 1497 1759 1228 1600 
Q 959 1441 959 1056 
Q 959 750 1161 570 
Q 1363 391 1709 391 
Q 2188 391 2477 730 
Q 2766 1069 2766 1631 
L 2766 1759 
L 2194 1759 
z
M 3341 1997 
L 3341 0 
L 2766 0 
L 2766 531 
Q 2569 213 2275 61 
Q 1981 -91 1556 -91 
Q 1019 -91 701 211 
Q 384 513 384 1019 
Q 384 1609 779 1909 
Q 1175 2209 1959 2209 
L 2766 2209 
L 2766 2266 
Q 2766 2663 2505 2880 
Q 2244 3097 1772 3097 
Q 1472 3097 1187 3025 
Q 903 2953 641 2809 
L 641 3341 
Q 956 3463 1253 3523 
Q 1550 3584 1831 3584 
Q 2591 3584 2966 3190 
Q 3341 2797 3341 1997 
z
" transform="scale(0.015625)"/>
      </defs>
      <use xlink:href="#DejaVuSans-71"/>
      <use xlink:href="#DejaVuSans-75" transform="translate(63.476562 0)"/>
      <use xlink:href="#DejaVuSans-65" transform="translate(126.855469 0)"/>
      <use xlink:href="#DejaVuSans-72" transform="translate(188.378906 0)"/>
      <use xlink:href="#DejaVuSans-79" transform="translate(229.492188 0)"/>
      <use xlink:href="#DejaVuSans-20" transform="translate(288.671875 0)"/>
      <use xlink:href="#DejaVuSans-74" transform="translate(320.458984 0)"/>
      <use xlink:href="#DejaVuSans-65" transform="translate(359.667969 0)"/>
      <use xlink:href="#DejaVuSans-6d" transform="translate(421.191406 0)"/>
      <use xlink:href="#DejaVuSans-70" transform="translate(518.603516 0)"/>
      <use xlink:href="#DejaVuSans-6c" transform="translate(582.080078 0)"/>
      <use xlink:href="#DejaVuSans-61" transform="translate(609.863281 0)"/>
      <use xlink:href="#DejaVuSans-74" transform="translate(671.142578 0)"/>
      <use xlink:href="#DejaVuSans-65" transform="translate(710.351562 0)"/>
     </g>
    </g>
   </g>
   <g id="matplotlib.axis_2">
    <g id="ytick_1">
     <g id="line2d_21">
      <path d="M 86.15 636.101865 
L 709.2 636.101865 
" clip-path="url(#pb8e8d90d3c)" style="fill: none; stroke: #b0b0b0; stroke-width: 0.8; stroke-linecap: square"/>
     </g>
     <g id="line2d_22">
      <defs>
       <path id="ma1ef9481f3" d="M 0 0 
L -3.5 0 
" style="stroke: #000000; stroke-width: 0.8"/>
      </defs>
      <g>
       <use xlink:href="#ma1ef9481f3" x="86.15" y="636.101865" style="stroke: #000000; stroke-width: 0.8"/>
      </g>
     </g>
     <g id="text_12">
      <!-- 0.1 -->
      <g transform="translate(39.392188 645.599912) scale(0.25 -0.25)">
       <defs>
        <path id="DejaVuSans-30" d="M 2034 4250 
Q 1547 4250 1301 3770 
Q 1056 3291 1056 2328 
Q 1056 1369 1301 889 
Q 1547 409 2034 409 
Q 2525 409 2770 889 
Q 3016 1369 3016 2328 
Q 3016 3291 2770 3770 
Q 2525 4250 2034 4250 
z
M 2034 4750 
Q 2819 4750 3233 4129 
Q 3647 3509 3647 2328 
Q 3647 1150 3233 529 
Q 2819 -91 2034 -91 
Q 1250 -91 836 529 
Q 422 1150 422 2328 
Q 422 3509 836 4129 
Q 1250 4750 2034 4750 
z
" transform="scale(0.015625)"/>
        <path id="DejaVuSans-2e" d="M 684 794 
L 1344 794 
L 1344 0 
L 684 0 
L 684 794 
z
" transform="scale(0.015625)"/>
       </defs>
       <use xlink:href="#DejaVuSans-30"/>
       <use xlink:href="#DejaVuSans-2e" transform="translate(63.623047 0)"/>
       <use xlink:href="#DejaVuSans-31" transform="translate(95.410156 0)"/>
      </g>
     </g>
    </g>
    <g id="ytick_2">
     <g id="line2d_23">
      <path d="M 86.15 502.151101 
L 709.2 502.151101 
" clip-path="url(#pb8e8d90d3c)" style="fill: none; stroke: #b0b0b0; stroke-width: 0.8; stroke-linecap: square"/>
     </g>
     <g id="line2d_24">
      <g>
       <use xlink:href="#ma1ef9481f3" x="86.15" y="502.151101" style="stroke: #000000; stroke-width: 0.8"/>
      </g>
     </g>
     <g id="text_13">
      <!-- 0.2 -->
      <g transform="translate(39.392188 511.649148) scale(0.25 -0.25)">
       <use xlink:href="#DejaVuSans-30"/>
       <use xlink:href="#DejaVuSans-2e" transform="translate(63.623047 0)"/>
       <use xlink:href="#DejaVuSans-32" transform="translate(95.410156 0)"/>
      </g>
     </g>
    </g>
    <g id="ytick_3">
     <g id="line2d_25">
      <path d="M 86.15 368.200337 
L 709.2 368.200337 
" clip-path="url(#pb8e8d90d3c)" style="fill: none; stroke: #b0b0b0; stroke-width: 0.8; stroke-linecap: square"/>
     </g>
     <g id="line2d_26">
      <g>
       <use xlink:href="#ma1ef9481f3" x="86.15" y="368.200337" style="stroke: #000000; stroke-width: 0.8"/>
      </g>
     </g>
     <g id="text_14">
      <!-- 0.5 -->
      <g transform="translate(39.392188 377.698384) scale(0.25 -0.25)">
       <use xlink:href="#DejaVuSans-30"/>
       <use xlink:href="#DejaVuSans-2e" transform="translate(63.623047 0)"/>
       <use xlink:href="#DejaVuSans-35" transform="translate(95.410156 0)"/>
      </g>
     </g>
    </g>
    <g id="ytick_4">
     <g id="line2d_27">
      <path d="M 86.15 234.249573 
L 709.2 234.249573 
" clip-path="url(#pb8e8d90d3c)" style="fill: none; stroke: #b0b0b0; stroke-width: 0.8; stroke-linecap: square"/>
     </g>
     <g id="line2d_28">
      <g>
       <use xlink:href="#ma1ef9481f3" x="86.15" y="234.249573" style="stroke: #000000; stroke-width: 0.8"/>
      </g>
     </g>
     <g id="text_15">
      <!-- 1.0 -->
      <g transform="translate(39.392188 243.74762) scale(0.25 -0.25)">
       <use xlink:href="#DejaVuSans-31"/>
       <use xlink:href="#DejaVuSans-2e" transform="translate(63.623047 0)"/>
       <use xlink:href="#DejaVuSans-30" transform="translate(95.410156 0)"/>
      </g>
     </g>
    </g>
    <g id="ytick_5">
     <g id="line2d_29">
      <path d="M 86.15 100.298809 
L 709.2 100.298809 
" clip-path="url(#pb8e8d90d3c)" style="fill: none; stroke: #b0b0b0; stroke-width: 0.8; stroke-linecap: square"/>
     </g>
     <g id="line2d_30">
      <g>
       <use xlink:href="#ma1ef9481f3" x="86.15" y="100.298809" style="stroke: #000000; stroke-width: 0.8"/>
      </g>
     </g>
     <g id="text_16">
      <!-- 2.0 -->
      <g transform="translate(39.392188 109.796856) scale(0.25 -0.25)">
       <use xlink:href="#DejaVuSans-32"/>
       <use xlink:href="#DejaVuSans-2e" transform="translate(63.623047 0)"/>
       <use xlink:href="#DejaVuSans-30" transform="translate(95.410156 0)"/>
      </g>
     </g>
    </g>
    <g id="text_17">
     <!-- ratio execution time -->
     <g transform="translate(30.192969 455.936016) rotate(-90) scale(0.25 -0.25)">
      <defs>
       <path id="DejaVuSans-69" d="M 603 3500 
L 1178 3500 
L 1178 0 
L 603 0 
L 603 3500 
z
M 603 4863 
L 1178 4863 
L 1178 4134 
L 603 4134 
L 603 4863 
z
" transform="scale(0.015625)"/>
       <path id="DejaVuSans-6f" d="M 1959 3097 
Q 1497 3097 1228 2736 
Q 959 2375 959 1747 
Q 959 1119 1226 758 
Q 1494 397 1959 397 
Q 2419 397 2687 759 
Q 2956 1122 2956 1747 
Q 2956 2369 2687 2733 
Q 2419 3097 1959 3097 
z
M 1959 3584 
Q 2709 3584 3137 3096 
Q 3566 2609 3566 1747 
Q 3566 888 3137 398 
Q 2709 -91 1959 -91 
Q 1206 -91 779 398 
Q 353 888 353 1747 
Q 353 2609 779 3096 
Q 1206 3584 1959 3584 
z
" transform="scale(0.015625)"/>
       <path id="DejaVuSans-78" d="M 3513 3500 
L 2247 1797 
L 3578 0 
L 2900 0 
L 1881 1375 
L 863 0 
L 184 0 
L 1544 1831 
L 300 3500 
L 978 3500 
L 1906 2253 
L 2834 3500 
L 3513 3500 
z
" transform="scale(0.015625)"/>
       <path id="DejaVuSans-63" d="M 3122 3366 
L 3122 2828 
Q 2878 2963 2633 3030 
Q 2388 3097 2138 3097 
Q 1578 3097 1268 2742 
Q 959 2388 959 1747 
Q 959 1106 1268 751 
Q 1578 397 2138 397 
Q 2388 397 2633 464 
Q 2878 531 3122 666 
L 3122 134 
Q 2881 22 2623 -34 
Q 2366 -91 2075 -91 
Q 1284 -91 818 406 
Q 353 903 353 1747 
Q 353 2603 823 3093 
Q 1294 3584 2113 3584 
Q 2378 3584 2631 3529 
Q 2884 3475 3122 3366 
z
" transform="scale(0.015625)"/>
       <path id="DejaVuSans-6e" d="M 3513 2113 
L 3513 0 
L 2938 0 
L 2938 2094 
Q 2938 2591 2744 2837 
Q 2550 3084 2163 3084 
Q 1697 3084 1428 2787 
Q 1159 2491 1159 1978 
L 1159 0 
L 581 0 
L 581 3500 
L 1159 3500 
L 1159 2956 
Q 1366 3272 1645 3428 
Q 1925 3584 2291 3584 
Q 2894 3584 3203 3211 
Q 3513 2838 3513 2113 
z
" transform="scale(0.015625)"/>
      </defs>
      <use xlink:href="#DejaVuSans-72"/>
      <use xlink:href="#DejaVuSans-61" transform="translate(41.113281 0)"/>
      <use xlink:href="#DejaVuSans-74" transform="translate(102.392578 0)"/>
      <use xlink:href="#DejaVuSans-69" transform="translate(141.601562 0)"/>
      <use xlink:href="#DejaVuSans-6f" transform="translate(169.384766 0)"/>
      <use xlink:href="#DejaVuSans-20" transform="translate(230.566406 0)"/>
      <use xlink:href="#DejaVuSans-65" transform="translate(262.353516 0)"/>
      <use xlink:href="#DejaVuSans-78" transform="translate(322.126953 0)"/>
      <use xlink:href="#DejaVuSans-65" transform="translate(378.181641 0)"/>
      <use xlink:href="#DejaVuSans-63" transform="translate(439.705078 0)"/>
      <use xlink:href="#DejaVuSans-75" transform="translate(494.685547 0)"/>
      <use xlink:href="#DejaVuSans-74" transform="translate(558.064453 0)"/>
      <use xlink:href="#DejaVuSans-69" transform="translate(597.273438 0)"/>
      <use xlink:href="#DejaVuSans-6f" transform="translate(625.056641 0)"/>
      <use xlink:href="#DejaVuSans-6e" transform="translate(686.238281 0)"/>
      <use xlink:href="#DejaVuSans-20" transform="translate(749.617188 0)"/>
      <use xlink:href="#DejaVuSans-74" transform="translate(781.404297 0)"/>
      <use xlink:href="#DejaVuSans-69" transform="translate(820.613281 0)"/>
      <use xlink:href="#DejaVuSans-6d" transform="translate(848.396484 0)"/>
      <use xlink:href="#DejaVuSans-65" transform="translate(945.808594 0)"/>
     </g>
    </g>
   </g>
   <g id="patch_3">
    <path d="M 104.122596 458.831993 
L 128.086058 458.831993 
L 128.086058 294.820311 
L 104.122596 294.820311 
L 104.122596 458.831993 
z
" clip-path="url(#pb8e8d90d3c)" style="fill: #1a85ff; stroke: #000000; stroke-linejoin: miter"/>
   </g>
   <g id="line2d_31">
    <path d="M 116.104327 458.831993 
L 116.104327 606.247216 
" clip-path="url(#pb8e8d90d3c)" style="fill: none; stroke: #000000; stroke-linecap: square"/>
   </g>
   <g id="line2d_32">
    <path d="M 116.104327 294.820311 
L 116.104327 276.203099 
" clip-path="url(#pb8e8d90d3c)" style="fill: none; stroke: #000000; stroke-linecap: square"/>
   </g>
   <g id="line2d_33">
    <path d="M 110.113462 606.247216 
L 122.095192 606.247216 
" clip-path="url(#pb8e8d90d3c)" style="fill: none; stroke: #000000; stroke-linecap: square"/>
   </g>
   <g id="line2d_34">
    <path d="M 110.113462 276.203099 
L 122.095192 276.203099 
" clip-path="url(#pb8e8d90d3c)" style="fill: none; stroke: #000000; stroke-linecap: square"/>
   </g>
   <g id="line2d_35"/>
   <g id="patch_4">
    <path d="M 164.03125 285.702938 
L 187.994712 285.702938 
L 187.994712 237.567236 
L 164.03125 237.567236 
L 164.03125 285.702938 
z
" clip-path="url(#pb8e8d90d3c)" style="fill: #1a85ff; stroke: #000000; stroke-linejoin: miter"/>
   </g>
   <g id="line2d_36">
    <path d="M 176.012981 285.702938 
L 176.012981 287.57181 
" clip-path="url(#pb8e8d90d3c)" style="fill: none; stroke: #000000; stroke-linecap: square"/>
   </g>
   <g id="line2d_37">
    <path d="M 176.012981 237.567236 
L 176.012981 226.390323 
" clip-path="url(#pb8e8d90d3c)" style="fill: none; stroke: #000000; stroke-linecap: square"/>
   </g>
   <g id="line2d_38">
    <path d="M 170.022115 287.57181 
L 182.003846 287.57181 
" clip-path="url(#pb8e8d90d3c)" style="fill: none; stroke: #000000; stroke-linecap: square"/>
   </g>
   <g id="line2d_39">
    <path d="M 170.022115 226.390323 
L 182.003846 226.390323 
" clip-path="url(#pb8e8d90d3c)" style="fill: none; stroke: #000000; stroke-linecap: square"/>
   </g>
   <g id="line2d_40"/>
   <g id="patch_5">
    <path d="M 223.939904 251.042057 
L 247.903365 251.042057 
L 247.903365 240.385901 
L 223.939904 240.385901 
L 223.939904 251.042057 
z
" clip-path="url(#pb8e8d90d3c)" style="fill: #1a85ff; stroke: #000000; stroke-linejoin: miter"/>
   </g>
   <g id="line2d_41">
    <path d="M 235.921635 251.042057 
L 235.921635 256.920053 
" clip-path="url(#pb8e8d90d3c)" style="fill: none; stroke: #000000; stroke-linecap: square"/>
   </g>
   <g id="line2d_42">
    <path d="M 235.921635 240.385901 
L 235.921635 240.385901 
" clip-path="url(#pb8e8d90d3c)" style="fill: none; stroke: #000000; stroke-linecap: square"/>
   </g>
   <g id="line2d_43">
    <path d="M 229.930769 256.920053 
L 241.9125 256.920053 
" clip-path="url(#pb8e8d90d3c)" style="fill: none; stroke: #000000; stroke-linecap: square"/>
   </g>
   <g id="line2d_44">
    <path d="M 229.930769 240.385901 
L 241.9125 240.385901 
" clip-path="url(#pb8e8d90d3c)" style="fill: none; stroke: #000000; stroke-linecap: square"/>
   </g>
   <g id="line2d_45">
    <defs>
     <path id="mdb1772327a" d="M 0 3 
C 0.795609 3 1.55874 2.683901 2.12132 2.12132 
C 2.683901 1.55874 3 0.795609 3 0 
C 3 -0.795609 2.683901 -1.55874 2.12132 -2.12132 
C 1.55874 -2.683901 0.795609 -3 0 -3 
C -0.795609 -3 -1.55874 -2.683901 -2.12132 -2.12132 
C -2.683901 -1.55874 -3 -0.795609 -3 0 
C -3 0.795609 -2.683901 1.55874 -2.12132 2.12132 
C -1.55874 2.683901 -0.795609 3 0 3 
z
" style="stroke: #000000"/>
    </defs>
    <g clip-path="url(#pb8e8d90d3c)">
     <use xlink:href="#mdb1772327a" x="235.921635" y="189.637156" style="fill-opacity: 0; stroke: #000000"/>
    </g>
   </g>
   <g id="patch_6">
    <path d="M 283.848558 449.582335 
L 307.812019 449.582335 
L 307.812019 297.181009 
L 283.848558 297.181009 
L 283.848558 449.582335 
z
" clip-path="url(#pb8e8d90d3c)" style="fill: #1a85ff; stroke: #000000; stroke-linejoin: miter"/>
   </g>
   <g id="line2d_46">
    <path d="M 295.830288 449.582335 
L 295.830288 485.460546 
" clip-path="url(#pb8e8d90d3c)" style="fill: none; stroke: #000000; stroke-linecap: square"/>
   </g>
   <g id="line2d_47">
    <path d="M 295.830288 297.181009 
L 295.830288 214.067893 
" clip-path="url(#pb8e8d90d3c)" style="fill: none; stroke: #000000; stroke-linecap: square"/>
   </g>
   <g id="line2d_48">
    <path d="M 289.839423 485.460546 
L 301.821154 485.460546 
" clip-path="url(#pb8e8d90d3c)" style="fill: none; stroke: #000000; stroke-linecap: square"/>
   </g>
   <g id="line2d_49">
    <path d="M 289.839423 214.067893 
L 301.821154 214.067893 
" clip-path="url(#pb8e8d90d3c)" style="fill: none; stroke: #000000; stroke-linecap: square"/>
   </g>
   <g id="line2d_50"/>
   <g id="patch_7">
    <path d="M 343.757212 302.010772 
L 367.720673 302.010772 
L 367.720673 235.550921 
L 343.757212 235.550921 
L 343.757212 302.010772 
z
" clip-path="url(#pb8e8d90d3c)" style="fill: #1a85ff; stroke: #000000; stroke-linejoin: miter"/>
   </g>
   <g id="line2d_51">
    <path d="M 355.738942 302.010772 
L 355.738942 304.144981 
" clip-path="url(#pb8e8d90d3c)" style="fill: none; stroke: #000000; stroke-linecap: square"/>
   </g>
   <g id="line2d_52">
    <path d="M 355.738942 235.550921 
L 355.738942 205.110805 
" clip-path="url(#pb8e8d90d3c)" style="fill: none; stroke: #000000; stroke-linecap: square"/>
   </g>
   <g id="line2d_53">
    <path d="M 349.748077 304.144981 
L 361.729808 304.144981 
" clip-path="url(#pb8e8d90d3c)" style="fill: none; stroke: #000000; stroke-linecap: square"/>
   </g>
   <g id="line2d_54">
    <path d="M 349.748077 205.110805 
L 361.729808 205.110805 
" clip-path="url(#pb8e8d90d3c)" style="fill: none; stroke: #000000; stroke-linecap: square"/>
   </g>
   <g id="line2d_55"/>
   <g id="patch_8">
    <path d="M 403.665865 236.466906 
L 427.629327 236.466906 
L 427.629327 234.249573 
L 403.665865 234.249573 
L 403.665865 236.466906 
z
" clip-path="url(#pb8e8d90d3c)" style="fill: #1a85ff; stroke: #000000; stroke-linejoin: miter"/>
   </g>
   <g id="line2d_56">
    <path d="M 415.647596 236.466906 
L 415.647596 238.541234 
" clip-path="url(#pb8e8d90d3c)" style="fill: none; stroke: #000000; stroke-linecap: square"/>
   </g>
   <g id="line2d_57">
    <path d="M 415.647596 234.249573 
L 415.647596 234.249573 
" clip-path="url(#pb8e8d90d3c)" style="fill: none; stroke: #000000; stroke-linecap: square"/>
   </g>
   <g id="line2d_58">
    <path d="M 409.656731 238.541234 
L 421.638462 238.541234 
" clip-path="url(#pb8e8d90d3c)" style="fill: none; stroke: #000000; stroke-linecap: square"/>
   </g>
   <g id="line2d_59">
    <path d="M 409.656731 234.249573 
L 421.638462 234.249573 
" clip-path="url(#pb8e8d90d3c)" style="fill: none; stroke: #000000; stroke-linecap: square"/>
   </g>
   <g id="line2d_60">
    <g clip-path="url(#pb8e8d90d3c)">
     <use xlink:href="#mdb1772327a" x="415.647596" y="216.72493" style="fill-opacity: 0; stroke: #000000"/>
    </g>
   </g>
   <g id="patch_9">
    <path d="M 463.574519 234.602876 
L 487.537981 234.602876 
L 487.537981 234.249573 
L 463.574519 234.249573 
L 463.574519 234.602876 
z
" clip-path="url(#pb8e8d90d3c)" style="fill: #1a85ff; stroke: #000000; stroke-linejoin: miter"/>
   </g>
   <g id="line2d_61">
    <path d="M 475.55625 234.602876 
L 475.55625 234.602876 
" clip-path="url(#pb8e8d90d3c)" style="fill: none; stroke: #000000; stroke-linecap: square"/>
   </g>
   <g id="line2d_62">
    <path d="M 475.55625 234.249573 
L 475.55625 233.906543 
" clip-path="url(#pb8e8d90d3c)" style="fill: none; stroke: #000000; stroke-linecap: square"/>
   </g>
   <g id="line2d_63">
    <path d="M 469.565385 234.602876 
L 481.547115 234.602876 
" clip-path="url(#pb8e8d90d3c)" style="fill: none; stroke: #000000; stroke-linecap: square"/>
   </g>
   <g id="line2d_64">
    <path d="M 469.565385 233.906543 
L 481.547115 233.906543 
" clip-path="url(#pb8e8d90d3c)" style="fill: none; stroke: #000000; stroke-linecap: square"/>
   </g>
   <g id="line2d_65">
    <g clip-path="url(#pb8e8d90d3c)">
     <use xlink:href="#mdb1772327a" x="475.55625" y="240.850635" style="fill-opacity: 0; stroke: #000000"/>
    </g>
   </g>
   <g id="patch_10">
    <path d="M 523.483173 553.603714 
L 547.446635 553.603714 
L 547.446635 355.211161 
L 523.483173 355.211161 
L 523.483173 553.603714 
z
" clip-path="url(#pb8e8d90d3c)" style="fill: #1a85ff; stroke: #000000; stroke-linejoin: miter"/>
   </g>
   <g id="line2d_66">
    <path d="M 535.464904 553.603714 
L 535.464904 620.22 
" clip-path="url(#pb8e8d90d3c)" style="fill: none; stroke: #000000; stroke-linecap: square"/>
   </g>
   <g id="line2d_67">
    <path d="M 535.464904 355.211161 
L 535.464904 332.674677 
" clip-path="url(#pb8e8d90d3c)" style="fill: none; stroke: #000000; stroke-linecap: square"/>
   </g>
   <g id="line2d_68">
    <path d="M 529.474038 620.22 
L 541.455769 620.22 
" clip-path="url(#pb8e8d90d3c)" style="fill: none; stroke: #000000; stroke-linecap: square"/>
   </g>
   <g id="line2d_69">
    <path d="M 529.474038 332.674677 
L 541.455769 332.674677 
" clip-path="url(#pb8e8d90d3c)" style="fill: none; stroke: #000000; stroke-linecap: square"/>
   </g>
   <g id="line2d_70"/>
   <g id="patch_11">
    <path d="M 583.391827 177.97245 
L 607.355288 177.97245 
L 607.355288 57.933663 
L 583.391827 57.933663 
L 583.391827 177.97245 
z
" clip-path="url(#pb8e8d90d3c)" style="fill: #1a85ff; stroke: #000000; stroke-linejoin: miter"/>
   </g>
   <g id="line2d_71">
    <path d="M 595.373558 177.97245 
L 595.373558 182.954893 
" clip-path="url(#pb8e8d90d3c)" style="fill: none; stroke: #000000; stroke-linecap: square"/>
   </g>
   <g id="line2d_72">
    <path d="M 595.373558 57.933663 
L 595.373558 39.82 
" clip-path="url(#pb8e8d90d3c)" style="fill: none; stroke: #000000; stroke-linecap: square"/>
   </g>
   <g id="line2d_73">
    <path d="M 589.382692 182.954893 
L 601.364423 182.954893 
" clip-path="url(#pb8e8d90d3c)" style="fill: none; stroke: #000000; stroke-linecap: square"/>
   </g>
   <g id="line2d_74">
    <path d="M 589.382692 39.82 
L 601.364423 39.82 
" clip-path="url(#pb8e8d90d3c)" style="fill: none; stroke: #000000; stroke-linecap: square"/>
   </g>
   <g id="line2d_75"/>
   <g id="patch_12">
    <path d="M 643.300481 342.597985 
L 667.263942 342.597985 
L 667.263942 300.805394 
L 643.300481 300.805394 
L 643.300481 342.597985 
z
" clip-path="url(#pb8e8d90d3c)" style="fill: #1a85ff; stroke: #000000; stroke-linejoin: miter"/>
   </g>
   <g id="line2d_76">
    <path d="M 655.282212 342.597985 
L 655.282212 362.076032 
" clip-path="url(#pb8e8d90d3c)" style="fill: none; stroke: #000000; stroke-linecap: square"/>
   </g>
   <g id="line2d_77">
    <path d="M 655.282212 300.805394 
L 655.282212 298.146228 
" clip-path="url(#pb8e8d90d3c)" style="fill: none; stroke: #000000; stroke-linecap: square"/>
   </g>
   <g id="line2d_78">
    <path d="M 649.291346 362.076032 
L 661.273077 362.076032 
" clip-path="url(#pb8e8d90d3c)" style="fill: none; stroke: #000000; stroke-linecap: square"/>
   </g>
   <g id="line2d_79">
    <path d="M 649.291346 298.146228 
L 661.273077 298.146228 
" clip-path="url(#pb8e8d90d3c)" style="fill: none; stroke: #000000; stroke-linecap: square"/>
   </g>
   <g id="line2d_80"/>
   <g id="patch_13">
    <path d="M 128.086058 234.416724 
L 152.049519 234.416724 
L 152.049519 233.790453 
L 128.086058 233.790453 
L 128.086058 234.416724 
z
" clip-path="url(#pb8e8d90d3c)" style="fill: #d41159; stroke: #000000; stroke-linejoin: miter"/>
   </g>
   <g id="line2d_81">
    <path d="M 140.067788 234.416724 
L 140.067788 234.416724 
" clip-path="url(#pb8e8d90d3c)" style="fill: none; stroke: #000000; stroke-linecap: square"/>
   </g>
   <g id="line2d_82">
    <path d="M 140.067788 233.790453 
L 140.067788 233.790453 
" clip-path="url(#pb8e8d90d3c)" style="fill: none; stroke: #000000; stroke-linecap: square"/>
   </g>
   <g id="line2d_83">
    <path d="M 134.076923 234.416724 
L 146.058654 234.416724 
" clip-path="url(#pb8e8d90d3c)" style="fill: none; stroke: #000000; stroke-linecap: square"/>
   </g>
   <g id="line2d_84">
    <path d="M 134.076923 233.790453 
L 146.058654 233.790453 
" clip-path="url(#pb8e8d90d3c)" style="fill: none; stroke: #000000; stroke-linecap: square"/>
   </g>
   <g id="line2d_85">
    <g clip-path="url(#pb8e8d90d3c)">
     <use xlink:href="#mdb1772327a" x="140.067788" y="237.659445" style="fill-opacity: 0; stroke: #000000"/>
     <use xlink:href="#mdb1772327a" x="140.067788" y="231.356249" style="fill-opacity: 0; stroke: #000000"/>
    </g>
   </g>
   <g id="patch_14">
    <path d="M 187.994712 234.388916 
L 211.958173 234.388916 
L 211.958173 230.57117 
L 187.994712 230.57117 
L 187.994712 234.388916 
z
" clip-path="url(#pb8e8d90d3c)" style="fill: #d41159; stroke: #000000; stroke-linejoin: miter"/>
   </g>
   <g id="line2d_86">
    <path d="M 199.976442 234.388916 
L 199.976442 239.159356 
" clip-path="url(#pb8e8d90d3c)" style="fill: none; stroke: #000000; stroke-linecap: square"/>
   </g>
   <g id="line2d_87">
    <path d="M 199.976442 230.57117 
L 199.976442 228.697869 
" clip-path="url(#pb8e8d90d3c)" style="fill: none; stroke: #000000; stroke-linecap: square"/>
   </g>
   <g id="line2d_88">
    <path d="M 193.985577 239.159356 
L 205.967308 239.159356 
" clip-path="url(#pb8e8d90d3c)" style="fill: none; stroke: #000000; stroke-linecap: square"/>
   </g>
   <g id="line2d_89">
    <path d="M 193.985577 228.697869 
L 205.967308 228.697869 
" clip-path="url(#pb8e8d90d3c)" style="fill: none; stroke: #000000; stroke-linecap: square"/>
   </g>
   <g id="line2d_90"/>
   <g id="patch_15">
    <path d="M 247.903365 229.294026 
L 271.866827 229.294026 
L 271.866827 228.232955 
L 247.903365 228.232955 
L 247.903365 229.294026 
z
" clip-path="url(#pb8e8d90d3c)" style="fill: #d41159; stroke: #000000; stroke-linejoin: miter"/>
   </g>
   <g id="line2d_91">
    <path d="M 259.885096 229.294026 
L 259.885096 230.093475 
" clip-path="url(#pb8e8d90d3c)" style="fill: none; stroke: #000000; stroke-linecap: square"/>
   </g>
   <g id="line2d_92">
    <path d="M 259.885096 228.232955 
L 259.885096 227.549758 
" clip-path="url(#pb8e8d90d3c)" style="fill: none; stroke: #000000; stroke-linecap: square"/>
   </g>
   <g id="line2d_93">
    <path d="M 253.894231 230.093475 
L 265.875962 230.093475 
" clip-path="url(#pb8e8d90d3c)" style="fill: none; stroke: #000000; stroke-linecap: square"/>
   </g>
   <g id="line2d_94">
    <path d="M 253.894231 227.549758 
L 265.875962 227.549758 
" clip-path="url(#pb8e8d90d3c)" style="fill: none; stroke: #000000; stroke-linecap: square"/>
   </g>
   <g id="line2d_95"/>
   <g id="patch_16">
    <path d="M 307.812019 234.130802 
L 331.775481 234.130802 
L 331.775481 231.584621 
L 307.812019 231.584621 
L 307.812019 234.130802 
z
" clip-path="url(#pb8e8d90d3c)" style="fill: #d41159; stroke: #000000; stroke-linejoin: miter"/>
   </g>
   <g id="line2d_96">
    <path d="M 319.79375 234.130802 
L 319.79375 237.308819 
" clip-path="url(#pb8e8d90d3c)" style="fill: none; stroke: #000000; stroke-linecap: square"/>
   </g>
   <g id="line2d_97">
    <path d="M 319.79375 231.584621 
L 319.79375 231.54494 
" clip-path="url(#pb8e8d90d3c)" style="fill: none; stroke: #000000; stroke-linecap: square"/>
   </g>
   <g id="line2d_98">
    <path d="M 313.802885 237.308819 
L 325.784615 237.308819 
" clip-path="url(#pb8e8d90d3c)" style="fill: none; stroke: #000000; stroke-linecap: square"/>
   </g>
   <g id="line2d_99">
    <path d="M 313.802885 231.54494 
L 325.784615 231.54494 
" clip-path="url(#pb8e8d90d3c)" style="fill: none; stroke: #000000; stroke-linecap: square"/>
   </g>
   <g id="line2d_100"/>
   <g id="patch_17">
    <path d="M 367.720673 236.470707 
L 391.684135 236.470707 
L 391.684135 235.058399 
L 367.720673 235.058399 
L 367.720673 236.470707 
z
" clip-path="url(#pb8e8d90d3c)" style="fill: #d41159; stroke: #000000; stroke-linejoin: miter"/>
   </g>
   <g id="line2d_101">
    <path d="M 379.702404 236.470707 
L 379.702404 237.76635 
" clip-path="url(#pb8e8d90d3c)" style="fill: none; stroke: #000000; stroke-linecap: square"/>
   </g>
   <g id="line2d_102">
    <path d="M 379.702404 235.058399 
L 379.702404 235.058399 
" clip-path="url(#pb8e8d90d3c)" style="fill: none; stroke: #000000; stroke-linecap: square"/>
   </g>
   <g id="line2d_103">
    <path d="M 373.711538 237.76635 
L 385.693269 237.76635 
" clip-path="url(#pb8e8d90d3c)" style="fill: none; stroke: #000000; stroke-linecap: square"/>
   </g>
   <g id="line2d_104">
    <path d="M 373.711538 235.058399 
L 385.693269 235.058399 
" clip-path="url(#pb8e8d90d3c)" style="fill: none; stroke: #000000; stroke-linecap: square"/>
   </g>
   <g id="line2d_105">
    <g clip-path="url(#pb8e8d90d3c)">
     <use xlink:href="#mdb1772327a" x="379.702404" y="232.603084" style="fill-opacity: 0; stroke: #000000"/>
    </g>
   </g>
   <g id="patch_18">
    <path d="M 427.629327 234.249573 
L 451.592788 234.249573 
L 451.592788 232.006393 
L 427.629327 232.006393 
L 427.629327 234.249573 
z
" clip-path="url(#pb8e8d90d3c)" style="fill: #d41159; stroke: #000000; stroke-linejoin: miter"/>
   </g>
   <g id="line2d_106">
    <path d="M 439.611058 234.249573 
L 439.611058 235.904626 
" clip-path="url(#pb8e8d90d3c)" style="fill: none; stroke: #000000; stroke-linecap: square"/>
   </g>
   <g id="line2d_107">
    <path d="M 439.611058 232.006393 
L 439.611058 232.006393 
" clip-path="url(#pb8e8d90d3c)" style="fill: none; stroke: #000000; stroke-linecap: square"/>
   </g>
   <g id="line2d_108">
    <path d="M 433.620192 235.904626 
L 445.601923 235.904626 
" clip-path="url(#pb8e8d90d3c)" style="fill: none; stroke: #000000; stroke-linecap: square"/>
   </g>
   <g id="line2d_109">
    <path d="M 433.620192 232.006393 
L 445.601923 232.006393 
" clip-path="url(#pb8e8d90d3c)" style="fill: none; stroke: #000000; stroke-linecap: square"/>
   </g>
   <g id="line2d_110">
    <g clip-path="url(#pb8e8d90d3c)">
     <use xlink:href="#mdb1772327a" x="439.611058" y="228.641558" style="fill-opacity: 0; stroke: #000000"/>
    </g>
   </g>
   <g id="patch_19">
    <path d="M 487.537981 234.76583 
L 511.501442 234.76583 
L 511.501442 234.249573 
L 487.537981 234.249573 
L 487.537981 234.76583 
z
" clip-path="url(#pb8e8d90d3c)" style="fill: #d41159; stroke: #000000; stroke-linejoin: miter"/>
   </g>
   <g id="line2d_111">
    <path d="M 499.519712 234.76583 
L 499.519712 235.358772 
" clip-path="url(#pb8e8d90d3c)" style="fill: none; stroke: #000000; stroke-linecap: square"/>
   </g>
   <g id="line2d_112">
    <path d="M 499.519712 234.249573 
L 499.519712 233.862558 
" clip-path="url(#pb8e8d90d3c)" style="fill: none; stroke: #000000; stroke-linecap: square"/>
   </g>
   <g id="line2d_113">
    <path d="M 493.528846 235.358772 
L 505.510577 235.358772 
" clip-path="url(#pb8e8d90d3c)" style="fill: none; stroke: #000000; stroke-linecap: square"/>
   </g>
   <g id="line2d_114">
    <path d="M 493.528846 233.862558 
L 505.510577 233.862558 
" clip-path="url(#pb8e8d90d3c)" style="fill: none; stroke: #000000; stroke-linecap: square"/>
   </g>
   <g id="line2d_115"/>
   <g id="patch_20">
    <path d="M 547.446635 235.462754 
L 571.410096 235.462754 
L 571.410096 233.633551 
L 547.446635 233.633551 
L 547.446635 235.462754 
z
" clip-path="url(#pb8e8d90d3c)" style="fill: #d41159; stroke: #000000; stroke-linejoin: miter"/>
   </g>
   <g id="line2d_116">
    <path d="M 559.428365 235.462754 
L 559.428365 237.845408 
" clip-path="url(#pb8e8d90d3c)" style="fill: none; stroke: #000000; stroke-linecap: square"/>
   </g>
   <g id="line2d_117">
    <path d="M 559.428365 233.633551 
L 559.428365 233.633551 
" clip-path="url(#pb8e8d90d3c)" style="fill: none; stroke: #000000; stroke-linecap: square"/>
   </g>
   <g id="line2d_118">
    <path d="M 553.4375 237.845408 
L 565.419231 237.845408 
" clip-path="url(#pb8e8d90d3c)" style="fill: none; stroke: #000000; stroke-linecap: square"/>
   </g>
   <g id="line2d_119">
    <path d="M 553.4375 233.633551 
L 565.419231 233.633551 
" clip-path="url(#pb8e8d90d3c)" style="fill: none; stroke: #000000; stroke-linecap: square"/>
   </g>
   <g id="line2d_120">
    <g clip-path="url(#pb8e8d90d3c)">
     <use xlink:href="#mdb1772327a" x="559.428365" y="225.967644" style="fill-opacity: 0; stroke: #000000"/>
    </g>
   </g>
   <g id="patch_21">
    <path d="M 607.355288 234.39611 
L 631.31875 234.39611 
L 631.31875 232.279628 
L 607.355288 232.279628 
L 607.355288 234.39611 
z
" clip-path="url(#pb8e8d90d3c)" style="fill: #d41159; stroke: #000000; stroke-linejoin: miter"/>
   </g>
   <g id="line2d_121">
    <path d="M 619.337019 234.39611 
L 619.337019 236.228697 
" clip-path="url(#pb8e8d90d3c)" style="fill: none; stroke: #000000; stroke-linecap: square"/>
   </g>
   <g id="line2d_122">
    <path d="M 619.337019 232.279628 
L 619.337019 231.998387 
" clip-path="url(#pb8e8d90d3c)" style="fill: none; stroke: #000000; stroke-linecap: square"/>
   </g>
   <g id="line2d_123">
    <path d="M 613.346154 236.228697 
L 625.327885 236.228697 
" clip-path="url(#pb8e8d90d3c)" style="fill: none; stroke: #000000; stroke-linecap: square"/>
   </g>
   <g id="line2d_124">
    <path d="M 613.346154 231.998387 
L 625.327885 231.998387 
" clip-path="url(#pb8e8d90d3c)" style="fill: none; stroke: #000000; stroke-linecap: square"/>
   </g>
   <g id="line2d_125"/>
   <g id="patch_22">
    <path d="M 667.263942 237.573082 
L 691.227404 237.573082 
L 691.227404 229.099573 
L 667.263942 229.099573 
L 667.263942 237.573082 
z
" clip-path="url(#pb8e8d90d3c)" style="fill: #d41159; stroke: #000000; stroke-linejoin: miter"/>
   </g>
   <g id="line2d_126">
    <path d="M 679.245673 237.573082 
L 679.245673 242.973375 
" clip-path="url(#pb8e8d90d3c)" style="fill: none; stroke: #000000; stroke-linecap: square"/>
   </g>
   <g id="line2d_127">
    <path d="M 679.245673 229.099573 
L 679.245673 220.109619 
" clip-path="url(#pb8e8d90d3c)" style="fill: none; stroke: #000000; stroke-linecap: square"/>
   </g>
   <g id="line2d_128">
    <path d="M 673.254808 242.973375 
L 685.236538 242.973375 
" clip-path="url(#pb8e8d90d3c)" style="fill: none; stroke: #000000; stroke-linecap: square"/>
   </g>
   <g id="line2d_129">
    <path d="M 673.254808 220.109619 
L 685.236538 220.109619 
" clip-path="url(#pb8e8d90d3c)" style="fill: none; stroke: #000000; stroke-linecap: square"/>
   </g>
   <g id="line2d_130"/>
   <g id="line2d_131">
    <path d="M 104.122596 453.555256 
L 128.086058 453.555256 
" clip-path="url(#pb8e8d90d3c)" style="fill: none; stroke: #ff7f0e; stroke-width: 3"/>
   </g>
   <g id="line2d_132">
    <path d="M 164.03125 241.69645 
L 187.994712 241.69645 
" clip-path="url(#pb8e8d90d3c)" style="fill: none; stroke: #ff7f0e; stroke-width: 3"/>
   </g>
   <g id="line2d_133">
    <path d="M 223.939904 241.77604 
L 247.903365 241.77604 
" clip-path="url(#pb8e8d90d3c)" style="fill: none; stroke: #ff7f0e; stroke-width: 3"/>
   </g>
   <g id="line2d_134">
    <path d="M 283.848558 300.496328 
L 307.812019 300.496328 
" clip-path="url(#pb8e8d90d3c)" style="fill: none; stroke: #ff7f0e; stroke-width: 3"/>
   </g>
   <g id="line2d_135">
    <path d="M 343.757212 250.667101 
L 367.720673 250.667101 
" clip-path="url(#pb8e8d90d3c)" style="fill: none; stroke: #ff7f0e; stroke-width: 3"/>
   </g>
   <g id="line2d_136">
    <path d="M 403.665865 234.249573 
L 427.629327 234.249573 
" clip-path="url(#pb8e8d90d3c)" style="fill: none; stroke: #ff7f0e; stroke-width: 3"/>
   </g>
   <g id="line2d_137">
    <path d="M 463.574519 234.249573 
L 487.537981 234.249573 
" clip-path="url(#pb8e8d90d3c)" style="fill: none; stroke: #ff7f0e; stroke-width: 3"/>
   </g>
   <g id="line2d_138">
    <path d="M 523.483173 549.086611 
L 547.446635 549.086611 
" clip-path="url(#pb8e8d90d3c)" style="fill: none; stroke: #ff7f0e; stroke-width: 3"/>
   </g>
   <g id="line2d_139">
    <path d="M 583.391827 169.803623 
L 607.355288 169.803623 
" clip-path="url(#pb8e8d90d3c)" style="fill: none; stroke: #ff7f0e; stroke-width: 3"/>
   </g>
   <g id="line2d_140">
    <path d="M 643.300481 329.43328 
L 667.263942 329.43328 
" clip-path="url(#pb8e8d90d3c)" style="fill: none; stroke: #ff7f0e; stroke-width: 3"/>
   </g>
   <g id="line2d_141">
    <path d="M 128.086058 233.882329 
L 152.049519 233.882329 
" clip-path="url(#pb8e8d90d3c)" style="fill: none; stroke: #ff7f0e; stroke-width: 3"/>
   </g>
   <g id="line2d_142">
    <path d="M 187.994712 232.90826 
L 211.958173 232.90826 
" clip-path="url(#pb8e8d90d3c)" style="fill: none; stroke: #ff7f0e; stroke-width: 3"/>
   </g>
   <g id="line2d_143">
    <path d="M 247.903365 228.755028 
L 271.866827 228.755028 
" clip-path="url(#pb8e8d90d3c)" style="fill: none; stroke: #ff7f0e; stroke-width: 3"/>
   </g>
   <g id="line2d_144">
    <path d="M 307.812019 232.028704 
L 331.775481 232.028704 
" clip-path="url(#pb8e8d90d3c)" style="fill: none; stroke: #ff7f0e; stroke-width: 3"/>
   </g>
   <g id="line2d_145">
    <path d="M 367.720673 235.971 
L 391.684135 235.971 
" clip-path="url(#pb8e8d90d3c)" style="fill: none; stroke: #ff7f0e; stroke-width: 3"/>
   </g>
   <g id="line2d_146">
    <path d="M 427.629327 234.249573 
L 451.592788 234.249573 
" clip-path="url(#pb8e8d90d3c)" style="fill: none; stroke: #ff7f0e; stroke-width: 3"/>
   </g>
   <g id="line2d_147">
    <path d="M 487.537981 234.249573 
L 511.501442 234.249573 
" clip-path="url(#pb8e8d90d3c)" style="fill: none; stroke: #ff7f0e; stroke-width: 3"/>
   </g>
   <g id="line2d_148">
    <path d="M 547.446635 234.537751 
L 571.410096 234.537751 
" clip-path="url(#pb8e8d90d3c)" style="fill: none; stroke: #ff7f0e; stroke-width: 3"/>
   </g>
   <g id="line2d_149">
    <path d="M 607.355288 232.643239 
L 631.31875 232.643239 
" clip-path="url(#pb8e8d90d3c)" style="fill: none; stroke: #ff7f0e; stroke-width: 3"/>
   </g>
   <g id="line2d_150">
    <path d="M 667.263942 231.55441 
L 691.227404 231.55441 
" clip-path="url(#pb8e8d90d3c)" style="fill: none; stroke: #ff7f0e; stroke-width: 3"/>
   </g>
   <g id="patch_23">
    <path d="M 86.15 649.24 
L 86.15 10.8 
" style="fill: none; stroke: #000000; stroke-width: 0.8; stroke-linejoin: miter; stroke-linecap: square"/>
   </g>
   <g id="patch_24">
    <path d="M 709.2 649.24 
L 709.2 10.8 
" style="fill: none; stroke: #000000; stroke-width: 0.8; stroke-linejoin: miter; stroke-linecap: square"/>
   </g>
   <g id="patch_25">
    <path d="M 86.15 649.24 
L 709.2 649.24 
" style="fill: none; stroke: #000000; stroke-width: 0.8; stroke-linejoin: miter; stroke-linecap: square"/>
   </g>
   <g id="patch_26">
    <path d="M 86.15 10.8 
L 709.2 10.8 
" style="fill: none; stroke: #000000; stroke-width: 0.8; stroke-linejoin: miter; stroke-linecap: square"/>
   </g>
   <g id="legend_1">
    <g id="patch_27">
     <path d="M 98.75 78.04125 
L 265.638125 78.04125 
Q 269.238125 78.04125 269.238125 74.44125 
L 269.238125 23.4 
Q 269.238125 19.8 265.638125 19.8 
L 98.75 19.8 
Q 95.15 19.8 95.15 23.4 
L 95.15 74.44125 
Q 95.15 78.04125 98.75 78.04125 
z
" style="fill: #ffffff; opacity: 0.8; stroke: #cccccc; stroke-linejoin: miter"/>
    </g>
    <g id="patch_28">
     <path d="M 102.35 40.677187 
L 138.35 40.677187 
L 138.35 28.077187 
L 102.35 28.077187 
z
" style="fill: #1a85ff; stroke: #000000; stroke-linejoin: miter"/>
    </g>
    <g id="text_18">
     <!-- shape index -->
     <g transform="translate(152.75 40.677187) scale(0.18 -0.18)">
      <defs>
       <path id="DejaVuSans-73" d="M 2834 3397 
L 2834 2853 
Q 2591 2978 2328 3040 
Q 2066 3103 1784 3103 
Q 1356 3103 1142 2972 
Q 928 2841 928 2578 
Q 928 2378 1081 2264 
Q 1234 2150 1697 2047 
L 1894 2003 
Q 2506 1872 2764 1633 
Q 3022 1394 3022 966 
Q 3022 478 2636 193 
Q 2250 -91 1575 -91 
Q 1294 -91 989 -36 
Q 684 19 347 128 
L 347 722 
Q 666 556 975 473 
Q 1284 391 1588 391 
Q 1994 391 2212 530 
Q 2431 669 2431 922 
Q 2431 1156 2273 1281 
Q 2116 1406 1581 1522 
L 1381 1569 
Q 847 1681 609 1914 
Q 372 2147 372 2553 
Q 372 3047 722 3315 
Q 1072 3584 1716 3584 
Q 2034 3584 2315 3537 
Q 2597 3491 2834 3397 
z
" transform="scale(0.015625)"/>
       <path id="DejaVuSans-68" d="M 3513 2113 
L 3513 0 
L 2938 0 
L 2938 2094 
Q 2938 2591 2744 2837 
Q 2550 3084 2163 3084 
Q 1697 3084 1428 2787 
Q 1159 2491 1159 1978 
L 1159 0 
L 581 0 
L 581 4863 
L 1159 4863 
L 1159 2956 
Q 1366 3272 1645 3428 
Q 1925 3584 2291 3584 
Q 2894 3584 3203 3211 
Q 3513 2838 3513 2113 
z
" transform="scale(0.015625)"/>
       <path id="DejaVuSans-64" d="M 2906 2969 
L 2906 4863 
L 3481 4863 
L 3481 0 
L 2906 0 
L 2906 525 
Q 2725 213 2448 61 
Q 2172 -91 1784 -91 
Q 1150 -91 751 415 
Q 353 922 353 1747 
Q 353 2572 751 3078 
Q 1150 3584 1784 3584 
Q 2172 3584 2448 3432 
Q 2725 3281 2906 2969 
z
M 947 1747 
Q 947 1113 1208 752 
Q 1469 391 1925 391 
Q 2381 391 2643 752 
Q 2906 1113 2906 1747 
Q 2906 2381 2643 2742 
Q 2381 3103 1925 3103 
Q 1469 3103 1208 2742 
Q 947 2381 947 1747 
z
" transform="scale(0.015625)"/>
      </defs>
      <use xlink:href="#DejaVuSans-73"/>
      <use xlink:href="#DejaVuSans-68" transform="translate(52.099609 0)"/>
      <use xlink:href="#DejaVuSans-61" transform="translate(115.478516 0)"/>
      <use xlink:href="#DejaVuSans-70" transform="translate(176.757812 0)"/>
      <use xlink:href="#DejaVuSans-65" transform="translate(240.234375 0)"/>
      <use xlink:href="#DejaVuSans-20" transform="translate(301.757812 0)"/>
      <use xlink:href="#DejaVuSans-69" transform="translate(333.544922 0)"/>
      <use xlink:href="#DejaVuSans-6e" transform="translate(361.328125 0)"/>
      <use xlink:href="#DejaVuSans-64" transform="translate(424.707031 0)"/>
      <use xlink:href="#DejaVuSans-65" transform="translate(488.183594 0)"/>
      <use xlink:href="#DejaVuSans-78" transform="translate(547.957031 0)"/>
     </g>
    </g>
    <g id="patch_29">
     <path d="M 102.35 67.097812 
L 138.35 67.097812 
L 138.35 54.497812 
L 102.35 54.497812 
z
" style="fill: #d41159; stroke: #000000; stroke-linejoin: miter"/>
    </g>
    <g id="text_19">
     <!-- ldp -->
     <g transform="translate(152.75 67.097812) scale(0.18 -0.18)">
      <use xlink:href="#DejaVuSans-6c"/>
      <use xlink:href="#DejaVuSans-64" transform="translate(27.783203 0)"/>
      <use xlink:href="#DejaVuSans-70" transform="translate(91.259766 0)"/>
     </g>
    </g>
   </g>
  </g>
 </g>
 <defs>
  <clipPath id="pb8e8d90d3c">
   <rect x="86.15" y="10.8" width="623.05" height="638.44"/>
  </clipPath>
 </defs>
</svg>
