<?xml version="1.0" encoding="utf-8" standalone="no"?>
<!DOCTYPE svg PUBLIC "-//W3C//DTD SVG 1.1//EN"
  "http://www.w3.org/Graphics/SVG/1.1/DTD/svg11.dtd">
<svg xmlns:xlink="http://www.w3.org/1999/xlink" width="720pt" height="720pt" viewBox="0 0 720 720" xmlns="http://www.w3.org/2000/svg" version="1.1">
 <metadata>
  <rdf:RDF xmlns:dc="http://purl.org/dc/elements/1.1/" xmlns:cc="http://creativecommons.org/ns#" xmlns:rdf="http://www.w3.org/1999/02/22-rdf-syntax-ns#">
   <cc:Work>
    <dc:type rdf:resource="http://purl.org/dc/dcmitype/StillImage"/>
    <dc:date>2025-06-20T15:18:24.497408</dc:date>
    <dc:format>image/svg+xml</dc:format>
    <dc:creator>
     <cc:Agent>
      <dc:title>Matplotlib v3.10.3, https://matplotlib.org/</dc:title>
     </cc:Agent>
    </dc:creator>
   </cc:Work>
  </rdf:RDF>
 </metadata>
 <defs>
  <style type="text/css">*{stroke-linejoin: round; stroke-linecap: butt}</style>
 </defs>
 <g id="figure_1">
  <g id="patch_1">
   <path d="M 0 720 
L 720 720 
L 720 0 
L 0 0 
z
" style="fill: #ffffff"/>
  </g>
  <g id="axes_1">
   <g id="patch_2">
    <path d="M 118.28 633.04 
L 693 633.04 
L 693 36.72 
L 118.28 36.72 
z
" style="fill: #ffffff"/>
   </g>
   <g id="matplotlib.axis_1">
    <g id="xtick_1">
     <g id="line2d_1">
      <path d="M 153.569825 633.04 
L 153.569825 36.72 
" clip-path="url(#pe150aeff47)" style="fill: none; stroke: #b0b0b0; stroke-width: 0.8; stroke-linecap: square"/>
     </g>
     <g id="line2d_2">
      <defs>
       <path id="mbda77be84f" d="M 0 0 
L 0 3.5 
" style="stroke: #000000; stroke-width: 0.8"/>
      </defs>
      <g>
       <use xlink:href="#mbda77be84f" x="153.569825" y="633.04" style="stroke: #000000; stroke-width: 0.8"/>
      </g>
     </g>
     <g id="text_1">
      <!-- D1 -->
      <g transform="translate(135.9917 659.036094) scale(0.25 -0.25)">
       <defs>
        <path id="DejaVuSans-44" d="M 1259 4147 
L 1259 519 
L 2022 519 
Q 2988 519 3436 956 
Q 3884 1394 3884 2338 
Q 3884 3275 3436 3711 
Q 2988 4147 2022 4147 
L 1259 4147 
z
M 628 4666 
L 1925 4666 
Q 3281 4666 3915 4102 
Q 4550 3538 4550 2338 
Q 4550 1131 3912 565 
Q 3275 0 1925 0 
L 628 0 
L 628 4666 
z
" transform="scale(0.015625)"/>
        <path id="DejaVuSans-31" d="M 794 531 
L 1825 531 
L 1825 4091 
L 703 3866 
L 703 4441 
L 1819 4666 
L 2450 4666 
L 2450 531 
L 3481 531 
L 3481 0 
L 794 0 
L 794 531 
z
" transform="scale(0.015625)"/>
       </defs>
       <use xlink:href="#DejaVuSans-44"/>
       <use xlink:href="#DejaVuSans-31" transform="translate(77.001953 0)"/>
      </g>
     </g>
    </g>
    <g id="xtick_2">
     <g id="line2d_3">
      <path d="M 203.98386 633.04 
L 203.98386 36.72 
" clip-path="url(#pe150aeff47)" style="fill: none; stroke: #b0b0b0; stroke-width: 0.8; stroke-linecap: square"/>
     </g>
     <g id="line2d_4">
      <g>
       <use xlink:href="#mbda77be84f" x="203.98386" y="633.04" style="stroke: #000000; stroke-width: 0.8"/>
      </g>
     </g>
     <g id="text_2">
      <!-- D2 -->
      <g transform="translate(186.405735 659.036094) scale(0.25 -0.25)">
       <defs>
        <path id="DejaVuSans-32" d="M 1228 531 
L 3431 531 
L 3431 0 
L 469 0 
L 469 531 
Q 828 903 1448 1529 
Q 2069 2156 2228 2338 
Q 2531 2678 2651 2914 
Q 2772 3150 2772 3378 
Q 2772 3750 2511 3984 
Q 2250 4219 1831 4219 
Q 1534 4219 1204 4116 
Q 875 4013 500 3803 
L 500 4441 
Q 881 4594 1212 4672 
Q 1544 4750 1819 4750 
Q 2544 4750 2975 4387 
Q 3406 4025 3406 3419 
Q 3406 3131 3298 2873 
Q 3191 2616 2906 2266 
Q 2828 2175 2409 1742 
Q 1991 1309 1228 531 
z
" transform="scale(0.015625)"/>
       </defs>
       <use xlink:href="#DejaVuSans-44"/>
       <use xlink:href="#DejaVuSans-32" transform="translate(77.001953 0)"/>
      </g>
     </g>
    </g>
    <g id="xtick_3">
     <g id="line2d_5">
      <path d="M 254.397895 633.04 
L 254.397895 36.72 
" clip-path="url(#pe150aeff47)" style="fill: none; stroke: #b0b0b0; stroke-width: 0.8; stroke-linecap: square"/>
     </g>
     <g id="line2d_6">
      <g>
       <use xlink:href="#mbda77be84f" x="254.397895" y="633.04" style="stroke: #000000; stroke-width: 0.8"/>
      </g>
     </g>
     <g id="text_3">
      <!-- D3 -->
      <g transform="translate(236.81977 659.036094) scale(0.25 -0.25)">
       <defs>
        <path id="DejaVuSans-33" d="M 2597 2516 
Q 3050 2419 3304 2112 
Q 3559 1806 3559 1356 
Q 3559 666 3084 287 
Q 2609 -91 1734 -91 
Q 1441 -91 1130 -33 
Q 819 25 488 141 
L 488 750 
Q 750 597 1062 519 
Q 1375 441 1716 441 
Q 2309 441 2620 675 
Q 2931 909 2931 1356 
Q 2931 1769 2642 2001 
Q 2353 2234 1838 2234 
L 1294 2234 
L 1294 2753 
L 1863 2753 
Q 2328 2753 2575 2939 
Q 2822 3125 2822 3475 
Q 2822 3834 2567 4026 
Q 2313 4219 1838 4219 
Q 1578 4219 1281 4162 
Q 984 4106 628 3988 
L 628 4550 
Q 988 4650 1302 4700 
Q 1616 4750 1894 4750 
Q 2613 4750 3031 4423 
Q 3450 4097 3450 3541 
Q 3450 3153 3228 2886 
Q 3006 2619 2597 2516 
z
" transform="scale(0.015625)"/>
       </defs>
       <use xlink:href="#DejaVuSans-44"/>
       <use xlink:href="#DejaVuSans-33" transform="translate(77.001953 0)"/>
      </g>
     </g>
    </g>
    <g id="xtick_4">
     <g id="line2d_7">
      <path d="M 304.81193 633.04 
L 304.81193 36.72 
" clip-path="url(#pe150aeff47)" style="fill: none; stroke: #b0b0b0; stroke-width: 0.8; stroke-linecap: square"/>
     </g>
     <g id="line2d_8">
      <g>
       <use xlink:href="#mbda77be84f" x="304.81193" y="633.04" style="stroke: #000000; stroke-width: 0.8"/>
      </g>
     </g>
     <g id="text_4">
      <!-- D4 -->
      <g transform="translate(287.233805 659.036094) scale(0.25 -0.25)">
       <defs>
        <path id="DejaVuSans-34" d="M 2419 4116 
L 825 1625 
L 2419 1625 
L 2419 4116 
z
M 2253 4666 
L 3047 4666 
L 3047 1625 
L 3713 1625 
L 3713 1100 
L 3047 1100 
L 3047 0 
L 2419 0 
L 2419 1100 
L 313 1100 
L 313 1709 
L 2253 4666 
z
" transform="scale(0.015625)"/>
       </defs>
       <use xlink:href="#DejaVuSans-44"/>
       <use xlink:href="#DejaVuSans-34" transform="translate(77.001953 0)"/>
      </g>
     </g>
    </g>
    <g id="xtick_5">
     <g id="line2d_9">
      <path d="M 355.225965 633.04 
L 355.225965 36.72 
" clip-path="url(#pe150aeff47)" style="fill: none; stroke: #b0b0b0; stroke-width: 0.8; stroke-linecap: square"/>
     </g>
     <g id="line2d_10">
      <g>
       <use xlink:href="#mbda77be84f" x="355.225965" y="633.04" style="stroke: #000000; stroke-width: 0.8"/>
      </g>
     </g>
     <g id="text_5">
      <!-- D5 -->
      <g transform="translate(337.64784 659.036094) scale(0.25 -0.25)">
       <defs>
        <path id="DejaVuSans-35" d="M 691 4666 
L 3169 4666 
L 3169 4134 
L 1269 4134 
L 1269 2991 
Q 1406 3038 1543 3061 
Q 1681 3084 1819 3084 
Q 2600 3084 3056 2656 
Q 3513 2228 3513 1497 
Q 3513 744 3044 326 
Q 2575 -91 1722 -91 
Q 1428 -91 1123 -41 
Q 819 9 494 109 
L 494 744 
Q 775 591 1075 516 
Q 1375 441 1709 441 
Q 2250 441 2565 725 
Q 2881 1009 2881 1497 
Q 2881 1984 2565 2268 
Q 2250 2553 1709 2553 
Q 1456 2553 1204 2497 
Q 953 2441 691 2322 
L 691 4666 
z
" transform="scale(0.015625)"/>
       </defs>
       <use xlink:href="#DejaVuSans-44"/>
       <use xlink:href="#DejaVuSans-35" transform="translate(77.001953 0)"/>
      </g>
     </g>
    </g>
    <g id="xtick_6">
     <g id="line2d_11">
      <path d="M 405.64 633.04 
L 405.64 36.72 
" clip-path="url(#pe150aeff47)" style="fill: none; stroke: #b0b0b0; stroke-width: 0.8; stroke-linecap: square"/>
     </g>
     <g id="line2d_12">
      <g>
       <use xlink:href="#mbda77be84f" x="405.64" y="633.04" style="stroke: #000000; stroke-width: 0.8"/>
      </g>
     </g>
     <g id="text_6">
      <!-- D6 -->
      <g transform="translate(388.061875 659.036094) scale(0.25 -0.25)">
       <defs>
        <path id="DejaVuSans-36" d="M 2113 2584 
Q 1688 2584 1439 2293 
Q 1191 2003 1191 1497 
Q 1191 994 1439 701 
Q 1688 409 2113 409 
Q 2538 409 2786 701 
Q 3034 994 3034 1497 
Q 3034 2003 2786 2293 
Q 2538 2584 2113 2584 
z
M 3366 4563 
L 3366 3988 
Q 3128 4100 2886 4159 
Q 2644 4219 2406 4219 
Q 1781 4219 1451 3797 
Q 1122 3375 1075 2522 
Q 1259 2794 1537 2939 
Q 1816 3084 2150 3084 
Q 2853 3084 3261 2657 
Q 3669 2231 3669 1497 
Q 3669 778 3244 343 
Q 2819 -91 2113 -91 
Q 1303 -91 875 529 
Q 447 1150 447 2328 
Q 447 3434 972 4092 
Q 1497 4750 2381 4750 
Q 2619 4750 2861 4703 
Q 3103 4656 3366 4563 
z
" transform="scale(0.015625)"/>
       </defs>
       <use xlink:href="#DejaVuSans-44"/>
       <use xlink:href="#DejaVuSans-36" transform="translate(77.001953 0)"/>
      </g>
     </g>
    </g>
    <g id="xtick_7">
     <g id="line2d_13">
      <path d="M 456.054035 633.04 
L 456.054035 36.72 
" clip-path="url(#pe150aeff47)" style="fill: none; stroke: #b0b0b0; stroke-width: 0.8; stroke-linecap: square"/>
     </g>
     <g id="line2d_14">
      <g>
       <use xlink:href="#mbda77be84f" x="456.054035" y="633.04" style="stroke: #000000; stroke-width: 0.8"/>
      </g>
     </g>
     <g id="text_7">
      <!-- D7 -->
      <g transform="translate(438.47591 659.036094) scale(0.25 -0.25)">
       <defs>
        <path id="DejaVuSans-37" d="M 525 4666 
L 3525 4666 
L 3525 4397 
L 1831 0 
L 1172 0 
L 2766 4134 
L 525 4134 
L 525 4666 
z
" transform="scale(0.015625)"/>
       </defs>
       <use xlink:href="#DejaVuSans-44"/>
       <use xlink:href="#DejaVuSans-37" transform="translate(77.001953 0)"/>
      </g>
     </g>
    </g>
    <g id="xtick_8">
     <g id="line2d_15">
      <path d="M 506.46807 633.04 
L 506.46807 36.72 
" clip-path="url(#pe150aeff47)" style="fill: none; stroke: #b0b0b0; stroke-width: 0.8; stroke-linecap: square"/>
     </g>
     <g id="line2d_16">
      <g>
       <use xlink:href="#mbda77be84f" x="506.46807" y="633.04" style="stroke: #000000; stroke-width: 0.8"/>
      </g>
     </g>
     <g id="text_8">
      <!-- S1 -->
      <g transform="translate(490.579398 659.036094) scale(0.25 -0.25)">
       <defs>
        <path id="DejaVuSans-53" d="M 3425 4513 
L 3425 3897 
Q 3066 4069 2747 4153 
Q 2428 4238 2131 4238 
Q 1616 4238 1336 4038 
Q 1056 3838 1056 3469 
Q 1056 3159 1242 3001 
Q 1428 2844 1947 2747 
L 2328 2669 
Q 3034 2534 3370 2195 
Q 3706 1856 3706 1288 
Q 3706 609 3251 259 
Q 2797 -91 1919 -91 
Q 1588 -91 1214 -16 
Q 841 59 441 206 
L 441 856 
Q 825 641 1194 531 
Q 1563 422 1919 422 
Q 2459 422 2753 634 
Q 3047 847 3047 1241 
Q 3047 1584 2836 1778 
Q 2625 1972 2144 2069 
L 1759 2144 
Q 1053 2284 737 2584 
Q 422 2884 422 3419 
Q 422 4038 858 4394 
Q 1294 4750 2059 4750 
Q 2388 4750 2728 4690 
Q 3069 4631 3425 4513 
z
" transform="scale(0.015625)"/>
       </defs>
       <use xlink:href="#DejaVuSans-53"/>
       <use xlink:href="#DejaVuSans-31" transform="translate(63.476562 0)"/>
      </g>
     </g>
    </g>
    <g id="xtick_9">
     <g id="line2d_17">
      <path d="M 556.882105 633.04 
L 556.882105 36.72 
" clip-path="url(#pe150aeff47)" style="fill: none; stroke: #b0b0b0; stroke-width: 0.8; stroke-linecap: square"/>
     </g>
     <g id="line2d_18">
      <g>
       <use xlink:href="#mbda77be84f" x="556.882105" y="633.04" style="stroke: #000000; stroke-width: 0.8"/>
      </g>
     </g>
     <g id="text_9">
      <!-- S4 -->
      <g transform="translate(540.993433 659.036094) scale(0.25 -0.25)">
       <use xlink:href="#DejaVuSans-53"/>
       <use xlink:href="#DejaVuSans-34" transform="translate(63.476562 0)"/>
      </g>
     </g>
    </g>
    <g id="xtick_10">
     <g id="line2d_19">
      <path d="M 607.29614 633.04 
L 607.29614 36.72 
" clip-path="url(#pe150aeff47)" style="fill: none; stroke: #b0b0b0; stroke-width: 0.8; stroke-linecap: square"/>
     </g>
     <g id="line2d_20">
      <g>
       <use xlink:href="#mbda77be84f" x="607.29614" y="633.04" style="stroke: #000000; stroke-width: 0.8"/>
      </g>
     </g>
     <g id="text_10">
      <!-- S5 -->
      <g transform="translate(591.407468 659.036094) scale(0.25 -0.25)">
       <use xlink:href="#DejaVuSans-53"/>
       <use xlink:href="#DejaVuSans-35" transform="translate(63.476562 0)"/>
      </g>
     </g>
    </g>
    <g id="xtick_11">
     <g id="line2d_21">
      <path d="M 657.710175 633.04 
L 657.710175 36.72 
" clip-path="url(#pe150aeff47)" style="fill: none; stroke: #b0b0b0; stroke-width: 0.8; stroke-linecap: square"/>
     </g>
     <g id="line2d_22">
      <g>
       <use xlink:href="#mbda77be84f" x="657.710175" y="633.04" style="stroke: #000000; stroke-width: 0.8"/>
      </g>
     </g>
     <g id="text_11">
      <!-- S7 -->
      <g transform="translate(641.821504 659.036094) scale(0.25 -0.25)">
       <use xlink:href="#DejaVuSans-53"/>
       <use xlink:href="#DejaVuSans-37" transform="translate(63.476562 0)"/>
      </g>
     </g>
    </g>
    <g id="text_12">
     <!-- query template -->
     <g transform="translate(309.153672 687.231406) scale(0.25 -0.25)">
      <defs>
       <path id="DejaVuSans-71" d="M 947 1747 
Q 947 1113 1208 752 
Q 1469 391 1925 391 
Q 2381 391 2643 752 
Q 2906 1113 2906 1747 
Q 2906 2381 2643 2742 
Q 2381 3103 1925 3103 
Q 1469 3103 1208 2742 
Q 947 2381 947 1747 
z
M 2906 525 
Q 2725 213 2448 61 
Q 2172 -91 1784 -91 
Q 1150 -91 751 415 
Q 353 922 353 1747 
Q 353 2572 751 3078 
Q 1150 3584 1784 3584 
Q 2172 3584 2448 3432 
Q 2725 3281 2906 2969 
L 2906 3500 
L 3481 3500 
L 3481 -1331 
L 2906 -1331 
L 2906 525 
z
" transform="scale(0.015625)"/>
       <path id="DejaVuSans-75" d="M 544 1381 
L 544 3500 
L 1119 3500 
L 1119 1403 
Q 1119 906 1312 657 
Q 1506 409 1894 409 
Q 2359 409 2629 706 
Q 2900 1003 2900 1516 
L 2900 3500 
L 3475 3500 
L 3475 0 
L 2900 0 
L 2900 538 
Q 2691 219 2414 64 
Q 2138 -91 1772 -91 
Q 1169 -91 856 284 
Q 544 659 544 1381 
z
M 1991 3584 
L 1991 3584 
z
" transform="scale(0.015625)"/>
       <path id="DejaVuSans-65" d="M 3597 1894 
L 3597 1613 
L 953 1613 
Q 991 1019 1311 708 
Q 1631 397 2203 397 
Q 2534 397 2845 478 
Q 3156 559 3463 722 
L 3463 178 
Q 3153 47 2828 -22 
Q 2503 -91 2169 -91 
Q 1331 -91 842 396 
Q 353 884 353 1716 
Q 353 2575 817 3079 
Q 1281 3584 2069 3584 
Q 2775 3584 3186 3129 
Q 3597 2675 3597 1894 
z
M 3022 2063 
Q 3016 2534 2758 2815 
Q 2500 3097 2075 3097 
Q 1594 3097 1305 2825 
Q 1016 2553 972 2059 
L 3022 2063 
z
" transform="scale(0.015625)"/>
       <path id="DejaVuSans-72" d="M 2631 2963 
Q 2534 3019 2420 3045 
Q 2306 3072 2169 3072 
Q 1681 3072 1420 2755 
Q 1159 2438 1159 1844 
L 1159 0 
L 581 0 
L 581 3500 
L 1159 3500 
L 1159 2956 
Q 1341 3275 1631 3429 
Q 1922 3584 2338 3584 
Q 2397 3584 2469 3576 
Q 2541 3569 2628 3553 
L 2631 2963 
z
" transform="scale(0.015625)"/>
       <path id="DejaVuSans-79" d="M 2059 -325 
Q 1816 -950 1584 -1140 
Q 1353 -1331 966 -1331 
L 506 -1331 
L 506 -850 
L 844 -850 
Q 1081 -850 1212 -737 
Q 1344 -625 1503 -206 
L 1606 56 
L 191 3500 
L 800 3500 
L 1894 763 
L 2988 3500 
L 3597 3500 
L 2059 -325 
z
" transform="scale(0.015625)"/>
       <path id="DejaVuSans-20" transform="scale(0.015625)"/>
       <path id="DejaVuSans-74" d="M 1172 4494 
L 1172 3500 
L 2356 3500 
L 2356 3053 
L 1172 3053 
L 1172 1153 
Q 1172 725 1289 603 
Q 1406 481 1766 481 
L 2356 481 
L 2356 0 
L 1766 0 
Q 1100 0 847 248 
Q 594 497 594 1153 
L 594 3053 
L 172 3053 
L 172 3500 
L 594 3500 
L 594 4494 
L 1172 4494 
z
" transform="scale(0.015625)"/>
       <path id="DejaVuSans-6d" d="M 3328 2828 
Q 3544 3216 3844 3400 
Q 4144 3584 4550 3584 
Q 5097 3584 5394 3201 
Q 5691 2819 5691 2113 
L 5691 0 
L 5113 0 
L 5113 2094 
Q 5113 2597 4934 2840 
Q 4756 3084 4391 3084 
Q 3944 3084 3684 2787 
Q 3425 2491 3425 1978 
L 3425 0 
L 2847 0 
L 2847 2094 
Q 2847 2600 2669 2842 
Q 2491 3084 2119 3084 
Q 1678 3084 1418 2786 
Q 1159 2488 1159 1978 
L 1159 0 
L 581 0 
L 581 3500 
L 1159 3500 
L 1159 2956 
Q 1356 3278 1631 3431 
Q 1906 3584 2284 3584 
Q 2666 3584 2933 3390 
Q 3200 3197 3328 2828 
z
" transform="scale(0.015625)"/>
       <path id="DejaVuSans-70" d="M 1159 525 
L 1159 -1331 
L 581 -1331 
L 581 3500 
L 1159 3500 
L 1159 2969 
Q 1341 3281 1617 3432 
Q 1894 3584 2278 3584 
Q 2916 3584 3314 3078 
Q 3713 2572 3713 1747 
Q 3713 922 3314 415 
Q 2916 -91 2278 -91 
Q 1894 -91 1617 61 
Q 1341 213 1159 525 
z
M 3116 1747 
Q 3116 2381 2855 2742 
Q 2594 3103 2138 3103 
Q 1681 3103 1420 2742 
Q 1159 2381 1159 1747 
Q 1159 1113 1420 752 
Q 1681 391 2138 391 
Q 2594 391 2855 752 
Q 3116 1113 3116 1747 
z
" transform="scale(0.015625)"/>
       <path id="DejaVuSans-6c" d="M 603 4863 
L 1178 4863 
L 1178 0 
L 603 0 
L 603 4863 
z
" transform="scale(0.015625)"/>
       <path id="DejaVuSans-61" d="M 2194 1759 
Q 1497 1759 1228 1600 
Q 959 1441 959 1056 
Q 959 750 1161 570 
Q 1363 391 1709 391 
Q 2188 391 2477 730 
Q 2766 1069 2766 1631 
L 2766 1759 
L 2194 1759 
z
M 3341 1997 
L 3341 0 
L 2766 0 
L 2766 531 
Q 2569 213 2275 61 
Q 1981 -91 1556 -91 
Q 1019 -91 701 211 
Q 384 513 384 1019 
Q 384 1609 779 1909 
Q 1175 2209 1959 2209 
L 2766 2209 
L 2766 2266 
Q 2766 2663 2505 2880 
Q 2244 3097 1772 3097 
Q 1472 3097 1187 3025 
Q 903 2953 641 2809 
L 641 3341 
Q 956 3463 1253 3523 
Q 1550 3584 1831 3584 
Q 2591 3584 2966 3190 
Q 3341 2797 3341 1997 
z
" transform="scale(0.015625)"/>
      </defs>
      <use xlink:href="#DejaVuSans-71"/>
      <use xlink:href="#DejaVuSans-75" transform="translate(63.476562 0)"/>
      <use xlink:href="#DejaVuSans-65" transform="translate(126.855469 0)"/>
      <use xlink:href="#DejaVuSans-72" transform="translate(188.378906 0)"/>
      <use xlink:href="#DejaVuSans-79" transform="translate(229.492188 0)"/>
      <use xlink:href="#DejaVuSans-20" transform="translate(288.671875 0)"/>
      <use xlink:href="#DejaVuSans-74" transform="translate(320.458984 0)"/>
      <use xlink:href="#DejaVuSans-65" transform="translate(359.667969 0)"/>
      <use xlink:href="#DejaVuSans-6d" transform="translate(421.191406 0)"/>
      <use xlink:href="#DejaVuSans-70" transform="translate(518.603516 0)"/>
      <use xlink:href="#DejaVuSans-6c" transform="translate(582.080078 0)"/>
      <use xlink:href="#DejaVuSans-61" transform="translate(609.863281 0)"/>
      <use xlink:href="#DejaVuSans-74" transform="translate(671.142578 0)"/>
      <use xlink:href="#DejaVuSans-65" transform="translate(710.351562 0)"/>
     </g>
    </g>
   </g>
   <g id="matplotlib.axis_2">
    <g id="ytick_1">
     <g id="line2d_23">
      <path d="M 118.28 633.04 
L 693 633.04 
" clip-path="url(#pe150aeff47)" style="fill: none; stroke: #b0b0b0; stroke-width: 0.8; stroke-linecap: square"/>
     </g>
     <g id="line2d_24">
      <defs>
       <path id="m93cafa9614" d="M 0 0 
L -3.5 0 
" style="stroke: #000000; stroke-width: 0.8"/>
      </defs>
      <g>
       <use xlink:href="#m93cafa9614" x="118.28" y="633.04" style="stroke: #000000; stroke-width: 0.8"/>
      </g>
     </g>
     <g id="text_13">
      <!-- 0.2 -->
      <g transform="translate(71.522188 642.538047) scale(0.25 -0.25)">
       <defs>
        <path id="DejaVuSans-30" d="M 2034 4250 
Q 1547 4250 1301 3770 
Q 1056 3291 1056 2328 
Q 1056 1369 1301 889 
Q 1547 409 2034 409 
Q 2525 409 2770 889 
Q 3016 1369 3016 2328 
Q 3016 3291 2770 3770 
Q 2525 4250 2034 4250 
z
M 2034 4750 
Q 2819 4750 3233 4129 
Q 3647 3509 3647 2328 
Q 3647 1150 3233 529 
Q 2819 -91 2034 -91 
Q 1250 -91 836 529 
Q 422 1150 422 2328 
Q 422 3509 836 4129 
Q 1250 4750 2034 4750 
z
" transform="scale(0.015625)"/>
        <path id="DejaVuSans-2e" d="M 684 794 
L 1344 794 
L 1344 0 
L 684 0 
L 684 794 
z
" transform="scale(0.015625)"/>
       </defs>
       <use xlink:href="#DejaVuSans-30"/>
       <use xlink:href="#DejaVuSans-2e" transform="translate(63.623047 0)"/>
       <use xlink:href="#DejaVuSans-32" transform="translate(95.410156 0)"/>
      </g>
     </g>
    </g>
    <g id="ytick_2">
     <g id="line2d_25">
      <path d="M 118.28 533.653333 
L 693 533.653333 
" clip-path="url(#pe150aeff47)" style="fill: none; stroke: #b0b0b0; stroke-width: 0.8; stroke-linecap: square"/>
     </g>
     <g id="line2d_26">
      <g>
       <use xlink:href="#m93cafa9614" x="118.28" y="533.653333" style="stroke: #000000; stroke-width: 0.8"/>
      </g>
     </g>
     <g id="text_14">
      <!-- 0.5 -->
      <g transform="translate(71.522188 543.15138) scale(0.25 -0.25)">
       <use xlink:href="#DejaVuSans-30"/>
       <use xlink:href="#DejaVuSans-2e" transform="translate(63.623047 0)"/>
       <use xlink:href="#DejaVuSans-35" transform="translate(95.410156 0)"/>
      </g>
     </g>
    </g>
    <g id="ytick_3">
     <g id="line2d_27">
      <path d="M 118.28 434.266667 
L 693 434.266667 
" clip-path="url(#pe150aeff47)" style="fill: none; stroke: #b0b0b0; stroke-width: 0.8; stroke-linecap: square"/>
     </g>
     <g id="line2d_28">
      <g>
       <use xlink:href="#m93cafa9614" x="118.28" y="434.266667" style="stroke: #000000; stroke-width: 0.8"/>
      </g>
     </g>
     <g id="text_15">
      <!-- 1.0 -->
      <g transform="translate(71.522188 443.764714) scale(0.25 -0.25)">
       <use xlink:href="#DejaVuSans-31"/>
       <use xlink:href="#DejaVuSans-2e" transform="translate(63.623047 0)"/>
       <use xlink:href="#DejaVuSans-30" transform="translate(95.410156 0)"/>
      </g>
     </g>
    </g>
    <g id="ytick_4">
     <g id="line2d_29">
      <path d="M 118.28 334.88 
L 693 334.88 
" clip-path="url(#pe150aeff47)" style="fill: none; stroke: #b0b0b0; stroke-width: 0.8; stroke-linecap: square"/>
     </g>
     <g id="line2d_30">
      <g>
       <use xlink:href="#m93cafa9614" x="118.28" y="334.88" style="stroke: #000000; stroke-width: 0.8"/>
      </g>
     </g>
     <g id="text_16">
      <!-- 2.0 -->
      <g transform="translate(71.522188 344.378047) scale(0.25 -0.25)">
       <use xlink:href="#DejaVuSans-32"/>
       <use xlink:href="#DejaVuSans-2e" transform="translate(63.623047 0)"/>
       <use xlink:href="#DejaVuSans-30" transform="translate(95.410156 0)"/>
      </g>
     </g>
    </g>
    <g id="ytick_5">
     <g id="line2d_31">
      <path d="M 118.28 235.493333 
L 693 235.493333 
" clip-path="url(#pe150aeff47)" style="fill: none; stroke: #b0b0b0; stroke-width: 0.8; stroke-linecap: square"/>
     </g>
     <g id="line2d_32">
      <g>
       <use xlink:href="#m93cafa9614" x="118.28" y="235.493333" style="stroke: #000000; stroke-width: 0.8"/>
      </g>
     </g>
     <g id="text_17">
      <!-- 4.0 -->
      <g transform="translate(71.522188 244.99138) scale(0.25 -0.25)">
       <use xlink:href="#DejaVuSans-34"/>
       <use xlink:href="#DejaVuSans-2e" transform="translate(63.623047 0)"/>
       <use xlink:href="#DejaVuSans-30" transform="translate(95.410156 0)"/>
      </g>
     </g>
    </g>
    <g id="ytick_6">
     <g id="line2d_33">
      <path d="M 118.28 136.106667 
L 693 136.106667 
" clip-path="url(#pe150aeff47)" style="fill: none; stroke: #b0b0b0; stroke-width: 0.8; stroke-linecap: square"/>
     </g>
     <g id="line2d_34">
      <g>
       <use xlink:href="#m93cafa9614" x="118.28" y="136.106667" style="stroke: #000000; stroke-width: 0.8"/>
      </g>
     </g>
     <g id="text_18">
      <!-- 8.0 -->
      <g transform="translate(71.522188 145.604714) scale(0.25 -0.25)">
       <defs>
        <path id="DejaVuSans-38" d="M 2034 2216 
Q 1584 2216 1326 1975 
Q 1069 1734 1069 1313 
Q 1069 891 1326 650 
Q 1584 409 2034 409 
Q 2484 409 2743 651 
Q 3003 894 3003 1313 
Q 3003 1734 2745 1975 
Q 2488 2216 2034 2216 
z
M 1403 2484 
Q 997 2584 770 2862 
Q 544 3141 544 3541 
Q 544 4100 942 4425 
Q 1341 4750 2034 4750 
Q 2731 4750 3128 4425 
Q 3525 4100 3525 3541 
Q 3525 3141 3298 2862 
Q 3072 2584 2669 2484 
Q 3125 2378 3379 2068 
Q 3634 1759 3634 1313 
Q 3634 634 3220 271 
Q 2806 -91 2034 -91 
Q 1263 -91 848 271 
Q 434 634 434 1313 
Q 434 1759 690 2068 
Q 947 2378 1403 2484 
z
M 1172 3481 
Q 1172 3119 1398 2916 
Q 1625 2713 2034 2713 
Q 2441 2713 2670 2916 
Q 2900 3119 2900 3481 
Q 2900 3844 2670 4047 
Q 2441 4250 2034 4250 
Q 1625 4250 1398 4047 
Q 1172 3844 1172 3481 
z
" transform="scale(0.015625)"/>
       </defs>
       <use xlink:href="#DejaVuSans-38"/>
       <use xlink:href="#DejaVuSans-2e" transform="translate(63.623047 0)"/>
       <use xlink:href="#DejaVuSans-30" transform="translate(95.410156 0)"/>
      </g>
     </g>
    </g>
    <g id="ytick_7">
     <g id="line2d_35">
      <path d="M 118.28 36.72 
L 693 36.72 
" clip-path="url(#pe150aeff47)" style="fill: none; stroke: #b0b0b0; stroke-width: 0.8; stroke-linecap: square"/>
     </g>
     <g id="line2d_36">
      <g>
       <use xlink:href="#m93cafa9614" x="118.28" y="36.72" style="stroke: #000000; stroke-width: 0.8"/>
      </g>
     </g>
     <g id="text_19">
      <!-- 16.0 -->
      <g transform="translate(55.615938 46.218047) scale(0.25 -0.25)">
       <use xlink:href="#DejaVuSans-31"/>
       <use xlink:href="#DejaVuSans-36" transform="translate(63.623047 0)"/>
       <use xlink:href="#DejaVuSans-2e" transform="translate(127.246094 0)"/>
       <use xlink:href="#DejaVuSans-30" transform="translate(159.033203 0)"/>
      </g>
     </g>
    </g>
    <g id="text_20">
     <!-- ratio HTTP request -->
     <g transform="translate(46.416719 451.143672) rotate(-90) scale(0.25 -0.25)">
      <defs>
       <path id="DejaVuSans-69" d="M 603 3500 
L 1178 3500 
L 1178 0 
L 603 0 
L 603 3500 
z
M 603 4863 
L 1178 4863 
L 1178 4134 
L 603 4134 
L 603 4863 
z
" transform="scale(0.015625)"/>
       <path id="DejaVuSans-6f" d="M 1959 3097 
Q 1497 3097 1228 2736 
Q 959 2375 959 1747 
Q 959 1119 1226 758 
Q 1494 397 1959 397 
Q 2419 397 2687 759 
Q 2956 1122 2956 1747 
Q 2956 2369 2687 2733 
Q 2419 3097 1959 3097 
z
M 1959 3584 
Q 2709 3584 3137 3096 
Q 3566 2609 3566 1747 
Q 3566 888 3137 398 
Q 2709 -91 1959 -91 
Q 1206 -91 779 398 
Q 353 888 353 1747 
Q 353 2609 779 3096 
Q 1206 3584 1959 3584 
z
" transform="scale(0.015625)"/>
       <path id="DejaVuSans-48" d="M 628 4666 
L 1259 4666 
L 1259 2753 
L 3553 2753 
L 3553 4666 
L 4184 4666 
L 4184 0 
L 3553 0 
L 3553 2222 
L 1259 2222 
L 1259 0 
L 628 0 
L 628 4666 
z
" transform="scale(0.015625)"/>
       <path id="DejaVuSans-54" d="M -19 4666 
L 3928 4666 
L 3928 4134 
L 2272 4134 
L 2272 0 
L 1638 0 
L 1638 4134 
L -19 4134 
L -19 4666 
z
" transform="scale(0.015625)"/>
       <path id="DejaVuSans-50" d="M 1259 4147 
L 1259 2394 
L 2053 2394 
Q 2494 2394 2734 2622 
Q 2975 2850 2975 3272 
Q 2975 3691 2734 3919 
Q 2494 4147 2053 4147 
L 1259 4147 
z
M 628 4666 
L 2053 4666 
Q 2838 4666 3239 4311 
Q 3641 3956 3641 3272 
Q 3641 2581 3239 2228 
Q 2838 1875 2053 1875 
L 1259 1875 
L 1259 0 
L 628 0 
L 628 4666 
z
" transform="scale(0.015625)"/>
       <path id="DejaVuSans-73" d="M 2834 3397 
L 2834 2853 
Q 2591 2978 2328 3040 
Q 2066 3103 1784 3103 
Q 1356 3103 1142 2972 
Q 928 2841 928 2578 
Q 928 2378 1081 2264 
Q 1234 2150 1697 2047 
L 1894 2003 
Q 2506 1872 2764 1633 
Q 3022 1394 3022 966 
Q 3022 478 2636 193 
Q 2250 -91 1575 -91 
Q 1294 -91 989 -36 
Q 684 19 347 128 
L 347 722 
Q 666 556 975 473 
Q 1284 391 1588 391 
Q 1994 391 2212 530 
Q 2431 669 2431 922 
Q 2431 1156 2273 1281 
Q 2116 1406 1581 1522 
L 1381 1569 
Q 847 1681 609 1914 
Q 372 2147 372 2553 
Q 372 3047 722 3315 
Q 1072 3584 1716 3584 
Q 2034 3584 2315 3537 
Q 2597 3491 2834 3397 
z
" transform="scale(0.015625)"/>
      </defs>
      <use xlink:href="#DejaVuSans-72"/>
      <use xlink:href="#DejaVuSans-61" transform="translate(41.113281 0)"/>
      <use xlink:href="#DejaVuSans-74" transform="translate(102.392578 0)"/>
      <use xlink:href="#DejaVuSans-69" transform="translate(141.601562 0)"/>
      <use xlink:href="#DejaVuSans-6f" transform="translate(169.384766 0)"/>
      <use xlink:href="#DejaVuSans-20" transform="translate(230.566406 0)"/>
      <use xlink:href="#DejaVuSans-48" transform="translate(262.353516 0)"/>
      <use xlink:href="#DejaVuSans-54" transform="translate(337.548828 0)"/>
      <use xlink:href="#DejaVuSans-54" transform="translate(396.882812 0)"/>
      <use xlink:href="#DejaVuSans-50" transform="translate(457.966797 0)"/>
      <use xlink:href="#DejaVuSans-20" transform="translate(518.269531 0)"/>
      <use xlink:href="#DejaVuSans-72" transform="translate(550.056641 0)"/>
      <use xlink:href="#DejaVuSans-65" transform="translate(588.919922 0)"/>
      <use xlink:href="#DejaVuSans-71" transform="translate(650.443359 0)"/>
      <use xlink:href="#DejaVuSans-75" transform="translate(713.919922 0)"/>
      <use xlink:href="#DejaVuSans-65" transform="translate(777.298828 0)"/>
      <use xlink:href="#DejaVuSans-73" transform="translate(838.822266 0)"/>
      <use xlink:href="#DejaVuSans-74" transform="translate(890.921875 0)"/>
     </g>
    </g>
   </g>
   <g id="patch_3">
    <path d="M 133.404211 492.40414 
L 153.569825 492.40414 
L 153.569825 446.22231 
L 133.404211 446.22231 
L 133.404211 492.40414 
z
" clip-path="url(#pe150aeff47)" style="fill: #d41159; stroke: #000000; stroke-linejoin: miter"/>
   </g>
   <g id="line2d_37">
    <path d="M 143.487018 492.40414 
L 143.487018 492.40414 
" clip-path="url(#pe150aeff47)" style="fill: none; stroke: #000000; stroke-linecap: square"/>
   </g>
   <g id="line2d_38">
    <path d="M 143.487018 446.22231 
L 143.487018 444.512785 
" clip-path="url(#pe150aeff47)" style="fill: none; stroke: #000000; stroke-linecap: square"/>
   </g>
   <g id="line2d_39">
    <path d="M 138.445614 492.40414 
L 148.528421 492.40414 
" clip-path="url(#pe150aeff47)" style="fill: none; stroke: #000000; stroke-linecap: square"/>
   </g>
   <g id="line2d_40">
    <path d="M 138.445614 444.512785 
L 148.528421 444.512785 
" clip-path="url(#pe150aeff47)" style="fill: none; stroke: #000000; stroke-linecap: square"/>
   </g>
   <g id="line2d_41"/>
   <g id="patch_4">
    <path d="M 183.818246 488.679654 
L 203.98386 488.679654 
L 203.98386 441.205988 
L 183.818246 441.205988 
L 183.818246 488.679654 
z
" clip-path="url(#pe150aeff47)" style="fill: #d41159; stroke: #000000; stroke-linejoin: miter"/>
   </g>
   <g id="line2d_42">
    <path d="M 193.901053 488.679654 
L 193.901053 488.679654 
" clip-path="url(#pe150aeff47)" style="fill: none; stroke: #000000; stroke-linecap: square"/>
   </g>
   <g id="line2d_43">
    <path d="M 193.901053 441.205988 
L 193.901053 438.268359 
" clip-path="url(#pe150aeff47)" style="fill: none; stroke: #000000; stroke-linecap: square"/>
   </g>
   <g id="line2d_44">
    <path d="M 188.859649 488.679654 
L 198.942456 488.679654 
" clip-path="url(#pe150aeff47)" style="fill: none; stroke: #000000; stroke-linecap: square"/>
   </g>
   <g id="line2d_45">
    <path d="M 188.859649 438.268359 
L 198.942456 438.268359 
" clip-path="url(#pe150aeff47)" style="fill: none; stroke: #000000; stroke-linecap: square"/>
   </g>
   <g id="line2d_46"/>
   <g id="patch_5">
    <path d="M 234.232281 440.241892 
L 254.397895 440.241892 
L 254.397895 437.453123 
L 234.232281 437.453123 
L 234.232281 440.241892 
z
" clip-path="url(#pe150aeff47)" style="fill: #d41159; stroke: #000000; stroke-linejoin: miter"/>
   </g>
   <g id="line2d_47">
    <path d="M 244.315088 440.241892 
L 244.315088 442.872328 
" clip-path="url(#pe150aeff47)" style="fill: none; stroke: #000000; stroke-linecap: square"/>
   </g>
   <g id="line2d_48">
    <path d="M 244.315088 437.453123 
L 244.315088 436.310188 
" clip-path="url(#pe150aeff47)" style="fill: none; stroke: #000000; stroke-linecap: square"/>
   </g>
   <g id="line2d_49">
    <path d="M 239.273684 442.872328 
L 249.356491 442.872328 
" clip-path="url(#pe150aeff47)" style="fill: none; stroke: #000000; stroke-linecap: square"/>
   </g>
   <g id="line2d_50">
    <path d="M 239.273684 436.310188 
L 249.356491 436.310188 
" clip-path="url(#pe150aeff47)" style="fill: none; stroke: #000000; stroke-linecap: square"/>
   </g>
   <g id="line2d_51"/>
   <g id="patch_6">
    <path d="M 284.646316 482.511621 
L 304.81193 482.511621 
L 304.81193 446.926471 
L 284.646316 446.926471 
L 284.646316 482.511621 
z
" clip-path="url(#pe150aeff47)" style="fill: #d41159; stroke: #000000; stroke-linejoin: miter"/>
   </g>
   <g id="line2d_52">
    <path d="M 294.729123 482.511621 
L 294.729123 482.511621 
" clip-path="url(#pe150aeff47)" style="fill: none; stroke: #000000; stroke-linecap: square"/>
   </g>
   <g id="line2d_53">
    <path d="M 294.729123 446.926471 
L 294.729123 438.52593 
" clip-path="url(#pe150aeff47)" style="fill: none; stroke: #000000; stroke-linecap: square"/>
   </g>
   <g id="line2d_54">
    <path d="M 289.687719 482.511621 
L 299.770526 482.511621 
" clip-path="url(#pe150aeff47)" style="fill: none; stroke: #000000; stroke-linecap: square"/>
   </g>
   <g id="line2d_55">
    <path d="M 289.687719 438.52593 
L 299.770526 438.52593 
" clip-path="url(#pe150aeff47)" style="fill: none; stroke: #000000; stroke-linecap: square"/>
   </g>
   <g id="line2d_56"/>
   <g id="patch_7">
    <path d="M 335.060351 488.679654 
L 355.225965 488.679654 
L 355.225965 441.205988 
L 335.060351 441.205988 
L 335.060351 488.679654 
z
" clip-path="url(#pe150aeff47)" style="fill: #d41159; stroke: #000000; stroke-linejoin: miter"/>
   </g>
   <g id="line2d_57">
    <path d="M 345.143158 488.679654 
L 345.143158 488.679654 
" clip-path="url(#pe150aeff47)" style="fill: none; stroke: #000000; stroke-linecap: square"/>
   </g>
   <g id="line2d_58">
    <path d="M 345.143158 441.205988 
L 345.143158 438.268359 
" clip-path="url(#pe150aeff47)" style="fill: none; stroke: #000000; stroke-linecap: square"/>
   </g>
   <g id="line2d_59">
    <path d="M 340.101754 488.679654 
L 350.184561 488.679654 
" clip-path="url(#pe150aeff47)" style="fill: none; stroke: #000000; stroke-linecap: square"/>
   </g>
   <g id="line2d_60">
    <path d="M 340.101754 438.268359 
L 350.184561 438.268359 
" clip-path="url(#pe150aeff47)" style="fill: none; stroke: #000000; stroke-linecap: square"/>
   </g>
   <g id="line2d_61"/>
   <g id="patch_8">
    <path d="M 385.474386 466.262027 
L 405.64 466.262027 
L 405.64 434.266667 
L 385.474386 434.266667 
L 385.474386 466.262027 
z
" clip-path="url(#pe150aeff47)" style="fill: #d41159; stroke: #000000; stroke-linejoin: miter"/>
   </g>
   <g id="line2d_62">
    <path d="M 395.557193 466.262027 
L 395.557193 470.301298 
" clip-path="url(#pe150aeff47)" style="fill: none; stroke: #000000; stroke-linecap: square"/>
   </g>
   <g id="line2d_63">
    <path d="M 395.557193 434.266667 
L 395.557193 434.266667 
" clip-path="url(#pe150aeff47)" style="fill: none; stroke: #000000; stroke-linecap: square"/>
   </g>
   <g id="line2d_64">
    <path d="M 390.515789 470.301298 
L 400.598596 470.301298 
" clip-path="url(#pe150aeff47)" style="fill: none; stroke: #000000; stroke-linecap: square"/>
   </g>
   <g id="line2d_65">
    <path d="M 390.515789 434.266667 
L 400.598596 434.266667 
" clip-path="url(#pe150aeff47)" style="fill: none; stroke: #000000; stroke-linecap: square"/>
   </g>
   <g id="line2d_66"/>
   <g id="patch_9">
    <path d="M 435.888421 466.262027 
L 456.054035 466.262027 
L 456.054035 434.266667 
L 435.888421 434.266667 
L 435.888421 466.262027 
z
" clip-path="url(#pe150aeff47)" style="fill: #d41159; stroke: #000000; stroke-linejoin: miter"/>
   </g>
   <g id="line2d_67">
    <path d="M 445.971228 466.262027 
L 445.971228 470.301298 
" clip-path="url(#pe150aeff47)" style="fill: none; stroke: #000000; stroke-linecap: square"/>
   </g>
   <g id="line2d_68">
    <path d="M 445.971228 434.266667 
L 445.971228 434.266667 
" clip-path="url(#pe150aeff47)" style="fill: none; stroke: #000000; stroke-linecap: square"/>
   </g>
   <g id="line2d_69">
    <path d="M 440.929825 470.301298 
L 451.012632 470.301298 
" clip-path="url(#pe150aeff47)" style="fill: none; stroke: #000000; stroke-linecap: square"/>
   </g>
   <g id="line2d_70">
    <path d="M 440.929825 434.266667 
L 451.012632 434.266667 
" clip-path="url(#pe150aeff47)" style="fill: none; stroke: #000000; stroke-linecap: square"/>
   </g>
   <g id="line2d_71"/>
   <g id="patch_10">
    <path d="M 486.302456 452.21314 
L 506.46807 452.21314 
L 506.46807 150.512599 
L 486.302456 150.512599 
L 486.302456 452.21314 
z
" clip-path="url(#pe150aeff47)" style="fill: #d41159; stroke: #000000; stroke-linejoin: miter"/>
   </g>
   <g id="line2d_72">
    <path d="M 496.385263 452.21314 
L 496.385263 452.21314 
" clip-path="url(#pe150aeff47)" style="fill: none; stroke: #000000; stroke-linecap: square"/>
   </g>
   <g id="line2d_73">
    <path d="M 496.385263 150.512599 
L 496.385263 71.107375 
" clip-path="url(#pe150aeff47)" style="fill: none; stroke: #000000; stroke-linecap: square"/>
   </g>
   <g id="line2d_74">
    <path d="M 491.34386 452.21314 
L 501.426667 452.21314 
" clip-path="url(#pe150aeff47)" style="fill: none; stroke: #000000; stroke-linecap: square"/>
   </g>
   <g id="line2d_75">
    <path d="M 491.34386 71.107375 
L 501.426667 71.107375 
" clip-path="url(#pe150aeff47)" style="fill: none; stroke: #000000; stroke-linecap: square"/>
   </g>
   <g id="line2d_76"/>
   <g id="patch_11">
    <path d="M 536.716491 501.657973 
L 556.882105 501.657973 
L 556.882105 496.684596 
L 536.716491 496.684596 
L 536.716491 501.657973 
z
" clip-path="url(#pe150aeff47)" style="fill: #d41159; stroke: #000000; stroke-linejoin: miter"/>
   </g>
   <g id="line2d_77">
    <path d="M 546.799298 501.657973 
L 546.799298 501.657973 
" clip-path="url(#pe150aeff47)" style="fill: none; stroke: #000000; stroke-linecap: square"/>
   </g>
   <g id="line2d_78">
    <path d="M 546.799298 496.684596 
L 546.799298 496.684596 
" clip-path="url(#pe150aeff47)" style="fill: none; stroke: #000000; stroke-linecap: square"/>
   </g>
   <g id="line2d_79">
    <path d="M 541.757895 501.657973 
L 551.840702 501.657973 
" clip-path="url(#pe150aeff47)" style="fill: none; stroke: #000000; stroke-linecap: square"/>
   </g>
   <g id="line2d_80">
    <path d="M 541.757895 496.684596 
L 551.840702 496.684596 
" clip-path="url(#pe150aeff47)" style="fill: none; stroke: #000000; stroke-linecap: square"/>
   </g>
   <g id="line2d_81"/>
   <g id="patch_12">
    <path d="M 587.130526 492.40414 
L 607.29614 492.40414 
L 607.29614 488.679654 
L 587.130526 488.679654 
L 587.130526 492.40414 
z
" clip-path="url(#pe150aeff47)" style="fill: #d41159; stroke: #000000; stroke-linejoin: miter"/>
   </g>
   <g id="line2d_82">
    <path d="M 597.213333 492.40414 
L 597.213333 492.40414 
" clip-path="url(#pe150aeff47)" style="fill: none; stroke: #000000; stroke-linecap: square"/>
   </g>
   <g id="line2d_83">
    <path d="M 597.213333 488.679654 
L 597.213333 488.679654 
" clip-path="url(#pe150aeff47)" style="fill: none; stroke: #000000; stroke-linecap: square"/>
   </g>
   <g id="line2d_84">
    <path d="M 592.17193 492.40414 
L 602.254737 492.40414 
" clip-path="url(#pe150aeff47)" style="fill: none; stroke: #000000; stroke-linecap: square"/>
   </g>
   <g id="line2d_85">
    <path d="M 592.17193 488.679654 
L 602.254737 488.679654 
" clip-path="url(#pe150aeff47)" style="fill: none; stroke: #000000; stroke-linecap: square"/>
   </g>
   <g id="line2d_86">
    <defs>
     <path id="mc1f4c6c64d" d="M 0 3 
C 0.795609 3 1.55874 2.683901 2.12132 2.12132 
C 2.683901 1.55874 3 0.795609 3 0 
C 3 -0.795609 2.683901 -1.55874 2.12132 -2.12132 
C 1.55874 -2.683901 0.795609 -3 0 -3 
C -0.795609 -3 -1.55874 -2.683901 -2.12132 -2.12132 
C -2.683901 -1.55874 -3 -0.795609 -3 0 
C -3 0.795609 -2.683901 1.55874 -2.12132 2.12132 
C -1.55874 2.683901 -0.795609 3 0 3 
z
" style="stroke: #000000"/>
    </defs>
    <g clip-path="url(#pe150aeff47)">
     <use xlink:href="#mc1f4c6c64d" x="597.213333" y="452.59601" style="fill-opacity: 0; stroke: #000000"/>
    </g>
   </g>
   <g id="patch_13">
    <path d="M 637.544561 434.266667 
L 657.710175 434.266667 
L 657.710175 434.266667 
L 637.544561 434.266667 
L 637.544561 434.266667 
z
" clip-path="url(#pe150aeff47)" style="fill: #d41159; stroke: #000000; stroke-linejoin: miter"/>
   </g>
   <g id="line2d_87">
    <path d="M 647.627368 434.266667 
L 647.627368 434.266667 
" clip-path="url(#pe150aeff47)" style="fill: none; stroke: #000000; stroke-linecap: square"/>
   </g>
   <g id="line2d_88">
    <path d="M 647.627368 434.266667 
L 647.627368 434.266667 
" clip-path="url(#pe150aeff47)" style="fill: none; stroke: #000000; stroke-linecap: square"/>
   </g>
   <g id="line2d_89">
    <path d="M 642.585965 434.266667 
L 652.668772 434.266667 
" clip-path="url(#pe150aeff47)" style="fill: none; stroke: #000000; stroke-linecap: square"/>
   </g>
   <g id="line2d_90">
    <path d="M 642.585965 434.266667 
L 652.668772 434.266667 
" clip-path="url(#pe150aeff47)" style="fill: none; stroke: #000000; stroke-linecap: square"/>
   </g>
   <g id="line2d_91">
    <g clip-path="url(#pe150aeff47)">
     <use xlink:href="#mc1f4c6c64d" x="647.627368" y="465.63574" style="fill-opacity: 0; stroke: #000000"/>
    </g>
   </g>
   <g id="patch_14">
    <path d="M 153.569825 550.541613 
L 173.735439 550.541613 
L 173.735439 454.785131 
L 153.569825 454.785131 
L 153.569825 550.541613 
z
" clip-path="url(#pe150aeff47)" style="fill: #004d40; stroke: #000000; stroke-linejoin: miter"/>
   </g>
   <g id="line2d_92">
    <path d="M 163.652632 550.541613 
L 163.652632 550.541613 
" clip-path="url(#pe150aeff47)" style="fill: none; stroke: #000000; stroke-linecap: square"/>
   </g>
   <g id="line2d_93">
    <path d="M 163.652632 454.785131 
L 163.652632 451.774319 
" clip-path="url(#pe150aeff47)" style="fill: none; stroke: #000000; stroke-linecap: square"/>
   </g>
   <g id="line2d_94">
    <path d="M 158.611228 550.541613 
L 168.694035 550.541613 
" clip-path="url(#pe150aeff47)" style="fill: none; stroke: #000000; stroke-linecap: square"/>
   </g>
   <g id="line2d_95">
    <path d="M 158.611228 451.774319 
L 168.694035 451.774319 
" clip-path="url(#pe150aeff47)" style="fill: none; stroke: #000000; stroke-linecap: square"/>
   </g>
   <g id="line2d_96"/>
   <g id="patch_15">
    <path d="M 203.98386 541.405743 
L 224.149474 541.405743 
L 224.149474 446.026094 
L 203.98386 446.026094 
L 203.98386 541.405743 
z
" clip-path="url(#pe150aeff47)" style="fill: #004d40; stroke: #000000; stroke-linejoin: miter"/>
   </g>
   <g id="line2d_97">
    <path d="M 214.066667 541.405743 
L 214.066667 541.405743 
" clip-path="url(#pe150aeff47)" style="fill: none; stroke: #000000; stroke-linecap: square"/>
   </g>
   <g id="line2d_98">
    <path d="M 214.066667 446.026094 
L 214.066667 440.999577 
" clip-path="url(#pe150aeff47)" style="fill: none; stroke: #000000; stroke-linecap: square"/>
   </g>
   <g id="line2d_99">
    <path d="M 209.025263 541.405743 
L 219.10807 541.405743 
" clip-path="url(#pe150aeff47)" style="fill: none; stroke: #000000; stroke-linecap: square"/>
   </g>
   <g id="line2d_100">
    <path d="M 209.025263 440.999577 
L 219.10807 440.999577 
" clip-path="url(#pe150aeff47)" style="fill: none; stroke: #000000; stroke-linecap: square"/>
   </g>
   <g id="line2d_101"/>
   <g id="patch_16">
    <path d="M 254.397895 444.368353 
L 274.563509 444.368353 
L 274.563509 439.617461 
L 254.397895 439.617461 
L 254.397895 444.368353 
z
" clip-path="url(#pe150aeff47)" style="fill: #004d40; stroke: #000000; stroke-linejoin: miter"/>
   </g>
   <g id="line2d_102">
    <path d="M 264.480702 444.368353 
L 264.480702 448.910469 
" clip-path="url(#pe150aeff47)" style="fill: none; stroke: #000000; stroke-linecap: square"/>
   </g>
   <g id="line2d_103">
    <path d="M 264.480702 439.617461 
L 264.480702 437.688897 
" clip-path="url(#pe150aeff47)" style="fill: none; stroke: #000000; stroke-linecap: square"/>
   </g>
   <g id="line2d_104">
    <path d="M 259.439298 448.910469 
L 269.522105 448.910469 
" clip-path="url(#pe150aeff47)" style="fill: none; stroke: #000000; stroke-linecap: square"/>
   </g>
   <g id="line2d_105">
    <path d="M 259.439298 437.688897 
L 269.522105 437.688897 
" clip-path="url(#pe150aeff47)" style="fill: none; stroke: #000000; stroke-linecap: square"/>
   </g>
   <g id="line2d_106"/>
   <g id="patch_17">
    <path d="M 304.81193 526.983077 
L 324.977544 526.983077 
L 324.977544 456.033319 
L 304.81193 456.033319 
L 304.81193 526.983077 
z
" clip-path="url(#pe150aeff47)" style="fill: #004d40; stroke: #000000; stroke-linejoin: miter"/>
   </g>
   <g id="line2d_107">
    <path d="M 314.894737 526.983077 
L 314.894737 526.983077 
" clip-path="url(#pe150aeff47)" style="fill: none; stroke: #000000; stroke-linecap: square"/>
   </g>
   <g id="line2d_108">
    <path d="M 314.894737 456.033319 
L 314.894737 441.437393 
" clip-path="url(#pe150aeff47)" style="fill: none; stroke: #000000; stroke-linecap: square"/>
   </g>
   <g id="line2d_109">
    <path d="M 309.853333 526.983077 
L 319.93614 526.983077 
" clip-path="url(#pe150aeff47)" style="fill: none; stroke: #000000; stroke-linecap: square"/>
   </g>
   <g id="line2d_110">
    <path d="M 309.853333 441.437393 
L 319.93614 441.437393 
" clip-path="url(#pe150aeff47)" style="fill: none; stroke: #000000; stroke-linecap: square"/>
   </g>
   <g id="line2d_111"/>
   <g id="patch_18">
    <path d="M 355.225965 541.405743 
L 375.391579 541.405743 
L 375.391579 446.026094 
L 355.225965 446.026094 
L 355.225965 541.405743 
z
" clip-path="url(#pe150aeff47)" style="fill: #004d40; stroke: #000000; stroke-linejoin: miter"/>
   </g>
   <g id="line2d_112">
    <path d="M 365.308772 541.405743 
L 365.308772 541.405743 
" clip-path="url(#pe150aeff47)" style="fill: none; stroke: #000000; stroke-linecap: square"/>
   </g>
   <g id="line2d_113">
    <path d="M 365.308772 446.026094 
L 365.308772 440.999577 
" clip-path="url(#pe150aeff47)" style="fill: none; stroke: #000000; stroke-linecap: square"/>
   </g>
   <g id="line2d_114">
    <path d="M 360.267368 541.405743 
L 370.350175 541.405743 
" clip-path="url(#pe150aeff47)" style="fill: none; stroke: #000000; stroke-linecap: square"/>
   </g>
   <g id="line2d_115">
    <path d="M 360.267368 440.999577 
L 370.350175 440.999577 
" clip-path="url(#pe150aeff47)" style="fill: none; stroke: #000000; stroke-linecap: square"/>
   </g>
   <g id="line2d_116"/>
   <g id="patch_19">
    <path d="M 405.64 492.40414 
L 425.805614 492.40414 
L 425.805614 434.266667 
L 405.64 434.266667 
L 405.64 492.40414 
z
" clip-path="url(#pe150aeff47)" style="fill: #004d40; stroke: #000000; stroke-linejoin: miter"/>
   </g>
   <g id="line2d_117">
    <path d="M 415.722807 492.40414 
L 415.722807 500.599779 
" clip-path="url(#pe150aeff47)" style="fill: none; stroke: #000000; stroke-linecap: square"/>
   </g>
   <g id="line2d_118">
    <path d="M 415.722807 434.266667 
L 415.722807 434.266667 
" clip-path="url(#pe150aeff47)" style="fill: none; stroke: #000000; stroke-linecap: square"/>
   </g>
   <g id="line2d_119">
    <path d="M 410.681404 500.599779 
L 420.764211 500.599779 
" clip-path="url(#pe150aeff47)" style="fill: none; stroke: #000000; stroke-linecap: square"/>
   </g>
   <g id="line2d_120">
    <path d="M 410.681404 434.266667 
L 420.764211 434.266667 
" clip-path="url(#pe150aeff47)" style="fill: none; stroke: #000000; stroke-linecap: square"/>
   </g>
   <g id="line2d_121"/>
   <g id="patch_20">
    <path d="M 456.054035 492.40414 
L 476.219649 492.40414 
L 476.219649 434.266667 
L 456.054035 434.266667 
L 456.054035 492.40414 
z
" clip-path="url(#pe150aeff47)" style="fill: #004d40; stroke: #000000; stroke-linejoin: miter"/>
   </g>
   <g id="line2d_122">
    <path d="M 466.136842 492.40414 
L 466.136842 500.599779 
" clip-path="url(#pe150aeff47)" style="fill: none; stroke: #000000; stroke-linecap: square"/>
   </g>
   <g id="line2d_123">
    <path d="M 466.136842 434.266667 
L 466.136842 434.266667 
" clip-path="url(#pe150aeff47)" style="fill: none; stroke: #000000; stroke-linecap: square"/>
   </g>
   <g id="line2d_124">
    <path d="M 461.095439 500.599779 
L 471.178246 500.599779 
" clip-path="url(#pe150aeff47)" style="fill: none; stroke: #000000; stroke-linecap: square"/>
   </g>
   <g id="line2d_125">
    <path d="M 461.095439 434.266667 
L 471.178246 434.266667 
" clip-path="url(#pe150aeff47)" style="fill: none; stroke: #000000; stroke-linecap: square"/>
   </g>
   <g id="line2d_126"/>
   <g id="patch_21">
    <path d="M 506.46807 496.684596 
L 526.633684 496.684596 
L 526.633684 155.253019 
L 506.46807 155.253019 
L 506.46807 496.684596 
z
" clip-path="url(#pe150aeff47)" style="fill: #004d40; stroke: #000000; stroke-linejoin: miter"/>
   </g>
   <g id="line2d_127">
    <path d="M 516.550877 496.684596 
L 516.550877 496.684596 
" clip-path="url(#pe150aeff47)" style="fill: none; stroke: #000000; stroke-linecap: square"/>
   </g>
   <g id="line2d_128">
    <path d="M 516.550877 155.253019 
L 516.550877 73.812826 
" clip-path="url(#pe150aeff47)" style="fill: none; stroke: #000000; stroke-linecap: square"/>
   </g>
   <g id="line2d_129">
    <path d="M 511.509474 496.684596 
L 521.592281 496.684596 
" clip-path="url(#pe150aeff47)" style="fill: none; stroke: #000000; stroke-linecap: square"/>
   </g>
   <g id="line2d_130">
    <path d="M 511.509474 73.812826 
L 521.592281 73.812826 
" clip-path="url(#pe150aeff47)" style="fill: none; stroke: #000000; stroke-linecap: square"/>
   </g>
   <g id="line2d_131"/>
   <g id="patch_22">
    <path d="M 556.882105 574.902527 
L 577.047719 574.902527 
L 577.047719 561.492326 
L 556.882105 561.492326 
L 556.882105 574.902527 
z
" clip-path="url(#pe150aeff47)" style="fill: #004d40; stroke: #000000; stroke-linejoin: miter"/>
   </g>
   <g id="line2d_132">
    <path d="M 566.964912 574.902527 
L 566.964912 574.902527 
" clip-path="url(#pe150aeff47)" style="fill: none; stroke: #000000; stroke-linecap: square"/>
   </g>
   <g id="line2d_133">
    <path d="M 566.964912 561.492326 
L 566.964912 561.492326 
" clip-path="url(#pe150aeff47)" style="fill: none; stroke: #000000; stroke-linecap: square"/>
   </g>
   <g id="line2d_134">
    <path d="M 561.923509 574.902527 
L 572.006316 574.902527 
" clip-path="url(#pe150aeff47)" style="fill: none; stroke: #000000; stroke-linecap: square"/>
   </g>
   <g id="line2d_135">
    <path d="M 561.923509 561.492326 
L 572.006316 561.492326 
" clip-path="url(#pe150aeff47)" style="fill: none; stroke: #000000; stroke-linecap: square"/>
   </g>
   <g id="line2d_136"/>
   <g id="patch_23">
    <path d="M 607.29614 550.541613 
L 627.461754 550.541613 
L 627.461754 541.405743 
L 607.29614 541.405743 
L 607.29614 550.541613 
z
" clip-path="url(#pe150aeff47)" style="fill: #004d40; stroke: #000000; stroke-linejoin: miter"/>
   </g>
   <g id="line2d_137">
    <path d="M 617.378947 550.541613 
L 617.378947 550.541613 
" clip-path="url(#pe150aeff47)" style="fill: none; stroke: #000000; stroke-linecap: square"/>
   </g>
   <g id="line2d_138">
    <path d="M 617.378947 541.405743 
L 617.378947 541.405743 
" clip-path="url(#pe150aeff47)" style="fill: none; stroke: #000000; stroke-linecap: square"/>
   </g>
   <g id="line2d_139">
    <path d="M 612.337544 550.541613 
L 622.420351 550.541613 
" clip-path="url(#pe150aeff47)" style="fill: none; stroke: #000000; stroke-linecap: square"/>
   </g>
   <g id="line2d_140">
    <path d="M 612.337544 541.405743 
L 622.420351 541.405743 
" clip-path="url(#pe150aeff47)" style="fill: none; stroke: #000000; stroke-linecap: square"/>
   </g>
   <g id="line2d_141">
    <g clip-path="url(#pe150aeff47)">
     <use xlink:href="#mc1f4c6c64d" x="617.378947" y="466.262027" style="fill-opacity: 0; stroke: #000000"/>
    </g>
   </g>
   <g id="patch_24">
    <path d="M 657.710175 434.266667 
L 677.875789 434.266667 
L 677.875789 434.266667 
L 657.710175 434.266667 
L 657.710175 434.266667 
z
" clip-path="url(#pe150aeff47)" style="fill: #004d40; stroke: #000000; stroke-linejoin: miter"/>
   </g>
   <g id="line2d_142">
    <path d="M 667.792982 434.266667 
L 667.792982 434.266667 
" clip-path="url(#pe150aeff47)" style="fill: none; stroke: #000000; stroke-linecap: square"/>
   </g>
   <g id="line2d_143">
    <path d="M 667.792982 434.266667 
L 667.792982 434.266667 
" clip-path="url(#pe150aeff47)" style="fill: none; stroke: #000000; stroke-linecap: square"/>
   </g>
   <g id="line2d_144">
    <path d="M 662.751579 434.266667 
L 672.834386 434.266667 
" clip-path="url(#pe150aeff47)" style="fill: none; stroke: #000000; stroke-linecap: square"/>
   </g>
   <g id="line2d_145">
    <path d="M 662.751579 434.266667 
L 672.834386 434.266667 
" clip-path="url(#pe150aeff47)" style="fill: none; stroke: #000000; stroke-linecap: square"/>
   </g>
   <g id="line2d_146">
    <g clip-path="url(#pe150aeff47)">
     <use xlink:href="#mc1f4c6c64d" x="667.792982" y="485.527983" style="fill-opacity: 0; stroke: #000000"/>
    </g>
   </g>
   <g id="line2d_147">
    <path d="M 133.404211 463.039764 
L 153.569825 463.039764 
" clip-path="url(#pe150aeff47)" style="fill: none; stroke: #ff7f0e; stroke-width: 3"/>
   </g>
   <g id="line2d_148">
    <path d="M 183.818246 441.497677 
L 203.98386 441.497677 
" clip-path="url(#pe150aeff47)" style="fill: none; stroke: #ff7f0e; stroke-width: 3"/>
   </g>
   <g id="line2d_149">
    <path d="M 234.232281 437.708063 
L 254.397895 437.708063 
" clip-path="url(#pe150aeff47)" style="fill: none; stroke: #ff7f0e; stroke-width: 3"/>
   </g>
   <g id="line2d_150">
    <path d="M 284.646316 448.860743 
L 304.81193 448.860743 
" clip-path="url(#pe150aeff47)" style="fill: none; stroke: #ff7f0e; stroke-width: 3"/>
   </g>
   <g id="line2d_151">
    <path d="M 335.060351 441.497677 
L 355.225965 441.497677 
" clip-path="url(#pe150aeff47)" style="fill: none; stroke: #ff7f0e; stroke-width: 3"/>
   </g>
   <g id="line2d_152">
    <path d="M 385.474386 440.885595 
L 405.64 440.885595 
" clip-path="url(#pe150aeff47)" style="fill: none; stroke: #ff7f0e; stroke-width: 3"/>
   </g>
   <g id="line2d_153">
    <path d="M 435.888421 440.885595 
L 456.054035 440.885595 
" clip-path="url(#pe150aeff47)" style="fill: none; stroke: #ff7f0e; stroke-width: 3"/>
   </g>
   <g id="line2d_154">
    <path d="M 486.302456 156.463023 
L 506.46807 156.463023 
" clip-path="url(#pe150aeff47)" style="fill: none; stroke: #ff7f0e; stroke-width: 3"/>
   </g>
   <g id="line2d_155">
    <path d="M 536.716491 501.657973 
L 556.882105 501.657973 
" clip-path="url(#pe150aeff47)" style="fill: none; stroke: #ff7f0e; stroke-width: 3"/>
   </g>
   <g id="line2d_156">
    <path d="M 587.130526 492.40414 
L 607.29614 492.40414 
" clip-path="url(#pe150aeff47)" style="fill: none; stroke: #ff7f0e; stroke-width: 3"/>
   </g>
   <g id="line2d_157">
    <path d="M 637.544561 434.266667 
L 657.710175 434.266667 
" clip-path="url(#pe150aeff47)" style="fill: none; stroke: #ff7f0e; stroke-width: 3"/>
   </g>
   <g id="line2d_158">
    <path d="M 153.569825 486.030439 
L 173.735439 486.030439 
" clip-path="url(#pe150aeff47)" style="fill: none; stroke: #ff7f0e; stroke-width: 3"/>
   </g>
   <g id="line2d_159">
    <path d="M 203.98386 446.529234 
L 224.149474 446.529234 
" clip-path="url(#pe150aeff47)" style="fill: none; stroke: #ff7f0e; stroke-width: 3"/>
   </g>
   <g id="line2d_160">
    <path d="M 254.397895 440.049089 
L 274.563509 440.049089 
" clip-path="url(#pe150aeff47)" style="fill: none; stroke: #ff7f0e; stroke-width: 3"/>
   </g>
   <g id="line2d_161">
    <path d="M 304.81193 459.486689 
L 324.977544 459.486689 
" clip-path="url(#pe150aeff47)" style="fill: none; stroke: #ff7f0e; stroke-width: 3"/>
   </g>
   <g id="line2d_162">
    <path d="M 355.225965 446.529234 
L 375.391579 446.529234 
" clip-path="url(#pe150aeff47)" style="fill: none; stroke: #ff7f0e; stroke-width: 3"/>
   </g>
   <g id="line2d_163">
    <path d="M 405.64 445.474295 
L 425.805614 445.474295 
" clip-path="url(#pe150aeff47)" style="fill: none; stroke: #ff7f0e; stroke-width: 3"/>
   </g>
   <g id="line2d_164">
    <path d="M 456.054035 445.474295 
L 476.219649 445.474295 
" clip-path="url(#pe150aeff47)" style="fill: none; stroke: #ff7f0e; stroke-width: 3"/>
   </g>
   <g id="line2d_165">
    <path d="M 506.46807 161.407811 
L 526.633684 161.407811 
" clip-path="url(#pe150aeff47)" style="fill: none; stroke: #ff7f0e; stroke-width: 3"/>
   </g>
   <g id="line2d_166">
    <path d="M 556.882105 574.902527 
L 577.047719 574.902527 
" clip-path="url(#pe150aeff47)" style="fill: none; stroke: #ff7f0e; stroke-width: 3"/>
   </g>
   <g id="line2d_167">
    <path d="M 607.29614 550.541613 
L 627.461754 550.541613 
" clip-path="url(#pe150aeff47)" style="fill: none; stroke: #ff7f0e; stroke-width: 3"/>
   </g>
   <g id="line2d_168">
    <path d="M 657.710175 434.266667 
L 677.875789 434.266667 
" clip-path="url(#pe150aeff47)" style="fill: none; stroke: #ff7f0e; stroke-width: 3"/>
   </g>
   <g id="patch_25">
    <path d="M 118.28 633.04 
L 118.28 36.72 
" style="fill: none; stroke: #000000; stroke-width: 0.8; stroke-linejoin: miter; stroke-linecap: square"/>
   </g>
   <g id="patch_26">
    <path d="M 693 633.04 
L 693 36.72 
" style="fill: none; stroke: #000000; stroke-width: 0.8; stroke-linejoin: miter; stroke-linecap: square"/>
   </g>
   <g id="patch_27">
    <path d="M 118.28 633.04 
L 693 633.04 
" style="fill: none; stroke: #000000; stroke-width: 0.8; stroke-linejoin: miter; stroke-linecap: square"/>
   </g>
   <g id="patch_28">
    <path d="M 118.28 36.72 
L 693 36.72 
" style="fill: none; stroke: #000000; stroke-width: 0.8; stroke-linejoin: miter; stroke-linecap: square"/>
   </g>
   <g id="legend_1">
    <g id="patch_29">
     <path d="M 130.88 103.96125 
L 380.77625 103.96125 
Q 384.37625 103.96125 384.37625 100.36125 
L 384.37625 49.32 
Q 384.37625 45.72 380.77625 45.72 
L 130.88 45.72 
Q 127.28 45.72 127.28 49.32 
L 127.28 100.36125 
Q 127.28 103.96125 130.88 103.96125 
z
" style="fill: #ffffff; opacity: 0.8; stroke: #cccccc; stroke-linejoin: miter"/>
    </g>
    <g id="patch_30">
     <path d="M 134.48 66.597187 
L 170.48 66.597187 
L 170.48 53.997187 
L 134.48 53.997187 
z
" style="fill: #d41159; stroke: #000000; stroke-linejoin: miter"/>
    </g>
    <g id="text_21">
     <!-- Dataset shape model -->
     <g transform="translate(184.88 66.597187) scale(0.18 -0.18)">
      <defs>
       <path id="DejaVuSans-68" d="M 3513 2113 
L 3513 0 
L 2938 0 
L 2938 2094 
Q 2938 2591 2744 2837 
Q 2550 3084 2163 3084 
Q 1697 3084 1428 2787 
Q 1159 2491 1159 1978 
L 1159 0 
L 581 0 
L 581 4863 
L 1159 4863 
L 1159 2956 
Q 1366 3272 1645 3428 
Q 1925 3584 2291 3584 
Q 2894 3584 3203 3211 
Q 3513 2838 3513 2113 
z
" transform="scale(0.015625)"/>
       <path id="DejaVuSans-64" d="M 2906 2969 
L 2906 4863 
L 3481 4863 
L 3481 0 
L 2906 0 
L 2906 525 
Q 2725 213 2448 61 
Q 2172 -91 1784 -91 
Q 1150 -91 751 415 
Q 353 922 353 1747 
Q 353 2572 751 3078 
Q 1150 3584 1784 3584 
Q 2172 3584 2448 3432 
Q 2725 3281 2906 2969 
z
M 947 1747 
Q 947 1113 1208 752 
Q 1469 391 1925 391 
Q 2381 391 2643 752 
Q 2906 1113 2906 1747 
Q 2906 2381 2643 2742 
Q 2381 3103 1925 3103 
Q 1469 3103 1208 2742 
Q 947 2381 947 1747 
z
" transform="scale(0.015625)"/>
      </defs>
      <use xlink:href="#DejaVuSans-44"/>
      <use xlink:href="#DejaVuSans-61" transform="translate(77.001953 0)"/>
      <use xlink:href="#DejaVuSans-74" transform="translate(138.28125 0)"/>
      <use xlink:href="#DejaVuSans-61" transform="translate(177.490234 0)"/>
      <use xlink:href="#DejaVuSans-73" transform="translate(238.769531 0)"/>
      <use xlink:href="#DejaVuSans-65" transform="translate(290.869141 0)"/>
      <use xlink:href="#DejaVuSans-74" transform="translate(352.392578 0)"/>
      <use xlink:href="#DejaVuSans-20" transform="translate(391.601562 0)"/>
      <use xlink:href="#DejaVuSans-73" transform="translate(423.388672 0)"/>
      <use xlink:href="#DejaVuSans-68" transform="translate(475.488281 0)"/>
      <use xlink:href="#DejaVuSans-61" transform="translate(538.867188 0)"/>
      <use xlink:href="#DejaVuSans-70" transform="translate(600.146484 0)"/>
      <use xlink:href="#DejaVuSans-65" transform="translate(663.623047 0)"/>
      <use xlink:href="#DejaVuSans-20" transform="translate(725.146484 0)"/>
      <use xlink:href="#DejaVuSans-6d" transform="translate(756.933594 0)"/>
      <use xlink:href="#DejaVuSans-6f" transform="translate(854.345703 0)"/>
      <use xlink:href="#DejaVuSans-64" transform="translate(915.527344 0)"/>
      <use xlink:href="#DejaVuSans-65" transform="translate(979.003906 0)"/>
      <use xlink:href="#DejaVuSans-6c" transform="translate(1040.527344 0)"/>
     </g>
    </g>
    <g id="patch_31">
     <path d="M 134.48 93.017812 
L 170.48 93.017812 
L 170.48 80.417812 
L 134.48 80.417812 
z
" style="fill: #004d40; stroke: #000000; stroke-linejoin: miter"/>
    </g>
    <g id="text_22">
     <!-- Minimal model -->
     <g transform="translate(184.88 93.017812) scale(0.18 -0.18)">
      <defs>
       <path id="DejaVuSans-4d" d="M 628 4666 
L 1569 4666 
L 2759 1491 
L 3956 4666 
L 4897 4666 
L 4897 0 
L 4281 0 
L 4281 4097 
L 3078 897 
L 2444 897 
L 1241 4097 
L 1241 0 
L 628 0 
L 628 4666 
z
" transform="scale(0.015625)"/>
       <path id="DejaVuSans-6e" d="M 3513 2113 
L 3513 0 
L 2938 0 
L 2938 2094 
Q 2938 2591 2744 2837 
Q 2550 3084 2163 3084 
Q 1697 3084 1428 2787 
Q 1159 2491 1159 1978 
L 1159 0 
L 581 0 
L 581 3500 
L 1159 3500 
L 1159 2956 
Q 1366 3272 1645 3428 
Q 1925 3584 2291 3584 
Q 2894 3584 3203 3211 
Q 3513 2838 3513 2113 
z
" transform="scale(0.015625)"/>
      </defs>
      <use xlink:href="#DejaVuSans-4d"/>
      <use xlink:href="#DejaVuSans-69" transform="translate(86.279297 0)"/>
      <use xlink:href="#DejaVuSans-6e" transform="translate(114.0625 0)"/>
      <use xlink:href="#DejaVuSans-69" transform="translate(177.441406 0)"/>
      <use xlink:href="#DejaVuSans-6d" transform="translate(205.224609 0)"/>
      <use xlink:href="#DejaVuSans-61" transform="translate(302.636719 0)"/>
      <use xlink:href="#DejaVuSans-6c" transform="translate(363.916016 0)"/>
      <use xlink:href="#DejaVuSans-20" transform="translate(391.699219 0)"/>
      <use xlink:href="#DejaVuSans-6d" transform="translate(423.486328 0)"/>
      <use xlink:href="#DejaVuSans-6f" transform="translate(520.898438 0)"/>
      <use xlink:href="#DejaVuSans-64" transform="translate(582.080078 0)"/>
      <use xlink:href="#DejaVuSans-65" transform="translate(645.556641 0)"/>
      <use xlink:href="#DejaVuSans-6c" transform="translate(707.080078 0)"/>
     </g>
    </g>
   </g>
  </g>
 </g>
 <defs>
  <clipPath id="pe150aeff47">
   <rect x="118.28" y="36.72" width="574.72" height="596.32"/>
  </clipPath>
 </defs>
</svg>
