<?xml version="1.0" encoding="utf-8" standalone="no"?>
<!DOCTYPE svg PUBLIC "-//W3C//DTD SVG 1.1//EN"
  "http://www.w3.org/Graphics/SVG/1.1/DTD/svg11.dtd">
<svg xmlns:xlink="http://www.w3.org/1999/xlink" width="864pt" height="720pt" viewBox="0 0 864 720" xmlns="http://www.w3.org/2000/svg" version="1.1">
 <metadata>
  <rdf:RDF xmlns:dc="http://purl.org/dc/elements/1.1/" xmlns:cc="http://creativecommons.org/ns#" xmlns:rdf="http://www.w3.org/1999/02/22-rdf-syntax-ns#">
   <cc:Work>
    <dc:type rdf:resource="http://purl.org/dc/dcmitype/StillImage"/>
    <dc:date>2024-11-23T12:20:09.902143</dc:date>
    <dc:format>image/svg+xml</dc:format>
    <dc:creator>
     <cc:Agent>
      <dc:title>Matplotlib v3.9.0, https://matplotlib.org/</dc:title>
     </cc:Agent>
    </dc:creator>
   </cc:Work>
  </rdf:RDF>
 </metadata>
 <defs>
  <style type="text/css">*{stroke-linejoin: round; stroke-linecap: butt}</style>
 </defs>
 <g id="figure_1">
  <g id="patch_1">
   <path d="M 0 720 
L 864 720 
L 864 0 
L 0 0 
z
" style="fill: #ffffff"/>
  </g>
  <g id="axes_1">
   <g id="patch_2">
    <path d="M 104.215303 633.04 
L 837 633.04 
L 837 27 
L 104.215303 27 
z
" style="fill: #ffffff"/>
   </g>
   <g id="matplotlib.axis_1">
    <g id="xtick_1">
     <g id="line2d_1">
      <path d="M 149.210854 633.04 
L 149.210854 27 
" clip-path="url(#pd6824c4aba)" style="fill: none; stroke: #b0b0b0; stroke-width: 0.8; stroke-linecap: square"/>
     </g>
     <g id="line2d_2">
      <defs>
       <path id="m2de2572d53" d="M 0 0 
L 0 3.5 
" style="stroke: #000000; stroke-width: 0.8"/>
      </defs>
      <g>
       <use xlink:href="#m2de2572d53" x="149.210854" y="633.04" style="stroke: #000000; stroke-width: 0.8"/>
      </g>
     </g>
     <g id="text_1">
      <!-- D1 -->
      <g transform="translate(131.632729 659.036094) scale(0.25 -0.25)">
       <defs>
        <path id="DejaVuSans-44" d="M 1259 4147 
L 1259 519 
L 2022 519 
Q 2988 519 3436 956 
Q 3884 1394 3884 2338 
Q 3884 3275 3436 3711 
Q 2988 4147 2022 4147 
L 1259 4147 
z
M 628 4666 
L 1925 4666 
Q 3281 4666 3915 4102 
Q 4550 3538 4550 2338 
Q 4550 1131 3912 565 
Q 3275 0 1925 0 
L 628 0 
L 628 4666 
z
" transform="scale(0.015625)"/>
        <path id="DejaVuSans-31" d="M 794 531 
L 1825 531 
L 1825 4091 
L 703 3866 
L 703 4441 
L 1819 4666 
L 2450 4666 
L 2450 531 
L 3481 531 
L 3481 0 
L 794 0 
L 794 531 
z
" transform="scale(0.015625)"/>
       </defs>
       <use xlink:href="#DejaVuSans-44"/>
       <use xlink:href="#DejaVuSans-31" x="77.001953"/>
      </g>
     </g>
    </g>
    <g id="xtick_2">
     <g id="line2d_3">
      <path d="M 213.490214 633.04 
L 213.490214 27 
" clip-path="url(#pd6824c4aba)" style="fill: none; stroke: #b0b0b0; stroke-width: 0.8; stroke-linecap: square"/>
     </g>
     <g id="line2d_4">
      <g>
       <use xlink:href="#m2de2572d53" x="213.490214" y="633.04" style="stroke: #000000; stroke-width: 0.8"/>
      </g>
     </g>
     <g id="text_2">
      <!-- D2 -->
      <g transform="translate(195.912089 659.036094) scale(0.25 -0.25)">
       <defs>
        <path id="DejaVuSans-32" d="M 1228 531 
L 3431 531 
L 3431 0 
L 469 0 
L 469 531 
Q 828 903 1448 1529 
Q 2069 2156 2228 2338 
Q 2531 2678 2651 2914 
Q 2772 3150 2772 3378 
Q 2772 3750 2511 3984 
Q 2250 4219 1831 4219 
Q 1534 4219 1204 4116 
Q 875 4013 500 3803 
L 500 4441 
Q 881 4594 1212 4672 
Q 1544 4750 1819 4750 
Q 2544 4750 2975 4387 
Q 3406 4025 3406 3419 
Q 3406 3131 3298 2873 
Q 3191 2616 2906 2266 
Q 2828 2175 2409 1742 
Q 1991 1309 1228 531 
z
" transform="scale(0.015625)"/>
       </defs>
       <use xlink:href="#DejaVuSans-44"/>
       <use xlink:href="#DejaVuSans-32" x="77.001953"/>
      </g>
     </g>
    </g>
    <g id="xtick_3">
     <g id="line2d_5">
      <path d="M 277.769573 633.04 
L 277.769573 27 
" clip-path="url(#pd6824c4aba)" style="fill: none; stroke: #b0b0b0; stroke-width: 0.8; stroke-linecap: square"/>
     </g>
     <g id="line2d_6">
      <g>
       <use xlink:href="#m2de2572d53" x="277.769573" y="633.04" style="stroke: #000000; stroke-width: 0.8"/>
      </g>
     </g>
     <g id="text_3">
      <!-- D3 -->
      <g transform="translate(260.191448 659.036094) scale(0.25 -0.25)">
       <defs>
        <path id="DejaVuSans-33" d="M 2597 2516 
Q 3050 2419 3304 2112 
Q 3559 1806 3559 1356 
Q 3559 666 3084 287 
Q 2609 -91 1734 -91 
Q 1441 -91 1130 -33 
Q 819 25 488 141 
L 488 750 
Q 750 597 1062 519 
Q 1375 441 1716 441 
Q 2309 441 2620 675 
Q 2931 909 2931 1356 
Q 2931 1769 2642 2001 
Q 2353 2234 1838 2234 
L 1294 2234 
L 1294 2753 
L 1863 2753 
Q 2328 2753 2575 2939 
Q 2822 3125 2822 3475 
Q 2822 3834 2567 4026 
Q 2313 4219 1838 4219 
Q 1578 4219 1281 4162 
Q 984 4106 628 3988 
L 628 4550 
Q 988 4650 1302 4700 
Q 1616 4750 1894 4750 
Q 2613 4750 3031 4423 
Q 3450 4097 3450 3541 
Q 3450 3153 3228 2886 
Q 3006 2619 2597 2516 
z
" transform="scale(0.015625)"/>
       </defs>
       <use xlink:href="#DejaVuSans-44"/>
       <use xlink:href="#DejaVuSans-33" x="77.001953"/>
      </g>
     </g>
    </g>
    <g id="xtick_4">
     <g id="line2d_7">
      <path d="M 342.048933 633.04 
L 342.048933 27 
" clip-path="url(#pd6824c4aba)" style="fill: none; stroke: #b0b0b0; stroke-width: 0.8; stroke-linecap: square"/>
     </g>
     <g id="line2d_8">
      <g>
       <use xlink:href="#m2de2572d53" x="342.048933" y="633.04" style="stroke: #000000; stroke-width: 0.8"/>
      </g>
     </g>
     <g id="text_4">
      <!-- D4 -->
      <g transform="translate(324.470808 659.036094) scale(0.25 -0.25)">
       <defs>
        <path id="DejaVuSans-34" d="M 2419 4116 
L 825 1625 
L 2419 1625 
L 2419 4116 
z
M 2253 4666 
L 3047 4666 
L 3047 1625 
L 3713 1625 
L 3713 1100 
L 3047 1100 
L 3047 0 
L 2419 0 
L 2419 1100 
L 313 1100 
L 313 1709 
L 2253 4666 
z
" transform="scale(0.015625)"/>
       </defs>
       <use xlink:href="#DejaVuSans-44"/>
       <use xlink:href="#DejaVuSans-34" x="77.001953"/>
      </g>
     </g>
    </g>
    <g id="xtick_5">
     <g id="line2d_9">
      <path d="M 406.328292 633.04 
L 406.328292 27 
" clip-path="url(#pd6824c4aba)" style="fill: none; stroke: #b0b0b0; stroke-width: 0.8; stroke-linecap: square"/>
     </g>
     <g id="line2d_10">
      <g>
       <use xlink:href="#m2de2572d53" x="406.328292" y="633.04" style="stroke: #000000; stroke-width: 0.8"/>
      </g>
     </g>
     <g id="text_5">
      <!-- D5 -->
      <g transform="translate(388.750167 659.036094) scale(0.25 -0.25)">
       <defs>
        <path id="DejaVuSans-35" d="M 691 4666 
L 3169 4666 
L 3169 4134 
L 1269 4134 
L 1269 2991 
Q 1406 3038 1543 3061 
Q 1681 3084 1819 3084 
Q 2600 3084 3056 2656 
Q 3513 2228 3513 1497 
Q 3513 744 3044 326 
Q 2575 -91 1722 -91 
Q 1428 -91 1123 -41 
Q 819 9 494 109 
L 494 744 
Q 775 591 1075 516 
Q 1375 441 1709 441 
Q 2250 441 2565 725 
Q 2881 1009 2881 1497 
Q 2881 1984 2565 2268 
Q 2250 2553 1709 2553 
Q 1456 2553 1204 2497 
Q 953 2441 691 2322 
L 691 4666 
z
" transform="scale(0.015625)"/>
       </defs>
       <use xlink:href="#DejaVuSans-44"/>
       <use xlink:href="#DejaVuSans-35" x="77.001953"/>
      </g>
     </g>
    </g>
    <g id="xtick_6">
     <g id="line2d_11">
      <path d="M 470.607651 633.04 
L 470.607651 27 
" clip-path="url(#pd6824c4aba)" style="fill: none; stroke: #b0b0b0; stroke-width: 0.8; stroke-linecap: square"/>
     </g>
     <g id="line2d_12">
      <g>
       <use xlink:href="#m2de2572d53" x="470.607651" y="633.04" style="stroke: #000000; stroke-width: 0.8"/>
      </g>
     </g>
     <g id="text_6">
      <!-- D6 -->
      <g transform="translate(453.029526 659.036094) scale(0.25 -0.25)">
       <defs>
        <path id="DejaVuSans-36" d="M 2113 2584 
Q 1688 2584 1439 2293 
Q 1191 2003 1191 1497 
Q 1191 994 1439 701 
Q 1688 409 2113 409 
Q 2538 409 2786 701 
Q 3034 994 3034 1497 
Q 3034 2003 2786 2293 
Q 2538 2584 2113 2584 
z
M 3366 4563 
L 3366 3988 
Q 3128 4100 2886 4159 
Q 2644 4219 2406 4219 
Q 1781 4219 1451 3797 
Q 1122 3375 1075 2522 
Q 1259 2794 1537 2939 
Q 1816 3084 2150 3084 
Q 2853 3084 3261 2657 
Q 3669 2231 3669 1497 
Q 3669 778 3244 343 
Q 2819 -91 2113 -91 
Q 1303 -91 875 529 
Q 447 1150 447 2328 
Q 447 3434 972 4092 
Q 1497 4750 2381 4750 
Q 2619 4750 2861 4703 
Q 3103 4656 3366 4563 
z
" transform="scale(0.015625)"/>
       </defs>
       <use xlink:href="#DejaVuSans-44"/>
       <use xlink:href="#DejaVuSans-36" x="77.001953"/>
      </g>
     </g>
    </g>
    <g id="xtick_7">
     <g id="line2d_13">
      <path d="M 534.887011 633.04 
L 534.887011 27 
" clip-path="url(#pd6824c4aba)" style="fill: none; stroke: #b0b0b0; stroke-width: 0.8; stroke-linecap: square"/>
     </g>
     <g id="line2d_14">
      <g>
       <use xlink:href="#m2de2572d53" x="534.887011" y="633.04" style="stroke: #000000; stroke-width: 0.8"/>
      </g>
     </g>
     <g id="text_7">
      <!-- D7 -->
      <g transform="translate(517.308886 659.036094) scale(0.25 -0.25)">
       <defs>
        <path id="DejaVuSans-37" d="M 525 4666 
L 3525 4666 
L 3525 4397 
L 1831 0 
L 1172 0 
L 2766 4134 
L 525 4134 
L 525 4666 
z
" transform="scale(0.015625)"/>
       </defs>
       <use xlink:href="#DejaVuSans-44"/>
       <use xlink:href="#DejaVuSans-37" x="77.001953"/>
      </g>
     </g>
    </g>
    <g id="xtick_8">
     <g id="line2d_15">
      <path d="M 599.16637 633.04 
L 599.16637 27 
" clip-path="url(#pd6824c4aba)" style="fill: none; stroke: #b0b0b0; stroke-width: 0.8; stroke-linecap: square"/>
     </g>
     <g id="line2d_16">
      <g>
       <use xlink:href="#m2de2572d53" x="599.16637" y="633.04" style="stroke: #000000; stroke-width: 0.8"/>
      </g>
     </g>
     <g id="text_8">
      <!-- S1 -->
      <g transform="translate(583.277698 659.036094) scale(0.25 -0.25)">
       <defs>
        <path id="DejaVuSans-53" d="M 3425 4513 
L 3425 3897 
Q 3066 4069 2747 4153 
Q 2428 4238 2131 4238 
Q 1616 4238 1336 4038 
Q 1056 3838 1056 3469 
Q 1056 3159 1242 3001 
Q 1428 2844 1947 2747 
L 2328 2669 
Q 3034 2534 3370 2195 
Q 3706 1856 3706 1288 
Q 3706 609 3251 259 
Q 2797 -91 1919 -91 
Q 1588 -91 1214 -16 
Q 841 59 441 206 
L 441 856 
Q 825 641 1194 531 
Q 1563 422 1919 422 
Q 2459 422 2753 634 
Q 3047 847 3047 1241 
Q 3047 1584 2836 1778 
Q 2625 1972 2144 2069 
L 1759 2144 
Q 1053 2284 737 2584 
Q 422 2884 422 3419 
Q 422 4038 858 4394 
Q 1294 4750 2059 4750 
Q 2388 4750 2728 4690 
Q 3069 4631 3425 4513 
z
" transform="scale(0.015625)"/>
       </defs>
       <use xlink:href="#DejaVuSans-53"/>
       <use xlink:href="#DejaVuSans-31" x="63.476562"/>
      </g>
     </g>
    </g>
    <g id="xtick_9">
     <g id="line2d_17">
      <path d="M 663.44573 633.04 
L 663.44573 27 
" clip-path="url(#pd6824c4aba)" style="fill: none; stroke: #b0b0b0; stroke-width: 0.8; stroke-linecap: square"/>
     </g>
     <g id="line2d_18">
      <g>
       <use xlink:href="#m2de2572d53" x="663.44573" y="633.04" style="stroke: #000000; stroke-width: 0.8"/>
      </g>
     </g>
     <g id="text_9">
      <!-- S4 -->
      <g transform="translate(647.557058 659.036094) scale(0.25 -0.25)">
       <use xlink:href="#DejaVuSans-53"/>
       <use xlink:href="#DejaVuSans-34" x="63.476562"/>
      </g>
     </g>
    </g>
    <g id="xtick_10">
     <g id="line2d_19">
      <path d="M 727.725089 633.04 
L 727.725089 27 
" clip-path="url(#pd6824c4aba)" style="fill: none; stroke: #b0b0b0; stroke-width: 0.8; stroke-linecap: square"/>
     </g>
     <g id="line2d_20">
      <g>
       <use xlink:href="#m2de2572d53" x="727.725089" y="633.04" style="stroke: #000000; stroke-width: 0.8"/>
      </g>
     </g>
     <g id="text_10">
      <!-- S5 -->
      <g transform="translate(711.836417 659.036094) scale(0.25 -0.25)">
       <use xlink:href="#DejaVuSans-53"/>
       <use xlink:href="#DejaVuSans-35" x="63.476562"/>
      </g>
     </g>
    </g>
    <g id="xtick_11">
     <g id="line2d_21">
      <path d="M 792.004448 633.04 
L 792.004448 27 
" clip-path="url(#pd6824c4aba)" style="fill: none; stroke: #b0b0b0; stroke-width: 0.8; stroke-linecap: square"/>
     </g>
     <g id="line2d_22">
      <g>
       <use xlink:href="#m2de2572d53" x="792.004448" y="633.04" style="stroke: #000000; stroke-width: 0.8"/>
      </g>
     </g>
     <g id="text_11">
      <!-- S7 -->
      <g transform="translate(776.115777 659.036094) scale(0.25 -0.25)">
       <use xlink:href="#DejaVuSans-53"/>
       <use xlink:href="#DejaVuSans-37" x="63.476562"/>
      </g>
     </g>
    </g>
    <g id="text_12">
     <!-- query template -->
     <g transform="translate(374.121323 687.231406) scale(0.25 -0.25)">
      <defs>
       <path id="DejaVuSans-71" d="M 947 1747 
Q 947 1113 1208 752 
Q 1469 391 1925 391 
Q 2381 391 2643 752 
Q 2906 1113 2906 1747 
Q 2906 2381 2643 2742 
Q 2381 3103 1925 3103 
Q 1469 3103 1208 2742 
Q 947 2381 947 1747 
z
M 2906 525 
Q 2725 213 2448 61 
Q 2172 -91 1784 -91 
Q 1150 -91 751 415 
Q 353 922 353 1747 
Q 353 2572 751 3078 
Q 1150 3584 1784 3584 
Q 2172 3584 2448 3432 
Q 2725 3281 2906 2969 
L 2906 3500 
L 3481 3500 
L 3481 -1331 
L 2906 -1331 
L 2906 525 
z
" transform="scale(0.015625)"/>
       <path id="DejaVuSans-75" d="M 544 1381 
L 544 3500 
L 1119 3500 
L 1119 1403 
Q 1119 906 1312 657 
Q 1506 409 1894 409 
Q 2359 409 2629 706 
Q 2900 1003 2900 1516 
L 2900 3500 
L 3475 3500 
L 3475 0 
L 2900 0 
L 2900 538 
Q 2691 219 2414 64 
Q 2138 -91 1772 -91 
Q 1169 -91 856 284 
Q 544 659 544 1381 
z
M 1991 3584 
L 1991 3584 
z
" transform="scale(0.015625)"/>
       <path id="DejaVuSans-65" d="M 3597 1894 
L 3597 1613 
L 953 1613 
Q 991 1019 1311 708 
Q 1631 397 2203 397 
Q 2534 397 2845 478 
Q 3156 559 3463 722 
L 3463 178 
Q 3153 47 2828 -22 
Q 2503 -91 2169 -91 
Q 1331 -91 842 396 
Q 353 884 353 1716 
Q 353 2575 817 3079 
Q 1281 3584 2069 3584 
Q 2775 3584 3186 3129 
Q 3597 2675 3597 1894 
z
M 3022 2063 
Q 3016 2534 2758 2815 
Q 2500 3097 2075 3097 
Q 1594 3097 1305 2825 
Q 1016 2553 972 2059 
L 3022 2063 
z
" transform="scale(0.015625)"/>
       <path id="DejaVuSans-72" d="M 2631 2963 
Q 2534 3019 2420 3045 
Q 2306 3072 2169 3072 
Q 1681 3072 1420 2755 
Q 1159 2438 1159 1844 
L 1159 0 
L 581 0 
L 581 3500 
L 1159 3500 
L 1159 2956 
Q 1341 3275 1631 3429 
Q 1922 3584 2338 3584 
Q 2397 3584 2469 3576 
Q 2541 3569 2628 3553 
L 2631 2963 
z
" transform="scale(0.015625)"/>
       <path id="DejaVuSans-79" d="M 2059 -325 
Q 1816 -950 1584 -1140 
Q 1353 -1331 966 -1331 
L 506 -1331 
L 506 -850 
L 844 -850 
Q 1081 -850 1212 -737 
Q 1344 -625 1503 -206 
L 1606 56 
L 191 3500 
L 800 3500 
L 1894 763 
L 2988 3500 
L 3597 3500 
L 2059 -325 
z
" transform="scale(0.015625)"/>
       <path id="DejaVuSans-20" transform="scale(0.015625)"/>
       <path id="DejaVuSans-74" d="M 1172 4494 
L 1172 3500 
L 2356 3500 
L 2356 3053 
L 1172 3053 
L 1172 1153 
Q 1172 725 1289 603 
Q 1406 481 1766 481 
L 2356 481 
L 2356 0 
L 1766 0 
Q 1100 0 847 248 
Q 594 497 594 1153 
L 594 3053 
L 172 3053 
L 172 3500 
L 594 3500 
L 594 4494 
L 1172 4494 
z
" transform="scale(0.015625)"/>
       <path id="DejaVuSans-6d" d="M 3328 2828 
Q 3544 3216 3844 3400 
Q 4144 3584 4550 3584 
Q 5097 3584 5394 3201 
Q 5691 2819 5691 2113 
L 5691 0 
L 5113 0 
L 5113 2094 
Q 5113 2597 4934 2840 
Q 4756 3084 4391 3084 
Q 3944 3084 3684 2787 
Q 3425 2491 3425 1978 
L 3425 0 
L 2847 0 
L 2847 2094 
Q 2847 2600 2669 2842 
Q 2491 3084 2119 3084 
Q 1678 3084 1418 2786 
Q 1159 2488 1159 1978 
L 1159 0 
L 581 0 
L 581 3500 
L 1159 3500 
L 1159 2956 
Q 1356 3278 1631 3431 
Q 1906 3584 2284 3584 
Q 2666 3584 2933 3390 
Q 3200 3197 3328 2828 
z
" transform="scale(0.015625)"/>
       <path id="DejaVuSans-70" d="M 1159 525 
L 1159 -1331 
L 581 -1331 
L 581 3500 
L 1159 3500 
L 1159 2969 
Q 1341 3281 1617 3432 
Q 1894 3584 2278 3584 
Q 2916 3584 3314 3078 
Q 3713 2572 3713 1747 
Q 3713 922 3314 415 
Q 2916 -91 2278 -91 
Q 1894 -91 1617 61 
Q 1341 213 1159 525 
z
M 3116 1747 
Q 3116 2381 2855 2742 
Q 2594 3103 2138 3103 
Q 1681 3103 1420 2742 
Q 1159 2381 1159 1747 
Q 1159 1113 1420 752 
Q 1681 391 2138 391 
Q 2594 391 2855 752 
Q 3116 1113 3116 1747 
z
" transform="scale(0.015625)"/>
       <path id="DejaVuSans-6c" d="M 603 4863 
L 1178 4863 
L 1178 0 
L 603 0 
L 603 4863 
z
" transform="scale(0.015625)"/>
       <path id="DejaVuSans-61" d="M 2194 1759 
Q 1497 1759 1228 1600 
Q 959 1441 959 1056 
Q 959 750 1161 570 
Q 1363 391 1709 391 
Q 2188 391 2477 730 
Q 2766 1069 2766 1631 
L 2766 1759 
L 2194 1759 
z
M 3341 1997 
L 3341 0 
L 2766 0 
L 2766 531 
Q 2569 213 2275 61 
Q 1981 -91 1556 -91 
Q 1019 -91 701 211 
Q 384 513 384 1019 
Q 384 1609 779 1909 
Q 1175 2209 1959 2209 
L 2766 2209 
L 2766 2266 
Q 2766 2663 2505 2880 
Q 2244 3097 1772 3097 
Q 1472 3097 1187 3025 
Q 903 2953 641 2809 
L 641 3341 
Q 956 3463 1253 3523 
Q 1550 3584 1831 3584 
Q 2591 3584 2966 3190 
Q 3341 2797 3341 1997 
z
" transform="scale(0.015625)"/>
      </defs>
      <use xlink:href="#DejaVuSans-71"/>
      <use xlink:href="#DejaVuSans-75" x="63.476562"/>
      <use xlink:href="#DejaVuSans-65" x="126.855469"/>
      <use xlink:href="#DejaVuSans-72" x="188.378906"/>
      <use xlink:href="#DejaVuSans-79" x="229.492188"/>
      <use xlink:href="#DejaVuSans-20" x="288.671875"/>
      <use xlink:href="#DejaVuSans-74" x="320.458984"/>
      <use xlink:href="#DejaVuSans-65" x="359.667969"/>
      <use xlink:href="#DejaVuSans-6d" x="421.191406"/>
      <use xlink:href="#DejaVuSans-70" x="518.603516"/>
      <use xlink:href="#DejaVuSans-6c" x="582.080078"/>
      <use xlink:href="#DejaVuSans-61" x="609.863281"/>
      <use xlink:href="#DejaVuSans-74" x="671.142578"/>
      <use xlink:href="#DejaVuSans-65" x="710.351562"/>
     </g>
    </g>
   </g>
   <g id="matplotlib.axis_2">
    <g id="ytick_1">
     <g id="line2d_23">
      <path d="M 104.215303 633.04 
L 837 633.04 
" clip-path="url(#pd6824c4aba)" style="fill: none; stroke: #b0b0b0; stroke-width: 0.8; stroke-linecap: square"/>
     </g>
     <g id="line2d_24">
      <defs>
       <path id="m9da1968278" d="M 0 0 
L -3.5 0 
" style="stroke: #000000; stroke-width: 0.8"/>
      </defs>
      <g>
       <use xlink:href="#m9da1968278" x="104.215303" y="633.04" style="stroke: #000000; stroke-width: 0.8"/>
      </g>
     </g>
     <g id="text_13">
      <!-- $\mathdefault{2^{-2}}$ -->
      <g transform="translate(54.465303 642.538047) scale(0.25 -0.25)">
       <defs>
        <path id="DejaVuSans-2212" d="M 678 2272 
L 4684 2272 
L 4684 1741 
L 678 1741 
L 678 2272 
z
" transform="scale(0.015625)"/>
       </defs>
       <use xlink:href="#DejaVuSans-32" transform="translate(0 0.765625)"/>
       <use xlink:href="#DejaVuSans-2212" transform="translate(64.580078 39.046875) scale(0.7)"/>
       <use xlink:href="#DejaVuSans-32" transform="translate(123.232422 39.046875) scale(0.7)"/>
      </g>
     </g>
    </g>
    <g id="ytick_2">
     <g id="line2d_25">
      <path d="M 104.215303 517.558222 
L 837 517.558222 
" clip-path="url(#pd6824c4aba)" style="fill: none; stroke: #b0b0b0; stroke-width: 0.8; stroke-linecap: square"/>
     </g>
     <g id="line2d_26">
      <g>
       <use xlink:href="#m9da1968278" x="104.215303" y="517.558222" style="stroke: #000000; stroke-width: 0.8"/>
      </g>
     </g>
     <g id="text_14">
      <!-- $\mathdefault{2^{-1}}$ -->
      <g transform="translate(54.465303 527.056269) scale(0.25 -0.25)">
       <use xlink:href="#DejaVuSans-32" transform="translate(0 0.684375)"/>
       <use xlink:href="#DejaVuSans-2212" transform="translate(64.580078 38.965625) scale(0.7)"/>
       <use xlink:href="#DejaVuSans-31" transform="translate(123.232422 38.965625) scale(0.7)"/>
      </g>
     </g>
    </g>
    <g id="ytick_3">
     <g id="line2d_27">
      <path d="M 104.215303 402.076444 
L 837 402.076444 
" clip-path="url(#pd6824c4aba)" style="fill: none; stroke: #b0b0b0; stroke-width: 0.8; stroke-linecap: square"/>
     </g>
     <g id="line2d_28">
      <g>
       <use xlink:href="#m9da1968278" x="104.215303" y="402.076444" style="stroke: #000000; stroke-width: 0.8"/>
      </g>
     </g>
     <g id="text_15">
      <!-- $\mathdefault{2^{0}}$ -->
      <g transform="translate(69.215303 411.574491) scale(0.25 -0.25)">
       <defs>
        <path id="DejaVuSans-30" d="M 2034 4250 
Q 1547 4250 1301 3770 
Q 1056 3291 1056 2328 
Q 1056 1369 1301 889 
Q 1547 409 2034 409 
Q 2525 409 2770 889 
Q 3016 1369 3016 2328 
Q 3016 3291 2770 3770 
Q 2525 4250 2034 4250 
z
M 2034 4750 
Q 2819 4750 3233 4129 
Q 3647 3509 3647 2328 
Q 3647 1150 3233 529 
Q 2819 -91 2034 -91 
Q 1250 -91 836 529 
Q 422 1150 422 2328 
Q 422 3509 836 4129 
Q 1250 4750 2034 4750 
z
" transform="scale(0.015625)"/>
       </defs>
       <use xlink:href="#DejaVuSans-32" transform="translate(0 0.765625)"/>
       <use xlink:href="#DejaVuSans-30" transform="translate(64.580078 39.046875) scale(0.7)"/>
      </g>
     </g>
    </g>
    <g id="ytick_4">
     <g id="line2d_29">
      <path d="M 104.215303 286.594666 
L 837 286.594666 
" clip-path="url(#pd6824c4aba)" style="fill: none; stroke: #b0b0b0; stroke-width: 0.8; stroke-linecap: square"/>
     </g>
     <g id="line2d_30">
      <g>
       <use xlink:href="#m9da1968278" x="104.215303" y="286.594666" style="stroke: #000000; stroke-width: 0.8"/>
      </g>
     </g>
     <g id="text_16">
      <!-- $\mathdefault{2^{1}}$ -->
      <g transform="translate(69.215303 296.092713) scale(0.25 -0.25)">
       <use xlink:href="#DejaVuSans-32" transform="translate(0 0.684375)"/>
       <use xlink:href="#DejaVuSans-31" transform="translate(64.580078 38.965625) scale(0.7)"/>
      </g>
     </g>
    </g>
    <g id="ytick_5">
     <g id="line2d_31">
      <path d="M 104.215303 171.112888 
L 837 171.112888 
" clip-path="url(#pd6824c4aba)" style="fill: none; stroke: #b0b0b0; stroke-width: 0.8; stroke-linecap: square"/>
     </g>
     <g id="line2d_32">
      <g>
       <use xlink:href="#m9da1968278" x="104.215303" y="171.112888" style="stroke: #000000; stroke-width: 0.8"/>
      </g>
     </g>
     <g id="text_17">
      <!-- $\mathdefault{2^{2}}$ -->
      <g transform="translate(69.215303 180.610935) scale(0.25 -0.25)">
       <use xlink:href="#DejaVuSans-32" transform="translate(0 0.765625)"/>
       <use xlink:href="#DejaVuSans-32" transform="translate(64.580078 39.046875) scale(0.7)"/>
      </g>
     </g>
    </g>
    <g id="ytick_6">
     <g id="line2d_33">
      <path d="M 104.215303 55.63111 
L 837 55.63111 
" clip-path="url(#pd6824c4aba)" style="fill: none; stroke: #b0b0b0; stroke-width: 0.8; stroke-linecap: square"/>
     </g>
     <g id="line2d_34">
      <g>
       <use xlink:href="#m9da1968278" x="104.215303" y="55.63111" style="stroke: #000000; stroke-width: 0.8"/>
      </g>
     </g>
     <g id="text_18">
      <!-- $\mathdefault{2^{3}}$ -->
      <g transform="translate(69.215303 65.129157) scale(0.25 -0.25)">
       <use xlink:href="#DejaVuSans-32" transform="translate(0 0.765625)"/>
       <use xlink:href="#DejaVuSans-33" transform="translate(64.580078 39.046875) scale(0.7)"/>
      </g>
     </g>
    </g>
    <g id="text_19">
     <!-- ratio execution time -->
     <g transform="translate(45.266084 455.936016) rotate(-90) scale(0.25 -0.25)">
      <defs>
       <path id="DejaVuSans-69" d="M 603 3500 
L 1178 3500 
L 1178 0 
L 603 0 
L 603 3500 
z
M 603 4863 
L 1178 4863 
L 1178 4134 
L 603 4134 
L 603 4863 
z
" transform="scale(0.015625)"/>
       <path id="DejaVuSans-6f" d="M 1959 3097 
Q 1497 3097 1228 2736 
Q 959 2375 959 1747 
Q 959 1119 1226 758 
Q 1494 397 1959 397 
Q 2419 397 2687 759 
Q 2956 1122 2956 1747 
Q 2956 2369 2687 2733 
Q 2419 3097 1959 3097 
z
M 1959 3584 
Q 2709 3584 3137 3096 
Q 3566 2609 3566 1747 
Q 3566 888 3137 398 
Q 2709 -91 1959 -91 
Q 1206 -91 779 398 
Q 353 888 353 1747 
Q 353 2609 779 3096 
Q 1206 3584 1959 3584 
z
" transform="scale(0.015625)"/>
       <path id="DejaVuSans-78" d="M 3513 3500 
L 2247 1797 
L 3578 0 
L 2900 0 
L 1881 1375 
L 863 0 
L 184 0 
L 1544 1831 
L 300 3500 
L 978 3500 
L 1906 2253 
L 2834 3500 
L 3513 3500 
z
" transform="scale(0.015625)"/>
       <path id="DejaVuSans-63" d="M 3122 3366 
L 3122 2828 
Q 2878 2963 2633 3030 
Q 2388 3097 2138 3097 
Q 1578 3097 1268 2742 
Q 959 2388 959 1747 
Q 959 1106 1268 751 
Q 1578 397 2138 397 
Q 2388 397 2633 464 
Q 2878 531 3122 666 
L 3122 134 
Q 2881 22 2623 -34 
Q 2366 -91 2075 -91 
Q 1284 -91 818 406 
Q 353 903 353 1747 
Q 353 2603 823 3093 
Q 1294 3584 2113 3584 
Q 2378 3584 2631 3529 
Q 2884 3475 3122 3366 
z
" transform="scale(0.015625)"/>
       <path id="DejaVuSans-6e" d="M 3513 2113 
L 3513 0 
L 2938 0 
L 2938 2094 
Q 2938 2591 2744 2837 
Q 2550 3084 2163 3084 
Q 1697 3084 1428 2787 
Q 1159 2491 1159 1978 
L 1159 0 
L 581 0 
L 581 3500 
L 1159 3500 
L 1159 2956 
Q 1366 3272 1645 3428 
Q 1925 3584 2291 3584 
Q 2894 3584 3203 3211 
Q 3513 2838 3513 2113 
z
" transform="scale(0.015625)"/>
      </defs>
      <use xlink:href="#DejaVuSans-72"/>
      <use xlink:href="#DejaVuSans-61" x="41.113281"/>
      <use xlink:href="#DejaVuSans-74" x="102.392578"/>
      <use xlink:href="#DejaVuSans-69" x="141.601562"/>
      <use xlink:href="#DejaVuSans-6f" x="169.384766"/>
      <use xlink:href="#DejaVuSans-20" x="230.566406"/>
      <use xlink:href="#DejaVuSans-65" x="262.353516"/>
      <use xlink:href="#DejaVuSans-78" x="322.126953"/>
      <use xlink:href="#DejaVuSans-65" x="378.181641"/>
      <use xlink:href="#DejaVuSans-63" x="439.705078"/>
      <use xlink:href="#DejaVuSans-75" x="494.685547"/>
      <use xlink:href="#DejaVuSans-74" x="558.064453"/>
      <use xlink:href="#DejaVuSans-69" x="597.273438"/>
      <use xlink:href="#DejaVuSans-6f" x="625.056641"/>
      <use xlink:href="#DejaVuSans-6e" x="686.238281"/>
      <use xlink:href="#DejaVuSans-20" x="749.617188"/>
      <use xlink:href="#DejaVuSans-74" x="781.404297"/>
      <use xlink:href="#DejaVuSans-69" x="820.613281"/>
      <use xlink:href="#DejaVuSans-6d" x="848.396484"/>
      <use xlink:href="#DejaVuSans-65" x="945.808594"/>
     </g>
    </g>
   </g>
   <g id="patch_3">
    <path d="M 123.499111 420.588489 
L 149.210854 420.588489 
L 149.210854 402.399634 
L 123.499111 402.399634 
L 123.499111 420.588489 
z
" clip-path="url(#pd6824c4aba)" style="fill: #d41159; stroke: #000000; stroke-linejoin: miter"/>
   </g>
   <g id="line2d_35">
    <path d="M 136.354982 420.588489 
L 136.354982 424.985986 
" clip-path="url(#pd6824c4aba)" style="fill: none; stroke: #000000; stroke-linecap: square"/>
   </g>
   <g id="line2d_36">
    <path d="M 136.354982 402.399634 
L 136.354982 401.741286 
" clip-path="url(#pd6824c4aba)" style="fill: none; stroke: #000000; stroke-linecap: square"/>
   </g>
   <g id="line2d_37">
    <path d="M 129.927046 424.985986 
L 142.782918 424.985986 
" clip-path="url(#pd6824c4aba)" style="fill: none; stroke: #000000; stroke-linecap: square"/>
   </g>
   <g id="line2d_38">
    <path d="M 129.927046 401.741286 
L 142.782918 401.741286 
" clip-path="url(#pd6824c4aba)" style="fill: none; stroke: #000000; stroke-linecap: square"/>
   </g>
   <g id="line2d_39"/>
   <g id="patch_4">
    <path d="M 187.77847 408.532174 
L 213.490214 408.532174 
L 213.490214 394.549329 
L 187.77847 394.549329 
L 187.77847 408.532174 
z
" clip-path="url(#pd6824c4aba)" style="fill: #d41159; stroke: #000000; stroke-linejoin: miter"/>
   </g>
   <g id="line2d_40">
    <path d="M 200.634342 408.532174 
L 200.634342 411.722185 
" clip-path="url(#pd6824c4aba)" style="fill: none; stroke: #000000; stroke-linecap: square"/>
   </g>
   <g id="line2d_41">
    <path d="M 200.634342 394.549329 
L 200.634342 391.444841 
" clip-path="url(#pd6824c4aba)" style="fill: none; stroke: #000000; stroke-linecap: square"/>
   </g>
   <g id="line2d_42">
    <path d="M 194.206406 411.722185 
L 207.062278 411.722185 
" clip-path="url(#pd6824c4aba)" style="fill: none; stroke: #000000; stroke-linecap: square"/>
   </g>
   <g id="line2d_43">
    <path d="M 194.206406 391.444841 
L 207.062278 391.444841 
" clip-path="url(#pd6824c4aba)" style="fill: none; stroke: #000000; stroke-linecap: square"/>
   </g>
   <g id="line2d_44"/>
   <g id="patch_5">
    <path d="M 252.057829 424.235613 
L 277.769573 424.235613 
L 277.769573 381.936541 
L 252.057829 381.936541 
L 252.057829 424.235613 
z
" clip-path="url(#pd6824c4aba)" style="fill: #d41159; stroke: #000000; stroke-linejoin: miter"/>
   </g>
   <g id="line2d_45">
    <path d="M 264.913701 424.235613 
L 264.913701 436.681324 
" clip-path="url(#pd6824c4aba)" style="fill: none; stroke: #000000; stroke-linecap: square"/>
   </g>
   <g id="line2d_46">
    <path d="M 264.913701 381.936541 
L 264.913701 381.902749 
" clip-path="url(#pd6824c4aba)" style="fill: none; stroke: #000000; stroke-linecap: square"/>
   </g>
   <g id="line2d_47">
    <path d="M 258.485765 436.681324 
L 271.341637 436.681324 
" clip-path="url(#pd6824c4aba)" style="fill: none; stroke: #000000; stroke-linecap: square"/>
   </g>
   <g id="line2d_48">
    <path d="M 258.485765 381.902749 
L 271.341637 381.902749 
" clip-path="url(#pd6824c4aba)" style="fill: none; stroke: #000000; stroke-linecap: square"/>
   </g>
   <g id="line2d_49"/>
   <g id="patch_6">
    <path d="M 316.337189 411.696145 
L 342.048933 411.696145 
L 342.048933 395.485404 
L 316.337189 395.485404 
L 316.337189 411.696145 
z
" clip-path="url(#pd6824c4aba)" style="fill: #d41159; stroke: #000000; stroke-linejoin: miter"/>
   </g>
   <g id="line2d_50">
    <path d="M 329.193061 411.696145 
L 329.193061 412.526669 
" clip-path="url(#pd6824c4aba)" style="fill: none; stroke: #000000; stroke-linecap: square"/>
   </g>
   <g id="line2d_51">
    <path d="M 329.193061 395.485404 
L 329.193061 390.816296 
" clip-path="url(#pd6824c4aba)" style="fill: none; stroke: #000000; stroke-linecap: square"/>
   </g>
   <g id="line2d_52">
    <path d="M 322.765125 412.526669 
L 335.620997 412.526669 
" clip-path="url(#pd6824c4aba)" style="fill: none; stroke: #000000; stroke-linecap: square"/>
   </g>
   <g id="line2d_53">
    <path d="M 322.765125 390.816296 
L 335.620997 390.816296 
" clip-path="url(#pd6824c4aba)" style="fill: none; stroke: #000000; stroke-linecap: square"/>
   </g>
   <g id="line2d_54"/>
   <g id="patch_7">
    <path d="M 380.616548 414.988065 
L 406.328292 414.988065 
L 406.328292 385.586075 
L 380.616548 385.586075 
L 380.616548 414.988065 
z
" clip-path="url(#pd6824c4aba)" style="fill: #d41159; stroke: #000000; stroke-linejoin: miter"/>
   </g>
   <g id="line2d_55">
    <path d="M 393.47242 414.988065 
L 393.47242 419.380329 
" clip-path="url(#pd6824c4aba)" style="fill: none; stroke: #000000; stroke-linecap: square"/>
   </g>
   <g id="line2d_56">
    <path d="M 393.47242 385.586075 
L 393.47242 384.768986 
" clip-path="url(#pd6824c4aba)" style="fill: none; stroke: #000000; stroke-linecap: square"/>
   </g>
   <g id="line2d_57">
    <path d="M 387.044484 419.380329 
L 399.900356 419.380329 
" clip-path="url(#pd6824c4aba)" style="fill: none; stroke: #000000; stroke-linecap: square"/>
   </g>
   <g id="line2d_58">
    <path d="M 387.044484 384.768986 
L 399.900356 384.768986 
" clip-path="url(#pd6824c4aba)" style="fill: none; stroke: #000000; stroke-linecap: square"/>
   </g>
   <g id="line2d_59"/>
   <g id="patch_8">
    <path d="M 444.895908 411.480998 
L 470.607651 411.480998 
L 470.607651 402.076444 
L 444.895908 402.076444 
L 444.895908 411.480998 
z
" clip-path="url(#pd6824c4aba)" style="fill: #d41159; stroke: #000000; stroke-linejoin: miter"/>
   </g>
   <g id="line2d_60">
    <path d="M 457.751779 411.480998 
L 457.751779 411.484917 
" clip-path="url(#pd6824c4aba)" style="fill: none; stroke: #000000; stroke-linecap: square"/>
   </g>
   <g id="line2d_61">
    <path d="M 457.751779 402.076444 
L 457.751779 398.60554 
" clip-path="url(#pd6824c4aba)" style="fill: none; stroke: #000000; stroke-linecap: square"/>
   </g>
   <g id="line2d_62">
    <path d="M 451.323844 411.484917 
L 464.179715 411.484917 
" clip-path="url(#pd6824c4aba)" style="fill: none; stroke: #000000; stroke-linecap: square"/>
   </g>
   <g id="line2d_63">
    <path d="M 451.323844 398.60554 
L 464.179715 398.60554 
" clip-path="url(#pd6824c4aba)" style="fill: none; stroke: #000000; stroke-linecap: square"/>
   </g>
   <g id="line2d_64"/>
   <g id="patch_9">
    <path d="M 509.175267 411.216726 
L 534.887011 411.216726 
L 534.887011 402.076444 
L 509.175267 402.076444 
L 509.175267 411.216726 
z
" clip-path="url(#pd6824c4aba)" style="fill: #d41159; stroke: #000000; stroke-linejoin: miter"/>
   </g>
   <g id="line2d_65">
    <path d="M 522.031139 411.216726 
L 522.031139 412.848769 
" clip-path="url(#pd6824c4aba)" style="fill: none; stroke: #000000; stroke-linecap: square"/>
   </g>
   <g id="line2d_66">
    <path d="M 522.031139 402.076444 
L 522.031139 397.623534 
" clip-path="url(#pd6824c4aba)" style="fill: none; stroke: #000000; stroke-linecap: square"/>
   </g>
   <g id="line2d_67">
    <path d="M 515.603203 412.848769 
L 528.459075 412.848769 
" clip-path="url(#pd6824c4aba)" style="fill: none; stroke: #000000; stroke-linecap: square"/>
   </g>
   <g id="line2d_68">
    <path d="M 515.603203 397.623534 
L 528.459075 397.623534 
" clip-path="url(#pd6824c4aba)" style="fill: none; stroke: #000000; stroke-linecap: square"/>
   </g>
   <g id="line2d_69"/>
   <g id="patch_10">
    <path d="M 573.454626 353.872986 
L 599.16637 353.872986 
L 599.16637 100.042736 
L 573.454626 100.042736 
L 573.454626 353.872986 
z
" clip-path="url(#pd6824c4aba)" style="fill: #d41159; stroke: #000000; stroke-linejoin: miter"/>
   </g>
   <g id="line2d_70">
    <path d="M 586.310498 353.872986 
L 586.310498 362.873099 
" clip-path="url(#pd6824c4aba)" style="fill: none; stroke: #000000; stroke-linecap: square"/>
   </g>
   <g id="line2d_71">
    <path d="M 586.310498 100.042736 
L 586.310498 29.646185 
" clip-path="url(#pd6824c4aba)" style="fill: none; stroke: #000000; stroke-linecap: square"/>
   </g>
   <g id="line2d_72">
    <path d="M 579.882562 362.873099 
L 592.738434 362.873099 
" clip-path="url(#pd6824c4aba)" style="fill: none; stroke: #000000; stroke-linecap: square"/>
   </g>
   <g id="line2d_73">
    <path d="M 579.882562 29.646185 
L 592.738434 29.646185 
" clip-path="url(#pd6824c4aba)" style="fill: none; stroke: #000000; stroke-linecap: square"/>
   </g>
   <g id="line2d_74"/>
   <g id="patch_11">
    <path d="M 637.733986 427.928651 
L 663.44573 427.928651 
L 663.44573 411.291336 
L 637.733986 411.291336 
L 637.733986 427.928651 
z
" clip-path="url(#pd6824c4aba)" style="fill: #d41159; stroke: #000000; stroke-linejoin: miter"/>
   </g>
   <g id="line2d_75">
    <path d="M 650.589858 427.928651 
L 650.589858 428.445596 
" clip-path="url(#pd6824c4aba)" style="fill: none; stroke: #000000; stroke-linecap: square"/>
   </g>
   <g id="line2d_76">
    <path d="M 650.589858 411.291336 
L 650.589858 410.033916 
" clip-path="url(#pd6824c4aba)" style="fill: none; stroke: #000000; stroke-linecap: square"/>
   </g>
   <g id="line2d_77">
    <path d="M 644.161922 428.445596 
L 657.017794 428.445596 
" clip-path="url(#pd6824c4aba)" style="fill: none; stroke: #000000; stroke-linecap: square"/>
   </g>
   <g id="line2d_78">
    <path d="M 644.161922 410.033916 
L 657.017794 410.033916 
" clip-path="url(#pd6824c4aba)" style="fill: none; stroke: #000000; stroke-linecap: square"/>
   </g>
   <g id="line2d_79"/>
   <g id="patch_12">
    <path d="M 702.013345 413.948325 
L 727.725089 413.948325 
L 727.725089 408.200926 
L 702.013345 408.200926 
L 702.013345 413.948325 
z
" clip-path="url(#pd6824c4aba)" style="fill: #d41159; stroke: #000000; stroke-linejoin: miter"/>
   </g>
   <g id="line2d_80">
    <path d="M 714.869217 413.948325 
L 714.869217 421.756534 
" clip-path="url(#pd6824c4aba)" style="fill: none; stroke: #000000; stroke-linecap: square"/>
   </g>
   <g id="line2d_81">
    <path d="M 714.869217 408.200926 
L 714.869217 408.200926 
" clip-path="url(#pd6824c4aba)" style="fill: none; stroke: #000000; stroke-linecap: square"/>
   </g>
   <g id="line2d_82">
    <path d="M 708.441281 421.756534 
L 721.297153 421.756534 
" clip-path="url(#pd6824c4aba)" style="fill: none; stroke: #000000; stroke-linecap: square"/>
   </g>
   <g id="line2d_83">
    <path d="M 708.441281 408.200926 
L 721.297153 408.200926 
" clip-path="url(#pd6824c4aba)" style="fill: none; stroke: #000000; stroke-linecap: square"/>
   </g>
   <g id="line2d_84">
    <defs>
     <path id="m09636af2fb" d="M 0 3 
C 0.795609 3 1.55874 2.683901 2.12132 2.12132 
C 2.683901 1.55874 3 0.795609 3 0 
C 3 -0.795609 2.683901 -1.55874 2.12132 -2.12132 
C 1.55874 -2.683901 0.795609 -3 0 -3 
C -0.795609 -3 -1.55874 -2.683901 -2.12132 -2.12132 
C -2.683901 -1.55874 -3 -0.795609 -3 0 
C -3 0.795609 -2.683901 1.55874 -2.12132 2.12132 
C -1.55874 2.683901 -0.795609 3 0 3 
z
" style="stroke: #000000"/>
    </defs>
    <g clip-path="url(#pd6824c4aba)">
     <use xlink:href="#m09636af2fb" x="714.869217" y="398.95692" style="fill-opacity: 0; stroke: #000000"/>
    </g>
   </g>
   <g id="patch_13">
    <path d="M 766.292705 402.076444 
L 792.004448 402.076444 
L 792.004448 402.076444 
L 766.292705 402.076444 
L 766.292705 402.076444 
z
" clip-path="url(#pd6824c4aba)" style="fill: #d41159; stroke: #000000; stroke-linejoin: miter"/>
   </g>
   <g id="line2d_85">
    <path d="M 779.148577 402.076444 
L 779.148577 402.076444 
" clip-path="url(#pd6824c4aba)" style="fill: none; stroke: #000000; stroke-linecap: square"/>
   </g>
   <g id="line2d_86">
    <path d="M 779.148577 402.076444 
L 779.148577 402.076444 
" clip-path="url(#pd6824c4aba)" style="fill: none; stroke: #000000; stroke-linecap: square"/>
   </g>
   <g id="line2d_87">
    <path d="M 772.720641 402.076444 
L 785.576512 402.076444 
" clip-path="url(#pd6824c4aba)" style="fill: none; stroke: #000000; stroke-linecap: square"/>
   </g>
   <g id="line2d_88">
    <path d="M 772.720641 402.076444 
L 785.576512 402.076444 
" clip-path="url(#pd6824c4aba)" style="fill: none; stroke: #000000; stroke-linecap: square"/>
   </g>
   <g id="line2d_89">
    <g clip-path="url(#pd6824c4aba)">
     <use xlink:href="#m09636af2fb" x="779.148577" y="426.27839" style="fill-opacity: 0; stroke: #000000"/>
    </g>
   </g>
   <g id="patch_14">
    <path d="M 149.210854 449.440867 
L 174.922598 449.440867 
L 174.922598 404.102566 
L 149.210854 404.102566 
L 149.210854 449.440867 
z
" clip-path="url(#pd6824c4aba)" style="fill: #004d40; stroke: #000000; stroke-linejoin: miter"/>
   </g>
   <g id="line2d_90">
    <path d="M 162.066726 449.440867 
L 162.066726 462.240073 
" clip-path="url(#pd6824c4aba)" style="fill: none; stroke: #000000; stroke-linecap: square"/>
   </g>
   <g id="line2d_91">
    <path d="M 162.066726 404.102566 
L 162.066726 401.299025 
" clip-path="url(#pd6824c4aba)" style="fill: none; stroke: #000000; stroke-linecap: square"/>
   </g>
   <g id="line2d_92">
    <path d="M 155.63879 462.240073 
L 168.494662 462.240073 
" clip-path="url(#pd6824c4aba)" style="fill: none; stroke: #000000; stroke-linecap: square"/>
   </g>
   <g id="line2d_93">
    <path d="M 155.63879 401.299025 
L 168.494662 401.299025 
" clip-path="url(#pd6824c4aba)" style="fill: none; stroke: #000000; stroke-linecap: square"/>
   </g>
   <g id="line2d_94"/>
   <g id="patch_15">
    <path d="M 213.490214 418.472125 
L 239.201957 418.472125 
L 239.201957 396.481051 
L 213.490214 396.481051 
L 213.490214 418.472125 
z
" clip-path="url(#pd6824c4aba)" style="fill: #004d40; stroke: #000000; stroke-linejoin: miter"/>
   </g>
   <g id="line2d_95">
    <path d="M 226.346086 418.472125 
L 226.346086 424.044229 
" clip-path="url(#pd6824c4aba)" style="fill: none; stroke: #000000; stroke-linecap: square"/>
   </g>
   <g id="line2d_96">
    <path d="M 226.346086 396.481051 
L 226.346086 394.059906 
" clip-path="url(#pd6824c4aba)" style="fill: none; stroke: #000000; stroke-linecap: square"/>
   </g>
   <g id="line2d_97">
    <path d="M 219.91815 424.044229 
L 232.774022 424.044229 
" clip-path="url(#pd6824c4aba)" style="fill: none; stroke: #000000; stroke-linecap: square"/>
   </g>
   <g id="line2d_98">
    <path d="M 219.91815 394.059906 
L 232.774022 394.059906 
" clip-path="url(#pd6824c4aba)" style="fill: none; stroke: #000000; stroke-linecap: square"/>
   </g>
   <g id="line2d_99"/>
   <g id="patch_16">
    <path d="M 277.769573 434.164143 
L 303.481317 434.164143 
L 303.481317 385.12235 
L 277.769573 385.12235 
L 277.769573 434.164143 
z
" clip-path="url(#pd6824c4aba)" style="fill: #004d40; stroke: #000000; stroke-linejoin: miter"/>
   </g>
   <g id="line2d_100">
    <path d="M 290.625445 434.164143 
L 290.625445 434.562062 
" clip-path="url(#pd6824c4aba)" style="fill: none; stroke: #000000; stroke-linecap: square"/>
   </g>
   <g id="line2d_101">
    <path d="M 290.625445 385.12235 
L 290.625445 378.25139 
" clip-path="url(#pd6824c4aba)" style="fill: none; stroke: #000000; stroke-linecap: square"/>
   </g>
   <g id="line2d_102">
    <path d="M 284.197509 434.562062 
L 297.053381 434.562062 
" clip-path="url(#pd6824c4aba)" style="fill: none; stroke: #000000; stroke-linecap: square"/>
   </g>
   <g id="line2d_103">
    <path d="M 284.197509 378.25139 
L 297.053381 378.25139 
" clip-path="url(#pd6824c4aba)" style="fill: none; stroke: #000000; stroke-linecap: square"/>
   </g>
   <g id="line2d_104"/>
   <g id="patch_17">
    <path d="M 342.048933 423.141819 
L 367.760676 423.141819 
L 367.760676 395.459221 
L 342.048933 395.459221 
L 342.048933 423.141819 
z
" clip-path="url(#pd6824c4aba)" style="fill: #004d40; stroke: #000000; stroke-linejoin: miter"/>
   </g>
   <g id="line2d_105">
    <path d="M 354.904804 423.141819 
L 354.904804 424.03943 
" clip-path="url(#pd6824c4aba)" style="fill: none; stroke: #000000; stroke-linecap: square"/>
   </g>
   <g id="line2d_106">
    <path d="M 354.904804 395.459221 
L 354.904804 393.947101 
" clip-path="url(#pd6824c4aba)" style="fill: none; stroke: #000000; stroke-linecap: square"/>
   </g>
   <g id="line2d_107">
    <path d="M 348.476868 424.03943 
L 361.33274 424.03943 
" clip-path="url(#pd6824c4aba)" style="fill: none; stroke: #000000; stroke-linecap: square"/>
   </g>
   <g id="line2d_108">
    <path d="M 348.476868 393.947101 
L 361.33274 393.947101 
" clip-path="url(#pd6824c4aba)" style="fill: none; stroke: #000000; stroke-linecap: square"/>
   </g>
   <g id="line2d_109"/>
   <g id="patch_18">
    <path d="M 406.328292 437.717127 
L 432.040036 437.717127 
L 432.040036 384.550316 
L 406.328292 384.550316 
L 406.328292 437.717127 
z
" clip-path="url(#pd6824c4aba)" style="fill: #004d40; stroke: #000000; stroke-linejoin: miter"/>
   </g>
   <g id="line2d_110">
    <path d="M 419.184164 437.717127 
L 419.184164 444.035198 
" clip-path="url(#pd6824c4aba)" style="fill: none; stroke: #000000; stroke-linecap: square"/>
   </g>
   <g id="line2d_111">
    <path d="M 419.184164 384.550316 
L 419.184164 379.172253 
" clip-path="url(#pd6824c4aba)" style="fill: none; stroke: #000000; stroke-linecap: square"/>
   </g>
   <g id="line2d_112">
    <path d="M 412.756228 444.035198 
L 425.6121 444.035198 
" clip-path="url(#pd6824c4aba)" style="fill: none; stroke: #000000; stroke-linecap: square"/>
   </g>
   <g id="line2d_113">
    <path d="M 412.756228 379.172253 
L 425.6121 379.172253 
" clip-path="url(#pd6824c4aba)" style="fill: none; stroke: #000000; stroke-linecap: square"/>
   </g>
   <g id="line2d_114"/>
   <g id="patch_19">
    <path d="M 470.607651 422.383291 
L 496.319395 422.383291 
L 496.319395 402.076444 
L 470.607651 402.076444 
L 470.607651 422.383291 
z
" clip-path="url(#pd6824c4aba)" style="fill: #004d40; stroke: #000000; stroke-linejoin: miter"/>
   </g>
   <g id="line2d_115">
    <path d="M 483.463523 422.383291 
L 483.463523 424.610813 
" clip-path="url(#pd6824c4aba)" style="fill: none; stroke: #000000; stroke-linecap: square"/>
   </g>
   <g id="line2d_116">
    <path d="M 483.463523 402.076444 
L 483.463523 401.181531 
" clip-path="url(#pd6824c4aba)" style="fill: none; stroke: #000000; stroke-linecap: square"/>
   </g>
   <g id="line2d_117">
    <path d="M 477.035587 424.610813 
L 489.891459 424.610813 
" clip-path="url(#pd6824c4aba)" style="fill: none; stroke: #000000; stroke-linecap: square"/>
   </g>
   <g id="line2d_118">
    <path d="M 477.035587 401.181531 
L 489.891459 401.181531 
" clip-path="url(#pd6824c4aba)" style="fill: none; stroke: #000000; stroke-linecap: square"/>
   </g>
   <g id="line2d_119"/>
   <g id="patch_20">
    <path d="M 534.887011 421.326693 
L 560.598755 421.326693 
L 560.598755 402.076444 
L 534.887011 402.076444 
L 534.887011 421.326693 
z
" clip-path="url(#pd6824c4aba)" style="fill: #004d40; stroke: #000000; stroke-linejoin: miter"/>
   </g>
   <g id="line2d_120">
    <path d="M 547.742883 421.326693 
L 547.742883 424.361665 
" clip-path="url(#pd6824c4aba)" style="fill: none; stroke: #000000; stroke-linecap: square"/>
   </g>
   <g id="line2d_121">
    <path d="M 547.742883 402.076444 
L 547.742883 400.20507 
" clip-path="url(#pd6824c4aba)" style="fill: none; stroke: #000000; stroke-linecap: square"/>
   </g>
   <g id="line2d_122">
    <path d="M 541.314947 424.361665 
L 554.170819 424.361665 
" clip-path="url(#pd6824c4aba)" style="fill: none; stroke: #000000; stroke-linecap: square"/>
   </g>
   <g id="line2d_123">
    <path d="M 541.314947 400.20507 
L 554.170819 400.20507 
" clip-path="url(#pd6824c4aba)" style="fill: none; stroke: #000000; stroke-linecap: square"/>
   </g>
   <g id="line2d_124"/>
   <g id="patch_21">
    <path d="M 599.16637 373.996289 
L 624.878114 373.996289 
L 624.878114 105.554644 
L 599.16637 105.554644 
L 599.16637 373.996289 
z
" clip-path="url(#pd6824c4aba)" style="fill: #004d40; stroke: #000000; stroke-linejoin: miter"/>
   </g>
   <g id="line2d_125">
    <path d="M 612.022242 373.996289 
L 612.022242 385.112212 
" clip-path="url(#pd6824c4aba)" style="fill: none; stroke: #000000; stroke-linecap: square"/>
   </g>
   <g id="line2d_126">
    <path d="M 612.022242 105.554644 
L 612.022242 32.070312 
" clip-path="url(#pd6824c4aba)" style="fill: none; stroke: #000000; stroke-linecap: square"/>
   </g>
   <g id="line2d_127">
    <path d="M 605.594306 385.112212 
L 618.450178 385.112212 
" clip-path="url(#pd6824c4aba)" style="fill: none; stroke: #000000; stroke-linecap: square"/>
   </g>
   <g id="line2d_128">
    <path d="M 605.594306 32.070312 
L 618.450178 32.070312 
" clip-path="url(#pd6824c4aba)" style="fill: none; stroke: #000000; stroke-linecap: square"/>
   </g>
   <g id="line2d_129"/>
   <g id="patch_22">
    <path d="M 663.44573 468.228803 
L 689.157473 468.228803 
L 689.157473 423.798501 
L 663.44573 423.798501 
L 663.44573 468.228803 
z
" clip-path="url(#pd6824c4aba)" style="fill: #004d40; stroke: #000000; stroke-linejoin: miter"/>
   </g>
   <g id="line2d_130">
    <path d="M 676.301601 468.228803 
L 676.301601 473.475302 
" clip-path="url(#pd6824c4aba)" style="fill: none; stroke: #000000; stroke-linecap: square"/>
   </g>
   <g id="line2d_131">
    <path d="M 676.301601 423.798501 
L 676.301601 422.096453 
" clip-path="url(#pd6824c4aba)" style="fill: none; stroke: #000000; stroke-linecap: square"/>
   </g>
   <g id="line2d_132">
    <path d="M 669.873666 473.475302 
L 682.729537 473.475302 
" clip-path="url(#pd6824c4aba)" style="fill: none; stroke: #000000; stroke-linecap: square"/>
   </g>
   <g id="line2d_133">
    <path d="M 669.873666 422.096453 
L 682.729537 422.096453 
" clip-path="url(#pd6824c4aba)" style="fill: none; stroke: #000000; stroke-linecap: square"/>
   </g>
   <g id="line2d_134"/>
   <g id="patch_23">
    <path d="M 727.725089 430.490143 
L 753.436833 430.490143 
L 753.436833 409.469069 
L 727.725089 409.469069 
L 727.725089 430.490143 
z
" clip-path="url(#pd6824c4aba)" style="fill: #004d40; stroke: #000000; stroke-linejoin: miter"/>
   </g>
   <g id="line2d_135">
    <path d="M 740.580961 430.490143 
L 740.580961 447.75791 
" clip-path="url(#pd6824c4aba)" style="fill: none; stroke: #000000; stroke-linecap: square"/>
   </g>
   <g id="line2d_136">
    <path d="M 740.580961 409.469069 
L 740.580961 394.701073 
" clip-path="url(#pd6824c4aba)" style="fill: none; stroke: #000000; stroke-linecap: square"/>
   </g>
   <g id="line2d_137">
    <path d="M 734.153025 447.75791 
L 747.008897 447.75791 
" clip-path="url(#pd6824c4aba)" style="fill: none; stroke: #000000; stroke-linecap: square"/>
   </g>
   <g id="line2d_138">
    <path d="M 734.153025 394.701073 
L 747.008897 394.701073 
" clip-path="url(#pd6824c4aba)" style="fill: none; stroke: #000000; stroke-linecap: square"/>
   </g>
   <g id="line2d_139"/>
   <g id="patch_24">
    <path d="M 792.004448 402.076444 
L 817.716192 402.076444 
L 817.716192 402.076444 
L 792.004448 402.076444 
L 792.004448 402.076444 
z
" clip-path="url(#pd6824c4aba)" style="fill: #004d40; stroke: #000000; stroke-linejoin: miter"/>
   </g>
   <g id="line2d_140">
    <path d="M 804.86032 402.076444 
L 804.86032 402.076444 
" clip-path="url(#pd6824c4aba)" style="fill: none; stroke: #000000; stroke-linecap: square"/>
   </g>
   <g id="line2d_141">
    <path d="M 804.86032 402.076444 
L 804.86032 402.076444 
" clip-path="url(#pd6824c4aba)" style="fill: none; stroke: #000000; stroke-linecap: square"/>
   </g>
   <g id="line2d_142">
    <path d="M 798.432384 402.076444 
L 811.288256 402.076444 
" clip-path="url(#pd6824c4aba)" style="fill: none; stroke: #000000; stroke-linecap: square"/>
   </g>
   <g id="line2d_143">
    <path d="M 798.432384 402.076444 
L 811.288256 402.076444 
" clip-path="url(#pd6824c4aba)" style="fill: none; stroke: #000000; stroke-linecap: square"/>
   </g>
   <g id="line2d_144">
    <g clip-path="url(#pd6824c4aba)">
     <use xlink:href="#m09636af2fb" x="804.86032" y="441.604805" style="fill-opacity: 0; stroke: #000000"/>
    </g>
   </g>
   <g id="line2d_145">
    <path d="M 104.215303 402.076444 
L 837 402.076444 
" clip-path="url(#pd6824c4aba)" style="fill: none; stroke-dasharray: 5.55,2.4; stroke-dashoffset: 0; stroke: #808080; stroke-width: 1.5"/>
   </g>
   <g id="line2d_146">
    <path d="M 123.499111 417.932412 
L 149.210854 417.932412 
" clip-path="url(#pd6824c4aba)" style="fill: none; stroke: #ff7f0e"/>
   </g>
   <g id="line2d_147">
    <path d="M 187.77847 404.140696 
L 213.490214 404.140696 
" clip-path="url(#pd6824c4aba)" style="fill: none; stroke: #ff7f0e"/>
   </g>
   <g id="line2d_148">
    <path d="M 252.057829 401.1105 
L 277.769573 401.1105 
" clip-path="url(#pd6824c4aba)" style="fill: none; stroke: #ff7f0e"/>
   </g>
   <g id="line2d_149">
    <path d="M 316.337189 403.101756 
L 342.048933 403.101756 
" clip-path="url(#pd6824c4aba)" style="fill: none; stroke: #ff7f0e"/>
   </g>
   <g id="line2d_150">
    <path d="M 380.616548 398.447158 
L 406.328292 398.447158 
" clip-path="url(#pd6824c4aba)" style="fill: none; stroke: #ff7f0e"/>
   </g>
   <g id="line2d_151">
    <path d="M 444.895908 402.076444 
L 470.607651 402.076444 
" clip-path="url(#pd6824c4aba)" style="fill: none; stroke: #ff7f0e"/>
   </g>
   <g id="line2d_152">
    <path d="M 509.175267 402.076444 
L 534.887011 402.076444 
" clip-path="url(#pd6824c4aba)" style="fill: none; stroke: #ff7f0e"/>
   </g>
   <g id="line2d_153">
    <path d="M 573.454626 105.375537 
L 599.16637 105.375537 
" clip-path="url(#pd6824c4aba)" style="fill: none; stroke: #ff7f0e"/>
   </g>
   <g id="line2d_154">
    <path d="M 637.733986 411.793179 
L 663.44573 411.793179 
" clip-path="url(#pd6824c4aba)" style="fill: none; stroke: #ff7f0e"/>
   </g>
   <g id="line2d_155">
    <path d="M 702.013345 413.036247 
L 727.725089 413.036247 
" clip-path="url(#pd6824c4aba)" style="fill: none; stroke: #ff7f0e"/>
   </g>
   <g id="line2d_156">
    <path d="M 766.292705 402.076444 
L 792.004448 402.076444 
" clip-path="url(#pd6824c4aba)" style="fill: none; stroke: #ff7f0e"/>
   </g>
   <g id="line2d_157">
    <path d="M 149.210854 437.319885 
L 174.922598 437.319885 
" clip-path="url(#pd6824c4aba)" style="fill: none; stroke: #ff7f0e"/>
   </g>
   <g id="line2d_158">
    <path d="M 213.490214 401.167726 
L 239.201957 401.167726 
" clip-path="url(#pd6824c4aba)" style="fill: none; stroke: #ff7f0e"/>
   </g>
   <g id="line2d_159">
    <path d="M 277.769573 401.028583 
L 303.481317 401.028583 
" clip-path="url(#pd6824c4aba)" style="fill: none; stroke: #ff7f0e"/>
   </g>
   <g id="line2d_160">
    <path d="M 342.048933 404.309252 
L 367.760676 404.309252 
" clip-path="url(#pd6824c4aba)" style="fill: none; stroke: #ff7f0e"/>
   </g>
   <g id="line2d_161">
    <path d="M 406.328292 402.926303 
L 432.040036 402.926303 
" clip-path="url(#pd6824c4aba)" style="fill: none; stroke: #ff7f0e"/>
   </g>
   <g id="line2d_162">
    <path d="M 470.607651 402.076444 
L 496.319395 402.076444 
" clip-path="url(#pd6824c4aba)" style="fill: none; stroke: #ff7f0e"/>
   </g>
   <g id="line2d_163">
    <path d="M 534.887011 402.076444 
L 560.598755 402.076444 
" clip-path="url(#pd6824c4aba)" style="fill: none; stroke: #ff7f0e"/>
   </g>
   <g id="line2d_164">
    <path d="M 599.16637 110.89639 
L 624.878114 110.89639 
" clip-path="url(#pd6824c4aba)" style="fill: none; stroke: #ff7f0e"/>
   </g>
   <g id="line2d_165">
    <path d="M 663.44573 427.782652 
L 689.157473 427.782652 
" clip-path="url(#pd6824c4aba)" style="fill: none; stroke: #ff7f0e"/>
   </g>
   <g id="line2d_166">
    <path d="M 727.725089 419.546642 
L 753.436833 419.546642 
" clip-path="url(#pd6824c4aba)" style="fill: none; stroke: #ff7f0e"/>
   </g>
   <g id="line2d_167">
    <path d="M 792.004448 402.076444 
L 817.716192 402.076444 
" clip-path="url(#pd6824c4aba)" style="fill: none; stroke: #ff7f0e"/>
   </g>
   <g id="patch_25">
    <path d="M 104.215303 633.04 
L 104.215303 27 
" style="fill: none; stroke: #000000; stroke-width: 0.8; stroke-linejoin: miter; stroke-linecap: square"/>
   </g>
   <g id="patch_26">
    <path d="M 837 633.04 
L 837 27 
" style="fill: none; stroke: #000000; stroke-width: 0.8; stroke-linejoin: miter; stroke-linecap: square"/>
   </g>
   <g id="patch_27">
    <path d="M 104.215303 633.04 
L 837 633.04 
" style="fill: none; stroke: #000000; stroke-width: 0.8; stroke-linejoin: miter; stroke-linecap: square"/>
   </g>
   <g id="patch_28">
    <path d="M 104.215303 27 
L 837 27 
" style="fill: none; stroke: #000000; stroke-width: 0.8; stroke-linejoin: miter; stroke-linecap: square"/>
   </g>
   <g id="legend_1">
    <g id="patch_29">
     <path d="M 116.815303 120.661875 
L 391.86374 120.661875 
Q 395.46374 120.661875 395.46374 117.061875 
L 395.46374 39.6 
Q 395.46374 36 391.86374 36 
L 116.815303 36 
Q 113.215303 36 113.215303 39.6 
L 113.215303 117.061875 
Q 113.215303 120.661875 116.815303 120.661875 
z
" style="fill: #ffffff; opacity: 0.8; stroke: #cccccc; stroke-linejoin: miter"/>
    </g>
    <g id="patch_30">
     <path d="M 120.415303 56.877187 
L 156.415303 56.877187 
L 156.415303 44.277187 
L 120.415303 44.277187 
z
" style="fill: #d41159; stroke: #000000; stroke-linejoin: miter"/>
    </g>
    <g id="text_20">
     <!-- Dataset shape model -->
     <g transform="translate(170.815303 56.877187) scale(0.18 -0.18)">
      <defs>
       <path id="DejaVuSans-73" d="M 2834 3397 
L 2834 2853 
Q 2591 2978 2328 3040 
Q 2066 3103 1784 3103 
Q 1356 3103 1142 2972 
Q 928 2841 928 2578 
Q 928 2378 1081 2264 
Q 1234 2150 1697 2047 
L 1894 2003 
Q 2506 1872 2764 1633 
Q 3022 1394 3022 966 
Q 3022 478 2636 193 
Q 2250 -91 1575 -91 
Q 1294 -91 989 -36 
Q 684 19 347 128 
L 347 722 
Q 666 556 975 473 
Q 1284 391 1588 391 
Q 1994 391 2212 530 
Q 2431 669 2431 922 
Q 2431 1156 2273 1281 
Q 2116 1406 1581 1522 
L 1381 1569 
Q 847 1681 609 1914 
Q 372 2147 372 2553 
Q 372 3047 722 3315 
Q 1072 3584 1716 3584 
Q 2034 3584 2315 3537 
Q 2597 3491 2834 3397 
z
" transform="scale(0.015625)"/>
       <path id="DejaVuSans-68" d="M 3513 2113 
L 3513 0 
L 2938 0 
L 2938 2094 
Q 2938 2591 2744 2837 
Q 2550 3084 2163 3084 
Q 1697 3084 1428 2787 
Q 1159 2491 1159 1978 
L 1159 0 
L 581 0 
L 581 4863 
L 1159 4863 
L 1159 2956 
Q 1366 3272 1645 3428 
Q 1925 3584 2291 3584 
Q 2894 3584 3203 3211 
Q 3513 2838 3513 2113 
z
" transform="scale(0.015625)"/>
       <path id="DejaVuSans-64" d="M 2906 2969 
L 2906 4863 
L 3481 4863 
L 3481 0 
L 2906 0 
L 2906 525 
Q 2725 213 2448 61 
Q 2172 -91 1784 -91 
Q 1150 -91 751 415 
Q 353 922 353 1747 
Q 353 2572 751 3078 
Q 1150 3584 1784 3584 
Q 2172 3584 2448 3432 
Q 2725 3281 2906 2969 
z
M 947 1747 
Q 947 1113 1208 752 
Q 1469 391 1925 391 
Q 2381 391 2643 752 
Q 2906 1113 2906 1747 
Q 2906 2381 2643 2742 
Q 2381 3103 1925 3103 
Q 1469 3103 1208 2742 
Q 947 2381 947 1747 
z
" transform="scale(0.015625)"/>
      </defs>
      <use xlink:href="#DejaVuSans-44"/>
      <use xlink:href="#DejaVuSans-61" x="77.001953"/>
      <use xlink:href="#DejaVuSans-74" x="138.28125"/>
      <use xlink:href="#DejaVuSans-61" x="177.490234"/>
      <use xlink:href="#DejaVuSans-73" x="238.769531"/>
      <use xlink:href="#DejaVuSans-65" x="290.869141"/>
      <use xlink:href="#DejaVuSans-74" x="352.392578"/>
      <use xlink:href="#DejaVuSans-20" x="391.601562"/>
      <use xlink:href="#DejaVuSans-73" x="423.388672"/>
      <use xlink:href="#DejaVuSans-68" x="475.488281"/>
      <use xlink:href="#DejaVuSans-61" x="538.867188"/>
      <use xlink:href="#DejaVuSans-70" x="600.146484"/>
      <use xlink:href="#DejaVuSans-65" x="663.623047"/>
      <use xlink:href="#DejaVuSans-20" x="725.146484"/>
      <use xlink:href="#DejaVuSans-6d" x="756.933594"/>
      <use xlink:href="#DejaVuSans-6f" x="854.345703"/>
      <use xlink:href="#DejaVuSans-64" x="915.527344"/>
      <use xlink:href="#DejaVuSans-65" x="979.003906"/>
      <use xlink:href="#DejaVuSans-6c" x="1040.527344"/>
     </g>
    </g>
    <g id="patch_31">
     <path d="M 120.415303 83.297812 
L 156.415303 83.297812 
L 156.415303 70.697812 
L 120.415303 70.697812 
z
" style="fill: #004d40; stroke: #000000; stroke-linejoin: miter"/>
    </g>
    <g id="text_21">
     <!-- Minimal model -->
     <g transform="translate(170.815303 83.297812) scale(0.18 -0.18)">
      <defs>
       <path id="DejaVuSans-4d" d="M 628 4666 
L 1569 4666 
L 2759 1491 
L 3956 4666 
L 4897 4666 
L 4897 0 
L 4281 0 
L 4281 4097 
L 3078 897 
L 2444 897 
L 1241 4097 
L 1241 0 
L 628 0 
L 628 4666 
z
" transform="scale(0.015625)"/>
      </defs>
      <use xlink:href="#DejaVuSans-4d"/>
      <use xlink:href="#DejaVuSans-69" x="86.279297"/>
      <use xlink:href="#DejaVuSans-6e" x="114.0625"/>
      <use xlink:href="#DejaVuSans-69" x="177.441406"/>
      <use xlink:href="#DejaVuSans-6d" x="205.224609"/>
      <use xlink:href="#DejaVuSans-61" x="302.636719"/>
      <use xlink:href="#DejaVuSans-6c" x="363.916016"/>
      <use xlink:href="#DejaVuSans-20" x="391.699219"/>
      <use xlink:href="#DejaVuSans-6d" x="423.486328"/>
      <use xlink:href="#DejaVuSans-6f" x="520.898438"/>
      <use xlink:href="#DejaVuSans-64" x="582.080078"/>
      <use xlink:href="#DejaVuSans-65" x="645.556641"/>
      <use xlink:href="#DejaVuSans-6c" x="707.080078"/>
     </g>
    </g>
    <g id="line2d_168">
     <path d="M 120.415303 103.418437 
L 138.415303 103.418437 
L 156.415303 103.418437 
" style="fill: none; stroke-dasharray: 5.55,2.4; stroke-dashoffset: 0; stroke: #808080; stroke-width: 1.5"/>
    </g>
    <g id="text_22">
     <!-- No performance change -->
     <g transform="translate(170.815303 109.718437) scale(0.18 -0.18)">
      <defs>
       <path id="DejaVuSans-4e" d="M 628 4666 
L 1478 4666 
L 3547 763 
L 3547 4666 
L 4159 4666 
L 4159 0 
L 3309 0 
L 1241 3903 
L 1241 0 
L 628 0 
L 628 4666 
z
" transform="scale(0.015625)"/>
       <path id="DejaVuSans-66" d="M 2375 4863 
L 2375 4384 
L 1825 4384 
Q 1516 4384 1395 4259 
Q 1275 4134 1275 3809 
L 1275 3500 
L 2222 3500 
L 2222 3053 
L 1275 3053 
L 1275 0 
L 697 0 
L 697 3053 
L 147 3053 
L 147 3500 
L 697 3500 
L 697 3744 
Q 697 4328 969 4595 
Q 1241 4863 1831 4863 
L 2375 4863 
z
" transform="scale(0.015625)"/>
       <path id="DejaVuSans-67" d="M 2906 1791 
Q 2906 2416 2648 2759 
Q 2391 3103 1925 3103 
Q 1463 3103 1205 2759 
Q 947 2416 947 1791 
Q 947 1169 1205 825 
Q 1463 481 1925 481 
Q 2391 481 2648 825 
Q 2906 1169 2906 1791 
z
M 3481 434 
Q 3481 -459 3084 -895 
Q 2688 -1331 1869 -1331 
Q 1566 -1331 1297 -1286 
Q 1028 -1241 775 -1147 
L 775 -588 
Q 1028 -725 1275 -790 
Q 1522 -856 1778 -856 
Q 2344 -856 2625 -561 
Q 2906 -266 2906 331 
L 2906 616 
Q 2728 306 2450 153 
Q 2172 0 1784 0 
Q 1141 0 747 490 
Q 353 981 353 1791 
Q 353 2603 747 3093 
Q 1141 3584 1784 3584 
Q 2172 3584 2450 3431 
Q 2728 3278 2906 2969 
L 2906 3500 
L 3481 3500 
L 3481 434 
z
" transform="scale(0.015625)"/>
      </defs>
      <use xlink:href="#DejaVuSans-4e"/>
      <use xlink:href="#DejaVuSans-6f" x="74.804688"/>
      <use xlink:href="#DejaVuSans-20" x="135.986328"/>
      <use xlink:href="#DejaVuSans-70" x="167.773438"/>
      <use xlink:href="#DejaVuSans-65" x="231.25"/>
      <use xlink:href="#DejaVuSans-72" x="292.773438"/>
      <use xlink:href="#DejaVuSans-66" x="333.886719"/>
      <use xlink:href="#DejaVuSans-6f" x="369.091797"/>
      <use xlink:href="#DejaVuSans-72" x="430.273438"/>
      <use xlink:href="#DejaVuSans-6d" x="469.636719"/>
      <use xlink:href="#DejaVuSans-61" x="567.048828"/>
      <use xlink:href="#DejaVuSans-6e" x="628.328125"/>
      <use xlink:href="#DejaVuSans-63" x="691.707031"/>
      <use xlink:href="#DejaVuSans-65" x="746.6875"/>
      <use xlink:href="#DejaVuSans-20" x="808.210938"/>
      <use xlink:href="#DejaVuSans-63" x="839.998047"/>
      <use xlink:href="#DejaVuSans-68" x="894.978516"/>
      <use xlink:href="#DejaVuSans-61" x="958.357422"/>
      <use xlink:href="#DejaVuSans-6e" x="1019.636719"/>
      <use xlink:href="#DejaVuSans-67" x="1083.015625"/>
      <use xlink:href="#DejaVuSans-65" x="1146.492188"/>
     </g>
    </g>
   </g>
  </g>
 </g>
 <defs>
  <clipPath id="pd6824c4aba">
   <rect x="104.215303" y="27" width="732.784697" height="606.04"/>
  </clipPath>
 </defs>
</svg>
