<?xml version="1.0" encoding="utf-8" standalone="no"?>
<!DOCTYPE svg PUBLIC "-//W3C//DTD SVG 1.1//EN"
  "http://www.w3.org/Graphics/SVG/1.1/DTD/svg11.dtd">
<svg xmlns:xlink="http://www.w3.org/1999/xlink" width="720pt" height="720pt" viewBox="0 0 720 720" xmlns="http://www.w3.org/2000/svg" version="1.1">
 <metadata>
  <rdf:RDF xmlns:dc="http://purl.org/dc/elements/1.1/" xmlns:cc="http://creativecommons.org/ns#" xmlns:rdf="http://www.w3.org/1999/02/22-rdf-syntax-ns#">
   <cc:Work>
    <dc:type rdf:resource="http://purl.org/dc/dcmitype/StillImage"/>
    <dc:date>2025-04-14T16:52:43.329406</dc:date>
    <dc:format>image/svg+xml</dc:format>
    <dc:creator>
     <cc:Agent>
      <dc:title>Matplotlib v3.9.0, https://matplotlib.org/</dc:title>
     </cc:Agent>
    </dc:creator>
   </cc:Work>
  </rdf:RDF>
 </metadata>
 <defs>
  <style type="text/css">*{stroke-linejoin: round; stroke-linecap: butt}</style>
 </defs>
 <g id="figure_1">
  <g id="patch_1">
   <path d="M 0 720 
L 720 720 
L 720 0 
L 0 0 
z
" style="fill: #ffffff"/>
  </g>
  <g id="axes_1">
   <g id="patch_2">
    <path d="M 102.35 633.04 
L 693 633.04 
L 693 27 
L 102.35 27 
z
" style="fill: #ffffff"/>
   </g>
   <g id="matplotlib.axis_1">
    <g id="xtick_1">
     <g id="line2d_1">
      <path d="M 138.617982 633.04 
L 138.617982 27 
" clip-path="url(#p735976c136)" style="fill: none; stroke: #b0b0b0; stroke-width: 0.8; stroke-linecap: square"/>
     </g>
     <g id="line2d_2">
      <defs>
       <path id="m9127725204" d="M 0 0 
L 0 3.5 
" style="stroke: #000000; stroke-width: 0.8"/>
      </defs>
      <g>
       <use xlink:href="#m9127725204" x="138.617982" y="633.04" style="stroke: #000000; stroke-width: 0.8"/>
      </g>
     </g>
     <g id="text_1">
      <!-- D1 -->
      <g transform="translate(121.039857 659.036094) scale(0.25 -0.25)">
       <defs>
        <path id="DejaVuSans-44" d="M 1259 4147 
L 1259 519 
L 2022 519 
Q 2988 519 3436 956 
Q 3884 1394 3884 2338 
Q 3884 3275 3436 3711 
Q 2988 4147 2022 4147 
L 1259 4147 
z
M 628 4666 
L 1925 4666 
Q 3281 4666 3915 4102 
Q 4550 3538 4550 2338 
Q 4550 1131 3912 565 
Q 3275 0 1925 0 
L 628 0 
L 628 4666 
z
" transform="scale(0.015625)"/>
        <path id="DejaVuSans-31" d="M 794 531 
L 1825 531 
L 1825 4091 
L 703 3866 
L 703 4441 
L 1819 4666 
L 2450 4666 
L 2450 531 
L 3481 531 
L 3481 0 
L 794 0 
L 794 531 
z
" transform="scale(0.015625)"/>
       </defs>
       <use xlink:href="#DejaVuSans-44"/>
       <use xlink:href="#DejaVuSans-31" x="77.001953"/>
      </g>
     </g>
    </g>
    <g id="xtick_2">
     <g id="line2d_3">
      <path d="M 190.429386 633.04 
L 190.429386 27 
" clip-path="url(#p735976c136)" style="fill: none; stroke: #b0b0b0; stroke-width: 0.8; stroke-linecap: square"/>
     </g>
     <g id="line2d_4">
      <g>
       <use xlink:href="#m9127725204" x="190.429386" y="633.04" style="stroke: #000000; stroke-width: 0.8"/>
      </g>
     </g>
     <g id="text_2">
      <!-- D2 -->
      <g transform="translate(172.851261 659.036094) scale(0.25 -0.25)">
       <defs>
        <path id="DejaVuSans-32" d="M 1228 531 
L 3431 531 
L 3431 0 
L 469 0 
L 469 531 
Q 828 903 1448 1529 
Q 2069 2156 2228 2338 
Q 2531 2678 2651 2914 
Q 2772 3150 2772 3378 
Q 2772 3750 2511 3984 
Q 2250 4219 1831 4219 
Q 1534 4219 1204 4116 
Q 875 4013 500 3803 
L 500 4441 
Q 881 4594 1212 4672 
Q 1544 4750 1819 4750 
Q 2544 4750 2975 4387 
Q 3406 4025 3406 3419 
Q 3406 3131 3298 2873 
Q 3191 2616 2906 2266 
Q 2828 2175 2409 1742 
Q 1991 1309 1228 531 
z
" transform="scale(0.015625)"/>
       </defs>
       <use xlink:href="#DejaVuSans-44"/>
       <use xlink:href="#DejaVuSans-32" x="77.001953"/>
      </g>
     </g>
    </g>
    <g id="xtick_3">
     <g id="line2d_5">
      <path d="M 242.240789 633.04 
L 242.240789 27 
" clip-path="url(#p735976c136)" style="fill: none; stroke: #b0b0b0; stroke-width: 0.8; stroke-linecap: square"/>
     </g>
     <g id="line2d_6">
      <g>
       <use xlink:href="#m9127725204" x="242.240789" y="633.04" style="stroke: #000000; stroke-width: 0.8"/>
      </g>
     </g>
     <g id="text_3">
      <!-- D3 -->
      <g transform="translate(224.662664 659.036094) scale(0.25 -0.25)">
       <defs>
        <path id="DejaVuSans-33" d="M 2597 2516 
Q 3050 2419 3304 2112 
Q 3559 1806 3559 1356 
Q 3559 666 3084 287 
Q 2609 -91 1734 -91 
Q 1441 -91 1130 -33 
Q 819 25 488 141 
L 488 750 
Q 750 597 1062 519 
Q 1375 441 1716 441 
Q 2309 441 2620 675 
Q 2931 909 2931 1356 
Q 2931 1769 2642 2001 
Q 2353 2234 1838 2234 
L 1294 2234 
L 1294 2753 
L 1863 2753 
Q 2328 2753 2575 2939 
Q 2822 3125 2822 3475 
Q 2822 3834 2567 4026 
Q 2313 4219 1838 4219 
Q 1578 4219 1281 4162 
Q 984 4106 628 3988 
L 628 4550 
Q 988 4650 1302 4700 
Q 1616 4750 1894 4750 
Q 2613 4750 3031 4423 
Q 3450 4097 3450 3541 
Q 3450 3153 3228 2886 
Q 3006 2619 2597 2516 
z
" transform="scale(0.015625)"/>
       </defs>
       <use xlink:href="#DejaVuSans-44"/>
       <use xlink:href="#DejaVuSans-33" x="77.001953"/>
      </g>
     </g>
    </g>
    <g id="xtick_4">
     <g id="line2d_7">
      <path d="M 294.052193 633.04 
L 294.052193 27 
" clip-path="url(#p735976c136)" style="fill: none; stroke: #b0b0b0; stroke-width: 0.8; stroke-linecap: square"/>
     </g>
     <g id="line2d_8">
      <g>
       <use xlink:href="#m9127725204" x="294.052193" y="633.04" style="stroke: #000000; stroke-width: 0.8"/>
      </g>
     </g>
     <g id="text_4">
      <!-- D4 -->
      <g transform="translate(276.474068 659.036094) scale(0.25 -0.25)">
       <defs>
        <path id="DejaVuSans-34" d="M 2419 4116 
L 825 1625 
L 2419 1625 
L 2419 4116 
z
M 2253 4666 
L 3047 4666 
L 3047 1625 
L 3713 1625 
L 3713 1100 
L 3047 1100 
L 3047 0 
L 2419 0 
L 2419 1100 
L 313 1100 
L 313 1709 
L 2253 4666 
z
" transform="scale(0.015625)"/>
       </defs>
       <use xlink:href="#DejaVuSans-44"/>
       <use xlink:href="#DejaVuSans-34" x="77.001953"/>
      </g>
     </g>
    </g>
    <g id="xtick_5">
     <g id="line2d_9">
      <path d="M 345.863596 633.04 
L 345.863596 27 
" clip-path="url(#p735976c136)" style="fill: none; stroke: #b0b0b0; stroke-width: 0.8; stroke-linecap: square"/>
     </g>
     <g id="line2d_10">
      <g>
       <use xlink:href="#m9127725204" x="345.863596" y="633.04" style="stroke: #000000; stroke-width: 0.8"/>
      </g>
     </g>
     <g id="text_5">
      <!-- D5 -->
      <g transform="translate(328.285471 659.036094) scale(0.25 -0.25)">
       <defs>
        <path id="DejaVuSans-35" d="M 691 4666 
L 3169 4666 
L 3169 4134 
L 1269 4134 
L 1269 2991 
Q 1406 3038 1543 3061 
Q 1681 3084 1819 3084 
Q 2600 3084 3056 2656 
Q 3513 2228 3513 1497 
Q 3513 744 3044 326 
Q 2575 -91 1722 -91 
Q 1428 -91 1123 -41 
Q 819 9 494 109 
L 494 744 
Q 775 591 1075 516 
Q 1375 441 1709 441 
Q 2250 441 2565 725 
Q 2881 1009 2881 1497 
Q 2881 1984 2565 2268 
Q 2250 2553 1709 2553 
Q 1456 2553 1204 2497 
Q 953 2441 691 2322 
L 691 4666 
z
" transform="scale(0.015625)"/>
       </defs>
       <use xlink:href="#DejaVuSans-44"/>
       <use xlink:href="#DejaVuSans-35" x="77.001953"/>
      </g>
     </g>
    </g>
    <g id="xtick_6">
     <g id="line2d_11">
      <path d="M 397.675 633.04 
L 397.675 27 
" clip-path="url(#p735976c136)" style="fill: none; stroke: #b0b0b0; stroke-width: 0.8; stroke-linecap: square"/>
     </g>
     <g id="line2d_12">
      <g>
       <use xlink:href="#m9127725204" x="397.675" y="633.04" style="stroke: #000000; stroke-width: 0.8"/>
      </g>
     </g>
     <g id="text_6">
      <!-- D6 -->
      <g transform="translate(380.096875 659.036094) scale(0.25 -0.25)">
       <defs>
        <path id="DejaVuSans-36" d="M 2113 2584 
Q 1688 2584 1439 2293 
Q 1191 2003 1191 1497 
Q 1191 994 1439 701 
Q 1688 409 2113 409 
Q 2538 409 2786 701 
Q 3034 994 3034 1497 
Q 3034 2003 2786 2293 
Q 2538 2584 2113 2584 
z
M 3366 4563 
L 3366 3988 
Q 3128 4100 2886 4159 
Q 2644 4219 2406 4219 
Q 1781 4219 1451 3797 
Q 1122 3375 1075 2522 
Q 1259 2794 1537 2939 
Q 1816 3084 2150 3084 
Q 2853 3084 3261 2657 
Q 3669 2231 3669 1497 
Q 3669 778 3244 343 
Q 2819 -91 2113 -91 
Q 1303 -91 875 529 
Q 447 1150 447 2328 
Q 447 3434 972 4092 
Q 1497 4750 2381 4750 
Q 2619 4750 2861 4703 
Q 3103 4656 3366 4563 
z
" transform="scale(0.015625)"/>
       </defs>
       <use xlink:href="#DejaVuSans-44"/>
       <use xlink:href="#DejaVuSans-36" x="77.001953"/>
      </g>
     </g>
    </g>
    <g id="xtick_7">
     <g id="line2d_13">
      <path d="M 449.486404 633.04 
L 449.486404 27 
" clip-path="url(#p735976c136)" style="fill: none; stroke: #b0b0b0; stroke-width: 0.8; stroke-linecap: square"/>
     </g>
     <g id="line2d_14">
      <g>
       <use xlink:href="#m9127725204" x="449.486404" y="633.04" style="stroke: #000000; stroke-width: 0.8"/>
      </g>
     </g>
     <g id="text_7">
      <!-- D7 -->
      <g transform="translate(431.908279 659.036094) scale(0.25 -0.25)">
       <defs>
        <path id="DejaVuSans-37" d="M 525 4666 
L 3525 4666 
L 3525 4397 
L 1831 0 
L 1172 0 
L 2766 4134 
L 525 4134 
L 525 4666 
z
" transform="scale(0.015625)"/>
       </defs>
       <use xlink:href="#DejaVuSans-44"/>
       <use xlink:href="#DejaVuSans-37" x="77.001953"/>
      </g>
     </g>
    </g>
    <g id="xtick_8">
     <g id="line2d_15">
      <path d="M 501.297807 633.04 
L 501.297807 27 
" clip-path="url(#p735976c136)" style="fill: none; stroke: #b0b0b0; stroke-width: 0.8; stroke-linecap: square"/>
     </g>
     <g id="line2d_16">
      <g>
       <use xlink:href="#m9127725204" x="501.297807" y="633.04" style="stroke: #000000; stroke-width: 0.8"/>
      </g>
     </g>
     <g id="text_8">
      <!-- S1 -->
      <g transform="translate(485.409135 659.036094) scale(0.25 -0.25)">
       <defs>
        <path id="DejaVuSans-53" d="M 3425 4513 
L 3425 3897 
Q 3066 4069 2747 4153 
Q 2428 4238 2131 4238 
Q 1616 4238 1336 4038 
Q 1056 3838 1056 3469 
Q 1056 3159 1242 3001 
Q 1428 2844 1947 2747 
L 2328 2669 
Q 3034 2534 3370 2195 
Q 3706 1856 3706 1288 
Q 3706 609 3251 259 
Q 2797 -91 1919 -91 
Q 1588 -91 1214 -16 
Q 841 59 441 206 
L 441 856 
Q 825 641 1194 531 
Q 1563 422 1919 422 
Q 2459 422 2753 634 
Q 3047 847 3047 1241 
Q 3047 1584 2836 1778 
Q 2625 1972 2144 2069 
L 1759 2144 
Q 1053 2284 737 2584 
Q 422 2884 422 3419 
Q 422 4038 858 4394 
Q 1294 4750 2059 4750 
Q 2388 4750 2728 4690 
Q 3069 4631 3425 4513 
z
" transform="scale(0.015625)"/>
       </defs>
       <use xlink:href="#DejaVuSans-53"/>
       <use xlink:href="#DejaVuSans-31" x="63.476562"/>
      </g>
     </g>
    </g>
    <g id="xtick_9">
     <g id="line2d_17">
      <path d="M 553.109211 633.04 
L 553.109211 27 
" clip-path="url(#p735976c136)" style="fill: none; stroke: #b0b0b0; stroke-width: 0.8; stroke-linecap: square"/>
     </g>
     <g id="line2d_18">
      <g>
       <use xlink:href="#m9127725204" x="553.109211" y="633.04" style="stroke: #000000; stroke-width: 0.8"/>
      </g>
     </g>
     <g id="text_9">
      <!-- S4 -->
      <g transform="translate(537.220539 659.036094) scale(0.25 -0.25)">
       <use xlink:href="#DejaVuSans-53"/>
       <use xlink:href="#DejaVuSans-34" x="63.476562"/>
      </g>
     </g>
    </g>
    <g id="xtick_10">
     <g id="line2d_19">
      <path d="M 604.920614 633.04 
L 604.920614 27 
" clip-path="url(#p735976c136)" style="fill: none; stroke: #b0b0b0; stroke-width: 0.8; stroke-linecap: square"/>
     </g>
     <g id="line2d_20">
      <g>
       <use xlink:href="#m9127725204" x="604.920614" y="633.04" style="stroke: #000000; stroke-width: 0.8"/>
      </g>
     </g>
     <g id="text_10">
      <!-- S5 -->
      <g transform="translate(589.031942 659.036094) scale(0.25 -0.25)">
       <use xlink:href="#DejaVuSans-53"/>
       <use xlink:href="#DejaVuSans-35" x="63.476562"/>
      </g>
     </g>
    </g>
    <g id="xtick_11">
     <g id="line2d_21">
      <path d="M 656.732018 633.04 
L 656.732018 27 
" clip-path="url(#p735976c136)" style="fill: none; stroke: #b0b0b0; stroke-width: 0.8; stroke-linecap: square"/>
     </g>
     <g id="line2d_22">
      <g>
       <use xlink:href="#m9127725204" x="656.732018" y="633.04" style="stroke: #000000; stroke-width: 0.8"/>
      </g>
     </g>
     <g id="text_11">
      <!-- S7 -->
      <g transform="translate(640.843346 659.036094) scale(0.25 -0.25)">
       <use xlink:href="#DejaVuSans-53"/>
       <use xlink:href="#DejaVuSans-37" x="63.476562"/>
      </g>
     </g>
    </g>
    <g id="text_12">
     <!-- query template -->
     <g transform="translate(301.188672 687.231406) scale(0.25 -0.25)">
      <defs>
       <path id="DejaVuSans-71" d="M 947 1747 
Q 947 1113 1208 752 
Q 1469 391 1925 391 
Q 2381 391 2643 752 
Q 2906 1113 2906 1747 
Q 2906 2381 2643 2742 
Q 2381 3103 1925 3103 
Q 1469 3103 1208 2742 
Q 947 2381 947 1747 
z
M 2906 525 
Q 2725 213 2448 61 
Q 2172 -91 1784 -91 
Q 1150 -91 751 415 
Q 353 922 353 1747 
Q 353 2572 751 3078 
Q 1150 3584 1784 3584 
Q 2172 3584 2448 3432 
Q 2725 3281 2906 2969 
L 2906 3500 
L 3481 3500 
L 3481 -1331 
L 2906 -1331 
L 2906 525 
z
" transform="scale(0.015625)"/>
       <path id="DejaVuSans-75" d="M 544 1381 
L 544 3500 
L 1119 3500 
L 1119 1403 
Q 1119 906 1312 657 
Q 1506 409 1894 409 
Q 2359 409 2629 706 
Q 2900 1003 2900 1516 
L 2900 3500 
L 3475 3500 
L 3475 0 
L 2900 0 
L 2900 538 
Q 2691 219 2414 64 
Q 2138 -91 1772 -91 
Q 1169 -91 856 284 
Q 544 659 544 1381 
z
M 1991 3584 
L 1991 3584 
z
" transform="scale(0.015625)"/>
       <path id="DejaVuSans-65" d="M 3597 1894 
L 3597 1613 
L 953 1613 
Q 991 1019 1311 708 
Q 1631 397 2203 397 
Q 2534 397 2845 478 
Q 3156 559 3463 722 
L 3463 178 
Q 3153 47 2828 -22 
Q 2503 -91 2169 -91 
Q 1331 -91 842 396 
Q 353 884 353 1716 
Q 353 2575 817 3079 
Q 1281 3584 2069 3584 
Q 2775 3584 3186 3129 
Q 3597 2675 3597 1894 
z
M 3022 2063 
Q 3016 2534 2758 2815 
Q 2500 3097 2075 3097 
Q 1594 3097 1305 2825 
Q 1016 2553 972 2059 
L 3022 2063 
z
" transform="scale(0.015625)"/>
       <path id="DejaVuSans-72" d="M 2631 2963 
Q 2534 3019 2420 3045 
Q 2306 3072 2169 3072 
Q 1681 3072 1420 2755 
Q 1159 2438 1159 1844 
L 1159 0 
L 581 0 
L 581 3500 
L 1159 3500 
L 1159 2956 
Q 1341 3275 1631 3429 
Q 1922 3584 2338 3584 
Q 2397 3584 2469 3576 
Q 2541 3569 2628 3553 
L 2631 2963 
z
" transform="scale(0.015625)"/>
       <path id="DejaVuSans-79" d="M 2059 -325 
Q 1816 -950 1584 -1140 
Q 1353 -1331 966 -1331 
L 506 -1331 
L 506 -850 
L 844 -850 
Q 1081 -850 1212 -737 
Q 1344 -625 1503 -206 
L 1606 56 
L 191 3500 
L 800 3500 
L 1894 763 
L 2988 3500 
L 3597 3500 
L 2059 -325 
z
" transform="scale(0.015625)"/>
       <path id="DejaVuSans-20" transform="scale(0.015625)"/>
       <path id="DejaVuSans-74" d="M 1172 4494 
L 1172 3500 
L 2356 3500 
L 2356 3053 
L 1172 3053 
L 1172 1153 
Q 1172 725 1289 603 
Q 1406 481 1766 481 
L 2356 481 
L 2356 0 
L 1766 0 
Q 1100 0 847 248 
Q 594 497 594 1153 
L 594 3053 
L 172 3053 
L 172 3500 
L 594 3500 
L 594 4494 
L 1172 4494 
z
" transform="scale(0.015625)"/>
       <path id="DejaVuSans-6d" d="M 3328 2828 
Q 3544 3216 3844 3400 
Q 4144 3584 4550 3584 
Q 5097 3584 5394 3201 
Q 5691 2819 5691 2113 
L 5691 0 
L 5113 0 
L 5113 2094 
Q 5113 2597 4934 2840 
Q 4756 3084 4391 3084 
Q 3944 3084 3684 2787 
Q 3425 2491 3425 1978 
L 3425 0 
L 2847 0 
L 2847 2094 
Q 2847 2600 2669 2842 
Q 2491 3084 2119 3084 
Q 1678 3084 1418 2786 
Q 1159 2488 1159 1978 
L 1159 0 
L 581 0 
L 581 3500 
L 1159 3500 
L 1159 2956 
Q 1356 3278 1631 3431 
Q 1906 3584 2284 3584 
Q 2666 3584 2933 3390 
Q 3200 3197 3328 2828 
z
" transform="scale(0.015625)"/>
       <path id="DejaVuSans-70" d="M 1159 525 
L 1159 -1331 
L 581 -1331 
L 581 3500 
L 1159 3500 
L 1159 2969 
Q 1341 3281 1617 3432 
Q 1894 3584 2278 3584 
Q 2916 3584 3314 3078 
Q 3713 2572 3713 1747 
Q 3713 922 3314 415 
Q 2916 -91 2278 -91 
Q 1894 -91 1617 61 
Q 1341 213 1159 525 
z
M 3116 1747 
Q 3116 2381 2855 2742 
Q 2594 3103 2138 3103 
Q 1681 3103 1420 2742 
Q 1159 2381 1159 1747 
Q 1159 1113 1420 752 
Q 1681 391 2138 391 
Q 2594 391 2855 752 
Q 3116 1113 3116 1747 
z
" transform="scale(0.015625)"/>
       <path id="DejaVuSans-6c" d="M 603 4863 
L 1178 4863 
L 1178 0 
L 603 0 
L 603 4863 
z
" transform="scale(0.015625)"/>
       <path id="DejaVuSans-61" d="M 2194 1759 
Q 1497 1759 1228 1600 
Q 959 1441 959 1056 
Q 959 750 1161 570 
Q 1363 391 1709 391 
Q 2188 391 2477 730 
Q 2766 1069 2766 1631 
L 2766 1759 
L 2194 1759 
z
M 3341 1997 
L 3341 0 
L 2766 0 
L 2766 531 
Q 2569 213 2275 61 
Q 1981 -91 1556 -91 
Q 1019 -91 701 211 
Q 384 513 384 1019 
Q 384 1609 779 1909 
Q 1175 2209 1959 2209 
L 2766 2209 
L 2766 2266 
Q 2766 2663 2505 2880 
Q 2244 3097 1772 3097 
Q 1472 3097 1187 3025 
Q 903 2953 641 2809 
L 641 3341 
Q 956 3463 1253 3523 
Q 1550 3584 1831 3584 
Q 2591 3584 2966 3190 
Q 3341 2797 3341 1997 
z
" transform="scale(0.015625)"/>
      </defs>
      <use xlink:href="#DejaVuSans-71"/>
      <use xlink:href="#DejaVuSans-75" x="63.476562"/>
      <use xlink:href="#DejaVuSans-65" x="126.855469"/>
      <use xlink:href="#DejaVuSans-72" x="188.378906"/>
      <use xlink:href="#DejaVuSans-79" x="229.492188"/>
      <use xlink:href="#DejaVuSans-20" x="288.671875"/>
      <use xlink:href="#DejaVuSans-74" x="320.458984"/>
      <use xlink:href="#DejaVuSans-65" x="359.667969"/>
      <use xlink:href="#DejaVuSans-6d" x="421.191406"/>
      <use xlink:href="#DejaVuSans-70" x="518.603516"/>
      <use xlink:href="#DejaVuSans-6c" x="582.080078"/>
      <use xlink:href="#DejaVuSans-61" x="609.863281"/>
      <use xlink:href="#DejaVuSans-74" x="671.142578"/>
      <use xlink:href="#DejaVuSans-65" x="710.351562"/>
     </g>
    </g>
   </g>
   <g id="matplotlib.axis_2">
    <g id="ytick_1">
     <g id="line2d_23">
      <path d="M 102.35 633.04 
L 693 633.04 
" clip-path="url(#p735976c136)" style="fill: none; stroke: #b0b0b0; stroke-width: 0.8; stroke-linecap: square"/>
     </g>
     <g id="line2d_24">
      <defs>
       <path id="mcb0da849b2" d="M 0 0 
L -3.5 0 
" style="stroke: #000000; stroke-width: 0.8"/>
      </defs>
      <g>
       <use xlink:href="#mcb0da849b2" x="102.35" y="633.04" style="stroke: #000000; stroke-width: 0.8"/>
      </g>
     </g>
     <g id="text_13">
      <!-- 0.2 -->
      <g transform="translate(55.592188 642.538047) scale(0.25 -0.25)">
       <defs>
        <path id="DejaVuSans-30" d="M 2034 4250 
Q 1547 4250 1301 3770 
Q 1056 3291 1056 2328 
Q 1056 1369 1301 889 
Q 1547 409 2034 409 
Q 2525 409 2770 889 
Q 3016 1369 3016 2328 
Q 3016 3291 2770 3770 
Q 2525 4250 2034 4250 
z
M 2034 4750 
Q 2819 4750 3233 4129 
Q 3647 3509 3647 2328 
Q 3647 1150 3233 529 
Q 2819 -91 2034 -91 
Q 1250 -91 836 529 
Q 422 1150 422 2328 
Q 422 3509 836 4129 
Q 1250 4750 2034 4750 
z
" transform="scale(0.015625)"/>
        <path id="DejaVuSans-2e" d="M 684 794 
L 1344 794 
L 1344 0 
L 684 0 
L 684 794 
z
" transform="scale(0.015625)"/>
       </defs>
       <use xlink:href="#DejaVuSans-30"/>
       <use xlink:href="#DejaVuSans-2e" x="63.623047"/>
       <use xlink:href="#DejaVuSans-32" x="95.410156"/>
      </g>
     </g>
    </g>
    <g id="ytick_2">
     <g id="line2d_25">
      <path d="M 102.35 522.032107 
L 693 522.032107 
" clip-path="url(#p735976c136)" style="fill: none; stroke: #b0b0b0; stroke-width: 0.8; stroke-linecap: square"/>
     </g>
     <g id="line2d_26">
      <g>
       <use xlink:href="#mcb0da849b2" x="102.35" y="522.032107" style="stroke: #000000; stroke-width: 0.8"/>
      </g>
     </g>
     <g id="text_14">
      <!-- 0.5 -->
      <g transform="translate(55.592188 531.530154) scale(0.25 -0.25)">
       <use xlink:href="#DejaVuSans-30"/>
       <use xlink:href="#DejaVuSans-2e" x="63.623047"/>
       <use xlink:href="#DejaVuSans-35" x="95.410156"/>
      </g>
     </g>
    </g>
    <g id="ytick_3">
     <g id="line2d_27">
      <path d="M 102.35 411.024214 
L 693 411.024214 
" clip-path="url(#p735976c136)" style="fill: none; stroke: #b0b0b0; stroke-width: 0.8; stroke-linecap: square"/>
     </g>
     <g id="line2d_28">
      <g>
       <use xlink:href="#mcb0da849b2" x="102.35" y="411.024214" style="stroke: #000000; stroke-width: 0.8"/>
      </g>
     </g>
     <g id="text_15">
      <!-- 1.0 -->
      <g transform="translate(55.592188 420.522261) scale(0.25 -0.25)">
       <use xlink:href="#DejaVuSans-31"/>
       <use xlink:href="#DejaVuSans-2e" x="63.623047"/>
       <use xlink:href="#DejaVuSans-30" x="95.410156"/>
      </g>
     </g>
    </g>
    <g id="ytick_4">
     <g id="line2d_29">
      <path d="M 102.35 300.016322 
L 693 300.016322 
" clip-path="url(#p735976c136)" style="fill: none; stroke: #b0b0b0; stroke-width: 0.8; stroke-linecap: square"/>
     </g>
     <g id="line2d_30">
      <g>
       <use xlink:href="#mcb0da849b2" x="102.35" y="300.016322" style="stroke: #000000; stroke-width: 0.8"/>
      </g>
     </g>
     <g id="text_16">
      <!-- 2.0 -->
      <g transform="translate(55.592188 309.514368) scale(0.25 -0.25)">
       <use xlink:href="#DejaVuSans-32"/>
       <use xlink:href="#DejaVuSans-2e" x="63.623047"/>
       <use xlink:href="#DejaVuSans-30" x="95.410156"/>
      </g>
     </g>
    </g>
    <g id="ytick_5">
     <g id="line2d_31">
      <path d="M 102.35 189.008429 
L 693 189.008429 
" clip-path="url(#p735976c136)" style="fill: none; stroke: #b0b0b0; stroke-width: 0.8; stroke-linecap: square"/>
     </g>
     <g id="line2d_32">
      <g>
       <use xlink:href="#mcb0da849b2" x="102.35" y="189.008429" style="stroke: #000000; stroke-width: 0.8"/>
      </g>
     </g>
     <g id="text_17">
      <!-- 4.0 -->
      <g transform="translate(55.592188 198.506476) scale(0.25 -0.25)">
       <use xlink:href="#DejaVuSans-34"/>
       <use xlink:href="#DejaVuSans-2e" x="63.623047"/>
       <use xlink:href="#DejaVuSans-30" x="95.410156"/>
      </g>
     </g>
    </g>
    <g id="ytick_6">
     <g id="line2d_33">
      <path d="M 102.35 78.000536 
L 693 78.000536 
" clip-path="url(#p735976c136)" style="fill: none; stroke: #b0b0b0; stroke-width: 0.8; stroke-linecap: square"/>
     </g>
     <g id="line2d_34">
      <g>
       <use xlink:href="#mcb0da849b2" x="102.35" y="78.000536" style="stroke: #000000; stroke-width: 0.8"/>
      </g>
     </g>
     <g id="text_18">
      <!-- 8.0 -->
      <g transform="translate(55.592188 87.498583) scale(0.25 -0.25)">
       <defs>
        <path id="DejaVuSans-38" d="M 2034 2216 
Q 1584 2216 1326 1975 
Q 1069 1734 1069 1313 
Q 1069 891 1326 650 
Q 1584 409 2034 409 
Q 2484 409 2743 651 
Q 3003 894 3003 1313 
Q 3003 1734 2745 1975 
Q 2488 2216 2034 2216 
z
M 1403 2484 
Q 997 2584 770 2862 
Q 544 3141 544 3541 
Q 544 4100 942 4425 
Q 1341 4750 2034 4750 
Q 2731 4750 3128 4425 
Q 3525 4100 3525 3541 
Q 3525 3141 3298 2862 
Q 3072 2584 2669 2484 
Q 3125 2378 3379 2068 
Q 3634 1759 3634 1313 
Q 3634 634 3220 271 
Q 2806 -91 2034 -91 
Q 1263 -91 848 271 
Q 434 634 434 1313 
Q 434 1759 690 2068 
Q 947 2378 1403 2484 
z
M 1172 3481 
Q 1172 3119 1398 2916 
Q 1625 2713 2034 2713 
Q 2441 2713 2670 2916 
Q 2900 3119 2900 3481 
Q 2900 3844 2670 4047 
Q 2441 4250 2034 4250 
Q 1625 4250 1398 4047 
Q 1172 3844 1172 3481 
z
" transform="scale(0.015625)"/>
       </defs>
       <use xlink:href="#DejaVuSans-38"/>
       <use xlink:href="#DejaVuSans-2e" x="63.623047"/>
       <use xlink:href="#DejaVuSans-30" x="95.410156"/>
      </g>
     </g>
    </g>
    <g id="text_19">
     <!-- ratio execution time -->
     <g transform="translate(46.392969 455.936016) rotate(-90) scale(0.25 -0.25)">
      <defs>
       <path id="DejaVuSans-69" d="M 603 3500 
L 1178 3500 
L 1178 0 
L 603 0 
L 603 3500 
z
M 603 4863 
L 1178 4863 
L 1178 4134 
L 603 4134 
L 603 4863 
z
" transform="scale(0.015625)"/>
       <path id="DejaVuSans-6f" d="M 1959 3097 
Q 1497 3097 1228 2736 
Q 959 2375 959 1747 
Q 959 1119 1226 758 
Q 1494 397 1959 397 
Q 2419 397 2687 759 
Q 2956 1122 2956 1747 
Q 2956 2369 2687 2733 
Q 2419 3097 1959 3097 
z
M 1959 3584 
Q 2709 3584 3137 3096 
Q 3566 2609 3566 1747 
Q 3566 888 3137 398 
Q 2709 -91 1959 -91 
Q 1206 -91 779 398 
Q 353 888 353 1747 
Q 353 2609 779 3096 
Q 1206 3584 1959 3584 
z
" transform="scale(0.015625)"/>
       <path id="DejaVuSans-78" d="M 3513 3500 
L 2247 1797 
L 3578 0 
L 2900 0 
L 1881 1375 
L 863 0 
L 184 0 
L 1544 1831 
L 300 3500 
L 978 3500 
L 1906 2253 
L 2834 3500 
L 3513 3500 
z
" transform="scale(0.015625)"/>
       <path id="DejaVuSans-63" d="M 3122 3366 
L 3122 2828 
Q 2878 2963 2633 3030 
Q 2388 3097 2138 3097 
Q 1578 3097 1268 2742 
Q 959 2388 959 1747 
Q 959 1106 1268 751 
Q 1578 397 2138 397 
Q 2388 397 2633 464 
Q 2878 531 3122 666 
L 3122 134 
Q 2881 22 2623 -34 
Q 2366 -91 2075 -91 
Q 1284 -91 818 406 
Q 353 903 353 1747 
Q 353 2603 823 3093 
Q 1294 3584 2113 3584 
Q 2378 3584 2631 3529 
Q 2884 3475 3122 3366 
z
" transform="scale(0.015625)"/>
       <path id="DejaVuSans-6e" d="M 3513 2113 
L 3513 0 
L 2938 0 
L 2938 2094 
Q 2938 2591 2744 2837 
Q 2550 3084 2163 3084 
Q 1697 3084 1428 2787 
Q 1159 2491 1159 1978 
L 1159 0 
L 581 0 
L 581 3500 
L 1159 3500 
L 1159 2956 
Q 1366 3272 1645 3428 
Q 1925 3584 2291 3584 
Q 2894 3584 3203 3211 
Q 3513 2838 3513 2113 
z
" transform="scale(0.015625)"/>
      </defs>
      <use xlink:href="#DejaVuSans-72"/>
      <use xlink:href="#DejaVuSans-61" x="41.113281"/>
      <use xlink:href="#DejaVuSans-74" x="102.392578"/>
      <use xlink:href="#DejaVuSans-69" x="141.601562"/>
      <use xlink:href="#DejaVuSans-6f" x="169.384766"/>
      <use xlink:href="#DejaVuSans-20" x="230.566406"/>
      <use xlink:href="#DejaVuSans-65" x="262.353516"/>
      <use xlink:href="#DejaVuSans-78" x="322.126953"/>
      <use xlink:href="#DejaVuSans-65" x="378.181641"/>
      <use xlink:href="#DejaVuSans-63" x="439.705078"/>
      <use xlink:href="#DejaVuSans-75" x="494.685547"/>
      <use xlink:href="#DejaVuSans-74" x="558.064453"/>
      <use xlink:href="#DejaVuSans-69" x="597.273438"/>
      <use xlink:href="#DejaVuSans-6f" x="625.056641"/>
      <use xlink:href="#DejaVuSans-6e" x="686.238281"/>
      <use xlink:href="#DejaVuSans-20" x="749.617188"/>
      <use xlink:href="#DejaVuSans-74" x="781.404297"/>
      <use xlink:href="#DejaVuSans-69" x="820.613281"/>
      <use xlink:href="#DejaVuSans-6d" x="848.396484"/>
      <use xlink:href="#DejaVuSans-65" x="945.808594"/>
     </g>
    </g>
   </g>
   <g id="patch_3">
    <path d="M 117.893421 428.819083 
L 138.617982 428.819083 
L 138.617982 411.334883 
L 117.893421 411.334883 
L 117.893421 428.819083 
z
" clip-path="url(#p735976c136)" style="fill: #d41159; stroke: #000000; stroke-linejoin: miter"/>
   </g>
   <g id="line2d_35">
    <path d="M 128.255702 428.819083 
L 128.255702 433.046217 
" clip-path="url(#p735976c136)" style="fill: none; stroke: #000000; stroke-linecap: square"/>
   </g>
   <g id="line2d_36">
    <path d="M 128.255702 411.334883 
L 128.255702 410.702041 
" clip-path="url(#p735976c136)" style="fill: none; stroke: #000000; stroke-linecap: square"/>
   </g>
   <g id="line2d_37">
    <path d="M 123.074561 433.046217 
L 133.436842 433.046217 
" clip-path="url(#p735976c136)" style="fill: none; stroke: #000000; stroke-linecap: square"/>
   </g>
   <g id="line2d_38">
    <path d="M 123.074561 410.702041 
L 133.436842 410.702041 
" clip-path="url(#p735976c136)" style="fill: none; stroke: #000000; stroke-linecap: square"/>
   </g>
   <g id="line2d_39"/>
   <g id="patch_4">
    <path d="M 169.704825 417.229843 
L 190.429386 417.229843 
L 190.429386 403.788708 
L 169.704825 403.788708 
L 169.704825 417.229843 
z
" clip-path="url(#p735976c136)" style="fill: #d41159; stroke: #000000; stroke-linejoin: miter"/>
   </g>
   <g id="line2d_40">
    <path d="M 180.067105 417.229843 
L 180.067105 420.296269 
" clip-path="url(#p735976c136)" style="fill: none; stroke: #000000; stroke-linecap: square"/>
   </g>
   <g id="line2d_41">
    <path d="M 180.067105 403.788708 
L 180.067105 400.80449 
" clip-path="url(#p735976c136)" style="fill: none; stroke: #000000; stroke-linecap: square"/>
   </g>
   <g id="line2d_42">
    <path d="M 174.885965 420.296269 
L 185.248246 420.296269 
" clip-path="url(#p735976c136)" style="fill: none; stroke: #000000; stroke-linecap: square"/>
   </g>
   <g id="line2d_43">
    <path d="M 174.885965 400.80449 
L 185.248246 400.80449 
" clip-path="url(#p735976c136)" style="fill: none; stroke: #000000; stroke-linecap: square"/>
   </g>
   <g id="line2d_44"/>
   <g id="patch_5">
    <path d="M 221.516228 432.324914 
L 242.240789 432.324914 
L 242.240789 391.664552 
L 221.516228 391.664552 
L 221.516228 432.324914 
z
" clip-path="url(#p735976c136)" style="fill: #d41159; stroke: #000000; stroke-linejoin: miter"/>
   </g>
   <g id="line2d_45">
    <path d="M 231.878509 432.324914 
L 231.878509 444.288465 
" clip-path="url(#p735976c136)" style="fill: none; stroke: #000000; stroke-linecap: square"/>
   </g>
   <g id="line2d_46">
    <path d="M 231.878509 391.664552 
L 231.878509 391.632069 
" clip-path="url(#p735976c136)" style="fill: none; stroke: #000000; stroke-linecap: square"/>
   </g>
   <g id="line2d_47">
    <path d="M 226.697368 444.288465 
L 237.059649 444.288465 
" clip-path="url(#p735976c136)" style="fill: none; stroke: #000000; stroke-linecap: square"/>
   </g>
   <g id="line2d_48">
    <path d="M 226.697368 391.632069 
L 237.059649 391.632069 
" clip-path="url(#p735976c136)" style="fill: none; stroke: #000000; stroke-linecap: square"/>
   </g>
   <g id="line2d_49"/>
   <g id="patch_6">
    <path d="M 273.327632 420.271238 
L 294.052193 420.271238 
L 294.052193 404.688518 
L 273.327632 404.688518 
L 273.327632 420.271238 
z
" clip-path="url(#p735976c136)" style="fill: #d41159; stroke: #000000; stroke-linejoin: miter"/>
   </g>
   <g id="line2d_50">
    <path d="M 283.689912 420.271238 
L 283.689912 421.069587 
" clip-path="url(#p735976c136)" style="fill: none; stroke: #000000; stroke-linecap: square"/>
   </g>
   <g id="line2d_51">
    <path d="M 283.689912 404.688518 
L 283.689912 400.200296 
" clip-path="url(#p735976c136)" style="fill: none; stroke: #000000; stroke-linecap: square"/>
   </g>
   <g id="line2d_52">
    <path d="M 278.508772 421.069587 
L 288.871053 421.069587 
" clip-path="url(#p735976c136)" style="fill: none; stroke: #000000; stroke-linecap: square"/>
   </g>
   <g id="line2d_53">
    <path d="M 278.508772 400.200296 
L 288.871053 400.200296 
" clip-path="url(#p735976c136)" style="fill: none; stroke: #000000; stroke-linecap: square"/>
   </g>
   <g id="line2d_54"/>
   <g id="patch_7">
    <path d="M 325.139035 423.435625 
L 345.863596 423.435625 
L 345.863596 395.172699 
L 325.139035 395.172699 
L 325.139035 423.435625 
z
" clip-path="url(#p735976c136)" style="fill: #d41159; stroke: #000000; stroke-linejoin: miter"/>
   </g>
   <g id="line2d_55">
    <path d="M 335.501316 423.435625 
L 335.501316 427.657729 
" clip-path="url(#p735976c136)" style="fill: none; stroke: #000000; stroke-linecap: square"/>
   </g>
   <g id="line2d_56">
    <path d="M 335.501316 395.172699 
L 335.501316 394.387265 
" clip-path="url(#p735976c136)" style="fill: none; stroke: #000000; stroke-linecap: square"/>
   </g>
   <g id="line2d_57">
    <path d="M 330.320175 427.657729 
L 340.682456 427.657729 
" clip-path="url(#p735976c136)" style="fill: none; stroke: #000000; stroke-linecap: square"/>
   </g>
   <g id="line2d_58">
    <path d="M 330.320175 394.387265 
L 340.682456 394.387265 
" clip-path="url(#p735976c136)" style="fill: none; stroke: #000000; stroke-linecap: square"/>
   </g>
   <g id="line2d_59"/>
   <g id="patch_8">
    <path d="M 376.950439 420.064426 
L 397.675 420.064426 
L 397.675 411.024214 
L 376.950439 411.024214 
L 376.950439 420.064426 
z
" clip-path="url(#p735976c136)" style="fill: #d41159; stroke: #000000; stroke-linejoin: miter"/>
   </g>
   <g id="line2d_60">
    <path d="M 387.312719 420.064426 
L 387.312719 420.068194 
" clip-path="url(#p735976c136)" style="fill: none; stroke: #000000; stroke-linecap: square"/>
   </g>
   <g id="line2d_61">
    <path d="M 387.312719 411.024214 
L 387.312719 407.687777 
" clip-path="url(#p735976c136)" style="fill: none; stroke: #000000; stroke-linecap: square"/>
   </g>
   <g id="line2d_62">
    <path d="M 382.131579 420.068194 
L 392.49386 420.068194 
" clip-path="url(#p735976c136)" style="fill: none; stroke: #000000; stroke-linecap: square"/>
   </g>
   <g id="line2d_63">
    <path d="M 382.131579 407.687777 
L 392.49386 407.687777 
" clip-path="url(#p735976c136)" style="fill: none; stroke: #000000; stroke-linecap: square"/>
   </g>
   <g id="line2d_64"/>
   <g id="patch_9">
    <path d="M 428.761842 419.810392 
L 449.486404 419.810392 
L 449.486404 411.024214 
L 428.761842 411.024214 
L 428.761842 419.810392 
z
" clip-path="url(#p735976c136)" style="fill: #d41159; stroke: #000000; stroke-linejoin: miter"/>
   </g>
   <g id="line2d_65">
    <path d="M 439.124123 419.810392 
L 439.124123 421.379208 
" clip-path="url(#p735976c136)" style="fill: none; stroke: #000000; stroke-linecap: square"/>
   </g>
   <g id="line2d_66">
    <path d="M 439.124123 411.024214 
L 439.124123 406.743815 
" clip-path="url(#p735976c136)" style="fill: none; stroke: #000000; stroke-linecap: square"/>
   </g>
   <g id="line2d_67">
    <path d="M 433.942982 421.379208 
L 444.305263 421.379208 
" clip-path="url(#p735976c136)" style="fill: none; stroke: #000000; stroke-linecap: square"/>
   </g>
   <g id="line2d_68">
    <path d="M 433.942982 406.743815 
L 444.305263 406.743815 
" clip-path="url(#p735976c136)" style="fill: none; stroke: #000000; stroke-linecap: square"/>
   </g>
   <g id="line2d_69"/>
   <g id="patch_10">
    <path d="M 480.573246 364.688208 
L 501.297807 364.688208 
L 501.297807 120.691609 
L 480.573246 120.691609 
L 480.573246 364.688208 
z
" clip-path="url(#p735976c136)" style="fill: #d41159; stroke: #000000; stroke-linejoin: miter"/>
   </g>
   <g id="line2d_70">
    <path d="M 490.935526 364.688208 
L 490.935526 373.339648 
" clip-path="url(#p735976c136)" style="fill: none; stroke: #000000; stroke-linecap: square"/>
   </g>
   <g id="line2d_71">
    <path d="M 490.935526 120.691609 
L 490.935526 53.022294 
" clip-path="url(#p735976c136)" style="fill: none; stroke: #000000; stroke-linecap: square"/>
   </g>
   <g id="line2d_72">
    <path d="M 485.754386 373.339648 
L 496.116667 373.339648 
" clip-path="url(#p735976c136)" style="fill: none; stroke: #000000; stroke-linecap: square"/>
   </g>
   <g id="line2d_73">
    <path d="M 485.754386 53.022294 
L 496.116667 53.022294 
" clip-path="url(#p735976c136)" style="fill: none; stroke: #000000; stroke-linecap: square"/>
   </g>
   <g id="line2d_74"/>
   <g id="patch_11">
    <path d="M 532.384649 435.87488 
L 553.109211 435.87488 
L 553.109211 419.882112 
L 532.384649 419.882112 
L 532.384649 435.87488 
z
" clip-path="url(#p735976c136)" style="fill: #d41159; stroke: #000000; stroke-linejoin: miter"/>
   </g>
   <g id="line2d_75">
    <path d="M 542.74693 435.87488 
L 542.74693 436.371798 
" clip-path="url(#p735976c136)" style="fill: none; stroke: #000000; stroke-linecap: square"/>
   </g>
   <g id="line2d_76">
    <path d="M 542.74693 419.882112 
L 542.74693 418.673405 
" clip-path="url(#p735976c136)" style="fill: none; stroke: #000000; stroke-linecap: square"/>
   </g>
   <g id="line2d_77">
    <path d="M 537.565789 436.371798 
L 547.92807 436.371798 
" clip-path="url(#p735976c136)" style="fill: none; stroke: #000000; stroke-linecap: square"/>
   </g>
   <g id="line2d_78">
    <path d="M 537.565789 418.673405 
L 547.92807 418.673405 
" clip-path="url(#p735976c136)" style="fill: none; stroke: #000000; stroke-linecap: square"/>
   </g>
   <g id="line2d_79"/>
   <g id="patch_12">
    <path d="M 584.196053 422.436166 
L 604.920614 422.436166 
L 604.920614 416.911427 
L 584.196053 416.911427 
L 584.196053 422.436166 
z
" clip-path="url(#p735976c136)" style="fill: #d41159; stroke: #000000; stroke-linejoin: miter"/>
   </g>
   <g id="line2d_80">
    <path d="M 594.558333 422.436166 
L 594.558333 429.941877 
" clip-path="url(#p735976c136)" style="fill: none; stroke: #000000; stroke-linecap: square"/>
   </g>
   <g id="line2d_81">
    <path d="M 594.558333 416.911427 
L 594.558333 416.911427 
" clip-path="url(#p735976c136)" style="fill: none; stroke: #000000; stroke-linecap: square"/>
   </g>
   <g id="line2d_82">
    <path d="M 589.377193 429.941877 
L 599.739474 429.941877 
" clip-path="url(#p735976c136)" style="fill: none; stroke: #000000; stroke-linecap: square"/>
   </g>
   <g id="line2d_83">
    <path d="M 589.377193 416.911427 
L 599.739474 416.911427 
" clip-path="url(#p735976c136)" style="fill: none; stroke: #000000; stroke-linecap: square"/>
   </g>
   <g id="line2d_84">
    <defs>
     <path id="m4c26e79679" d="M 0 3 
C 0.795609 3 1.55874 2.683901 2.12132 2.12132 
C 2.683901 1.55874 3 0.795609 3 0 
C 3 -0.795609 2.683901 -1.55874 2.12132 -2.12132 
C 1.55874 -2.683901 0.795609 -3 0 -3 
C -0.795609 -3 -1.55874 -2.683901 -2.12132 -2.12132 
C -2.683901 -1.55874 -3 -0.795609 -3 0 
C -3 0.795609 -2.683901 1.55874 -2.12132 2.12132 
C -1.55874 2.683901 -0.795609 3 0 3 
z
" style="stroke: #000000"/>
    </defs>
    <g clip-path="url(#p735976c136)">
     <use xlink:href="#m4c26e79679" x="594.558333" y="408.025544" style="fill-opacity: 0; stroke: #000000"/>
    </g>
   </g>
   <g id="patch_13">
    <path d="M 636.007456 411.024214 
L 656.732018 411.024214 
L 656.732018 411.024214 
L 636.007456 411.024214 
L 636.007456 411.024214 
z
" clip-path="url(#p735976c136)" style="fill: #d41159; stroke: #000000; stroke-linejoin: miter"/>
   </g>
   <g id="line2d_85">
    <path d="M 646.369737 411.024214 
L 646.369737 411.024214 
" clip-path="url(#p735976c136)" style="fill: none; stroke: #000000; stroke-linecap: square"/>
   </g>
   <g id="line2d_86">
    <path d="M 646.369737 411.024214 
L 646.369737 411.024214 
" clip-path="url(#p735976c136)" style="fill: none; stroke: #000000; stroke-linecap: square"/>
   </g>
   <g id="line2d_87">
    <path d="M 641.188596 411.024214 
L 651.550877 411.024214 
" clip-path="url(#p735976c136)" style="fill: none; stroke: #000000; stroke-linecap: square"/>
   </g>
   <g id="line2d_88">
    <path d="M 641.188596 411.024214 
L 651.550877 411.024214 
" clip-path="url(#p735976c136)" style="fill: none; stroke: #000000; stroke-linecap: square"/>
   </g>
   <g id="line2d_89">
    <g clip-path="url(#p735976c136)">
     <use xlink:href="#m4c26e79679" x="646.369737" y="434.288552" style="fill-opacity: 0; stroke: #000000"/>
    </g>
   </g>
   <g id="patch_14">
    <path d="M 138.617982 456.55369 
L 159.342544 456.55369 
L 159.342544 412.971842 
L 138.617982 412.971842 
L 138.617982 456.55369 
z
" clip-path="url(#p735976c136)" style="fill: #004d40; stroke: #000000; stroke-linejoin: miter"/>
   </g>
   <g id="line2d_90">
    <path d="M 148.980263 456.55369 
L 148.980263 468.857041 
" clip-path="url(#p735976c136)" style="fill: none; stroke: #000000; stroke-linecap: square"/>
   </g>
   <g id="line2d_91">
    <path d="M 148.980263 412.971842 
L 148.980263 410.276913 
" clip-path="url(#p735976c136)" style="fill: none; stroke: #000000; stroke-linecap: square"/>
   </g>
   <g id="line2d_92">
    <path d="M 143.799123 468.857041 
L 154.161404 468.857041 
" clip-path="url(#p735976c136)" style="fill: none; stroke: #000000; stroke-linecap: square"/>
   </g>
   <g id="line2d_93">
    <path d="M 143.799123 410.276913 
L 154.161404 410.276913 
" clip-path="url(#p735976c136)" style="fill: none; stroke: #000000; stroke-linecap: square"/>
   </g>
   <g id="line2d_94"/>
   <g id="patch_15">
    <path d="M 190.429386 426.784709 
L 211.153947 426.784709 
L 211.153947 405.645593 
L 190.429386 405.645593 
L 190.429386 426.784709 
z
" clip-path="url(#p735976c136)" style="fill: #004d40; stroke: #000000; stroke-linejoin: miter"/>
   </g>
   <g id="line2d_95">
    <path d="M 200.791667 426.784709 
L 200.791667 432.140944 
" clip-path="url(#p735976c136)" style="fill: none; stroke: #000000; stroke-linecap: square"/>
   </g>
   <g id="line2d_96">
    <path d="M 200.791667 405.645593 
L 200.791667 403.318245 
" clip-path="url(#p735976c136)" style="fill: none; stroke: #000000; stroke-linecap: square"/>
   </g>
   <g id="line2d_97">
    <path d="M 195.610526 432.140944 
L 205.972807 432.140944 
" clip-path="url(#p735976c136)" style="fill: none; stroke: #000000; stroke-linecap: square"/>
   </g>
   <g id="line2d_98">
    <path d="M 195.610526 403.318245 
L 205.972807 403.318245 
" clip-path="url(#p735976c136)" style="fill: none; stroke: #000000; stroke-linecap: square"/>
   </g>
   <g id="line2d_99"/>
   <g id="patch_16">
    <path d="M 242.240789 441.868803 
L 262.965351 441.868803 
L 262.965351 394.72694 
L 242.240789 394.72694 
L 242.240789 441.868803 
z
" clip-path="url(#p735976c136)" style="fill: #004d40; stroke: #000000; stroke-linejoin: miter"/>
   </g>
   <g id="line2d_100">
    <path d="M 252.60307 441.868803 
L 252.60307 442.251306 
" clip-path="url(#p735976c136)" style="fill: none; stroke: #000000; stroke-linecap: square"/>
   </g>
   <g id="line2d_101">
    <path d="M 252.60307 394.72694 
L 252.60307 388.122168 
" clip-path="url(#p735976c136)" style="fill: none; stroke: #000000; stroke-linecap: square"/>
   </g>
   <g id="line2d_102">
    <path d="M 247.42193 442.251306 
L 257.784211 442.251306 
" clip-path="url(#p735976c136)" style="fill: none; stroke: #000000; stroke-linecap: square"/>
   </g>
   <g id="line2d_103">
    <path d="M 247.42193 388.122168 
L 257.784211 388.122168 
" clip-path="url(#p735976c136)" style="fill: none; stroke: #000000; stroke-linecap: square"/>
   </g>
   <g id="line2d_104"/>
   <g id="patch_17">
    <path d="M 294.052193 431.273495 
L 314.776754 431.273495 
L 314.776754 404.663349 
L 294.052193 404.663349 
L 294.052193 431.273495 
z
" clip-path="url(#p735976c136)" style="fill: #004d40; stroke: #000000; stroke-linejoin: miter"/>
   </g>
   <g id="line2d_105">
    <path d="M 304.414474 431.273495 
L 304.414474 432.136331 
" clip-path="url(#p735976c136)" style="fill: none; stroke: #000000; stroke-linecap: square"/>
   </g>
   <g id="line2d_106">
    <path d="M 304.414474 404.663349 
L 304.414474 403.209811 
" clip-path="url(#p735976c136)" style="fill: none; stroke: #000000; stroke-linecap: square"/>
   </g>
   <g id="line2d_107">
    <path d="M 299.233333 432.136331 
L 309.595614 432.136331 
" clip-path="url(#p735976c136)" style="fill: none; stroke: #000000; stroke-linecap: square"/>
   </g>
   <g id="line2d_108">
    <path d="M 299.233333 403.209811 
L 309.595614 403.209811 
" clip-path="url(#p735976c136)" style="fill: none; stroke: #000000; stroke-linecap: square"/>
   </g>
   <g id="line2d_109"/>
   <g id="patch_18">
    <path d="M 345.863596 445.28414 
L 366.588158 445.28414 
L 366.588158 394.177067 
L 345.863596 394.177067 
L 345.863596 445.28414 
z
" clip-path="url(#p735976c136)" style="fill: #004d40; stroke: #000000; stroke-linejoin: miter"/>
   </g>
   <g id="line2d_110">
    <path d="M 356.225877 445.28414 
L 356.225877 451.357442 
" clip-path="url(#p735976c136)" style="fill: none; stroke: #000000; stroke-linecap: square"/>
   </g>
   <g id="line2d_111">
    <path d="M 356.225877 394.177067 
L 356.225877 389.007356 
" clip-path="url(#p735976c136)" style="fill: none; stroke: #000000; stroke-linecap: square"/>
   </g>
   <g id="line2d_112">
    <path d="M 351.044737 451.357442 
L 361.407018 451.357442 
" clip-path="url(#p735976c136)" style="fill: none; stroke: #000000; stroke-linecap: square"/>
   </g>
   <g id="line2d_113">
    <path d="M 351.044737 389.007356 
L 361.407018 389.007356 
" clip-path="url(#p735976c136)" style="fill: none; stroke: #000000; stroke-linecap: square"/>
   </g>
   <g id="line2d_114"/>
   <g id="patch_19">
    <path d="M 397.675 430.544353 
L 418.399561 430.544353 
L 418.399561 411.024214 
L 397.675 411.024214 
L 397.675 430.544353 
z
" clip-path="url(#p735976c136)" style="fill: #004d40; stroke: #000000; stroke-linejoin: miter"/>
   </g>
   <g id="line2d_115">
    <path d="M 408.037281 430.544353 
L 408.037281 432.685579 
" clip-path="url(#p735976c136)" style="fill: none; stroke: #000000; stroke-linecap: square"/>
   </g>
   <g id="line2d_116">
    <path d="M 408.037281 411.024214 
L 408.037281 410.163971 
" clip-path="url(#p735976c136)" style="fill: none; stroke: #000000; stroke-linecap: square"/>
   </g>
   <g id="line2d_117">
    <path d="M 402.85614 432.685579 
L 413.218421 432.685579 
" clip-path="url(#p735976c136)" style="fill: none; stroke: #000000; stroke-linecap: square"/>
   </g>
   <g id="line2d_118">
    <path d="M 402.85614 410.163971 
L 413.218421 410.163971 
" clip-path="url(#p735976c136)" style="fill: none; stroke: #000000; stroke-linecap: square"/>
   </g>
   <g id="line2d_119"/>
   <g id="patch_20">
    <path d="M 449.486404 429.528689 
L 470.210965 429.528689 
L 470.210965 411.024214 
L 449.486404 411.024214 
L 449.486404 429.528689 
z
" clip-path="url(#p735976c136)" style="fill: #004d40; stroke: #000000; stroke-linejoin: miter"/>
   </g>
   <g id="line2d_120">
    <path d="M 459.848684 429.528689 
L 459.848684 432.446082 
" clip-path="url(#p735976c136)" style="fill: none; stroke: #000000; stroke-linecap: square"/>
   </g>
   <g id="line2d_121">
    <path d="M 459.848684 411.024214 
L 459.848684 409.22534 
" clip-path="url(#p735976c136)" style="fill: none; stroke: #000000; stroke-linecap: square"/>
   </g>
   <g id="line2d_122">
    <path d="M 454.667544 432.446082 
L 465.029825 432.446082 
" clip-path="url(#p735976c136)" style="fill: none; stroke: #000000; stroke-linecap: square"/>
   </g>
   <g id="line2d_123">
    <path d="M 454.667544 409.22534 
L 465.029825 409.22534 
" clip-path="url(#p735976c136)" style="fill: none; stroke: #000000; stroke-linecap: square"/>
   </g>
   <g id="line2d_124"/>
   <g id="patch_21">
    <path d="M 501.297807 384.031914 
L 522.022368 384.031914 
L 522.022368 125.98998 
L 501.297807 125.98998 
L 501.297807 384.031914 
z
" clip-path="url(#p735976c136)" style="fill: #004d40; stroke: #000000; stroke-linejoin: miter"/>
   </g>
   <g id="line2d_125">
    <path d="M 511.660088 384.031914 
L 511.660088 394.717195 
" clip-path="url(#p735976c136)" style="fill: none; stroke: #000000; stroke-linecap: square"/>
   </g>
   <g id="line2d_126">
    <path d="M 511.660088 125.98998 
L 511.660088 55.352508 
" clip-path="url(#p735976c136)" style="fill: none; stroke: #000000; stroke-linecap: square"/>
   </g>
   <g id="line2d_127">
    <path d="M 506.478947 394.717195 
L 516.841228 394.717195 
" clip-path="url(#p735976c136)" style="fill: none; stroke: #000000; stroke-linecap: square"/>
   </g>
   <g id="line2d_128">
    <path d="M 506.478947 55.352508 
L 516.841228 55.352508 
" clip-path="url(#p735976c136)" style="fill: none; stroke: #000000; stroke-linecap: square"/>
   </g>
   <g id="line2d_129"/>
   <g id="patch_22">
    <path d="M 553.109211 474.613762 
L 573.833772 474.613762 
L 573.833772 431.904736 
L 553.109211 431.904736 
L 553.109211 474.613762 
z
" clip-path="url(#p735976c136)" style="fill: #004d40; stroke: #000000; stroke-linejoin: miter"/>
   </g>
   <g id="line2d_130">
    <path d="M 563.471491 474.613762 
L 563.471491 479.657006 
" clip-path="url(#p735976c136)" style="fill: none; stroke: #000000; stroke-linecap: square"/>
   </g>
   <g id="line2d_131">
    <path d="M 563.471491 431.904736 
L 563.471491 430.268627 
" clip-path="url(#p735976c136)" style="fill: none; stroke: #000000; stroke-linecap: square"/>
   </g>
   <g id="line2d_132">
    <path d="M 558.290351 479.657006 
L 568.652632 479.657006 
" clip-path="url(#p735976c136)" style="fill: none; stroke: #000000; stroke-linecap: square"/>
   </g>
   <g id="line2d_133">
    <path d="M 558.290351 430.268627 
L 568.652632 430.268627 
" clip-path="url(#p735976c136)" style="fill: none; stroke: #000000; stroke-linecap: square"/>
   </g>
   <g id="line2d_134"/>
   <g id="patch_23">
    <path d="M 604.920614 438.337136 
L 625.645175 438.337136 
L 625.645175 418.130441 
L 604.920614 418.130441 
L 604.920614 438.337136 
z
" clip-path="url(#p735976c136)" style="fill: #004d40; stroke: #000000; stroke-linejoin: miter"/>
   </g>
   <g id="line2d_135">
    <path d="M 615.282895 438.337136 
L 615.282895 454.935932 
" clip-path="url(#p735976c136)" style="fill: none; stroke: #000000; stroke-linecap: square"/>
   </g>
   <g id="line2d_136">
    <path d="M 615.282895 418.130441 
L 615.282895 403.934573 
" clip-path="url(#p735976c136)" style="fill: none; stroke: #000000; stroke-linecap: square"/>
   </g>
   <g id="line2d_137">
    <path d="M 610.101754 454.935932 
L 620.464035 454.935932 
" clip-path="url(#p735976c136)" style="fill: none; stroke: #000000; stroke-linecap: square"/>
   </g>
   <g id="line2d_138">
    <path d="M 610.101754 403.934573 
L 620.464035 403.934573 
" clip-path="url(#p735976c136)" style="fill: none; stroke: #000000; stroke-linecap: square"/>
   </g>
   <g id="line2d_139"/>
   <g id="patch_24">
    <path d="M 656.732018 411.024214 
L 677.456579 411.024214 
L 677.456579 411.024214 
L 656.732018 411.024214 
L 656.732018 411.024214 
z
" clip-path="url(#p735976c136)" style="fill: #004d40; stroke: #000000; stroke-linejoin: miter"/>
   </g>
   <g id="line2d_140">
    <path d="M 667.094298 411.024214 
L 667.094298 411.024214 
" clip-path="url(#p735976c136)" style="fill: none; stroke: #000000; stroke-linecap: square"/>
   </g>
   <g id="line2d_141">
    <path d="M 667.094298 411.024214 
L 667.094298 411.024214 
" clip-path="url(#p735976c136)" style="fill: none; stroke: #000000; stroke-linecap: square"/>
   </g>
   <g id="line2d_142">
    <path d="M 661.913158 411.024214 
L 672.275439 411.024214 
" clip-path="url(#p735976c136)" style="fill: none; stroke: #000000; stroke-linecap: square"/>
   </g>
   <g id="line2d_143">
    <path d="M 661.913158 411.024214 
L 672.275439 411.024214 
" clip-path="url(#p735976c136)" style="fill: none; stroke: #000000; stroke-linecap: square"/>
   </g>
   <g id="line2d_144">
    <g clip-path="url(#p735976c136)">
     <use xlink:href="#m4c26e79679" x="667.094298" y="449.021205" style="fill-opacity: 0; stroke: #000000"/>
    </g>
   </g>
   <g id="line2d_145">
    <path d="M 117.893421 426.265906 
L 138.617982 426.265906 
" clip-path="url(#p735976c136)" style="fill: none; stroke: #ff7f0e; stroke-width: 3"/>
   </g>
   <g id="line2d_146">
    <path d="M 169.704825 413.008495 
L 190.429386 413.008495 
" clip-path="url(#p735976c136)" style="fill: none; stroke: #ff7f0e; stroke-width: 3"/>
   </g>
   <g id="line2d_147">
    <path d="M 221.516228 410.095692 
L 242.240789 410.095692 
" clip-path="url(#p735976c136)" style="fill: none; stroke: #ff7f0e; stroke-width: 3"/>
   </g>
   <g id="line2d_148">
    <path d="M 273.327632 412.009804 
L 294.052193 412.009804 
" clip-path="url(#p735976c136)" style="fill: none; stroke: #ff7f0e; stroke-width: 3"/>
   </g>
   <g id="line2d_149">
    <path d="M 325.139035 407.535531 
L 345.863596 407.535531 
" clip-path="url(#p735976c136)" style="fill: none; stroke: #ff7f0e; stroke-width: 3"/>
   </g>
   <g id="line2d_150">
    <path d="M 376.950439 411.024214 
L 397.675 411.024214 
" clip-path="url(#p735976c136)" style="fill: none; stroke: #ff7f0e; stroke-width: 3"/>
   </g>
   <g id="line2d_151">
    <path d="M 428.761842 411.024214 
L 449.486404 411.024214 
" clip-path="url(#p735976c136)" style="fill: none; stroke: #ff7f0e; stroke-width: 3"/>
   </g>
   <g id="line2d_152">
    <path d="M 480.573246 125.817811 
L 501.297807 125.817811 
" clip-path="url(#p735976c136)" style="fill: none; stroke: #ff7f0e; stroke-width: 3"/>
   </g>
   <g id="line2d_153">
    <path d="M 532.384649 420.364513 
L 553.109211 420.364513 
" clip-path="url(#p735976c136)" style="fill: none; stroke: #ff7f0e; stroke-width: 3"/>
   </g>
   <g id="line2d_154">
    <path d="M 584.196053 421.559423 
L 604.920614 421.559423 
" clip-path="url(#p735976c136)" style="fill: none; stroke: #ff7f0e; stroke-width: 3"/>
   </g>
   <g id="line2d_155">
    <path d="M 636.007456 411.024214 
L 656.732018 411.024214 
" clip-path="url(#p735976c136)" style="fill: none; stroke: #ff7f0e; stroke-width: 3"/>
   </g>
   <g id="line2d_156">
    <path d="M 138.617982 444.902287 
L 159.342544 444.902287 
" clip-path="url(#p735976c136)" style="fill: none; stroke: #ff7f0e; stroke-width: 3"/>
   </g>
   <g id="line2d_157">
    <path d="M 190.429386 410.150701 
L 211.153947 410.150701 
" clip-path="url(#p735976c136)" style="fill: none; stroke: #ff7f0e; stroke-width: 3"/>
   </g>
   <g id="line2d_158">
    <path d="M 242.240789 410.016948 
L 262.965351 410.016948 
" clip-path="url(#p735976c136)" style="fill: none; stroke: #ff7f0e; stroke-width: 3"/>
   </g>
   <g id="line2d_159">
    <path d="M 294.052193 413.170521 
L 314.776754 413.170521 
" clip-path="url(#p735976c136)" style="fill: none; stroke: #ff7f0e; stroke-width: 3"/>
   </g>
   <g id="line2d_160">
    <path d="M 345.863596 411.841149 
L 366.588158 411.841149 
" clip-path="url(#p735976c136)" style="fill: none; stroke: #ff7f0e; stroke-width: 3"/>
   </g>
   <g id="line2d_161">
    <path d="M 397.675 411.024214 
L 418.399561 411.024214 
" clip-path="url(#p735976c136)" style="fill: none; stroke: #ff7f0e; stroke-width: 3"/>
   </g>
   <g id="line2d_162">
    <path d="M 449.486404 411.024214 
L 470.210965 411.024214 
" clip-path="url(#p735976c136)" style="fill: none; stroke: #ff7f0e; stroke-width: 3"/>
   </g>
   <g id="line2d_163">
    <path d="M 501.297807 131.124781 
L 522.022368 131.124781 
" clip-path="url(#p735976c136)" style="fill: none; stroke: #ff7f0e; stroke-width: 3"/>
   </g>
   <g id="line2d_164">
    <path d="M 553.109211 435.734536 
L 573.833772 435.734536 
" clip-path="url(#p735976c136)" style="fill: none; stroke: #ff7f0e; stroke-width: 3"/>
   </g>
   <g id="line2d_165">
    <path d="M 604.920614 427.817599 
L 625.645175 427.817599 
" clip-path="url(#p735976c136)" style="fill: none; stroke: #ff7f0e; stroke-width: 3"/>
   </g>
   <g id="line2d_166">
    <path d="M 656.732018 411.024214 
L 677.456579 411.024214 
" clip-path="url(#p735976c136)" style="fill: none; stroke: #ff7f0e; stroke-width: 3"/>
   </g>
   <g id="patch_25">
    <path d="M 102.35 633.04 
L 102.35 27 
" style="fill: none; stroke: #000000; stroke-width: 0.8; stroke-linejoin: miter; stroke-linecap: square"/>
   </g>
   <g id="patch_26">
    <path d="M 693 633.04 
L 693 27 
" style="fill: none; stroke: #000000; stroke-width: 0.8; stroke-linejoin: miter; stroke-linecap: square"/>
   </g>
   <g id="patch_27">
    <path d="M 102.35 633.04 
L 693 633.04 
" style="fill: none; stroke: #000000; stroke-width: 0.8; stroke-linejoin: miter; stroke-linecap: square"/>
   </g>
   <g id="patch_28">
    <path d="M 102.35 27 
L 693 27 
" style="fill: none; stroke: #000000; stroke-width: 0.8; stroke-linejoin: miter; stroke-linecap: square"/>
   </g>
   <g id="legend_1">
    <g id="patch_29">
     <path d="M 114.95 94.24125 
L 364.84625 94.24125 
Q 368.44625 94.24125 368.44625 90.64125 
L 368.44625 39.6 
Q 368.44625 36 364.84625 36 
L 114.95 36 
Q 111.35 36 111.35 39.6 
L 111.35 90.64125 
Q 111.35 94.24125 114.95 94.24125 
z
" style="fill: #ffffff; opacity: 0.8; stroke: #cccccc; stroke-linejoin: miter"/>
    </g>
    <g id="patch_30">
     <path d="M 118.55 56.877187 
L 154.55 56.877187 
L 154.55 44.277187 
L 118.55 44.277187 
z
" style="fill: #d41159; stroke: #000000; stroke-linejoin: miter"/>
    </g>
    <g id="text_20">
     <!-- Dataset shape model -->
     <g transform="translate(168.95 56.877187) scale(0.18 -0.18)">
      <defs>
       <path id="DejaVuSans-73" d="M 2834 3397 
L 2834 2853 
Q 2591 2978 2328 3040 
Q 2066 3103 1784 3103 
Q 1356 3103 1142 2972 
Q 928 2841 928 2578 
Q 928 2378 1081 2264 
Q 1234 2150 1697 2047 
L 1894 2003 
Q 2506 1872 2764 1633 
Q 3022 1394 3022 966 
Q 3022 478 2636 193 
Q 2250 -91 1575 -91 
Q 1294 -91 989 -36 
Q 684 19 347 128 
L 347 722 
Q 666 556 975 473 
Q 1284 391 1588 391 
Q 1994 391 2212 530 
Q 2431 669 2431 922 
Q 2431 1156 2273 1281 
Q 2116 1406 1581 1522 
L 1381 1569 
Q 847 1681 609 1914 
Q 372 2147 372 2553 
Q 372 3047 722 3315 
Q 1072 3584 1716 3584 
Q 2034 3584 2315 3537 
Q 2597 3491 2834 3397 
z
" transform="scale(0.015625)"/>
       <path id="DejaVuSans-68" d="M 3513 2113 
L 3513 0 
L 2938 0 
L 2938 2094 
Q 2938 2591 2744 2837 
Q 2550 3084 2163 3084 
Q 1697 3084 1428 2787 
Q 1159 2491 1159 1978 
L 1159 0 
L 581 0 
L 581 4863 
L 1159 4863 
L 1159 2956 
Q 1366 3272 1645 3428 
Q 1925 3584 2291 3584 
Q 2894 3584 3203 3211 
Q 3513 2838 3513 2113 
z
" transform="scale(0.015625)"/>
       <path id="DejaVuSans-64" d="M 2906 2969 
L 2906 4863 
L 3481 4863 
L 3481 0 
L 2906 0 
L 2906 525 
Q 2725 213 2448 61 
Q 2172 -91 1784 -91 
Q 1150 -91 751 415 
Q 353 922 353 1747 
Q 353 2572 751 3078 
Q 1150 3584 1784 3584 
Q 2172 3584 2448 3432 
Q 2725 3281 2906 2969 
z
M 947 1747 
Q 947 1113 1208 752 
Q 1469 391 1925 391 
Q 2381 391 2643 752 
Q 2906 1113 2906 1747 
Q 2906 2381 2643 2742 
Q 2381 3103 1925 3103 
Q 1469 3103 1208 2742 
Q 947 2381 947 1747 
z
" transform="scale(0.015625)"/>
      </defs>
      <use xlink:href="#DejaVuSans-44"/>
      <use xlink:href="#DejaVuSans-61" x="77.001953"/>
      <use xlink:href="#DejaVuSans-74" x="138.28125"/>
      <use xlink:href="#DejaVuSans-61" x="177.490234"/>
      <use xlink:href="#DejaVuSans-73" x="238.769531"/>
      <use xlink:href="#DejaVuSans-65" x="290.869141"/>
      <use xlink:href="#DejaVuSans-74" x="352.392578"/>
      <use xlink:href="#DejaVuSans-20" x="391.601562"/>
      <use xlink:href="#DejaVuSans-73" x="423.388672"/>
      <use xlink:href="#DejaVuSans-68" x="475.488281"/>
      <use xlink:href="#DejaVuSans-61" x="538.867188"/>
      <use xlink:href="#DejaVuSans-70" x="600.146484"/>
      <use xlink:href="#DejaVuSans-65" x="663.623047"/>
      <use xlink:href="#DejaVuSans-20" x="725.146484"/>
      <use xlink:href="#DejaVuSans-6d" x="756.933594"/>
      <use xlink:href="#DejaVuSans-6f" x="854.345703"/>
      <use xlink:href="#DejaVuSans-64" x="915.527344"/>
      <use xlink:href="#DejaVuSans-65" x="979.003906"/>
      <use xlink:href="#DejaVuSans-6c" x="1040.527344"/>
     </g>
    </g>
    <g id="patch_31">
     <path d="M 118.55 83.297812 
L 154.55 83.297812 
L 154.55 70.697812 
L 118.55 70.697812 
z
" style="fill: #004d40; stroke: #000000; stroke-linejoin: miter"/>
    </g>
    <g id="text_21">
     <!-- Minimal model -->
     <g transform="translate(168.95 83.297812) scale(0.18 -0.18)">
      <defs>
       <path id="DejaVuSans-4d" d="M 628 4666 
L 1569 4666 
L 2759 1491 
L 3956 4666 
L 4897 4666 
L 4897 0 
L 4281 0 
L 4281 4097 
L 3078 897 
L 2444 897 
L 1241 4097 
L 1241 0 
L 628 0 
L 628 4666 
z
" transform="scale(0.015625)"/>
      </defs>
      <use xlink:href="#DejaVuSans-4d"/>
      <use xlink:href="#DejaVuSans-69" x="86.279297"/>
      <use xlink:href="#DejaVuSans-6e" x="114.0625"/>
      <use xlink:href="#DejaVuSans-69" x="177.441406"/>
      <use xlink:href="#DejaVuSans-6d" x="205.224609"/>
      <use xlink:href="#DejaVuSans-61" x="302.636719"/>
      <use xlink:href="#DejaVuSans-6c" x="363.916016"/>
      <use xlink:href="#DejaVuSans-20" x="391.699219"/>
      <use xlink:href="#DejaVuSans-6d" x="423.486328"/>
      <use xlink:href="#DejaVuSans-6f" x="520.898438"/>
      <use xlink:href="#DejaVuSans-64" x="582.080078"/>
      <use xlink:href="#DejaVuSans-65" x="645.556641"/>
      <use xlink:href="#DejaVuSans-6c" x="707.080078"/>
     </g>
    </g>
   </g>
  </g>
 </g>
 <defs>
  <clipPath id="p735976c136">
   <rect x="102.35" y="27" width="590.65" height="606.04"/>
  </clipPath>
 </defs>
</svg>
